<svg width="836" height="628" viewBox="0 0 836 628" fill="none" xmlns="http://www.w3.org/2000/svg">
<g opacity="0.6">
<path d="M18 88.6V75.2L40.9 49.7H56.6V50.9L18 88.6ZM6.3 106V49.7H18.3V106H6.3ZM44 106L24.1 77.1L32.8 68.6L57.8 104.8V106H44ZM102.682 49.7H115.282V106H92.182L77.282 55H77.082V106H64.582V49.7H85.982L102.482 100.7H102.682V49.7ZM150.898 107.4C141.698 107.4 134.665 104.767 129.798 99.5C124.932 94.1667 122.498 87 122.498 78C122.498 72.0667 123.532 66.9333 125.598 62.6C127.732 58.2 130.898 54.8 135.098 52.4C139.298 49.9333 144.565 48.7 150.898 48.7C160.165 48.7 167.198 51.3667 171.998 56.7C176.798 61.9667 179.198 69.0667 179.198 78C179.198 83.8 178.132 88.9333 175.998 93.4C173.865 97.8 170.698 101.233 166.498 103.7C162.298 106.167 157.098 107.4 150.898 107.4ZM150.698 95.7C154.432 95.7 157.532 94.9333 159.998 93.4C162.465 91.8667 164.298 89.7667 165.498 87.1C166.698 84.3667 167.298 81.3333 167.298 78C167.298 74.6667 166.698 71.6333 165.498 68.9C164.298 66.1667 162.465 64 159.998 62.4C157.598 60.8 154.498 60 150.698 60C145.365 60 141.265 61.6667 138.398 65C135.598 68.3333 134.198 72.6667 134.198 78C134.198 81.2667 134.798 84.2667 135.998 87C137.265 89.6667 139.098 91.8 141.498 93.4C143.898 94.9333 146.965 95.7 150.698 95.7ZM216.522 49.7H229.322L222.922 65L215.822 106H196.422L184.122 49.7H196.922L206.022 101L216.522 49.7ZM248.722 49.7H261.522L249.622 106H230.222L222.922 65L216.322 49.7H229.322L239.922 101L248.722 49.7ZM301.075 86.4L281.875 49.7H295.475L307.275 76L319.175 49.7H332.675L313.075 86.4H301.075ZM301.075 106V85.1H313.075V106H301.075ZM359.883 107.4C350.683 107.4 343.649 104.767 338.783 99.5C333.916 94.1667 331.483 87 331.483 78C331.483 72.0667 332.516 66.9333 334.583 62.6C336.716 58.2 339.883 54.8 344.083 52.4C348.283 49.9333 353.549 48.7 359.883 48.7C369.149 48.7 376.183 51.3667 380.983 56.7C385.783 61.9667 388.183 69.0667 388.183 78C388.183 83.8 387.116 88.9333 384.983 93.4C382.849 97.8 379.683 101.233 375.483 103.7C371.283 106.167 366.083 107.4 359.883 107.4ZM359.683 95.7C363.416 95.7 366.516 94.9333 368.983 93.4C371.449 91.8667 373.283 89.7667 374.483 87.1C375.683 84.3667 376.283 81.3333 376.283 78C376.283 74.6667 375.683 71.6333 374.483 68.9C373.283 66.1667 371.449 64 368.983 62.4C366.583 60.8 363.483 60 359.683 60C354.349 60 350.249 61.6667 347.383 65C344.583 68.3333 343.183 72.6667 343.183 78C343.183 81.2667 343.783 84.2667 344.983 87C346.249 89.6667 348.083 91.8 350.483 93.4C352.883 94.9333 355.949 95.7 359.683 95.7ZM422.685 107.4C414.485 107.4 408.252 105.2 403.985 100.8C399.785 96.3333 397.685 90.0667 397.685 82V49.7H410.585V81.9C410.585 84.8333 410.952 87.2333 411.685 89.1C412.485 90.9 413.485 92.3 414.685 93.3C415.885 94.3 417.185 95 418.585 95.4C419.985 95.7333 421.352 95.9 422.685 95.9C424.685 95.9 426.618 95.5667 428.485 94.9C430.352 94.2333 431.885 92.9 433.085 90.9C434.285 88.8333 434.885 85.8333 434.885 81.9V49.7H447.785V82C447.785 90.2 445.685 96.5 441.485 100.9C437.352 105.233 431.085 107.4 422.685 107.4ZM458.132 106V49.7H479.932C484.865 49.7 489.065 50.2667 492.532 51.4C495.999 52.4667 498.665 54.2333 500.532 56.7C502.465 59.1 503.432 62.3667 503.432 66.5C503.432 69.7 502.932 72.4667 501.932 74.8C500.932 77.1333 499.465 78.9333 497.532 80.2C495.665 81.4667 493.432 82.1 490.832 82.1C492.632 82.1 494.032 82.4667 495.032 83.2C496.032 83.8667 496.799 84.8 497.332 86C497.865 87.1333 498.232 88.3333 498.432 89.6C498.699 90.8667 498.932 92.1 499.132 93.3C499.399 94.5 499.732 95.5333 500.132 96.4C500.599 97.2 501.299 97.7333 502.232 98C503.165 98.2 504.465 97.9667 506.132 97.3V104.1C504.599 105.433 502.832 106.3 500.832 106.7C498.832 107.1 496.899 106.967 495.032 106.3C493.165 105.633 491.599 104.333 490.332 102.4C489.132 100.4 488.532 97.6667 488.532 94.2C488.532 92.4 488.432 90.8333 488.232 89.5C488.099 88.1 487.699 86.9667 487.032 86.1C486.432 85.1667 485.465 84.4667 484.132 84C482.865 83.4667 481.099 83.1667 478.832 83.1C476.632 82.9667 473.765 83 470.232 83.2V106H458.132ZM470.232 74.6H478.732C481.932 74.6 484.532 74.5 486.532 74.3C488.599 74.1 490.132 73.5 491.132 72.5C492.132 71.5 492.632 69.8333 492.632 67.5C492.632 64.7667 492.032 62.8667 490.832 61.8C489.632 60.6667 487.865 60 485.532 59.8C483.199 59.6 480.299 59.5 476.832 59.5H470.232V74.6ZM564.471 49.7H577.271L570.871 65L563.771 106H544.371L532.071 49.7H544.871L553.971 101L564.471 49.7ZM596.671 49.7H609.471L597.571 106H578.171L570.871 65L564.271 49.7H577.271L587.871 101L596.671 49.7ZM641.426 107.4C632.226 107.4 625.192 104.767 620.326 99.5C615.459 94.1667 613.026 87 613.026 78C613.026 72.0667 614.059 66.9333 616.126 62.6C618.259 58.2 621.426 54.8 625.626 52.4C629.826 49.9333 635.092 48.7 641.426 48.7C650.692 48.7 657.726 51.3667 662.526 56.7C667.326 61.9667 669.726 69.0667 669.726 78C669.726 83.8 668.659 88.9333 666.526 93.4C664.392 97.8 661.226 101.233 657.026 103.7C652.826 106.167 647.626 107.4 641.426 107.4ZM641.226 95.7C644.959 95.7 648.059 94.9333 650.526 93.4C652.992 91.8667 654.826 89.7667 656.026 87.1C657.226 84.3667 657.826 81.3333 657.826 78C657.826 74.6667 657.226 71.6333 656.026 68.9C654.826 66.1667 652.992 64 650.526 62.4C648.126 60.8 645.026 60 641.226 60C635.892 60 631.792 61.6667 628.926 65C626.126 68.3333 624.726 72.6667 624.726 78C624.726 81.2667 625.326 84.2667 626.526 87C627.792 89.6667 629.626 91.8 632.026 93.4C634.426 94.9333 637.492 95.7 641.226 95.7ZM678.249 106V49.7H700.049C704.983 49.7 709.183 50.2667 712.649 51.4C716.116 52.4667 718.783 54.2333 720.649 56.7C722.583 59.1 723.549 62.3667 723.549 66.5C723.549 69.7 723.049 72.4667 722.049 74.8C721.049 77.1333 719.583 78.9333 717.649 80.2C715.783 81.4667 713.549 82.1 710.949 82.1C712.749 82.1 714.149 82.4667 715.149 83.2C716.149 83.8667 716.916 84.8 717.449 86C717.983 87.1333 718.349 88.3333 718.549 89.6C718.816 90.8667 719.049 92.1 719.249 93.3C719.516 94.5 719.849 95.5333 720.249 96.4C720.716 97.2 721.416 97.7333 722.349 98C723.283 98.2 724.583 97.9667 726.249 97.3V104.1C724.716 105.433 722.949 106.3 720.949 106.7C718.949 107.1 717.016 106.967 715.149 106.3C713.283 105.633 711.716 104.333 710.449 102.4C709.249 100.4 708.649 97.6667 708.649 94.2C708.649 92.4 708.549 90.8333 708.349 89.5C708.216 88.1 707.816 86.9667 707.149 86.1C706.549 85.1667 705.583 84.4667 704.249 84C702.983 83.4667 701.216 83.1667 698.949 83.1C696.749 82.9667 693.883 83 690.349 83.2V106H678.249ZM690.349 74.6H698.849C702.049 74.6 704.649 74.5 706.649 74.3C708.716 74.1 710.249 73.5 711.249 72.5C712.249 71.5 712.749 69.8333 712.749 67.5C712.749 64.7667 712.149 62.8667 710.949 61.8C709.749 60.6667 707.983 60 705.649 59.8C703.316 59.6 700.416 59.5 696.949 59.5H690.349V74.6ZM758.59 51.5V106H746.49V51.5H758.59ZM730.59 60V49.7H774.59V60H730.59ZM794.258 106H782.158V49.7H794.258V106ZM818.458 49.7H830.458V106H818.458V49.7ZM825.958 82.1H787.558V72.9H825.958V82.1Z" fill="white"/>
<path d="M18 211.6V198.2L40.9 172.7H56.6V173.9L18 211.6ZM6.3 229V172.7H18.3V229H6.3ZM44 229L24.1 200.1L32.8 191.6L57.8 227.8V229H44ZM102.682 172.7H115.282V229H92.182L77.282 178H77.082V229H64.582V172.7H85.982L102.482 223.7H102.682V172.7ZM150.898 230.4C141.698 230.4 134.665 227.767 129.798 222.5C124.932 217.167 122.498 210 122.498 201C122.498 195.067 123.532 189.933 125.598 185.6C127.732 181.2 130.898 177.8 135.098 175.4C139.298 172.933 144.565 171.7 150.898 171.7C160.165 171.7 167.198 174.367 171.998 179.7C176.798 184.967 179.198 192.067 179.198 201C179.198 206.8 178.132 211.933 175.998 216.4C173.865 220.8 170.698 224.233 166.498 226.7C162.298 229.167 157.098 230.4 150.898 230.4ZM150.698 218.7C154.432 218.7 157.532 217.933 159.998 216.4C162.465 214.867 164.298 212.767 165.498 210.1C166.698 207.367 167.298 204.333 167.298 201C167.298 197.667 166.698 194.633 165.498 191.9C164.298 189.167 162.465 187 159.998 185.4C157.598 183.8 154.498 183 150.698 183C145.365 183 141.265 184.667 138.398 188C135.598 191.333 134.198 195.667 134.198 201C134.198 204.267 134.798 207.267 135.998 210C137.265 212.667 139.098 214.8 141.498 216.4C143.898 217.933 146.965 218.7 150.698 218.7ZM216.522 172.7H229.322L222.922 188L215.822 229H196.422L184.122 172.7H196.922L206.022 224L216.522 172.7ZM248.722 172.7H261.522L249.622 229H230.222L222.922 188L216.322 172.7H229.322L239.922 224L248.722 172.7ZM301.075 209.4L281.875 172.7H295.475L307.275 199L319.175 172.7H332.675L313.075 209.4H301.075ZM301.075 229V208.1H313.075V229H301.075ZM359.883 230.4C350.683 230.4 343.649 227.767 338.783 222.5C333.916 217.167 331.483 210 331.483 201C331.483 195.067 332.516 189.933 334.583 185.6C336.716 181.2 339.883 177.8 344.083 175.4C348.283 172.933 353.549 171.7 359.883 171.7C369.149 171.7 376.183 174.367 380.983 179.7C385.783 184.967 388.183 192.067 388.183 201C388.183 206.8 387.116 211.933 384.983 216.4C382.849 220.8 379.683 224.233 375.483 226.7C371.283 229.167 366.083 230.4 359.883 230.4ZM359.683 218.7C363.416 218.7 366.516 217.933 368.983 216.4C371.449 214.867 373.283 212.767 374.483 210.1C375.683 207.367 376.283 204.333 376.283 201C376.283 197.667 375.683 194.633 374.483 191.9C373.283 189.167 371.449 187 368.983 185.4C366.583 183.8 363.483 183 359.683 183C354.349 183 350.249 184.667 347.383 188C344.583 191.333 343.183 195.667 343.183 201C343.183 204.267 343.783 207.267 344.983 210C346.249 212.667 348.083 214.8 350.483 216.4C352.883 217.933 355.949 218.7 359.683 218.7ZM422.685 230.4C414.485 230.4 408.252 228.2 403.985 223.8C399.785 219.333 397.685 213.067 397.685 205V172.7H410.585V204.9C410.585 207.833 410.952 210.233 411.685 212.1C412.485 213.9 413.485 215.3 414.685 216.3C415.885 217.3 417.185 218 418.585 218.4C419.985 218.733 421.352 218.9 422.685 218.9C424.685 218.9 426.618 218.567 428.485 217.9C430.352 217.233 431.885 215.9 433.085 213.9C434.285 211.833 434.885 208.833 434.885 204.9V172.7H447.785V205C447.785 213.2 445.685 219.5 441.485 223.9C437.352 228.233 431.085 230.4 422.685 230.4ZM458.132 229V172.7H479.932C484.865 172.7 489.065 173.267 492.532 174.4C495.999 175.467 498.665 177.233 500.532 179.7C502.465 182.1 503.432 185.367 503.432 189.5C503.432 192.7 502.932 195.467 501.932 197.8C500.932 200.133 499.465 201.933 497.532 203.2C495.665 204.467 493.432 205.1 490.832 205.1C492.632 205.1 494.032 205.467 495.032 206.2C496.032 206.867 496.799 207.8 497.332 209C497.865 210.133 498.232 211.333 498.432 212.6C498.699 213.867 498.932 215.1 499.132 216.3C499.399 217.5 499.732 218.533 500.132 219.4C500.599 220.2 501.299 220.733 502.232 221C503.165 221.2 504.465 220.967 506.132 220.3V227.1C504.599 228.433 502.832 229.3 500.832 229.7C498.832 230.1 496.899 229.967 495.032 229.3C493.165 228.633 491.599 227.333 490.332 225.4C489.132 223.4 488.532 220.667 488.532 217.2C488.532 215.4 488.432 213.833 488.232 212.5C488.099 211.1 487.699 209.967 487.032 209.1C486.432 208.167 485.465 207.467 484.132 207C482.865 206.467 481.099 206.167 478.832 206.1C476.632 205.967 473.765 206 470.232 206.2V229H458.132ZM470.232 197.6H478.732C481.932 197.6 484.532 197.5 486.532 197.3C488.599 197.1 490.132 196.5 491.132 195.5C492.132 194.5 492.632 192.833 492.632 190.5C492.632 187.767 492.032 185.867 490.832 184.8C489.632 183.667 487.865 183 485.532 182.8C483.199 182.6 480.299 182.5 476.832 182.5H470.232V197.6ZM564.471 172.7H577.271L570.871 188L563.771 229H544.371L532.071 172.7H544.871L553.971 224L564.471 172.7ZM596.671 172.7H609.471L597.571 229H578.171L570.871 188L564.271 172.7H577.271L587.871 224L596.671 172.7ZM641.426 230.4C632.226 230.4 625.192 227.767 620.326 222.5C615.459 217.167 613.026 210 613.026 201C613.026 195.067 614.059 189.933 616.126 185.6C618.259 181.2 621.426 177.8 625.626 175.4C629.826 172.933 635.092 171.7 641.426 171.7C650.692 171.7 657.726 174.367 662.526 179.7C667.326 184.967 669.726 192.067 669.726 201C669.726 206.8 668.659 211.933 666.526 216.4C664.392 220.8 661.226 224.233 657.026 226.7C652.826 229.167 647.626 230.4 641.426 230.4ZM641.226 218.7C644.959 218.7 648.059 217.933 650.526 216.4C652.992 214.867 654.826 212.767 656.026 210.1C657.226 207.367 657.826 204.333 657.826 201C657.826 197.667 657.226 194.633 656.026 191.9C654.826 189.167 652.992 187 650.526 185.4C648.126 183.8 645.026 183 641.226 183C635.892 183 631.792 184.667 628.926 188C626.126 191.333 624.726 195.667 624.726 201C624.726 204.267 625.326 207.267 626.526 210C627.792 212.667 629.626 214.8 632.026 216.4C634.426 217.933 637.492 218.7 641.226 218.7ZM678.249 229V172.7H700.049C704.983 172.7 709.183 173.267 712.649 174.4C716.116 175.467 718.783 177.233 720.649 179.7C722.583 182.1 723.549 185.367 723.549 189.5C723.549 192.7 723.049 195.467 722.049 197.8C721.049 200.133 719.583 201.933 717.649 203.2C715.783 204.467 713.549 205.1 710.949 205.1C712.749 205.1 714.149 205.467 715.149 206.2C716.149 206.867 716.916 207.8 717.449 209C717.983 210.133 718.349 211.333 718.549 212.6C718.816 213.867 719.049 215.1 719.249 216.3C719.516 217.5 719.849 218.533 720.249 219.4C720.716 220.2 721.416 220.733 722.349 221C723.283 221.2 724.583 220.967 726.249 220.3V227.1C724.716 228.433 722.949 229.3 720.949 229.7C718.949 230.1 717.016 229.967 715.149 229.3C713.283 228.633 711.716 227.333 710.449 225.4C709.249 223.4 708.649 220.667 708.649 217.2C708.649 215.4 708.549 213.833 708.349 212.5C708.216 211.1 707.816 209.967 707.149 209.1C706.549 208.167 705.583 207.467 704.249 207C702.983 206.467 701.216 206.167 698.949 206.1C696.749 205.967 693.883 206 690.349 206.2V229H678.249ZM690.349 197.6H698.849C702.049 197.6 704.649 197.5 706.649 197.3C708.716 197.1 710.249 196.5 711.249 195.5C712.249 194.5 712.749 192.833 712.749 190.5C712.749 187.767 712.149 185.867 710.949 184.8C709.749 183.667 707.983 183 705.649 182.8C703.316 182.6 700.416 182.5 696.949 182.5H690.349V197.6ZM758.59 174.5V229H746.49V174.5H758.59ZM730.59 183V172.7H774.59V183H730.59ZM794.258 229H782.158V172.7H794.258V229ZM818.458 172.7H830.458V229H818.458V172.7ZM825.958 205.1H787.558V195.9H825.958V205.1Z" fill="white" fill-opacity="0.9"/>
<path d="M18 334.6V321.2L40.9 295.7H56.6V296.9L18 334.6ZM6.3 352V295.7H18.3V352H6.3ZM44 352L24.1 323.1L32.8 314.6L57.8 350.8V352H44ZM102.682 295.7H115.282V352H92.182L77.282 301H77.082V352H64.582V295.7H85.982L102.482 346.7H102.682V295.7ZM150.898 353.4C141.698 353.4 134.665 350.767 129.798 345.5C124.932 340.167 122.498 333 122.498 324C122.498 318.067 123.532 312.933 125.598 308.6C127.732 304.2 130.898 300.8 135.098 298.4C139.298 295.933 144.565 294.7 150.898 294.7C160.165 294.7 167.198 297.367 171.998 302.7C176.798 307.967 179.198 315.067 179.198 324C179.198 329.8 178.132 334.933 175.998 339.4C173.865 343.8 170.698 347.233 166.498 349.7C162.298 352.167 157.098 353.4 150.898 353.4ZM150.698 341.7C154.432 341.7 157.532 340.933 159.998 339.4C162.465 337.867 164.298 335.767 165.498 333.1C166.698 330.367 167.298 327.333 167.298 324C167.298 320.667 166.698 317.633 165.498 314.9C164.298 312.167 162.465 310 159.998 308.4C157.598 306.8 154.498 306 150.698 306C145.365 306 141.265 307.667 138.398 311C135.598 314.333 134.198 318.667 134.198 324C134.198 327.267 134.798 330.267 135.998 333C137.265 335.667 139.098 337.8 141.498 339.4C143.898 340.933 146.965 341.7 150.698 341.7ZM216.522 295.7H229.322L222.922 311L215.822 352H196.422L184.122 295.7H196.922L206.022 347L216.522 295.7ZM248.722 295.7H261.522L249.622 352H230.222L222.922 311L216.322 295.7H229.322L239.922 347L248.722 295.7ZM301.075 332.4L281.875 295.7H295.475L307.275 322L319.175 295.7H332.675L313.075 332.4H301.075ZM301.075 352V331.1H313.075V352H301.075ZM359.883 353.4C350.683 353.4 343.649 350.767 338.783 345.5C333.916 340.167 331.483 333 331.483 324C331.483 318.067 332.516 312.933 334.583 308.6C336.716 304.2 339.883 300.8 344.083 298.4C348.283 295.933 353.549 294.7 359.883 294.7C369.149 294.7 376.183 297.367 380.983 302.7C385.783 307.967 388.183 315.067 388.183 324C388.183 329.8 387.116 334.933 384.983 339.4C382.849 343.8 379.683 347.233 375.483 349.7C371.283 352.167 366.083 353.4 359.883 353.4ZM359.683 341.7C363.416 341.7 366.516 340.933 368.983 339.4C371.449 337.867 373.283 335.767 374.483 333.1C375.683 330.367 376.283 327.333 376.283 324C376.283 320.667 375.683 317.633 374.483 314.9C373.283 312.167 371.449 310 368.983 308.4C366.583 306.8 363.483 306 359.683 306C354.349 306 350.249 307.667 347.383 311C344.583 314.333 343.183 318.667 343.183 324C343.183 327.267 343.783 330.267 344.983 333C346.249 335.667 348.083 337.8 350.483 339.4C352.883 340.933 355.949 341.7 359.683 341.7ZM422.685 353.4C414.485 353.4 408.252 351.2 403.985 346.8C399.785 342.333 397.685 336.067 397.685 328V295.7H410.585V327.9C410.585 330.833 410.952 333.233 411.685 335.1C412.485 336.9 413.485 338.3 414.685 339.3C415.885 340.3 417.185 341 418.585 341.4C419.985 341.733 421.352 341.9 422.685 341.9C424.685 341.9 426.618 341.567 428.485 340.9C430.352 340.233 431.885 338.9 433.085 336.9C434.285 334.833 434.885 331.833 434.885 327.9V295.7H447.785V328C447.785 336.2 445.685 342.5 441.485 346.9C437.352 351.233 431.085 353.4 422.685 353.4ZM458.132 352V295.7H479.932C484.865 295.7 489.065 296.267 492.532 297.4C495.999 298.467 498.665 300.233 500.532 302.7C502.465 305.1 503.432 308.367 503.432 312.5C503.432 315.7 502.932 318.467 501.932 320.8C500.932 323.133 499.465 324.933 497.532 326.2C495.665 327.467 493.432 328.1 490.832 328.1C492.632 328.1 494.032 328.467 495.032 329.2C496.032 329.867 496.799 330.8 497.332 332C497.865 333.133 498.232 334.333 498.432 335.6C498.699 336.867 498.932 338.1 499.132 339.3C499.399 340.5 499.732 341.533 500.132 342.4C500.599 343.2 501.299 343.733 502.232 344C503.165 344.2 504.465 343.967 506.132 343.3V350.1C504.599 351.433 502.832 352.3 500.832 352.7C498.832 353.1 496.899 352.967 495.032 352.3C493.165 351.633 491.599 350.333 490.332 348.4C489.132 346.4 488.532 343.667 488.532 340.2C488.532 338.4 488.432 336.833 488.232 335.5C488.099 334.1 487.699 332.967 487.032 332.1C486.432 331.167 485.465 330.467 484.132 330C482.865 329.467 481.099 329.167 478.832 329.1C476.632 328.967 473.765 329 470.232 329.2V352H458.132ZM470.232 320.6H478.732C481.932 320.6 484.532 320.5 486.532 320.3C488.599 320.1 490.132 319.5 491.132 318.5C492.132 317.5 492.632 315.833 492.632 313.5C492.632 310.767 492.032 308.867 490.832 307.8C489.632 306.667 487.865 306 485.532 305.8C483.199 305.6 480.299 305.5 476.832 305.5H470.232V320.6ZM564.471 295.7H577.271L570.871 311L563.771 352H544.371L532.071 295.7H544.871L553.971 347L564.471 295.7ZM596.671 295.7H609.471L597.571 352H578.171L570.871 311L564.271 295.7H577.271L587.871 347L596.671 295.7ZM641.426 353.4C632.226 353.4 625.192 350.767 620.326 345.5C615.459 340.167 613.026 333 613.026 324C613.026 318.067 614.059 312.933 616.126 308.6C618.259 304.2 621.426 300.8 625.626 298.4C629.826 295.933 635.092 294.7 641.426 294.7C650.692 294.7 657.726 297.367 662.526 302.7C667.326 307.967 669.726 315.067 669.726 324C669.726 329.8 668.659 334.933 666.526 339.4C664.392 343.8 661.226 347.233 657.026 349.7C652.826 352.167 647.626 353.4 641.426 353.4ZM641.226 341.7C644.959 341.7 648.059 340.933 650.526 339.4C652.992 337.867 654.826 335.767 656.026 333.1C657.226 330.367 657.826 327.333 657.826 324C657.826 320.667 657.226 317.633 656.026 314.9C654.826 312.167 652.992 310 650.526 308.4C648.126 306.8 645.026 306 641.226 306C635.892 306 631.792 307.667 628.926 311C626.126 314.333 624.726 318.667 624.726 324C624.726 327.267 625.326 330.267 626.526 333C627.792 335.667 629.626 337.8 632.026 339.4C634.426 340.933 637.492 341.7 641.226 341.7ZM678.249 352V295.7H700.049C704.983 295.7 709.183 296.267 712.649 297.4C716.116 298.467 718.783 300.233 720.649 302.7C722.583 305.1 723.549 308.367 723.549 312.5C723.549 315.7 723.049 318.467 722.049 320.8C721.049 323.133 719.583 324.933 717.649 326.2C715.783 327.467 713.549 328.1 710.949 328.1C712.749 328.1 714.149 328.467 715.149 329.2C716.149 329.867 716.916 330.8 717.449 332C717.983 333.133 718.349 334.333 718.549 335.6C718.816 336.867 719.049 338.1 719.249 339.3C719.516 340.5 719.849 341.533 720.249 342.4C720.716 343.2 721.416 343.733 722.349 344C723.283 344.2 724.583 343.967 726.249 343.3V350.1C724.716 351.433 722.949 352.3 720.949 352.7C718.949 353.1 717.016 352.967 715.149 352.3C713.283 351.633 711.716 350.333 710.449 348.4C709.249 346.4 708.649 343.667 708.649 340.2C708.649 338.4 708.549 336.833 708.349 335.5C708.216 334.1 707.816 332.967 707.149 332.1C706.549 331.167 705.583 330.467 704.249 330C702.983 329.467 701.216 329.167 698.949 329.1C696.749 328.967 693.883 329 690.349 329.2V352H678.249ZM690.349 320.6H698.849C702.049 320.6 704.649 320.5 706.649 320.3C708.716 320.1 710.249 319.5 711.249 318.5C712.249 317.5 712.749 315.833 712.749 313.5C712.749 310.767 712.149 308.867 710.949 307.8C709.749 306.667 707.983 306 705.649 305.8C703.316 305.6 700.416 305.5 696.949 305.5H690.349V320.6ZM758.59 297.5V352H746.49V297.5H758.59ZM730.59 306V295.7H774.59V306H730.59ZM794.258 352H782.158V295.7H794.258V352ZM818.458 295.7H830.458V352H818.458V295.7ZM825.958 328.1H787.558V318.9H825.958V328.1Z" fill="white" fill-opacity="0.7"/>
<path d="M18 457.6V444.2L40.9 418.7H56.6V419.9L18 457.6ZM6.3 475V418.7H18.3V475H6.3ZM44 475L24.1 446.1L32.8 437.6L57.8 473.8V475H44ZM102.682 418.7H115.282V475H92.182L77.282 424H77.082V475H64.582V418.7H85.982L102.482 469.7H102.682V418.7ZM150.898 476.4C141.698 476.4 134.665 473.767 129.798 468.5C124.932 463.167 122.498 456 122.498 447C122.498 441.067 123.532 435.933 125.598 431.6C127.732 427.2 130.898 423.8 135.098 421.4C139.298 418.933 144.565 417.7 150.898 417.7C160.165 417.7 167.198 420.367 171.998 425.7C176.798 430.967 179.198 438.067 179.198 447C179.198 452.8 178.132 457.933 175.998 462.4C173.865 466.8 170.698 470.233 166.498 472.7C162.298 475.167 157.098 476.4 150.898 476.4ZM150.698 464.7C154.432 464.7 157.532 463.933 159.998 462.4C162.465 460.867 164.298 458.767 165.498 456.1C166.698 453.367 167.298 450.333 167.298 447C167.298 443.667 166.698 440.633 165.498 437.9C164.298 435.167 162.465 433 159.998 431.4C157.598 429.8 154.498 429 150.698 429C145.365 429 141.265 430.667 138.398 434C135.598 437.333 134.198 441.667 134.198 447C134.198 450.267 134.798 453.267 135.998 456C137.265 458.667 139.098 460.8 141.498 462.4C143.898 463.933 146.965 464.7 150.698 464.7ZM216.522 418.7H229.322L222.922 434L215.822 475H196.422L184.122 418.7H196.922L206.022 470L216.522 418.7ZM248.722 418.7H261.522L249.622 475H230.222L222.922 434L216.322 418.7H229.322L239.922 470L248.722 418.7ZM301.075 455.4L281.875 418.7H295.475L307.275 445L319.175 418.7H332.675L313.075 455.4H301.075ZM301.075 475V454.1H313.075V475H301.075ZM359.883 476.4C350.683 476.4 343.649 473.767 338.783 468.5C333.916 463.167 331.483 456 331.483 447C331.483 441.067 332.516 435.933 334.583 431.6C336.716 427.2 339.883 423.8 344.083 421.4C348.283 418.933 353.549 417.7 359.883 417.7C369.149 417.7 376.183 420.367 380.983 425.7C385.783 430.967 388.183 438.067 388.183 447C388.183 452.8 387.116 457.933 384.983 462.4C382.849 466.8 379.683 470.233 375.483 472.7C371.283 475.167 366.083 476.4 359.883 476.4ZM359.683 464.7C363.416 464.7 366.516 463.933 368.983 462.4C371.449 460.867 373.283 458.767 374.483 456.1C375.683 453.367 376.283 450.333 376.283 447C376.283 443.667 375.683 440.633 374.483 437.9C373.283 435.167 371.449 433 368.983 431.4C366.583 429.8 363.483 429 359.683 429C354.349 429 350.249 430.667 347.383 434C344.583 437.333 343.183 441.667 343.183 447C343.183 450.267 343.783 453.267 344.983 456C346.249 458.667 348.083 460.8 350.483 462.4C352.883 463.933 355.949 464.7 359.683 464.7ZM422.685 476.4C414.485 476.4 408.252 474.2 403.985 469.8C399.785 465.333 397.685 459.067 397.685 451V418.7H410.585V450.9C410.585 453.833 410.952 456.233 411.685 458.1C412.485 459.9 413.485 461.3 414.685 462.3C415.885 463.3 417.185 464 418.585 464.4C419.985 464.733 421.352 464.9 422.685 464.9C424.685 464.9 426.618 464.567 428.485 463.9C430.352 463.233 431.885 461.9 433.085 459.9C434.285 457.833 434.885 454.833 434.885 450.9V418.7H447.785V451C447.785 459.2 445.685 465.5 441.485 469.9C437.352 474.233 431.085 476.4 422.685 476.4ZM458.132 475V418.7H479.932C484.865 418.7 489.065 419.267 492.532 420.4C495.999 421.467 498.665 423.233 500.532 425.7C502.465 428.1 503.432 431.367 503.432 435.5C503.432 438.7 502.932 441.467 501.932 443.8C500.932 446.133 499.465 447.933 497.532 449.2C495.665 450.467 493.432 451.1 490.832 451.1C492.632 451.1 494.032 451.467 495.032 452.2C496.032 452.867 496.799 453.8 497.332 455C497.865 456.133 498.232 457.333 498.432 458.6C498.699 459.867 498.932 461.1 499.132 462.3C499.399 463.5 499.732 464.533 500.132 465.4C500.599 466.2 501.299 466.733 502.232 467C503.165 467.2 504.465 466.967 506.132 466.3V473.1C504.599 474.433 502.832 475.3 500.832 475.7C498.832 476.1 496.899 475.967 495.032 475.3C493.165 474.633 491.599 473.333 490.332 471.4C489.132 469.4 488.532 466.667 488.532 463.2C488.532 461.4 488.432 459.833 488.232 458.5C488.099 457.1 487.699 455.967 487.032 455.1C486.432 454.167 485.465 453.467 484.132 453C482.865 452.467 481.099 452.167 478.832 452.1C476.632 451.967 473.765 452 470.232 452.2V475H458.132ZM470.232 443.6H478.732C481.932 443.6 484.532 443.5 486.532 443.3C488.599 443.1 490.132 442.5 491.132 441.5C492.132 440.5 492.632 438.833 492.632 436.5C492.632 433.767 492.032 431.867 490.832 430.8C489.632 429.667 487.865 429 485.532 428.8C483.199 428.6 480.299 428.5 476.832 428.5H470.232V443.6ZM564.471 418.7H577.271L570.871 434L563.771 475H544.371L532.071 418.7H544.871L553.971 470L564.471 418.7ZM596.671 418.7H609.471L597.571 475H578.171L570.871 434L564.271 418.7H577.271L587.871 470L596.671 418.7ZM641.426 476.4C632.226 476.4 625.192 473.767 620.326 468.5C615.459 463.167 613.026 456 613.026 447C613.026 441.067 614.059 435.933 616.126 431.6C618.259 427.2 621.426 423.8 625.626 421.4C629.826 418.933 635.092 417.7 641.426 417.7C650.692 417.7 657.726 420.367 662.526 425.7C667.326 430.967 669.726 438.067 669.726 447C669.726 452.8 668.659 457.933 666.526 462.4C664.392 466.8 661.226 470.233 657.026 472.7C652.826 475.167 647.626 476.4 641.426 476.4ZM641.226 464.7C644.959 464.7 648.059 463.933 650.526 462.4C652.992 460.867 654.826 458.767 656.026 456.1C657.226 453.367 657.826 450.333 657.826 447C657.826 443.667 657.226 440.633 656.026 437.9C654.826 435.167 652.992 433 650.526 431.4C648.126 429.8 645.026 429 641.226 429C635.892 429 631.792 430.667 628.926 434C626.126 437.333 624.726 441.667 624.726 447C624.726 450.267 625.326 453.267 626.526 456C627.792 458.667 629.626 460.8 632.026 462.4C634.426 463.933 637.492 464.7 641.226 464.7ZM678.249 475V418.7H700.049C704.983 418.7 709.183 419.267 712.649 420.4C716.116 421.467 718.783 423.233 720.649 425.7C722.583 428.1 723.549 431.367 723.549 435.5C723.549 438.7 723.049 441.467 722.049 443.8C721.049 446.133 719.583 447.933 717.649 449.2C715.783 450.467 713.549 451.1 710.949 451.1C712.749 451.1 714.149 451.467 715.149 452.2C716.149 452.867 716.916 453.8 717.449 455C717.983 456.133 718.349 457.333 718.549 458.6C718.816 459.867 719.049 461.1 719.249 462.3C719.516 463.5 719.849 464.533 720.249 465.4C720.716 466.2 721.416 466.733 722.349 467C723.283 467.2 724.583 466.967 726.249 466.3V473.1C724.716 474.433 722.949 475.3 720.949 475.7C718.949 476.1 717.016 475.967 715.149 475.3C713.283 474.633 711.716 473.333 710.449 471.4C709.249 469.4 708.649 466.667 708.649 463.2C708.649 461.4 708.549 459.833 708.349 458.5C708.216 457.1 707.816 455.967 707.149 455.1C706.549 454.167 705.583 453.467 704.249 453C702.983 452.467 701.216 452.167 698.949 452.1C696.749 451.967 693.883 452 690.349 452.2V475H678.249ZM690.349 443.6H698.849C702.049 443.6 704.649 443.5 706.649 443.3C708.716 443.1 710.249 442.5 711.249 441.5C712.249 440.5 712.749 438.833 712.749 436.5C712.749 433.767 712.149 431.867 710.949 430.8C709.749 429.667 707.983 429 705.649 428.8C703.316 428.6 700.416 428.5 696.949 428.5H690.349V443.6ZM758.59 420.5V475H746.49V420.5H758.59ZM730.59 429V418.7H774.59V429H730.59ZM794.258 475H782.158V418.7H794.258V475ZM818.458 418.7H830.458V475H818.458V418.7ZM825.958 451.1H787.558V441.9H825.958V451.1Z" fill="white" fill-opacity="0.4"/>
<path d="M18 580.6V567.2L40.9 541.7H56.6V542.9L18 580.6ZM6.3 598V541.7H18.3V598H6.3ZM44 598L24.1 569.1L32.8 560.6L57.8 596.8V598H44ZM102.682 541.7H115.282V598H92.182L77.282 547H77.082V598H64.582V541.7H85.982L102.482 592.7H102.682V541.7ZM150.898 599.4C141.698 599.4 134.665 596.767 129.798 591.5C124.932 586.167 122.498 579 122.498 570C122.498 564.067 123.532 558.933 125.598 554.6C127.732 550.2 130.898 546.8 135.098 544.4C139.298 541.933 144.565 540.7 150.898 540.7C160.165 540.7 167.198 543.367 171.998 548.7C176.798 553.967 179.198 561.067 179.198 570C179.198 575.8 178.132 580.933 175.998 585.4C173.865 589.8 170.698 593.233 166.498 595.7C162.298 598.167 157.098 599.4 150.898 599.4ZM150.698 587.7C154.432 587.7 157.532 586.933 159.998 585.4C162.465 583.867 164.298 581.767 165.498 579.1C166.698 576.367 167.298 573.333 167.298 570C167.298 566.667 166.698 563.633 165.498 560.9C164.298 558.167 162.465 556 159.998 554.4C157.598 552.8 154.498 552 150.698 552C145.365 552 141.265 553.667 138.398 557C135.598 560.333 134.198 564.667 134.198 570C134.198 573.267 134.798 576.267 135.998 579C137.265 581.667 139.098 583.8 141.498 585.4C143.898 586.933 146.965 587.7 150.698 587.7ZM216.522 541.7H229.322L222.922 557L215.822 598H196.422L184.122 541.7H196.922L206.022 593L216.522 541.7ZM248.722 541.7H261.522L249.622 598H230.222L222.922 557L216.322 541.7H229.322L239.922 593L248.722 541.7ZM301.075 578.4L281.875 541.7H295.475L307.275 568L319.175 541.7H332.675L313.075 578.4H301.075ZM301.075 598V577.1H313.075V598H301.075ZM359.883 599.4C350.683 599.4 343.649 596.767 338.783 591.5C333.916 586.167 331.483 579 331.483 570C331.483 564.067 332.516 558.933 334.583 554.6C336.716 550.2 339.883 546.8 344.083 544.4C348.283 541.933 353.549 540.7 359.883 540.7C369.149 540.7 376.183 543.367 380.983 548.7C385.783 553.967 388.183 561.067 388.183 570C388.183 575.8 387.116 580.933 384.983 585.4C382.849 589.8 379.683 593.233 375.483 595.7C371.283 598.167 366.083 599.4 359.883 599.4ZM359.683 587.7C363.416 587.7 366.516 586.933 368.983 585.4C371.449 583.867 373.283 581.767 374.483 579.1C375.683 576.367 376.283 573.333 376.283 570C376.283 566.667 375.683 563.633 374.483 560.9C373.283 558.167 371.449 556 368.983 554.4C366.583 552.8 363.483 552 359.683 552C354.349 552 350.249 553.667 347.383 557C344.583 560.333 343.183 564.667 343.183 570C343.183 573.267 343.783 576.267 344.983 579C346.249 581.667 348.083 583.8 350.483 585.4C352.883 586.933 355.949 587.7 359.683 587.7ZM422.685 599.4C414.485 599.4 408.252 597.2 403.985 592.8C399.785 588.333 397.685 582.067 397.685 574V541.7H410.585V573.9C410.585 576.833 410.952 579.233 411.685 581.1C412.485 582.9 413.485 584.3 414.685 585.3C415.885 586.3 417.185 587 418.585 587.4C419.985 587.733 421.352 587.9 422.685 587.9C424.685 587.9 426.618 587.567 428.485 586.9C430.352 586.233 431.885 584.9 433.085 582.9C434.285 580.833 434.885 577.833 434.885 573.9V541.7H447.785V574C447.785 582.2 445.685 588.5 441.485 592.9C437.352 597.233 431.085 599.4 422.685 599.4ZM458.132 598V541.7H479.932C484.865 541.7 489.065 542.267 492.532 543.4C495.999 544.467 498.665 546.233 500.532 548.7C502.465 551.1 503.432 554.367 503.432 558.5C503.432 561.7 502.932 564.467 501.932 566.8C500.932 569.133 499.465 570.933 497.532 572.2C495.665 573.467 493.432 574.1 490.832 574.1C492.632 574.1 494.032 574.467 495.032 575.2C496.032 575.867 496.799 576.8 497.332 578C497.865 579.133 498.232 580.333 498.432 581.6C498.699 582.867 498.932 584.1 499.132 585.3C499.399 586.5 499.732 587.533 500.132 588.4C500.599 589.2 501.299 589.733 502.232 590C503.165 590.2 504.465 589.967 506.132 589.3V596.1C504.599 597.433 502.832 598.3 500.832 598.7C498.832 599.1 496.899 598.967 495.032 598.3C493.165 597.633 491.599 596.333 490.332 594.4C489.132 592.4 488.532 589.667 488.532 586.2C488.532 584.4 488.432 582.833 488.232 581.5C488.099 580.1 487.699 578.967 487.032 578.1C486.432 577.167 485.465 576.467 484.132 576C482.865 575.467 481.099 575.167 478.832 575.1C476.632 574.967 473.765 575 470.232 575.2V598H458.132ZM470.232 566.6H478.732C481.932 566.6 484.532 566.5 486.532 566.3C488.599 566.1 490.132 565.5 491.132 564.5C492.132 563.5 492.632 561.833 492.632 559.5C492.632 556.767 492.032 554.867 490.832 553.8C489.632 552.667 487.865 552 485.532 551.8C483.199 551.6 480.299 551.5 476.832 551.5H470.232V566.6ZM564.471 541.7H577.271L570.871 557L563.771 598H544.371L532.071 541.7H544.871L553.971 593L564.471 541.7ZM596.671 541.7H609.471L597.571 598H578.171L570.871 557L564.271 541.7H577.271L587.871 593L596.671 541.7ZM641.426 599.4C632.226 599.4 625.192 596.767 620.326 591.5C615.459 586.167 613.026 579 613.026 570C613.026 564.067 614.059 558.933 616.126 554.6C618.259 550.2 621.426 546.8 625.626 544.4C629.826 541.933 635.092 540.7 641.426 540.7C650.692 540.7 657.726 543.367 662.526 548.7C667.326 553.967 669.726 561.067 669.726 570C669.726 575.8 668.659 580.933 666.526 585.4C664.392 589.8 661.226 593.233 657.026 595.7C652.826 598.167 647.626 599.4 641.426 599.4ZM641.226 587.7C644.959 587.7 648.059 586.933 650.526 585.4C652.992 583.867 654.826 581.767 656.026 579.1C657.226 576.367 657.826 573.333 657.826 570C657.826 566.667 657.226 563.633 656.026 560.9C654.826 558.167 652.992 556 650.526 554.4C648.126 552.8 645.026 552 641.226 552C635.892 552 631.792 553.667 628.926 557C626.126 560.333 624.726 564.667 624.726 570C624.726 573.267 625.326 576.267 626.526 579C627.792 581.667 629.626 583.8 632.026 585.4C634.426 586.933 637.492 587.7 641.226 587.7ZM678.249 598V541.7H700.049C704.983 541.7 709.183 542.267 712.649 543.4C716.116 544.467 718.783 546.233 720.649 548.7C722.583 551.1 723.549 554.367 723.549 558.5C723.549 561.7 723.049 564.467 722.049 566.8C721.049 569.133 719.583 570.933 717.649 572.2C715.783 573.467 713.549 574.1 710.949 574.1C712.749 574.1 714.149 574.467 715.149 575.2C716.149 575.867 716.916 576.8 717.449 578C717.983 579.133 718.349 580.333 718.549 581.6C718.816 582.867 719.049 584.1 719.249 585.3C719.516 586.5 719.849 587.533 720.249 588.4C720.716 589.2 721.416 589.733 722.349 590C723.283 590.2 724.583 589.967 726.249 589.3V596.1C724.716 597.433 722.949 598.3 720.949 598.7C718.949 599.1 717.016 598.967 715.149 598.3C713.283 597.633 711.716 596.333 710.449 594.4C709.249 592.4 708.649 589.667 708.649 586.2C708.649 584.4 708.549 582.833 708.349 581.5C708.216 580.1 707.816 578.967 707.149 578.1C706.549 577.167 705.583 576.467 704.249 576C702.983 575.467 701.216 575.167 698.949 575.1C696.749 574.967 693.883 575 690.349 575.2V598H678.249ZM690.349 566.6H698.849C702.049 566.6 704.649 566.5 706.649 566.3C708.716 566.1 710.249 565.5 711.249 564.5C712.249 563.5 712.749 561.833 712.749 559.5C712.749 556.767 712.149 554.867 710.949 553.8C709.749 552.667 707.983 552 705.649 551.8C703.316 551.6 700.416 551.5 696.949 551.5H690.349V566.6ZM758.59 543.5V598H746.49V543.5H758.59ZM730.59 552V541.7H774.59V552H730.59ZM794.258 598H782.158V541.7H794.258V598ZM818.458 541.7H830.458V598H818.458V541.7ZM825.958 574.1H787.558V564.9H825.958V574.1Z" fill="white" fill-opacity="0.1"/>
</g>
</svg>
