<svg width="61" height="56" viewBox="0 0 61 56" fill="none" xmlns="http://www.w3.org/2000/svg">
<rect width="60.8415" height="56" rx="7" fill="white" fill-opacity="0.3"/>
<path d="M40.5 16H37.5V15C37.5 14.7348 37.3946 14.4804 37.2071 14.2929C37.0196 14.1054 36.7652 14 36.5 14C36.2348 14 35.9804 14.1054 35.7929 14.2929C35.6054 14.4804 35.5 14.7348 35.5 15V16H25.5V15C25.5 14.7348 25.3946 14.4804 25.2071 14.2929C25.0196 14.1054 24.7652 14 24.5 14C24.2348 14 23.9804 14.1054 23.7929 14.2929C23.6054 14.4804 23.5 14.7348 23.5 15V16H20.5C19.9696 16 19.4609 16.2107 19.0858 16.5858C18.7107 16.9609 18.5 17.4696 18.5 18V38C18.5 38.5304 18.7107 39.0391 19.0858 39.4142C19.4609 39.7893 19.9696 40 20.5 40H40.5C41.0304 40 41.5391 39.7893 41.9142 39.4142C42.2893 39.0391 42.5 38.5304 42.5 38V18C42.5 17.4696 42.2893 16.9609 41.9142 16.5858C41.5391 16.2107 41.0304 16 40.5 16ZM20.5 22V18H23.5V19C23.5 19.2652 23.6054 19.5196 23.7929 19.7071C23.9804 19.8946 24.2348 20 24.5 20C24.7652 20 25.0196 19.8946 25.2071 19.7071C25.3946 19.5196 25.5 19.2652 25.5 19V18H35.5V19C35.5 19.2652 35.6054 19.5196 35.7929 19.7071C35.9804 19.8946 36.2348 20 36.5 20C36.7652 20 37.0196 19.8946 37.2071 19.7071C37.3946 19.5196 37.5 19.2652 37.5 19V18H40.5V22H20.5Z" fill="white"/>
<path d="M27.9792 28.712C28.0112 27.856 28.2912 27.196 28.8192 26.732C29.3472 26.268 30.0632 26.036 30.9672 26.036C31.5672 26.036 32.0792 26.14 32.5032 26.348C32.9352 26.556 33.2592 26.84 33.4752 27.2C33.6992 27.56 33.8112 27.964 33.8112 28.412C33.8112 28.94 33.6792 29.372 33.4152 29.708C33.1512 30.036 32.8432 30.26 32.4912 30.38V30.428C32.9472 30.58 33.3072 30.832 33.5712 31.184C33.8352 31.536 33.9672 31.988 33.9672 32.54C33.9672 33.036 33.8512 33.476 33.6192 33.86C33.3952 34.236 33.0632 34.532 32.6232 34.748C32.1912 34.964 31.6752 35.072 31.0752 35.072C30.1152 35.072 29.3472 34.836 28.7712 34.364C28.2032 33.892 27.9032 33.18 27.8712 32.228H29.8632C29.8712 32.58 29.9712 32.86 30.1632 33.068C30.3552 33.268 30.6352 33.368 31.0032 33.368C31.3152 33.368 31.5552 33.28 31.7232 33.104C31.8992 32.92 31.9872 32.68 31.9872 32.384C31.9872 32 31.8632 31.724 31.6152 31.556C31.3752 31.38 30.9872 31.292 30.4512 31.292H30.0672V29.624H30.4512C30.8592 29.624 31.1872 29.556 31.4352 29.42C31.6912 29.276 31.8192 29.024 31.8192 28.664C31.8192 28.376 31.7392 28.152 31.5792 27.992C31.4192 27.832 31.1992 27.752 30.9192 27.752C30.6152 27.752 30.3872 27.844 30.2352 28.028C30.0912 28.212 30.0072 28.44 29.9832 28.712H27.9792Z" fill="#5095EB"/>
</svg>
