<svg width="61" height="56" viewBox="0 0 61 56" fill="none" xmlns="http://www.w3.org/2000/svg">
<rect width="60.8415" height="56" rx="7" fill="white" fill-opacity="0.3"/>
<path d="M40.5 16H37.5V15C37.5 14.7348 37.3946 14.4804 37.2071 14.2929C37.0196 14.1054 36.7652 14 36.5 14C36.2348 14 35.9804 14.1054 35.7929 14.2929C35.6054 14.4804 35.5 14.7348 35.5 15V16H25.5V15C25.5 14.7348 25.3946 14.4804 25.2071 14.2929C25.0196 14.1054 24.7652 14 24.5 14C24.2348 14 23.9804 14.1054 23.7929 14.2929C23.6054 14.4804 23.5 14.7348 23.5 15V16H20.5C19.9696 16 19.4609 16.2107 19.0858 16.5858C18.7107 16.9609 18.5 17.4696 18.5 18V38C18.5 38.5304 18.7107 39.0391 19.0858 39.4142C19.4609 39.7893 19.9696 40 20.5 40H40.5C41.0304 40 41.5391 39.7893 41.9142 39.4142C42.2893 39.0391 42.5 38.5304 42.5 38V18C42.5 17.4696 42.2893 16.9609 41.9142 16.5858C41.5391 16.2107 41.0304 16 40.5 16ZM31.8333 35C31.8333 35.2652 31.728 35.5196 31.5404 35.7071C31.3529 35.8946 31.0985 36 30.8333 36C30.5681 36 30.3138 35.8946 30.1262 35.7071C29.9387 35.5196 29.8333 35.2652 29.8333 35V28.6175L29.2808 28.895C29.0435 29.0137 28.7687 29.0332 28.5169 28.9493C28.2651 28.8654 28.057 28.6849 27.9383 28.4475C27.8196 28.2101 27.8001 27.9353 27.884 27.6836C27.968 27.4318 28.1485 27.2237 28.3858 27.105L30.3858 26.105C30.5383 26.0287 30.7078 25.9926 30.8782 26.0003C31.0486 26.0079 31.2142 26.059 31.3592 26.1487C31.5043 26.2384 31.624 26.3637 31.707 26.5127C31.79 26.6617 31.8335 26.8295 31.8333 27V35ZM20.5 22V18H23.5V19C23.5 19.2652 23.6054 19.5196 23.7929 19.7071C23.9804 19.8946 24.2348 20 24.5 20C24.7652 20 25.0196 19.8946 25.2071 19.7071C25.3946 19.5196 25.5 19.2652 25.5 19V18H35.5V19C35.5 19.2652 35.6054 19.5196 35.7929 19.7071C35.9804 19.8946 36.2348 20 36.5 20C36.7652 20 37.0196 19.8946 37.2071 19.7071C37.3946 19.5196 37.5 19.2652 37.5 19V18H40.5V22H20.5Z" fill="white"/>
</svg>
