<svg width="61" height="56" viewBox="0 0 61 56" fill="none" xmlns="http://www.w3.org/2000/svg">
<rect width="60.8415" height="56" rx="7" fill="white" fill-opacity="0.3"/>
<path d="M30.3066 14.0005C30.8833 13.9904 31.4398 14.122 31.9862 14.3547C37.3185 16.611 42.6406 18.8674 47.9729 21.1237C48.9948 21.5588 49.5716 22.3177 49.5716 23.4206C49.5716 24.5032 48.9948 25.2722 47.9931 25.6972C42.6507 27.9535 37.3083 30.22 31.9659 32.4865C30.8428 32.962 29.7197 32.9519 28.5865 32.4763C23.2542 30.22 17.9219 27.9636 12.5896 25.7073C11.5778 25.2823 11.0314 24.5234 11.0011 23.4408C10.9707 22.429 11.5879 21.5791 12.6099 21.144C17.932 18.8876 23.2542 16.6414 28.5763 14.385C29.1227 14.1321 29.6893 13.9904 30.3066 14.0005Z" fill="white"/>
<path d="M18.1738 29.8047C18.9934 30.1487 19.7624 30.4725 20.5415 30.7963C23.0306 31.8486 25.5196 32.911 28.0188 33.9633C29.5163 34.6007 31.034 34.6108 32.5416 33.9734C35.6985 32.6479 38.8554 31.3123 42.0021 29.9767C42.1236 29.9261 42.2551 29.8755 42.417 29.8148C42.417 29.9767 42.417 30.088 42.417 30.1993C42.417 32.0712 42.4271 33.9329 42.417 35.8048C42.4069 37.3427 41.7188 38.5367 40.4035 39.2955C37.0746 41.218 33.4725 42.1185 29.6276 41.987C26.2886 41.8757 23.1722 40.9853 20.2784 39.3259C18.9125 38.5367 18.2042 37.3427 18.1941 35.7542C18.1839 33.9127 18.1941 32.0712 18.1941 30.2297C18.1738 30.1082 18.1738 29.9767 18.1738 29.8047Z" fill="white"/>
<path d="M45.6255 38.7796C45.2511 38.7796 44.8666 38.7897 44.4923 38.7796C43.9459 38.7593 43.6221 38.4356 43.6221 37.8993C43.6221 37.272 43.6322 36.6345 43.6221 36.0072C43.612 35.4203 43.8042 34.9144 44.2292 34.5097C44.3911 34.3579 44.381 34.2871 44.2292 34.1353C43.268 33.1438 43.4501 31.707 44.6238 30.9684C44.7857 30.8672 44.8464 30.7559 44.8363 30.5737C44.8262 30.0779 44.8464 29.5923 44.8262 29.0965C44.816 28.8334 44.9071 28.712 45.1499 28.6311C45.4434 28.5299 45.7267 28.3882 46.0201 28.2668C46.4552 28.0847 46.4552 28.0847 46.4552 28.5805C46.4552 29.228 46.4653 29.8655 46.4552 30.513C46.4552 30.7356 46.4957 30.8672 46.7081 30.9987C47.811 31.6867 47.9932 33.1539 47.0926 34.0949C46.9105 34.2871 46.9206 34.3782 47.1027 34.5502C47.5075 34.9347 47.6694 35.4305 47.6694 35.987C47.6694 36.6042 47.6795 37.2214 47.6694 37.8386C47.6592 38.476 47.3456 38.7695 46.698 38.7796C46.3338 38.7796 45.9796 38.7796 45.6255 38.7796Z" fill="white"/>
</svg>
