<svg width="62" height="56" viewBox="0 0 62 56" fill="none" xmlns="http://www.w3.org/2000/svg">
<rect x="0.841797" width="60.8415" height="56" rx="7" fill="white" fill-opacity="0.3"/>
<g clip-path="url(#clip0_270_1133)">
<path d="M25.1125 22.0796C24.9238 22.2835 24.8331 22.4949 24.7123 22.6913C24.4178 23.1821 24.1233 23.6729 23.8364 24.1713C23.7156 24.3752 23.5796 24.4205 23.3682 24.3072C23.0133 24.1109 22.6508 23.9221 22.2959 23.7333C22.0996 23.6276 22.0543 23.4766 22.1525 23.2878C22.749 22.1853 23.2927 21.0602 23.9421 19.9879C24.1762 19.6028 24.5386 19.3385 24.9464 19.1497C25.0597 19.0969 25.1654 19.0516 25.2787 18.9836C24.8482 18.9836 24.4556 18.9156 24.1007 18.6589C23.7458 18.4022 23.5494 18.0473 23.4664 17.6244C23.3455 16.9523 23.7156 16.2425 24.3423 15.9405C25.0144 15.6158 25.7468 15.7668 26.2679 16.3331C26.804 16.9221 26.7814 17.5942 26.1773 18.5607C26.7285 18.4097 27.2344 18.4248 27.7026 18.7495C27.9216 18.9005 28.133 19.0516 28.352 19.2026C28.858 19.5575 28.7447 19.4971 29.0618 19.0969C29.4394 18.6136 29.8019 18.1228 30.1719 17.6319C30.406 17.3299 30.489 17.3223 30.7458 17.5866C30.995 17.8358 31.229 18.085 31.4782 18.3342C31.6368 18.4852 31.6595 18.6438 31.5537 18.8401C31.1913 19.4895 30.8515 20.154 30.4815 20.7959C30.2927 21.1206 30.0208 21.3698 29.6508 21.4831C29.3035 21.5963 28.9561 21.7096 28.6012 21.8078C28.3898 21.8682 28.3143 21.9814 28.3218 22.1929C28.3294 22.4647 28.3294 22.7366 28.3143 23.0084C28.2992 23.2501 28.3671 23.3331 28.6239 23.2652C28.9939 23.167 29.379 23.0915 29.7566 23.0084C30.4588 22.8498 31.0176 23.0764 31.5009 23.605C32.3013 24.4809 33.132 25.3266 33.9324 26.2026C34.1212 26.4065 34.2118 26.2706 34.3326 26.1422C36.16 24.1638 37.8741 22.0872 39.4297 19.8822C40.0262 19.0365 40.5926 18.1681 41.1589 17.2997C41.3175 17.058 41.2722 16.9523 41.0381 16.824C40.6907 16.6352 40.3509 16.4237 40.0111 16.2274C39.9507 16.1896 39.8601 16.167 39.8526 16.0839C39.845 15.9858 39.9432 15.9782 40.0111 15.948C41.3477 15.3062 42.6767 14.6718 44.0133 14.03C44.2021 13.9394 44.2625 13.9922 44.27 14.1961C44.3229 15.3817 44.3833 16.5672 44.4437 17.7452C44.4588 18.017 44.489 18.2889 44.4966 18.5607C44.5041 18.8552 44.4739 18.8703 44.2247 18.7269C43.8623 18.5154 43.4923 18.2964 43.1374 18.0699C42.9637 17.9566 42.8655 17.9868 42.7522 18.1681C41.3477 20.4485 39.7922 22.6233 38.0856 24.6923C36.4092 26.7312 34.5969 28.6416 32.6713 30.4464C30.0511 32.893 27.2193 35.0753 24.2064 37.0235C22.3639 38.2242 20.4383 39.2587 18.543 40.3536C18.2183 40.5424 17.886 40.7236 17.5613 40.9124C17.4103 41.003 17.3348 40.9879 17.3423 40.7916C17.3423 40.2328 17.3499 39.6816 17.3423 39.1228C17.3423 38.9491 17.4556 38.8811 17.584 38.8132C19.0489 37.9599 20.5365 37.1443 21.9788 36.2533C24.229 34.8714 26.3736 33.3461 28.42 31.6697C28.4804 31.6244 28.5937 31.5866 28.5635 31.4885C28.5408 31.413 28.4351 31.4281 28.3596 31.413C28.133 31.3601 27.8989 31.2997 27.6724 31.2544C27.4081 31.2091 27.2873 31.0656 27.2948 30.7862C27.3251 30.1217 27.3326 29.4496 27.3553 28.7851C27.3628 28.5435 27.3251 28.3245 27.242 28.098C27.0155 27.5165 26.8116 26.9351 26.6001 26.3461C26.5548 26.2177 26.4869 26.1195 26.3509 26.0591C25.8903 25.8854 25.6713 25.5305 25.5958 25.0548C25.4523 24.126 25.3013 23.1972 25.1578 22.2684C25.1503 22.2155 25.1352 22.1702 25.1125 22.0796ZM29.4545 30.756C29.6508 30.6654 29.7566 30.5597 29.8698 30.4615C30.7609 29.6913 31.6066 28.8757 32.4674 28.0753C32.6411 27.9167 32.626 27.8261 32.4674 27.6751C31.7576 27.0181 31.0327 26.3687 30.3607 25.6665C30.0133 25.2964 29.6961 25.2285 29.2506 25.4173C29.0392 25.5079 28.9712 25.5909 29.0543 25.8099C29.2808 26.3989 29.4923 26.9955 29.7112 27.5845C29.7641 27.7204 29.7943 27.8563 29.7792 27.9998C29.7339 28.3547 29.6886 28.7096 29.6433 29.0645C29.5829 29.6158 29.5225 30.1594 29.4545 30.756Z" fill="white"/>
<path d="M36.3414 41.9995C33.4568 41.9995 30.5798 41.9995 27.6952 41.9995C27.2875 41.9995 27.2875 41.9995 27.2875 41.5917C27.2875 41.5388 27.295 41.4784 27.2875 41.4256C27.2573 41.1613 27.3554 41.0631 27.6348 41.0631C28.2465 41.0707 28.1936 41.1462 28.1936 40.5119C28.1936 39.7568 28.2012 39.0016 28.1936 38.2541C28.1936 38.0049 28.254 37.8991 28.5259 37.9067C29.5226 37.9218 30.5194 37.9218 31.5237 37.9067C31.7729 37.9067 31.8484 37.9973 31.8484 38.239C31.8409 39.0771 31.8484 39.9153 31.8409 40.7535C31.8409 40.9952 31.9088 41.0858 32.158 41.0782C32.8376 41.0631 33.5172 41.0631 34.1893 41.0782C34.4687 41.0858 34.5367 40.9876 34.5367 40.7233C34.5291 38.2767 34.5291 35.8226 34.5291 33.376C34.5291 32.938 34.5291 32.938 34.9595 32.938C35.911 32.938 36.8624 32.9455 37.8139 32.9304C38.0857 32.9229 38.1688 33.021 38.1688 33.2853C38.1613 35.747 38.1613 38.2012 38.1613 40.6629C38.1613 41.0707 38.1613 41.0707 38.5615 41.0707C39.2033 41.0707 39.8452 41.0707 40.4795 41.0707C40.8571 41.0707 40.8571 41.0707 40.8571 40.6931C40.8571 37.0459 40.8571 33.4062 40.8571 29.7589C40.8571 28.6866 40.8571 27.6144 40.8571 26.5345C40.8571 26.157 40.8646 26.1494 41.2271 26.1494C42.1861 26.1494 43.1451 26.1494 44.1116 26.1494C44.4816 26.1494 44.4892 26.157 44.4892 26.5345C44.4892 31.2163 44.4892 35.8981 44.4892 40.5798C44.4892 40.6705 44.4892 40.7686 44.4892 40.8592C44.4892 40.9952 44.5496 41.0707 44.6931 41.0707C44.7459 41.0707 44.8064 41.0631 44.8592 41.0707C45.0329 41.0933 45.267 40.9801 45.3576 41.1537C45.4633 41.3727 45.4029 41.637 45.3802 41.8787C45.3727 41.9693 45.2896 41.9919 45.2066 41.9919C45.116 41.9995 45.0178 41.9995 44.9272 41.9995C42.0653 41.9995 39.2033 41.9995 36.3414 41.9995Z" fill="white"/>
<path d="M19.2984 28.7628C19.155 28.71 19.0719 28.5816 18.9662 28.4759C18.6792 28.1965 18.6792 28.189 18.9662 27.9096C19.676 27.2299 20.4009 26.5579 21.1107 25.8707C21.2467 25.7348 21.3297 25.765 21.4581 25.8858C21.9263 26.3389 21.9263 26.3313 21.4883 26.7316C20.8238 27.3508 20.1668 27.9851 19.5023 28.6043C19.4419 28.6722 19.3966 28.7402 19.2984 28.7628Z" fill="white"/>
<path d="M24.7049 27.3663C24.6822 27.472 24.6067 27.5249 24.5463 27.5777C23.9196 28.1743 23.2852 28.7557 22.666 29.3598C22.4924 29.526 22.3866 29.5033 22.2658 29.3372C21.843 28.7859 21.7825 28.9974 22.2885 28.499C22.8397 27.9629 23.4136 27.4494 23.9724 26.9208C24.0932 26.8075 24.1914 26.7924 24.3047 26.9208C24.4028 27.034 24.5161 27.1322 24.6218 27.2455C24.652 27.2832 24.6822 27.3361 24.7049 27.3663Z" fill="white"/>
</g>
<defs>
<clipPath id="clip0_270_1133">
<rect width="28.0755" height="28" fill="white" transform="translate(17.3418 14)"/>
</clipPath>
</defs>
</svg>
