<svg width="61" height="56" viewBox="0 0 61 56" fill="none" xmlns="http://www.w3.org/2000/svg">
<rect width="60.8415" height="56" rx="7" fill="white" fill-opacity="0.3"/>
<path fill-rule="evenodd" clip-rule="evenodd" d="M29.5157 41.5118C29.5157 41.5118 19.833 33.3572 19.833 25.3332C19.833 22.5042 20.9568 19.7911 22.9572 17.7907C24.9576 15.7903 27.6707 14.6665 30.4997 14.6665C33.3287 14.6665 36.0418 15.7903 38.0421 17.7907C40.0425 19.7911 41.1663 22.5042 41.1663 25.3332C41.1663 33.3572 31.4837 41.5118 31.4837 41.5118C30.945 42.0078 30.0583 42.0025 29.5157 41.5118ZM30.4997 29.9998C31.1125 29.9998 31.7193 29.8791 32.2855 29.6446C32.8517 29.4101 33.3662 29.0663 33.7995 28.633C34.2328 28.1997 34.5766 27.6852 34.8111 27.119C35.0456 26.5528 35.1663 25.946 35.1663 25.3332C35.1663 24.7203 35.0456 24.1135 34.8111 23.5473C34.5766 22.9811 34.2328 22.4667 33.7995 22.0333C33.3662 21.6 32.8517 21.2563 32.2855 21.0217C31.7193 20.7872 31.1125 20.6665 30.4997 20.6665C29.262 20.6665 28.075 21.1582 27.1998 22.0333C26.3247 22.9085 25.833 24.0955 25.833 25.3332C25.833 26.5708 26.3247 27.7578 27.1998 28.633C28.075 29.5082 29.262 29.9998 30.4997 29.9998Z" fill="white"/>
</svg>
