<svg width="62" height="56" viewBox="0 0 62 56" fill="none" xmlns="http://www.w3.org/2000/svg">
<rect x="0.841797" width="60.8415" height="56" rx="7" fill="white" fill-opacity="0.3"/>
<path d="M39.6852 44.9895C37.1809 44.9895 34.6765 44.9895 32.1623 44.9895C30.7171 44.9895 29.6876 43.9699 29.6777 42.5247C29.6777 39.6344 29.6777 36.744 29.6777 33.8536C29.6777 32.4084 30.7072 31.3789 32.1524 31.3789C33.1818 31.3789 34.2014 31.369 35.2308 31.3789C35.5278 31.3789 35.6169 31.2899 35.6169 30.9929C35.607 30.5475 35.5773 30.102 35.6763 29.6665C35.9138 28.7063 36.775 27.9837 37.7649 27.9738C39.0517 27.954 40.3286 27.954 41.6154 27.9738C42.823 27.9936 43.7436 28.9637 43.7832 30.2505C43.7931 30.4881 43.803 30.7256 43.7832 30.9533C43.7535 31.2701 43.8723 31.3888 44.1989 31.3789C45.1789 31.3591 46.149 31.369 47.1289 31.369C48.6632 31.369 49.6926 32.3391 49.7124 33.8635C49.7421 36.744 49.7322 39.6146 49.7124 42.495C49.7025 44.2075 48.3068 45.0291 47.1289 44.9994C44.6543 44.9499 42.1697 44.9895 39.6852 44.9895ZM39.6753 43.7522C42.1796 43.7522 44.684 43.7522 47.1982 43.7522C47.9802 43.7522 48.4355 43.2968 48.4454 42.5148C48.4553 42.0991 48.4454 41.6735 48.4454 41.2577C48.4454 39.8422 48.4355 38.4168 48.4553 37.0013C48.4553 36.6945 48.3662 36.6054 48.0693 36.6945C47.7525 36.7836 47.4259 36.843 47.0992 36.9221C45.3967 37.2884 43.6743 37.5062 41.9421 37.6348C41.6451 37.6546 41.5659 37.7833 41.5758 38.0506C41.5857 38.5653 41.5956 39.0899 41.5659 39.6047C41.5461 40.1491 41.3185 40.3668 40.7839 40.3767C40.0712 40.3866 39.3486 40.3965 38.6359 40.3767C38.0816 40.3668 37.854 40.1194 37.854 39.5651C37.8441 39.0602 37.8441 38.5554 37.854 38.0506C37.8639 37.7833 37.7946 37.6546 37.4877 37.6348C35.409 37.4864 33.3501 37.1894 31.3209 36.6846C30.9843 36.6054 30.925 36.6945 30.925 37.0112C30.9349 38.8128 30.925 40.6143 30.9349 42.4159C30.9349 43.2968 31.4001 43.7621 32.2811 43.7621C34.7359 43.7621 37.2105 43.7522 39.6753 43.7522ZM39.6555 31.3789C40.4969 31.3789 41.3383 31.369 42.1697 31.3789C42.4271 31.3789 42.5261 31.2899 42.5162 31.0325C42.5063 30.7652 42.5162 30.4881 42.5162 30.2208C42.5063 29.617 42.1301 29.2211 41.5263 29.2112C40.3088 29.1914 39.0814 29.2013 37.8639 29.2112C37.359 29.2211 37.0126 29.5279 36.8938 30.0228C36.8146 30.3495 36.874 30.686 36.8542 31.0226C36.8344 31.2998 36.9433 31.3888 37.2204 31.3888C38.0222 31.369 38.8339 31.3789 39.6555 31.3789Z" fill="white"/>
<path d="M22.7786 28.0132C20.304 28.0132 17.8392 28.0132 15.3646 28.0132C13.8699 28.0132 12.8206 27.0233 12.8107 25.5286C12.781 22.6481 12.7909 19.7776 12.8107 16.8971C12.8206 15.1846 14.1965 14.3234 15.3844 14.3927C16.3643 14.4521 17.3641 14.3927 18.344 14.4125C18.6311 14.4125 18.74 14.3234 18.74 14.0265C18.7301 13.68 18.7598 13.3336 18.7895 12.9871C18.8786 11.8884 19.7991 11.0173 20.9078 11.0074C22.2045 10.9975 23.5012 10.9975 24.7979 11.0074C25.9065 11.0173 26.8766 11.9775 26.9162 13.0861C26.9261 13.4029 26.936 13.7295 26.9162 14.0463C26.9063 14.3234 27.0053 14.4125 27.2824 14.4125C28.3317 14.4026 29.3809 14.4026 30.4302 14.4125C31.8061 14.4125 32.8454 15.442 32.8454 16.8179C32.8553 19.7479 32.8553 22.6679 32.8454 25.5979C32.8454 26.9639 31.7863 28.0132 30.4203 28.0132C27.8665 28.0231 25.3225 28.0132 22.7786 28.0132ZM22.8182 26.7858C25.3225 26.7858 27.8269 26.7858 30.3312 26.7858C31.1132 26.7858 31.6081 26.2908 31.6081 25.5187C31.618 23.6875 31.5982 21.8662 31.618 20.0349C31.618 19.6687 31.4992 19.6291 31.1825 19.7083C29.9452 20.0151 28.6979 20.2329 27.4408 20.4012C26.639 20.5101 25.8274 20.5793 25.0157 20.6486C24.7682 20.6684 24.6791 20.7872 24.689 21.0347C24.6989 21.5791 24.6989 22.1235 24.689 22.6679C24.6791 23.1134 24.491 23.341 24.0555 23.3806C23.2438 23.44 22.4321 23.4301 21.6106 23.3806C21.2344 23.3608 21.0167 23.1431 20.9969 22.7669C20.9771 22.2522 20.9672 21.7276 20.9672 21.2129C20.9573 20.6981 20.9375 20.6585 20.4425 20.6288C18.443 20.52 16.4732 20.1834 14.5331 19.738C14.0876 19.639 14.0876 19.639 14.0876 20.1141C14.0876 21.8761 14.0876 23.6479 14.0876 25.4098C14.0876 26.3898 14.5034 26.8055 15.4833 26.8055C17.9283 26.7857 20.3732 26.7858 22.8182 26.7858ZM22.8281 14.4125C23.6695 14.4125 24.5009 14.4026 25.3423 14.4125C25.5997 14.4125 25.6987 14.3333 25.6888 14.076C25.669 13.7889 25.6987 13.5118 25.6789 13.2247C25.6492 12.6605 25.2532 12.2447 24.6791 12.2447C23.4418 12.2348 22.2144 12.2348 20.9771 12.2447C20.4128 12.2546 20.0367 12.6407 20.0169 13.2148C20.007 13.5019 20.0268 13.779 20.007 14.0661C19.9872 14.3432 20.1159 14.4323 20.3732 14.4224C21.1948 14.4026 22.0164 14.4125 22.8281 14.4125Z" fill="white"/>
<path d="M38.4876 13.5219C41.6848 13.5219 44.4861 15.5016 45.5849 18.5602C45.6937 18.8671 45.8125 18.9859 46.1392 18.877C46.4559 18.778 46.7826 18.7285 47.1092 18.6592C47.3864 18.6097 47.6636 18.6097 47.8417 18.8671C48.0298 19.1343 47.9902 19.4016 47.8318 19.659C47.0003 21.0151 46.1788 22.3811 45.3374 23.7372C45.08 24.1529 44.7336 24.2321 44.3376 23.9648C42.9914 23.0641 41.6551 22.1633 40.3188 21.2625C40.0713 21.0943 39.9328 20.8765 39.9922 20.5696C40.0516 20.2628 40.2891 20.1242 40.5663 20.0648C40.9127 19.9856 41.2592 19.8965 41.6155 19.847C41.9521 19.8074 41.9521 19.659 41.8432 19.4016C40.9622 17.2338 39.3982 15.8975 37.1018 15.4224C36.7256 15.3432 36.3396 15.3531 35.9634 15.3333C35.518 15.3135 35.2507 15.1254 35.1913 14.7889C35.1419 14.482 35.3299 14.2247 35.7358 14.0564C36.6266 13.7 37.5373 13.512 38.4876 13.5219Z" fill="white"/>
<path d="M23.6898 43.138C20.4727 43.138 17.6417 41.1385 16.5826 38.1095C16.4737 37.7928 16.345 37.7037 16.0283 37.8027C15.7016 37.9017 15.3552 37.9611 15.0186 38.0303C14.7315 38.0897 14.4742 38.0501 14.296 37.7829C14.1376 37.5354 14.1772 37.288 14.3257 37.0504C15.1671 35.6646 16.0085 34.2887 16.8498 32.9128C17.0874 32.5267 17.424 32.4673 17.8001 32.7148C19.1463 33.6156 20.4826 34.5164 21.8288 35.427C22.0862 35.6052 22.2347 35.8329 22.1654 36.1496C22.0961 36.4565 21.8585 36.5753 21.5814 36.6346C21.2349 36.7039 20.8885 36.793 20.5321 36.8524C20.2945 36.9019 20.1857 36.9811 20.2945 37.2484C21.1557 39.3963 22.6999 40.7327 24.9469 41.2375C25.3923 41.3365 25.8476 41.3662 26.303 41.386C26.6692 41.4058 26.8969 41.5542 26.9662 41.9007C27.0355 42.2471 26.8375 42.4649 26.5306 42.5936C25.62 42.9499 24.6796 43.1578 23.6898 43.138Z" fill="white"/>
</svg>
