<svg width="17" height="14" viewBox="0 0 17 14" fill="none" xmlns="http://www.w3.org/2000/svg">
<g clip-path="url(#clip0_28_36)">
<path d="M4.57804 0.699931C3.17804 4.29993 1.87804 7.89993 0.478039 11.4999C0.178039 12.3999 2.57804 12.2999 2.87804 11.4999C4.17804 7.89993 5.57804 4.29993 6.87804 0.699931C7.27804 -0.300069 4.87804 -0.200069 4.57804 0.699931Z" fill="white"/>
<path d="M5.77814 13.8999C8.87814 10.6999 11.9781 7.49992 15.0781 4.29992C15.4781 3.79992 15.9781 3.39992 16.3781 2.89992C16.7781 2.49992 16.4781 1.79992 16.1781 1.39992C15.9781 1.09992 15.1781 0.499923 14.7781 0.899923C11.6781 4.09992 8.57814 7.29992 5.47814 10.4999C5.07814 10.9999 4.57814 11.3999 4.17814 11.8999C3.77814 12.2999 4.07814 12.9999 4.37814 13.3999C4.57814 13.6999 5.37814 14.2999 5.77814 13.8999Z" fill="white"/>
</g>
<defs>
<clipPath id="clip0_28_36">
<rect width="16.1" height="14" fill="white" transform="translate(0.478516 -6.10352e-05)"/>
</clipPath>
</defs>
</svg>
