<svg width="70" height="68" viewBox="0 0 70 68" fill="none" xmlns="http://www.w3.org/2000/svg">
<g clip-path="url(#clip0_28_2)">
<path d="M56.161 44.4995C41.6615 39.3069 27.0333 34.1731 12.2654 29.414C11.5158 29.1345 10.6376 28.9138 9.88797 28.6343C9.41948 28.4596 8.97481 28.5073 8.77469 27.8991C8.75086 27.6767 9.19391 26.7747 9.26378 26.5873C9.92755 24.807 10.72 22.9679 11.5711 21.2575C12.3524 19.7345 13.1687 18.1178 13.9499 16.5948C14.1834 16.2549 14.4168 15.9151 14.5566 15.5403C14.5915 15.4466 14.6264 15.3529 14.6264 15.3529C14.1707 15.7166 14.1945 15.9389 14.6979 16.0199C14.9092 16.3121 15.5301 16.6503 15.87 16.8838C16.3623 17.2808 16.9833 17.619 17.4756 18.016C23.4994 22.183 29.547 26.5723 35.3723 30.9855C38.736 33.4136 42.0647 35.9354 45.2998 38.4222C46.9642 39.6831 48.6285 40.944 50.2929 42.2049C51.0314 42.8004 51.8636 43.4309 52.637 43.9327C53.0706 44.2011 53.3755 44.5282 53.809 44.7966C54.0552 44.9951 54.3014 45.1936 54.5475 45.3921C55.0637 46.0114 55.4845 45.7415 55.7513 44.4535C55.0255 44.3963 53.8123 46.5054 54.6317 46.5975C55.6386 46.7594 56.701 45.3412 56.6406 44.3582C56.6628 43.7261 56.1943 43.5514 55.702 43.1544C54.7761 42.489 53.8502 41.8237 52.9593 41.0646C49.5369 38.5078 46.1144 35.9511 42.7857 33.4293C35.9408 28.3158 29.0959 23.2024 22.0874 18.2414C20.3294 16.9455 18.4427 15.7085 16.6846 14.4126C16.1923 14.0156 15.5824 13.3614 14.8805 13.5265C14.2135 13.598 13.7466 14.2777 13.4433 14.805C11.2963 18.2735 9.54791 22.104 8.02187 25.9108C7.67251 26.8478 5.96856 29.4142 7.26924 30.2193C8.04267 30.7211 9.45926 30.9291 10.3026 31.2436C11.4269 31.6628 12.4926 31.9534 13.617 32.3726C17.8096 33.7223 21.9673 35.1658 26.125 36.6092C35.5997 39.8217 45.0395 43.1278 54.3506 46.4927C55.6037 46.8531 56.7232 44.7092 56.161 44.4995Z" fill="white"/>
<path d="M54.6436 52.5783C49.8349 53.4535 45.1675 54.8083 40.4413 56.0344C38.0783 56.6475 35.7501 57.1669 33.3632 57.5576C32.6962 57.6291 32.088 57.8293 31.7005 57.1512C31.4305 56.7303 31.4638 55.7822 31.3574 55.2089C31.1795 53.9686 31.0603 52.8569 31.011 51.5579C31.0094 50.7035 30.5599 48.1879 31.7065 47.9751C32.1861 47.8337 32.9008 48.2069 33.3693 48.3816C33.9664 48.4975 34.5286 48.7071 35.2194 48.858C37.573 49.4153 39.9266 49.9727 42.2214 50.4014C44.4813 50.9238 46.7412 51.4462 49.0011 51.9686C50.1604 52.2941 51.261 52.491 52.4203 52.8165C53.0174 52.9325 55.2535 53.2325 55.4536 53.8408C55.3472 53.2675 55.3694 52.6354 55.263 52.0621C55.2519 52.3781 54.9009 52.4607 54.6436 52.5783C54.164 52.7196 54.7771 55.0827 54.8708 55.1176C56.0873 54.7174 55.7553 52.4591 55.3439 51.5587C54.9914 50.7869 53.9496 50.7186 53.2587 50.5678C52.0994 50.2422 50.8114 49.9755 49.6521 49.65C44.945 48.5353 40.2029 47.5143 35.4957 46.3996C34.3364 46.0741 33.0246 45.585 31.8891 45.4818C30.941 45.4485 30.8251 46.0456 30.733 46.865C30.5266 49.136 30.695 51.5468 30.9333 53.7701C31.0524 54.8818 31.1716 55.9934 31.4194 57.0463C31.5496 57.842 31.5401 59.0124 32.0563 59.6318C32.6312 60.3797 33.8826 59.8858 34.6782 59.7555C36.0472 59.5189 37.3224 59.2473 38.7263 58.9169C44.2131 57.6542 49.6174 56.0405 55.1281 55.0001C55.2567 54.9413 54.866 52.5544 54.6436 52.5783Z" fill="white"/>
<path d="M60.411 38.8267C58.0415 36.0222 55.5433 33.2765 53.0102 30.6244C51.7905 29.3159 50.512 27.8787 49.2923 26.5701C48.6825 25.9159 48.1076 25.1679 47.4977 24.5136C46.8878 23.8593 46.4765 22.9589 45.8317 22.3983C45.5268 22.0712 45.8428 22.0823 45.5506 22.2935C45.7142 22.141 45.8428 22.0823 46.0064 21.9298C46.3335 21.6249 46.7544 21.3549 47.0466 21.1437C47.7946 20.5687 48.5425 19.9938 49.3493 19.5475C50.0623 19.0663 50.8691 18.62 51.6758 18.1738C51.968 17.9625 52.3539 17.7862 52.7398 17.6099C52.8684 17.5512 53.8737 16.8587 54.0611 16.9286C54.3422 17.0334 54.6742 19.2917 54.7568 19.6427C55.0395 20.6019 55.2634 21.4324 55.5461 22.3916C56.0528 24.1814 56.5944 25.8775 57.1011 27.6673C57.6665 29.5857 58.197 31.5978 58.7624 33.5162C59.0451 34.4754 59.2341 35.3997 59.5168 36.3589C59.6582 36.8385 59.7646 37.4118 59.906 37.8914C59.9298 38.1137 59.9886 38.2423 60.0124 38.4647C60.0362 38.687 60.095 38.8156 60.1188 39.038C60.1426 39.2603 60.2713 39.2015 60.411 38.8267C59.2739 37.8692 58.0956 39.8845 59.0453 40.7722C60.6398 42.2205 62.3454 40.5085 62.096 38.6012C61.764 36.3429 61.0223 34.0386 60.3393 31.8629C59.0782 27.2305 57.6297 22.5281 56.3686 17.8957C56.1796 16.9714 56.0366 15.6374 55.3331 14.9482C54.5708 14.1304 53.6703 14.5417 52.7699 14.953C50.7705 16.0219 48.8299 17.2194 46.983 18.4518C45.5219 19.508 42.8794 20.8706 43.656 23.0813C43.9388 24.0405 44.8885 24.9282 45.592 25.6174C46.4131 26.5639 47.2342 27.5104 47.9616 28.4219C51.6445 32.5699 55.5259 36.4717 59.0803 40.6785C59.9252 41.8473 61.2321 39.7732 60.411 38.8267Z" fill="white"/>
</g>
<defs>
<clipPath id="clip0_28_2">
<rect width="50.5" height="55.3" fill="white" transform="translate(0 47.9999) rotate(-69.5523)"/>
</clipPath>
</defs>
</svg>
