<svg width="181" height="16" viewBox="0 0 181 16" fill="none" xmlns="http://www.w3.org/2000/svg">
<path d="M4.87879 5.69994C36.9788 3.89994 109.179 2.69994 141.379 1.99994C145.879 1.89994 150.279 1.79994 154.779 1.79994C157.079 1.79994 159.379 1.69994 161.779 1.69994C162.979 1.69994 164.079 1.69994 165.279 1.69994C165.779 1.69994 166.279 1.69994 166.779 1.69994C167.279 1.69994 169.279 1.89994 167.579 1.49994C166.579 1.09994 165.679 0.699939 164.679 0.299939C164.779 0.399939 163.479 0.599939 163.379 0.599939C162.879 0.599939 162.379 0.699939 161.879 0.699939C160.779 0.799939 159.779 0.899939 158.679 0.999939C156.579 1.19994 154.379 1.39994 152.279 1.59994C148.179 1.99994 144.079 2.29994 139.979 2.69994C131.479 3.39994 123.079 4.19994 114.779 4.99994C98.2788 6.59994 41.7788 8.39994 25.3788 10.4999C21.2788 10.9999 17.1788 11.5999 12.9788 12.1999C10.9788 12.4999 8.97879 12.7999 6.97879 13.0999C6.57879 13.1999 5.57879 13.0999 5.67879 13.6999C5.87879 14.3999 7.77879 14.7999 8.37879 14.8999C10.4788 15.4999 12.5788 15.1999 14.6788 15.1999C16.7788 15.1999 18.8788 15.0999 20.8788 15.0999C25.0788 14.9999 29.3788 14.9999 33.5788 14.8999C50.3788 14.5999 107.279 14.0999 124.079 13.4999C140.879 12.8999 157.679 12.1999 174.379 11.2999C176.479 11.1999 178.479 11.0999 180.579 10.9999C181.579 10.8999 180.079 10.2999 179.879 10.1999C178.879 9.79994 177.679 9.29994 176.579 9.39994C159.779 10.2999 142.879 11.0999 126.079 11.7999C109.079 12.3999 52.0788 12.8999 35.0788 13.2999C30.3788 13.3999 25.5788 13.4999 20.8788 13.5999C18.5788 13.5999 16.1788 13.6999 13.8788 13.6999C12.6788 13.6999 11.3788 13.6999 10.1788 13.6999C9.57879 13.6999 8.97879 13.6999 8.47879 13.6999C7.97879 13.6999 6.07879 13.4999 7.67879 13.8999C8.67879 14.2999 9.57879 14.6999 10.5788 15.0999C10.4788 14.9999 12.7788 14.5999 13.0788 14.5999C14.0788 14.4999 14.9788 14.2999 15.9788 14.1999C18.0788 13.8999 20.1788 13.5999 22.2788 13.2999C26.2788 12.7999 30.3788 12.1999 34.3788 11.6999C42.5788 10.6999 50.7788 9.69994 58.9788 8.79994C75.1788 6.99994 131.379 5.49994 147.679 4.09994C151.579 3.69994 155.579 3.39994 159.479 3.09994C161.479 2.89994 163.379 2.79994 165.379 2.59994C166.379 2.49994 167.379 2.39994 168.379 2.29994C168.879 2.29994 169.779 2.29994 169.379 1.59994C168.879 0.899939 167.279 0.599939 166.479 0.399939C165.479 -6.10352e-05 164.579 -6.10352e-05 163.679 -6.10352e-05C161.479 -6.10352e-05 159.379 -6.10352e-05 157.179 0.099939C153.079 0.199939 148.879 0.199939 144.779 0.299939C128.379 0.599939 72.0788 0.999939 55.6788 1.59994C37.3788 2.19994 19.0788 3.09994 0.878786 4.09994C-0.121214 4.19994 1.37879 4.79994 1.57879 4.89994C2.47879 5.29994 3.77879 5.79994 4.87879 5.69994Z" fill="white"/>
</svg>
