<svg width="185" height="173" viewBox="0 0 185 173" fill="none" xmlns="http://www.w3.org/2000/svg">
<path d="M172.983 97.8266C179.367 56.5665 151.094 17.9434 109.834 11.5594C68.5742 5.17542 29.951 33.448 23.5671 74.7081C17.1831 115.968 45.4557 154.591 86.7157 160.975C127.976 167.359 166.599 139.087 172.983 97.8266Z" fill="#E3C906"/>
<path d="M165.675 75.9664L172.975 50.3664C173.975 47.0664 172.175 43.5664 168.875 42.3664C165.575 41.1664 161.975 42.7664 160.675 45.9664L154.075 61.6664L129.275 57.2664L131.775 32.1664C132.275 27.8664 129.275 23.9664 124.975 23.2664C121.275 22.6664 117.675 24.6664 116.275 28.0664L101.375 62.5664C100.475 64.6664 98.9746 66.5664 97.1746 67.9664L29.9746 118.666C42.0746 144.166 67.9746 161.766 98.0746 161.866L136.075 120.166C142.075 116.266 147.775 112.266 152.675 107.866C158.575 103.466 162.575 96.9664 163.675 89.6664L165.675 75.9664Z" fill="#EAA48D"/>
<path d="M115.475 59.7665C115.475 59.7665 126.775 52.7665 131.475 34.1665C128.975 54.1665 129.575 59.8665 129.575 59.8665C129.575 59.8665 125.075 56.6665 115.475 59.7665Z" fill="#DB8A75"/>
<path d="M125.074 99.4663C125.074 99.4663 131.574 96.0663 150.374 96.0663C167.274 82.5663 156.574 61.9663 156.574 61.9663H123.074L121.774 78.8663C121.774 78.9663 131.174 85.6663 125.074 99.4663Z" fill="#DB8A75"/>
<path d="M159.974 48.2666C159.974 48.2666 156.174 65.5666 163.674 76.6666C162.274 88.4666 158.074 92.9666 152.674 97.4666C136.374 93.5666 125.074 99.4666 125.074 99.4666L152.974 66.5666L155.474 59.5666L159.974 48.2666Z" fill="#DB8A75"/>
<path d="M129.274 51.5664L138.874 52.4664C142.674 52.8664 145.774 55.7664 146.274 59.6664L147.474 69.3664C147.874 72.9664 147.574 76.6664 146.574 80.1664L143.774 89.3664C142.674 93.1664 138.974 95.5664 134.974 95.1664H134.874C130.974 94.7664 127.974 91.3664 128.174 87.3664L129.274 51.5664Z" fill="#EAA48D"/>
<path d="M144.674 55.6665L150.174 56.5665C153.774 57.1665 156.574 60.0665 156.974 63.6665L157.974 72.5665C158.374 75.9665 157.974 79.4665 156.774 82.7665L154.874 88.0665C153.374 92.2665 148.874 94.6665 144.574 93.5665L141.274 92.7665L144.674 55.6665Z" fill="#EAA48D"/>
<path d="M141.674 93.0664L140.774 92.5664C140.874 92.4664 146.474 82.3664 146.974 73.8664C147.474 65.3664 144.174 55.9664 144.074 55.8664L144.974 55.5664C144.974 55.6664 148.474 65.2664 147.874 73.9664C147.474 82.6664 141.974 92.6664 141.674 93.0664Z" fill="#263E65"/>
<path d="M151.974 92.6665L151.574 91.7665C153.874 90.6665 156.174 85.3665 157.474 78.3665C158.574 72.6665 156.474 63.9665 156.474 63.8665L157.474 63.6665C157.574 64.0665 159.574 72.6665 158.474 78.5665C157.374 84.2665 155.074 91.0665 151.974 92.6665Z" fill="#263E65"/>
<path d="M112.375 61.2663L113.475 60.6663C118.475 58.1663 124.375 57.8663 129.675 59.7663L139.475 63.4663C143.475 64.9663 145.575 69.2663 144.375 73.3663L143.975 74.6663C142.875 78.3663 139.275 80.7663 135.375 80.3663L121.775 78.8663C121.775 78.8663 134.875 90.1663 122.575 101.366L97.375 81.9663L112.375 61.2663Z" fill="#EAA48D"/>
<path d="M122.874 101.866L122.174 101.166C125.674 97.9665 127.374 94.5665 127.374 90.9665C127.274 84.4665 121.574 79.4665 121.474 79.4665L120.274 78.3665L135.474 80.0665C139.074 80.4665 142.474 78.2665 143.574 74.7665L143.974 73.4665C145.074 69.6665 143.074 65.5665 139.374 64.1665L129.574 60.4665C124.474 58.5665 118.674 58.8665 113.774 61.2665L112.674 61.8665L112.274 60.9665L113.374 60.3665C118.474 57.7665 124.574 57.4665 129.974 59.4665L139.774 63.1665C143.974 64.7665 146.274 69.3665 144.974 73.6665L144.574 74.9665C143.374 78.9665 139.574 81.4665 135.474 81.0665L123.374 79.7665C125.174 81.6665 128.474 85.7665 128.574 90.9665C128.374 94.7665 126.474 98.4665 122.874 101.866Z" fill="#263E65"/>
<path d="M135.974 120.267C135.174 120.067 122.174 118.667 109.274 107.667C118.274 132.767 118.874 138.667 118.874 138.667L135.974 120.267Z" fill="#DB8A75"/>
<path opacity="0.8" d="M141.674 66.8666L140.874 75.2666C140.874 75.2666 136.974 75.2666 137.174 69.9666C137.374 64.5666 141.674 66.8666 141.674 66.8666Z" fill="white"/>
<path opacity="0.8" d="M133.175 90.7662L139.675 91.0662C139.675 91.0662 139.675 88.2663 136.575 87.9663C133.475 87.6663 133.175 90.7662 133.175 90.7662Z" fill="white"/>
<path opacity="0.8" d="M144.175 90.7662L150.675 91.0662C150.675 91.0662 150.675 88.2663 147.575 87.9663C144.475 87.6663 144.175 90.7662 144.175 90.7662Z" fill="white"/>
<mask id="path-16-outside-1_208_434" maskUnits="userSpaceOnUse" x="6.61552" y="17.5685" width="110.612" height="96.3896" fill="black">
<rect fill="white" x="6.61552" y="17.5685" width="110.612" height="96.3896"/>
<path d="M17.3365 93.7728L12.0327 80.2818L15.7467 77.5341L20.0235 80.4901L20.5702 73.9655L24.7023 70.9085L30.0061 84.3995L26.2599 87.1711L23.6276 80.4857L22.9236 87.2012L22.8593 87.2488L18.3861 84.3635L21.0184 91.0488L17.3365 93.7728ZM34.2047 81.5918C32.8541 82.591 31.2031 82.4442 30.0849 80.9329C28.717 79.0839 29.2719 76.8074 31.7479 74.9756C32.4071 74.4879 33.1538 74.0848 33.9557 73.79L33.9165 73.6698C33.8654 73.5334 33.7667 73.3328 33.6597 73.1881C33.2552 72.6414 32.5951 72.6571 31.6787 73.3351C30.8748 73.9299 29.9969 74.8281 29.5685 75.4934L27.2543 73.3742C27.9888 72.383 29.2568 71.1712 30.527 70.2315C33.4371 68.0785 35.6084 68.1887 36.905 69.9412C37.1786 70.311 37.4396 70.7648 37.6482 71.2821L39.9305 77.0572L36.2808 79.7574L35.8677 78.6946C35.5676 79.9367 35.2176 80.8424 34.2047 81.5918ZM34.4388 78.2093C35.0177 77.7811 35.2046 76.7223 34.807 75.7476L34.6298 75.3065C34.3411 75.4206 34.1244 75.5312 33.8832 75.7096C32.9667 76.3876 32.7734 77.2024 33.3325 77.958C33.6655 78.4082 34.1012 78.4591 34.4388 78.2093ZM40.9188 76.326L36.7715 65.8107L40.4213 63.1105L41.2635 65.224C41.2032 63.4276 41.6452 61.9065 43.1076 60.924L44.9453 65.5601L44.5595 65.8456C42.8391 67.1184 42.6007 68.7129 43.5296 71.011L44.5686 73.6258L40.9188 76.326ZM48.0158 71.0755L42.4838 57.007L46.1335 54.3068L48.679 60.8076L49.2065 56.611L53.3707 53.5301L52.3115 60.1354L57.5663 64.0098L53.7718 66.817L51.2332 64.7644L50.9613 66.5827L51.6656 68.3753L48.0158 71.0755ZM59.0154 57.4645C59.587 58.1362 60.3821 58.2694 61.2021 57.6628C61.797 57.2227 62.1813 56.5652 62.4473 55.6469L65.5035 56.2469C65.1609 57.8687 64.3433 59.3194 62.7998 60.4613C60.1309 62.4359 57.3371 62.0896 55.6361 59.7904C53.6615 57.1214 53.6806 52.9775 57.0249 50.5033C59.9189 48.3622 62.3348 49.61 63.7028 51.459C64.131 52.0378 64.4508 52.6719 64.6588 53.2893L59.0154 57.4645ZM58.051 55.6901L60.527 53.8583C60.4801 53.694 60.401 53.5535 60.3058 53.4248C59.949 52.9425 59.2622 52.754 58.6673 53.1941C58.1206 53.5985 57.663 54.4596 58.051 55.6901ZM71.5779 53.9422C69.5199 55.4647 67.9402 55.4144 66.7507 53.8066C66.4771 53.4368 66.2441 52.9872 66.0236 52.4538L64.8194 49.4138L63.7904 50.1751L62.4645 46.8024L63.4935 46.0411L62.4587 43.3983L66.1085 40.6981L67.1432 43.3409L69.1691 41.8421L70.495 45.2149L68.4692 46.7137L69.3625 48.9636C69.4962 49.3124 69.6187 49.5452 69.7495 49.7221C70.0231 50.0919 70.3909 50.1183 70.9054 49.7377C71.1948 49.5236 71.4164 49.285 71.8238 48.7597L73.2366 52.317C72.7285 52.9417 72.1889 53.4902 71.5779 53.9422ZM69.7235 40.4617L68.6257 37.6665L72.4041 34.8711L73.5019 37.6664L69.7235 40.4617ZM74.2221 51.6874L70.0748 41.172L73.7246 38.4718L77.8719 48.9872L74.2221 51.6874ZM79.026 48.1334L74.8787 37.618L78.5284 34.9178L79.0479 36.2253C79.1033 35.0896 79.6118 33.7929 80.7051 32.984C82.313 31.7945 83.9865 32.1735 85.1998 33.8135C85.5329 34.2637 85.8373 34.8097 86.0851 35.4473L88.3674 41.2223L84.7177 43.9225L82.6559 38.6809C82.5537 38.4082 82.3955 38.1272 82.2647 37.9503C81.9197 37.4841 81.4525 37.357 80.922 37.7496C80.1984 38.2848 80.1694 39.0527 80.614 40.1916L82.6757 45.4332L79.026 48.1334ZM95.4977 39.9775C93.8899 41.167 91.6281 42.0442 90.0191 42.1897L89.896 38.9968C91.3812 38.8185 92.7131 38.2312 93.5813 37.5889C94.3852 36.9941 94.773 36.4087 94.8818 35.6814C94.9529 35.2058 94.8806 34.6373 94.609 33.9675L94.546 33.8151C94.3388 34.9138 93.7721 35.9301 92.6949 36.7271C91.2157 37.8214 88.9193 37.8784 87.48 35.9329C85.6125 33.4087 85.3094 29.6026 88.0909 27.5447C89.2646 26.6764 90.6575 26.5415 91.7311 26.9166L91.192 25.549L94.8418 22.8488L98.0958 31.1143C98.7489 32.7706 99.016 34.1404 98.8235 35.4271C98.5809 37.0496 97.5557 38.4549 95.4977 39.9775ZM92.6233 32.9985C93.6202 32.261 93.5608 30.9366 92.9304 30.0845C92.4665 29.4574 91.6119 29.2438 90.8562 29.8029C89.8754 30.5285 89.8949 31.8326 90.561 32.733C91.0249 33.3601 91.8676 33.5576 92.6233 32.9985ZM43.9792 101.428L38.6753 87.9372L42.1965 85.3322L48.7258 88.811L46.1999 82.3703L49.9301 79.6106L55.2339 93.1016L51.8896 95.5758L45.0812 91.9552L47.7093 98.6685L43.9792 101.428ZM61.8579 88.5245C59.0924 90.5704 56.1363 89.9711 54.4472 87.688C52.4607 85.0029 52.8673 80.9455 55.9221 78.6854C58.6876 76.6395 61.6437 77.2388 63.3328 79.5219C65.3193 82.207 64.9127 86.2644 61.8579 88.5245ZM59.8824 85.3835C60.7988 84.7055 60.7842 83.2733 60.011 82.2283C59.4639 81.4887 58.6051 81.303 57.8976 81.8264C56.9812 82.5044 56.9958 83.9366 57.769 84.9816C58.3161 85.7212 59.1749 85.9069 59.8824 85.3835ZM68.6855 83.2493L60.9535 75.2865L64.6997 72.515L68.2001 76.742L67.5455 70.4096L71.4043 67.5547L72.0298 80.7751L68.6855 83.2493ZM71.5737 66.4591L70.476 63.6639L74.2544 60.8686L75.3521 63.6638L71.5737 66.4591ZM76.0724 77.6848L71.9251 67.1695L75.5748 64.4693L79.7221 74.9846L76.0724 77.6848ZM85.9948 70.6922C83.6474 72.4289 80.8558 72.3546 79.1073 69.9911C76.871 66.9684 77.4223 62.804 80.461 60.5558C82.5834 58.9856 84.854 59.1965 86.405 60.5867L84.3673 63.8854C83.6951 63.313 83.0517 63.2168 82.4568 63.6569C81.4117 64.4301 81.5691 66.0552 82.3541 67.1163C82.8418 67.7755 83.5691 67.8843 84.148 67.4561C84.6625 67.0754 84.8699 66.5488 84.9353 65.7292L88.6085 65.5492C88.6681 67.4456 88.0046 69.2053 85.9948 70.6922ZM91.5146 60.787C92.0862 61.4587 92.8814 61.5919 93.7014 60.9853C94.2963 60.5452 94.6806 59.8877 94.9466 58.9694L98.0027 59.5694C97.6601 61.1912 96.8426 62.6419 95.2991 63.7838C92.6301 65.7584 89.8363 65.4121 88.1353 63.1129C86.1608 60.4439 86.1799 56.3 89.5241 53.8258C92.4182 51.6847 94.8341 52.9325 96.202 54.7815C96.6303 55.3603 96.9501 55.9944 97.1581 56.6118L91.5146 60.787ZM90.5502 59.0126L93.0263 57.1808C92.9793 57.0165 92.9003 56.876 92.8051 56.7473C92.4482 56.265 91.7615 56.0765 91.1666 56.5166C90.6199 56.921 90.1623 57.7821 90.5502 59.0126Z"/>
</mask>
<path d="M17.3365 93.7728L12.0327 80.2818L15.7467 77.5341L20.0235 80.4901L20.5702 73.9655L24.7023 70.9085L30.0061 84.3995L26.2599 87.1711L23.6276 80.4857L22.9236 87.2012L22.8593 87.2488L18.3861 84.3635L21.0184 91.0488L17.3365 93.7728ZM34.2047 81.5918C32.8541 82.591 31.2031 82.4442 30.0849 80.9329C28.717 79.0839 29.2719 76.8074 31.7479 74.9756C32.4071 74.4879 33.1538 74.0848 33.9557 73.79L33.9165 73.6698C33.8654 73.5334 33.7667 73.3328 33.6597 73.1881C33.2552 72.6414 32.5951 72.6571 31.6787 73.3351C30.8748 73.9299 29.9969 74.8281 29.5685 75.4934L27.2543 73.3742C27.9888 72.383 29.2568 71.1712 30.527 70.2315C33.4371 68.0785 35.6084 68.1887 36.905 69.9412C37.1786 70.311 37.4396 70.7648 37.6482 71.2821L39.9305 77.0572L36.2808 79.7574L35.8677 78.6946C35.5676 79.9367 35.2176 80.8424 34.2047 81.5918ZM34.4388 78.2093C35.0177 77.7811 35.2046 76.7223 34.807 75.7476L34.6298 75.3065C34.3411 75.4206 34.1244 75.5312 33.8832 75.7096C32.9667 76.3876 32.7734 77.2024 33.3325 77.958C33.6655 78.4082 34.1012 78.4591 34.4388 78.2093ZM40.9188 76.326L36.7715 65.8107L40.4213 63.1105L41.2635 65.224C41.2032 63.4276 41.6452 61.9065 43.1076 60.924L44.9453 65.5601L44.5595 65.8456C42.8391 67.1184 42.6007 68.7129 43.5296 71.011L44.5686 73.6258L40.9188 76.326ZM48.0158 71.0755L42.4838 57.007L46.1335 54.3068L48.679 60.8076L49.2065 56.611L53.3707 53.5301L52.3115 60.1354L57.5663 64.0098L53.7718 66.817L51.2332 64.7644L50.9613 66.5827L51.6656 68.3753L48.0158 71.0755ZM59.0154 57.4645C59.587 58.1362 60.3821 58.2694 61.2021 57.6628C61.797 57.2227 62.1813 56.5652 62.4473 55.6469L65.5035 56.2469C65.1609 57.8687 64.3433 59.3194 62.7998 60.4613C60.1309 62.4359 57.3371 62.0896 55.6361 59.7904C53.6615 57.1214 53.6806 52.9775 57.0249 50.5033C59.9189 48.3622 62.3348 49.61 63.7028 51.459C64.131 52.0378 64.4508 52.6719 64.6588 53.2893L59.0154 57.4645ZM58.051 55.6901L60.527 53.8583C60.4801 53.694 60.401 53.5535 60.3058 53.4248C59.949 52.9425 59.2622 52.754 58.6673 53.1941C58.1206 53.5985 57.663 54.4596 58.051 55.6901ZM71.5779 53.9422C69.5199 55.4647 67.9402 55.4144 66.7507 53.8066C66.4771 53.4368 66.2441 52.9872 66.0236 52.4538L64.8194 49.4138L63.7904 50.1751L62.4645 46.8024L63.4935 46.0411L62.4587 43.3983L66.1085 40.6981L67.1432 43.3409L69.1691 41.8421L70.495 45.2149L68.4692 46.7137L69.3625 48.9636C69.4962 49.3124 69.6187 49.5452 69.7495 49.7221C70.0231 50.0919 70.3909 50.1183 70.9054 49.7377C71.1948 49.5236 71.4164 49.285 71.8238 48.7597L73.2366 52.317C72.7285 52.9417 72.1889 53.4902 71.5779 53.9422ZM69.7235 40.4617L68.6257 37.6665L72.4041 34.8711L73.5019 37.6664L69.7235 40.4617ZM74.2221 51.6874L70.0748 41.172L73.7246 38.4718L77.8719 48.9872L74.2221 51.6874ZM79.026 48.1334L74.8787 37.618L78.5284 34.9178L79.0479 36.2253C79.1033 35.0896 79.6118 33.7929 80.7051 32.984C82.313 31.7945 83.9865 32.1735 85.1998 33.8135C85.5329 34.2637 85.8373 34.8097 86.0851 35.4473L88.3674 41.2223L84.7177 43.9225L82.6559 38.6809C82.5537 38.4082 82.3955 38.1272 82.2647 37.9503C81.9197 37.4841 81.4525 37.357 80.922 37.7496C80.1984 38.2848 80.1694 39.0527 80.614 40.1916L82.6757 45.4332L79.026 48.1334ZM95.4977 39.9775C93.8899 41.167 91.6281 42.0442 90.0191 42.1897L89.896 38.9968C91.3812 38.8185 92.7131 38.2312 93.5813 37.5889C94.3852 36.9941 94.773 36.4087 94.8818 35.6814C94.9529 35.2058 94.8806 34.6373 94.609 33.9675L94.546 33.8151C94.3388 34.9138 93.7721 35.9301 92.6949 36.7271C91.2157 37.8214 88.9193 37.8784 87.48 35.9329C85.6125 33.4087 85.3094 29.6026 88.0909 27.5447C89.2646 26.6764 90.6575 26.5415 91.7311 26.9166L91.192 25.549L94.8418 22.8488L98.0958 31.1143C98.7489 32.7706 99.016 34.1404 98.8235 35.4271C98.5809 37.0496 97.5557 38.4549 95.4977 39.9775ZM92.6233 32.9985C93.6202 32.261 93.5608 30.9366 92.9304 30.0845C92.4665 29.4574 91.6119 29.2438 90.8562 29.8029C89.8754 30.5285 89.8949 31.8326 90.561 32.733C91.0249 33.3601 91.8676 33.5576 92.6233 32.9985ZM43.9792 101.428L38.6753 87.9372L42.1965 85.3322L48.7258 88.811L46.1999 82.3703L49.9301 79.6106L55.2339 93.1016L51.8896 95.5758L45.0812 91.9552L47.7093 98.6685L43.9792 101.428ZM61.8579 88.5245C59.0924 90.5704 56.1363 89.9711 54.4472 87.688C52.4607 85.0029 52.8673 80.9455 55.9221 78.6854C58.6876 76.6395 61.6437 77.2388 63.3328 79.5219C65.3193 82.207 64.9127 86.2644 61.8579 88.5245ZM59.8824 85.3835C60.7988 84.7055 60.7842 83.2733 60.011 82.2283C59.4639 81.4887 58.6051 81.303 57.8976 81.8264C56.9812 82.5044 56.9958 83.9366 57.769 84.9816C58.3161 85.7212 59.1749 85.9069 59.8824 85.3835ZM68.6855 83.2493L60.9535 75.2865L64.6997 72.515L68.2001 76.742L67.5455 70.4096L71.4043 67.5547L72.0298 80.7751L68.6855 83.2493ZM71.5737 66.4591L70.476 63.6639L74.2544 60.8686L75.3521 63.6638L71.5737 66.4591ZM76.0724 77.6848L71.9251 67.1695L75.5748 64.4693L79.7221 74.9846L76.0724 77.6848ZM85.9948 70.6922C83.6474 72.4289 80.8558 72.3546 79.1073 69.9911C76.871 66.9684 77.4223 62.804 80.461 60.5558C82.5834 58.9856 84.854 59.1965 86.405 60.5867L84.3673 63.8854C83.6951 63.313 83.0517 63.2168 82.4568 63.6569C81.4117 64.4301 81.5691 66.0552 82.3541 67.1163C82.8418 67.7755 83.5691 67.8843 84.148 67.4561C84.6625 67.0754 84.8699 66.5488 84.9353 65.7292L88.6085 65.5492C88.6681 67.4456 88.0046 69.2053 85.9948 70.6922ZM91.5146 60.787C92.0862 61.4587 92.8814 61.5919 93.7014 60.9853C94.2963 60.5452 94.6806 59.8877 94.9466 58.9694L98.0027 59.5694C97.6601 61.1912 96.8426 62.6419 95.2991 63.7838C92.6301 65.7584 89.8363 65.4121 88.1353 63.1129C86.1608 60.4439 86.1799 56.3 89.5241 53.8258C92.4182 51.6847 94.8341 52.9325 96.202 54.7815C96.6303 55.3603 96.9501 55.9944 97.1581 56.6118L91.5146 60.787ZM90.5502 59.0126L93.0263 57.1808C92.9793 57.0165 92.9003 56.876 92.8051 56.7473C92.4482 56.265 91.7615 56.0765 91.1666 56.5166C90.6199 56.921 90.1623 57.7821 90.5502 59.0126Z" fill="#263E65"/>
<path d="M17.3365 93.7728L16.4058 94.1387L16.883 95.3523L17.9313 94.5767L17.3365 93.7728ZM12.0327 80.2818L11.4379 79.4779L10.8214 79.934L11.102 80.6477L12.0327 80.2818ZM15.7467 77.5341L16.3153 76.7114L15.727 76.3048L15.152 76.7301L15.7467 77.5341ZM20.0235 80.4901L19.4549 81.3127L20.8758 82.2948L21.02 80.5736L20.0235 80.4901ZM20.5702 73.9655L19.9754 73.1616L19.6115 73.4309L19.5737 73.882L20.5702 73.9655ZM24.7023 70.9085L25.6329 70.5426L25.1558 69.329L24.1075 70.1046L24.7023 70.9085ZM30.0061 84.3995L30.6009 85.2034L31.2174 84.7473L30.9368 84.0336L30.0061 84.3995ZM26.2599 87.1711L25.3294 87.5374L25.8069 88.7501L26.8547 87.975L26.2599 87.1711ZM23.6276 80.4857L24.5581 80.1193L22.633 80.3814L23.6276 80.4857ZM22.9236 87.2012L23.5184 88.0051L23.8723 87.7433L23.9182 87.3055L22.9236 87.2012ZM22.8593 87.2488L22.3173 88.0892L22.8983 88.4639L23.4541 88.0527L22.8593 87.2488ZM18.3861 84.3635L18.9281 83.5231L16.3174 81.8392L17.4556 84.7298L18.3861 84.3635ZM21.0184 91.0488L21.6132 91.8527L22.23 91.3964L21.9489 90.6825L21.0184 91.0488ZM18.2672 93.4069L12.9633 79.9159L11.102 80.6477L16.4058 94.1387L18.2672 93.4069ZM12.6274 81.0857L16.3415 78.338L15.152 76.7301L11.4379 79.4779L12.6274 81.0857ZM15.1781 78.3567L19.4549 81.3127L20.5921 79.6675L16.3153 76.7114L15.1781 78.3567ZM21.02 80.5736L21.5667 74.049L19.5737 73.882L19.027 80.4066L21.02 80.5736ZM21.1649 74.7694L25.297 71.7124L24.1075 70.1046L19.9754 73.1616L21.1649 74.7694ZM23.7716 71.2744L29.0755 84.7654L30.9368 84.0336L25.6329 70.5426L23.7716 71.2744ZM29.4114 83.5956L25.6651 86.3671L26.8547 87.975L30.6009 85.2034L29.4114 83.5956ZM27.1904 86.8047L24.5581 80.1193L22.6971 80.8521L25.3294 87.5374L27.1904 86.8047ZM22.633 80.3814L21.9291 87.097L23.9182 87.3055L24.6221 80.5899L22.633 80.3814ZM22.3289 86.3973L22.2646 86.4449L23.4541 88.0527L23.5184 88.0051L22.3289 86.3973ZM23.4014 86.4085L18.9281 83.5231L17.8441 85.2038L22.3173 88.0892L23.4014 86.4085ZM17.4556 84.7298L20.0879 91.4152L21.9489 90.6825L19.3166 83.9971L17.4556 84.7298ZM20.4237 90.2449L16.7418 92.9689L17.9313 94.5767L21.6132 91.8527L20.4237 90.2449ZM33.9557 73.79L34.3007 74.7286L35.2052 74.3962L34.9065 73.48L33.9557 73.79ZM33.9165 73.6698L34.8673 73.3598L34.8605 73.3391L34.8529 73.3188L33.9165 73.6698ZM29.5685 75.4934L28.8932 76.2309L29.7674 77.0315L30.4093 76.0348L29.5685 75.4934ZM27.2543 73.3742L26.4509 72.7788L25.9143 73.503L26.579 74.1117L27.2543 73.3742ZM37.6482 71.2821L38.5783 70.9146L38.5757 70.9082L37.6482 71.2821ZM39.9305 77.0572L40.5253 77.8611L41.1429 77.4042L40.8605 76.6897L39.9305 77.0572ZM36.2808 79.7574L35.3487 80.1196L35.823 81.34L36.8755 80.5613L36.2808 79.7574ZM35.8677 78.6946L36.7998 78.3324L35.6446 75.3604L34.8957 78.4598L35.8677 78.6946ZM34.807 75.7476L33.8789 76.1202L33.8811 76.1254L34.807 75.7476ZM34.6298 75.3065L35.5578 74.9339L35.1873 74.0109L34.2623 74.3765L34.6298 75.3065ZM33.61 80.7879C33.1113 81.1568 32.619 81.2725 32.1959 81.2134C31.7789 81.1552 31.3127 80.9111 30.8888 80.3381L29.281 81.5276C29.9753 82.466 30.8937 83.051 31.9194 83.1942C32.939 83.3366 33.9476 83.026 34.7995 82.3957L33.61 80.7879ZM30.8888 80.3381C30.3749 79.6434 30.2476 78.9243 30.4405 78.2079C30.642 77.4599 31.2253 76.6062 32.3427 75.7795L31.1532 74.1717C29.7945 75.1769 28.8623 76.3773 28.5094 77.6877C28.1479 79.0297 28.427 80.3733 29.281 81.5276L30.8888 80.3381ZM32.3427 75.7795C32.9242 75.3493 33.5865 74.9912 34.3007 74.7286L33.6108 72.8514C32.7211 73.1784 31.8901 73.6265 31.1532 74.1717L32.3427 75.7795ZM34.9065 73.48L34.8673 73.3598L32.9658 73.9798L33.005 74.1L34.9065 73.48ZM34.8529 73.3188C34.7779 73.1188 34.639 72.8304 34.4636 72.5933L32.8558 73.7828C32.8692 73.801 32.8937 73.8394 32.9223 73.8942C32.9501 73.9476 32.9704 73.9947 32.9802 74.0208L34.8529 73.3188ZM34.4636 72.5933C34.0755 72.0687 33.4934 71.7615 32.7997 71.8042C32.1892 71.8419 31.6074 72.1439 31.0839 72.5312L32.2734 74.139C32.6664 73.8483 32.8729 73.8035 32.9227 73.8005C32.9325 73.7998 32.9072 73.802 32.8706 73.7841C32.8365 73.7676 32.8344 73.754 32.8558 73.7828L34.4636 72.5933ZM31.0839 72.5312C30.2071 73.1799 29.2362 74.1624 28.7277 74.952L30.4093 76.0348C30.7576 75.4939 31.5424 74.6799 32.2734 74.139L31.0839 72.5312ZM30.2439 74.7559L27.9297 72.6367L26.579 74.1117L28.8932 76.2309L30.2439 74.7559ZM28.0578 73.9695C28.7181 73.0785 29.9072 71.9339 31.1217 71.0354L29.9322 69.4276C28.6063 70.4085 27.2596 71.6874 26.4509 72.7788L28.0578 73.9695ZM31.1217 71.0354C32.4943 70.0199 33.5647 69.638 34.3421 69.6216C35.0555 69.6066 35.6267 69.8947 36.1011 70.536L37.7089 69.3465C36.8868 68.2352 35.724 67.592 34.3 67.622C32.9401 67.6507 31.4697 68.2901 29.9322 69.4276L31.1217 71.0354ZM36.1011 70.536C36.3244 70.8378 36.5439 71.2173 36.7208 71.6561L38.5757 70.9082C38.3354 70.3122 38.0328 69.7843 37.7089 69.3465L36.1011 70.536ZM36.7182 71.6497L39.0005 77.4247L40.8605 76.6897L38.5782 70.9146L36.7182 71.6497ZM39.3357 76.2533L35.686 78.9535L36.8755 80.5613L40.5253 77.8611L39.3357 76.2533ZM37.2128 79.3951L36.7998 78.3324L34.9356 79.0569L35.3487 80.1196L37.2128 79.3951ZM34.8957 78.4598C34.6134 79.628 34.3372 80.2499 33.61 80.7879L34.7995 82.3957C36.098 81.435 36.5218 80.2454 36.8397 78.9295L34.8957 78.4598ZM35.0336 79.0132C35.5956 78.5974 35.8803 77.9513 35.9769 77.3391C36.0757 76.7125 35.9981 76.02 35.7329 75.3699L33.8811 76.1254C34.0134 76.4499 34.0412 76.7741 34.0013 77.0276C33.959 77.2955 33.8609 77.393 33.8441 77.4054L35.0336 79.0132ZM35.735 75.3751L35.5578 74.9339L33.7018 75.679L33.879 76.1202L35.735 75.3751ZM34.2623 74.3765C33.915 74.5137 33.6165 74.663 33.2884 74.9057L34.4779 76.5135C34.6322 76.3994 34.7672 76.3274 34.9974 76.2365L34.2623 74.3765ZM33.2884 74.9057C32.7154 75.3296 32.2493 75.8829 32.0828 76.5687C31.908 77.2881 32.1047 77.9798 32.5286 78.5528L34.1364 77.3633C34.0012 77.1806 34.015 77.0871 34.0262 77.0407C34.0457 76.9607 34.1345 76.7676 34.4779 76.5135L33.2884 74.9057ZM32.5286 78.5528C32.8073 78.9295 33.2 79.2312 33.6917 79.3275C34.1916 79.4254 34.6662 79.285 35.0336 79.0132L33.8441 77.4054C33.8556 77.3968 33.8835 77.3796 33.9284 77.3684C33.9747 77.3569 34.0264 77.3551 34.0762 77.3648C34.1824 77.3856 34.1907 77.4368 34.1364 77.3633L32.5286 78.5528ZM40.9188 76.326L39.9885 76.6929L40.4664 77.9046L41.5136 77.1299L40.9188 76.326ZM36.7715 65.8107L36.1768 65.0068L35.5596 65.4634L35.8413 66.1776L36.7715 65.8107ZM40.4213 63.1105L41.3502 62.7403L40.8698 61.5347L39.8265 62.3066L40.4213 63.1105ZM41.2635 65.224L40.3345 65.5942L42.2629 65.1905L41.2635 65.224ZM43.1076 60.924L44.0373 60.5555L43.58 59.402L42.55 60.0939L43.1076 60.924ZM44.9453 65.5601L45.5401 66.364L46.1584 65.9066L45.875 65.1916L44.9453 65.5601ZM43.5296 71.011L44.459 70.6418L44.4568 70.6362L43.5296 71.011ZM44.5686 73.6258L45.1633 74.4298L45.7821 73.972L45.4979 73.2566L44.5686 73.6258ZM41.8491 75.9591L37.7018 65.4438L35.8413 66.1776L39.9885 76.6929L41.8491 75.9591ZM37.3663 66.6146L41.016 63.9144L39.8265 62.3066L36.1768 65.0068L37.3663 66.6146ZM39.4923 63.4806L40.3345 65.5942L42.1924 64.8539L41.3502 62.7403L39.4923 63.4806ZM42.2629 65.1905C42.2087 63.5755 42.6027 62.4679 43.6653 61.7541L42.55 60.0939C40.6876 61.345 40.1977 63.2798 40.264 65.2576L42.2629 65.1905ZM42.178 61.2925L44.0157 65.9286L45.875 65.1916L44.0373 60.5555L42.178 61.2925ZM44.3506 64.7562L43.9647 65.0417L45.1542 66.6495L45.5401 66.364L44.3506 64.7562ZM43.9647 65.0417C42.9516 65.7912 42.2836 66.7113 42.0682 67.8594C41.8597 68.9705 42.1036 70.1516 42.6025 71.3858L44.4568 70.6362C44.0267 69.5723 43.9253 68.807 44.0339 68.2282C44.1356 67.6863 44.447 67.1728 45.1542 66.6495L43.9647 65.0417ZM42.6003 71.3802L43.6392 73.9951L45.4979 73.2566L44.459 70.6418L42.6003 71.3802ZM43.9738 72.8219L40.3241 75.5221L41.5136 77.1299L45.1633 74.4298L43.9738 72.8219ZM48.0158 71.0755L47.0852 71.4414L47.5623 72.6549L48.6106 71.8794L48.0158 71.0755ZM42.4838 57.007L41.889 56.2031L41.2725 56.6592L41.5531 57.3729L42.4838 57.007ZM46.1335 54.3068L47.0647 53.9422L46.5885 52.7262L45.5387 53.5029L46.1335 54.3068ZM48.679 60.8076L47.7479 61.1722L49.6712 60.9323L48.679 60.8076ZM49.2065 56.611L48.6117 55.807L48.2677 56.0616L48.2143 56.4862L49.2065 56.611ZM53.3707 53.5301L54.3581 53.6885L54.7462 51.2686L52.776 52.7262L53.3707 53.5301ZM52.3115 60.1354L51.3241 59.977L51.2276 60.5786L51.718 60.9402L52.3115 60.1354ZM57.5663 64.0098L58.161 64.8137L59.2495 64.0085L58.1597 63.2049L57.5663 64.0098ZM53.7718 66.817L53.1431 67.5947L53.7446 68.0811L54.3666 67.621L53.7718 66.817ZM51.2332 64.7644L51.8619 63.9868L50.5027 62.8877L50.2442 64.6165L51.2332 64.7644ZM50.9613 66.5827L49.9723 66.4348L49.9327 66.6993L50.0305 66.9483L50.9613 66.5827ZM51.6656 68.3753L52.2603 69.1792L52.8767 68.7232L52.5963 68.0096L51.6656 68.3753ZM48.9464 70.7095L43.4144 56.641L41.5531 57.3729L47.0852 71.4414L48.9464 70.7095ZM43.0785 57.8109L46.7283 55.1107L45.5387 53.5029L41.889 56.2031L43.0785 57.8109ZM45.2023 54.6714L47.7479 61.1722L49.6102 60.443L47.0647 53.9422L45.2023 54.6714ZM49.6712 60.9323L50.1987 56.7357L48.2143 56.4862L47.6868 60.6829L49.6712 60.9323ZM49.8012 57.4149L53.9655 54.334L52.776 52.7262L48.6117 55.807L49.8012 57.4149ZM52.3834 53.3718L51.3241 59.977L53.2989 60.2937L54.3581 53.6885L52.3834 53.3718ZM51.718 60.9402L56.9728 64.8147L58.1597 63.2049L52.9049 59.3305L51.718 60.9402ZM56.9715 63.2059L53.1771 66.0131L54.3666 67.621L58.161 64.8137L56.9715 63.2059ZM54.4006 66.0394L51.8619 63.9868L50.6044 65.542L53.1431 67.5947L54.4006 66.0394ZM50.2442 64.6165L49.9723 66.4348L51.9503 66.7305L52.2222 64.9123L50.2442 64.6165ZM50.0305 66.9483L50.7348 68.741L52.5963 68.0096L51.892 66.217L50.0305 66.9483ZM51.0708 67.5714L47.4211 70.2716L48.6106 71.8794L52.2603 69.1792L51.0708 67.5714ZM59.0154 57.4645L58.4206 56.6606L57.56 57.2972L58.2538 58.1125L59.0154 57.4645ZM62.4473 55.6469L62.64 54.6656L61.7416 54.4892L61.4868 55.3686L62.4473 55.6469ZM65.5035 56.2469L66.4819 56.4536L66.6916 55.4611L65.6961 55.2656L65.5035 56.2469ZM64.6588 53.2893L65.2536 54.0932L65.8389 53.6601L65.6065 52.9701L64.6588 53.2893ZM58.051 55.6901L57.0972 55.9908L57.5187 57.3278L58.6457 56.494L58.051 55.6901ZM60.527 53.8583L61.1217 54.6622L61.6789 54.25L61.4885 53.5837L60.527 53.8583ZM58.2538 58.1125C58.6675 58.5987 59.2274 58.9616 59.9051 59.0369C60.5834 59.1123 61.2334 58.8835 61.7969 58.4667L60.6074 56.8589C60.3508 57.0487 60.1933 57.0566 60.1261 57.0492C60.0583 57.0416 59.9349 57.002 59.777 56.8164L58.2538 58.1125ZM61.7969 58.4667C62.6303 57.8501 63.1066 56.9649 63.4078 55.9251L61.4868 55.3686C61.256 56.1654 60.9637 56.5952 60.6074 56.8589L61.7969 58.4667ZM62.2547 56.6282L65.3108 57.2282L65.6961 55.2656L62.64 54.6656L62.2547 56.6282ZM64.5251 56.0402C64.2285 57.4439 63.5352 58.6733 62.2051 59.6574L63.3946 61.2652C65.1515 59.9654 66.0932 58.2935 66.4819 56.4536L64.5251 56.0402ZM62.2051 59.6574C61.0252 60.5303 59.9023 60.8303 58.9566 60.7337C58.0224 60.6383 57.1423 60.1449 56.44 59.1957L54.8322 60.3852C55.8309 61.7351 57.1982 62.5645 58.7533 62.7233C60.297 62.881 61.9054 62.3669 63.3946 61.2652L62.2051 59.6574ZM56.44 59.1957C54.7435 56.9025 54.7846 53.4047 57.6196 51.3072L56.4301 49.6994C52.5767 52.5503 52.5795 57.3403 54.8322 60.3852L56.44 59.1957ZM57.6196 51.3072C58.869 50.3829 59.8976 50.2622 60.7006 50.4567C61.5436 50.661 62.3078 51.2549 62.8989 52.0538L64.5067 50.8643C63.7298 49.8141 62.602 48.8596 61.1716 48.513C59.7012 48.1567 58.0748 48.4826 56.4301 49.6994L57.6196 51.3072ZM62.8989 52.0538C63.2625 52.5454 63.535 53.0858 63.7111 53.6085L65.6065 52.9701C65.3666 52.2581 64.9994 51.5303 64.5067 50.8643L62.8989 52.0538ZM64.0641 52.4854L58.4206 56.6606L59.6101 58.2684L65.2536 54.0932L64.0641 52.4854ZM58.6457 56.494L61.1217 54.6622L59.9322 53.0544L57.4562 54.8862L58.6457 56.494ZM61.4885 53.5837C61.4002 53.2744 61.2552 53.0267 61.1097 52.8301L59.5019 54.0196C59.5467 54.0802 59.5599 54.1135 59.5654 54.1329L61.4885 53.5837ZM61.1097 52.8301C60.4585 51.9498 59.1561 51.5885 58.0725 52.3902L59.2621 53.998C59.3079 53.9641 59.3401 53.9532 59.3564 53.9493C59.3731 53.9453 59.3863 53.9455 59.3984 53.9477C59.425 53.9525 59.4669 53.9722 59.5019 54.0196L61.1097 52.8301ZM58.0725 52.3902C57.1767 53.0529 56.5832 54.3603 57.0972 55.9908L59.0047 55.3894C58.7428 54.5588 59.0645 54.1441 59.2621 53.998L58.0725 52.3902ZM66.0236 52.4538L65.0938 52.8221L65.0966 52.8289L65.0994 52.8358L66.0236 52.4538ZM64.8194 49.4138L65.7491 49.0456L65.2702 47.8364L64.2247 48.6099L64.8194 49.4138ZM63.7904 50.1751L62.8598 50.541L63.3369 51.7546L64.3852 50.979L63.7904 50.1751ZM62.4645 46.8024L61.8697 45.9985L61.2532 46.4546L61.5338 47.1683L62.4645 46.8024ZM63.4935 46.0411L64.0882 46.845L64.7038 46.3896L64.4246 45.6765L63.4935 46.0411ZM62.4587 43.3983L61.864 42.5944L61.2484 43.0498L61.5276 43.7628L62.4587 43.3983ZM66.1085 40.6981L67.0397 40.3335L66.5636 39.1175L65.5137 39.8942L66.1085 40.6981ZM67.1432 43.3409L66.212 43.7055L66.6881 44.9215L67.738 44.1448L67.1432 43.3409ZM69.1691 41.8421L70.0997 41.4763L69.6226 40.2627L68.5743 41.0382L69.1691 41.8421ZM70.495 45.2149L71.0898 46.0188L71.7063 45.5627L71.4257 44.849L70.495 45.2149ZM68.4692 46.7137L67.8744 45.9098L67.2558 46.3674L67.5397 47.0827L68.4692 46.7137ZM69.3625 48.9636L70.2963 48.6056L70.2919 48.5945L69.3625 48.9636ZM71.8238 48.7597L72.7532 48.3906L72.1069 46.763L71.0337 48.1468L71.8238 48.7597ZM73.2366 52.317L74.0124 52.948L74.3825 52.493L74.166 51.9479L73.2366 52.317ZM70.9832 53.1383C70.0332 53.8411 69.3449 54.0625 68.8676 54.0487C68.4515 54.0366 68.0189 53.8394 67.5546 53.2118L65.9468 54.4013C66.672 55.3816 67.6241 56.0134 68.8096 56.0478C69.9341 56.0805 71.0647 55.5658 72.1727 54.7461L70.9832 53.1383ZM67.5546 53.2118C67.3476 52.932 67.1511 52.5638 66.9477 52.0718L65.0994 52.8358C65.337 53.4107 65.6067 53.9416 65.9468 54.4013L67.5546 53.2118ZM66.9533 52.0855L65.7491 49.0456L63.8897 49.7821L65.0938 52.8221L66.9533 52.0855ZM64.2247 48.6099L63.1957 49.3712L64.3852 50.979L65.4142 50.2178L64.2247 48.6099ZM64.7211 49.8092L63.3951 46.4365L61.5338 47.1683L62.8598 50.541L64.7211 49.8092ZM63.0592 47.6063L64.0882 46.845L62.8987 45.2372L61.8697 45.9985L63.0592 47.6063ZM64.4246 45.6765L63.3899 43.0337L61.5276 43.7628L62.5623 46.4057L64.4246 45.6765ZM63.0535 44.2022L66.7032 41.502L65.5137 39.8942L61.864 42.5944L63.0535 44.2022ZM65.1773 41.0627L66.212 43.7055L68.0744 42.9763L67.0397 40.3335L65.1773 41.0627ZM67.738 44.1448L69.7638 42.6461L68.5743 41.0382L66.5485 42.537L67.738 44.1448ZM68.2384 42.208L69.5644 45.5808L71.4257 44.849L70.0997 41.4763L68.2384 42.208ZM69.9003 44.411L67.8744 45.9098L69.0639 47.5176L71.0898 46.0188L69.9003 44.411ZM67.5397 47.0827L68.433 49.3326L70.2919 48.5945L69.3986 46.3446L67.5397 47.0827ZM68.4287 49.3215C68.5807 49.7179 68.7417 50.0412 68.9456 50.3169L70.5534 49.1274C70.4957 49.0493 70.4117 48.907 70.2962 48.6057L68.4287 49.3215ZM68.9456 50.3169C69.2099 50.6741 69.6296 50.995 70.2096 51.0109C70.7255 51.0251 71.1674 50.7878 71.5002 50.5416L70.3107 48.9338C70.2293 48.9939 70.1828 49.0161 70.1689 49.0218C70.1567 49.0267 70.1926 49.0097 70.2647 49.0117C70.3439 49.0139 70.4233 49.038 70.4872 49.0763C70.5442 49.1104 70.5629 49.1401 70.5534 49.1274L68.9456 50.3169ZM71.5002 50.5416C71.9031 50.2435 72.1924 49.9162 72.614 49.3725L71.0337 48.1468C70.6404 48.6538 70.4866 48.8036 70.3107 48.9338L71.5002 50.5416ZM70.8945 49.1288L72.3072 52.6861L74.166 51.9479L72.7532 48.3906L70.8945 49.1288ZM72.4608 51.686C71.9899 52.265 71.5094 52.749 70.9832 53.1383L72.1727 54.7461C72.8684 54.2313 73.4671 53.6184 74.0124 52.948L72.4608 51.686ZM69.7235 40.4617L68.7927 40.8272L69.2695 42.0415L70.3182 41.2656L69.7235 40.4617ZM68.6257 37.6665L68.031 36.8626L67.4147 37.3185L67.6949 38.032L68.6257 37.6665ZM72.4041 34.8711L73.3349 34.5056L72.8581 33.2914L71.8094 34.0672L72.4041 34.8711ZM73.5019 37.6664L74.0966 38.4703L74.7129 38.0144L74.4326 37.3008L73.5019 37.6664ZM74.2221 51.6874L73.2919 52.0543L73.7698 53.266L74.8169 52.4913L74.2221 51.6874ZM70.0748 41.172L69.4801 40.3681L68.8629 40.8247L69.1446 41.5389L70.0748 41.172ZM73.7246 38.4718L74.6548 38.105L74.177 36.8933L73.1298 37.6679L73.7246 38.4718ZM77.8719 48.9872L78.4666 49.7911L79.0838 49.3345L78.8021 48.6203L77.8719 48.9872ZM70.6543 40.0962L69.5565 37.3009L67.6949 38.032L68.7927 40.8272L70.6543 40.0962ZM69.2205 38.4704L72.9989 35.675L71.8094 34.0672L68.031 36.8626L69.2205 38.4704ZM71.4733 35.2367L72.5711 38.0319L74.4326 37.3008L73.3349 34.5056L71.4733 35.2367ZM72.9071 36.8625L69.1287 39.6578L70.3182 41.2656L74.0966 38.4703L72.9071 36.8625ZM75.1524 51.3205L71.0051 40.8051L69.1446 41.5389L73.2919 52.0543L75.1524 51.3205ZM70.6696 41.9759L74.3193 39.2758L73.1298 37.6679L69.4801 40.3681L70.6696 41.9759ZM72.7943 38.8387L76.9416 49.3541L78.8021 48.6203L74.6548 38.105L72.7943 38.8387ZM77.2771 48.1833L73.6274 50.8835L74.8169 52.4913L78.4666 49.7911L77.2771 48.1833ZM79.026 48.1334L78.0957 48.5003L78.5736 49.712L79.6207 48.9373L79.026 48.1334ZM74.8787 37.618L74.2839 36.8141L73.6668 37.2707L73.9484 37.9849L74.8787 37.618ZM78.5284 34.9178L79.4578 34.5486L78.9781 33.3413L77.9337 34.1139L78.5284 34.9178ZM79.0479 36.2253L78.1186 36.5945L80.0467 36.274L79.0479 36.2253ZM86.0851 35.4473L85.1531 35.8096L85.1551 35.8148L86.0851 35.4473ZM88.3674 41.2223L88.9622 42.0263L89.5798 41.5693L89.2974 40.8548L88.3674 41.2223ZM84.7177 43.9225L83.7871 44.2886L84.2643 45.5019L85.3124 44.7264L84.7177 43.9225ZM82.6559 38.6809L81.7195 39.0319L81.7224 39.0395L81.7253 39.047L82.6559 38.6809ZM80.614 40.1916L79.6824 40.5552L79.6834 40.5576L80.614 40.1916ZM82.6757 45.4332L83.2705 46.2371L83.8871 45.7809L83.6063 45.0672L82.6757 45.4332ZM79.9562 47.7665L75.809 37.2511L73.9484 37.9849L78.0957 48.5003L79.9562 47.7665ZM75.4734 38.4219L79.1232 35.7217L77.9337 34.1139L74.2839 36.8141L75.4734 38.4219ZM77.5991 35.2871L78.1186 36.5945L79.9772 35.856L79.4578 34.5486L77.5991 35.2871ZM80.0467 36.274C80.091 35.3668 80.4996 34.38 81.2999 33.7879L80.1104 32.1801C78.724 33.2058 78.1157 34.8124 78.0491 36.1765L80.0467 36.274ZM81.2999 33.7879C81.9224 33.3274 82.4626 33.2318 82.9082 33.319C83.3705 33.4096 83.894 33.7298 84.3959 34.4082L86.0037 33.2187C85.2924 32.2572 84.3724 31.5679 83.2927 31.3563C82.1962 31.1415 81.0957 31.4512 80.1104 32.1801L81.2999 33.7879ZM84.3959 34.4082C84.6728 34.7825 84.9353 35.2494 85.1531 35.8096L87.0172 35.085C86.7393 34.3699 86.393 33.7448 86.0037 33.2187L84.3959 34.4082ZM85.1551 35.8148L87.4374 41.5899L89.2974 40.8548L87.0152 35.0798L85.1551 35.8148ZM87.7726 40.4184L84.1229 43.1186L85.3124 44.7264L88.9622 42.0263L87.7726 40.4184ZM85.6483 43.5565L83.5865 38.3149L81.7253 39.047L83.7871 44.2886L85.6483 43.5565ZM83.5923 38.3299C83.4576 37.9706 83.2549 37.6075 83.0686 37.3556L81.4608 38.5451C81.5361 38.6469 81.6498 38.8459 81.7195 39.0319L83.5923 38.3299ZM83.0686 37.3556C82.8001 36.9927 82.3966 36.6445 81.8412 36.5439C81.271 36.4406 80.7472 36.635 80.3272 36.9456L81.5167 38.5535C81.5735 38.5114 81.5971 38.5069 81.5863 38.51C81.5806 38.5117 81.5675 38.5147 81.5483 38.5159C81.5289 38.517 81.5072 38.516 81.4847 38.5119C81.4623 38.5078 81.4434 38.5016 81.429 38.4953C81.4148 38.4891 81.407 38.4838 81.4055 38.4827C81.4035 38.4814 81.4245 38.4961 81.4608 38.5451L83.0686 37.3556ZM80.3272 36.9456C79.7572 37.3674 79.409 37.9391 79.3354 38.6398C79.2685 39.2768 79.4389 39.9314 79.6824 40.5552L81.5455 39.828C81.3445 39.3128 81.3071 39.0141 81.3245 38.8486C81.3352 38.7469 81.3632 38.667 81.5167 38.5535L80.3272 36.9456ZM79.6834 40.5576L81.7451 45.7992L83.6063 45.0672L81.5446 39.8255L79.6834 40.5576ZM82.081 44.6293L78.4312 47.3295L79.6207 48.9373L83.2705 46.2371L82.081 44.6293ZM90.0191 42.1897L89.0198 42.2282L89.0604 43.2804L90.1092 43.1856L90.0191 42.1897ZM89.896 38.9968L89.7768 38.0039L88.8612 38.1138L88.8967 39.0353L89.896 38.9968ZM94.8818 35.6814L95.8708 35.8293L95.8708 35.8293L94.8818 35.6814ZM94.609 33.9675L95.5357 33.5917L95.5332 33.5855L94.609 33.9675ZM94.546 33.8151L95.4702 33.4331L94.1862 30.327L93.5633 33.6298L94.546 33.8151ZM91.7311 26.9166L91.4013 27.8606L93.4618 28.5804L92.6614 26.5498L91.7311 26.9166ZM91.192 25.549L90.5973 24.7451L89.9802 25.2016L90.2617 25.9157L91.192 25.549ZM94.8418 22.8488L95.7723 22.4825L95.2948 21.2697L94.247 22.0449L94.8418 22.8488ZM98.0958 31.1143L97.1653 31.4806L97.1655 31.4811L98.0958 31.1143ZM98.8235 35.4271L99.8125 35.575L99.8126 35.575L98.8235 35.4271ZM94.9029 39.1736C93.424 40.2677 91.3337 41.0667 89.9291 41.1937L90.1092 43.1856C91.9225 43.0217 94.3557 42.0663 96.0925 40.7814L94.9029 39.1736ZM91.0184 42.1511L90.8953 38.9583L88.8967 39.0353L89.0198 42.2282L91.0184 42.1511ZM90.0152 39.9897C91.673 39.7907 93.1687 39.1381 94.176 38.3928L92.9865 36.785C92.2574 37.3244 91.0894 37.8464 89.7768 38.0039L90.0152 39.9897ZM94.176 38.3928C95.1263 37.6898 95.712 36.891 95.8708 35.8293L93.8928 35.5335C93.8341 35.9263 93.6441 36.2985 92.9865 36.785L94.176 38.3928ZM95.8708 35.8293C95.9745 35.136 95.8572 34.3845 95.5357 33.5917L93.6823 34.3433C93.9041 34.8902 93.9313 35.2757 93.8928 35.5335L95.8708 35.8293ZM95.5332 33.5855L95.4702 33.4331L93.6218 34.1971L93.6849 34.3496L95.5332 33.5855ZM93.5633 33.6298C93.4006 34.4927 92.9652 35.2832 92.1002 35.9232L93.2897 37.531C94.5791 36.577 95.277 35.3349 95.5287 34.0004L93.5633 33.6298ZM92.1002 35.9232C90.9863 36.7472 89.3394 36.7649 88.2839 35.3382L86.6761 36.5277C88.4992 38.9919 91.4451 38.8956 93.2897 37.531L92.1002 35.9232ZM88.2839 35.3382C86.5985 33.0601 86.5229 29.9487 88.6856 28.3487L87.4961 26.7408C84.0958 29.2565 84.6264 33.7572 86.6761 36.5277L88.2839 35.3382ZM88.6856 28.3487C89.5934 27.6771 90.6402 27.5947 91.4013 27.8606L92.0609 25.9725C90.6749 25.4883 88.9358 25.6757 87.4961 26.7408L88.6856 28.3487ZM92.6614 26.5498L92.1224 25.1823L90.2617 25.9157L90.8008 27.2833L92.6614 26.5498ZM91.7868 26.3529L95.4365 23.6527L94.247 22.0449L90.5973 24.7451L91.7868 26.3529ZM93.9113 23.2151L97.1653 31.4806L99.0262 30.748L95.7723 22.4825L93.9113 23.2151ZM97.1655 31.4811C97.7878 33.0592 97.9902 34.2386 97.8345 35.2792L99.8126 35.575C100.042 34.0421 99.7101 32.482 99.026 30.7474L97.1655 31.4811ZM97.8345 35.2792C97.6482 36.5253 96.8631 37.7234 94.9029 39.1736L96.0925 40.7814C98.2483 39.1864 99.5136 37.5739 99.8125 35.575L97.8345 35.2792ZM93.2181 33.8024C94.7891 32.6401 94.5878 30.6434 93.7343 29.4897L92.1265 30.6792C92.3104 30.9278 92.4053 31.2431 92.3888 31.5261C92.3735 31.7879 92.2669 32.0183 92.0286 32.1946L93.2181 33.8024ZM93.7343 29.4897C92.9635 28.4478 91.4897 28.0903 90.2614 28.999L91.4509 30.6068C91.6246 30.4783 91.755 30.4712 91.836 30.4849C91.9281 30.5005 92.0365 30.5576 92.1265 30.6792L93.7343 29.4897ZM90.2614 28.999C88.7156 30.1426 88.8598 32.115 89.7571 33.3278L91.3649 32.1383C90.9299 31.5503 91.0352 30.9144 91.4509 30.6068L90.2614 28.999ZM89.7571 33.3278C90.132 33.8346 90.6832 34.1957 91.3253 34.2981C91.9763 34.4018 92.6434 34.2275 93.2181 33.8024L92.0286 32.1946C91.8475 32.3286 91.7155 32.335 91.6401 32.323C91.5561 32.3096 91.4539 32.2585 91.3649 32.1383L89.7571 33.3278ZM43.9792 101.428L43.0485 101.794L43.5256 103.008L44.5739 102.232L43.9792 101.428ZM38.6753 87.9372L38.0806 87.1333L37.4641 87.5894L37.7447 88.303L38.6753 87.9372ZM42.1965 85.3322L42.6667 84.4496L42.1094 84.1527L41.6017 84.5282L42.1965 85.3322ZM48.7258 88.811L48.2556 89.6935L50.6455 90.9668L49.6568 88.4458L48.7258 88.811ZM46.1999 82.3703L45.6052 81.5664L44.9892 82.0221L45.269 82.7354L46.1999 82.3703ZM49.9301 79.6106L50.8607 79.2448L50.3836 78.0312L49.3353 78.8067L49.9301 79.6106ZM55.2339 93.1016L55.8287 93.9055L56.4451 93.4494L56.1646 92.7358L55.2339 93.1016ZM51.8896 95.5758L51.4201 96.4587L51.9772 96.755L52.4844 96.3797L51.8896 95.5758ZM45.0812 91.9552L45.5507 91.0723L43.165 89.8036L44.15 92.3197L45.0812 91.9552ZM47.7093 98.6685L48.3041 99.4724L48.9196 99.017L48.6405 98.304L47.7093 98.6685ZM44.9098 101.062L39.606 87.5713L37.7447 88.303L43.0485 101.794L44.9098 101.062ZM39.2701 88.7411L42.7912 86.1361L41.6017 84.5282L38.0806 87.1333L39.2701 88.7411ZM41.7262 86.2147L48.2556 89.6935L49.1961 87.9284L42.6667 84.4496L41.7262 86.2147ZM49.6568 88.4458L47.1309 82.0052L45.269 82.7354L47.7949 89.1761L49.6568 88.4458ZM46.7947 83.1742L50.5248 80.4145L49.3353 78.8067L45.6052 81.5664L46.7947 83.1742ZM48.9994 79.9765L54.3032 93.4675L56.1646 92.7358L50.8607 79.2448L48.9994 79.9765ZM54.6391 92.2977L51.2949 94.7719L52.4844 96.3797L55.8287 93.9055L54.6391 92.2977ZM52.3592 94.6929L45.5507 91.0723L44.6117 92.8381L51.4201 96.4587L52.3592 94.6929ZM44.15 92.3197L46.7781 99.0331L48.6405 98.304L46.0124 91.5906L44.15 92.3197ZM47.1146 97.8646L43.3844 100.624L44.5739 102.232L48.3041 99.4724L47.1146 97.8646ZM61.2631 87.7206C60.0596 88.611 58.8871 88.8777 57.8861 88.7391C56.8826 88.6001 55.9519 88.0405 55.2511 87.0932L53.6433 88.2827C54.6315 89.6185 56.0235 90.5002 57.6117 90.7202C59.2024 90.9405 60.8907 90.4839 62.4526 89.3284L61.2631 87.7206ZM55.2511 87.0932C53.5871 84.844 53.9141 81.4149 56.5169 79.4893L55.3274 77.8815C51.8204 80.476 51.3344 85.1618 53.6433 88.2827L55.2511 87.0932ZM56.5169 79.4893C57.7204 78.5989 58.8929 78.3322 59.8939 78.4708C60.8974 78.6098 61.8281 79.1694 62.5289 80.1167L64.1367 78.9272C63.1485 77.5914 61.7565 76.7097 60.1683 76.4897C58.5776 76.2694 56.8893 76.726 55.3274 77.8815L56.5169 79.4893ZM62.5289 80.1167C64.1929 82.3659 63.8659 85.795 61.2631 87.7206L62.4526 89.3284C65.9596 86.7339 66.4456 82.0481 64.1367 78.9272L62.5289 80.1167ZM60.4771 86.1874C62.0129 85.0512 61.7698 82.9241 60.8149 81.6335L59.2071 82.823C59.7986 83.6225 59.5848 84.3597 59.2876 84.5796L60.4771 86.1874ZM60.8149 81.6335C60.4171 81.0958 59.8609 80.7017 59.2083 80.5727C58.5444 80.4415 57.8691 80.6036 57.3029 81.0225L58.4924 82.6303C58.6336 82.5258 58.7414 82.5191 58.8205 82.5347C58.911 82.5526 59.0578 82.6211 59.2071 82.823L60.8149 81.6335ZM57.3029 81.0225C55.7671 82.1587 56.0102 84.2858 56.9651 85.5764L58.5729 84.3869C57.9814 83.5874 58.1952 82.8502 58.4924 82.6303L57.3029 81.0225ZM56.9651 85.5764C57.3629 86.1141 57.919 86.5082 58.5717 86.6372C59.2356 86.7684 59.9109 86.6063 60.4771 86.1874L59.2876 84.5796C59.1464 84.684 59.0386 84.6908 58.9595 84.6752C58.869 84.6573 58.7222 84.5888 58.5729 84.3869L56.9651 85.5764ZM68.6855 83.2493L67.9681 83.9459L68.5773 84.5733L69.2803 84.0532L68.6855 83.2493ZM60.9535 75.2865L60.3587 74.4826L59.4394 75.1627L60.236 75.9832L60.9535 75.2865ZM64.6997 72.515L65.4699 71.8772L64.866 71.148L64.1049 71.7111L64.6997 72.515ZM68.2001 76.742L67.4299 77.3798L69.534 79.9206L69.1948 76.6392L68.2001 76.742ZM67.5455 70.4096L66.9508 69.6056L66.4922 69.9449L66.5508 70.5124L67.5455 70.4096ZM71.4043 67.5547L72.4032 67.5075L72.3147 65.6373L70.8095 66.7508L71.4043 67.5547ZM72.0298 80.7751L72.6245 81.579L73.0539 81.2614L73.0287 80.7279L72.0298 80.7751ZM69.403 82.5527L61.6709 74.5899L60.236 75.9832L67.9681 83.9459L69.403 82.5527ZM61.5482 76.0904L65.2944 73.3189L64.1049 71.7111L60.3587 74.4826L61.5482 76.0904ZM63.9295 73.1528L67.4299 77.3798L68.9703 76.1042L65.4699 71.8772L63.9295 73.1528ZM69.1948 76.6392L68.5402 70.3067L66.5508 70.5124L67.2054 76.8448L69.1948 76.6392ZM68.1403 71.2135L71.999 68.3587L70.8095 66.7508L66.9508 69.6056L68.1403 71.2135ZM70.4054 67.602L71.0309 80.8224L73.0287 80.7279L72.4032 67.5075L70.4054 67.602ZM71.435 79.9712L68.0908 82.4454L69.2803 84.0532L72.6245 81.579L71.435 79.9712ZM71.5737 66.4591L70.6429 66.8247L71.1198 68.0389L72.1685 67.263L71.5737 66.4591ZM70.476 63.6639L69.8812 62.86L69.265 63.3159L69.5452 64.0294L70.476 63.6639ZM74.2544 60.8686L75.1852 60.503L74.7083 59.2888L73.6596 60.0647L74.2544 60.8686ZM75.3521 63.6638L75.9468 64.4677L76.5631 64.0118L76.2829 63.2983L75.3521 63.6638ZM76.0724 77.6848L75.1421 78.0517L75.62 79.2634L76.6671 78.4887L76.0724 77.6848ZM71.9251 67.1695L71.3303 66.3655L70.7131 66.8222L70.9948 67.5364L71.9251 67.1695ZM75.5748 64.4693L76.5051 64.1024L76.0272 62.8907L74.9801 63.6654L75.5748 64.4693ZM79.7221 74.9846L80.3169 75.7886L80.934 75.3319L80.6524 74.6177L79.7221 74.9846ZM72.5045 66.0936L71.4068 63.2984L69.5452 64.0294L70.6429 66.8247L72.5045 66.0936ZM71.0707 64.4678L74.8491 61.6725L73.6596 60.0647L69.8812 62.86L71.0707 64.4678ZM73.3236 61.2341L74.4213 64.0293L76.2829 63.2983L75.1852 60.503L73.3236 61.2341ZM74.7573 62.8599L70.979 65.6552L72.1685 67.263L75.9468 64.4677L74.7573 62.8599ZM77.0026 77.3179L72.8553 66.8026L70.9948 67.5364L75.1421 78.0517L77.0026 77.3179ZM72.5198 67.9734L76.1696 65.2732L74.9801 63.6654L71.3303 66.3655L72.5198 67.9734ZM74.6446 64.8362L78.7918 75.3515L80.6524 74.6177L76.5051 64.1024L74.6446 64.8362ZM79.1273 74.1807L75.4776 76.8809L76.6671 78.4887L80.3169 75.7886L79.1273 74.1807ZM86.405 60.5867L87.2557 61.1122L87.6954 60.4004L87.0724 59.842L86.405 60.5867ZM84.3673 63.8854L83.719 64.6468L84.6059 65.402L85.2181 64.411L84.3673 63.8854ZM84.9353 65.7292L84.8863 64.7304L84.0083 64.7734L83.9384 65.6497L84.9353 65.7292ZM88.6085 65.5492L89.608 65.5178L89.5761 64.5006L88.5596 64.5504L88.6085 65.5492ZM85.4001 69.8883C84.3794 70.6435 83.3288 70.9563 82.4063 70.8824C81.5045 70.8102 80.6258 70.3624 79.9112 69.3964L78.3034 70.5859C79.3373 71.9834 80.7287 72.7545 82.2466 72.876C83.7439 72.996 85.2629 72.4777 86.5896 71.4961L85.4001 69.8883ZM79.9112 69.3964C77.9929 66.8036 78.475 63.269 81.0558 61.3597L79.8663 59.7519C76.3695 62.3389 75.7491 67.1333 78.3034 70.5859L79.9112 69.3964ZM81.0558 61.3597C82.8211 60.0537 84.5621 60.2778 85.7375 61.3313L87.0724 59.842C85.1459 58.1152 82.3456 57.9176 79.8663 59.7519L81.0558 61.3597ZM85.5542 60.0612L83.5166 63.3599L85.2181 64.411L87.2557 61.1122L85.5542 60.0612ZM85.0156 63.124C84.5895 62.7612 84.0849 62.4727 83.5092 62.3995C82.9041 62.3225 82.3407 62.4989 81.862 62.853L83.0515 64.4608C83.1678 64.3748 83.2235 64.3792 83.2569 64.3835C83.3196 64.3915 83.4729 64.4372 83.719 64.6468L85.0156 63.124ZM81.862 62.853C81.0203 63.4758 80.7098 64.4177 80.7192 65.2894C80.7285 66.1493 81.0411 67.0229 81.5502 67.7111L83.1581 66.5216C82.8821 66.1486 82.7235 65.679 82.7191 65.2679C82.7148 64.8684 82.8482 64.6113 83.0515 64.4608L81.862 62.853ZM81.5502 67.7111C81.9211 68.2124 82.4363 68.5708 83.0417 68.6785C83.6513 68.787 84.2527 68.6225 84.7427 68.26L83.5532 66.6522C83.4644 66.7178 83.4127 66.7131 83.392 66.7094C83.3671 66.705 83.2748 66.6794 83.1581 66.5216L81.5502 67.7111ZM84.7427 68.26C85.586 67.6361 85.8554 66.7705 85.9321 65.8087L83.9384 65.6497C83.8844 66.327 83.7389 66.5148 83.5532 66.6522L84.7427 68.26ZM84.9842 66.728L88.6575 66.548L88.5596 64.5504L84.8863 64.7304L84.9842 66.728ZM87.609 65.5806C87.6587 67.1611 87.1365 68.6037 85.4001 69.8883L86.5896 71.4961C88.8727 69.807 89.6776 67.7302 89.608 65.5178L87.609 65.5806ZM91.5146 60.787L90.9199 59.9831L90.0593 60.6197L90.753 61.435L91.5146 60.787ZM94.9466 58.9694L95.1393 57.9881L94.2408 57.8117L93.9861 58.6911L94.9466 58.9694ZM98.0027 59.5694L98.9811 59.7761L99.1908 58.7836L98.1954 58.5881L98.0027 59.5694ZM97.1581 56.6118L97.7528 57.4157L98.3382 56.9826L98.1058 56.2926L97.1581 56.6118ZM90.5502 59.0126L89.5965 59.3133L90.018 60.6503L91.145 59.8165L90.5502 59.0126ZM93.0263 57.1808L93.621 57.9847L94.1781 57.5725L93.9878 56.9062L93.0263 57.1808ZM90.753 61.435C91.1667 61.9212 91.7267 62.2841 92.4044 62.3594C93.0827 62.4348 93.7327 62.206 94.2961 61.7892L93.1066 60.1814C92.8501 60.3712 92.6926 60.3791 92.6254 60.3717C92.5576 60.3641 92.4341 60.3245 92.2762 60.1389L90.753 61.435ZM94.2961 61.7892C95.1296 61.1726 95.6059 60.2874 95.9071 59.2476L93.9861 58.6911C93.7553 59.4879 93.463 59.9177 93.1066 60.1814L94.2961 61.7892ZM94.7539 59.9507L97.8101 60.5507L98.1954 58.5881L95.1393 57.9881L94.7539 59.9507ZM97.0243 59.3627C96.7278 60.7664 96.0345 61.9958 94.7044 62.9799L95.8939 64.5877C97.6507 63.2879 98.5925 61.616 98.9811 59.7761L97.0243 59.3627ZM94.7044 62.9799C93.5245 63.8528 92.4016 64.1528 91.4559 64.0562C90.5216 63.9608 89.6415 63.4674 88.9392 62.5182L87.3314 63.7077C88.3301 65.0576 89.6974 65.887 91.2526 66.0458C92.7963 66.2035 94.4047 65.6894 95.8939 64.5877L94.7044 62.9799ZM88.9392 62.5182C87.2427 60.225 87.2838 56.7272 90.1189 54.6297L88.9294 53.0219C85.0759 55.8728 85.0788 60.6628 87.3314 63.7077L88.9392 62.5182ZM90.1189 54.6297C91.3683 53.7054 92.3968 53.5847 93.1999 53.7792C94.0429 53.9835 94.8071 54.5774 95.3981 55.3763L97.0059 54.1868C96.229 53.1366 95.1013 52.1821 93.6709 51.8355C92.2005 51.4792 90.574 51.8051 88.9294 53.0219L90.1189 54.6297ZM95.3981 55.3763C95.7618 55.8679 96.0343 56.4083 96.2104 56.931L98.1058 56.2926C97.8659 55.5806 97.4987 54.8528 97.0059 54.1868L95.3981 55.3763ZM96.5633 55.8079L90.9199 59.9831L92.1094 61.5909L97.7528 57.4157L96.5633 55.8079ZM91.145 59.8165L93.621 57.9847L92.4315 56.3769L89.9555 58.2087L91.145 59.8165ZM93.9878 56.9062C93.8995 56.5969 93.7545 56.3492 93.609 56.1526L92.0012 57.3421C92.046 57.4027 92.0592 57.436 92.0647 57.4554L93.9878 56.9062ZM93.609 56.1526C92.9577 55.2723 91.6554 54.911 90.5718 55.7127L91.7613 57.3205C91.8072 57.2866 91.8394 57.2757 91.8556 57.2718C91.8723 57.2678 91.8855 57.268 91.8977 57.2702C91.9243 57.275 91.9661 57.2947 92.0012 57.3421L93.609 56.1526ZM90.5718 55.7127C89.676 56.3754 89.0825 57.6828 89.5965 59.3133L91.5039 58.7119C91.2421 57.8813 91.5638 57.4666 91.7613 57.3205L90.5718 55.7127Z" fill="#E3C906" mask="url(#path-16-outside-1_208_434)"/>
</svg>
