<svg width="180" height="152" viewBox="0 0 180 152" fill="none" xmlns="http://www.w3.org/2000/svg">
<path d="M104.073 151.3C145.825 151.3 179.673 117.453 179.673 75.7001C179.673 33.9474 145.825 0.100098 104.073 0.100098C62.3199 0.100098 28.4727 33.9474 28.4727 75.7001C28.4727 117.453 62.3199 151.3 104.073 151.3Z" fill="#F8D14F"/>
<path d="M166.273 63.3001L127.773 57.6L126.473 38.1C125.973 31.3 121.373 25.4 114.773 23.5C111.373 22.5 107.773 24.7001 107.173 28.3001L105.373 51.5C104.773 55.1 100.573 61.9 98.0734 64.6L88.0734 74.9C74.8734 83.4 48.7734 100.2 35.7734 108.5C47.9734 133.9 73.9734 151.4 103.973 151.4C104.273 151.4 104.573 151.4 104.873 151.4L125.073 132.7C129.273 131.3 132.773 130.2 136.373 128.4L162.373 118.6L161.873 101L160.373 80.7001L166.273 63.3001Z" fill="#E28B74"/>
<path d="M125.073 132.6L97.373 112.5L106.273 150.4L125.073 132.6Z" fill="#C16452"/>
<path d="M127.974 60.2002C127.974 60.2002 128.474 95.4002 116.674 102.1C132.974 107.7 137.474 113.4 137.474 113.4L127.974 60.2002Z" fill="#C16452"/>
<path d="M152.474 111C136.574 97.7999 112.574 104.3 112.374 104.3L112.074 103.3C112.274 103.2 136.774 96.5999 153.074 110.2L152.474 111Z" fill="#263E65"/>
<path d="M88.6741 96.2002C82.9741 86.5002 87.4741 75.1002 87.6741 74.7002L88.5741 75.1002C88.5741 75.2002 84.0741 86.5002 89.5741 95.8002L88.6741 96.2002Z" fill="#263E65"/>
<path d="M130.273 60.2001C138.873 59.4001 156.573 58.4001 164.873 62.5001C166.073 63.1001 166.873 64.3001 167.173 65.6001C167.673 68.5001 167.273 71.2001 166.673 73.1001C166.173 74.9001 164.573 76.1001 162.773 76.1001L130.673 75.3001C127.573 75.2001 125.173 72.5001 125.273 69.3001L125.373 65.9001C125.373 62.9001 127.473 60.5001 130.273 60.2001Z" fill="#ED9583"/>
<path d="M127.773 78.7003L127.073 83.3003C126.573 86.5003 128.773 89.5003 131.773 89.7003L159.773 92.2003C162.373 92.4003 164.673 90.3003 164.773 87.6003L165.173 81.3003C165.373 78.5003 163.373 76.2003 160.773 76.0003L133.173 74.3003C130.573 74.0003 128.273 76.0003 127.773 78.7003Z" fill="#ED9583"/>
<path d="M130.672 87.3999L126.972 91.9999C126.072 93.0999 125.672 94.4999 125.672 95.9999L125.872 99.9999C126.072 103.1 128.372 105.5 131.272 105.5H159.772C162.472 105.5 164.672 103.2 164.672 100.3V94.4999C164.672 91.6999 162.572 89.3999 159.972 89.2999L130.672 87.3999Z" fill="#ED9583"/>
<path d="M130.373 102.6L128.873 103.7C127.273 104.8 126.273 106.7 126.173 108.8L126.073 112.3C125.973 115.9 128.573 118.8 131.973 118.9C141.073 119.2 155.173 119.1 161.973 118.8C165.173 118.6 164.773 111.1 163.573 106.9C162.973 104.7 160.973 103.2 158.873 103.1L130.373 102.6Z" fill="#ED9583"/>
<path d="M160.672 76.4C150.372 75.6 130.772 75.8001 130.572 75.8001V74.8001C130.772 74.8001 150.372 74.6 160.672 75.4V76.4Z" fill="#263E65"/>
<path d="M131.873 90.2001L131.773 89.2001C131.873 89.2001 146.773 87.6001 160.173 88.7001L160.073 89.7001C146.773 88.6001 131.973 90.2001 131.873 90.2001Z" fill="#263E65"/>
<path d="M158.772 104.7C148.672 103.1 132.272 104.2 132.172 104.2L132.072 103.2C132.272 103.2 148.772 102.2 158.972 103.7L158.772 104.7Z" fill="#263E65"/>
<path opacity="0.8" d="M128.773 63.6003L129.173 70.8003C129.173 70.8003 133.073 70.6003 132.873 66.8003C132.673 63.1003 128.773 63.6003 128.773 63.6003Z" fill="white"/>
<path opacity="0.8" d="M130.273 78.6999L130.673 85.8999C130.673 85.8999 134.573 85.6999 134.373 81.8999C134.173 78.1999 130.273 78.6999 130.273 78.6999Z" fill="white"/>
<path opacity="0.8" d="M129.172 93.6L129.572 100.8C129.572 100.8 133.472 100.6 133.272 96.8C133.072 93 129.172 93.6 129.172 93.6Z" fill="white"/>
<path opacity="0.8" d="M129.572 108L129.972 115.2C129.972 115.2 133.872 115 133.672 111.2C133.472 107.4 129.572 108 129.572 108Z" fill="white"/>
<mask id="path-18-outside-1_208_465" maskUnits="userSpaceOnUse" x="6.60771" y="16.3922" width="109.004" height="95.2001" fill="black">
<rect fill="white" x="6.60771" y="16.3922" width="109.004" height="95.2001"/>
<path d="M22.6315 87.8571C19.4802 90.1885 15.878 89.893 13.6418 86.8703C11.3698 83.7993 10.9737 78.3206 15.8293 74.7283C18.2571 72.9322 20.929 72.9456 22.8703 74.5944L20.5924 78.5436C19.6732 77.8055 18.681 77.843 17.8288 78.4735C16.1406 79.7225 16.1892 82.0748 17.3311 83.6183C18.247 84.8563 19.5303 84.9767 20.5271 84.2393C21.3954 83.5969 21.7935 82.6555 21.8454 81.4478L25.9727 81.5788C25.9415 83.8907 25.0272 86.0847 22.6315 87.8571ZM30.5654 81.9127C29.2149 82.9119 27.5638 82.7651 26.4457 81.2538C25.0777 79.4048 25.6327 77.1284 28.1087 75.2965C28.7679 74.8088 29.5146 74.4057 30.3165 74.1109L30.2773 73.9907C30.2262 73.8543 30.1275 73.6537 30.0204 73.509C29.616 72.9623 28.9559 72.978 28.0394 73.656C27.2355 74.2508 26.3576 75.1491 25.9293 75.8143L23.6151 73.6951C24.3496 72.7039 25.6175 71.4921 26.8877 70.5524C29.7979 68.3994 31.9692 68.5096 33.2657 70.2622C33.5393 70.632 33.8004 71.0857 34.009 71.603L36.2912 77.3781L32.6415 80.0783L32.2284 79.0156C31.9283 80.2576 31.5784 81.1633 30.5654 81.9127ZM30.7996 78.5302C31.3784 78.102 31.5653 77.0432 31.1677 76.0686L30.9906 75.6274C30.7018 75.7415 30.4851 75.8521 30.2439 76.0305C29.3275 76.7085 29.1341 77.5233 29.6932 78.2789C30.0263 78.7291 30.4619 78.78 30.7996 78.5302ZM37.2796 76.6469L33.1323 66.1316L36.782 63.4314L37.27 64.6626C37.3611 63.5752 37.8332 62.3302 38.9266 61.5214C40.1324 60.6293 41.324 60.6931 42.2641 61.2912C42.4585 59.7045 43.1712 58.3811 44.4092 57.4652C46.1778 56.1567 47.8192 56.5595 49.0087 58.1673C49.3418 58.6175 49.6539 59.2075 49.9018 59.8452L52.184 65.6202L48.5343 68.3204L46.4725 63.0788C46.3703 62.8061 46.2122 62.5251 46.0813 62.3482C45.7363 61.882 45.3013 61.7311 44.7707 62.1236C44.1115 62.6113 44.0385 63.3869 44.4949 64.5419L46.5567 69.7835L42.9069 72.4837L40.8452 67.2421C40.743 66.9694 40.5848 66.6883 40.4539 66.5115C40.109 66.0452 39.674 65.8944 39.1434 66.2869C38.4842 66.7746 38.4111 67.5501 38.8676 68.7052L40.9293 73.9468L37.2796 76.6469ZM54.3655 67.9869L49.0063 54.3875L52.6561 51.6874L53.081 52.7662C53.2323 51.6591 53.8359 50.4911 54.7685 49.8011C56.3281 48.6473 58.5743 48.926 60.1801 51.0966C62.5472 54.2961 62.4085 58.3793 59.836 60.2825C58.5819 61.2103 57.3456 61.2542 56.2762 60.8512L58.0152 65.2867L54.3655 67.9869ZM56.8839 57.8392C57.8808 57.1017 57.9025 55.6178 57.1412 54.5888C56.5821 53.8331 55.715 53.7034 55.0397 54.203C54.0428 54.9405 54.0211 56.4244 54.7824 57.4534C55.3415 58.2091 56.2086 58.3387 56.8839 57.8392ZM66.9612 54.9863C65.6106 55.9854 63.9595 55.8386 62.8414 54.3273C61.4735 52.4783 62.0284 50.2019 64.5044 48.37C65.1636 47.8823 65.9103 47.4792 66.7122 47.1845L66.673 47.0642C66.6219 46.9279 66.5232 46.7272 66.4162 46.5825C66.0117 46.0358 65.3516 46.0515 64.4352 46.7295C63.6312 47.3243 62.7533 48.2226 62.325 48.8878L60.0108 46.7686C60.7453 45.7774 62.0133 44.5657 63.2834 43.6259C66.1936 41.4729 68.3649 41.5832 69.6615 43.3357C69.9351 43.7055 70.1961 44.1592 70.4047 44.6766L72.687 50.4516L69.0372 53.1518L68.6242 52.0891C68.324 53.3311 67.9741 54.2369 66.9612 54.9863ZM67.1953 51.6037C67.7741 51.1755 67.9611 50.1167 67.5634 49.1421L67.3863 48.7009C67.0976 48.815 66.8808 48.9256 66.6397 49.104C65.7232 49.782 65.5299 50.5968 66.0889 51.3525C66.422 51.8027 66.8577 51.8535 67.1953 51.6037ZM69.2088 38.471L68.1111 35.6757L71.8894 32.8804L72.9872 35.6756L69.2088 38.471ZM73.7074 49.6967L69.5602 39.1813L73.2099 36.4811L77.3572 46.9965L73.7074 49.6967ZM84.6829 45.607C83.0751 46.7965 80.8133 47.6737 79.2043 47.8192L79.0812 44.6263C80.5664 44.4481 81.8983 43.8608 82.7665 43.2184C83.5704 42.6237 83.9583 42.0382 84.067 41.3109C84.1381 40.8353 84.0659 40.2669 83.7942 39.5971L83.7312 39.4447C83.524 40.5433 82.9574 41.5596 81.8801 42.3566C80.4009 43.451 78.1045 43.5079 76.6652 41.5625C74.7977 39.0382 74.4946 35.2321 77.2761 33.1743C78.4498 32.3059 79.8427 32.1711 80.9163 32.5461L80.3773 31.1785L84.027 28.4784L87.281 36.7438C87.9342 38.4001 88.2012 39.7699 88.0088 41.0567C87.7662 42.6791 86.7409 44.0845 84.6829 45.607ZM81.8085 38.6281C82.8054 37.8906 82.746 36.5661 82.1156 35.714C81.6517 35.087 80.7971 34.8734 80.0414 35.4324C79.0606 36.158 79.0801 37.4622 79.7462 38.3626C80.2101 38.9896 81.0529 39.1871 81.8085 38.6281ZM89.2039 38.232L85.0566 27.7166L88.7064 25.0164L89.2258 26.3239C89.2813 25.1882 89.7898 23.8915 90.8831 23.0826C92.4909 21.8931 94.1645 22.2721 95.3777 23.9121C95.7108 24.3623 96.0152 24.9083 96.2631 25.5459L98.5453 31.321L94.8956 34.0211L92.8338 28.7795C92.7316 28.5068 92.5735 28.2258 92.4426 28.0489C92.0977 27.5827 91.6305 27.4556 91.0999 27.8482C90.3764 28.3834 90.3474 29.1513 90.7919 30.2902L92.8537 35.5318L89.2039 38.232ZM53.0739 92.7013C49.9226 95.0328 46.3204 94.7372 44.0842 91.7145C41.8122 88.6436 41.4161 83.1648 46.2717 79.5725C48.6995 77.7764 51.3714 77.7899 53.3127 79.4386L51.0348 83.3878C50.1156 82.6498 49.1233 82.6873 48.2712 83.3177C46.583 84.5667 46.6316 86.9191 47.7735 88.4626C48.6894 89.7006 49.9727 89.821 50.9695 89.0835C51.8378 88.4412 52.2359 87.4997 52.2878 86.292L56.4151 86.4231C56.3839 88.7349 55.4695 90.929 53.0739 92.7013ZM61.0078 86.757C59.6573 87.7561 58.0062 87.6093 56.8881 86.098C55.5201 84.249 56.075 81.9726 58.5511 80.1407C59.2103 79.653 59.9569 79.2499 60.7589 78.9552L60.7197 78.8349C60.6686 78.6986 60.5699 78.4979 60.4628 78.3532C60.0584 77.8066 59.3983 77.8222 58.4818 78.5003C57.6779 79.095 56.8 79.9933 56.3716 80.6585L54.0575 78.5393C54.792 77.5481 56.0599 76.3364 57.3301 75.3967C60.2403 73.2437 62.4116 73.3539 63.7081 75.1064C63.9817 75.4762 64.2428 75.9299 64.4514 76.4473L66.7336 82.2223L63.0839 84.9225L62.6708 83.8598C62.3707 85.1018 62.0208 86.0076 61.0078 86.757ZM61.242 83.3744C61.8208 82.9462 62.0077 81.8874 61.6101 80.9128L61.433 80.4716C61.1442 80.5857 60.9275 80.6963 60.6863 80.8747C59.7699 81.5528 59.5765 82.3675 60.1356 83.1232C60.4687 83.5734 60.9043 83.6242 61.242 83.3744ZM71.6228 78.9286C70.0632 80.0825 67.817 79.8037 66.2112 77.6332C63.844 74.4336 63.9828 70.3505 66.5553 68.4472C67.8094 67.5194 69.0457 67.4755 70.1151 67.8785L68.187 62.9858L71.8368 60.2856L77.3849 74.3422L73.7352 77.0424L73.3102 75.9636C73.159 77.0706 72.5553 78.2387 71.6228 78.9286ZM71.3516 74.5268C72.3484 73.7893 72.3702 72.3054 71.6089 71.2764C71.0498 70.5207 70.1826 70.391 69.5073 70.8906C68.5105 71.6281 68.4888 73.112 69.2501 74.141C69.8091 74.8967 70.6763 75.0264 71.3516 74.5268ZM80.0561 66.8928C80.6277 67.5645 81.4229 67.6977 82.2429 67.0911C82.8378 66.651 83.2221 65.9935 83.4881 65.0752L86.5442 65.6752C86.2016 67.297 85.3841 68.7477 83.8406 69.8896C81.1716 71.8642 78.3778 71.5179 76.6768 69.2187C74.7022 66.5497 74.7214 62.4058 78.0656 59.9316C80.9597 57.7905 83.3756 59.0383 84.7435 60.8873C85.1717 61.4661 85.4916 62.1002 85.6996 62.7176L80.0561 66.8928ZM79.0917 65.1184L81.5677 63.2866C81.5208 63.1223 81.4417 62.9818 81.3466 62.8531C80.9897 62.3708 80.3029 62.1823 79.708 62.6224C79.1614 63.0268 78.7037 63.8879 79.0917 65.1184ZM92.6187 63.3705C90.5607 64.893 88.981 64.8427 87.7915 63.2349C87.5179 62.8651 87.2848 62.4155 87.0643 61.8821L85.8602 58.8421L84.8312 59.6034L83.5052 56.2307L84.5342 55.4694L83.4995 52.8266L87.1492 50.1264L88.184 52.7692L90.2098 51.2704L91.5358 54.6432L89.5099 56.142L90.4032 58.3919C90.5369 58.7407 90.6594 58.9736 90.7903 59.1504C91.0638 59.5202 91.4317 59.5466 91.9462 59.166C92.2356 58.9519 92.4571 58.7133 92.8646 58.188L94.2773 61.7453C93.7692 62.37 93.2296 62.9185 92.6187 63.3705Z"/>
</mask>
<path d="M22.6315 87.8571C19.4802 90.1885 15.878 89.893 13.6418 86.8703C11.3698 83.7993 10.9737 78.3206 15.8293 74.7283C18.2571 72.9322 20.929 72.9456 22.8703 74.5944L20.5924 78.5436C19.6732 77.8055 18.681 77.843 17.8288 78.4735C16.1406 79.7225 16.1892 82.0748 17.3311 83.6183C18.247 84.8563 19.5303 84.9767 20.5271 84.2393C21.3954 83.5969 21.7935 82.6555 21.8454 81.4478L25.9727 81.5788C25.9415 83.8907 25.0272 86.0847 22.6315 87.8571ZM30.5654 81.9127C29.2149 82.9119 27.5638 82.7651 26.4457 81.2538C25.0777 79.4048 25.6327 77.1284 28.1087 75.2965C28.7679 74.8088 29.5146 74.4057 30.3165 74.1109L30.2773 73.9907C30.2262 73.8543 30.1275 73.6537 30.0204 73.509C29.616 72.9623 28.9559 72.978 28.0394 73.656C27.2355 74.2508 26.3576 75.1491 25.9293 75.8143L23.6151 73.6951C24.3496 72.7039 25.6175 71.4921 26.8877 70.5524C29.7979 68.3994 31.9692 68.5096 33.2657 70.2622C33.5393 70.632 33.8004 71.0857 34.009 71.603L36.2912 77.3781L32.6415 80.0783L32.2284 79.0156C31.9283 80.2576 31.5784 81.1633 30.5654 81.9127ZM30.7996 78.5302C31.3784 78.102 31.5653 77.0432 31.1677 76.0686L30.9906 75.6274C30.7018 75.7415 30.4851 75.8521 30.2439 76.0305C29.3275 76.7085 29.1341 77.5233 29.6932 78.2789C30.0263 78.7291 30.4619 78.78 30.7996 78.5302ZM37.2796 76.6469L33.1323 66.1316L36.782 63.4314L37.27 64.6626C37.3611 63.5752 37.8332 62.3302 38.9266 61.5214C40.1324 60.6293 41.324 60.6931 42.2641 61.2912C42.4585 59.7045 43.1712 58.3811 44.4092 57.4652C46.1778 56.1567 47.8192 56.5595 49.0087 58.1673C49.3418 58.6175 49.6539 59.2075 49.9018 59.8452L52.184 65.6202L48.5343 68.3204L46.4725 63.0788C46.3703 62.8061 46.2122 62.5251 46.0813 62.3482C45.7363 61.882 45.3013 61.7311 44.7707 62.1236C44.1115 62.6113 44.0385 63.3869 44.4949 64.5419L46.5567 69.7835L42.9069 72.4837L40.8452 67.2421C40.743 66.9694 40.5848 66.6883 40.4539 66.5115C40.109 66.0452 39.674 65.8944 39.1434 66.2869C38.4842 66.7746 38.4111 67.5501 38.8676 68.7052L40.9293 73.9468L37.2796 76.6469ZM54.3655 67.9869L49.0063 54.3875L52.6561 51.6874L53.081 52.7662C53.2323 51.6591 53.8359 50.4911 54.7685 49.8011C56.3281 48.6473 58.5743 48.926 60.1801 51.0966C62.5472 54.2961 62.4085 58.3793 59.836 60.2825C58.5819 61.2103 57.3456 61.2542 56.2762 60.8512L58.0152 65.2867L54.3655 67.9869ZM56.8839 57.8392C57.8808 57.1017 57.9025 55.6178 57.1412 54.5888C56.5821 53.8331 55.715 53.7034 55.0397 54.203C54.0428 54.9405 54.0211 56.4244 54.7824 57.4534C55.3415 58.2091 56.2086 58.3387 56.8839 57.8392ZM66.9612 54.9863C65.6106 55.9854 63.9595 55.8386 62.8414 54.3273C61.4735 52.4783 62.0284 50.2019 64.5044 48.37C65.1636 47.8823 65.9103 47.4792 66.7122 47.1845L66.673 47.0642C66.6219 46.9279 66.5232 46.7272 66.4162 46.5825C66.0117 46.0358 65.3516 46.0515 64.4352 46.7295C63.6312 47.3243 62.7533 48.2226 62.325 48.8878L60.0108 46.7686C60.7453 45.7774 62.0133 44.5657 63.2834 43.6259C66.1936 41.4729 68.3649 41.5832 69.6615 43.3357C69.9351 43.7055 70.1961 44.1592 70.4047 44.6766L72.687 50.4516L69.0372 53.1518L68.6242 52.0891C68.324 53.3311 67.9741 54.2369 66.9612 54.9863ZM67.1953 51.6037C67.7741 51.1755 67.9611 50.1167 67.5634 49.1421L67.3863 48.7009C67.0976 48.815 66.8808 48.9256 66.6397 49.104C65.7232 49.782 65.5299 50.5968 66.0889 51.3525C66.422 51.8027 66.8577 51.8535 67.1953 51.6037ZM69.2088 38.471L68.1111 35.6757L71.8894 32.8804L72.9872 35.6756L69.2088 38.471ZM73.7074 49.6967L69.5602 39.1813L73.2099 36.4811L77.3572 46.9965L73.7074 49.6967ZM84.6829 45.607C83.0751 46.7965 80.8133 47.6737 79.2043 47.8192L79.0812 44.6263C80.5664 44.4481 81.8983 43.8608 82.7665 43.2184C83.5704 42.6237 83.9583 42.0382 84.067 41.3109C84.1381 40.8353 84.0659 40.2669 83.7942 39.5971L83.7312 39.4447C83.524 40.5433 82.9574 41.5596 81.8801 42.3566C80.4009 43.451 78.1045 43.5079 76.6652 41.5625C74.7977 39.0382 74.4946 35.2321 77.2761 33.1743C78.4498 32.3059 79.8427 32.1711 80.9163 32.5461L80.3773 31.1785L84.027 28.4784L87.281 36.7438C87.9342 38.4001 88.2012 39.7699 88.0088 41.0567C87.7662 42.6791 86.7409 44.0845 84.6829 45.607ZM81.8085 38.6281C82.8054 37.8906 82.746 36.5661 82.1156 35.714C81.6517 35.087 80.7971 34.8734 80.0414 35.4324C79.0606 36.158 79.0801 37.4622 79.7462 38.3626C80.2101 38.9896 81.0529 39.1871 81.8085 38.6281ZM89.2039 38.232L85.0566 27.7166L88.7064 25.0164L89.2258 26.3239C89.2813 25.1882 89.7898 23.8915 90.8831 23.0826C92.4909 21.8931 94.1645 22.2721 95.3777 23.9121C95.7108 24.3623 96.0152 24.9083 96.2631 25.5459L98.5453 31.321L94.8956 34.0211L92.8338 28.7795C92.7316 28.5068 92.5735 28.2258 92.4426 28.0489C92.0977 27.5827 91.6305 27.4556 91.0999 27.8482C90.3764 28.3834 90.3474 29.1513 90.7919 30.2902L92.8537 35.5318L89.2039 38.232ZM53.0739 92.7013C49.9226 95.0328 46.3204 94.7372 44.0842 91.7145C41.8122 88.6436 41.4161 83.1648 46.2717 79.5725C48.6995 77.7764 51.3714 77.7899 53.3127 79.4386L51.0348 83.3878C50.1156 82.6498 49.1233 82.6873 48.2712 83.3177C46.583 84.5667 46.6316 86.9191 47.7735 88.4626C48.6894 89.7006 49.9727 89.821 50.9695 89.0835C51.8378 88.4412 52.2359 87.4997 52.2878 86.292L56.4151 86.4231C56.3839 88.7349 55.4695 90.929 53.0739 92.7013ZM61.0078 86.757C59.6573 87.7561 58.0062 87.6093 56.8881 86.098C55.5201 84.249 56.075 81.9726 58.5511 80.1407C59.2103 79.653 59.9569 79.2499 60.7589 78.9552L60.7197 78.8349C60.6686 78.6986 60.5699 78.4979 60.4628 78.3532C60.0584 77.8066 59.3983 77.8222 58.4818 78.5003C57.6779 79.095 56.8 79.9933 56.3716 80.6585L54.0575 78.5393C54.792 77.5481 56.0599 76.3364 57.3301 75.3967C60.2403 73.2437 62.4116 73.3539 63.7081 75.1064C63.9817 75.4762 64.2428 75.9299 64.4514 76.4473L66.7336 82.2223L63.0839 84.9225L62.6708 83.8598C62.3707 85.1018 62.0208 86.0076 61.0078 86.757ZM61.242 83.3744C61.8208 82.9462 62.0077 81.8874 61.6101 80.9128L61.433 80.4716C61.1442 80.5857 60.9275 80.6963 60.6863 80.8747C59.7699 81.5528 59.5765 82.3675 60.1356 83.1232C60.4687 83.5734 60.9043 83.6242 61.242 83.3744ZM71.6228 78.9286C70.0632 80.0825 67.817 79.8037 66.2112 77.6332C63.844 74.4336 63.9828 70.3505 66.5553 68.4472C67.8094 67.5194 69.0457 67.4755 70.1151 67.8785L68.187 62.9858L71.8368 60.2856L77.3849 74.3422L73.7352 77.0424L73.3102 75.9636C73.159 77.0706 72.5553 78.2387 71.6228 78.9286ZM71.3516 74.5268C72.3484 73.7893 72.3702 72.3054 71.6089 71.2764C71.0498 70.5207 70.1826 70.391 69.5073 70.8906C68.5105 71.6281 68.4888 73.112 69.2501 74.141C69.8091 74.8967 70.6763 75.0264 71.3516 74.5268ZM80.0561 66.8928C80.6277 67.5645 81.4229 67.6977 82.2429 67.0911C82.8378 66.651 83.2221 65.9935 83.4881 65.0752L86.5442 65.6752C86.2016 67.297 85.3841 68.7477 83.8406 69.8896C81.1716 71.8642 78.3778 71.5179 76.6768 69.2187C74.7022 66.5497 74.7214 62.4058 78.0656 59.9316C80.9597 57.7905 83.3756 59.0383 84.7435 60.8873C85.1717 61.4661 85.4916 62.1002 85.6996 62.7176L80.0561 66.8928ZM79.0917 65.1184L81.5677 63.2866C81.5208 63.1223 81.4417 62.9818 81.3466 62.8531C80.9897 62.3708 80.3029 62.1823 79.708 62.6224C79.1614 63.0268 78.7037 63.8879 79.0917 65.1184ZM92.6187 63.3705C90.5607 64.893 88.981 64.8427 87.7915 63.2349C87.5179 62.8651 87.2848 62.4155 87.0643 61.8821L85.8602 58.8421L84.8312 59.6034L83.5052 56.2307L84.5342 55.4694L83.4995 52.8266L87.1492 50.1264L88.184 52.7692L90.2098 51.2704L91.5358 54.6432L89.5099 56.142L90.4032 58.3919C90.5369 58.7407 90.6594 58.9736 90.7903 59.1504C91.0638 59.5202 91.4317 59.5466 91.9462 59.166C92.2356 58.9519 92.4571 58.7133 92.8646 58.188L94.2773 61.7453C93.7692 62.37 93.2296 62.9185 92.6187 63.3705Z" fill="#263E65"/>
<path d="M22.8703 74.5944L23.7365 75.094L24.1531 74.3719L23.5176 73.8322L22.8703 74.5944ZM20.5924 78.5436L19.9663 79.3233L20.8758 80.0536L21.4586 79.0432L20.5924 78.5436ZM21.8454 81.4478L21.8772 80.4483L20.8888 80.417L20.8464 81.4049L21.8454 81.4478ZM25.9727 81.5788L26.9726 81.5923L26.9858 80.6105L26.0044 80.5793L25.9727 81.5788ZM22.0368 87.0532C20.6218 88.1 19.1763 88.5071 17.8948 88.3766C16.6265 88.2475 15.4123 87.5821 14.4457 86.2755L12.8379 87.465C14.1075 89.1811 15.8125 90.1749 17.6922 90.3663C19.5587 90.5564 21.4898 89.9457 23.2263 88.661L22.0368 87.0532ZM14.4457 86.2755C12.4481 83.5755 12.0821 78.7445 16.424 75.5322L15.2345 73.9244C9.86519 77.8968 10.2915 84.0232 12.8379 87.465L14.4457 86.2755ZM16.424 75.5322C18.5431 73.9645 20.6937 74.0577 22.223 75.3566L23.5176 73.8322C21.1644 71.8336 17.9711 71.8998 15.2345 73.9244L16.424 75.5322ZM22.0041 74.0947L19.7262 78.0439L21.4586 79.0432L23.7365 75.094L22.0041 74.0947ZM21.2185 77.7638C20.6108 77.2759 19.9208 77.0017 19.1941 76.9954C18.4713 76.9891 17.803 77.2486 17.2341 77.6696L18.4236 79.2774C18.7067 79.0679 18.9607 78.9934 19.1768 78.9953C19.3891 78.9971 19.6548 79.0732 19.9663 79.3233L21.2185 77.7638ZM17.2341 77.6696C14.9737 79.3419 15.1605 82.3657 16.5272 84.2131L18.135 83.0236C17.2179 81.784 17.3075 80.103 18.4236 79.2774L17.2341 77.6696ZM16.5272 84.2131C17.111 85.0022 17.8753 85.5138 18.7355 85.6562C19.595 85.7984 20.434 85.5521 21.1219 85.0432L19.9324 83.4353C19.6235 83.6639 19.3224 83.7261 19.0621 83.683C18.8025 83.6401 18.4672 83.4725 18.135 83.0236L16.5272 84.2131ZM21.1219 85.0432C22.2969 84.1739 22.7835 82.9104 22.8445 81.4908L20.8464 81.4049C20.8036 82.4007 20.4938 83.02 19.9324 83.4353L21.1219 85.0432ZM21.8137 82.4473L25.9409 82.5783L26.0044 80.5793L21.8772 80.4483L21.8137 82.4473ZM24.9728 81.5654C24.9457 83.5772 24.1716 85.4738 22.0368 87.0532L23.2263 88.661C25.8827 86.6957 26.9374 84.2042 26.9726 81.5923L24.9728 81.5654ZM30.3165 74.1109L30.6615 75.0495L31.566 74.7171L31.2672 73.8009L30.3165 74.1109ZM30.2773 73.9907L31.228 73.6807L31.2213 73.66L31.2137 73.6397L30.2773 73.9907ZM25.9293 75.8143L25.2539 76.5518L26.1282 77.3524L26.77 76.3557L25.9293 75.8143ZM23.6151 73.6951L22.8116 73.0997L22.275 73.8239L22.9397 74.4326L23.6151 73.6951ZM34.009 71.603L34.939 71.2355L34.9364 71.2291L34.009 71.603ZM36.2912 77.3781L36.886 78.182L37.5036 77.7251L37.2213 77.0106L36.2912 77.3781ZM32.6415 80.0783L31.7094 80.4406L32.1837 81.6609L33.2363 80.8822L32.6415 80.0783ZM32.2284 79.0156L33.1605 78.6533L32.0054 75.6813L31.2564 78.7807L32.2284 79.0156ZM31.1677 76.0686L30.2397 76.4411L30.2418 76.4463L31.1677 76.0686ZM30.9906 75.6274L31.9186 75.2548L31.548 74.3318L30.6231 74.6974L30.9906 75.6274ZM29.9707 81.1088C29.472 81.4778 28.9797 81.5934 28.5567 81.5343C28.1396 81.4761 27.6735 81.232 27.2496 80.659L25.6418 81.8485C26.336 82.7869 27.2545 83.3719 28.2801 83.5151C29.2998 83.6575 30.3083 83.3469 31.1602 82.7166L29.9707 81.1088ZM27.2496 80.659C26.7357 79.9644 26.6083 79.2452 26.8013 78.5288C27.0028 77.7808 27.586 76.9271 28.7034 76.1004L27.5139 74.4926C26.1553 75.4978 25.2231 76.6982 24.8701 78.0086C24.5086 79.3507 24.7878 80.6942 25.6418 81.8485L27.2496 80.659ZM28.7034 76.1004C29.2849 75.6702 29.9472 75.3121 30.6615 75.0495L29.9715 73.1723C29.0819 73.4993 28.2509 73.9474 27.5139 74.4926L28.7034 76.1004ZM31.2672 73.8009L31.228 73.6807L29.3265 74.3007L29.3658 74.421L31.2672 73.8009ZM31.2137 73.6397C31.1387 73.4397 30.9998 73.1513 30.8243 72.9142L29.2165 74.1037C29.2299 74.1219 29.2545 74.1603 29.283 74.2151C29.3108 74.2685 29.3311 74.3156 29.3409 74.3417L31.2137 73.6397ZM30.8243 72.9142C30.4362 72.3896 29.8542 72.0824 29.1604 72.1251C28.55 72.1628 27.9682 72.4648 27.4447 72.8521L28.6342 74.4599C29.0272 74.1692 29.2336 74.1244 29.2834 74.1214C29.2932 74.1208 29.2679 74.1229 29.2313 74.105C29.1973 74.0885 29.1952 74.0749 29.2165 74.1037L30.8243 72.9142ZM27.4447 72.8521C26.5679 73.5008 25.5969 74.4833 25.0885 75.2729L26.77 76.3557C27.1183 75.8148 27.9031 75.0008 28.6342 74.4599L27.4447 72.8521ZM26.6046 75.0768L24.2904 72.9576L22.9397 74.4326L25.2539 76.5518L26.6046 75.0768ZM24.4185 74.2904C25.0788 73.3994 26.268 72.2548 27.4825 71.3563L26.293 69.7485C24.9671 70.7294 23.6204 72.0083 22.8116 73.0997L24.4185 74.2904ZM27.4825 71.3563C28.8551 70.3408 29.9254 69.9589 30.7029 69.9425C31.4163 69.9275 31.9874 70.2157 32.4618 70.8569L34.0697 69.6674C33.2475 68.5561 32.0847 67.913 30.6608 67.9429C29.3009 67.9716 27.8305 68.611 26.293 69.7485L27.4825 71.3563ZM32.4618 70.8569C32.6851 71.1587 32.9046 71.5383 33.0815 71.977L34.9364 71.2291C34.6961 70.6331 34.3935 70.1052 34.0697 69.6674L32.4618 70.8569ZM33.079 71.9706L35.3612 77.7456L37.2213 77.0106L34.939 71.2355L33.079 71.9706ZM35.6965 76.5742L32.0467 79.2744L33.2363 80.8822L36.886 78.182L35.6965 76.5742ZM33.5736 79.716L33.1605 78.6533L31.2964 79.3778L31.7094 80.4406L33.5736 79.716ZM31.2564 78.7807C30.9741 79.9489 30.698 80.5708 29.9707 81.1088L31.1602 82.7166C32.4588 81.7559 32.8825 80.5663 33.2005 79.2504L31.2564 78.7807ZM31.3943 79.3341C31.9564 78.9183 32.2411 78.2722 32.3376 77.66C32.4364 77.0335 32.3588 76.3409 32.0936 75.6908L30.2418 76.4463C30.3742 76.7708 30.402 77.095 30.362 77.3485C30.3198 77.6165 30.2216 77.7139 30.2048 77.7263L31.3943 79.3341ZM32.0957 75.696L31.9186 75.2548L30.0626 76L30.2397 76.4411L32.0957 75.696ZM30.6231 74.6974C30.2757 74.8346 29.9773 74.9839 29.6492 75.2266L30.8387 76.8344C30.993 76.7203 31.1279 76.6484 31.3581 76.5574L30.6231 74.6974ZM29.6492 75.2266C29.0761 75.6506 28.6101 76.2038 28.4435 76.8896C28.2687 77.609 28.4654 78.3007 28.8893 78.8737L30.4971 77.6842C30.3619 77.5015 30.3757 77.408 30.387 77.3616C30.4064 77.2817 30.4953 77.0885 30.8387 76.8344L29.6492 75.2266ZM28.8893 78.8737C29.168 79.2504 29.5607 79.5521 30.0524 79.6484C30.5524 79.7464 31.027 79.6059 31.3943 79.3341L30.2048 77.7263C30.2164 77.7177 30.2442 77.7005 30.2891 77.6893C30.3354 77.6778 30.3872 77.676 30.4369 77.6857C30.5431 77.7065 30.5515 77.7577 30.4971 77.6842L28.8893 78.8737ZM37.2796 76.6469L36.3493 77.0138L36.8272 78.2255L37.8743 77.4508L37.2796 76.6469ZM33.1323 66.1316L32.5375 65.3277L31.9203 65.7843L32.202 66.4985L33.1323 66.1316ZM36.782 63.4314L37.7117 63.063L37.2326 61.8541L36.1873 62.6275L36.782 63.4314ZM37.27 64.6626L36.3403 65.031L38.2665 64.7461L37.27 64.6626ZM42.2641 61.2912L41.7273 62.1349L43.0641 62.9855L43.2567 61.4128L42.2641 61.2912ZM49.9018 59.8452L48.9697 60.2074L48.9718 60.2127L49.9018 59.8452ZM52.184 65.6202L52.7788 66.4241L53.3964 65.9672L53.114 65.2527L52.184 65.6202ZM48.5343 68.3204L47.6037 68.6864L48.0809 69.8997L49.129 69.1243L48.5343 68.3204ZM46.4725 63.0788L45.5362 63.4298L45.539 63.4373L45.5419 63.4448L46.4725 63.0788ZM44.4949 64.5419L45.4255 64.1758L45.4249 64.1744L44.4949 64.5419ZM46.5567 69.7835L47.1514 70.5874L47.768 70.1312L47.4873 69.4174L46.5567 69.7835ZM42.9069 72.4837L41.9763 72.8497L42.4536 74.063L43.5017 73.2876L42.9069 72.4837ZM40.8452 67.2421L39.9088 67.5931L39.9116 67.6006L39.9146 67.6081L40.8452 67.2421ZM38.8676 68.7052L39.7982 68.3391L39.7976 68.3376L38.8676 68.7052ZM40.9293 73.9468L41.5241 74.7507L42.1407 74.2945L41.8599 73.5807L40.9293 73.9468ZM38.2098 76.28L34.0625 65.7647L32.202 66.4985L36.3493 77.0138L38.2098 76.28ZM33.727 66.9355L37.3768 64.2353L36.1873 62.6275L32.5375 65.3277L33.727 66.9355ZM35.8524 63.7998L36.3403 65.031L38.1996 64.2942L37.7117 63.063L35.8524 63.7998ZM38.2665 64.7461C38.341 63.8573 38.722 62.9166 39.5213 62.3253L38.3318 60.7175C36.9445 61.7439 36.3812 63.293 36.2735 64.5791L38.2665 64.7461ZM39.5213 62.3253C40.3966 61.6777 41.1384 61.7602 41.7273 62.1349L42.801 60.4475C41.5096 59.6259 39.8683 59.5808 38.3318 60.7175L39.5213 62.3253ZM43.2567 61.4128C43.4216 60.0671 44.0107 59.0039 45.004 58.2691L43.8145 56.6613C42.3317 57.7583 41.4955 59.3418 41.2716 61.1696L43.2567 61.4128ZM45.004 58.2691C45.7282 57.7333 46.3082 57.6288 46.7518 57.7073C47.2078 57.788 47.7123 58.0964 48.2048 58.762L49.8126 57.5725C49.1156 56.6304 48.2047 55.9334 47.1005 55.7379C45.9838 55.5403 44.8588 55.8886 43.8145 56.6613L45.004 58.2691ZM48.2048 58.762C48.4734 59.1251 48.7461 59.6323 48.9697 60.2074L50.8338 59.4829C50.5617 58.7828 50.2102 58.1099 49.8126 57.5725L48.2048 58.762ZM48.9718 60.2127L51.254 65.9878L53.114 65.2527L50.8318 59.4776L48.9718 60.2127ZM51.5893 64.8163L47.9395 67.5165L49.129 69.1243L52.7788 66.4241L51.5893 64.8163ZM49.4649 67.9544L47.4031 62.7128L45.5419 63.4448L47.6037 68.6864L49.4649 67.9544ZM47.4089 62.7278C47.2742 62.3685 47.0716 62.0053 46.8852 61.7535L45.2774 62.943C45.3527 63.0448 45.4664 63.2438 45.5362 63.4298L47.4089 62.7278ZM46.8852 61.7535C46.636 61.4167 46.254 61.0541 45.7059 60.9362C45.1267 60.8117 44.5969 61.0083 44.176 61.3197L45.3655 62.9275C45.4228 62.8852 45.4409 62.8848 45.4201 62.8906C45.4091 62.8937 45.3902 62.8976 45.3647 62.8986C45.339 62.8995 45.3119 62.8972 45.2854 62.8915C45.2304 62.8797 45.2026 62.859 45.2036 62.8597C45.2071 62.8623 45.2338 62.884 45.2774 62.943L46.8852 61.7535ZM44.176 61.3197C43.6272 61.7258 43.295 62.2912 43.2204 62.9739C43.1515 63.6042 43.3094 64.2629 43.5649 64.9094L45.4249 64.1744C45.224 63.6659 45.1902 63.3593 45.2085 63.1911C45.2212 63.0754 45.2551 63.0092 45.3655 62.9275L44.176 61.3197ZM43.5643 64.9079L45.6261 70.1495L47.4873 69.4174L45.4255 64.1758L43.5643 64.9079ZM45.9619 68.9796L42.3122 71.6798L43.5017 73.2876L47.1514 70.5874L45.9619 68.9796ZM43.8375 72.1176L41.7758 66.876L39.9146 67.6081L41.9763 72.8497L43.8375 72.1176ZM41.7815 66.891C41.6468 66.5317 41.4442 66.1686 41.2579 65.9167L39.65 67.1062C39.7254 67.2081 39.8391 67.407 39.9088 67.5931L41.7815 66.891ZM41.2579 65.9167C41.0087 65.5799 40.6266 65.2174 40.0785 65.0995C39.4993 64.9749 38.9695 65.1716 38.5486 65.483L39.7381 67.0908C39.7954 67.0484 39.8135 67.0481 39.7928 67.0539C39.7818 67.057 39.7628 67.0609 39.7373 67.0618C39.7116 67.0628 39.6846 67.0605 39.658 67.0548C39.6031 67.043 39.5752 67.0222 39.5762 67.023C39.5797 67.0256 39.6064 67.0473 39.65 67.1062L41.2579 65.9167ZM38.5486 65.483C37.9998 65.889 37.6676 66.4545 37.593 67.1372C37.5242 67.7675 37.682 68.4262 37.9375 69.0727L39.7976 68.3376C39.5966 67.8291 39.5628 67.5226 39.5812 67.3544C39.5938 67.2386 39.6278 67.1725 39.7381 67.0908L38.5486 65.483ZM37.937 69.0712L39.9987 74.3128L41.8599 73.5807L39.7982 68.3391L37.937 69.0712ZM40.3345 73.1428L36.6848 75.843L37.8743 77.4508L41.5241 74.7507L40.3345 73.1428ZM54.3655 67.9869L53.4351 68.3535L53.9128 69.5657L54.9602 68.7908L54.3655 67.9869ZM49.0063 54.3875L48.4116 53.5836L47.7946 54.0401L48.076 54.7542L49.0063 54.3875ZM52.6561 51.6874L53.5865 51.3209L53.1089 50.1084L52.0613 50.8834L52.6561 51.6874ZM53.081 52.7662L52.1506 53.1327L53.5536 56.6944L54.0718 52.9015L53.081 52.7662ZM56.2762 60.8512L56.6288 59.9155L54.5242 59.1223L55.3452 61.2163L56.2762 60.8512ZM58.0152 65.2867L58.61 66.0906L59.2259 65.635L58.9462 64.9217L58.0152 65.2867ZM55.2958 67.6203L49.9367 54.0209L48.076 54.7542L53.4351 68.3535L55.2958 67.6203ZM49.6011 55.1914L53.2508 52.4913L52.0613 50.8834L48.4116 53.5836L49.6011 55.1914ZM51.7257 52.0539L52.1506 53.1327L54.0114 52.3997L53.5865 51.3209L51.7257 52.0539ZM54.0718 52.9015C54.1924 52.0192 54.6796 51.1108 55.3632 50.605L54.1737 48.9972C52.9923 49.8713 52.2722 51.2991 52.0902 52.6308L54.0718 52.9015ZM55.3632 50.605C55.9192 50.1937 56.5821 50.0433 57.2556 50.1817C57.9325 50.3209 58.6944 50.7698 59.3762 51.6913L60.984 50.5018C60.06 49.2528 58.8958 48.4771 57.6583 48.2227C56.4173 47.9676 55.1773 48.2547 54.1737 48.9972L55.3632 50.605ZM59.3762 51.6913C61.5473 54.6259 61.2097 58.0223 59.2412 59.4786L60.4307 61.0864C63.6073 58.7364 63.5472 53.9663 60.984 50.5018L59.3762 51.6913ZM59.2412 59.4786C58.2737 60.1945 57.3966 60.2048 56.6288 59.9155L55.9235 61.787C57.2945 62.3037 58.8901 62.2262 60.4307 61.0864L59.2412 59.4786ZM55.3452 61.2163L57.0842 65.6517L58.9462 64.9217L57.2072 60.4862L55.3452 61.2163ZM57.4205 64.4828L53.7707 67.183L54.9602 68.7908L58.61 66.0906L57.4205 64.4828ZM57.4787 58.6431C59.049 57.4813 58.93 55.3253 57.9451 53.994L56.3373 55.1835C56.8749 55.9102 56.7125 56.7221 56.2892 57.0352L57.4787 58.6431ZM57.9451 53.994C57.5326 53.4365 56.9607 53.0537 56.3051 52.9399C55.6468 52.8256 54.9873 52.9978 54.4449 53.3991L55.6344 55.0069C55.7673 54.9086 55.879 54.8959 55.9629 54.9104C56.0495 54.9254 56.1907 54.9854 56.3373 55.1835L57.9451 53.994ZM54.4449 53.3991C52.8746 54.5609 52.9936 56.7168 53.9785 58.0481L55.5863 56.8586C55.0487 56.1319 55.2111 55.3201 55.6344 55.0069L54.4449 53.3991ZM53.9785 58.0481C54.391 58.6057 54.9629 58.9884 55.6185 59.1023C56.2768 59.2165 56.9363 59.0444 57.4787 58.6431L56.2892 57.0352C56.1563 57.1336 56.0446 57.1463 55.9606 57.1317C55.8741 57.1167 55.7329 57.0568 55.5863 56.8586L53.9785 58.0481ZM66.7122 47.1845L67.0572 48.1231L67.9617 47.7906L67.663 46.8744L66.7122 47.1845ZM66.673 47.0642L67.6237 46.7542L67.617 46.7335L67.6094 46.7132L66.673 47.0642ZM62.325 48.8878L61.6496 49.6253L62.5239 50.4259L63.1657 49.4292L62.325 48.8878ZM60.0108 46.7686L59.2073 46.1732L58.6707 46.8974L59.3354 47.5061L60.0108 46.7686ZM70.4047 44.6766L71.3347 44.309L71.3322 44.3026L70.4047 44.6766ZM72.687 50.4516L73.2817 51.2555L73.8994 50.7986L73.617 50.0841L72.687 50.4516ZM69.0372 53.1518L68.1052 53.5141L68.5795 54.7344L69.632 53.9557L69.0372 53.1518ZM68.6242 52.0891L69.5562 51.7268L68.4011 48.7548L67.6521 51.8542L68.6242 52.0891ZM67.5634 49.1421L66.6354 49.5146L66.6375 49.5198L67.5634 49.1421ZM67.3863 48.7009L68.3143 48.3283L67.9438 47.4053L67.0188 47.7709L67.3863 48.7009ZM66.3664 54.1823C65.8678 54.5513 65.3755 54.6669 64.9524 54.6078C64.5353 54.5496 64.0692 54.3055 63.6453 53.7325L62.0375 54.922C62.7317 55.8604 63.6502 56.4454 64.6758 56.5886C65.6955 56.731 66.704 56.4204 67.5559 55.7902L66.3664 54.1823ZM63.6453 53.7325C63.1314 53.0379 63.004 52.3187 63.197 51.6023C63.3985 50.8543 63.9818 50.0006 65.0992 49.1739L63.9097 47.5661C62.551 48.5713 61.6188 49.7717 61.2658 51.0821C60.9043 52.4242 61.1835 53.7677 62.0375 54.922L63.6453 53.7325ZM65.0992 49.1739C65.6806 48.7438 66.343 48.3856 67.0572 48.1231L66.3672 46.2459C65.4776 46.5728 64.6466 47.0209 63.9097 47.5661L65.0992 49.1739ZM67.663 46.8744L67.6237 46.7542L65.7223 47.3742L65.7615 47.4945L67.663 46.8744ZM67.6094 46.7132C67.5344 46.5132 67.3955 46.2249 67.2201 45.9878L65.6122 47.1773C65.6257 47.1954 65.6502 47.2338 65.6787 47.2886C65.7066 47.342 65.7269 47.3892 65.7366 47.4152L67.6094 46.7132ZM67.2201 45.9878C66.832 45.4632 66.2499 45.1559 65.5562 45.1987C64.9457 45.2363 64.3639 45.5384 63.8404 45.9256L65.0299 47.5335C65.4229 47.2427 65.6293 47.198 65.6792 47.1949C65.689 47.1943 65.6637 47.1964 65.627 47.1786C65.593 47.162 65.5909 47.1484 65.6122 47.1773L67.2201 45.9878ZM63.8404 45.9256C62.9636 46.5743 61.9926 47.5569 61.4842 48.3464L63.1657 49.4292C63.5141 48.8883 64.2989 48.0743 65.0299 47.5335L63.8404 45.9256ZM63.0003 48.1503L60.6862 46.0311L59.3354 47.5061L61.6496 49.6253L63.0003 48.1503ZM60.8143 47.364C61.4745 46.4729 62.6637 45.3284 63.8782 44.4299L62.6887 42.822C61.3628 43.8029 60.0161 45.0818 59.2073 46.1732L60.8143 47.364ZM63.8782 44.4299C65.2508 43.4143 66.3212 43.0324 67.0986 43.016C67.812 43.001 68.3831 43.2892 68.8576 43.9304L70.4654 42.7409C69.6432 41.6297 68.4804 40.9865 67.0565 41.0165C65.6966 41.0451 64.2262 41.6845 62.6887 42.822L63.8782 44.4299ZM68.8576 43.9304C69.0808 44.2322 69.3004 44.6118 69.4773 45.0505L71.3322 44.3026C71.0918 43.7066 70.7893 43.1787 70.4654 42.7409L68.8576 43.9304ZM69.4747 45.0441L71.757 50.8192L73.617 50.0841L71.3347 44.309L69.4747 45.0441ZM72.0922 49.6477L68.4425 52.3479L69.632 53.9557L73.2817 51.2555L72.0922 49.6477ZM69.9693 52.7895L69.5562 51.7268L67.6921 52.4513L68.1052 53.5141L69.9693 52.7895ZM67.6521 51.8542C67.3698 53.0224 67.0937 53.6443 66.3664 54.1823L67.5559 55.7902C68.8545 54.8294 69.2782 53.6398 69.5962 52.324L67.6521 51.8542ZM67.7901 52.4076C68.3521 51.9918 68.6368 51.3457 68.7333 50.7335C68.8321 50.107 68.7546 49.4144 68.4893 48.7643L66.6375 49.5198C66.7699 49.8443 66.7977 50.1685 66.7577 50.4221C66.7155 50.69 66.6173 50.7874 66.6006 50.7998L67.7901 52.4076ZM68.4914 48.7695L68.3143 48.3283L66.4583 49.0735L66.6354 49.5146L68.4914 48.7695ZM67.0188 47.7709C66.6715 47.9082 66.373 48.0574 66.0449 48.3001L67.2344 49.9079C67.3887 49.7938 67.5237 49.7219 67.7538 49.6309L67.0188 47.7709ZM66.0449 48.3001C65.4719 48.7241 65.0058 49.2773 64.8392 49.9631C64.6645 50.6826 64.8611 51.3743 65.285 51.9472L66.8928 50.7577C66.7577 50.575 66.7715 50.4815 66.7827 50.4352C66.8022 50.3552 66.891 50.162 67.2344 49.9079L66.0449 48.3001ZM65.285 51.9472C65.5637 52.3239 65.9565 52.6256 66.4482 52.7219C66.9481 52.8199 67.4227 52.6794 67.7901 52.4076L66.6006 50.7998C66.6121 50.7913 66.64 50.7741 66.6849 50.7629C66.7312 50.7513 66.7829 50.7495 66.8327 50.7592C66.9388 50.78 66.9472 50.8312 66.8928 50.7577L65.285 51.9472ZM69.2088 38.471L68.278 38.8365L68.7548 40.0507L69.8035 39.2749L69.2088 38.471ZM68.1111 35.6757L67.5163 34.8718L66.9001 35.3278L67.1803 36.0413L68.1111 35.6757ZM71.8894 32.8804L72.8202 32.5149L72.3434 31.3006L71.2947 32.0765L71.8894 32.8804ZM72.9872 35.6756L73.5819 36.4796L74.1982 36.0236L73.918 35.3101L72.9872 35.6756ZM73.7074 49.6967L72.7772 50.0636L73.2551 51.2753L74.3022 50.5006L73.7074 49.6967ZM69.5602 39.1813L68.9654 38.3774L68.3482 38.834L68.6299 39.5482L69.5602 39.1813ZM73.2099 36.4811L74.1402 36.1142L73.6623 34.9025L72.6151 35.6772L73.2099 36.4811ZM77.3572 46.9965L77.9519 47.8004L78.5691 47.3438L78.2874 46.6296L77.3572 46.9965ZM70.1396 38.1054L69.0419 35.3102L67.1803 36.0413L68.278 38.8365L70.1396 38.1054ZM68.7058 36.4796L72.4842 33.6843L71.2947 32.0765L67.5163 34.8718L68.7058 36.4796ZM70.9586 33.2459L72.0564 36.0412L73.918 35.3101L72.8202 32.5149L70.9586 33.2459ZM72.3924 34.8717L68.614 37.6671L69.8035 39.2749L73.5819 36.4796L72.3924 34.8717ZM74.6377 49.3298L70.4904 38.8144L68.6299 39.5482L72.7772 50.0636L74.6377 49.3298ZM70.1549 39.9852L73.8047 37.285L72.6151 35.6772L68.9654 38.3774L70.1549 39.9852ZM72.2796 36.848L76.4269 47.3634L78.2874 46.6296L74.1402 36.1142L72.2796 36.848ZM76.7624 46.1926L73.1127 48.8928L74.3022 50.5006L77.9519 47.8004L76.7624 46.1926ZM79.2043 47.8192L78.2051 47.8577L78.2457 48.91L79.2944 48.8152L79.2043 47.8192ZM79.0812 44.6263L78.962 43.6335L78.0464 43.7434L78.082 44.6649L79.0812 44.6263ZM84.067 41.3109L85.056 41.4588L85.056 41.4588L84.067 41.3109ZM83.7942 39.5971L84.721 39.2213L84.7184 39.2151L83.7942 39.5971ZM83.7312 39.4447L84.6554 39.0626L83.3714 35.9565L82.7486 39.2593L83.7312 39.4447ZM80.9163 32.5461L80.5865 33.4901L82.6471 34.21L81.8466 32.1794L80.9163 32.5461ZM80.3773 31.1785L79.7825 30.3746L79.1654 30.8311L79.4469 31.5453L80.3773 31.1785ZM84.027 28.4784L84.9575 28.112L84.48 26.8993L83.4322 27.6744L84.027 28.4784ZM87.281 36.7438L86.3505 37.1101L86.3507 37.1107L87.281 36.7438ZM88.0088 41.0567L88.9978 41.2046L88.9978 41.2046L88.0088 41.0567ZM84.0882 44.8031C82.6093 45.8973 80.5189 46.6963 79.1143 46.8233L79.2944 48.8152C81.1077 48.6512 83.541 47.6958 85.2777 46.4109L84.0882 44.8031ZM80.2036 47.7807L80.0805 44.5878L78.082 44.6649L78.2051 47.8577L80.2036 47.7807ZM79.2004 45.6192C80.8582 45.4202 82.3539 44.7676 83.3613 44.0223L82.1718 42.4145C81.4427 42.9539 80.2746 43.4759 78.962 43.6335L79.2004 45.6192ZM83.3613 44.0223C84.3115 43.3193 84.8973 42.5206 85.056 41.4588L83.078 41.163C83.0193 41.5558 82.8294 41.928 82.1718 42.4145L83.3613 44.0223ZM85.056 41.4588C85.1597 40.7655 85.0424 40.014 84.7209 39.2213L82.8675 39.9729C83.0893 40.5197 83.1166 40.9052 83.078 41.163L85.056 41.4588ZM84.7184 39.2151L84.6554 39.0626L82.8071 39.8267L82.8701 39.9791L84.7184 39.2151ZM82.7486 39.2593C82.5858 40.1222 82.1504 40.9127 81.2854 41.5527L82.4749 43.1605C83.7643 42.2065 84.4623 40.9644 84.7139 39.63L82.7486 39.2593ZM81.2854 41.5527C80.1716 42.3767 78.5247 42.3944 77.4691 40.9677L75.8613 42.1572C77.6844 44.6214 80.6303 44.5252 82.4749 43.1605L81.2854 41.5527ZM77.4691 40.9677C75.7838 38.6896 75.7081 35.5782 77.8709 33.9782L76.6814 32.3704C73.2811 34.886 73.8116 39.3867 75.8613 42.1572L77.4691 40.9677ZM77.8709 33.9782C78.7786 33.3066 79.8254 33.2243 80.5865 33.4901L81.2461 31.602C79.8601 31.1179 78.1211 31.3053 76.6814 32.3704L77.8709 33.9782ZM81.8466 32.1794L81.3076 30.8118L79.4469 31.5453L79.986 32.9128L81.8466 32.1794ZM80.972 31.9824L84.6218 29.2823L83.4322 27.6744L79.7825 30.3746L80.972 31.9824ZM83.0965 28.8447L86.3505 37.1101L88.2115 36.3775L84.9575 28.112L83.0965 28.8447ZM86.3507 37.1107C86.973 38.6887 87.1754 39.8682 87.0198 40.9088L88.9978 41.2046C89.227 39.6716 88.8953 38.1115 88.2113 36.377L86.3507 37.1107ZM87.0198 40.9088C86.8334 42.1548 86.0483 43.3529 84.0882 44.8031L85.2777 46.4109C87.4335 44.816 88.6989 43.2035 88.9978 41.2046L87.0198 40.9088ZM82.4033 39.432C83.9743 38.2697 83.773 36.2729 82.9195 35.1193L81.3117 36.3088C81.4956 36.5573 81.5906 36.8726 81.574 37.1557C81.5587 37.4175 81.4521 37.6478 81.2138 37.8241L82.4033 39.432ZM82.9195 35.1193C82.1487 34.0774 80.6749 33.7198 79.4467 34.6285L80.6362 36.2363C80.8098 36.1079 80.9402 36.1007 81.0212 36.1144C81.1134 36.13 81.2218 36.1872 81.3117 36.3088L82.9195 35.1193ZM79.4467 34.6285C77.9009 35.7721 78.0451 37.7445 78.9423 38.9573L80.5501 37.7678C80.1151 37.1798 80.2204 36.5439 80.6362 36.2363L79.4467 34.6285ZM78.9423 38.9573C79.3173 39.4641 79.8684 39.8253 80.5106 39.9276C81.1615 40.0314 81.8287 39.8571 82.4033 39.432L81.2138 37.8241C81.0327 37.9581 80.9007 37.9646 80.8254 37.9526C80.7413 37.9392 80.6391 37.888 80.5501 37.7678L78.9423 38.9573ZM89.2039 38.232L88.2737 38.5989L88.7515 39.8106L89.7987 39.0359L89.2039 38.232ZM85.0566 27.7166L84.4619 26.9127L83.8447 27.3693L84.1264 28.0835L85.0566 27.7166ZM88.7064 25.0164L89.6357 24.6472L89.156 23.4399L88.1116 24.2125L88.7064 25.0164ZM89.2258 26.3239L88.2965 26.6931L90.2246 26.3726L89.2258 26.3239ZM96.2631 25.5459L95.331 25.9082L95.3331 25.9134L96.2631 25.5459ZM98.5453 31.321L99.1401 32.1249L99.7577 31.6679L99.4753 30.9534L98.5453 31.321ZM94.8956 34.0211L93.965 34.3872L94.4422 35.6005L95.4903 34.825L94.8956 34.0211ZM92.8338 28.7795L91.8975 29.1305L91.9003 29.1381L91.9032 29.1456L92.8338 28.7795ZM90.7919 30.2902L89.8604 30.6538L89.8613 30.6562L90.7919 30.2902ZM92.8537 35.5318L93.4484 36.3357L94.065 35.8795L93.7843 35.1658L92.8537 35.5318ZM90.1342 37.8651L85.9869 27.3497L84.1264 28.0835L88.2737 38.5989L90.1342 37.8651ZM85.6514 28.5205L89.3011 25.8203L88.1116 24.2125L84.4619 26.9127L85.6514 28.5205ZM87.777 25.3857L88.2965 26.6931L90.1552 25.9546L89.6357 24.6472L87.777 25.3857ZM90.2246 26.3726C90.2689 25.4654 90.6776 24.4786 91.4778 23.8865L90.2883 22.2787C88.902 23.3044 88.2936 24.911 88.227 26.2751L90.2246 26.3726ZM91.4778 23.8865C92.1003 23.426 92.6406 23.3304 93.0861 23.4176C93.5484 23.5082 94.0719 23.8284 94.5738 24.5068L96.1817 23.3173C95.4703 22.3558 94.5504 21.6665 93.4706 21.4549C92.3741 21.2401 91.2737 21.5498 90.2883 22.2787L91.4778 23.8865ZM94.5738 24.5068C94.8507 24.8811 95.1133 25.348 95.331 25.9082L97.1951 25.1836C96.9172 24.4685 96.5709 23.8434 96.1817 23.3173L94.5738 24.5068ZM95.3331 25.9134L97.6153 31.6885L99.4753 30.9534L97.1931 25.1784L95.3331 25.9134ZM97.9506 30.517L94.3008 33.2172L95.4903 34.825L99.1401 32.1249L97.9506 30.517ZM95.8262 33.6551L93.7644 28.4135L91.9032 29.1456L93.965 34.3872L95.8262 33.6551ZM93.7702 28.4285C93.6355 28.0692 93.4329 27.7061 93.2465 27.4542L91.6387 28.6437C91.7141 28.7455 91.8277 28.9445 91.8975 29.1305L93.7702 28.4285ZM93.2465 27.4542C92.978 27.0913 92.5745 26.7431 92.0191 26.6425C91.4489 26.5392 90.9251 26.7336 90.5051 27.0442L91.6947 28.6521C91.7515 28.61 91.775 28.6055 91.7643 28.6086C91.7585 28.6103 91.7455 28.6133 91.7263 28.6145C91.7069 28.6156 91.6851 28.6146 91.6626 28.6105C91.6403 28.6064 91.6214 28.6002 91.6069 28.5939C91.5927 28.5877 91.5849 28.5824 91.5834 28.5813C91.5815 28.58 91.6025 28.5947 91.6387 28.6437L93.2465 27.4542ZM90.5051 27.0442C89.9351 27.466 89.5869 28.0377 89.5133 28.7384C89.4465 29.3754 89.6169 30.03 89.8604 30.6538L91.7235 29.9266C91.5224 29.4114 91.485 29.1127 91.5024 28.9472C91.5131 28.8455 91.5412 28.7656 91.6947 28.6521L90.5051 27.0442ZM89.8613 30.6562L91.9231 35.8978L93.7843 35.1658L91.7225 29.9242L89.8613 30.6562ZM92.2589 34.7279L88.6092 37.4281L89.7987 39.0359L93.4484 36.3357L92.2589 34.7279ZM53.3127 79.4386L54.1789 79.9383L54.5955 79.2161L53.96 78.6764L53.3127 79.4386ZM51.0348 83.3878L50.4087 84.1675L51.3182 84.8978L51.901 83.8874L51.0348 83.3878ZM52.2878 86.292L52.3195 85.2926L51.3312 85.2612L51.2887 86.2491L52.2878 86.292ZM56.4151 86.4231L57.415 86.4365L57.4282 85.4547L56.4468 85.4236L56.4151 86.4231ZM52.4791 91.8974C51.0642 92.9442 49.6187 93.3514 48.3372 93.2209C47.0689 93.0917 45.8547 92.4263 44.8881 91.1197L43.2803 92.3092C44.5499 94.0254 46.2549 95.0191 48.1346 95.2106C50.001 95.4007 51.9322 94.7899 53.6687 93.5052L52.4791 91.8974ZM44.8881 91.1197C42.8905 88.4197 42.5245 83.5887 46.8664 80.3764L45.6769 78.7686C40.3076 82.741 40.7339 88.8674 43.2803 92.3092L44.8881 91.1197ZM46.8664 80.3764C48.9855 78.8087 51.1361 78.902 52.6653 80.2008L53.96 78.6764C51.6068 76.6778 48.4135 76.744 45.6769 78.7686L46.8664 80.3764ZM52.4465 78.939L50.1686 82.8881L51.901 83.8874L54.1789 79.9383L52.4465 78.939ZM51.6609 82.608C51.0532 82.1201 50.3632 81.8459 49.6365 81.8396C48.9137 81.8333 48.2454 82.0928 47.6764 82.5138L48.866 84.1216C49.1491 83.9121 49.4031 83.8377 49.6192 83.8395C49.8315 83.8414 50.0972 83.9174 50.4087 84.1675L51.6609 82.608ZM47.6764 82.5138C45.416 84.1861 45.6029 87.2099 46.9696 89.0573L48.5774 87.8678C47.6603 86.6282 47.7499 84.9473 48.866 84.1216L47.6764 82.5138ZM46.9696 89.0573C47.5534 89.8464 48.3177 90.3581 49.1779 90.5004C50.0374 90.6427 50.8764 90.3963 51.5643 89.8874L50.3748 88.2796C50.0659 88.5081 49.7648 88.5703 49.5045 88.5273C49.2448 88.4843 48.9096 88.3167 48.5774 87.8678L46.9696 89.0573ZM51.5643 89.8874C52.7393 89.0181 53.2259 87.7546 53.2869 86.335L51.2887 86.2491C51.2459 87.2449 50.9362 87.8642 50.3748 88.2796L51.5643 89.8874ZM52.2561 87.2915L56.3833 87.4226L56.4468 85.4236L52.3195 85.2926L52.2561 87.2915ZM55.4151 86.4096C55.3881 88.4214 54.614 90.318 52.4791 91.8974L53.6687 93.5052C56.3251 91.5399 57.3798 89.0484 57.415 86.4365L55.4151 86.4096ZM60.7589 78.9552L61.1039 79.8938L62.0084 79.5613L61.7096 78.6452L60.7589 78.9552ZM60.7197 78.8349L61.6704 78.5249L61.6637 78.5042L61.656 78.4839L60.7197 78.8349ZM56.3716 80.6585L55.6963 81.396L56.5706 82.1966L57.2124 81.1999L56.3716 80.6585ZM54.0575 78.5393L53.254 77.9439L52.7174 78.6681L53.3821 79.2768L54.0575 78.5393ZM64.4514 76.4473L65.3814 76.0797L65.3788 76.0733L64.4514 76.4473ZM66.7336 82.2223L67.3284 83.0262L67.946 82.5693L67.6636 81.8548L66.7336 82.2223ZM63.0839 84.9225L62.1518 85.2848L62.6261 86.5051L63.6786 85.7264L63.0839 84.9225ZM62.6708 83.8598L63.6029 83.4975L62.4478 80.5255L61.6988 83.6249L62.6708 83.8598ZM61.6101 80.9128L60.6821 81.2854L60.6842 81.2905L61.6101 80.9128ZM61.433 80.4716L62.361 80.099L61.9904 79.1761L61.0654 79.5416L61.433 80.4716ZM60.4131 85.9531C59.9144 86.322 59.4221 86.4376 58.9991 86.3785C58.582 86.3203 58.1159 86.0762 57.692 85.5032L56.0842 86.6927C56.7784 87.6311 57.6969 88.2161 58.7225 88.3593C59.7422 88.5017 60.7507 88.1911 61.6026 87.5609L60.4131 85.9531ZM57.692 85.5032C57.178 84.8086 57.0507 84.0894 57.2437 83.373C57.4452 82.625 58.0284 81.7713 59.1458 80.9447L57.9563 79.3368C56.5977 80.342 55.6655 81.5424 55.3125 82.8528C54.951 84.1949 55.2302 85.5384 56.0842 86.6927L57.692 85.5032ZM59.1458 80.9447C59.7273 80.5145 60.3896 80.1563 61.1039 79.8938L60.4139 78.0166C59.5243 78.3435 58.6933 78.7916 57.9563 79.3368L59.1458 80.9447ZM61.7096 78.6452L61.6704 78.5249L59.7689 79.1449L59.8082 79.2652L61.7096 78.6452ZM61.656 78.4839C61.5811 78.2839 61.4422 77.9956 61.2667 77.7585L59.6589 78.948C59.6723 78.9661 59.6968 79.0045 59.7254 79.0593C59.7532 79.1127 59.7735 79.1599 59.7833 79.1859L61.656 78.4839ZM61.2667 77.7585C60.8786 77.2339 60.2966 76.9266 59.6028 76.9694C58.9924 77.007 58.4105 77.3091 57.8871 77.6963L59.0766 79.3042C59.4695 79.0134 59.676 78.9687 59.7258 78.9656C59.7356 78.965 59.7103 78.9671 59.6737 78.9493C59.6397 78.9327 59.6376 78.9191 59.6589 78.948L61.2667 77.7585ZM57.8871 77.6963C57.0103 78.345 56.0393 79.3276 55.5309 80.1171L57.2124 81.1999C57.5607 80.659 58.3455 79.845 59.0766 79.3042L57.8871 77.6963ZM57.047 79.921L54.7328 77.8018L53.3821 79.2768L55.6963 81.396L57.047 79.921ZM54.8609 79.1347C55.5212 78.2436 56.7104 77.0991 57.9249 76.2006L56.7353 74.5927C55.4095 75.5737 54.0627 76.8526 53.254 77.9439L54.8609 79.1347ZM57.9249 76.2006C59.2975 75.1851 60.3678 74.8031 61.1453 74.7867C61.8587 74.7717 62.4298 75.0599 62.9042 75.7011L64.512 74.5116C63.6899 73.4004 62.5271 72.7572 61.1032 72.7872C59.7433 72.8158 58.2729 73.4553 56.7353 74.5927L57.9249 76.2006ZM62.9042 75.7011C63.1275 76.0029 63.347 76.3825 63.5239 76.8212L65.3788 76.0733C65.1385 75.4773 64.8359 74.9494 64.512 74.5116L62.9042 75.7011ZM63.5214 76.8148L65.8036 82.5899L67.6636 81.8548L65.3814 76.0797L63.5214 76.8148ZM66.1389 81.4184L62.4891 84.1186L63.6786 85.7264L67.3284 83.0262L66.1389 81.4184ZM64.016 84.5602L63.6029 83.4975L61.7388 84.2221L62.1518 85.2848L64.016 84.5602ZM61.6988 83.6249C61.4165 84.7932 61.1404 85.415 60.4131 85.9531L61.6026 87.5609C62.9012 86.6001 63.3249 85.4105 63.6429 84.0947L61.6988 83.6249ZM61.8367 84.1783C62.3988 83.7625 62.6835 83.1164 62.78 82.5042C62.8788 81.8777 62.8012 81.1851 62.536 80.535L60.6842 81.2905C60.8166 81.615 60.8444 81.9392 60.8044 82.1928C60.7622 82.4607 60.664 82.5581 60.6472 82.5705L61.8367 84.1783ZM62.5381 80.5402L62.361 80.099L60.505 80.8442L60.6821 81.2853L62.5381 80.5402ZM61.0654 79.5416C60.7181 79.6789 60.4197 79.8281 60.0916 80.0708L61.2811 81.6786C61.4353 81.5645 61.5703 81.4926 61.8005 81.4016L61.0654 79.5416ZM60.0916 80.0708C59.5185 80.4948 59.0525 81.048 58.8859 81.7338C58.7111 82.4533 58.9078 83.145 59.3317 83.7179L60.9395 82.5284C60.8043 82.3457 60.8181 82.2522 60.8294 82.2059C60.8488 82.1259 60.9377 81.9327 61.2811 81.6786L60.0916 80.0708ZM59.3317 83.7179C59.6104 84.0947 60.0031 84.3963 60.4948 84.4926C60.9948 84.5906 61.4694 84.4501 61.8367 84.1783L60.6472 82.5705C60.6588 82.562 60.6866 82.5448 60.7315 82.5336C60.7778 82.522 60.8296 82.5202 60.8793 82.5299C60.9855 82.5508 60.9939 82.6019 60.9395 82.5284L59.3317 83.7179ZM70.1151 67.8785L69.7624 68.8143L71.8719 69.6093L71.0454 67.5119L70.1151 67.8785ZM68.187 62.9858L67.5923 62.1819L66.9753 62.6384L67.2567 63.3524L68.187 62.9858ZM71.8368 60.2856L72.767 59.9185L72.2889 58.7072L71.242 59.4817L71.8368 60.2856ZM77.3849 74.3422L77.9797 75.1461L78.597 74.6894L78.3151 73.9751L77.3849 74.3422ZM73.7352 77.0424L72.8048 77.4089L73.2824 78.6213L74.3299 77.8463L73.7352 77.0424ZM73.3102 75.9636L74.2407 75.5971L72.8376 72.0353L72.3194 75.8282L73.3102 75.9636ZM71.028 78.1247C70.4721 78.536 69.8091 78.6865 69.1357 78.548C68.4587 78.4089 67.6969 77.96 67.0151 77.0384L65.4072 78.2279C66.3313 79.4769 67.4954 80.2527 68.733 80.5071C69.974 80.7622 71.2139 80.475 72.2175 79.7325L71.028 78.1247ZM67.0151 77.0384C64.844 74.1038 65.1815 70.7075 67.15 69.2512L65.9605 67.6433C62.784 69.9934 62.8441 74.7634 65.4072 78.2279L67.0151 77.0384ZM67.15 69.2512C68.1176 68.5353 68.9946 68.5249 69.7624 68.8143L70.4677 66.9428C69.0967 66.4261 67.5011 66.5036 65.9605 67.6433L67.15 69.2512ZM71.0454 67.5119L69.1174 62.6192L67.2567 63.3524L69.1847 68.2451L71.0454 67.5119ZM68.7818 63.7897L72.4315 61.0895L71.242 59.4817L67.5923 62.1819L68.7818 63.7897ZM70.9066 60.6528L76.4548 74.7094L78.3151 73.9751L72.767 59.9185L70.9066 60.6528ZM76.7902 73.5383L73.1404 76.2385L74.3299 77.8463L77.9797 75.1461L76.7902 73.5383ZM74.6656 76.6759L74.2407 75.5971L72.3798 76.3301L72.8048 77.4089L74.6656 76.6759ZM72.3194 75.8282C72.1989 76.7106 71.7116 77.619 71.028 78.1247L72.2175 79.7325C73.399 78.8585 74.1191 77.4307 74.301 76.099L72.3194 75.8282ZM71.9463 75.3307C73.5167 74.1689 73.3977 72.0129 72.4128 70.6816L70.805 71.8711C71.3426 72.5978 71.1802 73.4097 70.7568 73.7229L71.9463 75.3307ZM72.4128 70.6816C72.0003 70.1241 71.4284 69.7413 70.7728 69.6275C70.1145 69.5132 69.455 69.6854 68.9126 70.0867L70.1021 71.6945C70.235 71.5962 70.3467 71.5835 70.4306 71.598C70.5172 71.6131 70.6584 71.673 70.805 71.8711L72.4128 70.6816ZM68.9126 70.0867C67.3422 71.2485 67.4612 73.4045 68.4462 74.7358L70.054 73.5462C69.5163 72.8195 69.6788 72.0077 70.1021 71.6945L68.9126 70.0867ZM68.4462 74.7358C68.8586 75.2933 69.4305 75.676 70.0862 75.7899C70.7444 75.9042 71.4039 75.732 71.9463 75.3307L70.7568 73.7229C70.624 73.8212 70.5122 73.8339 70.4283 73.8193C70.3418 73.8043 70.2006 73.7444 70.054 73.5462L68.4462 74.7358ZM80.0561 66.8928L79.4614 66.0889L78.6008 66.7256L79.2945 67.5408L80.0561 66.8928ZM83.4881 65.0752L83.6807 64.0939L82.7823 63.9175L82.5276 64.7969L83.4881 65.0752ZM86.5442 65.6752L87.5226 65.8819L87.7323 64.8894L86.7369 64.6939L86.5442 65.6752ZM85.6996 62.7176L86.2943 63.5215L86.8797 63.0884L86.6472 62.3984L85.6996 62.7176ZM79.0917 65.1184L78.138 65.4191L78.5595 66.7561L79.6865 65.9223L79.0917 65.1184ZM81.5677 63.2866L82.1625 64.0905L82.7196 63.6783L82.5293 63.012L81.5677 63.2866ZM79.2945 67.5408C79.7082 68.027 80.2682 68.3899 80.9458 68.4652C81.6241 68.5406 82.2742 68.3118 82.8376 67.895L81.6481 66.2872C81.3915 66.477 81.234 66.4849 81.1668 66.4775C81.099 66.4699 80.9756 66.4303 80.8177 66.2447L79.2945 67.5408ZM82.8376 67.895C83.671 67.2784 84.1474 66.3932 84.4486 65.3534L82.5276 64.7969C82.2968 65.5937 82.0045 66.0235 81.6481 66.2872L82.8376 67.895ZM83.2954 66.0565L86.3516 66.6565L86.7369 64.6939L83.6807 64.0939L83.2954 66.0565ZM85.5658 65.4685C85.2693 66.8722 84.576 68.1016 83.2458 69.0857L84.4353 70.6935C86.1922 69.3937 87.1339 67.7218 87.5226 65.8819L85.5658 65.4685ZM83.2458 69.0857C82.066 69.9586 80.9431 70.2586 79.9973 70.162C79.0631 70.0666 78.183 69.5732 77.4807 68.624L75.8729 69.8135C76.8716 71.1634 78.2389 71.9928 79.7941 72.1516C81.3377 72.3093 82.9462 71.7952 84.4353 70.6935L83.2458 69.0857ZM77.4807 68.624C75.7842 66.3308 75.8253 62.833 78.6604 60.7355L77.4709 59.1277C73.6174 61.9786 73.6203 66.7686 75.8729 69.8135L77.4807 68.624ZM78.6604 60.7355C79.9098 59.8112 80.9383 59.6905 81.7414 59.885C82.5844 60.0893 83.3486 60.6832 83.9396 61.4821L85.5474 60.2926C84.7705 59.2424 83.6428 58.2879 82.2124 57.9413C80.742 57.585 79.1155 57.9109 77.4709 59.1277L78.6604 60.7355ZM83.9396 61.4821C84.3033 61.9737 84.5758 62.5141 84.7519 63.0368L86.6472 62.3984C86.4074 61.6864 86.0402 60.9586 85.5474 60.2926L83.9396 61.4821ZM85.1048 61.9137L79.4614 66.0889L80.6509 67.6967L86.2943 63.5215L85.1048 61.9137ZM79.6865 65.9223L82.1625 64.0905L80.973 62.4827L78.4969 64.3145L79.6865 65.9223ZM82.5293 63.012C82.441 62.7027 82.296 62.4551 82.1505 62.2584L80.5427 63.4479C80.5875 63.5085 80.6007 63.5418 80.6062 63.5612L82.5293 63.012ZM82.1505 62.2584C81.4992 61.3781 80.1969 61.0168 79.1133 61.8185L80.3028 63.4263C80.3487 63.3924 80.3808 63.3815 80.3971 63.3776C80.4138 63.3736 80.427 63.3738 80.4391 63.376C80.4658 63.3808 80.5076 63.4005 80.5427 63.4479L82.1505 62.2584ZM79.1133 61.8185C78.2175 62.4812 77.6239 63.7887 78.138 65.4191L80.0454 64.8177C79.7835 63.9871 80.1053 63.5724 80.3028 63.4263L79.1133 61.8185ZM87.0643 61.8821L86.1346 62.2504L86.1373 62.2573L86.1401 62.2641L87.0643 61.8821ZM85.8602 58.8421L86.7899 58.4739L86.3109 57.2647L85.2654 58.0382L85.8602 58.8421ZM84.8312 59.6034L83.9005 59.9693L84.3776 61.1829L85.4259 60.4073L84.8312 59.6034ZM83.5052 56.2307L82.9104 55.4268L82.294 55.8829L82.5745 56.5966L83.5052 56.2307ZM84.5342 55.4694L85.129 56.2733L85.7446 55.8179L85.4654 55.1048L84.5342 55.4694ZM83.4995 52.8266L82.9047 52.0227L82.2891 52.4781L82.5683 53.1911L83.4995 52.8266ZM87.1492 50.1264L88.0804 49.7618L87.6043 48.5458L86.5545 49.3225L87.1492 50.1264ZM88.184 52.7692L87.2528 53.1338L87.7289 54.3498L88.7787 53.5731L88.184 52.7692ZM90.2098 51.2704L91.1405 50.9046L90.6634 49.691L89.6151 50.4665L90.2098 51.2704ZM91.5358 54.6432L92.1305 55.4471L92.747 54.991L92.4664 54.2773L91.5358 54.6432ZM89.5099 56.142L88.9152 55.3381L88.2965 55.7958L88.5805 56.511L89.5099 56.142ZM90.4032 58.3919L91.337 58.0339L91.3326 58.0228L90.4032 58.3919ZM92.8646 58.188L93.794 57.8189L93.1476 56.1913L92.0744 57.5751L92.8646 58.188ZM94.2773 61.7453L95.0531 62.3763L95.4232 61.9213L95.2067 61.3762L94.2773 61.7453ZM92.0239 62.5666C91.0739 63.2694 90.3856 63.4908 89.9084 63.477C89.4922 63.4649 89.0597 63.2677 88.5954 62.6401L86.9876 63.8296C87.7128 64.8099 88.6648 65.4417 89.8504 65.4761C90.9749 65.5088 92.1054 64.9941 93.2134 64.1744L92.0239 62.5666ZM88.5954 62.6401C88.3883 62.3603 88.1918 61.9921 87.9885 61.5001L86.1401 62.2641C86.3778 62.839 86.6474 63.3699 86.9876 63.8296L88.5954 62.6401ZM87.994 61.5138L86.7899 58.4739L84.9304 59.2104L86.1346 62.2504L87.994 61.5138ZM85.2654 58.0382L84.2364 58.7995L85.4259 60.4073L86.4549 59.6461L85.2654 58.0382ZM85.7618 59.2375L84.4359 55.8648L82.5745 56.5966L83.9005 59.9693L85.7618 59.2375ZM84.1 57.0346L85.129 56.2733L83.9395 54.6655L82.9104 55.4268L84.1 57.0346ZM85.4654 55.1048L84.4306 52.462L82.5683 53.1911L83.603 55.834L85.4654 55.1048ZM84.0942 53.6305L87.744 50.9303L86.5545 49.3225L82.9047 52.0227L84.0942 53.6305ZM86.218 50.491L87.2528 53.1338L89.1151 52.4046L88.0804 49.7618L86.218 50.491ZM88.7787 53.5731L90.8046 52.0744L89.6151 50.4665L87.5892 51.9653L88.7787 53.5731ZM89.2791 51.6363L90.6051 55.0091L92.4664 54.2773L91.1405 50.9046L89.2791 51.6363ZM90.941 53.8393L88.9152 55.3381L90.1047 56.9459L92.1305 55.4471L90.941 53.8393ZM88.5805 56.511L89.4738 58.7609L91.3326 58.0228L90.4393 55.773L88.5805 56.511ZM89.4694 58.7498C89.6214 59.1462 89.7824 59.4695 89.9863 59.7452L91.5942 58.5557C91.5364 58.4776 91.4524 58.3353 91.337 58.034L89.4694 58.7498ZM89.9863 59.7452C90.2507 60.1024 90.6703 60.4233 91.2503 60.4392C91.7663 60.4534 92.2082 60.2161 92.5409 59.9699L91.3514 58.3621C91.2701 58.4222 91.2236 58.4444 91.2096 58.4501C91.1974 58.455 91.2334 58.438 91.3054 58.44C91.3846 58.4422 91.4641 58.4663 91.5279 58.5046C91.5849 58.5388 91.6036 58.5684 91.5942 58.5557L89.9863 59.7452ZM92.5409 59.9699C92.9438 59.6718 93.2331 59.3445 93.6548 58.8008L92.0744 57.5751C91.6812 58.0821 91.5274 58.2319 91.3514 58.3621L92.5409 59.9699ZM91.9352 58.5571L93.348 62.1144L95.2067 61.3762L93.794 57.8189L91.9352 58.5571ZM93.5016 61.1143C93.0306 61.6933 92.5501 62.1773 92.0239 62.5666L93.2134 64.1744C93.9092 63.6597 94.5079 63.0467 95.0531 62.3763L93.5016 61.1143Z" fill="#E3C906" mask="url(#path-18-outside-1_208_465)"/>
</svg>
