<svg width="174" height="152" viewBox="0 0 174 152" fill="none" xmlns="http://www.w3.org/2000/svg">
<path d="M97.6078 151.2C139.361 151.2 173.208 117.353 173.208 75.6C173.208 33.8473 139.361 0 97.6078 0C55.8551 0 22.0078 33.8473 22.0078 75.6C22.0078 117.353 55.8551 151.2 97.6078 151.2Z" fill="#F8D14F"/>
<path d="M139.207 58.4998C138.507 55.9998 137.507 53.5998 136.307 51.2998C132.707 44.5998 129.007 45.9998 122.607 46.9998C116.007 47.9998 109.607 49.8998 103.307 52.1998C98.607 53.8998 93.707 55.8998 89.807 59.0998C85.807 62.3998 84.807 66.4998 82.107 70.4998L43.707 128.5C57.407 142.5 76.507 151.2 97.707 151.2C105.007 151.2 112.107 150.1 118.707 148.2C121.607 141.4 124.507 134.5 127.407 127.7C129.907 121.9 132.207 115.9 134.807 110.2C136.307 107 138.807 104.8 139.907 101.4C141.807 95.5998 141.507 88.8998 141.507 82.8998C141.507 74.6998 141.507 66.1998 139.207 58.4998Z" fill="#E28B74"/>
<path d="M137.306 105.3C136.406 105.4 123.806 108.4 107.906 102.3C124.706 122.9 127.206 128.3 127.206 128.3L137.306 105.3Z" fill="#C16452"/>
<path d="M133.206 107.4C133.206 107.4 158.006 90.8998 164.006 82.1998L165.406 72.4998C165.806 69.4998 163.206 66.8998 160.206 67.3998L157.806 67.7998C156.306 68.0998 155.106 68.9998 154.506 70.3998L151.306 77.5998C149.506 72.8998 145.506 70.3998 140.806 69.1998C140.206 68.9998 139.906 68.3998 140.206 67.8998C140.506 67.3998 140.806 66.8998 141.006 66.6998C143.206 64.9998 145.506 61.4998 147.906 57.3998L151.706 64.9998C153.306 67.1998 156.106 68.0998 158.706 67.4998H159.106C162.906 66.5998 164.806 62.7998 163.806 58.9998L162.406 53.2998C161.106 48.0998 155.706 43.9998 150.306 44.1998L133.506 47.8998L133.806 18.9998C133.606 15.0998 130.306 12.1998 126.406 12.4998C123.106 12.7998 120.506 15.3998 120.206 18.5998L118.106 39.5998L113.706 20.7998C112.806 16.8998 108.906 14.5998 105.006 15.6998L104.806 15.7998C101.406 16.7998 99.3063 20.0998 99.9063 23.5998L102.706 41.4998L94.8063 27.3998C93.1063 24.4998 89.5063 23.3998 86.5063 24.7998C83.9063 25.9998 82.4063 28.7998 82.8063 31.5998L87.4063 63.5998L88.9063 80.4998L94.5063 98.0998L133.206 107.4Z" fill="#E28B74"/>
<path d="M127.007 107.4C123.407 107.4 120.507 106.8 120.307 106.7L120.507 105.7C120.607 105.7 132.007 108.2 137.707 103.2L138.407 104C135.307 106.8 130.807 107.4 127.007 107.4Z" fill="#263E65"/>
<path d="M133.007 91.9997H132.007C132.407 70.3997 108.507 57.6997 108.207 57.4997L108.007 57.3997L99.3066 35.0997L100.207 34.6997L108.807 56.6997C111.007 57.8997 133.307 70.7997 133.007 91.9997Z" fill="#263E65"/>
<path d="M108.307 56.3998L107.707 55.5998C107.807 55.4998 118.207 48.3998 131.407 50.9998L131.207 51.9998C118.507 49.3998 108.407 56.2998 108.307 56.3998Z" fill="#263E65"/>
<path d="M117.529 32.9601L116.559 33.2026L121.069 51.2465L122.039 51.004L117.529 32.9601Z" fill="#263E65"/>
<path d="M150.808 77.9999C147.708 73.2999 144.108 70.4999 140.208 69.7999C135.408 68.8999 131.608 71.6999 131.608 71.6999L131.008 70.8999C131.208 70.7999 135.108 67.8999 140.408 68.7999C144.608 69.4999 148.408 72.3999 151.608 77.3999L150.808 77.9999Z" fill="#263E65"/>
<mask id="path-10-outside-1_208_487" maskUnits="userSpaceOnUse" x="10" y="79" width="107" height="43" fill="black">
<rect fill="white" x="10" y="79" width="107" height="43"/>
<path d="M29.5694 95.3C25.6494 95.3 22.9294 92.92 22.9294 89.16C22.9294 85.34 25.8694 80.7 31.9094 80.7C34.9294 80.7 37.0694 82.3 37.6494 84.78L33.4694 86.6C33.1694 85.46 32.3494 84.9 31.2894 84.9C29.1894 84.9 27.8294 86.82 27.8294 88.74C27.8294 90.28 28.7894 91.14 30.0294 91.14C31.1094 91.14 31.9894 90.62 32.7494 89.68L35.9894 92.24C34.5894 94.08 32.5494 95.3 29.5694 95.3ZM42.3853 95.26C38.9453 95.26 36.9253 93.02 36.9253 90.18C36.9253 86.84 39.6653 83.82 43.4653 83.82C46.9053 83.82 48.9253 86.06 48.9253 88.9C48.9253 92.24 46.1853 95.26 42.3853 95.26ZM42.6653 91.56C43.8053 91.56 44.6453 90.4 44.6453 89.1C44.6453 88.18 44.0653 87.52 43.1853 87.52C42.0453 87.52 41.2053 88.68 41.2053 89.98C41.2053 90.9 41.7853 91.56 42.6653 91.56ZM48.5202 95L51.4402 84.08H55.9802L55.6202 85.44C56.3402 84.56 57.5202 83.82 58.8802 83.82C60.8802 83.82 62.0002 85.12 62.0002 87.16C62.0002 87.72 61.9202 88.34 61.7402 89L60.1402 95H55.6002L57.0602 89.56C57.1402 89.28 57.1802 88.96 57.1802 88.74C57.1802 88.16 56.8802 87.78 56.2202 87.78C55.3202 87.78 54.8402 88.38 54.5202 89.56L53.0602 95H48.5202ZM66.7927 95.24C64.2327 95.24 62.9927 94.26 62.9927 92.26C62.9927 91.8 63.0727 91.3 63.2127 90.74L64.0527 87.58H62.7727L63.7127 84.08H64.9927L65.7327 81.34H70.2727L69.5327 84.08H72.0527L71.1127 87.58H68.5927L67.9727 89.92C67.8727 90.28 67.8327 90.54 67.8327 90.76C67.8327 91.22 68.1127 91.46 68.7527 91.46C69.1127 91.46 69.4327 91.4 70.0727 91.22L69.0927 94.92C68.3127 95.12 67.5527 95.24 66.7927 95.24ZM75.3017 90.6C75.3617 91.48 75.9217 92.06 76.9417 92.06C77.6817 92.06 78.3817 91.76 79.1417 91.18L81.2417 93.48C80.0017 94.58 78.4817 95.26 76.5617 95.26C73.2417 95.26 71.2017 93.32 71.2017 90.46C71.2017 87.14 73.6817 83.82 77.8417 83.82C81.4417 83.82 82.6417 86.26 82.6417 88.56C82.6417 89.28 82.5217 89.98 82.3217 90.6H75.3017ZM75.5817 88.6H78.6617C78.7217 88.44 78.7417 88.28 78.7417 88.12C78.7417 87.52 78.3017 86.96 77.5617 86.96C76.8817 86.96 76.0017 87.38 75.5817 88.6ZM82.0358 95L84.9558 84.08H89.4958L89.1358 85.44C89.8558 84.56 91.0358 83.82 92.3958 83.82C94.3958 83.82 95.5158 85.12 95.5158 87.16C95.5158 87.72 95.4358 88.34 95.2558 89L93.6558 95H89.1158L90.5758 89.56C90.6558 89.28 90.6958 88.96 90.6958 88.74C90.6958 88.16 90.3958 87.78 89.7358 87.78C88.8358 87.78 88.3558 88.38 88.0358 89.56L86.5758 95H82.0358ZM100.308 95.24C97.7483 95.24 96.5083 94.26 96.5083 92.26C96.5083 91.8 96.5883 91.3 96.7283 90.74L97.5683 87.58H96.2883L97.2283 84.08H98.5083L99.2483 81.34H103.788L103.048 84.08H105.568L104.628 87.58H102.108L101.488 89.92C101.388 90.28 101.348 90.54 101.348 90.76C101.348 91.22 101.628 91.46 102.268 91.46C102.628 91.46 102.948 91.4 103.588 91.22L102.608 94.92C101.828 95.12 101.068 95.24 100.308 95.24ZM18.8098 117.28C16.0298 117.28 13.6098 116.28 11.9098 114.74L14.5898 111.54C16.1898 112.88 17.8298 113.52 19.3098 113.52C19.9098 113.52 20.3298 113.3 20.3298 112.9C20.3298 112.46 20.0698 112.32 18.0298 111.56C15.4298 110.6 14.2098 109.68 14.2098 107.62C14.2098 104.92 16.6898 102.72 20.5098 102.72C23.0098 102.72 25.2298 103.52 26.7498 104.82L24.0698 108.02C23.0098 107.16 21.5098 106.46 20.0298 106.46C19.4298 106.46 19.0098 106.62 19.0098 107.02C19.0098 107.44 19.3098 107.52 21.2498 108.24C23.6298 109.12 25.1498 110.12 25.1498 112.26C25.1498 115.08 22.8298 117.28 18.8098 117.28ZM30.2009 117.24C27.6409 117.24 26.4009 116.26 26.4009 114.26C26.4009 113.8 26.4809 113.3 26.6209 112.74L27.4609 109.58H26.1809L27.1209 106.08H28.4009L29.1409 103.34H33.6809L32.9409 106.08H35.4609L34.5209 109.58H32.0009L31.3809 111.92C31.2809 112.28 31.2409 112.54 31.2409 112.76C31.2409 113.22 31.5209 113.46 32.1609 113.46C32.5209 113.46 32.8409 113.4 33.4809 113.22L32.5009 116.92C31.7209 117.12 30.9609 117.24 30.2009 117.24ZM33.6276 117L36.5476 106.08H41.0876L40.5076 108.28C41.5276 106.8 42.7876 105.84 44.5476 105.92L43.2676 110.74H42.7876C40.6476 110.74 39.5076 111.88 38.8876 114.28L38.1676 117H33.6276ZM45.6451 117.24C43.9651 117.24 42.7251 116.14 42.7251 114.26C42.7251 111.96 44.5251 110.46 47.6051 110.46C48.4251 110.46 49.2651 110.58 50.0851 110.82L50.1251 110.7C50.1651 110.56 50.2051 110.34 50.2051 110.16C50.2051 109.48 49.6651 109.1 48.5251 109.1C47.5251 109.1 46.2851 109.3 45.5451 109.58L44.9451 106.5C46.1251 106.14 47.8651 105.92 49.4451 105.92C53.0651 105.92 54.7451 107.3 54.7451 109.48C54.7451 109.94 54.6851 110.46 54.5451 111L52.9451 117H48.4051L48.7051 115.9C47.7251 116.72 46.9051 117.24 45.6451 117.24ZM47.8451 114.66C48.5651 114.66 49.3451 113.92 49.6051 112.9L49.7251 112.44C49.4251 112.36 49.1851 112.32 48.8851 112.32C47.7451 112.32 47.1051 112.86 47.1051 113.8C47.1051 114.36 47.4251 114.66 47.8451 114.66ZM59.5368 117.24C56.9768 117.24 55.7368 116.26 55.7368 114.26C55.7368 113.8 55.8168 113.3 55.9568 112.74L56.7968 109.58H55.5168L56.4568 106.08H57.7368L58.4768 103.34H63.0168L62.2768 106.08H64.7968L63.8568 109.58H61.3368L60.7168 111.92C60.6168 112.28 60.5768 112.54 60.5768 112.76C60.5768 113.22 60.8568 113.46 61.4968 113.46C61.8568 113.46 62.1768 113.4 62.8168 113.22L61.8368 116.92C61.0568 117.12 60.2968 117.24 59.5368 117.24ZM68.0459 112.6C68.1059 113.48 68.6659 114.06 69.6859 114.06C70.4259 114.06 71.1259 113.76 71.8859 113.18L73.9859 115.48C72.7459 116.58 71.2259 117.26 69.3059 117.26C65.9859 117.26 63.9459 115.32 63.9459 112.46C63.9459 109.14 66.4259 105.82 70.5859 105.82C74.1859 105.82 75.3859 108.26 75.3859 110.56C75.3859 111.28 75.2659 111.98 75.0659 112.6H68.0459ZM68.3259 110.6H71.4059C71.4659 110.44 71.4859 110.28 71.4859 110.12C71.4859 109.52 71.0459 108.96 70.3059 108.96C69.6259 108.96 68.7459 109.38 68.3259 110.6ZM80.0599 120.24C78.0599 120.24 75.7199 119.6 74.3399 118.76L76.1399 116.12C77.4399 116.86 78.8599 117.18 79.9399 117.18C80.9399 117.18 81.5999 116.94 82.1199 116.42C82.4599 116.08 82.7399 115.58 82.9199 114.88L82.9599 114.72C82.1399 115.48 81.0799 115.96 79.7399 115.96C77.8999 115.96 76.0199 114.64 76.0199 112.22C76.0199 109.08 78.0399 105.84 81.4999 105.84C82.9599 105.84 84.1599 106.56 84.7999 107.5L85.1799 106.08H89.7199L87.4199 114.66C86.9599 116.38 86.3599 117.64 85.4399 118.56C84.2799 119.72 82.6199 120.24 80.0599 120.24ZM81.8999 112.92C83.1399 112.92 83.8799 111.82 83.8799 110.76C83.8799 109.98 83.3199 109.3 82.3799 109.3C81.1599 109.3 80.3999 110.36 80.3999 111.48C80.3999 112.26 80.9599 112.92 81.8999 112.92ZM91.1807 105.3L91.9607 102.4H96.6607L95.8807 105.3H91.1807ZM88.1207 117L91.0407 106.08H95.5807L92.6607 117H88.1207ZM99.6964 117.26C97.2164 117.26 95.1963 116.46 93.8563 115.44L95.8563 112.84C96.8364 113.62 98.5364 114.32 99.7764 114.32C100.236 114.32 100.416 114.14 100.416 113.94C100.416 113.58 100.076 113.4 98.7164 112.9C96.9564 112.26 95.7363 111.46 95.7363 109.74C95.7363 107.56 97.5764 105.82 100.856 105.82C103.056 105.82 104.916 106.48 106.016 107.32L104.016 109.92C103.176 109.34 101.776 108.76 100.696 108.76C100.196 108.76 99.9764 108.9 99.9764 109.12C99.9764 109.42 100.216 109.54 101.556 110.02C103.296 110.64 104.656 111.4 104.656 113.32C104.656 115.14 103.376 117.26 99.6964 117.26ZM109.908 117.24C107.348 117.24 106.108 116.26 106.108 114.26C106.108 113.8 106.188 113.3 106.328 112.74L107.168 109.58H105.888L106.828 106.08H108.108L108.848 103.34H113.388L112.648 106.08H115.168L114.228 109.58H111.708L111.088 111.92C110.988 112.28 110.948 112.54 110.948 112.76C110.948 113.22 111.228 113.46 111.868 113.46C112.228 113.46 112.548 113.4 113.188 113.22L112.208 116.92C111.428 117.12 110.668 117.24 109.908 117.24Z"/>
</mask>
<path d="M29.5694 95.3C25.6494 95.3 22.9294 92.92 22.9294 89.16C22.9294 85.34 25.8694 80.7 31.9094 80.7C34.9294 80.7 37.0694 82.3 37.6494 84.78L33.4694 86.6C33.1694 85.46 32.3494 84.9 31.2894 84.9C29.1894 84.9 27.8294 86.82 27.8294 88.74C27.8294 90.28 28.7894 91.14 30.0294 91.14C31.1094 91.14 31.9894 90.62 32.7494 89.68L35.9894 92.24C34.5894 94.08 32.5494 95.3 29.5694 95.3ZM42.3853 95.26C38.9453 95.26 36.9253 93.02 36.9253 90.18C36.9253 86.84 39.6653 83.82 43.4653 83.82C46.9053 83.82 48.9253 86.06 48.9253 88.9C48.9253 92.24 46.1853 95.26 42.3853 95.26ZM42.6653 91.56C43.8053 91.56 44.6453 90.4 44.6453 89.1C44.6453 88.18 44.0653 87.52 43.1853 87.52C42.0453 87.52 41.2053 88.68 41.2053 89.98C41.2053 90.9 41.7853 91.56 42.6653 91.56ZM48.5202 95L51.4402 84.08H55.9802L55.6202 85.44C56.3402 84.56 57.5202 83.82 58.8802 83.82C60.8802 83.82 62.0002 85.12 62.0002 87.16C62.0002 87.72 61.9202 88.34 61.7402 89L60.1402 95H55.6002L57.0602 89.56C57.1402 89.28 57.1802 88.96 57.1802 88.74C57.1802 88.16 56.8802 87.78 56.2202 87.78C55.3202 87.78 54.8402 88.38 54.5202 89.56L53.0602 95H48.5202ZM66.7927 95.24C64.2327 95.24 62.9927 94.26 62.9927 92.26C62.9927 91.8 63.0727 91.3 63.2127 90.74L64.0527 87.58H62.7727L63.7127 84.08H64.9927L65.7327 81.34H70.2727L69.5327 84.08H72.0527L71.1127 87.58H68.5927L67.9727 89.92C67.8727 90.28 67.8327 90.54 67.8327 90.76C67.8327 91.22 68.1127 91.46 68.7527 91.46C69.1127 91.46 69.4327 91.4 70.0727 91.22L69.0927 94.92C68.3127 95.12 67.5527 95.24 66.7927 95.24ZM75.3017 90.6C75.3617 91.48 75.9217 92.06 76.9417 92.06C77.6817 92.06 78.3817 91.76 79.1417 91.18L81.2417 93.48C80.0017 94.58 78.4817 95.26 76.5617 95.26C73.2417 95.26 71.2017 93.32 71.2017 90.46C71.2017 87.14 73.6817 83.82 77.8417 83.82C81.4417 83.82 82.6417 86.26 82.6417 88.56C82.6417 89.28 82.5217 89.98 82.3217 90.6H75.3017ZM75.5817 88.6H78.6617C78.7217 88.44 78.7417 88.28 78.7417 88.12C78.7417 87.52 78.3017 86.96 77.5617 86.96C76.8817 86.96 76.0017 87.38 75.5817 88.6ZM82.0358 95L84.9558 84.08H89.4958L89.1358 85.44C89.8558 84.56 91.0358 83.82 92.3958 83.82C94.3958 83.82 95.5158 85.12 95.5158 87.16C95.5158 87.72 95.4358 88.34 95.2558 89L93.6558 95H89.1158L90.5758 89.56C90.6558 89.28 90.6958 88.96 90.6958 88.74C90.6958 88.16 90.3958 87.78 89.7358 87.78C88.8358 87.78 88.3558 88.38 88.0358 89.56L86.5758 95H82.0358ZM100.308 95.24C97.7483 95.24 96.5083 94.26 96.5083 92.26C96.5083 91.8 96.5883 91.3 96.7283 90.74L97.5683 87.58H96.2883L97.2283 84.08H98.5083L99.2483 81.34H103.788L103.048 84.08H105.568L104.628 87.58H102.108L101.488 89.92C101.388 90.28 101.348 90.54 101.348 90.76C101.348 91.22 101.628 91.46 102.268 91.46C102.628 91.46 102.948 91.4 103.588 91.22L102.608 94.92C101.828 95.12 101.068 95.24 100.308 95.24ZM18.8098 117.28C16.0298 117.28 13.6098 116.28 11.9098 114.74L14.5898 111.54C16.1898 112.88 17.8298 113.52 19.3098 113.52C19.9098 113.52 20.3298 113.3 20.3298 112.9C20.3298 112.46 20.0698 112.32 18.0298 111.56C15.4298 110.6 14.2098 109.68 14.2098 107.62C14.2098 104.92 16.6898 102.72 20.5098 102.72C23.0098 102.72 25.2298 103.52 26.7498 104.82L24.0698 108.02C23.0098 107.16 21.5098 106.46 20.0298 106.46C19.4298 106.46 19.0098 106.62 19.0098 107.02C19.0098 107.44 19.3098 107.52 21.2498 108.24C23.6298 109.12 25.1498 110.12 25.1498 112.26C25.1498 115.08 22.8298 117.28 18.8098 117.28ZM30.2009 117.24C27.6409 117.24 26.4009 116.26 26.4009 114.26C26.4009 113.8 26.4809 113.3 26.6209 112.74L27.4609 109.58H26.1809L27.1209 106.08H28.4009L29.1409 103.34H33.6809L32.9409 106.08H35.4609L34.5209 109.58H32.0009L31.3809 111.92C31.2809 112.28 31.2409 112.54 31.2409 112.76C31.2409 113.22 31.5209 113.46 32.1609 113.46C32.5209 113.46 32.8409 113.4 33.4809 113.22L32.5009 116.92C31.7209 117.12 30.9609 117.24 30.2009 117.24ZM33.6276 117L36.5476 106.08H41.0876L40.5076 108.28C41.5276 106.8 42.7876 105.84 44.5476 105.92L43.2676 110.74H42.7876C40.6476 110.74 39.5076 111.88 38.8876 114.28L38.1676 117H33.6276ZM45.6451 117.24C43.9651 117.24 42.7251 116.14 42.7251 114.26C42.7251 111.96 44.5251 110.46 47.6051 110.46C48.4251 110.46 49.2651 110.58 50.0851 110.82L50.1251 110.7C50.1651 110.56 50.2051 110.34 50.2051 110.16C50.2051 109.48 49.6651 109.1 48.5251 109.1C47.5251 109.1 46.2851 109.3 45.5451 109.58L44.9451 106.5C46.1251 106.14 47.8651 105.92 49.4451 105.92C53.0651 105.92 54.7451 107.3 54.7451 109.48C54.7451 109.94 54.6851 110.46 54.5451 111L52.9451 117H48.4051L48.7051 115.9C47.7251 116.72 46.9051 117.24 45.6451 117.24ZM47.8451 114.66C48.5651 114.66 49.3451 113.92 49.6051 112.9L49.7251 112.44C49.4251 112.36 49.1851 112.32 48.8851 112.32C47.7451 112.32 47.1051 112.86 47.1051 113.8C47.1051 114.36 47.4251 114.66 47.8451 114.66ZM59.5368 117.24C56.9768 117.24 55.7368 116.26 55.7368 114.26C55.7368 113.8 55.8168 113.3 55.9568 112.74L56.7968 109.58H55.5168L56.4568 106.08H57.7368L58.4768 103.34H63.0168L62.2768 106.08H64.7968L63.8568 109.58H61.3368L60.7168 111.92C60.6168 112.28 60.5768 112.54 60.5768 112.76C60.5768 113.22 60.8568 113.46 61.4968 113.46C61.8568 113.46 62.1768 113.4 62.8168 113.22L61.8368 116.92C61.0568 117.12 60.2968 117.24 59.5368 117.24ZM68.0459 112.6C68.1059 113.48 68.6659 114.06 69.6859 114.06C70.4259 114.06 71.1259 113.76 71.8859 113.18L73.9859 115.48C72.7459 116.58 71.2259 117.26 69.3059 117.26C65.9859 117.26 63.9459 115.32 63.9459 112.46C63.9459 109.14 66.4259 105.82 70.5859 105.82C74.1859 105.82 75.3859 108.26 75.3859 110.56C75.3859 111.28 75.2659 111.98 75.0659 112.6H68.0459ZM68.3259 110.6H71.4059C71.4659 110.44 71.4859 110.28 71.4859 110.12C71.4859 109.52 71.0459 108.96 70.3059 108.96C69.6259 108.96 68.7459 109.38 68.3259 110.6ZM80.0599 120.24C78.0599 120.24 75.7199 119.6 74.3399 118.76L76.1399 116.12C77.4399 116.86 78.8599 117.18 79.9399 117.18C80.9399 117.18 81.5999 116.94 82.1199 116.42C82.4599 116.08 82.7399 115.58 82.9199 114.88L82.9599 114.72C82.1399 115.48 81.0799 115.96 79.7399 115.96C77.8999 115.96 76.0199 114.64 76.0199 112.22C76.0199 109.08 78.0399 105.84 81.4999 105.84C82.9599 105.84 84.1599 106.56 84.7999 107.5L85.1799 106.08H89.7199L87.4199 114.66C86.9599 116.38 86.3599 117.64 85.4399 118.56C84.2799 119.72 82.6199 120.24 80.0599 120.24ZM81.8999 112.92C83.1399 112.92 83.8799 111.82 83.8799 110.76C83.8799 109.98 83.3199 109.3 82.3799 109.3C81.1599 109.3 80.3999 110.36 80.3999 111.48C80.3999 112.26 80.9599 112.92 81.8999 112.92ZM91.1807 105.3L91.9607 102.4H96.6607L95.8807 105.3H91.1807ZM88.1207 117L91.0407 106.08H95.5807L92.6607 117H88.1207ZM99.6964 117.26C97.2164 117.26 95.1963 116.46 93.8563 115.44L95.8563 112.84C96.8364 113.62 98.5364 114.32 99.7764 114.32C100.236 114.32 100.416 114.14 100.416 113.94C100.416 113.58 100.076 113.4 98.7164 112.9C96.9564 112.26 95.7363 111.46 95.7363 109.74C95.7363 107.56 97.5764 105.82 100.856 105.82C103.056 105.82 104.916 106.48 106.016 107.32L104.016 109.92C103.176 109.34 101.776 108.76 100.696 108.76C100.196 108.76 99.9764 108.9 99.9764 109.12C99.9764 109.42 100.216 109.54 101.556 110.02C103.296 110.64 104.656 111.4 104.656 113.32C104.656 115.14 103.376 117.26 99.6964 117.26ZM109.908 117.24C107.348 117.24 106.108 116.26 106.108 114.26C106.108 113.8 106.188 113.3 106.328 112.74L107.168 109.58H105.888L106.828 106.08H108.108L108.848 103.34H113.388L112.648 106.08H115.168L114.228 109.58H111.708L111.088 111.92C110.988 112.28 110.948 112.54 110.948 112.76C110.948 113.22 111.228 113.46 111.868 113.46C112.228 113.46 112.548 113.4 113.188 113.22L112.208 116.92C111.428 117.12 110.668 117.24 109.908 117.24Z" fill="#263E65"/>
<path d="M37.6494 84.78L38.0486 85.6969L38.813 85.364L38.6231 84.5523L37.6494 84.78ZM33.4694 86.6L32.5023 86.8545L32.7992 87.9825L33.8686 87.5169L33.4694 86.6ZM32.7494 89.68L33.3693 88.8954L32.5935 88.2823L31.9718 89.0513L32.7494 89.68ZM35.9894 92.24L36.7852 92.8455L37.3798 92.0641L36.6093 91.4554L35.9894 92.24ZM29.5694 94.3C27.8093 94.3 26.4051 93.7676 25.4525 92.9005C24.5097 92.0423 23.9294 90.7853 23.9294 89.16H21.9294C21.9294 91.2947 22.709 93.1077 24.1062 94.3795C25.4937 95.6424 27.4094 96.3 29.5694 96.3V94.3ZM23.9294 89.16C23.9294 85.8014 26.5084 81.7 31.9094 81.7V79.7C25.2304 79.7 21.9294 84.8786 21.9294 89.16H23.9294ZM31.9094 81.7C34.5453 81.7 36.2187 83.054 36.6757 85.0077L38.6231 84.5523C37.92 81.546 35.3135 79.7 31.9094 79.7V81.7ZM37.2502 83.8631L33.0702 85.6831L33.8686 87.5169L38.0486 85.6969L37.2502 83.8631ZM34.4365 86.3455C34.2381 85.5919 33.8465 84.961 33.2661 84.5238C32.6887 84.0888 31.9972 83.9 31.2894 83.9V85.9C31.6416 85.9 31.8901 85.9912 32.0627 86.1212C32.2322 86.249 32.4006 86.4681 32.5023 86.8545L34.4365 86.3455ZM31.2894 83.9C28.4776 83.9 26.8294 86.442 26.8294 88.74H28.8294C28.8294 87.198 29.9011 85.9 31.2894 85.9V83.9ZM26.8294 88.74C26.8294 89.7216 27.1395 90.5875 27.7464 91.2135C28.3527 91.839 29.1737 92.14 30.0294 92.14V90.14C29.6451 90.14 29.3661 90.011 29.1824 89.8215C28.9993 89.6325 28.8294 89.2984 28.8294 88.74H26.8294ZM30.0294 92.14C31.491 92.14 32.6337 91.4137 33.527 90.3087L31.9718 89.0513C31.3451 89.8263 30.7277 90.14 30.0294 90.14V92.14ZM32.1294 90.4646L35.3694 93.0246L36.6093 91.4554L33.3693 88.8954L32.1294 90.4646ZM35.1936 91.6345C33.9752 93.2357 32.225 94.3 29.5694 94.3V96.3C32.8738 96.3 35.2035 94.9243 36.7852 92.8455L35.1936 91.6345ZM42.3853 94.26C40.8882 94.26 39.787 93.7771 39.0647 93.0703C38.3407 92.3617 37.9253 91.3584 37.9253 90.18H35.9253C35.9253 91.8416 36.52 93.3783 37.6659 94.4997C38.8137 95.6229 40.4425 96.26 42.3853 96.26V94.26ZM37.9253 90.18C37.9253 87.3822 40.2277 84.82 43.4653 84.82V82.82C39.103 82.82 35.9253 86.2978 35.9253 90.18H37.9253ZM43.4653 84.82C44.9625 84.82 46.0637 85.3029 46.7859 86.0097C47.51 86.7183 47.9253 87.7216 47.9253 88.9H49.9253C49.9253 87.2384 49.3307 85.7017 48.1847 84.5803C47.037 83.4571 45.4082 82.82 43.4653 82.82V84.82ZM47.9253 88.9C47.9253 91.6978 45.623 94.26 42.3853 94.26V96.26C46.7477 96.26 49.9253 92.7822 49.9253 88.9H47.9253ZM42.6653 92.56C44.5757 92.56 45.6453 90.7055 45.6453 89.1H43.6453C43.6453 90.0946 43.035 90.56 42.6653 90.56V92.56ZM45.6453 89.1C45.6453 88.4311 45.4326 87.7835 44.9847 87.2917C44.529 86.7913 43.8897 86.52 43.1853 86.52V88.52C43.361 88.52 43.4517 88.5787 43.506 88.6383C43.5681 88.7065 43.6453 88.8489 43.6453 89.1H45.6453ZM43.1853 86.52C41.275 86.52 40.2053 88.3746 40.2053 89.98H42.2053C42.2053 88.9855 42.8157 88.52 43.1853 88.52V86.52ZM40.2053 89.98C40.2053 90.6489 40.4181 91.2965 40.866 91.7883C41.3217 92.2887 41.961 92.56 42.6653 92.56V90.56C42.4897 90.56 42.399 90.5013 42.3447 90.4417C42.2826 90.3735 42.2053 90.2311 42.2053 89.98H40.2053ZM48.5202 95L47.5541 94.7417L47.2176 96H48.5202V95ZM51.4402 84.08V83.08H50.6724L50.4741 83.8217L51.4402 84.08ZM55.9802 84.08L56.9469 84.3359L57.2793 83.08H55.9802V84.08ZM55.6202 85.44L54.6535 85.1841L56.3941 86.0732L55.6202 85.44ZM61.7402 89L60.7754 88.7369L60.7739 88.7423L61.7402 89ZM60.1402 95V96H60.9084L61.1064 95.2577L60.1402 95ZM55.6002 95L54.6343 94.7408L54.2964 96H55.6002V95ZM57.0602 89.56L56.0986 89.2853L56.0964 89.293L56.0943 89.3008L57.0602 89.56ZM54.5202 89.56L53.555 89.2983L53.5543 89.3008L54.5202 89.56ZM53.0602 95V96H53.8272L54.026 95.2592L53.0602 95ZM49.4862 95.2583L52.4062 84.3383L50.4741 83.8217L47.5541 94.7417L49.4862 95.2583ZM51.4402 85.08H55.9802V83.08H51.4402V85.08ZM55.0135 83.8241L54.6535 85.1841L56.5869 85.6959L56.9469 84.3359L55.0135 83.8241ZM56.3941 86.0732C56.9693 85.3703 57.8847 84.82 58.8802 84.82V82.82C57.1557 82.82 55.7111 83.7497 54.8462 84.8068L56.3941 86.0732ZM58.8802 84.82C59.6545 84.82 60.1457 85.0644 60.452 85.3996C60.7698 85.7473 61.0002 86.3161 61.0002 87.16H63.0002C63.0002 85.9639 62.6706 84.8627 61.9284 84.0504C61.1747 83.2256 60.1058 82.82 58.8802 82.82V84.82ZM61.0002 87.16C61.0002 87.6255 60.9335 88.1571 60.7754 88.7369L62.7049 89.2631C62.9068 88.5229 63.0002 87.8145 63.0002 87.16H61.0002ZM60.7739 88.7423L59.1739 94.7423L61.1064 95.2577L62.7064 89.2577L60.7739 88.7423ZM60.1402 94H55.6002V96H60.1402V94ZM56.566 95.2592L58.026 89.8192L56.0943 89.3008L54.6343 94.7408L56.566 95.2592ZM58.0217 89.8347C58.1271 89.4658 58.1802 89.0533 58.1802 88.74H56.1802C56.1802 88.8667 56.1532 89.0942 56.0986 89.2853L58.0217 89.8347ZM58.1802 88.74C58.1802 88.2886 58.0628 87.7687 57.6762 87.3575C57.2792 86.9353 56.7425 86.78 56.2202 86.78V88.78C56.2908 88.78 56.3125 88.7903 56.302 88.7865C56.2964 88.7844 56.284 88.7791 56.2679 88.7686C56.2516 88.758 56.2348 88.7442 56.2192 88.7275C56.2036 88.711 56.1921 88.6947 56.1842 88.681C56.1765 88.6676 56.1734 88.6588 56.1728 88.657C56.1721 88.6547 56.1802 88.6791 56.1802 88.74H58.1802ZM56.2202 86.78C55.5111 86.78 54.8911 87.0325 54.4153 87.5521C53.9826 88.0244 53.7303 88.652 53.555 89.2983L55.4853 89.8217C55.63 89.288 55.7777 89.0256 55.8901 88.9029C55.9592 88.8275 56.0292 88.78 56.2202 88.78V86.78ZM53.5543 89.3008L52.0943 94.7408L54.026 95.2592L55.486 89.8192L53.5543 89.3008ZM53.0602 94H48.5202V96H53.0602V94ZM63.2127 90.74L62.2462 90.4831L62.2443 90.4903L62.2425 90.4975L63.2127 90.74ZM64.0527 87.58L65.0191 87.8369L65.3532 86.58H64.0527V87.58ZM62.7727 87.58L61.8069 87.3206L61.4687 88.58H62.7727V87.58ZM63.7127 84.08V83.08H62.9458L62.7469 83.8206L63.7127 84.08ZM64.9927 84.08V85.08H65.7584L65.9581 84.3407L64.9927 84.08ZM65.7327 81.34V80.34H64.9669L64.7673 81.0793L65.7327 81.34ZM70.2727 81.34L71.2381 81.6007L71.5786 80.34H70.2727V81.34ZM69.5327 84.08L68.5673 83.8193L68.2268 85.08H69.5327V84.08ZM72.0527 84.08L73.0184 84.3394L73.3567 83.08H72.0527V84.08ZM71.1127 87.58V88.58H71.8795L72.0784 87.8394L71.1127 87.58ZM68.5927 87.58V86.58H67.8231L67.626 87.3239L68.5927 87.58ZM67.9727 89.92L68.9363 90.1877L68.9393 90.1761L67.9727 89.92ZM70.0727 91.22L71.0393 91.476L71.4877 89.7832L69.8019 90.2574L70.0727 91.22ZM69.0927 94.92L69.341 95.8887L69.9092 95.743L70.0593 95.176L69.0927 94.92ZM66.7927 94.24C65.611 94.24 64.9259 94.0087 64.5505 93.7137C64.2231 93.4564 63.9927 93.0406 63.9927 92.26H61.9927C61.9927 93.4794 62.3822 94.5536 63.3148 95.2863C64.1994 95.9813 65.4144 96.24 66.7927 96.24V94.24ZM63.9927 92.26C63.9927 91.9119 64.0537 91.499 64.1828 90.9825L62.2425 90.4975C62.0916 91.101 61.9927 91.6881 61.9927 92.26H63.9927ZM64.1791 90.9969L65.0191 87.8369L63.0862 87.3231L62.2462 90.4831L64.1791 90.9969ZM64.0527 86.58H62.7727V88.58H64.0527V86.58ZM63.7384 87.8394L64.6784 84.3394L62.7469 83.8206L61.8069 87.3206L63.7384 87.8394ZM63.7127 85.08H64.9927V83.08H63.7127V85.08ZM65.9581 84.3407L66.6981 81.6007L64.7673 81.0793L64.0273 83.8193L65.9581 84.3407ZM65.7327 82.34H70.2727V80.34H65.7327V82.34ZM69.3073 81.0793L68.5673 83.8193L70.4981 84.3407L71.2381 81.6007L69.3073 81.0793ZM69.5327 85.08H72.0527V83.08H69.5327V85.08ZM71.0869 83.8206L70.1469 87.3206L72.0784 87.8394L73.0184 84.3394L71.0869 83.8206ZM71.1127 86.58H68.5927V88.58H71.1127V86.58ZM67.626 87.3239L67.006 89.6639L68.9393 90.1761L69.5593 87.8361L67.626 87.3239ZM67.0092 89.6524C66.8955 90.0615 66.8327 90.4171 66.8327 90.76H68.8327C68.8327 90.6629 68.8498 90.4985 68.9362 90.1876L67.0092 89.6524ZM66.8327 90.76C66.8327 91.2044 66.9792 91.7119 67.436 92.0697C67.8423 92.388 68.3388 92.46 68.7527 92.46V90.46C68.6515 90.46 68.6009 90.4501 68.5864 90.4464C68.5736 90.4431 68.6126 90.4509 68.6693 90.4953C68.7317 90.5441 68.7812 90.6108 68.8098 90.6795C68.8353 90.7409 68.8327 90.7759 68.8327 90.76H66.8327ZM68.7527 92.46C69.2538 92.46 69.6811 92.3689 70.3434 92.1827L69.8019 90.2574C69.1842 90.4311 68.9715 90.46 68.7527 90.46V92.46ZM69.106 90.964L68.126 94.664L70.0593 95.176L71.0393 91.476L69.106 90.964ZM68.8443 93.9513C68.1214 94.1367 67.4472 94.24 66.7927 94.24V96.24C67.6581 96.24 68.504 96.1033 69.341 95.8887L68.8443 93.9513ZM75.3017 90.6V89.6H74.2312L74.3041 90.668L75.3017 90.6ZM79.1417 91.18L79.8802 90.5057L79.2629 89.8296L78.5351 90.3851L79.1417 91.18ZM81.2417 93.48L81.9054 94.2281L82.6642 93.5549L81.9802 92.8057L81.2417 93.48ZM82.3217 90.6V91.6H83.0499L83.2734 90.907L82.3217 90.6ZM75.5817 88.6L74.6362 88.2745L74.1799 89.6H75.5817V88.6ZM78.6617 88.6V89.6H79.3547L79.5981 88.9511L78.6617 88.6ZM74.3041 90.668C74.3475 91.3049 74.5818 91.9297 75.0818 92.3933C75.5822 92.8573 76.2409 93.06 76.9417 93.06V91.06C76.6226 91.06 76.4912 90.9727 76.4417 90.9267C76.3917 90.8803 76.316 90.7751 76.2994 90.532L74.3041 90.668ZM76.9417 93.06C77.9785 93.06 78.8878 92.6317 79.7484 91.975L78.5351 90.3851C77.8756 90.8883 77.385 91.06 76.9417 91.06V93.06ZM78.4033 91.8543L80.5033 94.1543L81.9802 92.8057L79.8802 90.5057L78.4033 91.8543ZM80.5781 92.7319C79.5049 93.684 78.2163 94.26 76.5617 94.26V96.26C78.7471 96.26 80.4986 95.476 81.9054 94.2281L80.5781 92.7319ZM76.5617 94.26C75.0941 94.26 74.0129 93.8333 73.3101 93.1932C72.6158 92.5608 72.2017 91.6408 72.2017 90.46H70.2017C70.2017 92.1392 70.8076 93.6192 71.9634 94.6718C73.1105 95.7167 74.7094 96.26 76.5617 96.26V94.26ZM72.2017 90.46C72.2017 87.6075 74.3151 84.82 77.8417 84.82V82.82C73.0483 82.82 70.2017 86.6725 70.2017 90.46H72.2017ZM77.8417 84.82C79.3959 84.82 80.2945 85.3347 80.8244 85.9687C81.3806 86.6343 81.6417 87.5663 81.6417 88.56H83.6417C83.6417 87.2537 83.3029 85.8157 82.3591 84.6863C81.3889 83.5253 79.8876 82.82 77.8417 82.82V84.82ZM81.6417 88.56C81.6417 89.1715 81.5394 89.768 81.37 90.293L83.2734 90.907C83.5041 90.192 83.6417 89.3885 83.6417 88.56H81.6417ZM82.3217 89.6H75.3017V91.6H82.3217V89.6ZM75.5817 89.6H78.6617V87.6H75.5817V89.6ZM79.5981 88.9511C79.711 88.65 79.7417 88.3646 79.7417 88.12H77.7417C77.7417 88.1954 77.7325 88.23 77.7254 88.2489L79.5981 88.9511ZM79.7417 88.12C79.7417 87.025 78.9096 85.96 77.5617 85.96V87.96C77.6188 87.96 77.6511 87.9704 77.6665 87.9769C77.6823 87.9837 77.6928 87.9917 77.7013 88.0006C77.7198 88.0203 77.7417 88.0611 77.7417 88.12H79.7417ZM77.5617 85.96C76.4474 85.96 75.1927 86.658 74.6362 88.2745L76.5273 88.9255C76.8108 88.102 77.3161 87.96 77.5617 87.96V85.96ZM82.0358 95L81.0697 94.7417L80.7333 96H82.0358V95ZM84.9558 84.08V83.08H84.1881L83.9897 83.8217L84.9558 84.08ZM89.4958 84.08L90.4625 84.3359L90.795 83.08H89.4958V84.08ZM89.1358 85.44L88.1691 85.1841L89.9098 86.0732L89.1358 85.44ZM95.2558 89L94.291 88.7369L94.2896 88.7423L95.2558 89ZM93.6558 95V96H94.4241L94.622 95.2577L93.6558 95ZM89.1158 95L88.15 94.7408L87.812 96H89.1158V95ZM90.5758 89.56L89.6143 89.2853L89.6121 89.293L89.61 89.3008L90.5758 89.56ZM88.0358 89.56L87.0707 89.2983L87.07 89.3008L88.0358 89.56ZM86.5758 95V96H87.3428L87.5416 95.2592L86.5758 95ZM83.0019 95.2583L85.9219 84.3383L83.9897 83.8217L81.0697 94.7417L83.0019 95.2583ZM84.9558 85.08H89.4958V83.08H84.9558V85.08ZM88.5291 83.8241L88.1691 85.1841L90.1025 85.6959L90.4625 84.3359L88.5291 83.8241ZM89.9098 86.0732C90.4849 85.3703 91.4003 84.82 92.3958 84.82V82.82C90.6713 82.82 89.2267 83.7497 88.3618 84.8068L89.9098 86.0732ZM92.3958 84.82C93.1701 84.82 93.6613 85.0644 93.9676 85.3996C94.2854 85.7473 94.5158 86.3161 94.5158 87.16H96.5158C96.5158 85.9639 96.1862 84.8627 95.444 84.0504C94.6903 83.2256 93.6215 82.82 92.3958 82.82V84.82ZM94.5158 87.16C94.5158 87.6255 94.4492 88.1571 94.291 88.7369L96.2206 89.2631C96.4224 88.5229 96.5158 87.8145 96.5158 87.16H94.5158ZM94.2896 88.7423L92.6896 94.7423L94.622 95.2577L96.222 89.2577L94.2896 88.7423ZM93.6558 94H89.1158V96H93.6558V94ZM90.0816 95.2592L91.5416 89.8192L89.61 89.3008L88.15 94.7408L90.0816 95.2592ZM91.5373 89.8347C91.6427 89.4658 91.6958 89.0533 91.6958 88.74H89.6958C89.6958 88.8667 89.6689 89.0942 89.6143 89.2853L91.5373 89.8347ZM91.6958 88.74C91.6958 88.2886 91.5785 87.7687 91.1918 87.3575C90.7949 86.9353 90.2582 86.78 89.7358 86.78V88.78C89.8065 88.78 89.8281 88.7903 89.8176 88.7865C89.812 88.7844 89.7997 88.7791 89.7836 88.7686C89.7673 88.758 89.7504 88.7442 89.7348 88.7275C89.7192 88.711 89.7077 88.6947 89.6999 88.681C89.6921 88.6676 89.689 88.6588 89.6884 88.657C89.6877 88.6547 89.6958 88.6791 89.6958 88.74H91.6958ZM89.7358 86.78C89.0267 86.78 88.4068 87.0325 87.9309 87.5521C87.4983 88.0244 87.2459 88.652 87.0707 89.2983L89.0009 89.8217C89.1457 89.288 89.2933 89.0256 89.4057 88.9029C89.4748 88.8275 89.5449 88.78 89.7358 88.78V86.78ZM87.07 89.3008L85.61 94.7408L87.5416 95.2592L89.0016 89.8192L87.07 89.3008ZM86.5758 94H82.0358V96H86.5758V94ZM96.7283 90.74L95.7619 90.4831L95.76 90.4903L95.7582 90.4975L96.7283 90.74ZM97.5683 87.58L98.5347 87.8369L98.8689 86.58H97.5683V87.58ZM96.2883 87.58L95.3225 87.3206L94.9843 88.58H96.2883V87.58ZM97.2283 84.08V83.08H96.4614L96.2625 83.8206L97.2283 84.08ZM98.5083 84.08V85.08H99.2741L99.4737 84.3407L98.5083 84.08ZM99.2483 81.34V80.34H98.4825L98.2829 81.0793L99.2483 81.34ZM103.788 81.34L104.754 81.6007L105.094 80.34H103.788V81.34ZM103.048 84.08L102.083 83.8193L101.742 85.08H103.048V84.08ZM105.568 84.08L106.534 84.3394L106.872 83.08H105.568V84.08ZM104.628 87.58V88.58H105.395L105.594 87.8394L104.628 87.58ZM102.108 87.58V86.58H101.339L101.142 87.3239L102.108 87.58ZM101.488 89.92L102.452 90.1877L102.455 90.1761L101.488 89.92ZM103.588 91.22L104.555 91.476L105.003 89.7832L103.318 90.2574L103.588 91.22ZM102.608 94.92L102.857 95.8887L103.425 95.743L103.575 95.176L102.608 94.92ZM100.308 94.24C99.1266 94.24 98.4415 94.0087 98.0661 93.7137C97.7387 93.4564 97.5083 93.0406 97.5083 92.26H95.5083C95.5083 93.4794 95.8979 94.5536 96.8305 95.2863C97.7151 95.9813 98.93 96.24 100.308 96.24V94.24ZM97.5083 92.26C97.5083 91.9119 97.5693 91.499 97.6984 90.9825L95.7582 90.4975C95.6073 91.101 95.5083 91.6881 95.5083 92.26H97.5083ZM97.6947 90.9969L98.5347 87.8369L96.6019 87.3231L95.7619 90.4831L97.6947 90.9969ZM97.5683 86.58H96.2883V88.58H97.5683V86.58ZM97.2541 87.8394L98.1941 84.3394L96.2625 83.8206L95.3225 87.3206L97.2541 87.8394ZM97.2283 85.08H98.5083V83.08H97.2283V85.08ZM99.4737 84.3407L100.214 81.6007L98.2829 81.0793L97.5429 83.8193L99.4737 84.3407ZM99.2483 82.34H103.788V80.34H99.2483V82.34ZM102.823 81.0793L102.083 83.8193L104.014 84.3407L104.754 81.6007L102.823 81.0793ZM103.048 85.08H105.568V83.08H103.048V85.08ZM104.603 83.8206L103.663 87.3206L105.594 87.8394L106.534 84.3394L104.603 83.8206ZM104.628 86.58H102.108V88.58H104.628V86.58ZM101.142 87.3239L100.522 89.6639L102.455 90.1761L103.075 87.8361L101.142 87.3239ZM100.525 89.6524C100.411 90.0615 100.348 90.4171 100.348 90.76H102.348C102.348 90.6629 102.365 90.4985 102.452 90.1876L100.525 89.6524ZM100.348 90.76C100.348 91.2044 100.495 91.7119 100.952 92.0697C101.358 92.388 101.854 92.46 102.268 92.46V90.46C102.167 90.46 102.117 90.4501 102.102 90.4464C102.089 90.4431 102.128 90.4509 102.185 90.4953C102.247 90.5441 102.297 90.6108 102.325 90.6795C102.351 90.7409 102.348 90.7759 102.348 90.76H100.348ZM102.268 92.46C102.769 92.46 103.197 92.3689 103.859 92.1827L103.318 90.2574C102.7 90.4311 102.487 90.46 102.268 90.46V92.46ZM102.622 90.964L101.642 94.664L103.575 95.176L104.555 91.476L102.622 90.964ZM102.36 93.9513C101.637 94.1367 100.963 94.24 100.308 94.24V96.24C101.174 96.24 102.02 96.1033 102.857 95.8887L102.36 93.9513ZM11.9098 114.74L11.1431 114.098L10.5255 114.835L11.2384 115.481L11.9098 114.74ZM14.5898 111.54L15.2318 110.773L14.4652 110.131L13.8231 110.898L14.5898 111.54ZM18.0298 111.56L18.3789 110.623L18.3761 110.622L18.0298 111.56ZM26.7498 104.82L27.5164 105.462L28.1519 104.703L27.3997 104.06L26.7498 104.82ZM24.0698 108.02L23.4397 108.797L24.2043 109.417L24.8364 108.662L24.0698 108.02ZM21.2498 108.24L20.9018 109.178L20.903 109.178L21.2498 108.24ZM18.8098 116.28C16.2707 116.28 14.0919 115.367 12.5811 113.999L11.2384 115.481C13.1276 117.193 15.7889 118.28 18.8098 118.28V116.28ZM12.6764 115.382L15.3564 112.182L13.8231 110.898L11.1431 114.098L12.6764 115.382ZM13.9477 112.307C15.6792 113.757 17.5387 114.52 19.3098 114.52V112.52C18.1209 112.52 16.7004 112.003 15.2318 110.773L13.9477 112.307ZM19.3098 114.52C19.7111 114.52 20.1614 114.45 20.5486 114.224C20.9755 113.975 21.3298 113.52 21.3298 112.9H19.3298C19.3298 112.816 19.3543 112.718 19.4103 112.63C19.4625 112.548 19.5199 112.508 19.5409 112.496C19.5603 112.485 19.5548 112.492 19.5101 112.502C19.4668 112.512 19.4004 112.52 19.3098 112.52V114.52ZM21.3298 112.9C21.3298 112.685 21.297 112.378 21.0967 112.068C20.9154 111.788 20.662 111.61 20.4453 111.484C20.0348 111.247 19.3632 110.99 18.3789 110.623L17.6807 112.497C18.7364 112.89 19.2148 113.083 19.4443 113.216C19.5476 113.275 19.4867 113.262 19.4179 113.155C19.3301 113.02 19.3298 112.895 19.3298 112.9H21.3298ZM18.3761 110.622C17.0936 110.148 16.3092 109.736 15.8389 109.283C15.429 108.887 15.2098 108.415 15.2098 107.62H13.2098C13.2098 108.885 13.6006 109.903 14.4506 110.722C15.2403 111.484 16.3659 112.012 17.6834 112.498L18.3761 110.622ZM15.2098 107.62C15.2098 105.66 17.0332 103.72 20.5098 103.72V101.72C16.3463 101.72 13.2098 104.18 13.2098 107.62H15.2098ZM20.5098 103.72C22.806 103.72 24.7855 104.456 26.0998 105.58L27.3997 104.06C25.674 102.584 23.2136 101.72 20.5098 101.72V103.72ZM25.9831 104.178L23.3031 107.378L24.8364 108.662L27.5164 105.462L25.9831 104.178ZM24.6998 107.243C23.5161 106.283 21.8007 105.46 20.0298 105.46V107.46C21.2189 107.46 22.5034 108.037 23.4397 108.797L24.6998 107.243ZM20.0298 105.46C19.6702 105.46 19.2322 105.503 18.8476 105.696C18.6434 105.798 18.4255 105.956 18.2595 106.199C18.0879 106.45 18.0098 106.735 18.0098 107.02H20.0098C20.0098 107.105 19.9841 107.22 19.9101 107.328C19.8415 107.429 19.7662 107.472 19.742 107.484C19.7204 107.495 19.7289 107.487 19.7865 107.477C19.8416 107.467 19.9218 107.46 20.0298 107.46V105.46ZM18.0098 107.02C18.0098 107.258 18.0564 107.58 18.2873 107.887C18.4844 108.149 18.7472 108.306 18.9467 108.408C19.333 108.605 19.9803 108.835 20.9018 109.178L21.5977 107.302C20.5793 106.925 20.1066 106.755 19.8579 106.627C19.7398 106.567 19.8064 106.579 19.8866 106.686C20.0006 106.838 20.0098 106.992 20.0098 107.02H18.0098ZM20.903 109.178C22.0686 109.609 22.8869 110.024 23.4128 110.511C23.8887 110.952 24.1498 111.472 24.1498 112.26H26.1498C26.1498 110.908 25.6508 109.858 24.7718 109.044C23.9427 108.276 22.8109 107.751 21.5966 107.302L20.903 109.178ZM24.1498 112.26C24.1498 113.377 23.6985 114.349 22.8469 115.059C21.9834 115.779 20.6425 116.28 18.8098 116.28V118.28C20.9971 118.28 22.8262 117.681 24.1276 116.596C25.441 115.501 26.1498 113.963 26.1498 112.26H24.1498ZM26.6209 112.74L25.6544 112.483L25.6525 112.49L25.6507 112.497L26.6209 112.74ZM27.4609 109.58L28.4273 109.837L28.7614 108.58H27.4609V109.58ZM26.1809 109.58L25.2151 109.321L24.8769 110.58H26.1809V109.58ZM27.1209 106.08V105.08H26.354L26.1551 105.821L27.1209 106.08ZM28.4009 106.08V107.08H29.1666L29.3663 106.341L28.4009 106.08ZM29.1409 103.34V102.34H28.3751L28.1755 103.079L29.1409 103.34ZM33.6809 103.34L34.6463 103.601L34.9868 102.34H33.6809V103.34ZM32.9409 106.08L31.9755 105.819L31.635 107.08H32.9409V106.08ZM35.4609 106.08L36.4266 106.339L36.7649 105.08H35.4609V106.08ZM34.5209 109.58V110.58H35.2877L35.4866 109.839L34.5209 109.58ZM32.0009 109.58V108.58H31.2313L31.0342 109.324L32.0009 109.58ZM31.3809 111.92L32.3445 112.188L32.3475 112.176L31.3809 111.92ZM33.4809 113.22L34.4475 113.476L34.8959 111.783L33.2101 112.257L33.4809 113.22ZM32.5009 116.92L32.7492 117.889L33.3174 117.743L33.4675 117.176L32.5009 116.92ZM30.2009 116.24C29.0192 116.24 28.3341 116.009 27.9587 115.714C27.6313 115.456 27.4009 115.041 27.4009 114.26H25.4009C25.4009 115.479 25.7904 116.554 26.723 117.286C27.6076 117.981 28.8226 118.24 30.2009 118.24V116.24ZM27.4009 114.26C27.4009 113.912 27.4619 113.499 27.591 112.983L25.6507 112.497C25.4998 113.101 25.4009 113.688 25.4009 114.26H27.4009ZM27.5873 112.997L28.4273 109.837L26.4944 109.323L25.6544 112.483L27.5873 112.997ZM27.4609 108.58H26.1809V110.58H27.4609V108.58ZM27.1466 109.839L28.0866 106.339L26.1551 105.821L25.2151 109.321L27.1466 109.839ZM27.1209 107.08H28.4009V105.08H27.1209V107.08ZM29.3663 106.341L30.1063 103.601L28.1755 103.079L27.4355 105.819L29.3663 106.341ZM29.1409 104.34H33.6809V102.34H29.1409V104.34ZM32.7155 103.079L31.9755 105.819L33.9063 106.341L34.6463 103.601L32.7155 103.079ZM32.9409 107.08H35.4609V105.08H32.9409V107.08ZM34.4951 105.821L33.5551 109.321L35.4866 109.839L36.4266 106.339L34.4951 105.821ZM34.5209 108.58H32.0009V110.58H34.5209V108.58ZM31.0342 109.324L30.4142 111.664L32.3475 112.176L32.9675 109.836L31.0342 109.324ZM30.4174 111.652C30.3037 112.061 30.2409 112.417 30.2409 112.76H32.2409C32.2409 112.663 32.258 112.499 32.3444 112.188L30.4174 111.652ZM30.2409 112.76C30.2409 113.204 30.3874 113.712 30.8442 114.07C31.2505 114.388 31.747 114.46 32.1609 114.46V112.46C32.0597 112.46 32.0091 112.45 31.9946 112.446C31.9818 112.443 32.0208 112.451 32.0775 112.495C32.1399 112.544 32.1894 112.611 32.218 112.68C32.2435 112.741 32.2409 112.776 32.2409 112.76H30.2409ZM32.1609 114.46C32.662 114.46 33.0893 114.369 33.7516 114.183L33.2101 112.257C32.5924 112.431 32.3797 112.46 32.1609 112.46V114.46ZM32.5142 112.964L31.5342 116.664L33.4675 117.176L34.4475 113.476L32.5142 112.964ZM32.2525 115.951C31.5296 116.137 30.8554 116.24 30.2009 116.24V118.24C31.0663 118.24 31.9122 118.103 32.7492 117.889L32.2525 115.951ZM33.6276 117L32.6615 116.742L32.3251 118H33.6276V117ZM36.5476 106.08V105.08H35.7799L35.5815 105.822L36.5476 106.08ZM41.0876 106.08L42.0546 106.335L42.3854 105.08H41.0876V106.08ZM40.5076 108.28L39.5406 108.025L41.331 108.847L40.5076 108.28ZM44.5476 105.92L45.5141 106.177L45.8326 104.977L44.593 104.921L44.5476 105.92ZM43.2676 110.74V111.74H44.0367L44.2341 110.997L43.2676 110.74ZM38.8876 114.28L39.8543 114.536L39.8558 114.53L38.8876 114.28ZM38.1676 117V118H38.9373L39.1343 117.256L38.1676 117ZM34.5936 117.258L37.5136 106.338L35.5815 105.822L32.6615 116.742L34.5936 117.258ZM36.5476 107.08H41.0876V105.08H36.5476V107.08ZM40.1206 105.825L39.5406 108.025L41.4746 108.535L42.0546 106.335L40.1206 105.825ZM41.331 108.847C42.248 107.517 43.2235 106.861 44.5022 106.919L44.593 104.921C42.3517 104.819 40.8072 106.083 39.6842 107.713L41.331 108.847ZM43.5811 105.663L42.3011 110.483L44.2341 110.997L45.5141 106.177L43.5811 105.663ZM43.2676 109.74H42.7876V111.74H43.2676V109.74ZM42.7876 109.74C41.5274 109.74 40.4431 110.082 39.5871 110.877C38.7587 111.646 38.2523 112.741 37.9194 114.03L39.8558 114.53C40.1428 113.419 40.5165 112.744 40.948 112.343C41.3521 111.968 41.9078 111.74 42.7876 111.74V109.74ZM37.9209 114.024L37.2009 116.744L39.1343 117.256L39.8543 114.536L37.9209 114.024ZM38.1676 116H33.6276V118H38.1676V116ZM50.0851 110.82L49.8042 111.78L50.729 112.05L51.0338 111.136L50.0851 110.82ZM50.1251 110.7L51.0738 111.016L51.0806 110.996L51.0866 110.975L50.1251 110.7ZM45.5451 109.58L44.5635 109.771L44.7902 110.935L45.899 110.515L45.5451 109.58ZM44.9451 106.5L44.6533 105.544L43.7912 105.807L43.9635 106.691L44.9451 106.5ZM54.5451 111L55.5113 111.258L55.5131 111.251L54.5451 111ZM52.9451 117V118H53.7134L53.9113 117.258L52.9451 117ZM48.4051 117L47.4403 116.737L47.0958 118H48.4051V117ZM48.7051 115.9L49.6699 116.163L50.5088 113.087L48.0634 115.133L48.7051 115.9ZM49.6051 112.9L48.6375 112.648L48.6361 112.653L49.6051 112.9ZM49.7251 112.44L50.6927 112.692L50.9438 111.73L49.9828 111.474L49.7251 112.44ZM45.6451 116.24C45.0248 116.24 44.5603 116.04 44.2553 115.741C43.9547 115.446 43.7251 114.973 43.7251 114.26H41.7251C41.7251 115.427 42.1155 116.444 42.8549 117.169C43.5899 117.89 44.5854 118.24 45.6451 118.24V116.24ZM43.7251 114.26C43.7251 113.396 44.0504 112.742 44.6316 112.281C45.2385 111.799 46.2151 111.46 47.6051 111.46V109.46C45.915 109.46 44.4517 109.871 43.3885 110.714C42.2997 111.578 41.7251 112.824 41.7251 114.26H43.7251ZM47.6051 111.46C48.3284 111.46 49.0739 111.566 49.8042 111.78L50.366 109.86C49.4563 109.594 48.5218 109.46 47.6051 109.46V111.46ZM51.0338 111.136L51.0738 111.016L49.1764 110.384L49.1364 110.504L51.0338 111.136ZM51.0866 110.975C51.1453 110.769 51.2051 110.455 51.2051 110.16H49.2051C49.2051 110.183 49.202 110.228 49.1923 110.289C49.1829 110.349 49.1712 110.399 49.1636 110.425L51.0866 110.975ZM51.2051 110.16C51.2051 109.507 50.9199 108.914 50.3368 108.536C49.8237 108.203 49.1763 108.1 48.5251 108.1V110.1C49.0139 110.1 49.2065 110.187 49.2484 110.214C49.2567 110.219 49.235 110.206 49.2162 110.17C49.1987 110.136 49.2051 110.124 49.2051 110.16H51.2051ZM48.5251 108.1C47.4344 108.1 46.0695 108.312 45.1912 108.645L45.899 110.515C46.5007 110.288 47.6157 110.1 48.5251 110.1V108.1ZM46.5266 109.389L45.9266 106.309L43.9635 106.691L44.5635 109.771L46.5266 109.389ZM45.2369 107.456C46.2976 107.133 47.9344 106.92 49.4451 106.92V104.92C47.7958 104.92 45.9525 105.147 44.6533 105.544L45.2369 107.456ZM49.4451 106.92C51.1525 106.92 52.2402 107.25 52.8749 107.699C53.4573 108.111 53.7451 108.682 53.7451 109.48H55.7451C55.7451 108.098 55.1929 106.889 54.0303 106.066C52.92 105.28 51.3576 104.92 49.4451 104.92V106.92ZM53.7451 109.48C53.7451 109.855 53.6958 110.291 53.5771 110.749L55.5131 111.251C55.6744 110.629 55.7451 110.025 55.7451 109.48H53.7451ZM53.5789 110.742L51.9789 116.742L53.9113 117.258L55.5113 111.258L53.5789 110.742ZM52.9451 116H48.4051V118H52.9451V116ZM49.3699 117.263L49.6699 116.163L47.7403 115.637L47.4403 116.737L49.3699 117.263ZM48.0634 115.133C47.1416 115.904 46.5497 116.24 45.6451 116.24V118.24C47.2604 118.24 48.3086 117.536 49.3468 116.667L48.0634 115.133ZM47.8451 115.66C48.5442 115.66 49.1574 115.31 49.5991 114.875C50.0511 114.43 50.4007 113.827 50.5741 113.147L48.6361 112.653C48.5495 112.993 48.3791 113.27 48.1961 113.45C48.0028 113.64 47.8659 113.66 47.8451 113.66V115.66ZM50.5727 113.152L50.6927 112.692L48.7575 112.188L48.6375 112.648L50.5727 113.152ZM49.9828 111.474C49.6219 111.378 49.2932 111.32 48.8851 111.32V113.32C49.077 113.32 49.2283 113.342 49.4674 113.406L49.9828 111.474ZM48.8851 111.32C48.1723 111.32 47.4686 111.488 46.9268 111.94C46.3584 112.414 46.1051 113.087 46.1051 113.8H48.1051C48.1051 113.573 48.1718 113.506 48.2084 113.475C48.2716 113.422 48.4579 113.32 48.8851 113.32V111.32ZM46.1051 113.8C46.1051 114.269 46.2414 114.745 46.5794 115.115C46.923 115.491 47.3881 115.66 47.8451 115.66V113.66C47.8595 113.66 47.8921 113.663 47.9348 113.68C47.9789 113.699 48.0216 113.728 48.0558 113.765C48.1288 113.845 48.1051 113.891 48.1051 113.8H46.1051ZM55.9568 112.74L54.9904 112.483L54.9885 112.49L54.9867 112.497L55.9568 112.74ZM56.7968 109.58L57.7632 109.837L58.0974 108.58H56.7968V109.58ZM55.5168 109.58L54.551 109.321L54.2128 110.58H55.5168V109.58ZM56.4568 106.08V105.08H55.6899L55.491 105.821L56.4568 106.08ZM57.7368 106.08V107.08H58.5026L58.7022 106.341L57.7368 106.08ZM58.4768 103.34V102.34H57.7111L57.5114 103.079L58.4768 103.34ZM63.0168 103.34L63.9822 103.601L64.3227 102.34H63.0168V103.34ZM62.2768 106.08L61.3114 105.819L60.9709 107.08H62.2768V106.08ZM64.7968 106.08L65.7626 106.339L66.1008 105.08H64.7968V106.08ZM63.8568 109.58V110.58H64.6237L64.8226 109.839L63.8568 109.58ZM61.3368 109.58V108.58H60.5673L60.3702 109.324L61.3368 109.58ZM60.7168 111.92L61.6804 112.188L61.6835 112.176L60.7168 111.92ZM62.8168 113.22L63.7835 113.476L64.2318 111.783L62.5461 112.257L62.8168 113.22ZM61.8368 116.92L62.0852 117.889L62.6533 117.743L62.8035 117.176L61.8368 116.92ZM59.5368 116.24C58.3551 116.24 57.6701 116.009 57.2946 115.714C56.9672 115.456 56.7368 115.041 56.7368 114.26H54.7368C54.7368 115.479 55.1264 116.554 56.059 117.286C56.9436 117.981 58.1585 118.24 59.5368 118.24V116.24ZM56.7368 114.26C56.7368 113.912 56.7978 113.499 56.927 112.983L54.9867 112.497C54.8358 113.101 54.7368 113.688 54.7368 114.26H56.7368ZM56.9232 112.997L57.7632 109.837L55.8304 109.323L54.9904 112.483L56.9232 112.997ZM56.7968 108.58H55.5168V110.58H56.7968V108.58ZM56.4826 109.839L57.4226 106.339L55.491 105.821L54.551 109.321L56.4826 109.839ZM56.4568 107.08H57.7368V105.08H56.4568V107.08ZM58.7022 106.341L59.4422 103.601L57.5114 103.079L56.7714 105.819L58.7022 106.341ZM58.4768 104.34H63.0168V102.34H58.4768V104.34ZM62.0514 103.079L61.3114 105.819L63.2422 106.341L63.9822 103.601L62.0514 103.079ZM62.2768 107.08H64.7968V105.08H62.2768V107.08ZM63.831 105.821L62.891 109.321L64.8226 109.839L65.7626 106.339L63.831 105.821ZM63.8568 108.58H61.3368V110.58H63.8568V108.58ZM60.3702 109.324L59.7502 111.664L61.6835 112.176L62.3035 109.836L60.3702 109.324ZM59.7533 111.652C59.6397 112.061 59.5768 112.417 59.5768 112.76H61.5768C61.5768 112.663 61.594 112.499 61.6803 112.188L59.7533 111.652ZM59.5768 112.76C59.5768 113.204 59.7234 113.712 60.1801 114.07C60.5865 114.388 61.0829 114.46 61.4968 114.46V112.46C61.3956 112.46 61.3451 112.45 61.3305 112.446C61.3177 112.443 61.3568 112.451 61.4135 112.495C61.4759 112.544 61.5254 112.611 61.5539 112.68C61.5795 112.741 61.5768 112.776 61.5768 112.76H59.5768ZM61.4968 114.46C61.998 114.46 62.4253 114.369 63.0876 114.183L62.5461 112.257C61.9284 112.431 61.7157 112.46 61.4968 112.46V114.46ZM61.8501 112.964L60.8701 116.664L62.8035 117.176L63.7835 113.476L61.8501 112.964ZM61.5884 115.951C60.8655 116.137 60.1914 116.24 59.5368 116.24V118.24C60.4023 118.24 61.2481 118.103 62.0852 117.889L61.5884 115.951ZM68.0459 112.6V111.6H66.9754L67.0482 112.668L68.0459 112.6ZM71.8859 113.18L72.6244 112.506L72.007 111.83L71.2792 112.385L71.8859 113.18ZM73.9859 115.48L74.6495 116.228L75.4084 115.555L74.7244 114.806L73.9859 115.48ZM75.0659 112.6V113.6H75.794L76.0176 112.907L75.0659 112.6ZM68.3259 110.6L67.3803 110.274L66.924 111.6H68.3259V110.6ZM71.4059 110.6V111.6H72.0989L72.3422 110.951L71.4059 110.6ZM67.0482 112.668C67.0916 113.305 67.326 113.93 67.8259 114.393C68.3264 114.857 68.985 115.06 69.6859 115.06V113.06C69.3667 113.06 69.2354 112.973 69.1858 112.927C69.1358 112.88 69.0601 112.775 69.0436 112.532L67.0482 112.668ZM69.6859 115.06C70.7226 115.06 71.632 114.632 72.4925 113.975L71.2792 112.385C70.6198 112.888 70.1292 113.06 69.6859 113.06V115.06ZM71.1474 113.854L73.2474 116.154L74.7244 114.806L72.6244 112.506L71.1474 113.854ZM73.3223 114.732C72.249 115.684 70.9605 116.26 69.3059 116.26V118.26C71.4913 118.26 73.2427 117.476 74.6495 116.228L73.3223 114.732ZM69.3059 116.26C67.8382 116.26 66.7571 115.833 66.0542 115.193C65.36 114.561 64.9459 113.641 64.9459 112.46H62.9459C62.9459 114.139 63.5518 115.619 64.7075 116.672C65.8547 117.717 67.4535 118.26 69.3059 118.26V116.26ZM64.9459 112.46C64.9459 109.608 67.0593 106.82 70.5859 106.82V104.82C65.7925 104.82 62.9459 108.672 62.9459 112.46H64.9459ZM70.5859 106.82C72.14 106.82 73.0387 107.335 73.5685 107.969C74.1248 108.634 74.3859 109.566 74.3859 110.56H76.3859C76.3859 109.254 76.047 107.816 75.1032 106.686C74.1331 105.525 72.6317 104.82 70.5859 104.82V106.82ZM74.3859 110.56C74.3859 111.171 74.2835 111.768 74.1142 112.293L76.0176 112.907C76.2482 112.192 76.3859 111.389 76.3859 110.56H74.3859ZM75.0659 111.6H68.0459V113.6H75.0659V111.6ZM68.3259 111.6H71.4059V109.6H68.3259V111.6ZM72.3422 110.951C72.4551 110.65 72.4859 110.365 72.4859 110.12H70.4859C70.4859 110.195 70.4766 110.23 70.4695 110.249L72.3422 110.951ZM72.4859 110.12C72.4859 109.025 71.6537 107.96 70.3059 107.96V109.96C70.363 109.96 70.3953 109.97 70.4107 109.977C70.4264 109.984 70.437 109.992 70.4454 110.001C70.464 110.02 70.4859 110.061 70.4859 110.12H72.4859ZM70.3059 107.96C69.1916 107.96 67.9368 108.658 67.3803 110.274L69.2714 110.926C69.5549 110.102 70.0602 109.96 70.3059 109.96V107.96ZM74.3399 118.76L73.5137 118.197L72.9205 119.067L73.82 119.614L74.3399 118.76ZM76.1399 116.12L76.6346 115.251L75.8332 114.795L75.3137 115.557L76.1399 116.12ZM82.1199 116.42L82.827 117.127L82.827 117.127L82.1199 116.42ZM82.9199 114.88L83.8885 115.129L83.8901 115.123L82.9199 114.88ZM82.9599 114.72L83.9301 114.963L84.7453 111.702L82.2802 113.987L82.9599 114.72ZM84.7999 107.5L83.9733 108.063L85.2017 109.867L85.766 107.759L84.7999 107.5ZM85.1799 106.08V105.08H84.4124L84.2139 105.821L85.1799 106.08ZM89.7199 106.08L90.6858 106.339L91.0233 105.08H89.7199V106.08ZM87.4199 114.66L86.454 114.401L86.4539 114.402L87.4199 114.66ZM85.4399 118.56L86.147 119.267L86.1471 119.267L85.4399 118.56ZM80.0599 119.24C78.2203 119.24 76.0646 118.639 74.8599 117.906L73.82 119.614C75.3753 120.561 77.8996 121.24 80.0599 121.24V119.24ZM75.1662 119.323L76.9662 116.683L75.3137 115.557L73.5137 118.197L75.1662 119.323ZM75.6452 116.989C77.0963 117.815 78.6869 118.18 79.9399 118.18V116.18C79.033 116.18 77.7835 115.905 76.6346 115.251L75.6452 116.989ZM79.9399 118.18C81.122 118.18 82.0679 117.886 82.827 117.127L81.4128 115.713C81.132 115.994 80.7579 116.18 79.9399 116.18V118.18ZM82.827 117.127C83.3227 116.631 83.6754 115.958 83.8884 115.129L81.9514 114.631C81.8045 115.202 81.5972 115.529 81.4128 115.713L82.827 117.127ZM83.8901 115.123L83.9301 114.963L81.9898 114.477L81.9498 114.637L83.8901 115.123ZM82.2802 113.987C81.6362 114.583 80.816 114.96 79.7399 114.96V116.96C81.3439 116.96 82.6437 116.377 83.6397 115.453L82.2802 113.987ZM79.7399 114.96C78.3544 114.96 77.0199 113.995 77.0199 112.22H75.0199C75.0199 115.285 77.4455 116.96 79.7399 116.96V114.96ZM77.0199 112.22C77.0199 109.386 78.8097 106.84 81.4999 106.84V104.84C77.2702 104.84 75.0199 108.774 75.0199 112.22H77.0199ZM81.4999 106.84C82.6291 106.84 83.5196 107.396 83.9733 108.063L85.6265 106.937C84.8003 105.724 83.2908 104.84 81.4999 104.84V106.84ZM85.766 107.759L86.146 106.339L84.2139 105.821L83.8339 107.241L85.766 107.759ZM85.1799 107.08H89.7199V105.08H85.1799V107.08ZM88.754 105.821L86.454 114.401L88.3858 114.919L90.6858 106.339L88.754 105.821ZM86.4539 114.402C86.0156 116.04 85.4768 117.109 84.7328 117.853L86.1471 119.267C87.2431 118.171 87.9043 116.72 88.386 114.918L86.4539 114.402ZM84.7328 117.853C83.842 118.744 82.4982 119.24 80.0599 119.24V121.24C82.7417 121.24 84.7179 120.696 86.147 119.267L84.7328 117.853ZM81.8999 113.92C83.8542 113.92 84.8799 112.195 84.8799 110.76H82.8799C82.8799 111.069 82.7688 111.379 82.5871 111.597C82.4191 111.798 82.1964 111.92 81.8999 111.92V113.92ZM84.8799 110.76C84.8799 109.464 83.9078 108.3 82.3799 108.3V110.3C82.5959 110.3 82.705 110.372 82.762 110.431C82.8268 110.498 82.8799 110.609 82.8799 110.76H84.8799ZM82.3799 108.3C80.4571 108.3 79.3999 109.971 79.3999 111.48H81.3999C81.3999 110.749 81.8628 110.3 82.3799 110.3V108.3ZM79.3999 111.48C79.3999 112.11 79.6282 112.729 80.0836 113.193C80.5451 113.663 81.1852 113.92 81.8999 113.92V111.92C81.6747 111.92 81.5647 111.847 81.5113 111.792C81.4517 111.731 81.3999 111.63 81.3999 111.48H79.3999ZM91.1807 105.3L90.215 105.04L89.8762 106.3H91.1807V105.3ZM91.9607 102.4V101.4H91.1942L90.995 102.14L91.9607 102.4ZM96.6607 102.4L97.6264 102.66L97.9652 101.4H96.6607V102.4ZM95.8807 105.3V106.3H96.6473L96.8464 105.56L95.8807 105.3ZM88.1207 117L87.1547 116.742L86.8182 118H88.1207V117ZM91.0407 106.08V105.08H90.273L90.0747 105.822L91.0407 106.08ZM95.5807 106.08L96.5468 106.338L96.8833 105.08H95.5807V106.08ZM92.6607 117V118H93.4285L93.6268 117.258L92.6607 117ZM92.1464 105.56L92.9264 102.66L90.995 102.14L90.215 105.04L92.1464 105.56ZM91.9607 103.4H96.6607V101.4H91.9607V103.4ZM95.695 102.14L94.915 105.04L96.8464 105.56L97.6264 102.66L95.695 102.14ZM95.8807 104.3H91.1807V106.3H95.8807V104.3ZM89.0868 117.258L92.0068 106.338L90.0747 105.822L87.1547 116.742L89.0868 117.258ZM91.0407 107.08H95.5807V105.08H91.0407V107.08ZM94.6147 105.822L91.6947 116.742L93.6268 117.258L96.5468 106.338L94.6147 105.822ZM92.6607 116H88.1207V118H92.6607V116ZM93.8563 115.44L93.0637 114.83L92.4509 115.627L93.2507 116.236L93.8563 115.44ZM95.8563 112.84L96.4791 112.058L95.6836 111.424L95.0637 112.23L95.8563 112.84ZM98.7164 112.9L99.0614 111.961L99.0581 111.96L98.7164 112.9ZM106.016 107.32L106.809 107.93L107.421 107.134L106.623 106.525L106.016 107.32ZM104.016 109.92L103.448 110.743L104.23 111.283L104.809 110.53L104.016 109.92ZM101.556 110.02L101.219 110.961L101.221 110.962L101.556 110.02ZM99.6964 116.26C97.4301 116.26 95.624 115.529 94.462 114.644L93.2507 116.236C94.7687 117.391 97.0026 118.26 99.6964 118.26V116.26ZM94.649 116.05L96.649 113.45L95.0637 112.23L93.0637 114.83L94.649 116.05ZM95.2336 113.622C95.818 114.088 96.5809 114.504 97.3572 114.805C98.1277 115.104 98.9904 115.32 99.7764 115.32V113.32C99.3223 113.32 98.715 113.186 98.0805 112.94C97.4518 112.696 96.8747 112.372 96.4791 112.058L95.2336 113.622ZM99.7764 115.32C100.117 115.32 100.503 115.256 100.833 115.031C101.202 114.779 101.416 114.378 101.416 113.94H99.4164C99.4164 113.837 99.4405 113.722 99.4992 113.612C99.558 113.502 99.6359 113.426 99.7049 113.379C99.8301 113.294 99.8955 113.32 99.7764 113.32V115.32ZM101.416 113.94C101.416 113.671 101.346 113.385 101.159 113.12C100.992 112.883 100.775 112.725 100.59 112.614C100.238 112.404 99.7175 112.203 99.0614 111.961L98.3713 113.839C98.7085 113.963 98.9687 114.062 99.1717 114.146C99.379 114.232 99.4972 114.291 99.5631 114.331C99.6328 114.372 99.5855 114.358 99.5248 114.272C99.444 114.158 99.4164 114.029 99.4164 113.94H101.416ZM99.0581 111.96C98.2102 111.652 97.6241 111.348 97.2524 110.997C96.9255 110.689 96.7364 110.322 96.7364 109.74H94.7363C94.7363 110.878 95.1572 111.771 95.8803 112.453C96.5586 113.092 97.4625 113.508 98.3746 113.84L99.0581 111.96ZM96.7364 109.74C96.7364 108.952 97.0602 108.256 97.6973 107.738C98.3478 107.209 99.3868 106.82 100.856 106.82V104.82C99.0459 104.82 97.5249 105.301 96.4354 106.187C95.3325 107.084 94.7363 108.348 94.7363 109.74H96.7364ZM100.856 106.82C102.877 106.82 104.513 107.43 105.409 108.115L106.623 106.525C105.319 105.53 103.235 104.82 100.856 104.82V106.82ZM105.224 106.71L103.224 109.31L104.809 110.53L106.809 107.93L105.224 106.71ZM104.585 109.097C103.641 108.446 102.045 107.76 100.696 107.76V109.76C101.508 109.76 102.712 110.234 103.448 110.743L104.585 109.097ZM100.696 107.76C100.382 107.76 100.009 107.799 99.6792 107.975C99.2807 108.187 98.9764 108.592 98.9764 109.12H100.976C100.976 109.239 100.944 109.381 100.859 109.513C100.777 109.64 100.678 109.709 100.618 109.74C100.562 109.77 100.532 109.773 100.552 109.769C100.57 109.766 100.616 109.76 100.696 109.76V107.76ZM98.9764 109.12C98.9764 109.347 99.0274 109.629 99.2205 109.9C99.3884 110.136 99.6077 110.281 99.775 110.375C100.092 110.553 100.58 110.732 101.219 110.961L101.894 109.079C101.559 108.959 101.306 108.866 101.112 108.789C100.912 108.71 100.807 108.66 100.753 108.63C100.693 108.596 100.768 108.626 100.849 108.739C100.955 108.888 100.976 109.043 100.976 109.12H98.9764ZM101.221 110.962C102.074 111.266 102.685 111.558 103.086 111.922C103.434 112.239 103.656 112.64 103.656 113.32H105.656C105.656 112.08 105.199 111.141 104.432 110.443C103.717 109.792 102.779 109.394 101.892 109.078L101.221 110.962ZM103.656 113.32C103.656 114.001 103.418 114.713 102.86 115.255C102.308 115.791 101.341 116.26 99.6964 116.26V118.26C101.731 118.26 103.244 117.669 104.253 116.69C105.255 115.717 105.656 114.459 105.656 113.32H103.656ZM106.328 112.74L105.361 112.483L105.36 112.49L105.358 112.497L106.328 112.74ZM107.168 109.58L108.134 109.837L108.468 108.58H107.168V109.58ZM105.888 109.58L104.922 109.321L104.584 110.58H105.888V109.58ZM106.828 106.08V105.08H106.061L105.862 105.821L106.828 106.08ZM108.108 106.08V107.08H108.874L109.073 106.341L108.108 106.08ZM108.848 103.34V102.34H108.082L107.883 103.079L108.848 103.34ZM113.388 103.34L114.353 103.601L114.694 102.34H113.388V103.34ZM112.648 106.08L111.683 105.819L111.342 107.08H112.648V106.08ZM115.168 106.08L116.134 106.339L116.472 105.08H115.168V106.08ZM114.228 109.58V110.58H114.995L115.194 109.839L114.228 109.58ZM111.708 109.58V108.58H110.938L110.741 109.324L111.708 109.58ZM111.088 111.92L112.052 112.188L112.055 112.176L111.088 111.92ZM113.188 113.22L114.155 113.476L114.603 111.783L112.917 112.257L113.188 113.22ZM112.208 116.92L112.456 117.889L113.024 117.743L113.175 117.176L112.208 116.92ZM109.908 116.24C108.726 116.24 108.041 116.009 107.666 115.714C107.338 115.456 107.108 115.041 107.108 114.26H105.108C105.108 115.479 105.497 116.554 106.43 117.286C107.315 117.981 108.53 118.24 109.908 118.24V116.24ZM107.108 114.26C107.108 113.912 107.169 113.499 107.298 112.983L105.358 112.497C105.207 113.101 105.108 113.688 105.108 114.26H107.108ZM107.294 112.997L108.134 109.837L106.201 109.323L105.361 112.483L107.294 112.997ZM107.168 108.58H105.888V110.58H107.168V108.58ZM106.854 109.839L107.794 106.339L105.862 105.821L104.922 109.321L106.854 109.839ZM106.828 107.08H108.108V105.08H106.828V107.08ZM109.073 106.341L109.813 103.601L107.883 103.079L107.143 105.819L109.073 106.341ZM108.848 104.34H113.388V102.34H108.848V104.34ZM112.423 103.079L111.683 105.819L113.613 106.341L114.353 103.601L112.423 103.079ZM112.648 107.08H115.168V105.08H112.648V107.08ZM114.202 105.821L113.262 109.321L115.194 109.839L116.134 106.339L114.202 105.821ZM114.228 108.58H111.708V110.58H114.228V108.58ZM110.741 109.324L110.121 111.664L112.055 112.176L112.675 109.836L110.741 109.324ZM110.124 111.652C110.011 112.061 109.948 112.417 109.948 112.76H111.948C111.948 112.663 111.965 112.499 112.051 112.188L110.124 111.652ZM109.948 112.76C109.948 113.204 110.094 113.712 110.551 114.07C110.958 114.388 111.454 114.46 111.868 114.46V112.46C111.767 112.46 111.716 112.45 111.702 112.446C111.689 112.443 111.728 112.451 111.785 112.495C111.847 112.544 111.896 112.611 111.925 112.68C111.951 112.741 111.948 112.776 111.948 112.76H109.948ZM111.868 114.46C112.369 114.46 112.796 114.369 113.459 114.183L112.917 112.257C112.299 112.431 112.087 112.46 111.868 112.46V114.46ZM112.221 112.964L111.241 116.664L113.175 117.176L114.155 113.476L112.221 112.964ZM111.96 115.951C111.237 116.137 110.562 116.24 109.908 116.24V118.24C110.773 118.24 111.619 118.103 112.456 117.889L111.96 115.951Z" fill="#E3C906" mask="url(#path-10-outside-1_208_487)"/>
</svg>
