<svg width="155" height="154" viewBox="0 0 155 154" fill="none" xmlns="http://www.w3.org/2000/svg">
<path d="M75.6078 153.2C117.361 153.2 151.208 119.352 151.208 77.5995C151.208 35.8468 117.361 1.99951 75.6078 1.99951C33.8551 1.99951 0.0078125 35.8468 0.0078125 77.5995C0.0078125 119.352 33.8551 153.2 75.6078 153.2Z" fill="#F8D14F"/>
<path d="M137.707 62.9997C136.707 61.9997 137.507 63.8997 136.307 62.9997C135.507 62.3997 134.607 61.8997 133.807 61.2997C129.007 58.1997 108.707 42.3997 103.407 47.2997C106.007 39.3997 109.207 31.2997 111.007 23.0997C112.907 14.7997 102.707 10.1997 98.607 11.6997C97.107 12.1997 95.907 14.4997 92.907 21.2997C92.907 21.2997 78.607 53.9997 70.807 68.1997L30.207 138.1C42.807 147.6 58.507 153.2 75.607 153.2C89.507 153.2 102.407 149.5 113.607 142.9L125.207 110.9C130.507 105.6 134.207 101.9 138.007 93.9997C142.707 84.2997 146.307 71.3997 137.707 62.9997Z" fill="#EAA48D"/>
<path d="M93.5078 53.3997C93.5078 53.3997 108.708 28.3997 111.008 23.1997C105.008 43.4997 103.108 50.9997 103.108 50.9997L93.5078 53.3997Z" fill="#DB8A75"/>
<path d="M125.308 111L91.5078 105.8L116.708 135.4L125.308 111Z" fill="#DB8A75"/>
<path d="M99.4074 87.2999C99.4074 87.2999 109.107 95.2999 116.307 97.1999C140.007 95.2999 134.307 81.7999 134.307 81.7999L106.107 63.3999L95.6074 66.3999L99.4074 87.2999Z" fill="#DB8A75"/>
<path d="M117.206 50C119.906 50 123.206 50.8 126.706 51.9C130.306 53.1 132.606 56.7 132.206 60.6L131.106 70.3C130.706 73.9 129.506 77.4 127.706 80.6L122.806 88.9C120.806 92.3 116.706 93.8 112.906 92.5H112.806C109.106 91.2 107.006 87.2 108.006 83.4L117.206 50Z" fill="#EAA48D"/>
<path d="M104.607 45.3C107.107 45 109.707 45.7 113.107 46.6C116.707 47.8 119.007 51.4 118.607 55.3L117.507 65C117.107 68.6 115.907 72.1 114.107 75.3L109.207 83.6C107.207 87 103.107 88.5 99.3068 87.2H99.2068C95.5068 85.9 93.4068 81.9 94.4068 78.1L104.607 45.3Z" fill="#EAA48D"/>
<path d="M131.607 56.3999L136.807 58.5999C140.207 59.9999 142.207 63.4999 141.707 67.0999L140.607 75.9999C140.207 79.3999 139.007 82.6999 137.107 85.5999L134.007 90.2999C131.507 93.9999 126.707 95.2999 122.707 93.2999L119.707 91.7999L131.607 56.3999Z" fill="#EAA48D"/>
<path d="M119.706 92.2999C119.606 92.2999 119.506 92.2999 119.406 92.1999C119.206 91.9999 119.206 91.6999 119.406 91.4999C119.506 91.3999 127.306 82.8999 129.806 74.6999C132.306 66.4999 131.206 56.5999 131.206 56.4999C131.206 56.1999 131.406 55.9999 131.606 55.8999C131.906 55.8999 132.106 56.0999 132.206 56.2999C132.206 56.3999 133.406 66.4999 130.806 74.8999C128.206 83.2999 120.506 91.6999 120.206 92.0999C119.906 92.1999 119.806 92.2999 119.706 92.2999Z" fill="#263E65"/>
<path d="M105.407 87.0001C105.307 87.0001 105.207 87.0001 105.107 86.9001C104.907 86.7001 104.907 86.4001 105.107 86.2001C105.207 86.1001 113.007 77.6001 115.507 69.4001C118.007 61.2001 116.907 51.3001 116.907 51.2001C116.907 50.9001 117.107 50.7001 117.307 50.6001C117.607 50.6001 117.807 50.8001 117.907 51.0001C117.907 51.1001 119.107 61.2001 116.507 69.6001C113.907 78.0001 106.207 86.4001 105.907 86.8001C105.707 87.0001 105.507 87.0001 105.407 87.0001Z" fill="#263E65"/>
<path d="M130.106 94.1001C129.906 94.1001 129.706 93.9001 129.606 93.7001C129.506 93.4001 129.706 93.2001 130.006 93.1001C132.506 92.5001 135.906 87.9001 138.906 81.4001C141.306 76.1001 141.306 67.2001 141.306 67.1001C141.306 66.8001 141.506 66.6001 141.806 66.6001C142.106 66.6001 142.306 66.8001 142.306 67.1001C142.306 67.5001 142.306 76.3001 139.806 81.8001C137.406 87.2001 133.606 93.3001 130.206 94.1001C130.106 94.1001 130.106 94.1001 130.106 94.1001Z" fill="#263E65"/>
<path opacity="0.8" d="M118.507 89.7C118.507 89.7 119.207 87 116.207 86C113.307 85 112.307 88 112.307 88L118.507 89.7Z" fill="white"/>
<path opacity="0.8" d="M123.006 90.4998L129.206 92.2998C129.206 92.2998 129.906 89.5999 126.906 88.5999C124.006 87.4999 123.006 90.4998 123.006 90.4998Z" fill="white"/>
<path d="M102.307 94.1995C114.807 82.9995 101.707 71.6995 101.707 71.6995L115.307 73.2995C119.207 73.7995 122.807 71.3995 123.907 67.6995L124.307 66.3995C125.507 62.2995 123.407 57.9995 119.507 56.4995L109.707 52.7995C104.407 50.7995 98.6074 51.0995 93.5074 53.5995L92.4074 54.1995L85.5074 70.2995L80.6074 83.0995L102.307 94.1995Z" fill="#EAA48D"/>
<path opacity="0.8" d="M121.708 59.6997L120.808 68.0997C120.808 68.0997 116.908 68.0997 117.208 62.6997C117.408 57.3997 121.708 59.6997 121.708 59.6997Z" fill="white"/>
<path d="M102.306 94.6998C102.206 94.6998 102.006 94.5998 101.906 94.4998C101.706 94.2998 101.706 93.9998 101.906 93.7998C105.406 90.6998 107.106 87.1998 107.106 83.5998C107.106 77.0998 101.306 72.0998 101.306 71.9998L100.106 70.8998L115.306 72.6998C118.906 73.0998 122.306 70.8998 123.406 67.3998L123.806 66.0998C125.006 62.2998 123.006 58.1998 119.306 56.7998L109.506 53.0998C104.406 51.1998 98.6064 51.3998 93.7064 53.7998L92.6064 54.3998C92.4064 54.4998 92.1064 54.3998 91.9064 54.1998C91.8064 53.9998 91.9064 53.6998 92.1064 53.4998L93.2064 52.8998C98.4064 50.3998 104.406 50.0998 109.806 52.0998L119.606 55.7998C123.806 57.3998 126.106 61.9998 124.706 66.2998L124.306 67.5998C123.106 71.5998 119.206 74.0998 115.106 73.5998L103.006 72.1998C104.806 74.0998 108.106 78.2998 108.106 83.4998C108.106 87.3998 106.306 91.0998 102.506 94.4998C102.506 94.6998 102.406 94.6998 102.306 94.6998Z" fill="#263E65"/>
<path d="M70.0129 4.0493L70.3455 8.03972L73.6839 5.42328C74.6098 5.72937 75.1931 6.1698 75.3729 6.78359L70.5486 10.2258L68.6083 14.8183C67.7279 14.7833 67.0015 14.5207 66.4898 13.9914L68.3911 9.33808L67.6708 4.00947C68.328 3.63018 69.1087 3.64346 70.0129 4.0493Z" fill="#263E65"/>
<path d="M80.1994 7.88659C81.4028 8.35759 82.2201 9.16242 82.5797 10.39C82.9393 11.6176 82.7676 12.8862 82.0926 14.3064C81.4177 15.7267 80.4697 16.7217 79.2875 17.3524C78.1054 17.9831 76.8823 18.0825 75.6788 17.6115C74.4754 17.1405 73.6082 16.3247 73.1879 15.1362C72.7676 13.9476 72.8504 12.6074 73.5145 11.2371C74.1786 9.8667 75.1375 8.82175 76.4302 8.16291C77.7728 7.51494 78.9959 7.41559 80.1994 7.88659ZM79.0969 10.3108C78.5201 10.0807 77.889 10.1 77.2427 10.4294C76.6072 10.709 76.067 11.2705 75.6937 12.025C75.3205 12.7796 75.2183 13.4887 75.4371 14.1632C75.6559 14.8377 76.0895 15.2456 76.7162 15.4865C77.3038 15.6667 77.9457 15.5975 78.4924 15.2464C79.0889 14.9061 79.5683 14.3836 79.8808 13.6681C80.2432 12.9634 80.2847 12.2933 80.1656 11.6405C80.0574 10.9378 79.6845 10.491 79.0969 10.3108Z" fill="#263E65"/>
<path d="M85.3806 10.0073C86.2393 10.142 86.9549 10.4546 87.6487 10.8668C86.0688 14.2841 85.2245 16.2421 84.9944 16.8189C84.8142 17.4065 84.7664 17.8663 84.8899 18.2588C85.0133 18.6514 85.319 18.9269 85.8568 19.0963C86.3837 19.3155 86.8153 19.2527 87.1298 19.0078C87.4444 18.7628 87.7307 18.4072 87.95 17.8803C88.219 17.3643 89.0134 15.3954 90.5045 11.9066C91.2136 12.0087 91.94 12.2714 92.6837 12.6945C90.7325 17.3369 89.4977 19.889 89.0291 20.3616C88.5605 20.8342 87.964 21.1745 87.3004 21.3434C86.6367 21.5124 85.8669 21.4492 85.0017 21.1041C84.1365 20.759 83.4535 20.2969 82.9745 19.6179C82.4955 18.939 82.2984 18.1647 82.444 17.2561C82.5288 16.3865 83.5316 13.9406 85.3806 10.0073Z" fill="#263E65"/>
<path d="M66.2125 16.6996L65.3328 27.2173C64.5694 27.3645 63.7714 27.1907 62.8391 26.6743L63.0024 24.7247L60.4197 24.1101L59.1419 25.6603C58.0945 25.4322 57.4505 25.0308 57.1102 24.4343L64.1612 16.044C65.0352 15.8686 65.7226 16.0706 66.2125 16.6996ZM63.8933 19.4335L61.6521 22.2889L63.337 22.708L63.8933 19.4335Z" fill="#263E65"/>
<path d="M71.0442 18.7443C73.3167 19.3436 74.8693 19.8906 75.652 20.3744C76.4846 20.8692 76.8748 21.4765 76.8724 22.2074C76.87 22.9382 76.5639 23.8641 75.9259 24.8745C75.2772 25.9347 74.1992 26.3269 72.6704 26.1507L73.916 30.0265C73.1828 30.7549 72.3522 30.7308 71.4524 30.0647L70.3825 25.8615L69.5954 25.6379L68.1024 28.6561C67.0614 28.6384 66.4066 28.2869 66.0273 27.6297L70.2309 18.8806L71.0442 18.7443ZM71.7851 21.0996L70.4787 23.7406C72.3414 24.3029 73.4821 24.3423 73.8899 23.9087C74.2978 23.4752 74.5061 22.9981 74.4542 22.5167C74.4132 21.9853 73.5199 21.5296 71.7851 21.0996Z" fill="#263E65"/>
<path d="M85.6327 23.9583C85.5696 24.7282 85.3286 25.3548 84.7993 25.8664L80.4191 24.3903L79.6899 26.0599L83.283 27.3124C83.3803 28.065 83.1394 28.6916 82.532 29.0818L78.8674 27.9182L77.9125 29.9043L82.3924 31.4022C82.4572 32.3044 82.1447 33.0199 81.405 33.538L75.1123 31.4887C74.9236 31.3953 74.8673 31.1741 74.9216 30.9247L78.8867 22.0715C79.019 21.9436 79.1514 21.8157 79.3617 21.8092L85.6327 23.9583Z" fill="#263E65"/>
<path d="M53.516 26.786L53.9697 31.8999L56.0463 28.1206C56.6774 28.1013 57.1436 28.3595 57.5165 28.8064L53.7255 35.6602C53.2224 35.8118 52.7952 35.6143 52.2727 35.1349L51.9686 30.0537L49.7596 33.9608C48.9616 33.7871 48.4456 33.518 48.2224 33.1037L51.9417 26.3388C52.356 26.1155 52.8937 26.2849 53.516 26.786Z" fill="#263E65"/>
<path d="M60.5003 29.9781C61.0662 30.258 61.3892 30.694 61.53 31.2471C61.6599 31.85 61.5296 32.4485 61.1281 33.0925C60.7267 33.7364 60.269 34.1592 59.6834 34.4496C59.1086 34.6901 58.5274 34.7203 57.9615 34.4403C57.3955 34.1604 57.0227 33.7135 56.8819 33.1604C56.752 32.5575 56.8324 31.9482 57.2338 31.3042C57.6353 30.6602 58.093 30.2375 58.7285 29.958C59.364 29.6784 59.9842 29.709 60.5003 29.9781ZM59.7256 31.3766C59.537 31.2833 59.3266 31.2897 59.0555 31.3352C58.8234 31.4414 58.6304 31.6083 58.4763 31.8359C58.3114 32.1135 58.2571 32.3628 58.3134 32.5841C58.3697 32.8053 58.4868 32.9875 58.7253 33.0917C58.9139 33.185 59.1243 33.1785 59.3564 33.0724C59.5884 32.9662 59.7815 32.7992 59.8857 32.5607C60.0397 32.3331 60.094 32.0837 60.0377 31.8625C60.0421 31.6022 59.9142 31.4699 59.7256 31.3766Z" fill="#263E65"/>
<path d="M77.5203 37.7068C77.8807 36.5315 77.6554 35.6466 76.8944 35.063L70.4545 32.2503C69.0749 33.3081 67.4503 34.0514 65.763 34.3631C64.4574 34.6012 63.0456 34.6073 61.7271 34.4247C60.7376 36.0898 60.2035 38.0631 60.014 40.3727L62.616 41.6184L54.9059 56.3951L52.1651 55.067C51.4106 54.6937 50.5538 55.0296 50.1914 55.7343L47.0903 62.0592C46.7171 62.8137 47.042 63.7203 47.8075 64.0437L62.8143 71.1771C63.5298 71.4896 64.3757 71.2036 64.7381 70.4989L67.9108 64.0851C68.2732 63.3804 67.9482 62.4738 67.2327 62.1613L65.0969 61.1739L77.5203 37.7068Z" fill="#263E65"/>
<mask id="path-26-outside-1_208_500" maskUnits="userSpaceOnUse" x="4" y="125" width="147" height="19" fill="black">
<rect fill="white" x="4" y="125" width="147" height="19"/>
<path d="M6.07409 140L9.4581 127.4H13.6161L15.1281 131.828L19.0161 127.4H23.6421L20.2581 140H16.0641L17.7381 133.754L13.6341 138.236H13.5621L11.8701 133.754L10.1961 140H6.07409ZM24.7987 140.216C23.2867 140.216 22.1707 139.226 22.1707 137.534C22.1707 135.464 23.7907 134.114 26.5627 134.114C27.3007 134.114 28.0567 134.222 28.7947 134.438L28.8307 134.33C28.8667 134.204 28.9027 134.006 28.9027 133.844C28.9027 133.232 28.4167 132.89 27.3907 132.89C26.4907 132.89 25.3747 133.07 24.7087 133.322L24.1687 130.55C25.2307 130.226 26.7967 130.028 28.2187 130.028C31.4767 130.028 32.9887 131.27 32.9887 133.232C32.9887 133.646 32.9347 134.114 32.8087 134.6L31.3687 140H27.2827L27.5527 139.01C26.6707 139.748 25.9327 140.216 24.7987 140.216ZM26.7787 137.894C27.4267 137.894 28.1287 137.228 28.3627 136.31L28.4707 135.896C28.2007 135.824 27.9847 135.788 27.7147 135.788C26.6887 135.788 26.1127 136.274 26.1127 137.12C26.1127 137.624 26.4007 137.894 26.7787 137.894ZM32.4752 140L35.1032 130.172H39.1892L38.6672 132.152C39.5852 130.82 40.7192 129.956 42.3032 130.028L41.1512 134.366H40.7192C38.7932 134.366 37.7672 135.392 37.2092 137.552L36.5612 140H32.4752ZM40.4205 140L43.9485 126.86H48.0345L46.3965 132.926L49.0245 130.172H53.6865L49.3845 134.384L51.1125 140H46.8645L46.1265 137.156L44.9565 138.326L44.5065 140H40.4205ZM55.6645 136.04C55.7185 136.832 56.2225 137.354 57.1405 137.354C57.8065 137.354 58.4365 137.084 59.1205 136.562L61.0105 138.632C59.8945 139.622 58.5265 140.234 56.7985 140.234C53.8105 140.234 51.9745 138.488 51.9745 135.914C51.9745 132.926 54.2065 129.938 57.9505 129.938C61.1905 129.938 62.2705 132.134 62.2705 134.204C62.2705 134.852 62.1625 135.482 61.9825 136.04H55.6645ZM55.9165 134.24H58.6885C58.7425 134.096 58.7605 133.952 58.7605 133.808C58.7605 133.268 58.3645 132.764 57.6985 132.764C57.0865 132.764 56.2945 133.142 55.9165 134.24ZM66.6392 140.216C64.3352 140.216 63.2192 139.334 63.2192 137.534C63.2192 137.12 63.2912 136.67 63.4172 136.166L64.1732 133.322H63.0212L63.8672 130.172H65.0192L65.6852 127.706H69.7712L69.1052 130.172H71.3732L70.5272 133.322H68.2592L67.7012 135.428C67.6112 135.752 67.5752 135.986 67.5752 136.184C67.5752 136.598 67.8272 136.814 68.4032 136.814C68.7272 136.814 69.0152 136.76 69.5912 136.598L68.7092 139.928C68.0072 140.108 67.3232 140.216 66.6392 140.216ZM72.5132 129.47L73.2152 126.86H77.4452L76.7432 129.47H72.5132ZM69.7592 140L72.3872 130.172H76.4732L73.8452 140H69.7592ZM75.1373 140L77.7653 130.172H81.8513L81.5273 131.396C82.1753 130.604 83.2373 129.938 84.4613 129.938C86.2613 129.938 87.2693 131.108 87.2693 132.944C87.2693 133.448 87.1973 134.006 87.0353 134.6L85.5953 140H81.5093L82.8233 135.104C82.8953 134.852 82.9313 134.564 82.9313 134.366C82.9313 133.844 82.6613 133.502 82.0673 133.502C81.2573 133.502 80.8253 134.042 80.5373 135.104L79.2233 140H75.1373ZM91.4205 142.916C89.6205 142.916 87.5145 142.34 86.2725 141.584L87.8925 139.208C89.0625 139.874 90.3405 140.162 91.3125 140.162C92.2125 140.162 92.8065 139.946 93.2745 139.478C93.5805 139.172 93.8325 138.722 93.9945 138.092L94.0305 137.948C93.2925 138.632 92.3385 139.064 91.1325 139.064C89.4765 139.064 87.7845 137.876 87.7845 135.698C87.7845 132.872 89.6025 129.956 92.7165 129.956C94.0305 129.956 95.1105 130.604 95.6865 131.45L96.0285 130.172H100.115L98.0445 137.894C97.6305 139.442 97.0905 140.576 96.2625 141.404C95.2185 142.448 93.7245 142.916 91.4205 142.916ZM93.0765 136.328C94.1925 136.328 94.8585 135.338 94.8585 134.384C94.8585 133.682 94.3545 133.07 93.5085 133.07C92.4105 133.07 91.7265 134.024 91.7265 135.032C91.7265 135.734 92.2305 136.328 93.0765 136.328ZM110.734 140.27C107.602 140.27 104.506 138.614 104.506 134.654C104.506 130.532 107.746 127.13 112.822 127.13C115.198 127.13 117.232 128.156 118.096 129.218L115.468 131.918C114.748 131.252 113.668 130.784 112.552 130.784C110.158 130.784 108.736 132.422 108.736 134.456C108.736 136.022 109.87 136.796 111.184 136.796C111.634 136.796 111.994 136.724 112.282 136.598L112.696 135.248H110.626L111.31 132.548H117.376L115.576 138.974C114.334 139.712 112.552 140.27 110.734 140.27ZM120.294 140.234C118.494 140.234 117.486 139.064 117.486 137.228C117.486 136.724 117.558 136.166 117.72 135.572L119.16 130.172H123.246L121.932 135.068C121.86 135.32 121.824 135.608 121.824 135.806C121.824 136.328 122.094 136.67 122.688 136.67C123.498 136.67 123.93 136.13 124.218 135.068L125.532 130.172H129.618L126.99 140H122.904L123.228 138.776C122.58 139.568 121.518 140.234 120.294 140.234ZM128.135 140L130.763 130.172H134.849L134.327 132.152C135.245 130.82 136.379 129.956 137.963 130.028L136.811 134.366H136.379C134.453 134.366 133.427 135.392 132.869 137.552L132.221 140H128.135ZM139.771 140.234C137.971 140.234 136.963 139.064 136.963 137.228C136.963 136.724 137.035 136.166 137.197 135.572L138.637 130.172H142.723L141.409 135.068C141.337 135.32 141.301 135.608 141.301 135.806C141.301 136.328 141.571 136.67 142.165 136.67C142.975 136.67 143.407 136.13 143.695 135.068L145.009 130.172H149.095L146.467 140H142.381L142.705 138.776C142.057 139.568 140.995 140.234 139.771 140.234Z"/>
</mask>
<path d="M6.07409 140L9.4581 127.4H13.6161L15.1281 131.828L19.0161 127.4H23.6421L20.2581 140H16.0641L17.7381 133.754L13.6341 138.236H13.5621L11.8701 133.754L10.1961 140H6.07409ZM24.7987 140.216C23.2867 140.216 22.1707 139.226 22.1707 137.534C22.1707 135.464 23.7907 134.114 26.5627 134.114C27.3007 134.114 28.0567 134.222 28.7947 134.438L28.8307 134.33C28.8667 134.204 28.9027 134.006 28.9027 133.844C28.9027 133.232 28.4167 132.89 27.3907 132.89C26.4907 132.89 25.3747 133.07 24.7087 133.322L24.1687 130.55C25.2307 130.226 26.7967 130.028 28.2187 130.028C31.4767 130.028 32.9887 131.27 32.9887 133.232C32.9887 133.646 32.9347 134.114 32.8087 134.6L31.3687 140H27.2827L27.5527 139.01C26.6707 139.748 25.9327 140.216 24.7987 140.216ZM26.7787 137.894C27.4267 137.894 28.1287 137.228 28.3627 136.31L28.4707 135.896C28.2007 135.824 27.9847 135.788 27.7147 135.788C26.6887 135.788 26.1127 136.274 26.1127 137.12C26.1127 137.624 26.4007 137.894 26.7787 137.894ZM32.4752 140L35.1032 130.172H39.1892L38.6672 132.152C39.5852 130.82 40.7192 129.956 42.3032 130.028L41.1512 134.366H40.7192C38.7932 134.366 37.7672 135.392 37.2092 137.552L36.5612 140H32.4752ZM40.4205 140L43.9485 126.86H48.0345L46.3965 132.926L49.0245 130.172H53.6865L49.3845 134.384L51.1125 140H46.8645L46.1265 137.156L44.9565 138.326L44.5065 140H40.4205ZM55.6645 136.04C55.7185 136.832 56.2225 137.354 57.1405 137.354C57.8065 137.354 58.4365 137.084 59.1205 136.562L61.0105 138.632C59.8945 139.622 58.5265 140.234 56.7985 140.234C53.8105 140.234 51.9745 138.488 51.9745 135.914C51.9745 132.926 54.2065 129.938 57.9505 129.938C61.1905 129.938 62.2705 132.134 62.2705 134.204C62.2705 134.852 62.1625 135.482 61.9825 136.04H55.6645ZM55.9165 134.24H58.6885C58.7425 134.096 58.7605 133.952 58.7605 133.808C58.7605 133.268 58.3645 132.764 57.6985 132.764C57.0865 132.764 56.2945 133.142 55.9165 134.24ZM66.6392 140.216C64.3352 140.216 63.2192 139.334 63.2192 137.534C63.2192 137.12 63.2912 136.67 63.4172 136.166L64.1732 133.322H63.0212L63.8672 130.172H65.0192L65.6852 127.706H69.7712L69.1052 130.172H71.3732L70.5272 133.322H68.2592L67.7012 135.428C67.6112 135.752 67.5752 135.986 67.5752 136.184C67.5752 136.598 67.8272 136.814 68.4032 136.814C68.7272 136.814 69.0152 136.76 69.5912 136.598L68.7092 139.928C68.0072 140.108 67.3232 140.216 66.6392 140.216ZM72.5132 129.47L73.2152 126.86H77.4452L76.7432 129.47H72.5132ZM69.7592 140L72.3872 130.172H76.4732L73.8452 140H69.7592ZM75.1373 140L77.7653 130.172H81.8513L81.5273 131.396C82.1753 130.604 83.2373 129.938 84.4613 129.938C86.2613 129.938 87.2693 131.108 87.2693 132.944C87.2693 133.448 87.1973 134.006 87.0353 134.6L85.5953 140H81.5093L82.8233 135.104C82.8953 134.852 82.9313 134.564 82.9313 134.366C82.9313 133.844 82.6613 133.502 82.0673 133.502C81.2573 133.502 80.8253 134.042 80.5373 135.104L79.2233 140H75.1373ZM91.4205 142.916C89.6205 142.916 87.5145 142.34 86.2725 141.584L87.8925 139.208C89.0625 139.874 90.3405 140.162 91.3125 140.162C92.2125 140.162 92.8065 139.946 93.2745 139.478C93.5805 139.172 93.8325 138.722 93.9945 138.092L94.0305 137.948C93.2925 138.632 92.3385 139.064 91.1325 139.064C89.4765 139.064 87.7845 137.876 87.7845 135.698C87.7845 132.872 89.6025 129.956 92.7165 129.956C94.0305 129.956 95.1105 130.604 95.6865 131.45L96.0285 130.172H100.115L98.0445 137.894C97.6305 139.442 97.0905 140.576 96.2625 141.404C95.2185 142.448 93.7245 142.916 91.4205 142.916ZM93.0765 136.328C94.1925 136.328 94.8585 135.338 94.8585 134.384C94.8585 133.682 94.3545 133.07 93.5085 133.07C92.4105 133.07 91.7265 134.024 91.7265 135.032C91.7265 135.734 92.2305 136.328 93.0765 136.328ZM110.734 140.27C107.602 140.27 104.506 138.614 104.506 134.654C104.506 130.532 107.746 127.13 112.822 127.13C115.198 127.13 117.232 128.156 118.096 129.218L115.468 131.918C114.748 131.252 113.668 130.784 112.552 130.784C110.158 130.784 108.736 132.422 108.736 134.456C108.736 136.022 109.87 136.796 111.184 136.796C111.634 136.796 111.994 136.724 112.282 136.598L112.696 135.248H110.626L111.31 132.548H117.376L115.576 138.974C114.334 139.712 112.552 140.27 110.734 140.27ZM120.294 140.234C118.494 140.234 117.486 139.064 117.486 137.228C117.486 136.724 117.558 136.166 117.72 135.572L119.16 130.172H123.246L121.932 135.068C121.86 135.32 121.824 135.608 121.824 135.806C121.824 136.328 122.094 136.67 122.688 136.67C123.498 136.67 123.93 136.13 124.218 135.068L125.532 130.172H129.618L126.99 140H122.904L123.228 138.776C122.58 139.568 121.518 140.234 120.294 140.234ZM128.135 140L130.763 130.172H134.849L134.327 132.152C135.245 130.82 136.379 129.956 137.963 130.028L136.811 134.366H136.379C134.453 134.366 133.427 135.392 132.869 137.552L132.221 140H128.135ZM139.771 140.234C137.971 140.234 136.963 139.064 136.963 137.228C136.963 136.724 137.035 136.166 137.197 135.572L138.637 130.172H142.723L141.409 135.068C141.337 135.32 141.301 135.608 141.301 135.806C141.301 136.328 141.571 136.67 142.165 136.67C142.975 136.67 143.407 136.13 143.695 135.068L145.009 130.172H149.095L146.467 140H142.381L142.705 138.776C142.057 139.568 140.995 140.234 139.771 140.234Z" fill="#263E65"/>
<path d="M6.07409 140L5.10832 139.741L4.77009 141H6.07409V140ZM9.4581 127.4V126.4H8.69123L8.49232 127.141L9.4581 127.4ZM13.6161 127.4L14.5624 127.077L14.3313 126.4H13.6161V127.4ZM15.1281 131.828L14.1817 132.151L14.7399 133.786L15.8795 132.488L15.1281 131.828ZM19.0161 127.4V126.4H18.5634L18.2647 126.74L19.0161 127.4ZM23.6421 127.4L24.6079 127.659L24.9461 126.4H23.6421V127.4ZM20.2581 140V141H21.025L21.2239 140.259L20.2581 140ZM16.0641 140L15.0982 139.741L14.7608 141H16.0641V140ZM17.7381 133.754L18.704 134.013L17.0006 133.079L17.7381 133.754ZM13.6341 138.236V139.236H14.0743L14.3716 138.911L13.6341 138.236ZM13.5621 138.236L12.6265 138.589L12.8707 139.236H13.5621V138.236ZM11.8701 133.754L12.8057 133.401L11.7084 130.494L10.9042 133.495L11.8701 133.754ZM10.1961 140V141H10.9634L11.162 140.259L10.1961 140ZM7.03987 140.259L10.4239 127.659L8.49232 127.141L5.10832 139.741L7.03987 140.259ZM9.4581 128.4H13.6161V126.4H9.4581V128.4ZM12.6697 127.723L14.1817 132.151L16.0744 131.505L14.5624 127.077L12.6697 127.723ZM15.8795 132.488L19.7675 128.06L18.2647 126.74L14.3767 131.168L15.8795 132.488ZM19.0161 128.4H23.6421V126.4H19.0161V128.4ZM22.6763 127.141L19.2923 139.741L21.2239 140.259L24.6079 127.659L22.6763 127.141ZM20.2581 139H16.0641V141H20.2581V139ZM17.03 140.259L18.704 134.013L16.7722 133.495L15.0982 139.741L17.03 140.259ZM17.0006 133.079L12.8966 137.561L14.3716 138.911L18.4756 134.429L17.0006 133.079ZM13.6341 137.236H13.5621V139.236H13.6341V137.236ZM14.4977 137.883L12.8057 133.401L10.9345 134.107L12.6265 138.589L14.4977 137.883ZM10.9042 133.495L9.23018 139.741L11.162 140.259L12.836 134.013L10.9042 133.495ZM10.1961 139H6.07409V141H10.1961V139ZM28.7947 134.438L28.5138 135.398L29.4387 135.668L29.7434 134.754L28.7947 134.438ZM28.8307 134.33L29.7794 134.646L29.7863 134.626L29.7923 134.605L28.8307 134.33ZM24.7087 133.322L23.7272 133.513L23.9539 134.677L25.0626 134.257L24.7087 133.322ZM24.1687 130.55L23.8769 129.594L23.0148 129.857L23.1872 130.741L24.1687 130.55ZM32.8087 134.6L33.775 134.858L33.7767 134.851L32.8087 134.6ZM31.3687 140V141H32.137L32.335 140.258L31.3687 140ZM27.2827 140L26.318 139.737L25.9735 141H27.2827V140ZM27.5527 139.01L28.5175 139.273L29.3565 136.197L26.911 138.243L27.5527 139.01ZM28.3627 136.31L27.3951 136.058L27.3937 136.063L28.3627 136.31ZM28.4707 135.896L29.4384 136.148L29.6894 135.186L28.7284 134.93L28.4707 135.896ZM24.7987 139.216C24.2624 139.216 23.8709 139.044 23.6179 138.796C23.3693 138.552 23.1707 138.153 23.1707 137.534H21.1707C21.1707 138.607 21.5302 139.549 22.2175 140.223C22.9006 140.893 23.823 141.216 24.7987 141.216V139.216ZM23.1707 137.534C23.1707 136.785 23.4511 136.226 23.9488 135.831C24.4722 135.416 25.3268 135.114 26.5627 135.114V133.114C25.0267 133.114 23.6853 133.487 22.7057 134.264C21.7004 135.062 21.1707 136.213 21.1707 137.534H23.1707ZM26.5627 135.114C27.204 135.114 27.8655 135.208 28.5138 135.398L29.0756 133.478C28.248 133.236 27.3974 133.114 26.5627 133.114V135.114ZM29.7434 134.754L29.7794 134.646L27.8821 134.014L27.8461 134.122L29.7434 134.754ZM29.7923 134.605C29.8469 134.413 29.9027 134.121 29.9027 133.844H27.9027C27.9027 133.858 27.9006 133.893 27.8925 133.945C27.8846 133.995 27.8749 134.036 27.8692 134.055L29.7923 134.605ZM29.9027 133.844C29.9027 133.225 29.631 132.659 29.0757 132.299C28.5903 131.984 27.9849 131.89 27.3907 131.89V133.89C27.5946 133.89 27.7429 133.907 27.8457 133.93C27.8961 133.941 27.9317 133.952 27.9551 133.962C27.9784 133.971 27.9877 133.977 27.9873 133.976C27.9817 133.973 27.9497 133.948 27.9241 133.899C27.8997 133.852 27.9027 133.825 27.9027 133.844H29.9027ZM27.3907 131.89C26.4001 131.89 25.1591 132.082 24.3548 132.387L25.0626 134.257C25.5903 134.058 26.5814 133.89 27.3907 133.89V131.89ZM25.6903 133.131L25.1503 130.359L23.1872 130.741L23.7272 133.513L25.6903 133.131ZM24.4605 131.506C25.4033 131.219 26.866 131.028 28.2187 131.028V129.028C26.7275 129.028 25.0582 129.233 23.8769 129.594L24.4605 131.506ZM28.2187 131.028C29.7452 131.028 30.7003 131.323 31.2478 131.711C31.743 132.061 31.9887 132.543 31.9887 133.232H33.9887C33.9887 131.959 33.4785 130.839 32.4032 130.078C31.3802 129.354 29.9503 129.028 28.2187 129.028V131.028ZM31.9887 133.232C31.9887 133.561 31.9455 133.945 31.8407 134.349L33.7767 134.851C33.924 134.283 33.9887 133.731 33.9887 133.232H31.9887ZM31.8425 134.342L30.4025 139.742L32.335 140.258L33.775 134.858L31.8425 134.342ZM31.3687 139H27.2827V141H31.3687V139ZM28.2475 140.263L28.5175 139.273L26.588 138.747L26.318 139.737L28.2475 140.263ZM26.911 138.243C26.0872 138.932 25.5774 139.216 24.7987 139.216V141.216C26.2881 141.216 27.2542 140.564 28.1945 139.777L26.911 138.243ZM26.7787 138.894C27.4419 138.894 28.0175 138.562 28.4275 138.159C28.8478 137.745 29.1713 137.186 29.3318 136.557L27.3937 136.063C27.3202 136.352 27.1757 136.585 27.0245 136.734C26.863 136.893 26.7636 136.894 26.7787 136.894V138.894ZM29.3304 136.562L29.4384 136.148L27.5031 135.644L27.3951 136.058L29.3304 136.562ZM28.7284 134.93C28.3975 134.842 28.0928 134.788 27.7147 134.788V136.788C27.8766 136.788 28.0039 136.806 28.2131 136.862L28.7284 134.93ZM27.7147 134.788C27.0589 134.788 26.3997 134.942 25.8882 135.369C25.35 135.818 25.1127 136.454 25.1127 137.12H27.1127C27.1127 137.022 27.1293 136.969 27.1389 136.947C27.1471 136.927 27.1557 136.916 27.1698 136.904C27.2027 136.877 27.3446 136.788 27.7147 136.788V134.788ZM25.1127 137.12C25.1127 137.561 25.241 138.015 25.5658 138.371C25.8962 138.732 26.3428 138.894 26.7787 138.894V136.894C26.8367 136.894 26.9503 136.921 27.0422 137.021C27.1284 137.116 27.1127 137.183 27.1127 137.12H25.1127ZM32.4752 140L31.5091 139.742L31.1726 141H32.4752V140ZM35.1032 130.172V129.172H34.3354L34.1371 129.914L35.1032 130.172ZM39.1892 130.172L40.1561 130.427L40.487 129.172H39.1892V130.172ZM38.6672 132.152L37.7002 131.897L39.4906 132.719L38.6672 132.152ZM42.3032 130.028L43.2697 130.285L43.5882 129.085L42.3486 129.029L42.3032 130.028ZM41.1512 134.366V135.366H41.9203L42.1177 134.623L41.1512 134.366ZM37.2092 137.552L38.1759 137.808L38.1774 137.802L37.2092 137.552ZM36.5612 140V141H37.3309L37.5279 140.256L36.5612 140ZM33.4412 140.258L36.0692 130.43L34.1371 129.914L31.5091 139.742L33.4412 140.258ZM35.1032 131.172H39.1892V129.172H35.1032V131.172ZM38.2222 129.917L37.7002 131.897L39.6341 132.407L40.1561 130.427L38.2222 129.917ZM39.4906 132.719C40.3056 131.537 41.1551 130.977 42.2578 131.027L42.3486 129.029C40.2833 128.935 38.8648 130.103 37.8438 131.585L39.4906 132.719ZM41.3367 129.771L40.1847 134.109L42.1177 134.623L43.2697 130.285L41.3367 129.771ZM41.1512 133.366H40.7192V135.366H41.1512V133.366ZM40.7192 133.366C39.5659 133.366 38.5637 133.68 37.7707 134.416C37.0053 135.127 36.5429 136.133 36.241 137.302L38.1774 137.802C38.4334 136.811 38.7631 136.224 39.1316 135.882C39.4726 135.565 39.9464 135.366 40.7192 135.366V133.366ZM36.2425 137.296L35.5945 139.744L37.5279 140.256L38.1759 137.808L36.2425 137.296ZM36.5612 139H32.4752V141H36.5612V139ZM40.4205 140L39.4547 139.741L39.1166 141H40.4205V140ZM43.9485 126.86V125.86H43.1816L42.9827 126.601L43.9485 126.86ZM48.0345 126.86L48.9999 127.121L49.3403 125.86H48.0345V126.86ZM46.3965 132.926L45.4311 132.665L47.12 133.616L46.3965 132.926ZM49.0245 130.172V129.172H48.5965L48.301 129.482L49.0245 130.172ZM53.6865 130.172L54.3861 130.887L56.1373 129.172H53.6865V130.172ZM49.3845 134.384L48.6849 133.669L48.2495 134.096L48.4287 134.678L49.3845 134.384ZM51.1125 140V141H52.4665L52.0683 139.706L51.1125 140ZM46.8645 140L45.8965 140.251L46.0909 141H46.8645V140ZM46.1265 137.156L47.0944 136.905L46.6554 135.213L45.4194 136.449L46.1265 137.156ZM44.9565 138.326L44.2494 137.619L44.0602 137.808L43.9908 138.066L44.9565 138.326ZM44.5065 140V141H45.2732L45.4722 140.26L44.5065 140ZM41.3863 140.259L44.9143 127.119L42.9827 126.601L39.4547 139.741L41.3863 140.259ZM43.9485 127.86H48.0345V125.86H43.9485V127.86ZM47.0691 126.599L45.4311 132.665L47.3619 133.187L48.9999 127.121L47.0691 126.599ZM47.12 133.616L49.748 130.862L48.301 129.482L45.673 132.236L47.12 133.616ZM49.0245 131.172H53.6865V129.172H49.0245V131.172ZM52.9869 129.457L48.6849 133.669L50.0841 135.099L54.3861 130.887L52.9869 129.457ZM48.4287 134.678L50.1567 140.294L52.0683 139.706L50.3403 134.09L48.4287 134.678ZM51.1125 139H46.8645V141H51.1125V139ZM47.8324 139.749L47.0944 136.905L45.1585 137.407L45.8965 140.251L47.8324 139.749ZM45.4194 136.449L44.2494 137.619L45.6636 139.033L46.8336 137.863L45.4194 136.449ZM43.9908 138.066L43.5408 139.74L45.4722 140.26L45.9222 138.586L43.9908 138.066ZM44.5065 139H40.4205V141H44.5065V139ZM55.6645 136.04V135.04H54.594L54.6668 136.108L55.6645 136.04ZM59.1205 136.562L59.859 135.888L59.2417 135.212L58.5138 135.767L59.1205 136.562ZM61.0105 138.632L61.6741 139.38L62.433 138.707L61.749 137.958L61.0105 138.632ZM61.9825 136.04V137.04H62.7107L62.9342 136.347L61.9825 136.04ZM55.9165 134.24L54.971 133.914L54.5147 135.24H55.9165V134.24ZM58.6885 134.24V135.24H59.3815L59.6249 134.591L58.6885 134.24ZM54.6668 136.108C54.7073 136.701 54.9261 137.289 55.3986 137.727C55.8715 138.166 56.4907 138.354 57.1405 138.354V136.354C56.8724 136.354 56.7805 136.281 56.7585 136.261C56.7359 136.24 56.6758 136.171 56.6622 135.972L54.6668 136.108ZM57.1405 138.354C58.1032 138.354 58.9426 137.956 59.7272 137.357L58.5138 135.767C57.9304 136.212 57.5098 136.354 57.1405 136.354V138.354ZM58.382 137.236L60.272 139.306L61.749 137.958L59.859 135.888L58.382 137.236ZM60.3469 137.884C59.3977 138.726 58.2611 139.234 56.7985 139.234V141.234C58.7919 141.234 60.3914 140.518 61.6741 139.38L60.3469 137.884ZM56.7985 139.234C55.4969 139.234 54.5497 138.856 53.9394 138.3C53.3376 137.752 52.9745 136.952 52.9745 135.914H50.9745C50.9745 137.45 51.5294 138.81 52.5927 139.779C53.6473 140.739 55.1122 141.234 56.7985 141.234V139.234ZM52.9745 135.914C52.9745 133.394 54.8399 130.938 57.9505 130.938V128.938C53.5731 128.938 50.9745 132.458 50.9745 135.914H52.9745ZM57.9505 130.938C59.3247 130.938 60.1033 131.392 60.5582 131.936C61.0394 132.512 61.2705 133.325 61.2705 134.204H63.2705C63.2705 133.013 62.9616 131.693 62.0929 130.654C61.1977 129.582 59.8164 128.938 57.9505 128.938V130.938ZM61.2705 134.204C61.2705 134.743 61.1802 135.27 61.0308 135.733L62.9342 136.347C63.1449 135.694 63.2705 134.961 63.2705 134.204H61.2705ZM61.9825 135.04H55.6645V137.04H61.9825V135.04ZM55.9165 135.24H58.6885V133.24H55.9165V135.24ZM59.6249 134.591C59.7318 134.306 59.7605 134.037 59.7605 133.808H57.7605C57.7605 133.867 57.7533 133.886 57.7522 133.889L59.6249 134.591ZM59.7605 133.808C59.7605 132.773 58.9724 131.764 57.6985 131.764V133.764C57.7371 133.764 57.7528 133.771 57.7537 133.771C57.7549 133.772 57.753 133.771 57.7513 133.769C57.7496 133.767 57.7605 133.779 57.7605 133.808H59.7605ZM57.6985 131.764C56.6522 131.764 55.4855 132.42 54.971 133.914L56.8621 134.566C56.9903 134.193 57.1658 134.001 57.3042 133.902C57.4494 133.797 57.5943 133.764 57.6985 133.764V131.764ZM63.4172 136.166L62.4507 135.909L62.4488 135.916L62.447 135.923L63.4172 136.166ZM64.1732 133.322L65.1396 133.579L65.4737 132.322H64.1732V133.322ZM63.0212 133.322L62.0554 133.063L61.7172 134.322H63.0212V133.322ZM63.8672 130.172V129.172H63.1003L62.9014 129.913L63.8672 130.172ZM65.0192 130.172V131.172H65.7849L65.9846 130.433L65.0192 130.172ZM65.6852 127.706V126.706H64.9194L64.7198 127.445L65.6852 127.706ZM69.7712 127.706L70.7366 127.967L71.0771 126.706H69.7712V127.706ZM69.1052 130.172L68.1398 129.911L67.7993 131.172H69.1052V130.172ZM71.3732 130.172L72.339 130.431L72.6772 129.172H71.3732V130.172ZM70.5272 133.322V134.322H71.294L71.493 133.581L70.5272 133.322ZM68.2592 133.322V132.322H67.4896L67.2925 133.066L68.2592 133.322ZM67.7012 135.428L68.6648 135.696L68.6678 135.684L67.7012 135.428ZM69.5912 136.598L70.5578 136.854L71.0062 135.161L69.3204 135.635L69.5912 136.598ZM68.7092 139.928L68.9576 140.897L69.5257 140.751L69.6758 140.184L68.7092 139.928ZM66.6392 139.216C65.5855 139.216 64.9954 139.009 64.683 138.764C64.4186 138.556 64.2192 138.215 64.2192 137.534H62.2192C62.2192 138.653 62.5777 139.653 63.4474 140.336C64.2689 140.982 65.3889 141.216 66.6392 141.216V139.216ZM64.2192 137.534C64.2192 137.232 64.2722 136.869 64.3873 136.409L62.447 135.923C62.3102 136.471 62.2192 137.008 62.2192 137.534H64.2192ZM64.3836 136.423L65.1396 133.579L63.2067 133.065L62.4507 135.909L64.3836 136.423ZM64.1732 132.322H63.0212V134.322H64.1732V132.322ZM63.987 133.581L64.833 130.431L62.9014 129.913L62.0554 133.063L63.987 133.581ZM63.8672 131.172H65.0192V129.172H63.8672V131.172ZM65.9846 130.433L66.6506 127.967L64.7198 127.445L64.0538 129.911L65.9846 130.433ZM65.6852 128.706H69.7712V126.706H65.6852V128.706ZM68.8058 127.445L68.1398 129.911L70.0706 130.433L70.7366 127.967L68.8058 127.445ZM69.1052 131.172H71.3732V129.172H69.1052V131.172ZM70.4074 129.913L69.5614 133.063L71.493 133.581L72.339 130.431L70.4074 129.913ZM70.5272 132.322H68.2592V134.322H70.5272V132.322ZM67.2925 133.066L66.7345 135.172L68.6678 135.684L69.2258 133.578L67.2925 133.066ZM66.7377 135.16C66.634 135.533 66.5752 135.863 66.5752 136.184H68.5752C68.5752 136.109 68.5883 135.971 68.6647 135.696L66.7377 135.16ZM66.5752 136.184C66.5752 136.605 66.7147 137.095 67.1565 137.441C67.5478 137.748 68.0213 137.814 68.4032 137.814V135.814C68.362 135.814 68.3314 135.812 68.3099 135.81C68.2993 135.809 68.2914 135.807 68.2861 135.806C68.2807 135.806 68.2782 135.805 68.2782 135.805C68.2783 135.805 68.2811 135.806 68.2864 135.807C68.2917 135.809 68.2995 135.812 68.3095 135.817C68.3298 135.826 68.3581 135.842 68.3898 135.867C68.4597 135.922 68.5147 135.996 68.5469 136.073C68.5761 136.143 68.5752 136.188 68.5752 136.184H66.5752ZM68.4032 137.814C68.8683 137.814 69.2636 137.729 69.8619 137.561L69.3204 135.635C68.7667 135.791 68.586 135.814 68.4032 135.814V137.814ZM68.6245 136.342L67.7425 139.672L69.6758 140.184L70.5578 136.854L68.6245 136.342ZM68.4608 138.959C67.8159 139.125 67.2177 139.216 66.6392 139.216V141.216C67.4286 141.216 68.1985 141.091 68.9576 140.897L68.4608 138.959ZM72.5132 129.47L71.5475 129.21L71.2087 130.47H72.5132V129.47ZM73.2152 126.86V125.86H72.4487L72.2495 126.6L73.2152 126.86ZM77.4452 126.86L78.4109 127.12L78.7497 125.86H77.4452V126.86ZM76.7432 129.47V130.47H77.5098L77.7089 129.73L76.7432 129.47ZM69.7592 140L68.7932 139.742L68.4567 141H69.7592V140ZM72.3872 130.172V129.172H71.6195L71.4212 129.914L72.3872 130.172ZM76.4732 130.172L77.4393 130.43L77.7758 129.172H76.4732V130.172ZM73.8452 140V141H74.613L74.8113 140.258L73.8452 140ZM73.4789 129.73L74.1809 127.12L72.2495 126.6L71.5475 129.21L73.4789 129.73ZM73.2152 127.86H77.4452V125.86H73.2152V127.86ZM76.4795 126.6L75.7775 129.21L77.7089 129.73L78.4109 127.12L76.4795 126.6ZM76.7432 128.47H72.5132V130.47H76.7432V128.47ZM70.7253 140.258L73.3533 130.43L71.4212 129.914L68.7932 139.742L70.7253 140.258ZM72.3872 131.172H76.4732V129.172H72.3872V131.172ZM75.5072 129.914L72.8792 139.742L74.8113 140.258L77.4393 130.43L75.5072 129.914ZM73.8452 139H69.7592V141H73.8452V139ZM75.1373 140L74.1712 139.742L73.8348 141H75.1373V140ZM77.7653 130.172V129.172H76.9976L76.7992 129.914L77.7653 130.172ZM81.8513 130.172L82.818 130.428L83.1504 129.172H81.8513V130.172ZM81.5273 131.396L80.5606 131.14L82.3012 132.029L81.5273 131.396ZM87.0353 134.6L86.0705 134.337L86.0691 134.342L87.0353 134.6ZM85.5953 140V141H86.3636L86.5615 140.258L85.5953 140ZM81.5093 140L80.5435 139.741L80.2055 141H81.5093V140ZM82.8233 135.104L81.8618 134.829L81.8596 134.837L81.8575 134.845L82.8233 135.104ZM80.5373 135.104L79.5721 134.842L79.5715 134.845L80.5373 135.104ZM79.2233 140V141H79.9903L80.1891 140.259L79.2233 140ZM76.1033 140.258L78.7313 130.43L76.7992 129.914L74.1712 139.742L76.1033 140.258ZM77.7653 131.172H81.8513V129.172H77.7653V131.172ZM80.8846 129.916L80.5606 131.14L82.494 131.652L82.818 130.428L80.8846 129.916ZM82.3012 132.029C82.8044 131.414 83.6018 130.938 84.4613 130.938V128.938C82.8728 128.938 81.5462 129.794 80.7533 130.763L82.3012 132.029ZM84.4613 130.938C85.1356 130.938 85.5488 131.15 85.8021 131.427C86.0669 131.717 86.2693 132.202 86.2693 132.944H88.2693C88.2693 131.85 87.9677 130.832 87.2785 130.078C86.5778 129.311 85.587 128.938 84.4613 128.938V130.938ZM86.2693 132.944C86.2693 133.354 86.2107 133.823 86.0705 134.337L88.0001 134.863C88.1839 134.189 88.2693 133.542 88.2693 132.944H86.2693ZM86.0691 134.342L84.6291 139.742L86.5615 140.258L88.0015 134.858L86.0691 134.342ZM85.5953 139H81.5093V141H85.5953V139ZM82.4751 140.259L83.7891 135.363L81.8575 134.845L80.5435 139.741L82.4751 140.259ZM83.7848 135.379C83.8822 135.038 83.9313 134.657 83.9313 134.366H81.9313C81.9313 134.41 81.9268 134.484 81.914 134.576C81.9013 134.666 81.883 134.755 81.8618 134.829L83.7848 135.379ZM83.9313 134.366C83.9313 133.944 83.8215 133.448 83.4506 133.053C83.0694 132.648 82.5567 132.502 82.0673 132.502V134.502C82.1215 134.502 82.1288 134.51 82.1063 134.502C82.0797 134.492 82.0355 134.468 81.9935 134.423C81.9061 134.33 81.9313 134.266 81.9313 134.366H83.9313ZM82.0673 132.502C81.4032 132.502 80.8178 132.74 80.3691 133.229C79.9638 133.672 79.7314 134.255 79.5722 134.842L81.5024 135.366C81.6312 134.891 81.7588 134.673 81.844 134.58C81.878 134.543 81.9009 134.531 81.9166 134.524C81.9342 134.516 81.9776 134.502 82.0673 134.502V132.502ZM79.5715 134.845L78.2575 139.741L80.1891 140.259L81.5031 135.363L79.5715 134.845ZM79.2233 139H75.1373V141H79.2233V139ZM86.2725 141.584L85.4463 141.021L84.8531 141.891L85.7526 142.438L86.2725 141.584ZM87.8925 139.208L88.3872 138.339L87.5858 137.883L87.0663 138.645L87.8925 139.208ZM93.2745 139.478L93.9816 140.185L93.9817 140.185L93.2745 139.478ZM93.9945 138.092L94.9631 138.341L94.9647 138.335L93.9945 138.092ZM94.0305 137.948L95.0007 138.191L95.8159 134.93L93.3508 137.215L94.0305 137.948ZM95.6865 131.45L94.8599 132.013L96.0883 133.817L96.6526 131.709L95.6865 131.45ZM96.0285 130.172V129.172H95.261L95.0625 129.913L96.0285 130.172ZM100.115 130.172L101.08 130.431L101.418 129.172H100.115V130.172ZM98.0445 137.894L97.0786 137.635L97.0785 137.636L98.0445 137.894ZM96.2625 141.404L96.9697 142.111L96.9697 142.111L96.2625 141.404ZM91.4205 141.916C89.7809 141.916 87.8592 141.379 86.7925 140.73L85.7526 142.438C87.1699 143.301 89.4602 143.916 91.4205 143.916V141.916ZM87.0988 142.147L88.7188 139.771L87.0663 138.645L85.4463 141.021L87.0988 142.147ZM87.3978 140.077C88.7189 140.829 90.1675 141.162 91.3125 141.162V139.162C90.5136 139.162 89.4061 138.919 88.3872 138.339L87.3978 140.077ZM91.3125 141.162C92.3946 141.162 93.2745 140.892 93.9816 140.185L92.5674 138.771C92.3386 139 92.0305 139.162 91.3125 139.162V141.162ZM93.9817 140.185C94.4433 139.723 94.768 139.1 94.963 138.341L93.026 137.843C92.8971 138.344 92.7178 138.621 92.5674 138.771L93.9817 140.185ZM94.9647 138.335L95.0007 138.191L93.0604 137.705L93.0244 137.849L94.9647 138.335ZM93.3508 137.215C92.7888 137.735 92.0746 138.064 91.1325 138.064V140.064C92.6025 140.064 93.7963 139.529 94.7103 138.681L93.3508 137.215ZM91.1325 138.064C89.931 138.064 88.7845 137.231 88.7845 135.698H86.7845C86.7845 138.521 89.0221 140.064 91.1325 140.064V138.064ZM88.7845 135.698C88.7845 133.178 90.3723 130.956 92.7165 130.956V128.956C88.8328 128.956 86.7845 132.566 86.7845 135.698H88.7845ZM92.7165 130.956C93.6997 130.956 94.4702 131.44 94.8599 132.013L96.5131 130.887C95.7509 129.768 94.3614 128.956 92.7165 128.956V130.956ZM96.6526 131.709L96.9946 130.431L95.0625 129.913L94.7205 131.191L96.6526 131.709ZM96.0285 131.172H100.115V129.172H96.0285V131.172ZM99.1486 129.913L97.0786 137.635L99.0104 138.153L101.08 130.431L99.1486 129.913ZM97.0785 137.636C96.6862 139.102 96.2074 140.045 95.5554 140.697L96.9697 142.111C97.9737 141.107 98.5749 139.782 99.0106 138.152L97.0785 137.636ZM95.5554 140.697C94.7806 141.472 93.6028 141.916 91.4205 141.916V143.916C93.8463 143.916 95.6565 143.424 96.9697 142.111L95.5554 140.697ZM93.0765 137.328C94.9068 137.328 95.8585 135.713 95.8585 134.384H93.8585C93.8585 134.64 93.7659 134.896 93.6182 135.073C93.4842 135.234 93.311 135.328 93.0765 135.328V137.328ZM95.8585 134.384C95.8585 133.166 94.9424 132.07 93.5085 132.07V134.07C93.6775 134.07 93.7491 134.125 93.7803 134.157C93.8194 134.198 93.8585 134.272 93.8585 134.384H95.8585ZM93.5085 132.07C91.7077 132.07 90.7265 133.635 90.7265 135.032H92.7265C92.7265 134.746 92.8254 134.489 92.9694 134.319C93.1013 134.163 93.2743 134.07 93.5085 134.07V132.07ZM90.7265 135.032C90.7265 135.623 90.9408 136.206 91.3704 136.644C91.8062 137.088 92.4088 137.328 93.0765 137.328V135.328C92.8983 135.328 92.8258 135.271 92.7982 135.243C92.7643 135.208 92.7265 135.143 92.7265 135.032H90.7265ZM118.096 129.218L118.812 129.915L119.433 129.278L118.871 128.587L118.096 129.218ZM115.468 131.918L114.789 132.652L115.504 133.314L116.184 132.615L115.468 131.918ZM112.282 136.598L112.682 137.514L113.103 137.33L113.238 136.891L112.282 136.598ZM112.696 135.248L113.652 135.541L114.048 134.248H112.696V135.248ZM110.626 135.248L109.656 135.002L109.341 136.248H110.626V135.248ZM111.31 132.548V131.548H110.531L110.34 132.302L111.31 132.548ZM117.376 132.548L118.338 132.818L118.694 131.548H117.376V132.548ZM115.576 138.974L116.086 139.834L116.431 139.629L116.538 139.244L115.576 138.974ZM110.734 139.27C109.327 139.27 108.006 138.896 107.06 138.158C106.149 137.448 105.506 136.34 105.506 134.654H103.506C103.506 136.928 104.41 138.628 105.83 139.736C107.215 140.816 109.008 141.27 110.734 141.27V139.27ZM105.506 134.654C105.506 131.136 108.244 128.13 112.822 128.13V126.13C107.247 126.13 103.506 129.928 103.506 134.654H105.506ZM112.822 128.13C114.96 128.13 116.682 129.066 117.32 129.849L118.871 128.587C117.781 127.246 115.435 126.13 112.822 126.13V128.13ZM117.379 128.521L114.751 131.221L116.184 132.615L118.812 129.915L117.379 128.521ZM116.147 131.184C115.25 130.355 113.931 129.784 112.552 129.784V131.784C113.404 131.784 114.245 132.149 114.789 132.652L116.147 131.184ZM112.552 129.784C111.117 129.784 109.897 130.28 109.034 131.155C108.176 132.025 107.736 133.204 107.736 134.456H109.736C109.736 133.674 110.006 133.017 110.458 132.56C110.904 132.107 111.592 131.784 112.552 131.784V129.784ZM107.736 134.456C107.736 135.5 108.124 136.371 108.811 136.968C109.477 137.547 110.339 137.796 111.184 137.796V135.796C110.714 135.796 110.352 135.658 110.123 135.459C109.914 135.277 109.736 134.978 109.736 134.456H107.736ZM111.184 137.796C111.738 137.796 112.241 137.707 112.682 137.514L111.881 135.682C111.746 135.741 111.529 135.796 111.184 135.796V137.796ZM113.238 136.891L113.652 135.541L111.74 134.955L111.326 136.305L113.238 136.891ZM112.696 134.248H110.626V136.248H112.696V134.248ZM111.595 135.494L112.279 132.794L110.34 132.302L109.656 135.002L111.595 135.494ZM111.31 133.548H117.376V131.548H111.31V133.548ZM116.413 132.278L114.613 138.704L116.538 139.244L118.338 132.818L116.413 132.278ZM115.065 138.114C113.972 138.764 112.365 139.27 110.734 139.27V141.27C112.738 141.27 114.696 140.66 116.086 139.834L115.065 138.114ZM117.72 135.572L118.685 135.835L118.686 135.83L117.72 135.572ZM119.16 130.172V129.172H118.392L118.194 129.914L119.16 130.172ZM123.246 130.172L124.212 130.431L124.55 129.172H123.246V130.172ZM121.932 135.068L122.894 135.343L122.896 135.335L122.898 135.327L121.932 135.068ZM124.218 135.068L125.183 135.33L125.184 135.327L124.218 135.068ZM125.532 130.172V129.172H124.765L124.566 129.913L125.532 130.172ZM129.618 130.172L130.584 130.43L130.921 129.172H129.618V130.172ZM126.99 140V141H127.758L127.956 140.258L126.99 140ZM122.904 140L121.937 139.744L121.605 141H122.904V140ZM123.228 138.776L124.195 139.032L122.454 138.143L123.228 138.776ZM120.294 139.234C119.62 139.234 119.207 139.022 118.953 138.745C118.689 138.455 118.486 137.97 118.486 137.228H116.486C116.486 138.322 116.788 139.34 117.477 140.094C118.178 140.861 119.168 141.234 120.294 141.234V139.234ZM118.486 137.228C118.486 136.818 118.545 136.349 118.685 135.835L116.755 135.309C116.571 135.983 116.486 136.63 116.486 137.228H118.486ZM118.686 135.83L120.126 130.43L118.194 129.914L116.754 135.314L118.686 135.83ZM119.16 131.172H123.246V129.172H119.16V131.172ZM122.28 129.913L120.966 134.809L122.898 135.327L124.212 130.431L122.28 129.913ZM120.971 134.793C120.873 135.134 120.824 135.515 120.824 135.806H122.824C122.824 135.762 122.829 135.688 122.841 135.596C122.854 135.506 122.872 135.417 122.894 135.343L120.971 134.793ZM120.824 135.806C120.824 136.228 120.934 136.724 121.305 137.119C121.686 137.524 122.199 137.67 122.688 137.67V135.67C122.634 135.67 122.627 135.662 122.649 135.67C122.676 135.68 122.72 135.704 122.762 135.749C122.849 135.842 122.824 135.906 122.824 135.806H120.824ZM122.688 137.67C123.352 137.67 123.938 137.432 124.386 136.943C124.792 136.5 125.024 135.917 125.183 135.33L123.253 134.806C123.124 135.281 122.997 135.499 122.911 135.592C122.877 135.629 122.854 135.641 122.839 135.648C122.821 135.656 122.778 135.67 122.688 135.67V137.67ZM125.184 135.327L126.498 130.431L124.566 129.913L123.252 134.809L125.184 135.327ZM125.532 131.172H129.618V129.172H125.532V131.172ZM128.652 129.914L126.024 139.742L127.956 140.258L130.584 130.43L128.652 129.914ZM126.99 139H122.904V141H126.99V139ZM123.871 140.256L124.195 139.032L122.261 138.52L121.937 139.744L123.871 140.256ZM122.454 138.143C121.951 138.758 121.154 139.234 120.294 139.234V141.234C121.883 141.234 123.209 140.378 124.002 139.409L122.454 138.143ZM128.135 140L127.169 139.742L126.833 141H128.135V140ZM130.763 130.172V129.172H129.996L129.797 129.914L130.763 130.172ZM134.849 130.172L135.816 130.427L136.147 129.172H134.849V130.172ZM134.327 132.152L133.36 131.897L135.151 132.719L134.327 132.152ZM137.963 130.028L138.93 130.285L139.248 129.085L138.009 129.029L137.963 130.028ZM136.811 134.366V135.366H137.58L137.778 134.623L136.811 134.366ZM132.869 137.552L133.836 137.808L133.838 137.802L132.869 137.552ZM132.221 140V141H132.991L133.188 140.256L132.221 140ZM129.101 140.258L131.729 130.43L129.797 129.914L127.169 139.742L129.101 140.258ZM130.763 131.172H134.849V129.172H130.763V131.172ZM133.882 129.917L133.36 131.897L135.294 132.407L135.816 130.427L133.882 129.917ZM135.151 132.719C135.966 131.537 136.815 130.977 137.918 131.027L138.009 129.029C135.943 128.935 134.525 130.103 133.504 131.585L135.151 132.719ZM136.997 129.771L135.845 134.109L137.778 134.623L138.93 130.285L136.997 129.771ZM136.811 133.366H136.379V135.366H136.811V133.366ZM136.379 133.366C135.226 133.366 134.224 133.68 133.431 134.416C132.665 135.127 132.203 136.133 131.901 137.302L133.838 137.802C134.094 136.811 134.423 136.224 134.792 135.882C135.133 135.565 135.607 135.366 136.379 135.366V133.366ZM131.903 137.296L131.255 139.744L133.188 140.256L133.836 137.808L131.903 137.296ZM132.221 139H128.135V141H132.221V139ZM137.197 135.572L138.161 135.835L138.163 135.83L137.197 135.572ZM138.637 130.172V129.172H137.868L137.67 129.914L138.637 130.172ZM142.723 130.172L143.688 130.431L144.026 129.172H142.723V130.172ZM141.409 135.068L142.37 135.343L142.372 135.335L142.374 135.327L141.409 135.068ZM143.695 135.068L144.66 135.33L144.66 135.327L143.695 135.068ZM145.009 130.172V129.172H144.242L144.043 129.913L145.009 130.172ZM149.095 130.172L150.061 130.43L150.397 129.172H149.095V130.172ZM146.467 140V141H147.234L147.433 140.258L146.467 140ZM142.381 140L141.414 139.744L141.082 141H142.381V140ZM142.705 138.776L143.671 139.032L141.931 138.143L142.705 138.776ZM139.771 139.234C139.096 139.234 138.683 139.022 138.43 138.745C138.165 138.455 137.963 137.97 137.963 137.228H135.963C135.963 138.322 136.264 139.34 136.953 140.094C137.654 140.861 138.645 141.234 139.771 141.234V139.234ZM137.963 137.228C137.963 136.818 138.021 136.349 138.161 135.835L136.232 135.309C136.048 135.983 135.963 136.63 135.963 137.228H137.963ZM138.163 135.83L139.603 130.43L137.67 129.914L136.23 135.314L138.163 135.83ZM138.637 131.172H142.723V129.172H138.637V131.172ZM141.757 129.913L140.443 134.809L142.374 135.327L143.688 130.431L141.757 129.913ZM140.447 134.793C140.35 135.134 140.301 135.515 140.301 135.806H142.301C142.301 135.762 142.305 135.688 142.318 135.596C142.331 135.506 142.349 135.417 142.37 135.343L140.447 134.793ZM140.301 135.806C140.301 136.228 140.41 136.724 140.781 137.119C141.163 137.524 141.675 137.67 142.165 137.67V135.67C142.111 135.67 142.103 135.662 142.126 135.67C142.152 135.68 142.196 135.704 142.238 135.749C142.326 135.842 142.301 135.906 142.301 135.806H140.301ZM142.165 137.67C142.829 137.67 143.414 137.432 143.863 136.943C144.268 136.5 144.501 135.917 144.66 135.33L142.73 134.806C142.601 135.281 142.473 135.499 142.388 135.592C142.354 135.629 142.331 135.641 142.315 135.648C142.298 135.656 142.254 135.67 142.165 135.67V137.67ZM144.66 135.327L145.974 130.431L144.043 129.913L142.729 134.809L144.66 135.327ZM145.009 131.172H149.095V129.172H145.009V131.172ZM148.129 129.914L145.501 139.742L147.433 140.258L150.061 130.43L148.129 129.914ZM146.467 139H142.381V141H146.467V139ZM143.347 140.256L143.671 139.032L141.738 138.52L141.414 139.744L143.347 140.256ZM141.931 138.143C141.428 138.758 140.63 139.234 139.771 139.234V141.234C141.359 141.234 142.686 140.378 143.479 139.409L141.931 138.143Z" fill="url(#paint0_linear_208_500)" mask="url(#path-26-outside-1_208_500)"/>
<defs>
<linearGradient id="paint0_linear_208_500" x1="155" y1="133" x2="1.84774e-05" y2="133" gradientUnits="userSpaceOnUse">
<stop stop-color="#E3C906"/>
<stop offset="0.45" stop-color="#E3C906" stop-opacity="0"/>
<stop offset="1" stop-color="#E3C906"/>
</linearGradient>
</defs>
</svg>
