<svg width="24" height="24" viewBox="0 0 24 24" fill="none" xmlns="http://www.w3.org/2000/svg">
<g clip-path="url(#clip0_495_3938)">
<path d="M15.9922 14.9777H13.634V22C16.1349 21.6044 18.3948 20.2803 19.9626 18.2921C21.5305 16.3038 22.2911 13.7976 22.0927 11.2733C21.8942 8.74902 20.7514 6.39236 18.8921 4.67351C17.0328 2.95466 14.5939 2 12.0618 2C9.52975 2 7.09078 2.95466 5.23151 4.67351C3.37225 6.39236 2.22939 8.74902 2.03096 11.2733C1.83253 13.7976 2.59313 16.3038 4.16099 18.2921C5.72885 20.2803 7.9887 21.6044 10.4897 22V14.9777H7.9218V12.043H10.4897V9.68479C10.6294 6.57541 12.6557 5.38756 16.5687 6.12123V8.58428H15.2061C14.193 8.61921 13.6689 9.14327 13.634 10.1564V12.043H16.4376" fill="white"/>
</g>
<defs>
<clipPath id="clip0_495_3938">
<rect width="24" height="24" fill="white"/>
</clipPath>
</defs>
</svg>
