<svg width="111" height="24" viewBox="0 0 111 24" fill="none" xmlns="http://www.w3.org/2000/svg">
<path d="M102.195 10.437C102.195 8.76038 102.496 7.44718 103.097 6.49741C103.707 5.54764 104.715 5.07275 106.12 5.07275C107.526 5.07275 108.529 5.54764 109.13 6.49741C109.74 7.44718 110.045 8.76038 110.045 10.437C110.045 12.1233 109.74 13.4462 109.13 14.4057C108.529 15.3652 107.526 15.8449 106.12 15.8449C104.715 15.8449 103.707 15.3652 103.097 14.4057C102.496 13.4462 102.195 12.1233 102.195 10.437ZM108.039 10.437C108.039 9.71985 107.991 9.11897 107.894 8.63439C107.807 8.14012 107.623 7.73793 107.342 7.4278C107.07 7.11767 106.663 6.9626 106.12 6.9626C105.578 6.9626 105.166 7.11767 104.885 7.4278C104.613 7.73793 104.429 8.14012 104.332 8.63439C104.245 9.11897 104.201 9.71985 104.201 10.437C104.201 11.1736 104.245 11.7938 104.332 12.2978C104.42 12.7921 104.604 13.1943 104.885 13.5044C105.166 13.8048 105.578 13.955 106.12 13.955C106.663 13.955 107.075 13.8048 107.356 13.5044C107.637 13.1943 107.821 12.7921 107.908 12.2978C107.996 11.7938 108.039 11.1736 108.039 10.437Z" fill="white"/>
<path d="M94.6286 10.2626C93.6594 9.75861 93.1749 8.97844 93.1749 7.92206C93.1749 7.39872 93.3057 6.92384 93.5674 6.49741C93.8387 6.06129 94.2409 5.71724 94.774 5.46526C95.3167 5.20359 95.9757 5.07275 96.7511 5.07275C97.5264 5.07275 98.1806 5.20359 98.7136 5.46526C99.2563 5.71724 99.6585 6.06129 99.9202 6.49741C100.192 6.92384 100.327 7.39872 100.327 7.92206C100.327 8.4551 100.196 8.92514 99.9347 9.33218C99.673 9.72954 99.3241 10.0397 98.888 10.2626C99.4211 10.4952 99.8378 10.8344 100.138 11.2802C100.439 11.726 100.589 12.2542 100.589 12.8647C100.589 13.5238 100.419 14.1004 100.08 14.5947C99.7506 15.0793 99.2951 15.4524 98.7136 15.7141C98.1321 15.9757 97.4779 16.1066 96.7511 16.1066C96.0242 16.1066 95.37 15.9757 94.7885 15.7141C94.2167 15.4524 93.7612 15.0793 93.422 14.5947C93.0925 14.1004 92.9277 13.5238 92.9277 12.8647C92.9277 12.2542 93.078 11.726 93.3784 11.2802C93.6788 10.8247 94.0956 10.4855 94.6286 10.2626ZM98.3502 8.21281C98.3502 7.73793 98.2048 7.36965 97.914 7.10798C97.633 6.8463 97.2453 6.71547 96.7511 6.71547C96.2665 6.71547 95.8788 6.8463 95.5881 7.10798C95.307 7.36965 95.1665 7.74277 95.1665 8.22735C95.1665 8.66347 95.3119 9.01236 95.6026 9.27403C95.903 9.53571 96.2859 9.66654 96.7511 9.66654C97.2162 9.66654 97.5991 9.53571 97.8995 9.27403C98.1999 9.00267 98.3502 8.64893 98.3502 8.21281ZM96.7511 11.1493C96.1986 11.1493 95.748 11.2899 95.3991 11.5709C95.0599 11.852 94.8903 12.2542 94.8903 12.7775C94.8903 13.2621 95.055 13.6595 95.3845 13.9696C95.7237 14.27 96.1793 14.4202 96.7511 14.4202C97.3229 14.4202 97.7735 14.2652 98.103 13.955C98.4325 13.6449 98.5973 13.2524 98.5973 12.7775C98.5973 12.2639 98.4277 11.8665 98.0885 11.5855C97.7493 11.2947 97.3035 11.1493 96.7511 11.1493Z" fill="white"/>
<path d="M87.3398 7.15168V5.27637H90.8433V15.8741H88.75V7.15168H87.3398Z" fill="white"/>
<path d="M84.9454 15.9759C84.5771 15.9759 84.2719 15.8645 84.0296 15.6416C83.797 15.409 83.6807 15.1231 83.6807 14.7839C83.6807 14.4447 83.797 14.1636 84.0296 13.9407C84.2719 13.7081 84.5771 13.5918 84.9454 13.5918C85.304 13.5918 85.5996 13.7081 85.8322 13.9407C86.0648 14.1636 86.1811 14.4447 86.1811 14.7839C86.1811 15.1231 86.0648 15.409 85.8322 15.6416C85.5996 15.8645 85.304 15.9759 84.9454 15.9759Z" fill="white"/>
<path d="M82.5987 8.86711C82.5987 9.40983 82.4679 9.91864 82.2062 10.3935C81.9542 10.8684 81.552 11.2512 80.9996 11.542C80.4569 11.8327 79.7688 11.9781 78.9353 11.9781H77.2344V15.8741H75.1992V5.72705H78.9353C79.7203 5.72705 80.389 5.86273 80.9415 6.1341C81.4939 6.40546 81.9058 6.77858 82.1771 7.25347C82.4582 7.72835 82.5987 8.26623 82.5987 8.86711ZM78.8481 10.3354C79.4102 10.3354 79.8269 10.2094 80.0983 9.9574C80.3697 9.69573 80.5053 9.3323 80.5053 8.86711C80.5053 7.87857 79.9529 7.3843 78.8481 7.3843H77.2344V10.3354H78.8481Z" fill="white"/>
<path d="M73.1869 5.72705V15.8741H71.1517V9.27415L68.4332 15.8741H66.8923L64.1592 9.27415V15.8741H62.124V5.72705H64.4355L67.6627 13.2719L70.89 5.72705H73.1869Z" fill="white"/>
<path d="M57.9398 13.9405H53.8985L53.2298 15.874H51.0928L54.7416 5.7124H57.1112L60.7601 15.874H58.6086L57.9398 13.9405ZM57.3874 12.3123L55.9192 8.06745L54.4509 12.3123H57.3874Z" fill="white"/>
<path d="M40.0654 10.786C40.0654 9.78778 40.2883 8.89616 40.7341 8.11114C41.1896 7.31644 41.8051 6.70103 42.5804 6.26491C43.3654 5.8191 44.2425 5.59619 45.2116 5.59619C46.3455 5.59619 47.3389 5.88694 48.1918 6.46843C49.0446 7.04992 49.6407 7.85432 49.9799 8.88162H47.6394C47.4068 8.39704 47.0773 8.03361 46.6508 7.79132C46.2341 7.54904 45.7495 7.42789 45.1971 7.42789C44.6059 7.42789 44.0777 7.56842 43.6125 7.84947C43.157 8.12084 42.7984 8.5085 42.5368 9.01246C42.2848 9.51642 42.1588 10.1076 42.1588 10.786C42.1588 11.4547 42.2848 12.0459 42.5368 12.5596C42.7984 13.0635 43.157 13.456 43.6125 13.7371C44.0777 14.0084 44.6059 14.1441 45.1971 14.1441C45.7495 14.1441 46.2341 14.023 46.6508 13.7807C47.0773 13.5287 47.4068 13.1604 47.6394 12.6759H49.9799C49.6407 13.7129 49.0446 14.5221 48.1918 15.1036C47.3486 15.6754 46.3552 15.9613 45.2116 15.9613C44.2425 15.9613 43.3654 15.7432 42.5804 15.3071C41.8051 14.8613 41.1896 14.2459 40.7341 13.4609C40.2883 12.6759 40.0654 11.7842 40.0654 10.786Z" fill="white"/>
<path d="M36.4159 5.72705V15.8741H34.3359V5.72705H36.4159Z" fill="#E3C906"/>
<path d="M25.4651 15.9757C24.5153 15.9757 23.6431 15.7528 22.8484 15.307C22.0537 14.8612 21.4237 14.2458 20.9585 13.4608C20.4933 12.6661 20.2607 11.7696 20.2607 10.7714C20.2607 9.78282 20.4933 8.89605 20.9585 8.11103C21.4237 7.31633 22.0537 6.69607 22.8484 6.25026C23.6431 5.80445 24.5153 5.58154 25.4651 5.58154C26.4246 5.58154 27.2968 5.80445 28.0818 6.25026C28.8765 6.69607 29.5016 7.31633 29.9571 8.11103C30.4223 8.89605 30.6549 9.78282 30.6549 10.7714C30.6549 11.7696 30.4223 12.6661 29.9571 13.4608C29.5016 14.2458 28.8765 14.8612 28.0818 15.307C27.2871 15.7528 26.4149 15.9757 25.4651 15.9757ZM25.4651 14.1586C26.0757 14.1586 26.6135 14.0229 27.0787 13.7515C27.5439 13.4705 27.9074 13.0731 28.169 12.5594C28.4307 12.0458 28.5615 11.4498 28.5615 10.7714C28.5615 10.093 28.4307 9.50177 28.169 8.99781C27.9074 8.48416 27.5439 8.09165 27.0787 7.82029C26.6135 7.54892 26.0757 7.41324 25.4651 7.41324C24.8545 7.41324 24.3118 7.54892 23.8369 7.82029C23.3717 8.09165 23.0083 8.48416 22.7466 8.99781C22.4849 9.50177 22.3541 10.093 22.3541 10.7714C22.3541 11.4498 22.4849 12.0458 22.7466 12.5594C23.0083 13.0731 23.3717 13.4705 23.8369 13.7515C24.3118 14.0229 24.8545 14.1586 25.4651 14.1586Z" fill="white"/>
<path d="M14.051 15.9757C13.1013 15.9757 12.229 15.7528 11.4343 15.307C10.6396 14.8612 10.0097 14.2458 9.54447 13.4608C9.07928 12.6661 8.84668 11.7696 8.84668 10.7714C8.84668 9.78282 9.07928 8.89605 9.54447 8.11103C10.0097 7.31633 10.6396 6.69607 11.4343 6.25026C12.229 5.80445 13.1013 5.58154 14.051 5.58154C15.0105 5.58154 15.8827 5.80445 16.6677 6.25026C17.4625 6.69607 18.0876 7.31633 18.5431 8.11103C19.0083 8.89605 19.2408 9.78282 19.2408 10.7714C19.2408 11.7696 19.0083 12.6661 18.5431 13.4608C18.0876 14.2458 17.4625 14.8612 16.6677 15.307C15.873 15.7528 15.0008 15.9757 14.051 15.9757ZM14.051 14.1586C14.6616 14.1586 15.1995 14.0229 15.6647 13.7515C16.1299 13.4705 16.4933 13.0731 16.755 12.5594C17.0166 12.0458 17.1475 11.4498 17.1475 10.7714C17.1475 10.093 17.0166 9.50177 16.755 8.99781C16.4933 8.48416 16.1299 8.09165 15.6647 7.82029C15.1995 7.54892 14.6616 7.41324 14.051 7.41324C13.4405 7.41324 12.8977 7.54892 12.4229 7.82029C11.9577 8.09165 11.5942 8.48416 11.3326 8.99781C11.0709 9.50177 10.9401 10.093 10.9401 10.7714C10.9401 11.4498 11.0709 12.0458 11.3326 12.5594C11.5942 13.0731 11.9577 13.4705 12.4229 13.7515C12.8977 14.0229 13.4405 14.1586 14.051 14.1586Z" fill="white"/>
<path d="M5.75677 10.6697C6.32857 10.7763 6.79861 11.0622 7.16689 11.5274C7.53517 11.9926 7.71931 12.5257 7.71931 13.1265C7.71931 13.6693 7.58363 14.149 7.31226 14.5657C7.05059 14.9728 6.66778 15.2926 6.16382 15.5252C5.65986 15.7578 5.06383 15.8741 4.37573 15.8741H0V5.72705H4.18674C4.87484 5.72705 5.46603 5.8385 5.96029 6.06141C6.46425 6.28431 6.84222 6.59444 7.0942 6.9918C7.35587 7.38915 7.48671 7.8398 7.48671 8.34377C7.48671 8.93495 7.3268 9.42922 7.00698 9.82657C6.69685 10.2239 6.28011 10.505 5.75677 10.6697ZM2.03522 9.91379H3.896C4.38057 9.91379 4.7537 9.80719 5.01537 9.59397C5.27704 9.37107 5.40788 9.05609 5.40788 8.64905C5.40788 8.242 5.27704 7.92703 5.01537 7.70412C4.7537 7.48122 4.38057 7.36977 3.896 7.36977H2.03522V9.91379ZM4.08498 14.2168C4.57925 14.2168 4.96207 14.1005 5.23343 13.8679C5.51448 13.6353 5.65501 13.3058 5.65501 12.8794C5.65501 12.4433 5.50964 12.1041 5.21889 11.8618C4.92815 11.6098 4.53564 11.4838 4.04137 11.4838H2.03522V14.2168H4.08498Z" fill="white"/>
<path fill-rule="evenodd" clip-rule="evenodd" d="M35.3742 0.13623L39.9359 4.69795L38.466 6.16784L36.4136 4.11538V8.26754H34.3348V4.11538L32.2824 6.16784L30.8125 4.69795L35.3742 0.13623Z" fill="#E3C906"/>
<path d="M66.5562 21.0645C66.3713 21.0645 66.2041 21.0331 66.0546 20.9704C65.9077 20.9076 65.7911 20.8173 65.705 20.6993C65.6189 20.5814 65.5745 20.4421 65.572 20.2815H66.142C66.1496 20.3894 66.1876 20.4748 66.256 20.5375C66.327 20.6002 66.4232 20.6316 66.5448 20.6316C66.669 20.6316 66.7665 20.6027 66.8375 20.545C66.9084 20.4848 66.9439 20.407 66.9439 20.3116C66.9439 20.2338 66.9197 20.1698 66.8716 20.1197C66.8234 20.0695 66.7626 20.0306 66.6892 20.003C66.6183 19.9728 66.5195 19.9402 66.3928 19.9051C66.2205 19.8549 66.0799 19.806 65.971 19.7583C65.8646 19.7081 65.7721 19.6341 65.6936 19.5362C65.6176 19.4358 65.5796 19.3028 65.5796 19.1372C65.5796 18.9816 65.6189 18.8461 65.6974 18.7307C65.7759 18.6152 65.8861 18.5274 66.028 18.4672C66.1699 18.4044 66.332 18.3731 66.5144 18.3731C66.7881 18.3731 67.0096 18.4396 67.1795 18.5726C67.3516 18.7031 67.4467 18.8862 67.4644 19.1221H66.8793C66.8741 19.0318 66.835 18.9578 66.7614 18.9C66.6905 18.8398 66.5955 18.8097 66.4764 18.8097C66.3726 18.8097 66.2889 18.8361 66.2256 18.8888C66.1648 18.9415 66.1344 19.018 66.1344 19.1184C66.1344 19.1886 66.1572 19.2476 66.2028 19.2953C66.251 19.3405 66.3092 19.3781 66.3776 19.4082C66.4486 19.4358 66.5474 19.4684 66.674 19.5061C66.8463 19.5563 66.9869 19.6065 67.0959 19.6567C67.2048 19.7068 67.2985 19.7821 67.3771 19.8825C67.4556 19.9829 67.4948 20.1146 67.4948 20.2777C67.4948 20.4183 67.4582 20.5488 67.3846 20.6692C67.3112 20.7897 67.2035 20.8863 67.0616 20.9591C66.9197 21.0293 66.7513 21.0645 66.5562 21.0645Z" fill="white"/>
<path d="M66.5562 21.0645C66.3713 21.0645 66.2041 21.0331 66.0546 20.9704C65.9077 20.9076 65.7911 20.8173 65.705 20.6993C65.6189 20.5814 65.5745 20.4421 65.572 20.2815H66.142C66.1496 20.3894 66.1876 20.4748 66.256 20.5375C66.327 20.6002 66.4232 20.6316 66.5448 20.6316C66.669 20.6316 66.7665 20.6027 66.8375 20.545C66.9084 20.4848 66.9439 20.407 66.9439 20.3116C66.9439 20.2338 66.9197 20.1698 66.8716 20.1197C66.8234 20.0695 66.7626 20.0306 66.6892 20.003C66.6183 19.9728 66.5195 19.9402 66.3928 19.9051C66.2205 19.8549 66.0799 19.806 65.971 19.7583C65.8646 19.7081 65.7721 19.6341 65.6936 19.5362C65.6176 19.4358 65.5796 19.3028 65.5796 19.1372C65.5796 18.9816 65.6189 18.8461 65.6974 18.7307C65.7759 18.6152 65.8861 18.5274 66.028 18.4672C66.1699 18.4044 66.332 18.3731 66.5144 18.3731C66.7881 18.3731 67.0096 18.4396 67.1795 18.5726C67.3516 18.7031 67.4467 18.8862 67.4644 19.1221H66.8793C66.8741 19.0318 66.835 18.9578 66.7614 18.9C66.6905 18.8398 66.5955 18.8097 66.4764 18.8097C66.3726 18.8097 66.2889 18.8361 66.2256 18.8888C66.1648 18.9415 66.1344 19.018 66.1344 19.1184C66.1344 19.1886 66.1572 19.2476 66.2028 19.2953C66.251 19.3405 66.3092 19.3781 66.3776 19.4082C66.4486 19.4358 66.5474 19.4684 66.674 19.5061C66.8463 19.5563 66.9869 19.6065 67.0959 19.6567C67.2048 19.7068 67.2985 19.7821 67.3771 19.8825C67.4556 19.9829 67.4948 20.1146 67.4948 20.2777C67.4948 20.4183 67.4582 20.5488 67.3846 20.6692C67.3112 20.7897 67.2035 20.8863 67.0616 20.9591C66.9197 21.0293 66.7513 21.0645 66.5562 21.0645Z" fill="white"/>
<path d="M66.5562 21.0645C66.3713 21.0645 66.2041 21.0331 66.0546 20.9704C65.9077 20.9076 65.7911 20.8173 65.705 20.6993C65.6189 20.5814 65.5745 20.4421 65.572 20.2815H66.142C66.1496 20.3894 66.1876 20.4748 66.256 20.5375C66.327 20.6002 66.4232 20.6316 66.5448 20.6316C66.669 20.6316 66.7665 20.6027 66.8375 20.545C66.9084 20.4848 66.9439 20.407 66.9439 20.3116C66.9439 20.2338 66.9197 20.1698 66.8716 20.1197C66.8234 20.0695 66.7626 20.0306 66.6892 20.003C66.6183 19.9728 66.5195 19.9402 66.3928 19.9051C66.2205 19.8549 66.0799 19.806 65.971 19.7583C65.8646 19.7081 65.7721 19.6341 65.6936 19.5362C65.6176 19.4358 65.5796 19.3028 65.5796 19.1372C65.5796 18.9816 65.6189 18.8461 65.6974 18.7307C65.7759 18.6152 65.8861 18.5274 66.028 18.4672C66.1699 18.4044 66.332 18.3731 66.5144 18.3731C66.7881 18.3731 67.0096 18.4396 67.1795 18.5726C67.3516 18.7031 67.4467 18.8862 67.4644 19.1221H66.8793C66.8741 19.0318 66.835 18.9578 66.7614 18.9C66.6905 18.8398 66.5955 18.8097 66.4764 18.8097C66.3726 18.8097 66.2889 18.8361 66.2256 18.8888C66.1648 18.9415 66.1344 19.018 66.1344 19.1184C66.1344 19.1886 66.1572 19.2476 66.2028 19.2953C66.251 19.3405 66.3092 19.3781 66.3776 19.4082C66.4486 19.4358 66.5474 19.4684 66.674 19.5061C66.8463 19.5563 66.9869 19.6065 67.0959 19.6567C67.2048 19.7068 67.2985 19.7821 67.3771 19.8825C67.4556 19.9829 67.4948 20.1146 67.4948 20.2777C67.4948 20.4183 67.4582 20.5488 67.3846 20.6692C67.3112 20.7897 67.2035 20.8863 67.0616 20.9591C66.9197 21.0293 66.7513 21.0645 66.5562 21.0645Z" fill="white"/>
<path d="M63.5151 18.4107V20.0369C63.5151 20.2151 63.5619 20.3518 63.6557 20.4472C63.7494 20.54 63.8812 20.5865 64.0509 20.5865C64.2232 20.5865 64.3562 20.54 64.4499 20.4472C64.5436 20.3518 64.5905 20.2151 64.5905 20.0369V18.4107H65.1263V20.0331C65.1263 20.2565 65.0769 20.4459 64.9781 20.6015C64.8818 20.7546 64.7514 20.87 64.5867 20.9478C64.4246 21.0256 64.2434 21.0645 64.0433 21.0645C63.8457 21.0645 63.6658 21.0256 63.5037 20.9478C63.3441 20.87 63.2174 20.7546 63.1237 20.6015C63.0299 20.4459 62.983 20.2565 62.983 20.0331V18.4107H63.5151Z" fill="white"/>
<path d="M63.5151 18.4107V20.0369C63.5151 20.2151 63.5619 20.3518 63.6557 20.4472C63.7494 20.54 63.8812 20.5865 64.0509 20.5865C64.2232 20.5865 64.3562 20.54 64.4499 20.4472C64.5436 20.3518 64.5905 20.2151 64.5905 20.0369V18.4107H65.1263V20.0331C65.1263 20.2565 65.0769 20.4459 64.9781 20.6015C64.8818 20.7546 64.7514 20.87 64.5867 20.9478C64.4246 21.0256 64.2434 21.0645 64.0433 21.0645C63.8457 21.0645 63.6658 21.0256 63.5037 20.9478C63.3441 20.87 63.2174 20.7546 63.1237 20.6015C63.0299 20.4459 62.983 20.2565 62.983 20.0331V18.4107H63.5151Z" fill="white"/>
<path d="M63.5151 18.4107V20.0369C63.5151 20.2151 63.5619 20.3518 63.6557 20.4472C63.7494 20.54 63.8812 20.5865 64.0509 20.5865C64.2232 20.5865 64.3562 20.54 64.4499 20.4472C64.5436 20.3518 64.5905 20.2151 64.5905 20.0369V18.4107H65.1263V20.0331C65.1263 20.2565 65.0769 20.4459 64.9781 20.6015C64.8818 20.7546 64.7514 20.87 64.5867 20.9478C64.4246 21.0256 64.2434 21.0645 64.0433 21.0645C63.8457 21.0645 63.6658 21.0256 63.5037 20.9478C63.3441 20.87 63.2174 20.7546 63.1237 20.6015C63.0299 20.4459 62.983 20.2565 62.983 20.0331V18.4107H63.5151Z" fill="white"/>
<path d="M61.2379 21.0645C60.9896 21.0645 60.7616 21.0068 60.5538 20.8913C60.3461 20.7759 60.1814 20.6165 60.0598 20.4133C59.9382 20.2075 59.8774 19.9753 59.8774 19.7169C59.8774 19.4609 59.9382 19.2313 60.0598 19.028C60.1814 18.8222 60.3461 18.6616 60.5538 18.5462C60.7616 18.4308 60.9896 18.373 61.2379 18.373C61.4887 18.373 61.7167 18.4308 61.9219 18.5462C62.1296 18.6616 62.293 18.8222 62.4121 19.028C62.5337 19.2313 62.5945 19.4609 62.5945 19.7169C62.5945 19.9753 62.5337 20.2075 62.4121 20.4133C62.293 20.6165 62.1296 20.7759 61.9219 20.8913C61.7141 21.0068 61.4861 21.0645 61.2379 21.0645ZM61.2379 20.594C61.3975 20.594 61.5381 20.5588 61.6597 20.4885C61.7813 20.4158 61.8763 20.3129 61.9447 20.1799C62.0131 20.0469 62.0473 19.8925 62.0473 19.7169C62.0473 19.5412 62.0131 19.3881 61.9447 19.2576C61.8763 19.1246 61.7813 19.023 61.6597 18.9527C61.5381 18.8825 61.3975 18.8473 61.2379 18.8473C61.0782 18.8473 60.9364 18.8825 60.8122 18.9527C60.6906 19.023 60.5956 19.1246 60.5272 19.2576C60.4588 19.3881 60.4246 19.5412 60.4246 19.7169C60.4246 19.8925 60.4588 20.0469 60.5272 20.1799C60.5956 20.3129 60.6906 20.4158 60.8122 20.4885C60.9364 20.5588 61.0782 20.594 61.2379 20.594Z" fill="white"/>
<path d="M61.2379 21.0645C60.9896 21.0645 60.7616 21.0068 60.5538 20.8913C60.3461 20.7759 60.1814 20.6165 60.0598 20.4133C59.9382 20.2075 59.8774 19.9753 59.8774 19.7169C59.8774 19.4609 59.9382 19.2313 60.0598 19.028C60.1814 18.8222 60.3461 18.6616 60.5538 18.5462C60.7616 18.4308 60.9896 18.373 61.2379 18.373C61.4887 18.373 61.7167 18.4308 61.9219 18.5462C62.1296 18.6616 62.293 18.8222 62.4121 19.028C62.5337 19.2313 62.5945 19.4609 62.5945 19.7169C62.5945 19.9753 62.5337 20.2075 62.4121 20.4133C62.293 20.6165 62.1296 20.7759 61.9219 20.8913C61.7141 21.0068 61.4861 21.0645 61.2379 21.0645ZM61.2379 20.594C61.3975 20.594 61.5381 20.5588 61.6597 20.4885C61.7813 20.4158 61.8763 20.3129 61.9447 20.1799C62.0131 20.0469 62.0473 19.8925 62.0473 19.7169C62.0473 19.5412 62.0131 19.3881 61.9447 19.2576C61.8763 19.1246 61.7813 19.023 61.6597 18.9527C61.5381 18.8825 61.3975 18.8473 61.2379 18.8473C61.0782 18.8473 60.9364 18.8825 60.8122 18.9527C60.6906 19.023 60.5956 19.1246 60.5272 19.2576C60.4588 19.3881 60.4246 19.5412 60.4246 19.7169C60.4246 19.8925 60.4588 20.0469 60.5272 20.1799C60.5956 20.3129 60.6906 20.4158 60.8122 20.4885C60.9364 20.5588 61.0782 20.594 61.2379 20.594Z" fill="white"/>
<path d="M61.2379 21.0645C60.9896 21.0645 60.7616 21.0068 60.5538 20.8913C60.3461 20.7759 60.1814 20.6165 60.0598 20.4133C59.9382 20.2075 59.8774 19.9753 59.8774 19.7169C59.8774 19.4609 59.9382 19.2313 60.0598 19.028C60.1814 18.8222 60.3461 18.6616 60.5538 18.5462C60.7616 18.4308 60.9896 18.373 61.2379 18.373C61.4887 18.373 61.7167 18.4308 61.9219 18.5462C62.1296 18.6616 62.293 18.8222 62.4121 19.028C62.5337 19.2313 62.5945 19.4609 62.5945 19.7169C62.5945 19.9753 62.5337 20.2075 62.4121 20.4133C62.293 20.6165 62.1296 20.7759 61.9219 20.8913C61.7141 21.0068 61.4861 21.0645 61.2379 21.0645ZM61.2379 20.594C61.3975 20.594 61.5381 20.5588 61.6597 20.4885C61.7813 20.4158 61.8763 20.3129 61.9447 20.1799C62.0131 20.0469 62.0473 19.8925 62.0473 19.7169C62.0473 19.5412 62.0131 19.3881 61.9447 19.2576C61.8763 19.1246 61.7813 19.023 61.6597 18.9527C61.5381 18.8825 61.3975 18.8473 61.2379 18.8473C61.0782 18.8473 60.9364 18.8825 60.8122 18.9527C60.6906 19.023 60.5956 19.1246 60.5272 19.2576C60.4588 19.3881 60.4246 19.5412 60.4246 19.7169C60.4246 19.8925 60.4588 20.0469 60.5272 20.1799C60.5956 20.3129 60.6906 20.4158 60.8122 20.4885C60.9364 20.5588 61.0782 20.594 61.2379 20.594Z" fill="white"/>
<path d="M59.4812 18.4107V21.0382H58.9492V18.4107H59.4812Z" fill="white"/>
<path d="M59.4812 18.4107V21.0382H58.9492V18.4107H59.4812Z" fill="white"/>
<path d="M59.4812 18.4107V21.0382H58.9492V18.4107H59.4812Z" fill="white"/>
<path d="M55.9031 19.7206C55.9031 19.4621 55.9614 19.2312 56.0779 19.0279C56.197 18.8222 56.3578 18.6628 56.5605 18.5499C56.7657 18.4345 56.995 18.3767 57.2483 18.3767C57.5447 18.3767 57.8044 18.452 58.0273 18.6026C58.2503 18.7532 58.4061 18.9614 58.4948 19.2275H57.8829C57.8221 19.102 57.736 19.0079 57.6245 18.9451C57.5156 18.8824 57.3889 18.851 57.2445 18.851C57.09 18.851 56.9519 18.8874 56.8303 18.9602C56.7112 19.0305 56.6175 19.1308 56.5491 19.2613C56.4832 19.3918 56.4503 19.5449 56.4503 19.7206C56.4503 19.8937 56.4832 20.0468 56.5491 20.1798C56.6175 20.3103 56.7112 20.4119 56.8303 20.4847C56.9519 20.555 57.09 20.5901 57.2445 20.5901C57.3889 20.5901 57.5156 20.5587 57.6245 20.496C57.736 20.4308 57.8221 20.3354 57.8829 20.2099H58.4948C58.4061 20.4784 58.2503 20.688 58.0273 20.8386C57.8069 20.9866 57.5473 21.0606 57.2483 21.0606C56.995 21.0606 56.7657 21.0042 56.5605 20.8912C56.3578 20.7758 56.197 20.6164 56.0779 20.4132C55.9614 20.2099 55.9031 19.9791 55.9031 19.7206Z" fill="white"/>
<path d="M55.9031 19.7206C55.9031 19.4621 55.9614 19.2312 56.0779 19.0279C56.197 18.8222 56.3578 18.6628 56.5605 18.5499C56.7657 18.4345 56.995 18.3767 57.2483 18.3767C57.5447 18.3767 57.8044 18.452 58.0273 18.6026C58.2503 18.7532 58.4061 18.9614 58.4948 19.2275H57.8829C57.8221 19.102 57.736 19.0079 57.6245 18.9451C57.5156 18.8824 57.3889 18.851 57.2445 18.851C57.09 18.851 56.9519 18.8874 56.8303 18.9602C56.7112 19.0305 56.6175 19.1308 56.5491 19.2613C56.4832 19.3918 56.4503 19.5449 56.4503 19.7206C56.4503 19.8937 56.4832 20.0468 56.5491 20.1798C56.6175 20.3103 56.7112 20.4119 56.8303 20.4847C56.9519 20.555 57.09 20.5901 57.2445 20.5901C57.3889 20.5901 57.5156 20.5587 57.6245 20.496C57.736 20.4308 57.8221 20.3354 57.8829 20.2099H58.4948C58.4061 20.4784 58.2503 20.688 58.0273 20.8386C57.8069 20.9866 57.5473 21.0606 57.2483 21.0606C56.995 21.0606 56.7657 21.0042 56.5605 20.8912C56.3578 20.7758 56.197 20.6164 56.0779 20.4132C55.9614 20.2099 55.9031 19.9791 55.9031 19.7206Z" fill="white"/>
<path d="M55.9031 19.7206C55.9031 19.4621 55.9614 19.2312 56.0779 19.0279C56.197 18.8222 56.3578 18.6628 56.5605 18.5499C56.7657 18.4345 56.995 18.3767 57.2483 18.3767C57.5447 18.3767 57.8044 18.452 58.0273 18.6026C58.2503 18.7532 58.4061 18.9614 58.4948 19.2275H57.8829C57.8221 19.102 57.736 19.0079 57.6245 18.9451C57.5156 18.8824 57.3889 18.851 57.2445 18.851C57.09 18.851 56.9519 18.8874 56.8303 18.9602C56.7112 19.0305 56.6175 19.1308 56.5491 19.2613C56.4832 19.3918 56.4503 19.5449 56.4503 19.7206C56.4503 19.8937 56.4832 20.0468 56.5491 20.1798C56.6175 20.3103 56.7112 20.4119 56.8303 20.4847C56.9519 20.555 57.09 20.5901 57.2445 20.5901C57.3889 20.5901 57.5156 20.5587 57.6245 20.496C57.736 20.4308 57.8221 20.3354 57.8829 20.2099H58.4948C58.4061 20.4784 58.2503 20.688 58.0273 20.8386C57.8069 20.9866 57.5473 21.0606 57.2483 21.0606C56.995 21.0606 56.7657 21.0042 56.5605 20.8912C56.3578 20.7758 56.197 20.6164 56.0779 20.4132C55.9614 20.2099 55.9031 19.9791 55.9031 19.7206Z" fill="white"/>
<path d="M55.5068 18.4107V21.0382H54.9748V18.4107H55.5068Z" fill="white"/>
<path d="M55.5068 18.4107V21.0382H54.9748V18.4107H55.5068Z" fill="white"/>
<path d="M55.5068 18.4107V21.0382H54.9748V18.4107H55.5068Z" fill="white"/>
<path d="M52.2891 18.9449L52.0242 18.4201H52.5455L52.8104 18.9449H52.2891Z" fill="white"/>
<path d="M53.3404 21.008L52.5456 19.442H53.0754L53.3404 19.9668L53.6053 19.442H54.1266L53.3404 21.008Z" fill="white"/>
<path d="M53.8699 18.9449L54.1263 18.4201H54.6561L54.3912 18.9449H53.8699Z" fill="white"/>
<path d="M51.7472 21.0381H51.2152L50.0105 19.235V21.0381H49.4785V18.4069H50.0105L51.2152 20.2137V18.4069H51.7472V21.0381Z" fill="white"/>
<path d="M51.7472 21.0381H51.2152L50.0105 19.235V21.0381H49.4785V18.4069H50.0105L51.2152 20.2137V18.4069H51.7472V21.0381Z" fill="white"/>
<path d="M51.7472 21.0381H51.2152L50.0105 19.235V21.0381H49.4785V18.4069H50.0105L51.2152 20.2137V18.4069H51.7472V21.0381Z" fill="white"/>
<path d="M48.9529 18.4107V21.0382H48.4209V18.4107H48.9529Z" fill="white"/>
<path d="M48.9529 18.4107V21.0382H48.4209V18.4107H48.9529Z" fill="white"/>
<path d="M48.9529 18.4107V21.0382H48.4209V18.4107H48.9529Z" fill="white"/>
<path d="M68.3386 18.4V18.5001H68.1376V19.1482H68.0137V18.5001H67.8115V18.4H68.3386ZM69.2596 18.4V19.1482H69.1358V18.6358L68.9053 19.1482H68.8194L68.588 18.6358V19.1482H68.4641V18.4H68.5977L68.863 18.9867L69.127 18.4H69.2596Z" fill="white"/>
<path d="M41.8605 18.9623C41.9421 18.8415 42.0539 18.7432 42.1959 18.6677C42.341 18.5921 42.5057 18.5544 42.69 18.5544C42.9046 18.5544 43.098 18.6072 43.2703 18.713C43.4455 18.8188 43.583 18.9699 43.6828 19.1663C43.7855 19.3597 43.8369 19.5849 43.8369 19.8417C43.8369 20.0986 43.7855 20.3268 43.6828 20.5262C43.583 20.7227 43.4455 20.8753 43.2703 20.9841C43.098 21.0928 42.9046 21.1472 42.69 21.1472C42.5027 21.1472 42.338 21.111 42.1959 21.0385C42.0569 20.9629 41.9451 20.8662 41.8605 20.7483V21.1064H41.2259V17.752H41.8605V18.9623ZM43.1887 19.8417C43.1887 19.6906 43.1569 19.5607 43.0935 19.4519C43.033 19.3401 42.9514 19.2555 42.8487 19.198C42.749 19.1406 42.6402 19.1119 42.5223 19.1119C42.4075 19.1119 42.2987 19.1421 42.1959 19.2026C42.0962 19.26 42.0146 19.3446 41.9511 19.4564C41.8907 19.5682 41.8605 19.6997 41.8605 19.8508C41.8605 20.0019 41.8907 20.1334 41.9511 20.2452C42.0146 20.357 42.0962 20.4431 42.1959 20.5036C42.2987 20.561 42.4075 20.5897 42.5223 20.5897C42.6402 20.5897 42.749 20.5595 42.8487 20.499C42.9514 20.4386 43.033 20.3525 43.0935 20.2406C43.1569 20.1288 43.1887 19.9959 43.1887 19.8417ZM46.7005 18.5952L45.1457 22.2941H44.4703L45.0143 21.043L44.0079 18.5952H44.7196L45.3678 20.3494L46.0251 18.5952H46.7005Z" fill="white"/>
</svg>
