<svg width="273" height="166" viewBox="0 0 273 166" fill="none" xmlns="http://www.w3.org/2000/svg">
<g clip-path="url(#clip0_143_321)">
<path d="M111.5 40L-3 7.5L-7 61.5L76 77.5L111.5 88L127.5 113L152.5 132.5L175.5 159H181.5V139.5L167 110.5L184 101H216L261.5 110.5L268 88L258.5 64L244.5 47.5L216 32L173 28.5L111.5 40Z" fill="#F7CBB2"/>
<path d="M259.3 74.4C257.6 68.4 253.6 64.6 248.4 61.8C231.7 52.8 213.4 49.1 195.2 45C194.1 44.8 193 44.3 191.8 44.1C189.4 43.7 188.1 42.3 188.8 40C189.5 37.5 191.3 37.6 193.6 38.2C211.2 42.4 229.2 45 245.8 53.1C239.6 47 232.2 43.1 224.2 40C203.5 32.1 182.3 31.8 160.6 34.8C143.5 37.2 126.7 40.1 110.9 47.6C108.1 48.9 105.4 48.1 104.5 45C103.8 42.6 102.1 42.1 100.2 41.5C68.9001 31.1 37.5001 20.6 5.50013 12.4C3.70013 11.9 1.00013 12.2 0.600133 9.80003C0.100133 6.90003 0.200133 3.80003 0.700133 0.900026C1.00013 -0.899974 2.90013 0.400026 4.00013 0.700026C24.9001 6.00003 45.6001 11.8 66.1001 18.6C82.0001 23.9 97.9001 28.9 113.8 34.2C116.5 35.1 118.8 35 121.5 34.2C146.7 26.8 172.4 22.5 198.6 25.1C216.5 26.9 233.6 32.6 248.5 43.5C252.5 46.4 255.9 49.8 256.6 55C257 57.5 259 58.5 260.4 60C265.4 65.1 269 70.7 267.4 78.2C267 80.2 268.2 81.3 269.1 82.6C273.3 88.8 273.4 92.4 268.8 98.3C267.7 99.7 268.2 100.6 268.4 101.9C269.5 111.4 263.7 117.1 254.2 114.8C241.8 111.8 229.6 108 216.9 106.2C204.2 104.4 191.5 102.9 178.9 106.5C170.4 109 169.6 111.2 174.5 118.7C178.1 124.1 181.7 129.4 184.3 135.4C187 141.9 187.8 148.5 186.8 155.4C186.2 159.7 184.2 163.3 179.8 164.9C175.4 166.4 171.8 164.5 169.1 161.4C164.5 155.8 160.2 149.8 155.9 143.9C151.4 137.6 146.2 131.9 139.6 128C126.9 120.3 118 109.4 111.6 96.4C109.3 91.7 106.3 89.5 100.9 88.5C77.1001 84.1 53.5001 78.5 29.7001 74.4C21.4001 73 13.0001 71.6 4.60013 71C-2.89987 70.5 1.00013 65.3 0.600133 62.2C0.00013274 58 3.70013 59.5 5.60013 59.7C27.6001 62.1 49.3001 66.5 71.0001 70.8C83.4001 73.3 95.6001 77.2 108.5 77.4C110.9 77.4 111.8 79.4 112.8 81.1C116.7 87.8 120.6 94.6 124.5 101.3C127.9 107.1 132 112.5 137.8 115.9C152.1 124.6 162.5 136.9 171.5 150.6C172.9 152.8 174.2 156.9 177.3 155.8C180.3 154.7 178.8 150.8 178.8 148.1C178.7 140.7 175 134.5 171.2 128.5C168.7 124.6 165.7 121 164.2 116.5C161.6 108.9 163.8 103.6 171.2 100.3C180.8 96.1 190.9 94.8 201.3 95.7C219 97.1 236.3 100.5 253.2 105.8C255.4 106.5 258.5 107.8 259.8 105C261.2 102.2 258.8 100.1 256.6 98.5C244.1 90.1 229.9 86.3 215.6 82.9C210.6 81.7 205.6 80.8 200.5 80C198.2 79.6 196.5 78.8 197 76.3C197.4 73.9 199.3 73.4 201.6 73.8C220.2 77.1 238.5 81.2 255.4 90.3C256 90.6 256.6 91 257.2 91.2C259.3 91.7 262 92.5 263.3 90.8C264.7 88.9 262.1 87.3 261 85.8C257 80.7 251.7 77.4 245.9 74.8C231.1 68.2 215.5 64.8 199.7 62.1C198.9 62 198 62 197.3 61.7C195.6 61.1 193.7 60.4 194.1 58C194.5 55.5 196.4 55.4 198.3 55.6C203 56.3 207.7 57.2 212.4 58.1C228.6 61.1 244.4 66.1 259.3 74.4Z" fill="#714B40"/>
</g>
<defs>
<clipPath id="clip0_143_321">
<rect width="272.3" height="165.4" fill="white"/>
</clipPath>
</defs>
</svg>
