<svg width="185" height="173" viewBox="0 0 185 173" fill="none" xmlns="http://www.w3.org/2000/svg">
<path d="M172.975 97.8266C179.359 56.5665 151.086 17.9434 109.826 11.5594C68.5664 5.17542 29.9432 33.448 23.5592 74.7081C17.1752 115.968 45.4479 154.591 86.7079 160.975C127.968 167.359 166.591 139.087 172.975 97.8266Z" fill="#E3C906"/>
<path d="M165.667 75.9664L172.967 50.3664C173.967 47.0664 172.167 43.5664 168.867 42.3664C165.567 41.1664 161.967 42.7664 160.667 45.9664L154.067 61.6664L129.267 57.2664L131.767 32.1664C132.267 27.8664 129.267 23.9664 124.967 23.2664C121.267 22.6664 117.667 24.6664 116.267 28.0664L101.367 62.5664C100.467 64.6664 98.9668 66.5664 97.1668 67.9664L29.9668 118.666C42.0668 144.166 67.9668 161.766 98.0668 161.866L136.067 120.166C142.067 116.266 147.767 112.266 152.667 107.866C158.567 103.466 162.567 96.9664 163.667 89.6664L165.667 75.9664Z" fill="#EAA48D"/>
<path d="M115.467 59.7665C115.467 59.7665 126.767 52.7665 131.467 34.1665C128.967 54.1665 129.567 59.8665 129.567 59.8665C129.567 59.8665 125.067 56.6665 115.467 59.7665Z" fill="#DB8A75"/>
<path d="M125.067 99.4663C125.067 99.4663 131.567 96.0663 150.367 96.0663C167.267 82.5663 156.567 61.9663 156.567 61.9663H123.067L121.767 78.8663C121.767 78.9663 131.167 85.6663 125.067 99.4663Z" fill="#DB8A75"/>
<path d="M159.966 48.2666C159.966 48.2666 156.166 65.5666 163.666 76.6666C162.266 88.4666 158.066 92.9666 152.666 97.4666C136.366 93.5666 125.066 99.4666 125.066 99.4666L152.966 66.5666L155.466 59.5666L159.966 48.2666Z" fill="#DB8A75"/>
<path d="M129.267 51.5664L138.867 52.4664C142.667 52.8664 145.767 55.7664 146.267 59.6664L147.467 69.3664C147.867 72.9664 147.567 76.6664 146.567 80.1664L143.767 89.3664C142.667 93.1664 138.967 95.5664 134.967 95.1664H134.867C130.967 94.7664 127.967 91.3664 128.167 87.3664L129.267 51.5664Z" fill="#EAA48D"/>
<path d="M144.667 55.6665L150.167 56.5665C153.767 57.1665 156.567 60.0665 156.967 63.6665L157.967 72.5665C158.367 75.9665 157.967 79.4665 156.767 82.7665L154.867 88.0665C153.367 92.2665 148.867 94.6665 144.567 93.5665L141.267 92.7665L144.667 55.6665Z" fill="#EAA48D"/>
<path d="M141.667 93.0664L140.767 92.5664C140.867 92.4664 146.467 82.3664 146.967 73.8664C147.467 65.3664 144.167 55.9664 144.067 55.8664L144.967 55.5664C144.967 55.6664 148.467 65.2664 147.867 73.9664C147.467 82.6664 141.967 92.6664 141.667 93.0664Z" fill="#263E65"/>
<path d="M151.966 92.6665L151.566 91.7665C153.866 90.6665 156.166 85.3665 157.466 78.3665C158.566 72.6665 156.466 63.9665 156.466 63.8665L157.466 63.6665C157.566 64.0665 159.566 72.6665 158.466 78.5665C157.366 84.2665 155.066 91.0665 151.966 92.6665Z" fill="#263E65"/>
<path d="M112.367 61.2663L113.467 60.6663C118.467 58.1663 124.367 57.8663 129.667 59.7663L139.467 63.4663C143.467 64.9663 145.567 69.2663 144.367 73.3663L143.967 74.6663C142.867 78.3663 139.267 80.7663 135.367 80.3663L121.767 78.8663C121.767 78.8663 134.867 90.1663 122.567 101.366L97.3672 81.9663L112.367 61.2663Z" fill="#EAA48D"/>
<path d="M122.867 101.866L122.167 101.166C125.667 97.9665 127.367 94.5665 127.367 90.9665C127.267 84.4665 121.567 79.4665 121.467 79.4665L120.267 78.3665L135.467 80.0665C139.067 80.4665 142.467 78.2665 143.567 74.7665L143.967 73.4665C145.067 69.6665 143.067 65.5665 139.367 64.1665L129.567 60.4665C124.467 58.5665 118.667 58.8665 113.767 61.2665L112.667 61.8665L112.267 60.9665L113.367 60.3665C118.467 57.7665 124.567 57.4665 129.967 59.4665L139.767 63.1665C143.967 64.7665 146.267 69.3665 144.967 73.6665L144.567 74.9665C143.367 78.9665 139.567 81.4665 135.467 81.0665L123.367 79.7665C125.167 81.6665 128.467 85.7665 128.567 90.9665C128.367 94.7665 126.467 98.4665 122.867 101.866Z" fill="#263E65"/>
<path d="M135.967 120.267C135.167 120.067 122.167 118.667 109.267 107.667C118.267 132.767 118.867 138.667 118.867 138.667L135.967 120.267Z" fill="#DB8A75"/>
<path opacity="0.8" d="M141.667 66.8666L140.867 75.2666C140.867 75.2666 136.967 75.2666 137.167 69.9666C137.367 64.5666 141.667 66.8666 141.667 66.8666Z" fill="white"/>
<path opacity="0.8" d="M133.167 90.7662L139.667 91.0662C139.667 91.0662 139.667 88.2663 136.567 87.9663C133.467 87.6663 133.167 90.7662 133.167 90.7662Z" fill="white"/>
<path opacity="0.8" d="M144.167 90.7662L150.667 91.0662C150.667 91.0662 150.667 88.2663 147.567 87.9663C144.467 87.6663 144.167 90.7662 144.167 90.7662Z" fill="white"/>
<mask id="path-16-outside-1_155_436" maskUnits="userSpaceOnUse" x="13.8429" y="28.0735" width="82.4755" height="75.5733" fill="black">
<rect fill="white" x="13.8429" y="28.0735" width="82.4755" height="75.5733"/>
<path d="M24.9105 83.2051L19.6067 69.7141L23.594 66.7641C25.7807 65.1464 27.5874 64.7302 29.07 64.9519C30.5246 65.1694 31.7194 65.9773 32.7305 67.3439C33.9794 69.0321 34.4782 71.0514 34.1645 73.1494C33.8131 75.4992 32.4029 77.662 29.7983 79.589L24.9105 83.2051ZM27.1305 76.4875L27.7897 75.9998C28.9313 75.1552 29.6622 74.092 29.8128 73.085C29.9341 72.2737 29.7127 71.2683 29.2012 70.5769C28.7492 69.9659 28.275 69.6948 27.7715 69.6195C27.156 69.5275 26.4387 69.7348 25.5383 70.4009L24.9112 70.8648L27.1305 76.4875ZM38.4054 67.7479C38.977 68.4197 39.7722 68.5529 40.5922 67.9463C41.1871 67.5061 41.5714 66.8486 41.8374 65.9304L44.8935 66.5304C44.5509 68.1522 43.7334 69.6029 42.1899 70.7448C39.5209 72.7194 36.7271 72.3731 35.0261 70.0739C33.0516 67.4049 33.0707 63.2609 36.4149 60.7868C39.309 58.6457 41.7249 59.8935 43.0928 61.7425C43.521 62.3213 43.8409 62.9554 44.0489 63.5728L38.4054 67.7479ZM37.441 65.9736L39.9171 64.1418C39.8701 63.9775 39.7911 63.8369 39.6959 63.7083C39.339 63.226 38.6523 63.0375 38.0574 63.4776C37.5107 63.882 37.0531 64.743 37.441 65.9736ZM51.0924 64.1585C49.0987 65.6334 46.999 66.1917 45.3152 66.1687L45.3766 62.889C46.6284 62.9332 48.4113 62.4849 49.4082 61.7474C49.778 61.4738 49.8156 61.222 49.6967 61.0613C49.4826 60.7718 49.1022 60.8294 47.7115 61.2363C45.916 61.7685 44.4594 61.851 43.4364 60.4683C42.1399 58.7158 42.5842 56.2226 45.221 54.2718C46.9896 52.9634 48.8774 52.3877 50.2613 52.4088L50.1998 55.6884C49.1796 55.7218 47.7092 56.0881 46.841 56.7305C46.439 57.0279 46.3454 57.2712 46.4762 57.4481C46.6547 57.6893 46.919 57.643 48.2817 57.2319C50.0493 56.6955 51.5946 56.4976 52.7365 58.0411C53.819 59.5042 54.0508 61.9698 51.0924 64.1585ZM50.3696 49.8159L49.2719 47.0206L53.0503 44.2253L54.148 47.0205L50.3696 49.8159ZM54.8683 61.0416L50.721 50.5262L54.3708 47.826L58.518 58.3414L54.8683 61.0416ZM65.8438 56.9519C64.236 58.1414 61.9742 59.0186 60.3652 59.1641L60.2421 55.9712C61.7273 55.793 63.0592 55.2057 63.9274 54.5633C64.7313 53.9686 65.1191 53.3831 65.2279 52.6558C65.299 52.1803 65.2267 51.6118 64.9551 50.942L64.8921 50.7896C64.6849 51.8882 64.1182 52.9045 63.041 53.7015C61.5618 54.7959 59.2654 54.8528 57.8261 52.9074C55.9586 50.3831 55.6555 46.577 58.437 44.5192C59.6107 43.6508 61.0036 43.516 62.0772 43.891L61.5381 42.5234L65.1879 39.8233L68.4418 48.0887C69.095 49.745 69.3621 51.1148 69.1696 52.4016C68.927 54.024 67.9018 55.4294 65.8438 56.9519ZM62.9694 49.973C63.9662 49.2355 63.9069 47.9111 63.2765 47.0589C62.8126 46.4319 61.9579 46.2183 61.2023 46.7773C60.2215 47.5029 60.241 48.8071 60.9071 49.7075C61.371 50.3345 62.2137 50.532 62.9694 49.973ZM70.3648 49.5769L66.2175 39.0615L69.8672 36.3613L70.3867 37.6688C70.4421 36.5331 70.9506 35.2364 72.0439 34.4275C73.6518 33.238 75.3253 33.617 76.5386 35.257C76.8717 35.7072 77.1761 36.2532 77.4239 36.8908L79.7062 42.6659L76.0564 45.366L73.9947 40.1244C73.8925 39.8518 73.7343 39.5707 73.6035 39.3939C73.2585 38.9276 72.7913 38.8005 72.2608 39.1931C71.5372 39.7283 71.5082 40.4962 71.9528 41.6351L74.0145 46.8767L70.3648 49.5769ZM38.0893 100.821L32.7854 87.3304L36.3065 84.7254L42.8359 88.2042L40.31 81.7635L44.0401 79.0039L49.344 92.4949L45.9997 94.969L39.1913 91.3484L41.8194 98.0618L38.0893 100.821ZM55.9679 87.9177C53.2025 89.9637 50.2464 89.3643 48.5573 87.0812C46.5708 84.3961 46.9773 80.3387 50.0322 78.0787C52.7977 76.0327 55.7538 76.6321 57.4429 78.9152C59.4294 81.6002 59.0228 85.6577 55.9679 87.9177ZM53.9925 84.7767C54.9089 84.0987 54.8943 82.6666 54.1211 81.6215C53.5739 80.8819 52.7151 80.6963 52.0077 81.2197C51.0912 81.8977 51.1059 83.3298 51.879 84.3749C52.4262 85.1145 53.285 85.3001 53.9925 84.7767ZM62.7956 82.6425L55.0636 74.6798L58.8098 71.9082L62.3102 76.1352L61.6556 69.8028L65.5144 66.948L66.1399 80.1684L62.7956 82.6425ZM65.6838 65.8524L64.5861 63.0571L68.3644 60.2618L69.4622 63.057L65.6838 65.8524ZM70.1824 77.0781L66.0352 66.5627L69.6849 63.8625L73.8322 74.3779L70.1824 77.0781ZM80.1049 70.0855C77.7575 71.8221 74.9659 71.7479 73.2173 69.3844C70.9811 66.3617 71.5323 62.1972 74.5711 59.949C76.6934 58.3789 78.9641 58.5897 80.515 59.9799L78.4774 63.2787C77.8051 62.7063 77.1618 62.61 76.5669 63.0502C75.5218 63.8233 75.6792 65.4484 76.4642 66.5096C76.9519 67.1688 77.6792 67.2775 78.258 66.8493C78.7725 66.4687 78.98 65.942 79.0454 65.1224L82.7186 64.9425C82.7782 66.8389 82.1147 68.5986 80.1049 70.0855ZM85.6247 60.1802C86.1963 60.852 86.9915 60.9852 87.8115 60.3785C88.4064 59.9384 88.7907 59.2809 89.0567 58.3626L92.1128 58.9626C91.7702 60.5844 90.9527 62.0351 89.4092 63.177C86.7402 65.1516 83.9464 64.8053 82.2454 62.5061C80.2708 59.8372 80.29 55.6932 83.6342 53.219C86.5283 51.0779 88.9442 52.3258 90.3121 54.1748C90.7403 54.7536 91.0602 55.3877 91.2682 56.005L85.6247 60.1802ZM84.6603 58.4059L87.1363 56.574C87.0894 56.4097 87.0103 56.2692 86.9152 56.1406C86.5583 55.6582 85.8715 55.4697 85.2766 55.9098C84.73 56.3143 84.2723 57.1753 84.6603 58.4059Z"/>
</mask>
<path d="M24.9105 83.2051L19.6067 69.7141L23.594 66.7641C25.7807 65.1464 27.5874 64.7302 29.07 64.9519C30.5246 65.1694 31.7194 65.9773 32.7305 67.3439C33.9794 69.0321 34.4782 71.0514 34.1645 73.1494C33.8131 75.4992 32.4029 77.662 29.7983 79.589L24.9105 83.2051ZM27.1305 76.4875L27.7897 75.9998C28.9313 75.1552 29.6622 74.092 29.8128 73.085C29.9341 72.2737 29.7127 71.2683 29.2012 70.5769C28.7492 69.9659 28.275 69.6948 27.7715 69.6195C27.156 69.5275 26.4387 69.7348 25.5383 70.4009L24.9112 70.8648L27.1305 76.4875ZM38.4054 67.7479C38.977 68.4197 39.7722 68.5529 40.5922 67.9463C41.1871 67.5061 41.5714 66.8486 41.8374 65.9304L44.8935 66.5304C44.5509 68.1522 43.7334 69.6029 42.1899 70.7448C39.5209 72.7194 36.7271 72.3731 35.0261 70.0739C33.0516 67.4049 33.0707 63.2609 36.4149 60.7868C39.309 58.6457 41.7249 59.8935 43.0928 61.7425C43.521 62.3213 43.8409 62.9554 44.0489 63.5728L38.4054 67.7479ZM37.441 65.9736L39.9171 64.1418C39.8701 63.9775 39.7911 63.8369 39.6959 63.7083C39.339 63.226 38.6523 63.0375 38.0574 63.4776C37.5107 63.882 37.0531 64.743 37.441 65.9736ZM51.0924 64.1585C49.0987 65.6334 46.999 66.1917 45.3152 66.1687L45.3766 62.889C46.6284 62.9332 48.4113 62.4849 49.4082 61.7474C49.778 61.4738 49.8156 61.222 49.6967 61.0613C49.4826 60.7718 49.1022 60.8294 47.7115 61.2363C45.916 61.7685 44.4594 61.851 43.4364 60.4683C42.1399 58.7158 42.5842 56.2226 45.221 54.2718C46.9896 52.9634 48.8774 52.3877 50.2613 52.4088L50.1998 55.6884C49.1796 55.7218 47.7092 56.0881 46.841 56.7305C46.439 57.0279 46.3454 57.2712 46.4762 57.4481C46.6547 57.6893 46.919 57.643 48.2817 57.2319C50.0493 56.6955 51.5946 56.4976 52.7365 58.0411C53.819 59.5042 54.0508 61.9698 51.0924 64.1585ZM50.3696 49.8159L49.2719 47.0206L53.0503 44.2253L54.148 47.0205L50.3696 49.8159ZM54.8683 61.0416L50.721 50.5262L54.3708 47.826L58.518 58.3414L54.8683 61.0416ZM65.8438 56.9519C64.236 58.1414 61.9742 59.0186 60.3652 59.1641L60.2421 55.9712C61.7273 55.793 63.0592 55.2057 63.9274 54.5633C64.7313 53.9686 65.1191 53.3831 65.2279 52.6558C65.299 52.1803 65.2267 51.6118 64.9551 50.942L64.8921 50.7896C64.6849 51.8882 64.1182 52.9045 63.041 53.7015C61.5618 54.7959 59.2654 54.8528 57.8261 52.9074C55.9586 50.3831 55.6555 46.577 58.437 44.5192C59.6107 43.6508 61.0036 43.516 62.0772 43.891L61.5381 42.5234L65.1879 39.8233L68.4418 48.0887C69.095 49.745 69.3621 51.1148 69.1696 52.4016C68.927 54.024 67.9018 55.4294 65.8438 56.9519ZM62.9694 49.973C63.9662 49.2355 63.9069 47.9111 63.2765 47.0589C62.8126 46.4319 61.9579 46.2183 61.2023 46.7773C60.2215 47.5029 60.241 48.8071 60.9071 49.7075C61.371 50.3345 62.2137 50.532 62.9694 49.973ZM70.3648 49.5769L66.2175 39.0615L69.8672 36.3613L70.3867 37.6688C70.4421 36.5331 70.9506 35.2364 72.0439 34.4275C73.6518 33.238 75.3253 33.617 76.5386 35.257C76.8717 35.7072 77.1761 36.2532 77.4239 36.8908L79.7062 42.6659L76.0564 45.366L73.9947 40.1244C73.8925 39.8518 73.7343 39.5707 73.6035 39.3939C73.2585 38.9276 72.7913 38.8005 72.2608 39.1931C71.5372 39.7283 71.5082 40.4962 71.9528 41.6351L74.0145 46.8767L70.3648 49.5769ZM38.0893 100.821L32.7854 87.3304L36.3065 84.7254L42.8359 88.2042L40.31 81.7635L44.0401 79.0039L49.344 92.4949L45.9997 94.969L39.1913 91.3484L41.8194 98.0618L38.0893 100.821ZM55.9679 87.9177C53.2025 89.9637 50.2464 89.3643 48.5573 87.0812C46.5708 84.3961 46.9773 80.3387 50.0322 78.0787C52.7977 76.0327 55.7538 76.6321 57.4429 78.9152C59.4294 81.6002 59.0228 85.6577 55.9679 87.9177ZM53.9925 84.7767C54.9089 84.0987 54.8943 82.6666 54.1211 81.6215C53.5739 80.8819 52.7151 80.6963 52.0077 81.2197C51.0912 81.8977 51.1059 83.3298 51.879 84.3749C52.4262 85.1145 53.285 85.3001 53.9925 84.7767ZM62.7956 82.6425L55.0636 74.6798L58.8098 71.9082L62.3102 76.1352L61.6556 69.8028L65.5144 66.948L66.1399 80.1684L62.7956 82.6425ZM65.6838 65.8524L64.5861 63.0571L68.3644 60.2618L69.4622 63.057L65.6838 65.8524ZM70.1824 77.0781L66.0352 66.5627L69.6849 63.8625L73.8322 74.3779L70.1824 77.0781ZM80.1049 70.0855C77.7575 71.8221 74.9659 71.7479 73.2173 69.3844C70.9811 66.3617 71.5323 62.1972 74.5711 59.949C76.6934 58.3789 78.9641 58.5897 80.515 59.9799L78.4774 63.2787C77.8051 62.7063 77.1618 62.61 76.5669 63.0502C75.5218 63.8233 75.6792 65.4484 76.4642 66.5096C76.9519 67.1688 77.6792 67.2775 78.258 66.8493C78.7725 66.4687 78.98 65.942 79.0454 65.1224L82.7186 64.9425C82.7782 66.8389 82.1147 68.5986 80.1049 70.0855ZM85.6247 60.1802C86.1963 60.852 86.9915 60.9852 87.8115 60.3785C88.4064 59.9384 88.7907 59.2809 89.0567 58.3626L92.1128 58.9626C91.7702 60.5844 90.9527 62.0351 89.4092 63.177C86.7402 65.1516 83.9464 64.8053 82.2454 62.5061C80.2708 59.8372 80.29 55.6932 83.6342 53.219C86.5283 51.0779 88.9442 52.3258 90.3121 54.1748C90.7403 54.7536 91.0602 55.3877 91.2682 56.005L85.6247 60.1802ZM84.6603 58.4059L87.1363 56.574C87.0894 56.4097 87.0103 56.2692 86.9152 56.1406C86.5583 55.6582 85.8715 55.4697 85.2766 55.9098C84.73 56.3143 84.2723 57.1753 84.6603 58.4059Z" fill="#263E65"/>
<path d="M24.9105 83.2051L23.9798 83.571L24.4569 84.7846L25.5052 84.009L24.9105 83.2051ZM19.6067 69.7141L19.0119 68.9102L18.3954 69.3663L18.676 70.08L19.6067 69.7141ZM29.07 64.9519L28.9221 65.9409L28.9221 65.9409L29.07 64.9519ZM34.1645 73.1494L35.1535 73.2973L34.1645 73.1494ZM27.1305 76.4875L26.2003 76.8546L26.6784 78.0659L27.7253 77.2914L27.1305 76.4875ZM29.8128 73.085L30.8018 73.2329L29.8128 73.085ZM27.7715 69.6195L27.9194 68.6305L27.9193 68.6305L27.7715 69.6195ZM24.9112 70.8648L24.3165 70.0609L23.6991 70.5177L23.9811 71.232L24.9112 70.8648ZM25.8412 82.8392L20.5373 69.3482L18.676 70.08L23.9798 83.571L25.8412 82.8392ZM20.2014 70.518L24.1888 67.568L22.9993 65.9602L19.0119 68.9102L20.2014 70.518ZM24.1888 67.568C26.2272 66.06 27.7722 65.769 28.9221 65.9409L29.2179 63.9629C27.4027 63.6915 25.3342 64.2328 22.9993 65.9602L24.1888 67.568ZM28.9221 65.9409C30.0581 66.1108 31.0357 66.7346 31.9265 67.9387L33.5344 66.7492C32.403 65.22 30.9912 64.2281 29.2179 63.9629L28.9221 65.9409ZM31.9265 67.9387C33.016 69.4113 33.4504 71.1629 33.1755 73.0015L35.1535 73.2973C35.506 70.94 34.9429 68.653 33.5344 66.7492L31.9265 67.9387ZM33.1755 73.0015C32.8734 75.0217 31.6567 76.9702 29.2035 78.7851L30.393 80.3929C33.1491 78.3539 34.7528 75.9767 35.1535 73.2973L33.1755 73.0015ZM29.2035 78.7851L24.3157 82.4012L25.5052 84.009L30.393 80.3929L29.2035 78.7851ZM27.7253 77.2914L28.3845 76.8037L27.195 75.1959L26.5357 75.6836L27.7253 77.2914ZM28.3845 76.8037C29.6587 75.861 30.5993 74.5869 30.8018 73.2329L28.8238 72.9371C28.7251 73.5971 28.2038 74.4495 27.195 75.1959L28.3845 76.8037ZM30.8018 73.2329C30.9599 72.1759 30.6841 70.8998 30.0051 69.9822L28.3973 71.1717C28.7414 71.6367 28.9084 72.3716 28.8238 72.9371L30.8018 73.2329ZM30.0051 69.9822C29.4238 69.1964 28.7289 68.7516 27.9194 68.6305L27.6236 70.6085C27.8211 70.6381 28.0746 70.7355 28.3973 71.1717L30.0051 69.9822ZM27.9193 68.6305C26.9397 68.484 25.9567 68.8474 24.9435 69.597L26.133 71.2048C26.9206 70.6222 27.3724 70.571 27.6236 70.6085L27.9193 68.6305ZM24.9435 69.597L24.3165 70.0609L25.506 71.6688L26.133 71.2048L24.9435 69.597ZM23.9811 71.232L26.2003 76.8546L28.0607 76.1203L25.8414 70.4977L23.9811 71.232ZM38.4054 67.7479L37.8107 66.944L36.9501 67.5807L37.6438 68.396L38.4054 67.7479ZM41.8374 65.9304L42.03 64.9491L41.1316 64.7727L40.8769 65.6521L41.8374 65.9304ZM44.8935 66.5304L45.8719 66.7371L46.0816 65.7445L45.0862 65.5491L44.8935 66.5304ZM44.0489 63.5728L44.6436 64.3767L45.229 63.9436L44.9965 63.2536L44.0489 63.5728ZM37.441 65.9736L36.4873 66.2743L36.9088 67.6113L38.0358 66.7775L37.441 65.9736ZM39.9171 64.1418L40.5118 64.9457L41.0689 64.5335L40.8786 63.8671L39.9171 64.1418ZM37.6438 68.396C38.0575 68.8822 38.6175 69.245 39.2952 69.3204C39.9735 69.3958 40.6235 69.167 41.1869 68.7502L39.9974 67.1424C39.7409 67.3322 39.5834 67.3401 39.5162 67.3326C39.4484 67.3251 39.3249 67.2855 39.167 67.0999L37.6438 68.396ZM41.1869 68.7502C42.0204 68.1336 42.4967 67.2484 42.7979 66.2086L40.8769 65.6521C40.6461 66.4489 40.3538 66.8787 39.9974 67.1424L41.1869 68.7502ZM41.6447 66.9116L44.7009 67.5116L45.0862 65.5491L42.03 64.9491L41.6447 66.9116ZM43.9151 66.3237C43.6186 67.7274 42.9253 68.9568 41.5951 69.9409L42.7847 71.5487C44.5415 70.2489 45.4832 68.577 45.8719 66.7371L43.9151 66.3237ZM41.5951 69.9409C40.4153 70.8137 39.2924 71.1138 38.3466 71.0172C37.4124 70.9217 36.5323 70.4284 35.83 69.4791L34.2222 70.6686C35.2209 72.0186 36.5882 72.848 38.1434 73.0068C39.6871 73.1645 41.2955 72.6504 42.7847 71.5487L41.5951 69.9409ZM35.83 69.4791C34.1335 67.186 34.1746 63.6881 37.0097 61.5907L35.8202 59.9829C31.9667 62.8337 31.9696 67.6238 34.2222 70.6686L35.83 69.4791ZM37.0097 61.5907C38.2591 60.6663 39.2876 60.5456 40.0907 60.7402C40.9337 60.9445 41.6979 61.5384 42.2889 62.3372L43.8967 61.1477C43.1198 60.0976 41.9921 59.1431 40.5617 58.7965C39.0913 58.4402 37.4648 58.7661 35.8202 59.9829L37.0097 61.5907ZM42.2889 62.3372C42.6526 62.8288 42.9251 63.3693 43.1012 63.892L44.9965 63.2536C44.7567 62.5416 44.3895 61.8138 43.8967 61.1477L42.2889 62.3372ZM43.4541 62.7689L37.8107 66.944L39.0002 68.5519L44.6436 64.3767L43.4541 62.7689ZM38.0358 66.7775L40.5118 64.9457L39.3223 63.3379L36.8463 65.1697L38.0358 66.7775ZM40.8786 63.8671C40.7903 63.5579 40.6453 63.3102 40.4998 63.1136L38.892 64.3031C38.9368 64.3636 38.95 64.397 38.9555 64.4164L40.8786 63.8671ZM40.4998 63.1136C39.8485 62.2333 38.5462 61.872 37.4626 62.6737L38.6521 64.2815C38.698 64.2475 38.7302 64.2367 38.7464 64.2328C38.7631 64.2288 38.7763 64.229 38.7885 64.2312C38.8151 64.236 38.8569 64.2557 38.892 64.3031L40.4998 63.1136ZM37.4626 62.6737C36.5668 63.3364 35.9733 64.6438 36.4873 66.2743L38.3947 65.6729C38.1329 64.8422 38.4546 64.4276 38.6521 64.2815L37.4626 62.6737ZM45.3152 66.1687L44.3153 66.15L44.2965 67.1549L45.3015 67.1686L45.3152 66.1687ZM45.3766 62.889L45.4119 61.8896L44.3958 61.8538L44.3768 62.8703L45.3766 62.889ZM47.7115 61.2363L47.4307 60.2765L47.4273 60.2775L47.7115 61.2363ZM50.2613 52.4088L51.2611 52.4275L51.2799 51.4241L50.2765 51.4089L50.2613 52.4088ZM50.1998 55.6884L50.2325 56.6879L51.1819 56.6569L51.1997 55.7072L50.1998 55.6884ZM48.2817 57.2319L48.5705 58.1893L48.5721 58.1888L48.2817 57.2319ZM50.4977 63.3545C48.6758 64.7024 46.7889 65.1887 45.3288 65.1688L45.3015 67.1686C47.2092 67.1947 49.5216 66.5645 51.6872 64.9624L50.4977 63.3545ZM46.315 66.1874L46.3764 62.9078L44.3768 62.8703L44.3153 66.15L46.315 66.1874ZM45.3413 63.8884C46.0878 63.9148 46.9486 63.7955 47.7518 63.5759C48.5489 63.3579 49.3711 63.0187 50.0029 62.5513L48.8134 60.9435C48.4484 61.2135 47.8807 61.4672 47.2242 61.6467C46.5737 61.8246 45.9172 61.9075 45.4119 61.8896L45.3413 63.8884ZM50.0029 62.5513C50.277 62.3485 50.5489 62.0682 50.6802 61.6905C50.8269 61.2686 50.7612 60.8188 50.5006 60.4665L48.8928 61.656C48.8315 61.5732 48.7825 61.4665 48.7644 61.3432C48.7463 61.2199 48.7638 61.1125 48.7912 61.0336C48.841 60.8903 48.9092 60.8726 48.8134 60.9435L50.0029 62.5513ZM50.5006 60.4665C50.3407 60.2504 50.114 60.0618 49.8058 59.9599C49.5309 59.8689 49.2623 59.8713 49.0475 59.8924C48.6401 59.9325 48.1015 60.0802 47.4307 60.2765L47.9923 62.196C48.3372 62.0951 48.6052 62.0201 48.8186 61.9672C49.0367 61.9132 49.1667 61.8904 49.2431 61.8828C49.324 61.8749 49.2775 61.8917 49.1776 61.8587C49.0445 61.8146 48.9456 61.7274 48.8928 61.656L50.5006 60.4665ZM47.4273 60.2775C46.5622 60.5339 45.9104 60.6381 45.403 60.5775C44.957 60.5241 44.5862 60.341 44.2403 59.8735L42.6325 61.063C43.3096 61.9782 44.1786 62.4453 45.1655 62.5633C46.091 62.674 47.0652 62.4709 47.9957 62.195L47.4273 60.2775ZM44.2403 59.8735C43.7715 59.2399 43.6183 58.4883 43.8223 57.6929C44.0307 56.8807 44.6344 55.9497 45.8158 55.0757L44.6263 53.4679C43.1708 54.5447 42.234 55.8357 41.8851 57.1959C41.5319 58.5729 41.8047 59.9442 42.6325 61.063L44.2403 59.8735ZM45.8158 55.0757C47.4405 53.8737 49.1187 53.3915 50.2461 53.4086L50.2765 51.4089C48.6361 51.3839 46.5387 52.053 44.6263 53.4679L45.8158 55.0757ZM49.2615 52.39L49.2 55.6697L51.1997 55.7072L51.2611 52.4275L49.2615 52.39ZM50.1672 54.689C49.0211 54.7264 47.3302 55.1246 46.2462 55.9266L47.4357 57.5344C48.0882 57.0517 49.3381 56.7171 50.2325 56.6879L50.1672 54.689ZM46.2462 55.9266C45.9937 56.1134 45.7171 56.3667 45.5562 56.704C45.3619 57.1115 45.3581 57.6181 45.6723 58.0429L47.2802 56.8534C47.3512 56.9494 47.4095 57.0826 47.4195 57.2394C47.4291 57.39 47.3906 57.5037 47.3614 57.5649C47.334 57.6224 47.3112 57.6424 47.3252 57.6275C47.3377 57.6142 47.3707 57.5825 47.4357 57.5344L46.2462 55.9266ZM45.6723 58.0429C45.8074 58.2254 46.0162 58.4219 46.3326 58.5248C46.6077 58.6143 46.8704 58.6008 47.0607 58.5767C47.4215 58.5309 47.9205 58.3854 48.5705 58.1893L47.9929 56.2745C47.6528 56.3771 47.3945 56.4529 47.1924 56.5067C46.9848 56.562 46.8704 56.5848 46.8091 56.5926C46.7406 56.6012 46.8186 56.5797 46.9514 56.6229C47.1254 56.6796 47.2343 56.7914 47.2802 56.8534L45.6723 58.0429ZM48.5721 58.1888C49.439 57.9257 50.1038 57.7965 50.6424 57.8514C51.1109 57.8991 51.5282 58.0892 51.9326 58.6358L53.5404 57.4463C52.8029 56.4494 51.8766 55.9668 50.8451 55.8617C49.8836 55.7637 48.8919 56.0017 47.9913 56.275L48.5721 58.1888ZM51.9326 58.6358C52.3378 59.1836 52.5694 59.8976 52.4431 60.6653C52.3183 61.4236 51.8202 62.3761 50.4977 63.3545L51.6872 64.9624C53.3231 63.7521 54.1882 62.3774 54.4165 60.99C54.6432 59.612 54.2176 58.3617 53.5404 57.4463L51.9326 58.6358ZM50.3696 49.8159L49.4389 50.1814L49.9157 51.3957L50.9644 50.6198L50.3696 49.8159ZM49.2719 47.0206L48.6772 46.2167L48.0609 46.6727L48.3411 47.3862L49.2719 47.0206ZM53.0503 44.2253L53.9811 43.8598L53.5042 42.6455L52.4555 43.4214L53.0503 44.2253ZM54.148 47.0205L54.7428 47.8245L55.359 47.3685L55.0788 46.655L54.148 47.0205ZM54.8683 61.0416L53.938 61.4085L54.4159 62.6202L55.463 61.8455L54.8683 61.0416ZM50.721 50.5262L50.1263 49.7223L49.5091 50.1789L49.7907 50.8931L50.721 50.5262ZM54.3708 47.826L55.301 47.4591L54.8231 46.2474L53.776 47.0221L54.3708 47.826ZM58.518 58.3414L59.1128 59.1453L59.73 58.6887L59.4483 57.9745L58.518 58.3414ZM51.3004 49.4503L50.2027 46.6551L48.3411 47.3862L49.4389 50.1814L51.3004 49.4503ZM49.8667 47.8246L53.645 45.0292L52.4555 43.4214L48.6772 46.2167L49.8667 47.8246ZM52.1195 44.5908L53.2172 47.3861L55.0788 46.655L53.9811 43.8598L52.1195 44.5908ZM53.5533 46.2166L49.7749 49.012L50.9644 50.6198L54.7428 47.8245L53.5533 46.2166ZM55.7986 60.6747L51.6513 50.1593L49.7907 50.8931L53.938 61.4085L55.7986 60.6747ZM51.3158 51.3301L54.9655 48.6299L53.776 47.0221L50.1263 49.7223L51.3158 51.3301ZM53.4405 48.1929L57.5878 58.7083L59.4483 57.9745L55.301 47.4591L53.4405 48.1929ZM57.9233 57.5375L54.2735 60.2377L55.463 61.8455L59.1128 59.1453L57.9233 57.5375ZM60.3652 59.1641L59.3659 59.2026L59.4065 60.2549L60.4552 60.1601L60.3652 59.1641ZM60.2421 55.9712L60.1229 54.9784L59.2073 55.0883L59.2428 56.0098L60.2421 55.9712ZM65.2279 52.6558L66.2169 52.8037L66.2169 52.8037L65.2279 52.6558ZM64.9551 50.942L65.8818 50.5662L65.8792 50.56L64.9551 50.942ZM64.8921 50.7896L65.8162 50.4075L64.5323 47.3014L63.9094 50.6042L64.8921 50.7896ZM62.0772 43.891L61.7474 44.835L63.8079 45.5549L63.0075 43.5243L62.0772 43.891ZM61.5381 42.5234L60.9434 41.7195L60.3263 42.176L60.6078 42.8902L61.5381 42.5234ZM65.1879 39.8233L66.1183 39.4569L65.6409 38.2442L64.5931 39.0193L65.1879 39.8233ZM68.4418 48.0887L67.5114 48.455L67.5116 48.4556L68.4418 48.0887ZM69.1696 52.4016L70.1586 52.5495L69.1696 52.4016ZM65.249 56.148C63.7701 57.2422 61.6798 58.0412 60.2751 58.1682L60.4552 60.1601C62.2686 59.9961 64.7018 59.0407 66.4385 57.7558L65.249 56.148ZM61.3645 59.1256L61.2413 55.9327L59.2428 56.0098L59.3659 59.2026L61.3645 59.1256ZM60.3613 56.9641C62.0191 56.7651 63.5148 56.1125 64.5221 55.3672L63.3326 53.7594C62.6035 54.2988 61.4355 54.8208 60.1229 54.9784L60.3613 56.9641ZM64.5221 55.3672C65.4724 54.6642 66.0581 53.8655 66.2169 52.8037L64.2389 52.5079C64.1801 52.9007 63.9902 53.2729 63.3326 53.7594L64.5221 55.3672ZM66.2169 52.8037C66.3206 52.1104 66.2033 51.3589 65.8818 50.5662L64.0284 51.3178C64.2501 51.8646 64.2774 52.2501 64.2389 52.5079L66.2169 52.8037ZM65.8792 50.56L65.8162 50.4075L63.9679 51.1716L64.0309 51.324L65.8792 50.56ZM63.9094 50.6042C63.7467 51.4671 63.3113 52.2576 62.4462 52.8976L63.6357 54.5054C64.9252 53.5514 65.6231 52.3093 65.8748 50.9749L63.9094 50.6042ZM62.4462 52.8976C61.3324 53.7216 59.6855 53.7393 58.63 52.3126L57.0222 53.5021C58.8452 55.9663 61.7912 55.8701 63.6357 54.5054L62.4462 52.8976ZM58.63 52.3126C56.9446 50.0345 56.869 46.9231 59.0317 45.3231L57.8422 43.7153C54.4419 46.2309 54.9725 50.7316 57.0222 53.5021L58.63 52.3126ZM59.0317 45.3231C59.9395 44.6515 60.9862 44.5692 61.7474 44.835L62.407 42.9469C61.021 42.4628 59.2819 42.6502 57.8422 43.7153L59.0317 45.3231ZM63.0075 43.5243L62.4684 42.1567L60.6078 42.8902L61.1468 44.2577L63.0075 43.5243ZM62.1329 43.3273L65.7826 40.6272L64.5931 39.0193L60.9434 41.7195L62.1329 43.3273ZM64.2574 40.1896L67.5114 48.455L69.3723 47.7224L66.1183 39.4569L64.2574 40.1896ZM67.5116 48.4556C68.1339 50.0336 68.3362 51.2131 68.1806 52.2537L70.1586 52.5495C70.3879 51.0165 70.0562 49.4565 69.3721 47.7219L67.5116 48.4556ZM68.1806 52.2537C67.9943 53.4997 67.2092 54.6978 65.249 56.148L66.4385 57.7558C68.5944 56.1609 69.8597 54.5484 70.1586 52.5495L68.1806 52.2537ZM63.5641 50.7769C65.1352 49.6146 64.9339 47.6178 64.0804 46.4642L62.4726 47.6537C62.6565 47.9022 62.7514 48.2175 62.7349 48.5006C62.7196 48.7624 62.6129 48.9927 62.3746 49.1691L63.5641 50.7769ZM64.0804 46.4642C63.3096 45.4223 61.8358 45.0647 60.6075 45.9734L61.797 47.5812C61.9707 47.4528 62.1011 47.4456 62.1821 47.4593C62.2742 47.4749 62.3826 47.5321 62.4726 47.6537L64.0804 46.4642ZM60.6075 45.9734C59.0617 47.117 59.2059 49.0894 60.1032 50.3022L61.711 49.1127C61.276 48.5247 61.3813 47.8888 61.797 47.5812L60.6075 45.9734ZM60.1032 50.3022C60.4781 50.809 61.0292 51.1702 61.6714 51.2725C62.3223 51.3763 62.9895 51.202 63.5641 50.7769L62.3746 49.1691C62.1936 49.303 62.0616 49.3095 61.9862 49.2975C61.9022 49.2841 61.7999 49.2329 61.711 49.1127L60.1032 50.3022ZM70.3648 49.5769L69.4345 49.9438L69.9124 51.1555L70.9595 50.3808L70.3648 49.5769ZM66.2175 39.0615L65.6227 38.2576L65.0055 38.7142L65.2872 39.4284L66.2175 39.0615ZM69.8672 36.3613L70.7966 35.9921L70.3169 34.7848L69.2725 35.5574L69.8672 36.3613ZM70.3867 37.6688L69.4574 38.038L71.3855 37.7175L70.3867 37.6688ZM77.4239 36.8908L76.4918 37.2531L76.4939 37.2583L77.4239 36.8908ZM79.7062 42.6659L80.3009 43.4698L80.9186 43.0128L80.6362 42.2983L79.7062 42.6659ZM76.0564 45.366L75.1258 45.7321L75.6031 46.9454L76.6512 46.1699L76.0564 45.366ZM73.9947 40.1244L73.0583 40.4754L73.0612 40.483L73.0641 40.4905L73.9947 40.1244ZM71.9528 41.6351L71.0212 41.9987L71.0222 42.0011L71.9528 41.6351ZM74.0145 46.8767L74.6093 47.6806L75.2259 47.2244L74.9451 46.5107L74.0145 46.8767ZM71.295 49.21L67.1477 38.6946L65.2872 39.4284L69.4345 49.9438L71.295 49.21ZM66.8122 39.8654L70.462 37.1653L69.2725 35.5574L65.6227 38.2576L66.8122 39.8654ZM68.9379 36.7306L69.4574 38.038L71.316 37.2995L70.7966 35.9921L68.9379 36.7306ZM71.3855 37.7175C71.4298 36.8103 71.8384 35.8235 72.6387 35.2315L71.4492 33.6236C70.0628 34.6493 69.4545 36.2559 69.3879 37.62L71.3855 37.7175ZM72.6387 35.2315C73.2612 34.7709 73.8014 34.6753 74.247 34.7625C74.7093 34.8531 75.2328 35.1733 75.7347 35.8517L77.3425 34.6622C76.6311 33.7007 75.7112 33.0114 74.6315 32.7999C73.535 32.585 72.4345 32.8947 71.4492 33.6236L72.6387 35.2315ZM75.7347 35.8517C76.0116 36.226 76.2741 36.6929 76.4919 37.2531L78.356 36.5285C78.0781 35.8134 77.7318 35.1883 77.3425 34.6622L75.7347 35.8517ZM76.4939 37.2583L78.7762 43.0334L80.6362 42.2983L78.3539 36.5233L76.4939 37.2583ZM79.1114 41.8619L75.4617 44.5621L76.6512 46.1699L80.3009 43.4698L79.1114 41.8619ZM76.987 45L74.9253 39.7584L73.0641 40.4905L75.1258 45.7321L76.987 45ZM74.9311 39.7734C74.7964 39.4141 74.5937 39.051 74.4074 38.7991L72.7996 39.9886C72.8749 40.0905 72.9886 40.2894 73.0583 40.4754L74.9311 39.7734ZM74.4074 38.7991C74.1389 38.4362 73.7354 38.088 73.18 37.9874C72.6098 37.8841 72.0859 38.0785 71.666 38.3892L72.8555 39.997C72.9123 39.9549 72.9358 39.9504 72.9251 39.9535C72.9194 39.9552 72.9063 39.9583 72.8871 39.9594C72.8677 39.9605 72.846 39.9595 72.8235 39.9554C72.8011 39.9513 72.7822 39.9451 72.7677 39.9388C72.7535 39.9326 72.7458 39.9273 72.7442 39.9263C72.7423 39.9249 72.7633 39.9396 72.7996 39.9886L74.4074 38.7991ZM71.666 38.3892C71.096 38.8109 70.7478 39.3826 70.6742 40.0833C70.6073 40.7203 70.7777 41.3749 71.0212 41.9987L72.8843 41.2715C72.6832 40.7563 72.6459 40.4576 72.6633 40.2921C72.6739 40.1904 72.702 40.1105 72.8555 39.997L71.666 38.3892ZM71.0222 42.0011L73.0839 47.2427L74.9451 46.5107L72.8834 41.2691L71.0222 42.0011ZM73.4198 46.0728L69.77 48.773L70.9595 50.3808L74.6093 47.6806L73.4198 46.0728ZM38.0893 100.821L37.1586 101.187L37.6357 102.401L38.684 101.625L38.0893 100.821ZM32.7854 87.3304L32.1907 86.5265L31.5742 86.9826L31.8548 87.6963L32.7854 87.3304ZM36.3065 84.7254L36.7768 83.8428L36.2194 83.5459L35.7118 83.9215L36.3065 84.7254ZM42.8359 88.2042L42.3657 89.0867L44.7556 90.36L43.7669 87.8391L42.8359 88.2042ZM40.31 81.7635L39.7153 80.9596L39.0993 81.4153L39.379 82.1286L40.31 81.7635ZM44.0401 79.0039L44.9708 78.638L44.4937 77.4244L43.4454 78.2L44.0401 79.0039ZM49.344 92.4949L49.9387 93.2988L50.5552 92.8427L50.2746 92.129L49.344 92.4949ZM45.9997 94.969L45.5302 95.852L46.0873 96.1482L46.5945 95.7729L45.9997 94.969ZM39.1913 91.3484L39.6608 90.4655L37.2751 89.1968L38.2601 91.713L39.1913 91.3484ZM41.8194 98.0618L42.4141 98.8657L43.0297 98.4102L42.7506 97.6972L41.8194 98.0618ZM39.0199 100.456L33.7161 86.9645L31.8548 87.6963L37.1586 101.187L39.0199 100.456ZM33.3802 88.1343L36.9013 85.5293L35.7118 83.9215L32.1907 86.5265L33.3802 88.1343ZM35.8363 85.6079L42.3657 89.0867L43.3061 87.3216L36.7768 83.8428L35.8363 85.6079ZM43.7669 87.8391L41.241 81.3984L39.379 82.1286L41.905 88.5693L43.7669 87.8391ZM40.9048 82.5674L44.6349 79.8078L43.4454 78.2L39.7153 80.9596L40.9048 82.5674ZM43.1095 79.3698L48.4133 92.8607L50.2746 92.129L44.9708 78.638L43.1095 79.3698ZM48.7492 91.691L45.405 94.1651L46.5945 95.7729L49.9387 93.2988L48.7492 91.691ZM46.4692 94.0861L39.6608 90.4655L38.7217 92.2313L45.5302 95.852L46.4692 94.0861ZM38.2601 91.713L40.8882 98.4263L42.7506 97.6972L40.1225 90.9839L38.2601 91.713ZM41.2246 97.2578L37.4945 100.017L38.684 101.625L42.4141 98.8657L41.2246 97.2578ZM55.3732 87.1138C54.1696 88.0042 52.9971 88.2709 51.9962 88.1323C50.9926 87.9933 50.062 87.4337 49.3612 86.4864L47.7534 87.676C48.7416 89.0118 50.1336 89.8934 51.7218 90.1134C53.3125 90.3337 55.0008 89.8771 56.5627 88.7216L55.3732 87.1138ZM49.3612 86.4864C47.6971 84.2372 48.0242 80.8082 50.627 78.8826L49.4375 77.2747C45.9305 79.8693 45.4444 84.5551 47.7534 87.676L49.3612 86.4864ZM50.627 78.8826C51.8305 77.9921 53.003 77.7254 54.004 77.8641C55.0075 78.0031 55.9382 78.5626 56.639 79.5099L58.2468 78.3204C57.2585 76.9846 55.8665 76.1029 54.2784 75.883C52.6876 75.6626 50.9993 76.1192 49.4375 77.2747L50.627 78.8826ZM56.639 79.5099C58.303 81.7591 57.976 85.1882 55.3732 87.1138L56.5627 88.7216C60.0696 86.1271 60.5557 81.4413 58.2468 78.3204L56.639 79.5099ZM54.5872 85.5806C56.123 84.4444 55.8799 82.3174 54.925 81.0267L53.3172 82.2162C53.9087 83.0158 53.6949 83.753 53.3977 83.9728L54.5872 85.5806ZM54.925 81.0267C54.5272 80.489 53.971 80.0949 53.3184 79.9659C52.6544 79.8347 51.9792 79.9968 51.4129 80.4157L52.6024 82.0236C52.7437 81.9191 52.8515 81.9123 52.9306 81.928C53.021 81.9458 53.1679 82.0144 53.3172 82.2162L54.925 81.0267ZM51.4129 80.4157C49.8772 81.5519 50.1203 83.679 51.0751 84.9696L52.683 83.7801C52.0914 82.9806 52.3053 82.2434 52.6024 82.0236L51.4129 80.4157ZM51.0751 84.9696C51.473 85.5074 52.0291 85.9014 52.6818 86.0304C53.3457 86.1617 54.021 85.9995 54.5872 85.5806L53.3977 83.9728C53.2565 84.0773 53.1486 84.084 53.0695 84.0684C52.9791 84.0505 52.8323 83.982 52.683 83.7801L51.0751 84.9696ZM62.7956 82.6425L62.0782 83.3392L62.6874 83.9665L63.3904 83.4464L62.7956 82.6425ZM55.0636 74.6798L54.4688 73.8758L53.5495 74.556L54.3461 75.3764L55.0636 74.6798ZM58.8098 71.9082L59.58 71.2704L58.9761 70.5412L58.215 71.1043L58.8098 71.9082ZM62.3102 76.1352L61.54 76.773L63.6441 79.3139L63.3049 76.0324L62.3102 76.1352ZM61.6556 69.8028L61.0609 68.9989L60.6023 69.3382L60.6609 69.9056L61.6556 69.8028ZM65.5144 66.948L66.5133 66.9007L66.4248 65.0305L64.9196 66.1441L65.5144 66.948ZM66.1399 80.1684L66.7346 80.9723L67.164 80.6546L67.1388 80.1211L66.1399 80.1684ZM63.513 81.9459L55.781 73.9831L54.3461 75.3764L62.0782 83.3392L63.513 81.9459ZM55.6583 75.4837L59.4045 72.7121L58.215 71.1043L54.4688 73.8758L55.6583 75.4837ZM58.0396 72.546L61.54 76.773L63.0804 75.4974L59.58 71.2704L58.0396 72.546ZM63.3049 76.0324L62.6503 69.7L60.6609 69.9056L61.3155 76.238L63.3049 76.0324ZM62.2504 70.6067L66.1091 67.7519L64.9196 66.1441L61.0609 68.9989L62.2504 70.6067ZM64.5155 66.9952L65.141 80.2156L67.1388 80.1211L66.5133 66.9007L64.5155 66.9952ZM65.5451 79.3644L62.2009 81.8386L63.3904 83.4464L66.7346 80.9723L65.5451 79.3644ZM65.6838 65.8524L64.753 66.2179L65.2298 67.4321L66.2785 66.6563L65.6838 65.8524ZM64.5861 63.0571L63.9913 62.2532L63.3751 62.7091L63.6553 63.4227L64.5861 63.0571ZM68.3644 60.2618L69.2952 59.8963L68.8184 58.682L67.7697 59.4579L68.3644 60.2618ZM69.4622 63.057L70.0569 63.861L70.6732 63.405L70.393 62.6915L69.4622 63.057ZM70.1824 77.0781L69.2522 77.445L69.7301 78.6566L70.7772 77.882L70.1824 77.0781ZM66.0352 66.5627L65.4404 65.7588L64.8232 66.2154L65.1049 66.9296L66.0352 66.5627ZM69.6849 63.8625L70.6152 63.4956L70.1373 62.2839L69.0901 63.0586L69.6849 63.8625ZM73.8322 74.3779L74.4269 75.1818L75.0441 74.7252L74.7624 74.011L73.8322 74.3779ZM66.6146 65.4868L65.5169 62.6916L63.6553 63.4227L64.753 66.2179L66.6146 65.4868ZM65.1808 63.861L68.9592 61.0657L67.7697 59.4579L63.9913 62.2532L65.1808 63.861ZM67.4336 60.6273L68.5314 63.4226L70.393 62.6915L69.2952 59.8963L67.4336 60.6273ZM68.8674 62.2531L65.089 65.0485L66.2785 66.6563L70.0569 63.861L68.8674 62.2531ZM71.1127 76.7112L66.9654 66.1958L65.1049 66.9296L69.2522 77.445L71.1127 76.7112ZM66.6299 67.3666L70.2797 64.6664L69.0901 63.0586L65.4404 65.7588L66.6299 67.3666ZM68.7546 64.2294L72.9019 74.7448L74.7624 74.011L70.6152 63.4956L68.7546 64.2294ZM73.2374 73.574L69.5877 76.2741L70.7772 77.882L74.4269 75.1818L73.2374 73.574ZM80.515 59.9799L81.3658 60.5054L81.8055 59.7937L81.1825 59.2353L80.515 59.9799ZM78.4774 63.2787L77.8291 64.0401L78.716 64.7952L79.3282 63.8042L78.4774 63.2787ZM79.0454 65.1224L78.9964 64.1236L78.1184 64.1666L78.0485 65.0429L79.0454 65.1224ZM82.7186 64.9425L83.7181 64.911L83.6862 63.8938L82.6697 63.9437L82.7186 64.9425ZM79.5101 69.2815C78.4894 70.0367 77.4389 70.3496 76.5164 70.2757C75.6146 70.2034 74.7359 69.7556 74.0213 68.7896L72.4134 69.9791C73.4473 71.3766 74.8387 72.1477 76.3567 72.2693C77.854 72.3892 79.373 71.8709 80.6997 70.8894L79.5101 69.2815ZM74.0213 68.7896C72.103 66.1968 72.5851 62.6623 75.1659 60.7529L73.9764 59.1451C70.4796 61.7321 69.8591 66.5266 72.4134 69.9791L74.0213 68.7896ZM75.1659 60.7529C76.9311 59.4469 78.6722 59.671 79.8476 60.7246L81.1825 59.2353C79.256 57.5085 76.4557 57.3108 73.9764 59.1451L75.1659 60.7529ZM79.6643 59.4544L77.6266 62.7531L79.3282 63.8042L81.3658 60.5054L79.6643 59.4544ZM79.1257 62.5173C78.6996 62.1545 78.195 61.8659 77.6192 61.7927C77.0142 61.7158 76.4508 61.8921 75.9721 62.2462L77.1616 63.8541C77.2778 63.7681 77.3335 63.7725 77.367 63.7767C77.4297 63.7847 77.5829 63.8305 77.8291 64.0401L79.1257 62.5173ZM75.9721 62.2462C75.1304 62.869 74.8199 63.8109 74.8293 64.6826C74.8385 65.5426 75.1512 66.4161 75.6603 67.1043L77.2681 65.9148C76.9922 65.5419 76.8336 65.0723 76.8292 64.6611C76.8249 64.2617 76.9583 64.0045 77.1616 63.8541L75.9721 62.2462ZM75.6603 67.1043C76.0312 67.6056 76.5464 67.9641 77.1518 68.0718C77.7614 68.1802 78.3628 68.0158 78.8528 67.6532L77.6633 66.0454C77.5745 66.1111 77.5228 66.1064 77.5021 66.1027C77.4772 66.0982 77.3849 66.0727 77.2681 65.9148L75.6603 67.1043ZM78.8528 67.6532C79.6961 67.0293 79.9655 66.1638 80.0422 65.2019L78.0485 65.0429C77.9945 65.7203 77.849 65.908 77.6633 66.0454L78.8528 67.6532ZM79.0943 66.1212L82.7675 65.9413L82.6697 63.9437L78.9964 64.1236L79.0943 66.1212ZM81.7191 64.9739C81.7688 66.5543 81.2466 67.9969 79.5101 69.2815L80.6997 70.8894C82.9828 69.2003 83.7876 67.1234 83.7181 64.911L81.7191 64.9739ZM85.6247 60.1802L85.03 59.3763L84.1694 60.013L84.8631 60.8283L85.6247 60.1802ZM89.0567 58.3626L89.2493 57.3814L88.3509 57.205L88.0962 58.0844L89.0567 58.3626ZM92.1128 58.9626L93.0912 59.1693L93.3009 58.1768L92.3055 57.9814L92.1128 58.9626ZM91.2682 56.005L91.8629 56.809L92.4483 56.3759L92.2158 55.6858L91.2682 56.005ZM84.6603 58.4059L83.7066 58.7065L84.1281 60.0435L85.255 59.2098L84.6603 58.4059ZM87.1363 56.574L87.7311 57.3779L88.2882 56.9658L88.0979 56.2994L87.1363 56.574ZM84.8631 60.8283C85.2768 61.3144 85.8368 61.6773 86.5144 61.7526C87.1927 61.8281 87.8428 61.5993 88.4062 61.1824L87.2167 59.5746C86.9601 59.7644 86.8026 59.7724 86.7354 59.7649C86.6676 59.7574 86.5442 59.7177 86.3863 59.5321L84.8631 60.8283ZM88.4062 61.1824C89.2396 60.5658 89.716 59.6807 90.0172 58.6409L88.0962 58.0844C87.8654 58.8811 87.5731 59.311 87.2167 59.5746L88.4062 61.1824ZM88.864 59.3439L91.9202 59.9439L92.3055 57.9814L89.2493 57.3814L88.864 59.3439ZM91.1344 58.7559C90.8379 60.1596 90.1446 61.3891 88.8144 62.3731L90.0039 63.9809C91.7608 62.6812 92.7025 61.0092 93.0912 59.1693L91.1344 58.7559ZM88.8144 62.3731C87.6346 63.246 86.5117 63.546 85.5659 63.4494C84.6317 63.354 83.7516 62.8606 83.0493 61.9114L81.4415 63.1009C82.4402 64.4508 83.8075 65.2802 85.3627 65.4391C86.9063 65.5968 88.5148 65.0826 90.0039 63.9809L88.8144 62.3731ZM83.0493 61.9114C81.3528 59.6183 81.3939 56.1204 84.229 54.0229L83.0395 52.4151C79.186 55.266 79.1889 60.0561 81.4415 63.1009L83.0493 61.9114ZM84.229 54.0229C85.4784 53.0986 86.5069 52.9779 87.31 53.1725C88.153 53.3768 88.9172 53.9706 89.5082 54.7695L91.116 53.58C90.3391 52.5299 89.2114 51.5753 87.781 51.2287C86.3106 50.8724 84.6841 51.1984 83.0395 52.4151L84.229 54.0229ZM89.5082 54.7695C89.8719 55.2611 90.1444 55.8015 90.3205 56.3243L92.2158 55.6858C91.976 54.9738 91.6088 54.246 91.116 53.58L89.5082 54.7695ZM90.6734 55.2011L85.03 59.3763L86.2195 60.9841L91.8629 56.809L90.6734 55.2011ZM85.255 59.2098L87.7311 57.3779L86.5416 55.7701L84.0655 57.602L85.255 59.2098ZM88.0979 56.2994C88.0096 55.9902 87.8646 55.7425 87.7191 55.5458L86.1113 56.7353C86.1561 56.7959 86.1693 56.8293 86.1748 56.8486L88.0979 56.2994ZM87.7191 55.5458C87.0678 54.6655 85.7655 54.3043 84.6819 55.1059L85.8714 56.7137C85.9173 56.6798 85.9494 56.6689 85.9657 56.665C85.9824 56.6611 85.9956 56.6612 86.0077 56.6634C86.0344 56.6682 86.0762 56.688 86.1113 56.7353L87.7191 55.5458ZM84.6819 55.1059C83.7861 55.7687 83.1925 57.0761 83.7066 58.7065L85.614 58.1052C85.3521 57.2745 85.6739 56.8599 85.8714 56.7137L84.6819 55.1059Z" fill="#E3C906" mask="url(#path-16-outside-1_155_436)"/>
</svg>
