<svg width="185" height="152" viewBox="0 0 185 152" fill="none" xmlns="http://www.w3.org/2000/svg">
<path d="M109.064 151.3C150.817 151.3 184.664 117.453 184.664 75.7001C184.664 33.9474 150.817 0.100098 109.064 0.100098C67.3111 0.100098 33.4639 33.9474 33.4639 75.7001C33.4639 117.453 67.3111 151.3 109.064 151.3Z" fill="#F8D14F"/>
<path d="M171.264 63.3001L132.764 57.6L131.464 38.1C130.964 31.3 126.364 25.4 119.764 23.5C116.364 22.5 112.764 24.7001 112.164 28.3001L110.364 51.5C109.764 55.1 105.564 61.9 103.064 64.6L93.0637 74.9C79.8637 83.4 53.7637 100.2 40.7637 108.5C52.9637 133.9 78.9637 151.4 108.964 151.4C109.264 151.4 109.564 151.4 109.864 151.4L130.064 132.7C134.264 131.3 137.764 130.2 141.364 128.4L167.364 118.6L166.864 101L165.364 80.7001L171.264 63.3001Z" fill="#E28B74"/>
<path d="M130.063 132.6L102.363 112.5L111.263 150.4L130.063 132.6Z" fill="#C16452"/>
<path d="M132.964 60.2002C132.964 60.2002 133.464 95.4002 121.664 102.1C137.964 107.7 142.464 113.4 142.464 113.4L132.964 60.2002Z" fill="#C16452"/>
<path d="M157.463 111C141.563 97.7999 117.563 104.3 117.363 104.3L117.063 103.3C117.263 103.2 141.763 96.5999 158.063 110.2L157.463 111Z" fill="#263E65"/>
<path d="M93.6634 96.2002C87.9634 86.5002 92.4634 75.1002 92.6634 74.7002L93.5634 75.1002C93.5634 75.2002 89.0634 86.5002 94.5634 95.8002L93.6634 96.2002Z" fill="#263E65"/>
<path d="M135.264 60.2001C143.864 59.4001 161.564 58.4001 169.864 62.5001C171.064 63.1001 171.864 64.3001 172.164 65.6001C172.664 68.5001 172.264 71.2001 171.664 73.1001C171.164 74.9001 169.564 76.1001 167.764 76.1001L135.664 75.3001C132.564 75.2001 130.164 72.5001 130.264 69.3001L130.364 65.9001C130.364 62.9001 132.464 60.5001 135.264 60.2001Z" fill="#ED9583"/>
<path d="M132.764 78.7003L132.064 83.3003C131.564 86.5003 133.764 89.5003 136.764 89.7003L164.764 92.2003C167.364 92.4003 169.664 90.3003 169.764 87.6003L170.164 81.3003C170.364 78.5003 168.364 76.2003 165.764 76.0003L138.164 74.3003C135.564 74.0003 133.264 76.0003 132.764 78.7003Z" fill="#ED9583"/>
<path d="M135.664 87.3999L131.964 91.9999C131.064 93.0999 130.664 94.4999 130.664 95.9999L130.864 99.9999C131.064 103.1 133.364 105.5 136.264 105.5H164.764C167.464 105.5 169.664 103.2 169.664 100.3V94.4999C169.664 91.6999 167.564 89.3999 164.964 89.2999L135.664 87.3999Z" fill="#ED9583"/>
<path d="M135.363 102.6L133.863 103.7C132.263 104.8 131.263 106.7 131.163 108.8L131.063 112.3C130.963 115.9 133.563 118.8 136.963 118.9C146.063 119.2 160.163 119.1 166.963 118.8C170.163 118.6 169.763 111.1 168.563 106.9C167.963 104.7 165.963 103.2 163.863 103.1L135.363 102.6Z" fill="#ED9583"/>
<path d="M165.663 76.4C155.363 75.6 135.763 75.8001 135.563 75.8001V74.8001C135.763 74.8001 155.363 74.6 165.663 75.4V76.4Z" fill="#263E65"/>
<path d="M136.864 90.2001L136.764 89.2001C136.864 89.2001 151.764 87.6001 165.164 88.7001L165.064 89.7001C151.764 88.6001 136.964 90.2001 136.864 90.2001Z" fill="#263E65"/>
<path d="M163.763 104.7C153.663 103.1 137.263 104.2 137.163 104.2L137.063 103.2C137.263 103.2 153.763 102.2 163.963 103.7L163.763 104.7Z" fill="#263E65"/>
<path opacity="0.8" d="M133.764 63.6003L134.164 70.8003C134.164 70.8003 138.064 70.6003 137.864 66.8003C137.664 63.1003 133.764 63.6003 133.764 63.6003Z" fill="white"/>
<path opacity="0.8" d="M135.264 78.6999L135.664 85.8999C135.664 85.8999 139.564 85.6999 139.364 81.8999C139.164 78.1999 135.264 78.6999 135.264 78.6999Z" fill="white"/>
<path opacity="0.8" d="M134.164 93.6L134.564 100.8C134.564 100.8 138.464 100.6 138.264 96.8C138.064 93 134.164 93.6 134.164 93.6Z" fill="white"/>
<path opacity="0.8" d="M134.563 108L134.963 115.2C134.963 115.2 138.863 115 138.663 111.2C138.463 107.4 134.563 108 134.563 108Z" fill="white"/>
<mask id="path-18-outside-1_174_167" maskUnits="userSpaceOnUse" x="9.01944" y="8.6362" width="114.004" height="99.9908" fill="black">
<rect fill="white" x="9.01944" y="8.6362" width="114.004" height="99.9908"/>
<path d="M20.6726 85.4648L11.6435 74.6055L15.5022 71.7507L19.6437 77.0459L18.887 69.1967L22.1348 66.7939L26.5252 71.9548L25.5672 64.3044L29.5224 61.3782L31.1878 77.6854L27.9078 80.112L23.286 74.8737L23.9526 83.0382L20.6726 85.4648ZM30.8213 63.2783L29.7235 60.483L33.5019 57.6877L34.5996 60.4829L30.8213 63.2783ZM35.3199 74.504L31.1726 63.9886L34.8224 61.2884L38.9697 71.8038L35.3199 74.504ZM40.1238 70.9499L35.9765 60.4346L39.6262 57.7344L40.4684 59.848C40.4082 58.0515 40.8501 56.5304 42.3126 55.5479L44.1503 60.1841L43.7644 60.4695C42.0441 61.7423 41.8056 63.3368 42.7346 65.6349L43.7735 68.2498L40.1238 70.9499ZM48.8466 59.0233C49.4182 59.695 50.2134 59.8283 51.0334 59.2216C51.6283 58.7815 52.0126 58.124 52.2786 57.2057L55.3347 57.8057C54.9921 59.4275 54.1746 60.8782 52.6311 62.0201C49.9621 63.9947 47.1683 63.6484 45.4673 61.3492C43.4928 58.6802 43.5119 54.5363 46.8561 52.0621C49.7502 49.921 52.1661 51.1688 53.534 53.0178C53.9622 53.5966 54.2821 54.2308 54.4901 54.8481L48.8466 59.0233ZM47.8822 57.2489L50.3583 55.4171C50.3113 55.2528 50.2322 55.1123 50.1371 54.9836C49.7802 54.5013 49.0935 54.3128 48.4986 54.7529C47.9519 55.1574 47.4943 56.0184 47.8822 57.2489ZM57.4739 58.1139L54.6526 50.9713L53.6236 51.7325L52.2976 48.3598L53.3266 47.5985C52.2562 44.9075 52.8554 43.1953 54.9938 41.6133C55.8138 41.0066 56.5283 40.6273 57.4505 40.2933L58.5167 43.0124C58.1119 43.1377 57.6784 43.3589 57.389 43.573C56.7941 44.0131 56.6915 44.4125 56.9197 44.99L56.9513 45.0662L58.8002 43.6982L60.087 46.9507L58.3023 48.2711L61.1236 55.4137L57.4739 58.1139ZM63.613 53.572L59.4657 43.0567L63.1155 40.3565L63.9576 42.47C63.8974 40.6736 64.3394 39.1525 65.8018 38.17L67.6395 42.8061L67.2536 43.0916C65.5333 44.3644 65.2948 45.9589 66.2238 48.257L67.2627 50.8718L63.613 53.572ZM73.4167 46.6175C72.0661 47.6167 70.4151 47.4699 69.2969 45.9585C67.929 44.1096 68.4839 41.8331 70.9599 40.0013C71.6192 39.5136 72.3658 39.1105 73.1678 38.8157L73.1285 38.6955C73.0774 38.5591 72.9787 38.3585 72.8717 38.2138C72.4673 37.6671 71.8071 37.6828 70.8907 38.3608C70.0868 38.9556 69.2089 39.8538 68.7805 40.519L66.4663 38.3999C67.2008 37.4086 68.4688 36.1969 69.739 35.2572C72.6491 33.1042 74.8204 33.2144 76.117 34.9669C76.3906 35.3367 76.6516 35.7905 76.8602 36.3078L79.1425 42.0829L75.4928 44.7831L75.0797 43.7203C74.7796 44.9624 74.4296 45.8681 73.4167 46.6175ZM73.6508 43.235C74.2297 42.8068 74.4166 41.748 74.019 40.7733L73.8418 40.3322C73.5531 40.4463 73.3364 40.5569 73.0952 40.7353C72.1787 41.4133 71.9854 42.2281 72.5445 42.9837C72.8775 43.4339 73.3132 43.4848 73.6508 43.235ZM80.1308 41.3517L75.9835 30.8363L79.6333 28.1362L80.1212 29.3674C80.2123 28.28 80.6845 27.035 81.7778 26.2262C82.9837 25.334 84.1753 25.3978 85.1154 25.996C85.3098 24.4092 86.0225 23.0859 87.2605 22.17C89.0291 20.8615 90.6705 21.2642 91.86 22.8721C92.193 23.3223 92.5052 23.9123 92.753 24.5499L95.0353 30.325L91.3855 33.0252L89.3238 27.7836C89.2216 27.5109 89.0634 27.2299 88.9326 27.053C88.5876 26.5867 88.1526 26.4359 87.622 26.8284C86.9628 27.3161 86.8897 28.0917 87.3462 29.2467L89.4079 34.4883L85.7582 37.1884L83.6964 31.9468C83.5942 31.6742 83.436 31.3931 83.3052 31.2163C82.9602 30.75 82.5252 30.5991 81.9946 30.9917C81.3354 31.4794 81.2624 32.2549 81.7188 33.4099L83.7806 38.6515L80.1308 41.3517ZM97.5522 22.9897C98.1238 23.6614 98.919 23.7946 99.739 23.188C100.334 22.7479 100.718 22.0904 100.984 21.1721L104.04 21.7721C103.698 23.3939 102.88 24.8446 101.337 25.9865C98.6677 27.9611 95.8739 27.6148 94.1729 25.3156C92.1983 22.6466 92.2175 18.5027 95.5617 16.0285C98.4558 13.8874 100.872 15.1352 102.24 16.9842C102.668 17.563 102.988 18.1971 103.196 18.8145L97.5522 22.9897ZM96.5878 21.2153L99.0638 19.3835C99.0169 19.2192 98.9378 19.0786 98.8427 18.95C98.4858 18.4677 97.799 18.2792 97.2041 18.7193C96.6575 19.1237 96.1998 19.9847 96.5878 21.2153ZM39.6906 98.6367L34.3868 85.1457L43.9854 78.0444L45.4332 81.7499L39.5325 86.1154L40.0716 87.4829L45.5703 83.4148L46.8571 86.6673L41.3583 90.7354L41.9247 92.2072L47.9058 87.7822L49.3697 91.4759L39.6906 98.6367ZM49.8818 91.097L50.6553 83.5339L45.7827 80.546L49.4968 77.7982L51.3918 79.1826L51.5387 76.2875L55.51 73.3494L54.7372 80.8126L59.6895 83.841L55.9754 86.5888L54.0007 85.1638L53.8531 88.1589L49.8818 91.097ZM61.2974 86.632L55.9382 73.0327L59.588 70.3325L60.0129 71.4113C60.1642 70.3042 60.7678 69.1362 61.7004 68.4463C63.2599 67.2924 65.5062 67.5711 67.112 69.7417C69.4791 72.9413 69.3404 77.0244 66.7679 78.9276C65.5138 79.8555 64.2775 79.8994 63.2081 79.4964L64.9471 83.9318L61.2974 86.632ZM63.8158 76.4843C64.8127 75.7468 64.8344 74.2629 64.0731 73.2339C63.514 72.4782 62.6468 72.3485 61.9716 72.8481C60.9747 73.5856 60.953 75.0695 61.7143 76.0985C62.2734 76.8542 63.1405 76.9839 63.8158 76.4843ZM70.9045 75.5439L65.3724 61.4754L69.0222 58.7752L74.5542 72.8437L70.9045 75.5439ZM81.1527 68.2854C78.3873 70.3313 75.4311 69.732 73.742 67.4489C71.7556 64.7638 72.1621 60.7064 75.217 58.4463C77.9824 56.4004 80.9386 56.9997 82.6277 59.2828C84.6141 61.9679 84.2076 66.0253 81.1527 68.2854ZM79.1772 65.1444C80.0937 64.4664 80.0791 63.0342 79.3059 61.9892C78.7587 61.2496 77.8999 61.0639 77.1925 61.5873C76.276 62.2653 76.2906 63.6975 77.0638 64.7426C77.611 65.4821 78.4698 65.6678 79.1772 65.1444ZM85.9299 64.4277L81.7827 53.9123L85.4324 51.2121L86.2746 53.3257C86.2143 51.5292 86.6563 50.0081 88.1188 49.0256L89.9565 53.6618L89.5706 53.9473C87.8502 55.22 87.6118 56.8145 88.5408 59.1126L89.5797 61.7275L85.9299 64.4277ZM94.6528 52.501C95.2244 53.1728 96.0196 53.306 96.8395 52.6993C97.4344 52.2592 97.8187 51.6017 98.0848 50.6834L101.141 51.2834C100.798 52.9052 99.9808 54.3559 98.4373 55.4978C95.7683 57.4724 92.9745 57.1261 91.2735 54.8269C89.2989 52.158 89.318 48.014 92.6623 45.5398C95.5564 43.3987 97.9723 44.6466 99.3402 46.4956C99.7684 47.0744 100.088 47.7085 100.296 48.3258L94.6528 52.501ZM93.6884 50.7267L96.1644 48.8948C96.1175 48.7305 96.0384 48.59 95.9432 48.4614C95.5864 47.979 94.8996 47.7905 94.3047 48.2306C93.7581 48.6351 93.3004 49.4961 93.6884 50.7267ZM102.683 52.0331L98.536 41.5177L102.186 38.8176L103.028 40.9311C102.968 39.1347 103.41 37.6136 104.872 36.6311L106.71 41.2672L106.324 41.5527C104.604 42.8255 104.365 44.42 105.294 46.7181L106.333 49.3329L102.683 52.0331Z"/>
</mask>
<path d="M20.6726 85.4648L11.6435 74.6055L15.5022 71.7507L19.6437 77.0459L18.887 69.1967L22.1348 66.7939L26.5252 71.9548L25.5672 64.3044L29.5224 61.3782L31.1878 77.6854L27.9078 80.112L23.286 74.8737L23.9526 83.0382L20.6726 85.4648ZM30.8213 63.2783L29.7235 60.483L33.5019 57.6877L34.5996 60.4829L30.8213 63.2783ZM35.3199 74.504L31.1726 63.9886L34.8224 61.2884L38.9697 71.8038L35.3199 74.504ZM40.1238 70.9499L35.9765 60.4346L39.6262 57.7344L40.4684 59.848C40.4082 58.0515 40.8501 56.5304 42.3126 55.5479L44.1503 60.1841L43.7644 60.4695C42.0441 61.7423 41.8056 63.3368 42.7346 65.6349L43.7735 68.2498L40.1238 70.9499ZM48.8466 59.0233C49.4182 59.695 50.2134 59.8283 51.0334 59.2216C51.6283 58.7815 52.0126 58.124 52.2786 57.2057L55.3347 57.8057C54.9921 59.4275 54.1746 60.8782 52.6311 62.0201C49.9621 63.9947 47.1683 63.6484 45.4673 61.3492C43.4928 58.6802 43.5119 54.5363 46.8561 52.0621C49.7502 49.921 52.1661 51.1688 53.534 53.0178C53.9622 53.5966 54.2821 54.2308 54.4901 54.8481L48.8466 59.0233ZM47.8822 57.2489L50.3583 55.4171C50.3113 55.2528 50.2322 55.1123 50.1371 54.9836C49.7802 54.5013 49.0935 54.3128 48.4986 54.7529C47.9519 55.1574 47.4943 56.0184 47.8822 57.2489ZM57.4739 58.1139L54.6526 50.9713L53.6236 51.7325L52.2976 48.3598L53.3266 47.5985C52.2562 44.9075 52.8554 43.1953 54.9938 41.6133C55.8138 41.0066 56.5283 40.6273 57.4505 40.2933L58.5167 43.0124C58.1119 43.1377 57.6784 43.3589 57.389 43.573C56.7941 44.0131 56.6915 44.4125 56.9197 44.99L56.9513 45.0662L58.8002 43.6982L60.087 46.9507L58.3023 48.2711L61.1236 55.4137L57.4739 58.1139ZM63.613 53.572L59.4657 43.0567L63.1155 40.3565L63.9576 42.47C63.8974 40.6736 64.3394 39.1525 65.8018 38.17L67.6395 42.8061L67.2536 43.0916C65.5333 44.3644 65.2948 45.9589 66.2238 48.257L67.2627 50.8718L63.613 53.572ZM73.4167 46.6175C72.0661 47.6167 70.4151 47.4699 69.2969 45.9585C67.929 44.1096 68.4839 41.8331 70.9599 40.0013C71.6192 39.5136 72.3658 39.1105 73.1678 38.8157L73.1285 38.6955C73.0774 38.5591 72.9787 38.3585 72.8717 38.2138C72.4673 37.6671 71.8071 37.6828 70.8907 38.3608C70.0868 38.9556 69.2089 39.8538 68.7805 40.519L66.4663 38.3999C67.2008 37.4086 68.4688 36.1969 69.739 35.2572C72.6491 33.1042 74.8204 33.2144 76.117 34.9669C76.3906 35.3367 76.6516 35.7905 76.8602 36.3078L79.1425 42.0829L75.4928 44.7831L75.0797 43.7203C74.7796 44.9624 74.4296 45.8681 73.4167 46.6175ZM73.6508 43.235C74.2297 42.8068 74.4166 41.748 74.019 40.7733L73.8418 40.3322C73.5531 40.4463 73.3364 40.5569 73.0952 40.7353C72.1787 41.4133 71.9854 42.2281 72.5445 42.9837C72.8775 43.4339 73.3132 43.4848 73.6508 43.235ZM80.1308 41.3517L75.9835 30.8363L79.6333 28.1362L80.1212 29.3674C80.2123 28.28 80.6845 27.035 81.7778 26.2262C82.9837 25.334 84.1753 25.3978 85.1154 25.996C85.3098 24.4092 86.0225 23.0859 87.2605 22.17C89.0291 20.8615 90.6705 21.2642 91.86 22.8721C92.193 23.3223 92.5052 23.9123 92.753 24.5499L95.0353 30.325L91.3855 33.0252L89.3238 27.7836C89.2216 27.5109 89.0634 27.2299 88.9326 27.053C88.5876 26.5867 88.1526 26.4359 87.622 26.8284C86.9628 27.3161 86.8897 28.0917 87.3462 29.2467L89.4079 34.4883L85.7582 37.1884L83.6964 31.9468C83.5942 31.6742 83.436 31.3931 83.3052 31.2163C82.9602 30.75 82.5252 30.5991 81.9946 30.9917C81.3354 31.4794 81.2624 32.2549 81.7188 33.4099L83.7806 38.6515L80.1308 41.3517ZM97.5522 22.9897C98.1238 23.6614 98.919 23.7946 99.739 23.188C100.334 22.7479 100.718 22.0904 100.984 21.1721L104.04 21.7721C103.698 23.3939 102.88 24.8446 101.337 25.9865C98.6677 27.9611 95.8739 27.6148 94.1729 25.3156C92.1983 22.6466 92.2175 18.5027 95.5617 16.0285C98.4558 13.8874 100.872 15.1352 102.24 16.9842C102.668 17.563 102.988 18.1971 103.196 18.8145L97.5522 22.9897ZM96.5878 21.2153L99.0638 19.3835C99.0169 19.2192 98.9378 19.0786 98.8427 18.95C98.4858 18.4677 97.799 18.2792 97.2041 18.7193C96.6575 19.1237 96.1998 19.9847 96.5878 21.2153ZM39.6906 98.6367L34.3868 85.1457L43.9854 78.0444L45.4332 81.7499L39.5325 86.1154L40.0716 87.4829L45.5703 83.4148L46.8571 86.6673L41.3583 90.7354L41.9247 92.2072L47.9058 87.7822L49.3697 91.4759L39.6906 98.6367ZM49.8818 91.097L50.6553 83.5339L45.7827 80.546L49.4968 77.7982L51.3918 79.1826L51.5387 76.2875L55.51 73.3494L54.7372 80.8126L59.6895 83.841L55.9754 86.5888L54.0007 85.1638L53.8531 88.1589L49.8818 91.097ZM61.2974 86.632L55.9382 73.0327L59.588 70.3325L60.0129 71.4113C60.1642 70.3042 60.7678 69.1362 61.7004 68.4463C63.2599 67.2924 65.5062 67.5711 67.112 69.7417C69.4791 72.9413 69.3404 77.0244 66.7679 78.9276C65.5138 79.8555 64.2775 79.8994 63.2081 79.4964L64.9471 83.9318L61.2974 86.632ZM63.8158 76.4843C64.8127 75.7468 64.8344 74.2629 64.0731 73.2339C63.514 72.4782 62.6468 72.3485 61.9716 72.8481C60.9747 73.5856 60.953 75.0695 61.7143 76.0985C62.2734 76.8542 63.1405 76.9839 63.8158 76.4843ZM70.9045 75.5439L65.3724 61.4754L69.0222 58.7752L74.5542 72.8437L70.9045 75.5439ZM81.1527 68.2854C78.3873 70.3313 75.4311 69.732 73.742 67.4489C71.7556 64.7638 72.1621 60.7064 75.217 58.4463C77.9824 56.4004 80.9386 56.9997 82.6277 59.2828C84.6141 61.9679 84.2076 66.0253 81.1527 68.2854ZM79.1772 65.1444C80.0937 64.4664 80.0791 63.0342 79.3059 61.9892C78.7587 61.2496 77.8999 61.0639 77.1925 61.5873C76.276 62.2653 76.2906 63.6975 77.0638 64.7426C77.611 65.4821 78.4698 65.6678 79.1772 65.1444ZM85.9299 64.4277L81.7827 53.9123L85.4324 51.2121L86.2746 53.3257C86.2143 51.5292 86.6563 50.0081 88.1188 49.0256L89.9565 53.6618L89.5706 53.9473C87.8502 55.22 87.6118 56.8145 88.5408 59.1126L89.5797 61.7275L85.9299 64.4277ZM94.6528 52.501C95.2244 53.1728 96.0196 53.306 96.8395 52.6993C97.4344 52.2592 97.8187 51.6017 98.0848 50.6834L101.141 51.2834C100.798 52.9052 99.9808 54.3559 98.4373 55.4978C95.7683 57.4724 92.9745 57.1261 91.2735 54.8269C89.2989 52.158 89.318 48.014 92.6623 45.5398C95.5564 43.3987 97.9723 44.6466 99.3402 46.4956C99.7684 47.0744 100.088 47.7085 100.296 48.3258L94.6528 52.501ZM93.6884 50.7267L96.1644 48.8948C96.1175 48.7305 96.0384 48.59 95.9432 48.4614C95.5864 47.979 94.8996 47.7905 94.3047 48.2306C93.7581 48.6351 93.3004 49.4961 93.6884 50.7267ZM102.683 52.0331L98.536 41.5177L102.186 38.8176L103.028 40.9311C102.968 39.1347 103.41 37.6136 104.872 36.6311L106.71 41.2672L106.324 41.5527C104.604 42.8255 104.365 44.42 105.294 46.7181L106.333 49.3329L102.683 52.0331Z" fill="#263E65"/>
<path d="M20.6726 85.4648L19.9037 86.1041L20.5078 86.8307L21.2674 86.2687L20.6726 85.4648ZM11.6435 74.6055L11.0487 73.8016L10.1979 74.431L10.8746 75.2448L11.6435 74.6055ZM15.5022 71.7507L16.2899 71.1346L15.6902 70.3677L14.9075 70.9467L15.5022 71.7507ZM19.6437 77.0459L18.856 77.6619L20.968 80.3624L20.6391 76.9499L19.6437 77.0459ZM18.887 69.1967L18.2923 68.3928L17.8373 68.7294L17.8916 69.2927L18.887 69.1967ZM22.1348 66.7939L22.8965 66.146L22.2911 65.4344L21.5401 65.99L22.1348 66.7939ZM26.5252 71.9548L25.7635 72.6027L27.9335 75.1536L27.5174 71.8305L26.5252 71.9548ZM25.5672 64.3044L24.9724 63.5004L24.5023 63.8483L24.5749 64.4286L25.5672 64.3044ZM29.5224 61.3782L30.5172 61.2766L30.3389 59.5302L28.9277 60.5743L29.5224 61.3782ZM31.1878 77.6854L31.7825 78.4893L32.2405 78.1505L32.1826 77.5838L31.1878 77.6854ZM27.9078 80.112L27.1579 80.7736L27.765 81.4616L28.5026 80.9159L27.9078 80.112ZM23.286 74.8737L24.0358 74.2121L22.0444 71.9549L22.2893 74.955L23.286 74.8737ZM23.9526 83.0382L24.5473 83.8421L24.9945 83.5113L24.9493 82.9568L23.9526 83.0382ZM21.4415 84.8254L12.4124 73.9661L10.8746 75.2448L19.9037 86.1041L21.4415 84.8254ZM12.2382 75.4094L16.097 72.5546L14.9075 70.9467L11.0487 73.8016L12.2382 75.4094ZM14.7146 72.3667L18.856 77.6619L20.4314 76.4298L16.2899 71.1346L14.7146 72.3667ZM20.6391 76.9499L19.8824 69.1008L17.8916 69.2927L18.6483 77.1418L20.6391 76.9499ZM19.4818 70.0007L22.7296 67.5979L21.5401 65.99L18.2923 68.3928L19.4818 70.0007ZM21.3732 67.4419L25.7635 72.6027L27.2868 71.3068L22.8965 66.146L21.3732 67.4419ZM27.5174 71.8305L26.5594 64.1801L24.5749 64.4286L25.5329 72.079L27.5174 71.8305ZM26.1619 65.1083L30.1172 62.1821L28.9277 60.5743L24.9724 63.5004L26.1619 65.1083ZM28.5276 61.4798L30.1929 77.787L32.1826 77.5838L30.5172 61.2766L28.5276 61.4798ZM30.593 76.8815L27.3131 79.3081L28.5026 80.9159L31.7825 78.4893L30.593 76.8815ZM28.6577 79.4504L24.0358 74.2121L22.5361 75.5353L27.1579 80.7736L28.6577 79.4504ZM22.2893 74.955L22.9559 83.1196L24.9493 82.9568L24.2827 74.7923L22.2893 74.955ZM23.3578 82.2343L20.0779 84.6609L21.2674 86.2687L24.5473 83.8421L23.3578 82.2343ZM30.8213 63.2783L29.8905 63.6438L30.3673 64.858L31.416 64.0822L30.8213 63.2783ZM29.7235 60.483L29.1288 59.6791L28.5125 60.135L28.7927 60.8486L29.7235 60.483ZM33.5019 57.6877L34.4327 57.3222L33.9559 56.1079L32.9072 56.8838L33.5019 57.6877ZM34.5996 60.4829L35.1944 61.2868L35.8107 60.8309L35.5304 60.1174L34.5996 60.4829ZM35.3199 74.504L34.3896 74.8708L34.8675 76.0825L35.9147 75.3079L35.3199 74.504ZM31.1726 63.9886L30.5779 63.1847L29.9607 63.6413L30.2424 64.3555L31.1726 63.9886ZM34.8224 61.2884L35.7526 60.9215L35.2747 59.7098L34.2276 60.4845L34.8224 61.2884ZM38.9697 71.8038L39.5644 72.6077L40.1816 72.1511L39.8999 71.4369L38.9697 71.8038ZM31.7521 62.9127L30.6543 60.1175L28.7927 60.8486L29.8905 63.6438L31.7521 62.9127ZM30.3183 61.2869L34.0967 58.4916L32.9072 56.8838L29.1288 59.6791L30.3183 61.2869ZM32.5711 58.0532L33.6688 60.8485L35.5304 60.1174L34.4327 57.3222L32.5711 58.0532ZM34.0049 59.679L30.2265 62.4744L31.416 64.0822L35.1944 61.2868L34.0049 59.679ZM36.2502 74.1371L32.1029 63.6217L30.2424 64.3555L34.3896 74.8708L36.2502 74.1371ZM31.7674 64.7925L35.4171 62.0923L34.2276 60.4845L30.5779 63.1847L31.7674 64.7925ZM33.8921 61.6553L38.0394 72.1707L39.8999 71.4369L35.7526 60.9215L33.8921 61.6553ZM38.3749 70.9999L34.7252 73.7L35.9147 75.3079L39.5644 72.6077L38.3749 70.9999ZM40.1238 70.9499L39.1935 71.3168L39.6714 72.5285L40.7185 71.7538L40.1238 70.9499ZM35.9765 60.4346L35.3817 59.6307L34.7645 60.0873L35.0462 60.8015L35.9765 60.4346ZM39.6262 57.7344L40.5552 57.3642L40.0748 56.1586L39.0315 56.9305L39.6262 57.7344ZM40.4684 59.848L39.5395 60.2181L41.4679 59.8144L40.4684 59.848ZM42.3126 55.5479L43.2422 55.1794L42.785 54.0259L41.755 54.7178L42.3126 55.5479ZM44.1503 60.1841L44.7451 60.988L45.3633 60.5305L45.0799 59.8156L44.1503 60.1841ZM42.7346 65.6349L43.664 65.2657L43.6617 65.2601L42.7346 65.6349ZM43.7735 68.2498L44.3683 69.0537L44.9871 68.5959L44.7028 67.8805L43.7735 68.2498ZM41.054 70.583L36.9067 60.0677L35.0462 60.8015L39.1935 71.3168L41.054 70.583ZM36.5712 61.2385L40.221 58.5383L39.0315 56.9305L35.3817 59.6307L36.5712 61.2385ZM38.6973 58.1046L39.5395 60.2181L41.3974 59.4778L40.5552 57.3642L38.6973 58.1046ZM41.4679 59.8144C41.4137 58.1994 41.8077 57.0918 42.8702 56.378L41.755 54.7178C39.8926 55.969 39.4027 57.9037 39.469 59.8815L41.4679 59.8144ZM41.383 55.9164L43.2207 60.5525L45.0799 59.8156L43.2422 55.1794L41.383 55.9164ZM43.5556 59.3801L43.1697 59.6656L44.3592 61.2734L44.7451 60.988L43.5556 59.3801ZM43.1697 59.6656C42.1566 60.4151 41.4886 61.3352 41.2732 62.4833C41.0647 63.5944 41.3086 64.7755 41.8075 66.0097L43.6617 65.2601C43.2316 64.1962 43.1303 63.4309 43.2389 62.8521C43.3405 62.3102 43.6519 61.7967 44.3592 61.2734L43.1697 59.6656ZM41.8053 66.0041L42.8442 68.619L44.7028 67.8805L43.6639 65.2657L41.8053 66.0041ZM43.1788 67.4459L39.529 70.146L40.7185 71.7538L44.3683 69.0537L43.1788 67.4459ZM48.8466 59.0233L48.2519 58.2194L47.3913 58.8561L48.085 59.6713L48.8466 59.0233ZM52.2786 57.2057L52.4712 56.2244L51.5728 56.0481L51.3181 56.9275L52.2786 57.2057ZM55.3347 57.8057L56.3131 58.0124L56.5228 57.0199L55.5274 56.8245L55.3347 57.8057ZM54.4901 54.8481L55.0848 55.652L55.6702 55.219L55.4377 54.5289L54.4901 54.8481ZM47.8822 57.2489L46.9285 57.5496L47.35 58.8866L48.477 58.0528L47.8822 57.2489ZM50.3583 55.4171L50.953 56.221L51.5101 55.8088L51.3198 55.1425L50.3583 55.4171ZM48.085 59.6713C48.4987 60.1575 49.0587 60.5204 49.7364 60.5957C50.4146 60.6711 51.0647 60.4424 51.6281 60.0255L50.4386 58.4177C50.1821 58.6075 50.0245 58.6154 49.9574 58.608C49.8895 58.6004 49.7661 58.5608 49.6082 58.3752L48.085 59.6713ZM51.6281 60.0255C52.4616 59.4089 52.9379 58.5238 53.2391 57.484L51.3181 56.9275C51.0873 57.7242 50.795 58.154 50.4386 58.4177L51.6281 60.0255ZM52.0859 58.187L55.1421 58.787L55.5274 56.8245L52.4712 56.2244L52.0859 58.187ZM54.3563 57.599C54.0598 59.0027 53.3665 60.2321 52.0363 61.2162L53.2258 62.824C54.9827 61.5243 55.9244 59.8523 56.3131 58.0124L54.3563 57.599ZM52.0363 61.2162C50.8565 62.0891 49.7336 62.3891 48.7878 62.2925C47.8536 62.1971 46.9735 61.7037 46.2712 60.7545L44.6634 61.944C45.6621 63.2939 47.0294 64.1233 48.5846 64.2822C50.1283 64.4398 51.7367 63.9257 53.2258 62.824L52.0363 61.2162ZM46.2712 60.7545C44.5747 58.4613 44.6158 54.9635 47.4509 52.866L46.2614 51.2582C42.4079 54.1091 42.4108 58.8992 44.6634 61.944L46.2712 60.7545ZM47.4509 52.866C48.7003 51.9417 49.7288 51.821 50.5319 52.0156C51.3749 52.2198 52.1391 52.8137 52.7301 53.6126L54.3379 52.4231C53.561 51.373 52.4333 50.4184 51.0029 50.0718C49.5325 49.7155 47.906 50.0414 46.2614 51.2582L47.4509 52.866ZM52.7301 53.6126C53.0938 54.1042 53.3663 54.6446 53.5424 55.1674L55.4377 54.5289C55.1979 53.8169 54.8307 53.0891 54.3379 52.4231L52.7301 53.6126ZM53.8953 54.0442L48.2519 58.2194L49.4414 59.8272L55.0848 55.652L53.8953 54.0442ZM48.477 58.0528L50.953 56.221L49.7635 54.6132L47.2875 56.445L48.477 58.0528ZM51.3198 55.1425C51.2315 54.8332 51.0865 54.5856 50.941 54.3889L49.3332 55.5784C49.378 55.639 49.3912 55.6723 49.3967 55.6917L51.3198 55.1425ZM50.941 54.3889C50.2897 53.5086 48.9874 53.1474 47.9038 53.949L49.0933 55.5568C49.1392 55.5229 49.1713 55.512 49.1876 55.5081C49.2043 55.5041 49.2175 55.5043 49.2297 55.5065C49.2563 55.5113 49.2981 55.531 49.3332 55.5784L50.941 54.3889ZM47.9038 53.949C47.008 54.6118 46.4145 55.9192 46.9285 57.5496L48.8359 56.9483C48.5741 56.1176 48.8958 55.703 49.0933 55.5568L47.9038 53.949ZM57.4739 58.1139L56.5438 58.4813L57.0221 59.6921L58.0686 58.9178L57.4739 58.1139ZM54.6526 50.9713L55.5826 50.6039L55.1044 49.3931L54.0578 50.1674L54.6526 50.9713ZM53.6236 51.7325L52.6929 52.0984L53.17 53.312L54.2183 52.5365L53.6236 51.7325ZM52.2976 48.3598L51.7028 47.5559L51.0864 48.012L51.3669 48.7257L52.2976 48.3598ZM53.3266 47.5985L53.9214 48.4024L54.5404 47.9444L54.2558 47.2289L53.3266 47.5985ZM57.4505 40.2933L58.3815 39.9283L58.0259 39.0214L57.11 39.3531L57.4505 40.2933ZM58.5167 43.0124L58.8125 43.9676L59.8406 43.6493L59.4477 42.6473L58.5167 43.0124ZM56.9197 44.99L55.9897 45.3575L55.9926 45.3648L55.9956 45.372L56.9197 44.99ZM56.9513 45.0662L56.0271 45.4482L56.5164 46.6318L57.546 45.8701L56.9513 45.0662ZM58.8002 43.6983L59.7301 43.3304L59.2515 42.1205L58.2055 42.8943L58.8002 43.6983ZM60.087 46.9507L60.6817 47.7546L61.2996 47.2975L61.0169 46.5829L60.087 46.9507ZM58.3023 48.2711L57.7076 47.4672L57.09 47.924L57.3722 48.6385L58.3023 48.2711ZM61.1236 55.4137L61.7184 56.2176L62.3359 55.7608L62.0537 55.0463L61.1236 55.4137ZM58.404 57.7465L55.5826 50.6039L53.7225 51.3386L56.5438 58.4813L58.404 57.7465ZM54.0578 50.1674L53.0288 50.9286L54.2183 52.5365L55.2473 51.7752L54.0578 50.1674ZM54.5542 51.3667L53.2283 47.9939L51.3669 48.7257L52.6929 52.0984L54.5542 51.3667ZM52.8924 49.1637L53.9214 48.4024L52.7319 46.7946L51.7028 47.5559L52.8924 49.1637ZM54.2558 47.2289C53.7683 46.0034 53.7184 45.1442 53.9162 44.4725C54.1147 43.7981 54.6141 43.1382 55.5886 42.4172L54.399 40.8094C53.2352 41.6705 52.3657 42.6576 51.9976 43.9076C51.6288 45.1602 51.8145 46.5026 52.3974 47.9681L54.2558 47.2289ZM55.5886 42.4172C56.3305 41.8683 56.9593 41.5348 57.791 41.2336L57.11 39.3531C56.0973 39.7199 55.2971 40.145 54.399 40.8094L55.5886 42.4172ZM56.5195 40.6584L57.5857 43.3774L59.4477 42.6473L58.3815 39.9283L56.5195 40.6584ZM58.2209 42.0571C57.7143 42.214 57.1788 42.4846 56.7943 42.7691L57.9838 44.3769C58.1781 44.2332 58.5095 44.0615 58.8125 43.9676L58.2209 42.0571ZM56.7943 42.7691C56.4172 43.0481 56.0538 43.4153 55.8919 43.9296C55.7251 44.4594 55.8306 44.9549 55.9897 45.3575L57.8498 44.6224C57.8154 44.5355 57.8088 44.4929 57.8077 44.4824C57.8072 44.4783 57.8092 44.4996 57.7996 44.5303C57.7806 44.5905 57.766 44.538 57.9838 44.3769L56.7943 42.7691ZM55.9956 45.372L56.0271 45.4482L57.8754 44.6842L57.8439 44.6079L55.9956 45.372ZM57.546 45.8701L59.395 44.5022L58.2055 42.8943L56.3565 44.2623L57.546 45.8701ZM57.8704 44.0661L59.1571 47.3186L61.0169 46.5829L59.7301 43.3304L57.8704 44.0661ZM59.4922 46.1468L57.7076 47.4672L58.8971 49.075L60.6817 47.7546L59.4922 46.1468ZM57.3722 48.6385L60.1936 55.7811L62.0537 55.0463L59.2324 47.9037L57.3722 48.6385ZM60.5289 54.6098L56.8791 57.31L58.0686 58.9178L61.7184 56.2176L60.5289 54.6098ZM63.613 53.572L62.6827 53.9389L63.1606 55.1506L64.2077 54.3759L63.613 53.572ZM59.4657 43.0566L58.871 42.2527L58.2538 42.7094L58.5354 43.4235L59.4657 43.0566ZM63.1155 40.3565L64.0444 39.9863L63.564 38.7807L62.5207 39.5526L63.1155 40.3565ZM63.9576 42.47L63.0287 42.8402L64.9571 42.4365L63.9576 42.47ZM65.8018 38.17L66.7315 37.8015L66.2742 36.648L65.2442 37.3399L65.8018 38.17ZM67.6395 42.8061L68.2343 43.61L68.8526 43.1526L68.5692 42.4376L67.6395 42.8061ZM66.2238 48.257L67.1532 47.8877L67.1509 47.8822L66.2238 48.257ZM67.2627 50.8718L67.8575 51.6757L68.4763 51.2179L68.1921 50.5026L67.2627 50.8718ZM64.5432 53.2051L60.396 42.6898L58.5354 43.4235L62.6827 53.9389L64.5432 53.2051ZM60.0605 43.8606L63.7102 41.1604L62.5207 39.5526L58.871 42.2527L60.0605 43.8606ZM62.1865 40.7266L63.0287 42.8402L64.8866 42.0999L64.0444 39.9863L62.1865 40.7266ZM64.9571 42.4365C64.9029 40.8215 65.2969 39.7139 66.3595 39.0001L65.2442 37.3399C63.3818 38.591 62.8919 40.5257 62.9582 42.5035L64.9571 42.4365ZM64.8722 38.5385L66.7099 43.1746L68.5692 42.4376L66.7315 37.8015L64.8722 38.5385ZM67.0448 42.0022L66.6589 42.2877L67.8484 43.8955L68.2343 43.61L67.0448 42.0022ZM66.6589 42.2877C65.6458 43.0372 64.9778 43.9573 64.7624 45.1054C64.5539 46.2165 64.7978 47.3975 65.2967 48.6318L67.1509 47.8822C66.7209 46.8183 66.6195 46.053 66.7281 45.4742C66.8297 44.9323 67.1411 44.4188 67.8484 43.8955L66.6589 42.2877ZM65.2945 48.6262L66.3334 51.2411L68.1921 50.5026L67.1532 47.8877L65.2945 48.6262ZM66.668 50.0679L63.0182 52.7681L64.2077 54.3759L67.8575 51.6757L66.668 50.0679ZM73.1678 38.8157L73.5127 39.7543L74.4172 39.4219L74.1185 38.5057L73.1678 38.8157ZM73.1285 38.6955L74.0793 38.3854L74.0725 38.3648L74.0649 38.3444L73.1285 38.6955ZM68.7805 40.519L68.1052 41.2565L68.9794 42.0572L69.6213 41.0605L68.7805 40.519ZM66.4663 38.3999L65.6629 37.8045L65.1263 38.5287L65.791 39.1374L66.4663 38.3999ZM76.8602 36.3078L77.7903 35.9403L77.7877 35.9339L76.8602 36.3078ZM79.1425 42.0829L79.7373 42.8868L80.3549 42.4299L80.0725 41.7154L79.1425 42.0829ZM75.4928 44.7831L74.5607 45.1453L75.035 46.3656L76.0875 45.587L75.4928 44.7831ZM75.0797 43.7203L76.0118 43.3581L74.8566 40.386L74.1077 43.4855L75.0797 43.7203ZM74.019 40.7733L73.0909 41.1459L73.0931 41.1511L74.019 40.7733ZM73.8418 40.3322L74.7698 39.9596L74.3993 39.0366L73.4743 39.4022L73.8418 40.3322ZM72.822 45.8136C72.3233 46.1825 71.831 46.2982 71.4079 46.2391C70.9909 46.1809 70.5247 45.9367 70.1008 45.3638L68.493 46.5533C69.1873 47.4917 70.1057 48.0767 71.1314 48.2199C72.151 48.3622 73.1596 48.0517 74.0115 47.4214L72.822 45.8136ZM70.1008 45.3638C69.5869 44.6691 69.4596 43.95 69.6525 43.2336C69.854 42.4856 70.4373 41.6319 71.5547 40.8052L70.3652 39.1974C69.0066 40.2025 68.0744 41.403 67.7214 42.7134C67.3599 44.0554 67.639 45.399 68.493 46.5533L70.1008 45.3638ZM71.5547 40.8052C72.1362 40.375 72.7985 40.0169 73.5127 39.7543L72.8228 37.8771C71.9331 38.2041 71.1021 38.6522 70.3652 39.1974L71.5547 40.8052ZM74.1185 38.5057L74.0793 38.3854L72.1778 39.0055L72.217 39.1257L74.1185 38.5057ZM74.0649 38.3444C73.9899 38.1445 73.851 37.8561 73.6756 37.619L72.0678 38.8085C72.0812 38.8266 72.1057 38.8651 72.1343 38.9198C72.1621 38.9733 72.1824 39.0204 72.1922 39.0465L74.0649 38.3444ZM73.6756 37.619C73.2875 37.0944 72.7054 36.7872 72.0117 36.8299C71.4012 36.8675 70.8194 37.1696 70.2959 37.5569L71.4854 39.1647C71.8784 38.874 72.0849 38.8292 72.1347 38.8261C72.1445 38.8255 72.1192 38.8277 72.0826 38.8098C72.0485 38.7933 72.0464 38.7797 72.0678 38.8085L73.6756 37.619ZM70.2959 37.5569C69.4191 38.2056 68.4482 39.1881 67.9398 39.9776L69.6213 41.0605C69.9696 40.5196 70.7544 39.7056 71.4854 39.1647L70.2959 37.5569ZM69.4559 39.7816L67.1417 37.6624L65.791 39.1374L68.1052 41.2565L69.4559 39.7816ZM67.2698 38.9952C67.9301 38.1042 69.1192 36.9596 70.3337 36.0611L69.1442 34.4533C67.8183 35.4342 66.4716 36.7131 65.6629 37.8045L67.2698 38.9952ZM70.3337 36.0611C71.7063 35.0456 72.7767 34.6636 73.5541 34.6473C74.2675 34.6323 74.8387 34.9204 75.3131 35.5617L76.9209 34.3722C76.0988 33.2609 74.936 32.6177 73.512 32.6477C72.1521 32.6764 70.6817 33.3158 69.1442 34.4533L70.3337 36.0611ZM75.3131 35.5617C75.5364 35.8635 75.7559 36.243 75.9328 36.6818L77.7877 35.9339C77.5474 35.3379 77.2448 34.81 76.9209 34.3722L75.3131 35.5617ZM75.9302 36.6754L78.2125 42.4504L80.0725 41.7154L77.7903 35.9403L75.9302 36.6754ZM78.5478 41.279L74.898 43.9792L76.0875 45.587L79.7373 42.8868L78.5478 41.279ZM76.4248 44.4208L76.0118 43.3581L74.1476 44.0826L74.5607 45.1453L76.4248 44.4208ZM74.1077 43.4855C73.8254 44.6537 73.5492 45.2756 72.822 45.8136L74.0115 47.4214C75.31 46.4607 75.7338 45.2711 76.0517 43.9552L74.1077 43.4855ZM74.2456 44.0389C74.8076 43.6231 75.0923 42.977 75.1889 42.3648C75.2877 41.7382 75.2101 41.0457 74.9449 40.3956L73.0931 41.1511C73.2255 41.4756 73.2532 41.7998 73.2133 42.0533C73.171 42.3212 73.0729 42.4187 73.0561 42.4311L74.2456 44.0389ZM74.947 40.4008L74.7698 39.9596L72.9138 40.7047L73.091 41.1459L74.947 40.4008ZM73.4743 39.4022C73.127 39.5394 72.8285 39.6887 72.5004 39.9314L73.6899 41.5392C73.8442 41.4251 73.9792 41.3531 74.2094 41.2622L73.4743 39.4022ZM72.5004 39.9314C71.9274 40.3553 71.4613 40.9085 71.2948 41.5943C71.12 42.3138 71.3167 43.0055 71.7406 43.5785L73.3484 42.389C73.2132 42.2063 73.227 42.1127 73.2383 42.0664C73.2577 41.9864 73.3465 41.7933 73.6899 41.5392L72.5004 39.9314ZM71.7406 43.5785C72.0193 43.9552 72.412 44.2569 72.9037 44.3532C73.4036 44.4511 73.8782 44.3107 74.2456 44.0389L73.0561 42.4311C73.0677 42.4225 73.0955 42.4053 73.1404 42.3941C73.1867 42.3826 73.2384 42.3808 73.2882 42.3905C73.3944 42.4113 73.4027 42.4624 73.3484 42.389L71.7406 43.5785ZM80.1308 41.3517L79.2005 41.7186L79.6784 42.9303L80.7256 42.1556L80.1308 41.3517ZM75.9835 30.8363L75.3888 30.0324L74.7716 30.4891L75.0533 31.2032L75.9835 30.8363ZM79.6333 28.1362L80.5629 27.7677L80.0838 26.5589L79.0385 27.3323L79.6333 28.1362ZM80.1212 29.3674L79.1916 29.7358L81.1177 29.4509L80.1212 29.3674ZM85.1154 25.996L84.5786 26.8397L85.9153 27.6902L86.108 26.1176L85.1154 25.996ZM92.753 24.5499L91.8209 24.9122L91.823 24.9175L92.753 24.5499ZM95.0353 30.325L95.63 31.1289L96.2477 30.672L95.9653 29.9575L95.0353 30.325ZM91.3855 33.0252L90.4549 33.3912L90.9322 34.6045L91.9803 33.8291L91.3855 33.0252ZM89.3238 27.7836L88.3874 28.1346L88.3902 28.1421L88.3932 28.1496L89.3238 27.7836ZM87.3462 29.2467L88.2768 28.8806L88.2762 28.8791L87.3462 29.2467ZM89.4079 34.4883L90.0027 35.2922L90.6193 34.836L90.3385 34.1222L89.4079 34.4883ZM85.7582 37.1884L84.8276 37.5545L85.3048 38.7678L86.3529 37.9924L85.7582 37.1884ZM83.6964 31.9468L82.7601 32.2979L82.7629 32.3054L82.7658 32.3129L83.6964 31.9468ZM81.7188 33.4099L82.6494 33.0439L82.6488 33.0424L81.7188 33.4099ZM83.7806 38.6515L84.3753 39.4554L84.9919 38.9993L84.7112 38.2855L83.7806 38.6515ZM81.0611 40.9848L76.9138 30.4695L75.0533 31.2032L79.2005 41.7186L81.0611 40.9848ZM76.5783 31.6403L80.228 28.9401L79.0385 27.3323L75.3888 30.0324L76.5783 31.6403ZM78.7036 28.5046L79.1916 29.7358L81.0509 28.999L80.5629 27.7677L78.7036 28.5046ZM81.1177 29.4509C81.1922 28.5621 81.5733 27.6214 82.3726 27.0301L81.1831 25.4223C79.7957 26.4486 79.2325 27.9978 79.1247 29.2839L81.1177 29.4509ZM82.3726 27.0301C83.2478 26.3825 83.9897 26.465 84.5786 26.8397L85.6522 25.1523C84.3609 24.3307 82.7195 24.2855 81.1831 25.4223L82.3726 27.0301ZM86.108 26.1176C86.2728 24.7719 86.862 23.7087 87.8552 22.9739L86.6657 21.366C85.1829 22.463 84.3467 24.0466 84.1228 25.8744L86.108 26.1176ZM87.8552 22.9739C88.5795 22.4381 89.1595 22.3336 89.6031 22.4121C90.0591 22.4928 90.5636 22.8012 91.0561 23.4668L92.6639 22.2773C91.9669 21.3352 91.0559 20.6382 89.9517 20.4427C88.8351 20.245 87.7101 20.5934 86.6657 21.366L87.8552 22.9739ZM91.0561 23.4668C91.3247 23.8299 91.5974 24.337 91.821 24.9122L93.6851 24.1877C93.413 23.4876 93.0614 22.8146 92.6639 22.2773L91.0561 23.4668ZM91.823 24.9175L94.1053 30.6925L95.9653 29.9575L93.683 24.1824L91.823 24.9175ZM94.4405 29.5211L90.7908 32.2213L91.9803 33.8291L95.63 31.1289L94.4405 29.5211ZM92.3161 32.6591L90.2544 27.4175L88.3932 28.1496L90.4549 33.3912L92.3161 32.6591ZM90.2602 27.4326C90.1255 27.0732 89.9228 26.7101 89.7365 26.4582L88.1287 27.6478C88.204 27.7496 88.3177 27.9486 88.3874 28.1346L90.2602 27.4326ZM89.7365 26.4582C89.4873 26.1214 89.1053 25.7589 88.5572 25.641C87.9779 25.5164 87.4481 25.7131 87.0273 26.0245L88.2168 27.6323C88.274 27.59 88.2921 27.5896 88.2714 27.5954C88.2604 27.5985 88.2414 27.6024 88.216 27.6033C88.1903 27.6043 88.1632 27.602 88.1366 27.5963C88.0817 27.5845 88.0539 27.5637 88.0548 27.5645C88.0583 27.5671 88.085 27.5888 88.1287 27.6478L89.7365 26.4582ZM87.0273 26.0245C86.4784 26.4306 86.1462 26.996 86.0716 27.6787C86.0028 28.309 86.1607 28.9677 86.4162 29.6142L88.2762 28.8791C88.0752 28.3706 88.0414 28.0641 88.0598 27.8959C88.0724 27.7802 88.1064 27.714 88.2168 27.6323L87.0273 26.0245ZM86.4156 29.6127L88.4773 34.8543L90.3385 34.1222L88.2768 28.8806L86.4156 29.6127ZM88.8132 33.6844L85.1634 36.3845L86.3529 37.9924L90.0027 35.2922L88.8132 33.6844ZM86.6888 36.8224L84.627 31.5808L82.7658 32.3129L84.8276 37.5545L86.6888 36.8224ZM84.6328 31.5958C84.4981 31.2365 84.2954 30.8734 84.1091 30.6215L82.5013 31.811C82.5766 31.9129 82.6903 32.1118 82.7601 32.2979L84.6328 31.5958ZM84.1091 30.6215C83.8599 30.2847 83.4779 29.9222 82.9298 29.8043C82.3506 29.6797 81.8208 29.8764 81.3999 30.1878L82.5894 31.7956C82.6467 31.7532 82.6648 31.7529 82.644 31.7587C82.633 31.7617 82.6141 31.7657 82.5886 31.7666C82.5629 31.7676 82.5358 31.7653 82.5093 31.7596C82.4543 31.7477 82.4265 31.727 82.4275 31.7277C82.431 31.7304 82.4577 31.7521 82.5013 31.811L84.1091 30.6215ZM81.3999 30.1878C80.851 30.5938 80.5189 31.1593 80.4443 31.842C80.3754 32.4722 80.5333 33.131 80.7888 33.7775L82.6488 33.0424C82.4479 32.5339 82.4141 32.2273 82.4324 32.0592C82.4451 31.9434 82.479 31.8772 82.5894 31.7956L81.3999 30.1878ZM80.7882 33.776L82.85 39.0176L84.7112 38.2855L82.6494 33.0439L80.7882 33.776ZM83.1858 37.8476L79.5361 40.5478L80.7256 42.1556L84.3753 39.4554L83.1858 37.8476ZM97.5522 22.9897L96.9575 22.1858L96.0969 22.8224L96.7906 23.6377L97.5522 22.9897ZM100.984 21.1721L101.177 20.1908L100.278 20.0144L100.024 20.8938L100.984 21.1721ZM104.04 21.7721L105.019 21.9788L105.228 20.9863L104.233 20.7908L104.04 21.7721ZM103.196 18.8145L103.79 19.6184L104.376 19.1853L104.143 18.4953L103.196 18.8145ZM96.5878 21.2153L95.6341 21.516L96.0556 22.853L97.1825 22.0192L96.5878 21.2153ZM99.0638 19.3835L99.6586 20.1874L100.216 19.7752L100.025 19.1089L99.0638 19.3835ZM96.7906 23.6377C97.2043 24.1239 97.7643 24.4868 98.4419 24.5621C99.1202 24.6375 99.7703 24.4087 100.334 23.9919L99.1442 22.3841C98.8876 22.5739 98.7301 22.5818 98.6629 22.5743C98.5951 22.5668 98.4717 22.5272 98.3138 22.3416L96.7906 23.6377ZM100.334 23.9919C101.167 23.3753 101.643 22.4901 101.945 21.4503L100.024 20.8938C99.7929 21.6906 99.5006 22.1204 99.1442 22.3841L100.334 23.9919ZM100.792 22.1533L103.848 22.7534L104.233 20.7908L101.177 20.1908L100.792 22.1533ZM103.062 21.5654C102.765 22.9691 102.072 24.1985 100.742 25.1826L101.931 26.7904C103.688 25.4906 104.63 23.8187 105.019 21.9788L103.062 21.5654ZM100.742 25.1826C99.5621 26.0555 98.4392 26.3555 97.4934 26.2589C96.5592 26.1634 95.6791 25.6701 94.9768 24.7208L93.369 25.9104C94.3677 27.2603 95.735 28.0897 97.2902 28.2485C98.8338 28.4062 100.442 27.8921 101.931 26.7904L100.742 25.1826ZM94.9768 24.7208C93.2803 22.4277 93.3214 18.9299 96.1565 16.8324L94.967 15.2246C91.1135 18.0755 91.1164 22.8655 93.369 25.9104L94.9768 24.7208ZM96.1565 16.8324C97.4059 15.9081 98.4344 15.7873 99.2375 15.9819C100.08 16.1862 100.845 16.7801 101.436 17.579L103.044 16.3895C102.267 15.3393 101.139 14.3848 99.7085 14.0382C98.2381 13.6819 96.6116 14.0078 94.967 15.2246L96.1565 16.8324ZM101.436 17.579C101.799 18.0705 102.072 18.611 102.248 19.1337L104.143 18.4953C103.903 17.7833 103.536 17.0555 103.044 16.3895L101.436 17.579ZM102.601 18.0106L96.9575 22.1858L98.147 23.7936L103.79 19.6184L102.601 18.0106ZM97.1825 22.0192L99.6586 20.1874L98.4691 18.5796L95.993 20.4114L97.1825 22.0192ZM100.025 19.1089C99.9371 18.7996 99.7921 18.5519 99.6466 18.3553L98.0388 19.5448C98.0836 19.6053 98.0968 19.6387 98.1023 19.6581L100.025 19.1089ZM99.6466 18.3553C98.9953 17.475 97.693 17.1137 96.6094 17.9154L97.7989 19.5232C97.8448 19.4893 97.8769 19.4784 97.8932 19.4745C97.9099 19.4705 97.9231 19.4707 97.9352 19.4729C97.9619 19.4777 98.0037 19.4974 98.0388 19.5448L99.6466 18.3553ZM96.6094 17.9154C95.7136 18.5781 95.12 19.8855 95.6341 21.516L97.5415 20.9146C97.2796 20.084 97.6014 19.6693 97.7989 19.5232L96.6094 17.9154ZM39.6906 98.6367L38.7599 99.0026L39.237 100.216L40.2853 99.4406L39.6906 98.6367ZM34.3868 85.1457L33.792 84.3418L33.1755 84.7979L33.4561 85.5116L34.3868 85.1457ZM43.9854 78.0444L44.9169 77.6804L44.4413 76.4632L43.3907 77.2404L43.9854 78.0444ZM45.4332 81.7499L46.028 82.5538L46.6431 82.0987L46.3646 81.386L45.4332 81.7499ZM39.5325 86.1154L38.9378 85.3115L38.3207 85.768L38.6022 86.4821L39.5325 86.1154ZM40.0716 87.4829L39.1412 87.8497L39.619 89.0617L40.6663 88.2869L40.0716 87.4829ZM45.5703 83.4148L46.5002 83.047L46.0215 81.8371L44.9756 82.6109L45.5703 83.4148ZM46.8571 86.6673L47.4518 87.4712L48.0697 87.0141L47.7869 86.2995L46.8571 86.6673ZM41.3583 90.7354L40.7636 89.9315L40.1517 90.3842L40.4251 91.0946L41.3583 90.7354ZM41.9247 92.2072L40.9914 92.5663L41.4633 93.7925L42.5195 93.0111L41.9247 92.2072ZM47.9058 87.7822L48.8354 87.4138L48.3564 86.205L47.311 86.9783L47.9058 87.7822ZM49.3697 91.4759L49.9644 92.2798L50.5827 91.8224L50.2993 91.1074L49.3697 91.4759ZM40.6213 98.2708L35.3174 84.7798L33.4561 85.5116L38.7599 99.0026L40.6213 98.2708ZM34.9815 85.9496L44.5802 78.8483L43.3907 77.2404L33.792 84.3418L34.9815 85.9496ZM43.054 78.4083L44.5018 82.1138L46.3646 81.386L44.9169 77.6804L43.054 78.4083ZM44.8385 80.946L38.9378 85.3115L40.1273 86.9193L46.028 82.5538L44.8385 80.946ZM38.6022 86.4821L39.1412 87.8497L41.0019 87.1162L40.4629 85.7487L38.6022 86.4821ZM40.6663 88.2869L46.1651 84.2187L44.9756 82.6109L39.4768 86.679L40.6663 88.2869ZM44.6404 83.7827L45.9272 87.0352L47.7869 86.2995L46.5002 83.047L44.6404 83.7827ZM46.2623 85.8634L40.7636 89.9315L41.9531 91.5393L47.4518 87.4712L46.2623 85.8634ZM40.4251 91.0946L40.9914 92.5663L42.858 91.848L42.2916 90.3763L40.4251 91.0946ZM42.5195 93.0111L48.5005 88.5861L47.311 86.9783L41.33 91.4033L42.5195 93.0111ZM46.9761 88.1507L48.44 91.8443L50.2993 91.1074L48.8354 87.4138L46.9761 88.1507ZM48.7749 90.672L39.0958 97.8328L40.2853 99.4406L49.9644 92.2798L48.7749 90.672ZM49.8818 91.097L48.887 90.9953L48.6566 93.2473L50.4765 91.9009L49.8818 91.097ZM50.6553 83.5339L51.6501 83.6356L51.7141 83.0101L51.178 82.6814L50.6553 83.5339ZM45.7827 80.546L45.188 79.742L43.9964 80.6236L45.26 81.3984L45.7827 80.546ZM49.4968 77.7982L50.0867 76.9907L49.4931 76.557L48.902 76.9943L49.4968 77.7982ZM51.3918 79.1826L50.8018 79.9901L52.2966 81.0821L52.3905 79.2333L51.3918 79.1826ZM51.5387 76.2875L50.944 75.4836L50.564 75.7648L50.54 76.2368L51.5387 76.2875ZM55.51 73.3495L56.5047 73.4525L56.7383 71.1968L54.9153 72.5455L55.51 73.3495ZM54.7372 80.8126L53.7425 80.7095L53.6775 81.3367L54.2155 81.6657L54.7372 80.8126ZM59.6895 83.841L60.2842 84.6449L61.4774 83.7622L60.2112 82.9879L59.6895 83.841ZM55.9754 86.5888L55.3902 87.3997L55.9828 87.8273L56.5701 87.3927L55.9754 86.5888ZM54.0007 85.1638L54.5858 84.3529L53.0925 83.2753L53.0019 85.1146L54.0007 85.1638ZM53.8531 88.1589L54.4478 88.9628L54.8286 88.6812L54.8519 88.2081L53.8531 88.1589ZM50.8766 91.1987L51.6501 83.6356L49.6605 83.4322L48.887 90.9953L50.8766 91.1987ZM51.178 82.6814L46.3055 79.6935L45.26 81.3984L50.1325 84.3864L51.178 82.6814ZM46.3775 81.3499L50.0915 78.6021L48.902 76.9943L45.188 79.742L46.3775 81.3499ZM48.9069 78.6057L50.8018 79.9901L51.9817 78.3752L50.0867 76.9907L48.9069 78.6057ZM52.3905 79.2333L52.5374 76.3382L50.54 76.2368L50.3931 79.1319L52.3905 79.2333ZM52.1335 77.0914L56.1048 74.1534L54.9153 72.5455L50.944 75.4836L52.1335 77.0914ZM54.5153 73.2464L53.7425 80.7095L55.7318 80.9156L56.5047 73.4525L54.5153 73.2464ZM54.2155 81.6657L59.1678 84.6941L60.2112 82.9879L55.2589 79.9594L54.2155 81.6657ZM59.0947 83.0371L55.3806 85.7849L56.5701 87.3927L60.2842 84.6449L59.0947 83.0371ZM56.5606 85.7779L54.5858 84.3529L53.4155 85.9747L55.3902 87.3997L56.5606 85.7779ZM53.0019 85.1146L52.8543 88.1097L54.8519 88.2081L54.9995 85.213L53.0019 85.1146ZM53.2583 87.355L49.287 90.2931L50.4765 91.9009L54.4478 88.9628L53.2583 87.355ZM61.2974 86.632L60.367 86.9986L60.8447 88.2108L61.8921 87.4359L61.2974 86.632ZM55.9382 73.0327L55.3435 72.2287L54.7265 72.6852L55.0079 73.3993L55.9382 73.0327ZM59.588 70.3325L60.5184 69.966L60.0408 68.7535L58.9932 69.5286L59.588 70.3325ZM60.0129 71.4113L59.0825 71.7778L60.4855 75.3396L61.0037 71.5466L60.0129 71.4113ZM63.2081 79.4964L63.5607 78.5606L61.4561 77.7675L62.2771 79.8614L63.2081 79.4964ZM64.9471 83.9318L65.5419 84.7357L66.1578 84.2801L65.8781 83.5668L64.9471 83.9318ZM62.2277 86.2654L56.8686 72.666L55.0079 73.3993L60.367 86.9986L62.2277 86.2654ZM56.533 73.8366L60.1827 71.1364L58.9932 69.5286L55.3435 72.2287L56.533 73.8366ZM58.6576 70.699L59.0825 71.7778L60.9433 71.0448L60.5184 69.966L58.6576 70.699ZM61.0037 71.5466C61.1243 70.6643 61.6115 69.7559 62.2951 69.2502L61.1056 67.6423C59.9241 68.5164 59.2041 69.9442 59.0221 71.2759L61.0037 71.5466ZM62.2951 69.2502C62.8511 68.8388 63.514 68.6884 64.1875 68.8269C64.8644 68.966 65.6263 69.4149 66.3081 70.3364L67.9159 69.1469C66.9919 67.898 65.8277 67.1222 64.5902 66.8678C63.3492 66.6127 62.1092 66.8999 61.1056 67.6423L62.2951 69.2502ZM66.3081 70.3364C68.4792 73.2711 68.1416 76.6674 66.1731 78.1237L67.3626 79.7315C70.5392 77.3815 70.479 72.6115 67.9159 69.1469L66.3081 70.3364ZM66.1731 78.1237C65.2055 78.8396 64.3285 78.85 63.5607 78.5606L62.8554 80.4321C64.2264 80.9488 65.822 80.8713 67.3626 79.7315L66.1731 78.1237ZM62.2771 79.8614L64.0161 84.2969L65.8781 83.5668L64.1391 79.1313L62.2771 79.8614ZM64.3524 83.1279L60.7026 85.8281L61.8921 87.4359L65.5419 84.7357L64.3524 83.1279ZM64.4106 77.2882C65.9809 76.1264 65.8619 73.9704 64.877 72.6391L63.2692 73.8286C63.8068 74.5553 63.6444 75.3672 63.2211 75.6804L64.4106 77.2882ZM64.877 72.6391C64.4645 72.0816 63.8926 71.6989 63.237 71.585C62.5787 71.4707 61.9192 71.6429 61.3768 72.0442L62.5663 73.652C62.6992 73.5537 62.8109 73.541 62.8948 73.5555C62.9814 73.5706 63.1226 73.6305 63.2692 73.8286L64.877 72.6391ZM61.3768 72.0442C59.8064 73.206 59.9254 75.362 60.9104 76.6933L62.5182 75.5038C61.9806 74.7771 62.143 73.9652 62.5663 73.652L61.3768 72.0442ZM60.9104 76.6933C61.3229 77.2508 61.8948 77.6335 62.5504 77.7474C63.2087 77.8617 63.8682 77.6895 64.4106 77.2882L63.2211 75.6804C63.0882 75.7787 62.9765 75.7914 62.8925 75.7769C62.806 75.7618 62.6648 75.7019 62.5182 75.5038L60.9104 76.6933ZM70.9045 75.5439L69.9739 75.9098L70.451 77.1233L71.4992 76.3478L70.9045 75.5439ZM65.3724 61.4754L64.7777 60.6714L64.1611 61.1276L64.4418 61.8413L65.3724 61.4754ZM69.0222 58.7752L69.9528 58.4092L69.4757 57.1958L68.4274 57.9713L69.0222 58.7752ZM74.5542 72.8437L75.149 73.6476L75.7655 73.1915L75.4849 72.4777L74.5542 72.8437ZM71.8351 75.1779L66.3031 61.1094L64.4418 61.8413L69.9739 75.9098L71.8351 75.1779ZM65.9672 62.2793L69.6169 59.5791L68.4274 57.9713L64.7777 60.6714L65.9672 62.2793ZM68.0915 59.1411L73.6236 73.2096L75.4849 72.4777L69.9528 58.4092L68.0915 59.1411ZM73.9595 72.0398L70.3097 74.7399L71.4992 76.3478L75.149 73.6476L73.9595 72.0398ZM80.558 67.4815C79.3544 68.3719 78.1819 68.6386 77.1809 68.5C76.1774 68.361 75.2468 67.8014 74.5459 66.8541L72.9381 68.0436C73.9264 69.3794 75.3184 70.2611 76.9065 70.4811C78.4973 70.7014 80.1856 70.2448 81.7475 69.0893L80.558 67.4815ZM74.5459 66.8541C72.8819 64.6049 73.209 61.1758 75.8117 59.2502L74.6222 57.6424C71.1153 60.2369 70.6292 64.9227 72.9381 68.0436L74.5459 66.8541ZM75.8117 59.2502C77.0153 58.3598 78.1878 58.0931 79.1887 58.2317C80.1923 58.3707 81.1229 58.9303 81.8237 59.8776L83.4316 58.6881C82.4433 57.3523 81.0513 56.4706 79.4631 56.2506C77.8724 56.0303 76.1841 56.4869 74.6222 57.6424L75.8117 59.2502ZM81.8237 59.8776C83.4878 62.1268 83.1607 65.5559 80.558 67.4815L81.7475 69.0893C85.2544 66.4948 85.7405 61.809 83.4316 58.6881L81.8237 59.8776ZM79.772 65.9483C81.3077 64.8121 81.0646 62.685 80.1098 61.3944L78.502 62.5839C79.0935 63.3834 78.8796 64.1206 78.5825 64.3405L79.772 65.9483ZM80.1098 61.3944C79.712 60.8567 79.1558 60.4626 78.5032 60.3336C77.8392 60.2024 77.1639 60.3645 76.5977 60.7834L77.7872 62.3912C77.9284 62.2868 78.0363 62.28 78.1154 62.2956C78.2058 62.3135 78.3526 62.382 78.502 62.5839L80.1098 61.3944ZM76.5977 60.7834C75.062 61.9196 75.3051 64.0467 76.2599 65.3373L77.8677 64.1478C77.2762 63.3483 77.49 62.6111 77.7872 62.3912L76.5977 60.7834ZM76.2599 65.3373C76.6577 65.875 77.2139 66.2691 77.8665 66.3981C78.5305 66.5293 79.2058 66.3672 79.772 65.9483L78.5825 64.3405C78.4413 64.445 78.3334 64.4517 78.2543 64.4361C78.1639 64.4182 78.0171 64.3497 77.8677 64.1478L76.2599 65.3373ZM85.9299 64.4277L84.9997 64.7946L85.4776 66.0062L86.5247 65.2316L85.9299 64.4277ZM81.7827 53.9123L81.1879 53.1084L80.5707 53.565L80.8524 54.2792L81.7827 53.9123ZM85.4324 51.2121L86.3614 50.842L85.881 49.6363L84.8376 50.4082L85.4324 51.2121ZM86.2746 53.3257L85.3456 53.6958L87.274 53.2922L86.2746 53.3257ZM88.1188 49.0256L89.0484 48.6572L88.5911 47.5036L87.5611 48.1956L88.1188 49.0256ZM89.9565 53.6618L90.5512 54.4657L91.1695 54.0083L90.8861 53.2933L89.9565 53.6618ZM88.5408 59.1126L89.4701 58.7434L89.4679 58.7379L88.5408 59.1126ZM89.5797 61.7275L90.1744 62.5314L90.7932 62.0736L90.509 61.3582L89.5797 61.7275ZM86.8602 64.0608L82.7129 53.5454L80.8524 54.2792L84.9997 64.7946L86.8602 64.0608ZM82.3774 54.7162L86.0271 52.016L84.8376 50.4082L81.1879 53.1084L82.3774 54.7162ZM84.5034 51.5823L85.3456 53.6958L87.2036 52.9555L86.3614 50.842L84.5034 51.5823ZM87.274 53.2922C87.2199 51.6771 87.6139 50.5695 88.6764 49.8557L87.5611 48.1956C85.6987 49.4467 85.2088 51.3814 85.2751 53.3592L87.274 53.2922ZM87.1891 49.3941L89.0268 54.0303L90.8861 53.2933L89.0484 48.6572L87.1891 49.3941ZM89.3617 52.8579L88.9758 53.1433L90.1653 54.7512L90.5512 54.4657L89.3617 52.8579ZM88.9758 53.1433C87.9627 53.8929 87.2947 54.813 87.0793 55.961C86.8709 57.0722 87.1147 58.2532 87.6136 59.4874L89.4679 58.7379C89.0378 57.6739 88.9364 56.9087 89.045 56.3298C89.1467 55.7879 89.4581 55.2744 90.1653 54.7512L88.9758 53.1433ZM87.6114 59.4819L88.6503 62.0967L90.509 61.3582L89.4701 58.7434L87.6114 59.4819ZM88.9849 60.9236L85.3352 63.6237L86.5247 65.2316L90.1744 62.5314L88.9849 60.9236ZM94.6528 52.501L94.058 51.6971L93.1974 52.3338L93.8912 53.1491L94.6528 52.501ZM98.0848 50.6834L98.2774 49.7022L97.379 49.5258L97.1242 50.4052L98.0848 50.6834ZM101.141 51.2834L102.119 51.4901L102.329 50.4976L101.334 50.3022L101.141 51.2834ZM100.296 48.3258L100.891 49.1298L101.476 48.6967L101.244 48.0066L100.296 48.3258ZM93.6884 50.7267L92.7347 51.0273L93.1562 52.3643L94.2831 51.5306L93.6884 50.7267ZM96.1644 48.8948L96.7592 49.6987L97.3163 49.2866L97.126 48.6202L96.1644 48.8948ZM93.8912 53.1491C94.3049 53.6352 94.8649 53.9981 95.5425 54.0734C96.2208 54.1489 96.8709 53.9201 97.4343 53.5032L96.2448 51.8954C95.9882 52.0852 95.8307 52.0932 95.7635 52.0857C95.6957 52.0782 95.5723 52.0385 95.4144 51.8529L93.8912 53.1491ZM97.4343 53.5032C98.2677 52.8866 98.744 52.0015 99.0453 50.9617L97.1242 50.4052C96.8934 51.2019 96.6011 51.6318 96.2448 51.8954L97.4343 53.5032ZM97.8921 51.6647L100.948 52.2647L101.334 50.3022L98.2774 49.7022L97.8921 51.6647ZM100.162 51.0767C99.8659 52.4804 99.1726 53.7099 97.8425 54.6939L99.032 56.3017C100.789 55.002 101.731 53.33 102.119 51.4901L100.162 51.0767ZM97.8425 54.6939C96.6627 55.5668 95.5397 55.8668 94.594 55.7702C93.6598 55.6748 92.7797 55.1814 92.0774 54.2322L90.4696 55.4217C91.4683 56.7716 92.8356 57.601 94.3908 57.7599C95.9344 57.9176 97.5429 57.4034 99.032 56.3017L97.8425 54.6939ZM92.0774 54.2322C90.3809 51.9391 90.422 48.4412 93.257 46.3437L92.0675 44.7359C88.2141 47.5868 88.2169 52.3769 90.4696 55.4217L92.0774 54.2322ZM93.257 46.3437C94.5065 45.4194 95.535 45.2987 96.338 45.4933C97.1811 45.6976 97.9453 46.2914 98.5363 47.0903L100.144 45.9008C99.3672 44.8507 98.2395 43.8961 96.809 43.5495C95.3387 43.1932 93.7122 43.5192 92.0675 44.7359L93.257 46.3437ZM98.5363 47.0903C98.9 47.5819 99.1725 48.1223 99.3485 48.6451L101.244 48.0066C101.004 47.2946 100.637 46.5668 100.144 45.9008L98.5363 47.0903ZM99.7015 47.5219L94.058 51.6971L95.2475 53.3049L100.891 49.1298L99.7015 47.5219ZM94.2831 51.5306L96.7592 49.6987L95.5697 48.0909L93.0936 49.9228L94.2831 51.5306ZM97.126 48.6202C97.0377 48.311 96.8927 48.0633 96.7472 47.8666L95.1393 49.0561C95.1842 49.1167 95.1973 49.1501 95.2029 49.1694L97.126 48.6202ZM96.7472 47.8666C96.0959 46.9863 94.7935 46.6251 93.71 47.4267L94.8995 49.0345C94.9454 49.0006 94.9775 48.9897 94.9938 48.9858C95.0105 48.9819 95.0237 48.982 95.0358 48.9842C95.0624 48.989 95.1043 49.0088 95.1393 49.0561L96.7472 47.8666ZM93.71 47.4267C92.8142 48.0895 92.2206 49.3969 92.7347 51.0273L94.6421 50.426C94.3802 49.5953 94.702 49.1807 94.8995 49.0345L93.71 47.4267ZM102.683 52.0331L101.753 52.4L102.231 53.6117L103.278 52.837L102.683 52.0331ZM98.536 41.5177L97.9412 40.7138L97.3241 41.1704L97.6057 41.8846L98.536 41.5177ZM102.186 38.8176L103.115 38.4474L102.634 37.2418L101.591 38.0137L102.186 38.8176ZM103.028 40.9311L102.099 41.3013L104.027 40.8976L103.028 40.9311ZM104.872 36.6311L105.802 36.2626L105.344 35.1091L104.314 35.801L104.872 36.6311ZM106.71 41.2672L107.305 42.0711L107.923 41.6137L107.639 40.8987L106.71 41.2672ZM105.294 46.7181L106.223 46.3488L106.221 46.3433L105.294 46.7181ZM106.333 49.3329L106.928 50.1368L107.547 49.679L107.262 48.9637L106.333 49.3329ZM103.614 51.6662L99.4663 41.1508L97.6057 41.8846L101.753 52.4L103.614 51.6662ZM99.1307 42.3217L102.78 39.6215L101.591 38.0137L97.9412 40.7138L99.1307 42.3217ZM101.257 39.1877L102.099 41.3013L103.957 40.561L103.115 38.4474L101.257 39.1877ZM104.027 40.8976C103.973 39.2825 104.367 38.175 105.43 37.4612L104.314 35.801C102.452 37.0521 101.962 38.9868 102.028 40.9646L104.027 40.8976ZM103.942 36.9996L105.78 41.6357L107.639 40.8987L105.802 36.2626L103.942 36.9996ZM106.115 40.4633L105.729 40.7488L106.919 42.3566L107.305 42.0711L106.115 40.4633ZM105.729 40.7488C104.716 41.4983 104.048 42.4184 103.833 43.5665C103.624 44.6776 103.868 45.8586 104.367 47.0929L106.221 46.3433C105.791 45.2794 105.69 44.5141 105.798 43.9353C105.9 43.3934 106.211 42.8799 106.919 42.3566L105.729 40.7488ZM104.365 47.0873L105.404 49.7022L107.262 48.9637L106.223 46.3488L104.365 47.0873ZM105.738 48.529L102.089 51.2292L103.278 52.837L106.928 50.1368L105.738 48.529Z" fill="#E3C906" mask="url(#path-18-outside-1_174_167)"/>
</svg>
