<svg width="174" height="152" viewBox="0 0 174 152" fill="none" xmlns="http://www.w3.org/2000/svg">
<path d="M97.6 151.2C139.353 151.2 173.2 117.353 173.2 75.6C173.2 33.8473 139.353 0 97.6 0C55.8473 0 22 33.8473 22 75.6C22 117.353 55.8473 151.2 97.6 151.2Z" fill="#F8D14F"/>
<path d="M139.199 58.4998C138.499 55.9998 137.499 53.5998 136.299 51.2998C132.699 44.5998 128.999 45.9998 122.599 46.9998C115.999 47.9998 109.599 49.8998 103.299 52.1998C98.5992 53.8998 93.6992 55.8998 89.7992 59.0998C85.7992 62.3998 84.7992 66.4998 82.0992 70.4998L43.6992 128.5C57.3992 142.5 76.4992 151.2 97.6992 151.2C104.999 151.2 112.099 150.1 118.699 148.2C121.599 141.4 124.499 134.5 127.399 127.7C129.899 121.9 132.199 115.9 134.799 110.2C136.299 107 138.799 104.8 139.899 101.4C141.799 95.5998 141.499 88.8998 141.499 82.8998C141.499 74.6998 141.499 66.1998 139.199 58.4998Z" fill="#E28B74"/>
<path d="M137.299 105.3C136.399 105.4 123.799 108.4 107.899 102.3C124.699 122.9 127.199 128.3 127.199 128.3L137.299 105.3Z" fill="#C16452"/>
<path d="M133.199 107.4C133.199 107.4 157.999 90.8998 163.999 82.1998L165.399 72.4998C165.799 69.4998 163.199 66.8998 160.199 67.3998L157.799 67.7998C156.299 68.0998 155.099 68.9998 154.499 70.3998L151.299 77.5998C149.499 72.8998 145.499 70.3998 140.799 69.1998C140.199 68.9998 139.899 68.3998 140.199 67.8998C140.499 67.3998 140.799 66.8998 140.999 66.6998C143.199 64.9998 145.499 61.4998 147.899 57.3998L151.699 64.9998C153.299 67.1998 156.099 68.0998 158.699 67.4998H159.099C162.899 66.5998 164.799 62.7998 163.799 58.9998L162.399 53.2998C161.099 48.0998 155.699 43.9998 150.299 44.1998L133.499 47.8998L133.799 18.9998C133.599 15.0998 130.299 12.1998 126.399 12.4998C123.099 12.7998 120.499 15.3998 120.199 18.5998L118.099 39.5998L113.699 20.7998C112.799 16.8998 108.899 14.5998 104.999 15.6998L104.799 15.7998C101.399 16.7998 99.2995 20.0998 99.8995 23.5998L102.699 41.4998L94.7995 27.3998C93.0995 24.4998 89.4995 23.3998 86.4995 24.7998C83.8995 25.9998 82.3995 28.7998 82.7995 31.5998L87.3995 63.5998L88.8995 80.4998L94.4995 98.0998L133.199 107.4Z" fill="#E28B74"/>
<path d="M126.999 107.4C123.399 107.4 120.499 106.8 120.299 106.7L120.499 105.7C120.599 105.7 131.999 108.2 137.699 103.2L138.399 104C135.299 106.8 130.799 107.4 126.999 107.4Z" fill="#263E65"/>
<path d="M132.999 91.9997H131.999C132.399 70.3997 108.499 57.6997 108.199 57.4997L107.999 57.3997L99.2988 35.0997L100.199 34.6997L108.799 56.6997C110.999 57.8997 133.299 70.7997 132.999 91.9997Z" fill="#263E65"/>
<path d="M108.299 56.3998L107.699 55.5998C107.799 55.4998 118.199 48.3998 131.399 50.9998L131.199 51.9998C118.499 49.3998 108.399 56.2998 108.299 56.3998Z" fill="#263E65"/>
<path d="M117.521 32.9601L116.551 33.2026L121.061 51.2465L122.031 51.004L117.521 32.9601Z" fill="#263E65"/>
<path d="M150.799 77.9999C147.699 73.2999 144.099 70.4999 140.199 69.7999C135.399 68.8999 131.599 71.6999 131.599 71.6999L130.999 70.8999C131.199 70.7999 135.099 67.8999 140.399 68.7999C144.599 69.4999 148.399 72.3999 151.599 77.3999L150.799 77.9999Z" fill="#263E65"/>
<mask id="path-10-outside-1_174_290" maskUnits="userSpaceOnUse" x="9.99219" y="79" width="107" height="43" fill="black">
<rect fill="white" x="9.99219" y="79" width="107" height="43"/>
<path d="M20.5943 95.28C16.6543 95.28 14.5343 93.4 14.5343 90.24C14.5343 89.52 14.6343 88.74 14.8343 87.98L16.7143 81H21.4743L19.5143 88.28C19.4143 88.68 19.3543 89.06 19.3543 89.38C19.3543 90.54 20.0343 91.14 21.2743 91.14C21.8543 91.14 22.3943 90.94 22.7743 90.56C23.1943 90.14 23.4743 89.6 23.7743 88.52L25.7943 81H30.5543L28.3343 89.24C27.8343 91.1 27.1143 92.46 26.1343 93.44C24.8143 94.76 22.8143 95.28 20.5943 95.28ZM33.7315 95.26C31.2515 95.26 29.2315 94.46 27.8915 93.44L29.8915 90.84C30.8715 91.62 32.5715 92.32 33.8115 92.32C34.2715 92.32 34.4515 92.14 34.4515 91.94C34.4515 91.58 34.1115 91.4 32.7515 90.9C30.9915 90.26 29.7715 89.46 29.7715 87.74C29.7715 85.56 31.6115 83.82 34.8915 83.82C37.0915 83.82 38.9515 84.48 40.0515 85.32L38.0515 87.92C37.2115 87.34 35.8115 86.76 34.7315 86.76C34.2315 86.76 34.0115 86.9 34.0115 87.12C34.0115 87.42 34.2515 87.54 35.5915 88.02C37.3315 88.64 38.6915 89.4 38.6915 91.32C38.6915 93.14 37.4115 95.26 33.7315 95.26ZM43.7607 90.6C43.8207 91.48 44.3807 92.06 45.4007 92.06C46.1407 92.06 46.8407 91.76 47.6007 91.18L49.7007 93.48C48.4607 94.58 46.9407 95.26 45.0207 95.26C41.7007 95.26 39.6607 93.32 39.6607 90.46C39.6607 87.14 42.1407 83.82 46.3007 83.82C49.9007 83.82 51.1007 86.26 51.1007 88.56C51.1007 89.28 50.9807 89.98 50.7807 90.6H43.7607ZM44.0407 88.6H47.1207C47.1807 88.44 47.2007 88.28 47.2007 88.12C47.2007 87.52 46.7607 86.96 46.0207 86.96C45.3407 86.96 44.4607 87.38 44.0407 88.6ZM50.4948 95L53.4148 84.08H57.9548L57.3748 86.28C58.3948 84.8 59.6548 83.84 61.4148 83.92L60.1348 88.74H59.6548C57.5148 88.74 56.3748 89.88 55.7548 92.28L55.0348 95H50.4948ZM64.461 95L68.221 81H79.941L78.861 85H71.821L71.341 86.78H77.881L76.901 90.42H70.361L69.141 95H64.461ZM77.2535 95L81.1735 80.4H85.7135L81.7935 95H77.2535ZM89.8092 95.26C86.3692 95.26 84.3492 93.02 84.3492 90.18C84.3492 86.84 87.0892 83.82 90.8892 83.82C94.3292 83.82 96.3492 86.06 96.3492 88.9C96.3492 92.24 93.6092 95.26 89.8092 95.26ZM90.0892 91.56C91.2292 91.56 92.0692 90.4 92.0692 89.1C92.0692 88.18 91.4892 87.52 90.6092 87.52C89.4692 87.52 88.6292 88.68 88.6292 89.98C88.6292 90.9 89.2092 91.56 90.0892 91.56ZM97.6479 95.08L97.2879 84.08H101.528L101.468 88.48L103.988 84.04H107.608L107.748 88.52L110.088 84.08H114.468L108.188 95.08H104.448L104.248 90.4L101.488 95.08H97.6479ZM18.802 117.28C16.022 117.28 13.602 116.28 11.902 114.74L14.582 111.54C16.182 112.88 17.822 113.52 19.302 113.52C19.902 113.52 20.322 113.3 20.322 112.9C20.322 112.46 20.062 112.32 18.022 111.56C15.422 110.6 14.202 109.68 14.202 107.62C14.202 104.92 16.682 102.72 20.502 102.72C23.002 102.72 25.222 103.52 26.742 104.82L24.062 108.02C23.002 107.16 21.502 106.46 20.022 106.46C19.422 106.46 19.002 106.62 19.002 107.02C19.002 107.44 19.302 107.52 21.242 108.24C23.622 109.12 25.142 110.12 25.142 112.26C25.142 115.08 22.822 117.28 18.802 117.28ZM30.1931 117.24C27.6331 117.24 26.3931 116.26 26.3931 114.26C26.3931 113.8 26.4731 113.3 26.6131 112.74L27.4531 109.58H26.1731L27.1131 106.08H28.3931L29.1331 103.34H33.6731L32.9331 106.08H35.4531L34.5131 109.58H31.9931L31.3731 111.92C31.2731 112.28 31.2331 112.54 31.2331 112.76C31.2331 113.22 31.5131 113.46 32.1531 113.46C32.5131 113.46 32.8331 113.4 33.4731 113.22L32.4931 116.92C31.7131 117.12 30.9531 117.24 30.1931 117.24ZM33.6198 117L36.5398 106.08H41.0798L40.4998 108.28C41.5198 106.8 42.7798 105.84 44.5398 105.92L43.2598 110.74H42.7798C40.6398 110.74 39.4998 111.88 38.8798 114.28L38.1598 117H33.6198ZM45.6373 117.24C43.9573 117.24 42.7173 116.14 42.7173 114.26C42.7173 111.96 44.5173 110.46 47.5973 110.46C48.4173 110.46 49.2573 110.58 50.0773 110.82L50.1173 110.7C50.1573 110.56 50.1973 110.34 50.1973 110.16C50.1973 109.48 49.6573 109.1 48.5173 109.1C47.5173 109.1 46.2773 109.3 45.5373 109.58L44.9373 106.5C46.1173 106.14 47.8573 105.92 49.4373 105.92C53.0573 105.92 54.7373 107.3 54.7373 109.48C54.7373 109.94 54.6773 110.46 54.5373 111L52.9373 117H48.3973L48.6973 115.9C47.7173 116.72 46.8973 117.24 45.6373 117.24ZM47.8373 114.66C48.5573 114.66 49.3373 113.92 49.5973 112.9L49.7173 112.44C49.4173 112.36 49.1773 112.32 48.8773 112.32C47.7373 112.32 47.0973 112.86 47.0973 113.8C47.0973 114.36 47.4173 114.66 47.8373 114.66ZM59.529 117.24C56.969 117.24 55.729 116.26 55.729 114.26C55.729 113.8 55.809 113.3 55.949 112.74L56.789 109.58H55.509L56.449 106.08H57.729L58.469 103.34H63.009L62.269 106.08H64.789L63.849 109.58H61.329L60.709 111.92C60.609 112.28 60.569 112.54 60.569 112.76C60.569 113.22 60.849 113.46 61.489 113.46C61.849 113.46 62.169 113.4 62.809 113.22L61.829 116.92C61.049 117.12 60.289 117.24 59.529 117.24ZM68.0381 112.6C68.0981 113.48 68.6581 114.06 69.6781 114.06C70.4181 114.06 71.1181 113.76 71.8781 113.18L73.9781 115.48C72.7381 116.58 71.2181 117.26 69.2981 117.26C65.9781 117.26 63.9381 115.32 63.9381 112.46C63.9381 109.14 66.4181 105.82 70.5781 105.82C74.1781 105.82 75.3781 108.26 75.3781 110.56C75.3781 111.28 75.2581 111.98 75.0581 112.6H68.0381ZM68.3181 110.6H71.3981C71.4581 110.44 71.4781 110.28 71.4781 110.12C71.4781 109.52 71.0381 108.96 70.2981 108.96C69.6181 108.96 68.7381 109.38 68.3181 110.6ZM80.0521 120.24C78.0521 120.24 75.7121 119.6 74.3321 118.76L76.1321 116.12C77.4321 116.86 78.8521 117.18 79.9321 117.18C80.9321 117.18 81.5921 116.94 82.1121 116.42C82.4521 116.08 82.7321 115.58 82.9121 114.88L82.9521 114.72C82.1321 115.48 81.0721 115.96 79.7321 115.96C77.8921 115.96 76.0121 114.64 76.0121 112.22C76.0121 109.08 78.0321 105.84 81.4921 105.84C82.9521 105.84 84.1521 106.56 84.7921 107.5L85.1721 106.08H89.7121L87.4121 114.66C86.9521 116.38 86.3521 117.64 85.4321 118.56C84.2721 119.72 82.6121 120.24 80.0521 120.24ZM81.8921 112.92C83.1321 112.92 83.8721 111.82 83.8721 110.76C83.8721 109.98 83.3121 109.3 82.3721 109.3C81.1521 109.3 80.3921 110.36 80.3921 111.48C80.3921 112.26 80.9521 112.92 81.8921 112.92ZM91.1729 105.3L91.9529 102.4H96.6529L95.8729 105.3H91.1729ZM88.1129 117L91.0329 106.08H95.5729L92.6529 117H88.1129ZM99.6885 117.26C97.2085 117.26 95.1885 116.46 93.8485 115.44L95.8485 112.84C96.8285 113.62 98.5285 114.32 99.7685 114.32C100.229 114.32 100.409 114.14 100.409 113.94C100.409 113.58 100.069 113.4 98.7085 112.9C96.9485 112.26 95.7285 111.46 95.7285 109.74C95.7285 107.56 97.5685 105.82 100.849 105.82C103.049 105.82 104.909 106.48 106.009 107.32L104.009 109.92C103.169 109.34 101.769 108.76 100.689 108.76C100.189 108.76 99.9685 108.9 99.9685 109.12C99.9685 109.42 100.209 109.54 101.549 110.02C103.289 110.64 104.649 111.4 104.649 113.32C104.649 115.14 103.369 117.26 99.6885 117.26ZM109.9 117.24C107.34 117.24 106.1 116.26 106.1 114.26C106.1 113.8 106.18 113.3 106.32 112.74L107.16 109.58H105.88L106.82 106.08H108.1L108.84 103.34H113.38L112.64 106.08H115.16L114.22 109.58H111.7L111.08 111.92C110.98 112.28 110.94 112.54 110.94 112.76C110.94 113.22 111.22 113.46 111.86 113.46C112.22 113.46 112.54 113.4 113.18 113.22L112.2 116.92C111.42 117.12 110.66 117.24 109.9 117.24Z"/>
</mask>
<path d="M20.5943 95.28C16.6543 95.28 14.5343 93.4 14.5343 90.24C14.5343 89.52 14.6343 88.74 14.8343 87.98L16.7143 81H21.4743L19.5143 88.28C19.4143 88.68 19.3543 89.06 19.3543 89.38C19.3543 90.54 20.0343 91.14 21.2743 91.14C21.8543 91.14 22.3943 90.94 22.7743 90.56C23.1943 90.14 23.4743 89.6 23.7743 88.52L25.7943 81H30.5543L28.3343 89.24C27.8343 91.1 27.1143 92.46 26.1343 93.44C24.8143 94.76 22.8143 95.28 20.5943 95.28ZM33.7315 95.26C31.2515 95.26 29.2315 94.46 27.8915 93.44L29.8915 90.84C30.8715 91.62 32.5715 92.32 33.8115 92.32C34.2715 92.32 34.4515 92.14 34.4515 91.94C34.4515 91.58 34.1115 91.4 32.7515 90.9C30.9915 90.26 29.7715 89.46 29.7715 87.74C29.7715 85.56 31.6115 83.82 34.8915 83.82C37.0915 83.82 38.9515 84.48 40.0515 85.32L38.0515 87.92C37.2115 87.34 35.8115 86.76 34.7315 86.76C34.2315 86.76 34.0115 86.9 34.0115 87.12C34.0115 87.42 34.2515 87.54 35.5915 88.02C37.3315 88.64 38.6915 89.4 38.6915 91.32C38.6915 93.14 37.4115 95.26 33.7315 95.26ZM43.7607 90.6C43.8207 91.48 44.3807 92.06 45.4007 92.06C46.1407 92.06 46.8407 91.76 47.6007 91.18L49.7007 93.48C48.4607 94.58 46.9407 95.26 45.0207 95.26C41.7007 95.26 39.6607 93.32 39.6607 90.46C39.6607 87.14 42.1407 83.82 46.3007 83.82C49.9007 83.82 51.1007 86.26 51.1007 88.56C51.1007 89.28 50.9807 89.98 50.7807 90.6H43.7607ZM44.0407 88.6H47.1207C47.1807 88.44 47.2007 88.28 47.2007 88.12C47.2007 87.52 46.7607 86.96 46.0207 86.96C45.3407 86.96 44.4607 87.38 44.0407 88.6ZM50.4948 95L53.4148 84.08H57.9548L57.3748 86.28C58.3948 84.8 59.6548 83.84 61.4148 83.92L60.1348 88.74H59.6548C57.5148 88.74 56.3748 89.88 55.7548 92.28L55.0348 95H50.4948ZM64.461 95L68.221 81H79.941L78.861 85H71.821L71.341 86.78H77.881L76.901 90.42H70.361L69.141 95H64.461ZM77.2535 95L81.1735 80.4H85.7135L81.7935 95H77.2535ZM89.8092 95.26C86.3692 95.26 84.3492 93.02 84.3492 90.18C84.3492 86.84 87.0892 83.82 90.8892 83.82C94.3292 83.82 96.3492 86.06 96.3492 88.9C96.3492 92.24 93.6092 95.26 89.8092 95.26ZM90.0892 91.56C91.2292 91.56 92.0692 90.4 92.0692 89.1C92.0692 88.18 91.4892 87.52 90.6092 87.52C89.4692 87.52 88.6292 88.68 88.6292 89.98C88.6292 90.9 89.2092 91.56 90.0892 91.56ZM97.6479 95.08L97.2879 84.08H101.528L101.468 88.48L103.988 84.04H107.608L107.748 88.52L110.088 84.08H114.468L108.188 95.08H104.448L104.248 90.4L101.488 95.08H97.6479ZM18.802 117.28C16.022 117.28 13.602 116.28 11.902 114.74L14.582 111.54C16.182 112.88 17.822 113.52 19.302 113.52C19.902 113.52 20.322 113.3 20.322 112.9C20.322 112.46 20.062 112.32 18.022 111.56C15.422 110.6 14.202 109.68 14.202 107.62C14.202 104.92 16.682 102.72 20.502 102.72C23.002 102.72 25.222 103.52 26.742 104.82L24.062 108.02C23.002 107.16 21.502 106.46 20.022 106.46C19.422 106.46 19.002 106.62 19.002 107.02C19.002 107.44 19.302 107.52 21.242 108.24C23.622 109.12 25.142 110.12 25.142 112.26C25.142 115.08 22.822 117.28 18.802 117.28ZM30.1931 117.24C27.6331 117.24 26.3931 116.26 26.3931 114.26C26.3931 113.8 26.4731 113.3 26.6131 112.74L27.4531 109.58H26.1731L27.1131 106.08H28.3931L29.1331 103.34H33.6731L32.9331 106.08H35.4531L34.5131 109.58H31.9931L31.3731 111.92C31.2731 112.28 31.2331 112.54 31.2331 112.76C31.2331 113.22 31.5131 113.46 32.1531 113.46C32.5131 113.46 32.8331 113.4 33.4731 113.22L32.4931 116.92C31.7131 117.12 30.9531 117.24 30.1931 117.24ZM33.6198 117L36.5398 106.08H41.0798L40.4998 108.28C41.5198 106.8 42.7798 105.84 44.5398 105.92L43.2598 110.74H42.7798C40.6398 110.74 39.4998 111.88 38.8798 114.28L38.1598 117H33.6198ZM45.6373 117.24C43.9573 117.24 42.7173 116.14 42.7173 114.26C42.7173 111.96 44.5173 110.46 47.5973 110.46C48.4173 110.46 49.2573 110.58 50.0773 110.82L50.1173 110.7C50.1573 110.56 50.1973 110.34 50.1973 110.16C50.1973 109.48 49.6573 109.1 48.5173 109.1C47.5173 109.1 46.2773 109.3 45.5373 109.58L44.9373 106.5C46.1173 106.14 47.8573 105.92 49.4373 105.92C53.0573 105.92 54.7373 107.3 54.7373 109.48C54.7373 109.94 54.6773 110.46 54.5373 111L52.9373 117H48.3973L48.6973 115.9C47.7173 116.72 46.8973 117.24 45.6373 117.24ZM47.8373 114.66C48.5573 114.66 49.3373 113.92 49.5973 112.9L49.7173 112.44C49.4173 112.36 49.1773 112.32 48.8773 112.32C47.7373 112.32 47.0973 112.86 47.0973 113.8C47.0973 114.36 47.4173 114.66 47.8373 114.66ZM59.529 117.24C56.969 117.24 55.729 116.26 55.729 114.26C55.729 113.8 55.809 113.3 55.949 112.74L56.789 109.58H55.509L56.449 106.08H57.729L58.469 103.34H63.009L62.269 106.08H64.789L63.849 109.58H61.329L60.709 111.92C60.609 112.28 60.569 112.54 60.569 112.76C60.569 113.22 60.849 113.46 61.489 113.46C61.849 113.46 62.169 113.4 62.809 113.22L61.829 116.92C61.049 117.12 60.289 117.24 59.529 117.24ZM68.0381 112.6C68.0981 113.48 68.6581 114.06 69.6781 114.06C70.4181 114.06 71.1181 113.76 71.8781 113.18L73.9781 115.48C72.7381 116.58 71.2181 117.26 69.2981 117.26C65.9781 117.26 63.9381 115.32 63.9381 112.46C63.9381 109.14 66.4181 105.82 70.5781 105.82C74.1781 105.82 75.3781 108.26 75.3781 110.56C75.3781 111.28 75.2581 111.98 75.0581 112.6H68.0381ZM68.3181 110.6H71.3981C71.4581 110.44 71.4781 110.28 71.4781 110.12C71.4781 109.52 71.0381 108.96 70.2981 108.96C69.6181 108.96 68.7381 109.38 68.3181 110.6ZM80.0521 120.24C78.0521 120.24 75.7121 119.6 74.3321 118.76L76.1321 116.12C77.4321 116.86 78.8521 117.18 79.9321 117.18C80.9321 117.18 81.5921 116.94 82.1121 116.42C82.4521 116.08 82.7321 115.58 82.9121 114.88L82.9521 114.72C82.1321 115.48 81.0721 115.96 79.7321 115.96C77.8921 115.96 76.0121 114.64 76.0121 112.22C76.0121 109.08 78.0321 105.84 81.4921 105.84C82.9521 105.84 84.1521 106.56 84.7921 107.5L85.1721 106.08H89.7121L87.4121 114.66C86.9521 116.38 86.3521 117.64 85.4321 118.56C84.2721 119.72 82.6121 120.24 80.0521 120.24ZM81.8921 112.92C83.1321 112.92 83.8721 111.82 83.8721 110.76C83.8721 109.98 83.3121 109.3 82.3721 109.3C81.1521 109.3 80.3921 110.36 80.3921 111.48C80.3921 112.26 80.9521 112.92 81.8921 112.92ZM91.1729 105.3L91.9529 102.4H96.6529L95.8729 105.3H91.1729ZM88.1129 117L91.0329 106.08H95.5729L92.6529 117H88.1129ZM99.6885 117.26C97.2085 117.26 95.1885 116.46 93.8485 115.44L95.8485 112.84C96.8285 113.62 98.5285 114.32 99.7685 114.32C100.229 114.32 100.409 114.14 100.409 113.94C100.409 113.58 100.069 113.4 98.7085 112.9C96.9485 112.26 95.7285 111.46 95.7285 109.74C95.7285 107.56 97.5685 105.82 100.849 105.82C103.049 105.82 104.909 106.48 106.009 107.32L104.009 109.92C103.169 109.34 101.769 108.76 100.689 108.76C100.189 108.76 99.9685 108.9 99.9685 109.12C99.9685 109.42 100.209 109.54 101.549 110.02C103.289 110.64 104.649 111.4 104.649 113.32C104.649 115.14 103.369 117.26 99.6885 117.26ZM109.9 117.24C107.34 117.24 106.1 116.26 106.1 114.26C106.1 113.8 106.18 113.3 106.32 112.74L107.16 109.58H105.88L106.82 106.08H108.1L108.84 103.34H113.38L112.64 106.08H115.16L114.22 109.58H111.7L111.08 111.92C110.98 112.28 110.94 112.54 110.94 112.76C110.94 113.22 111.22 113.46 111.86 113.46C112.22 113.46 112.54 113.4 113.18 113.22L112.2 116.92C111.42 117.12 110.66 117.24 109.9 117.24Z" fill="#263E65"/>
<path d="M14.8343 87.98L13.8687 87.7199L13.8672 87.7255L14.8343 87.98ZM16.7143 81V80H15.948L15.7487 80.7399L16.7143 81ZM21.4743 81L22.4399 81.26L22.7791 80H21.4743V81ZM19.5143 88.28L18.5487 88.02L18.5463 88.0287L18.5442 88.0375L19.5143 88.28ZM22.7743 90.56L22.0672 89.8529H22.0672L22.7743 90.56ZM23.7743 88.52L24.7379 88.7877L24.7401 88.7794L23.7743 88.52ZM25.7943 81V80H25.0275L24.8285 80.7406L25.7943 81ZM30.5543 81L31.5199 81.2601L31.8594 80H30.5543V81ZM28.3343 89.24L27.3687 88.9799L27.3686 88.9804L28.3343 89.24ZM26.1343 93.44L25.4272 92.7329L26.1343 93.44ZM20.5943 94.28C18.7689 94.28 17.515 93.8434 16.7327 93.1815C15.9748 92.5404 15.5343 91.5826 15.5343 90.24H13.5343C13.5343 92.0574 14.1538 93.6196 15.4409 94.7085C16.7036 95.7766 18.4798 96.28 20.5943 96.28V94.28ZM15.5343 90.24C15.5343 89.6088 15.6225 88.9143 15.8014 88.2345L13.8672 87.7255C13.6461 88.5657 13.5343 89.4312 13.5343 90.24H15.5343ZM15.7999 88.2401L17.6799 81.2601L15.7487 80.7399L13.8687 87.7199L15.7999 88.2401ZM16.7143 82H21.4743V80H16.7143V82ZM20.5087 80.74L18.5487 88.02L20.4799 88.54L22.4399 81.26L20.5087 80.74ZM18.5442 88.0375C18.4333 88.4808 18.3543 88.948 18.3543 89.38H20.3543C20.3543 89.172 20.3953 88.8792 20.4844 88.5225L18.5442 88.0375ZM18.3543 89.38C18.3543 90.1574 18.588 90.9007 19.1772 91.4355C19.7499 91.9552 20.5078 92.14 21.2743 92.14V90.14C20.8008 90.14 20.5988 90.0248 20.5214 89.9545C20.4606 89.8993 20.3543 89.7626 20.3543 89.38H18.3543ZM21.2743 92.14C22.0785 92.14 22.8868 91.8618 23.4814 91.2671L22.0672 89.8529C21.9019 90.0182 21.6301 90.14 21.2743 90.14V92.14ZM23.4814 91.2671C24.0808 90.6678 24.4198 89.9325 24.7378 88.7876L22.8108 88.2524C22.5288 89.2675 22.3079 89.6122 22.0672 89.8529L23.4814 91.2671ZM24.7401 88.7794L26.7601 81.2594L24.8285 80.7406L22.8085 88.2606L24.7401 88.7794ZM25.7943 82H30.5543V80H25.7943V82ZM29.5887 80.7399L27.3687 88.9799L29.2999 89.5001L31.5199 81.2601L29.5887 80.7399ZM27.3686 88.9804C26.8985 90.7291 26.2468 91.9133 25.4272 92.7329L26.8414 94.1471C27.9818 93.0067 28.7701 91.4709 29.3 89.4996L27.3686 88.9804ZM25.4272 92.7329C24.376 93.7841 22.6918 94.28 20.5943 94.28V96.28C22.9368 96.28 25.2526 95.7359 26.8414 94.1471L25.4272 92.7329ZM27.8915 93.44L27.0989 92.8303L26.4861 93.6269L27.2858 94.2357L27.8915 93.44ZM29.8915 90.84L30.5142 90.0576L29.7188 89.4244L29.0989 90.2303L29.8915 90.84ZM32.7515 90.9L33.0966 89.9614L33.0932 89.9602L32.7515 90.9ZM40.0515 85.32L40.8441 85.9297L41.456 85.1343L40.6584 84.5252L40.0515 85.32ZM38.0515 87.92L37.4833 88.7429L38.265 89.2826L38.8441 88.5297L38.0515 87.92ZM35.5915 88.02L35.2543 88.9614L35.2558 88.962L35.5915 88.02ZM33.7315 94.26C31.4653 94.26 29.6591 93.5287 28.4972 92.6443L27.2858 94.2357C28.8039 95.3913 31.0377 96.26 33.7315 96.26V94.26ZM28.6841 94.0497L30.6841 91.4497L29.0989 90.2303L27.0989 92.8303L28.6841 94.0497ZM29.2687 91.6224C29.8531 92.0875 30.6161 92.5037 31.3923 92.8048C32.1628 93.1037 33.0255 93.32 33.8115 93.32V91.32C33.3575 91.32 32.7502 91.1863 32.1156 90.9402C31.4869 90.6963 30.9099 90.3725 30.5142 90.0576L29.2687 91.6224ZM33.8115 93.32C34.1524 93.32 34.5377 93.2563 34.868 93.0308C35.2368 92.7789 35.4515 92.3782 35.4515 91.94H33.4515C33.4515 91.8369 33.4756 91.722 33.5343 91.6122C33.5931 91.5023 33.6711 91.4263 33.74 91.3792C33.8653 91.2937 33.9306 91.32 33.8115 91.32V93.32ZM35.4515 91.94C35.4515 91.6712 35.3814 91.3848 35.1943 91.1195C35.0274 90.8829 34.81 90.7251 34.6248 90.6143C34.2735 90.4042 33.7526 90.2026 33.0966 89.9614L32.4064 91.8386C32.7437 91.9626 33.0038 92.0617 33.2068 92.1461C33.4142 92.2324 33.5323 92.2913 33.5982 92.3307C33.668 92.3724 33.6206 92.3583 33.56 92.2724C33.4791 92.1577 33.4515 92.0288 33.4515 91.94H35.4515ZM33.0932 89.9602C32.2453 89.6519 31.6593 89.348 31.2875 88.9974C30.9607 88.6893 30.7715 88.3215 30.7715 87.74H28.7715C28.7715 88.8785 29.1923 89.7707 29.9155 90.4526C30.5937 91.0921 31.4977 91.5081 32.4098 91.8398L33.0932 89.9602ZM30.7715 87.74C30.7715 86.9518 31.0953 86.2565 31.7324 85.7383C32.383 85.2093 33.422 84.82 34.8915 84.82V82.82C33.081 82.82 31.56 83.3007 30.4706 84.1867C29.3677 85.0835 28.7715 86.3482 28.7715 87.74H30.7715ZM34.8915 84.82C36.9126 84.82 38.5485 85.4305 39.4446 86.1148L40.6584 84.5252C39.3545 83.5295 37.2704 82.82 34.8915 82.82V84.82ZM39.2589 84.7103L37.2589 87.3103L38.8441 88.5297L40.8441 85.9297L39.2589 84.7103ZM38.6197 87.0971C37.6761 86.4456 36.0799 85.76 34.7315 85.76V87.76C35.5431 87.76 36.7469 88.2344 37.4833 88.7429L38.6197 87.0971ZM34.7315 85.76C34.4174 85.76 34.0443 85.7991 33.7144 85.9746C33.3158 86.1866 33.0115 86.5916 33.0115 87.12H35.0115C35.0115 87.2394 34.9791 87.3812 34.8939 87.5132C34.812 87.64 34.7135 87.7085 34.6536 87.7404C34.5974 87.7703 34.5671 87.7728 34.5872 87.7691C34.6052 87.7659 34.6507 87.76 34.7315 87.76V85.76ZM33.0115 87.12C33.0115 87.3471 33.0625 87.6292 33.2556 87.9001C33.4236 88.1357 33.6428 88.2811 33.8101 88.3748C34.1274 88.5527 34.6151 88.7325 35.2543 88.9614L35.9287 87.0786C35.5943 86.9588 35.3415 86.8661 35.1471 86.7892C34.9473 86.7101 34.8418 86.6604 34.7879 86.6302C34.7277 86.5964 34.8032 86.6255 34.8842 86.7392C34.9905 86.8883 35.0115 87.0429 35.0115 87.12H33.0115ZM35.2558 88.962C36.1092 89.2661 36.7205 89.5576 37.1208 89.922C37.4691 90.239 37.6915 90.6401 37.6915 91.32H39.6915C39.6915 90.0799 39.2339 89.141 38.4672 88.443C37.7525 87.7924 36.8138 87.3939 35.9271 87.078L35.2558 88.962ZM37.6915 91.32C37.6915 92.0013 37.453 92.7131 36.8948 93.2551C36.3435 93.7905 35.3765 94.26 33.7315 94.26V96.26C35.7664 96.26 37.2795 95.6695 38.2882 94.6899C39.29 93.7169 39.6915 92.4587 39.6915 91.32H37.6915ZM43.7607 90.6V89.6H42.6902L42.763 90.668L43.7607 90.6ZM47.6007 91.18L48.3392 90.5057L47.7219 89.8296L46.994 90.3851L47.6007 91.18ZM49.7007 93.48L50.3643 94.2281L51.1232 93.5549L50.4392 92.8057L49.7007 93.48ZM50.7807 90.6V91.6H51.5089L51.7324 90.907L50.7807 90.6ZM44.0407 88.6L43.0952 88.2745L42.6389 89.6H44.0407V88.6ZM47.1207 88.6V89.6H47.8137L48.057 88.9511L47.1207 88.6ZM42.763 90.668C42.8065 91.3049 43.0408 91.9297 43.5408 92.3933C44.0412 92.8573 44.6999 93.06 45.4007 93.06V91.06C45.0816 91.06 44.9502 90.9727 44.9007 90.9267C44.8506 90.8803 44.775 90.7751 44.7584 90.532L42.763 90.668ZM45.4007 93.06C46.4374 93.06 47.3468 92.6317 48.2074 91.975L46.994 90.3851C46.3346 90.8883 45.844 91.06 45.4007 91.06V93.06ZM46.8622 91.8543L48.9622 94.1543L50.4392 92.8057L48.3392 90.5057L46.8622 91.8543ZM49.0371 92.7319C47.9638 93.684 46.6753 94.26 45.0207 94.26V96.26C47.2061 96.26 48.9576 95.476 50.3643 94.2281L49.0371 92.7319ZM45.0207 94.26C43.5531 94.26 42.4719 93.8333 41.7691 93.1932C41.0748 92.5608 40.6607 91.6408 40.6607 90.46H38.6607C38.6607 92.1392 39.2666 93.6192 40.4223 94.6718C41.5695 95.7167 43.1683 96.26 45.0207 96.26V94.26ZM40.6607 90.46C40.6607 87.6075 42.7741 84.82 46.3007 84.82V82.82C41.5073 82.82 38.6607 86.6725 38.6607 90.46H40.6607ZM46.3007 84.82C47.8549 84.82 48.7535 85.3347 49.2834 85.9687C49.8396 86.6343 50.1007 87.5663 50.1007 88.56H52.1007C52.1007 87.2537 51.7618 85.8157 50.8181 84.6863C49.8479 83.5253 48.3465 82.82 46.3007 82.82V84.82ZM50.1007 88.56C50.1007 89.1715 49.9984 89.768 49.829 90.293L51.7324 90.907C51.9631 90.192 52.1007 89.3885 52.1007 88.56H50.1007ZM50.7807 89.6H43.7607V91.6H50.7807V89.6ZM44.0407 89.6H47.1207V87.6H44.0407V89.6ZM48.057 88.9511C48.17 88.65 48.2007 88.3646 48.2007 88.12H46.2007C46.2007 88.1954 46.1915 88.23 46.1844 88.2489L48.057 88.9511ZM48.2007 88.12C48.2007 87.025 47.3686 85.96 46.0207 85.96V87.96C46.0778 87.96 46.1101 87.9704 46.1255 87.9769C46.1413 87.9837 46.1518 87.9917 46.1603 88.0006C46.1788 88.0203 46.2007 88.0611 46.2007 88.12H48.2007ZM46.0207 85.96C44.9064 85.96 43.6517 86.658 43.0952 88.2745L44.9863 88.9255C45.2698 88.102 45.775 87.96 46.0207 87.96V85.96ZM50.4948 95L49.5287 94.7417L49.1922 96H50.4948V95ZM53.4148 84.08V83.08H52.647L52.4487 83.8217L53.4148 84.08ZM57.9548 84.08L58.9217 84.3349L59.2526 83.08H57.9548V84.08ZM57.3748 86.28L56.4078 86.0251L58.1982 86.8475L57.3748 86.28ZM61.4148 83.92L62.3813 84.1767L62.6998 82.9774L61.4602 82.921L61.4148 83.92ZM60.1348 88.74V89.74H60.9039L61.1013 88.9967L60.1348 88.74ZM55.7548 92.28L56.7215 92.5359L56.723 92.5301L55.7548 92.28ZM55.0348 95V96H55.8045L56.0015 95.2559L55.0348 95ZM51.4608 95.2583L54.3808 84.3383L52.4487 83.8217L49.5287 94.7417L51.4608 95.2583ZM53.4148 85.08H57.9548V83.08H53.4148V85.08ZM56.9878 83.8251L56.4078 86.0251L58.3417 86.5349L58.9217 84.3349L56.9878 83.8251ZM58.1982 86.8475C59.1152 85.5169 60.0907 84.8608 61.3694 84.919L61.4602 82.921C59.2189 82.8192 57.6744 84.0831 56.5514 85.7125L58.1982 86.8475ZM60.4483 83.6633L59.1683 88.4833L61.1013 88.9967L62.3813 84.1767L60.4483 83.6633ZM60.1348 87.74H59.6548V89.74H60.1348V87.74ZM59.6548 87.74C58.3945 87.74 57.3103 88.0824 56.4543 88.8772C55.6259 89.6465 55.1195 90.741 54.7866 92.0299L56.723 92.5301C57.01 91.419 57.3837 90.7435 57.8152 90.3428C58.2192 89.9676 58.775 89.74 59.6548 89.74V87.74ZM54.7881 92.0241L54.0681 94.7441L56.0015 95.2559L56.7215 92.5359L54.7881 92.0241ZM55.0348 94H50.4948V96H55.0348V94ZM64.461 95L63.4953 94.7406L63.157 96H64.461V95ZM68.221 81V80H67.4542L67.2553 80.7406L68.221 81ZM79.941 81L80.9065 81.2607L81.2468 80H79.941V81ZM78.861 85V86H79.6268L79.8265 85.2607L78.861 85ZM71.821 85V84H71.055L70.8555 84.7396L71.821 85ZM71.341 86.78L70.3755 86.5196L70.0357 87.78H71.341V86.78ZM77.881 86.78L78.8467 87.04L79.1859 85.78H77.881V86.78ZM76.901 90.42V91.42H77.6674L77.8666 90.68L76.901 90.42ZM70.361 90.42V89.42H69.5925L69.3947 90.1626L70.361 90.42ZM69.141 95V96H69.9095L70.1073 95.2574L69.141 95ZM65.4268 95.2594L69.1868 81.2594L67.2553 80.7406L63.4953 94.7406L65.4268 95.2594ZM68.221 82H79.941V80H68.221V82ZM78.9756 80.7393L77.8956 84.7393L79.8265 85.2607L80.9065 81.2607L78.9756 80.7393ZM78.861 84H71.821V86H78.861V84ZM70.8555 84.7396L70.3755 86.5196L72.3065 87.0404L72.7865 85.2604L70.8555 84.7396ZM71.341 87.78H77.881V85.78H71.341V87.78ZM76.9154 86.52L75.9354 90.16L77.8666 90.68L78.8467 87.04L76.9154 86.52ZM76.901 89.42H70.361V91.42H76.901V89.42ZM69.3947 90.1626L68.1747 94.7426L70.1073 95.2574L71.3273 90.6774L69.3947 90.1626ZM69.141 94H64.461V96H69.141V94ZM77.2535 95L76.2877 94.7407L75.9496 96H77.2535V95ZM81.1735 80.4V79.4H80.4066L80.2077 80.1407L81.1735 80.4ZM85.7135 80.4L86.6793 80.6593L87.0174 79.4H85.7135V80.4ZM81.7935 95V96H82.5605L82.7593 95.2593L81.7935 95ZM78.2193 95.2593L82.1393 80.6593L80.2077 80.1407L76.2877 94.7407L78.2193 95.2593ZM81.1735 81.4H85.7135V79.4H81.1735V81.4ZM84.7477 80.1407L80.8277 94.7407L82.7593 95.2593L86.6793 80.6593L84.7477 80.1407ZM81.7935 94H77.2535V96H81.7935V94ZM89.8092 94.26C88.312 94.26 87.2108 93.7771 86.4886 93.0703C85.7645 92.3617 85.3492 91.3584 85.3492 90.18H83.3492C83.3492 91.8416 83.9438 93.3783 85.0897 94.4997C86.2375 95.6229 87.8663 96.26 89.8092 96.26V94.26ZM85.3492 90.18C85.3492 87.3822 87.6515 84.82 90.8892 84.82V82.82C86.5268 82.82 83.3492 86.2978 83.3492 90.18H85.3492ZM90.8892 84.82C92.3863 84.82 93.4875 85.3029 94.2097 86.0097C94.9338 86.7183 95.3492 87.7216 95.3492 88.9H97.3492C97.3492 87.2384 96.7545 85.7017 95.6086 84.5803C94.4608 83.4571 92.832 82.82 90.8892 82.82V84.82ZM95.3492 88.9C95.3492 91.6978 93.0468 94.26 89.8092 94.26V96.26C94.1715 96.26 97.3492 92.7822 97.3492 88.9H95.3492ZM90.0892 92.56C91.9995 92.56 93.0692 90.7055 93.0692 89.1H91.0692C91.0692 90.0946 90.4588 90.56 90.0892 90.56V92.56ZM93.0692 89.1C93.0692 88.4311 92.8564 87.7835 92.4085 87.2917C91.9528 86.7913 91.3135 86.52 90.6092 86.52V88.52C90.7848 88.52 90.8755 88.5787 90.9298 88.6383C90.9919 88.7065 91.0692 88.8489 91.0692 89.1H93.0692ZM90.6092 86.52C88.6988 86.52 87.6292 88.3746 87.6292 89.98H89.6292C89.6292 88.9855 90.2395 88.52 90.6092 88.52V86.52ZM87.6292 89.98C87.6292 90.6489 87.8419 91.2965 88.2898 91.7883C88.7455 92.2887 89.3848 92.56 90.0892 92.56V90.56C89.9135 90.56 89.8228 90.5013 89.7685 90.4417C89.7064 90.3735 89.6292 90.2311 89.6292 89.98H87.6292ZM97.6479 95.08L96.6484 95.1127L96.6801 96.08H97.6479V95.08ZM97.2879 84.08V83.08H96.2547L96.2884 84.1127L97.2879 84.08ZM101.528 84.08L102.528 84.0936L102.542 83.08H101.528V84.08ZM101.468 88.48L100.468 88.4664L102.338 88.9736L101.468 88.48ZM103.988 84.04V83.04H103.406L103.118 83.5464L103.988 84.04ZM107.608 84.04L108.607 84.0088L108.577 83.04H107.608V84.04ZM107.748 88.52L106.748 88.5512L106.867 92.3369L108.633 88.9862L107.748 88.52ZM110.088 84.08V83.08H109.485L109.203 83.6138L110.088 84.08ZM114.468 84.08L115.336 84.5758L116.19 83.08H114.468V84.08ZM108.188 95.08V96.08H108.768L109.056 95.5758L108.188 95.08ZM104.448 95.08L103.449 95.1227L103.49 96.08H104.448V95.08ZM104.248 90.4L105.247 90.3573L105.103 86.9819L103.387 89.892L104.248 90.4ZM101.488 95.08V96.08H102.059L102.349 95.588L101.488 95.08ZM98.6474 95.0473L98.2874 84.0473L96.2884 84.1127L96.6484 95.1127L98.6474 95.0473ZM97.2879 85.08H101.528V83.08H97.2879V85.08ZM100.528 84.0664L100.468 88.4664L102.468 88.4936L102.528 84.0936L100.528 84.0664ZM102.338 88.9736L104.858 84.5336L103.118 83.5464L100.598 87.9864L102.338 88.9736ZM103.988 85.04H107.608V83.04H103.988V85.04ZM106.608 84.0712L106.748 88.5512L108.747 88.4888L108.607 84.0088L106.608 84.0712ZM108.633 88.9862L110.973 84.5462L109.203 83.6138L106.863 88.0538L108.633 88.9862ZM110.088 85.08H114.468V83.08H110.088V85.08ZM113.599 83.5842L107.319 94.5842L109.056 95.5758L115.336 84.5758L113.599 83.5842ZM108.188 94.08H104.448V96.08H108.188V94.08ZM105.447 95.0373L105.247 90.3573L103.249 90.4427L103.449 95.1227L105.447 95.0373ZM103.387 89.892L100.627 94.572L102.349 95.588L105.109 90.908L103.387 89.892ZM101.488 94.08H97.6479V96.08H101.488V94.08ZM11.902 114.74L11.1353 114.098L10.5177 114.835L11.2306 115.481L11.902 114.74ZM14.582 111.54L15.224 110.773L14.4574 110.131L13.8153 110.898L14.582 111.54ZM18.022 111.56L18.3711 110.623L18.3683 110.622L18.022 111.56ZM26.742 104.82L27.5086 105.462L28.1441 104.703L27.3919 104.06L26.742 104.82ZM24.062 108.02L23.4319 108.797L24.1965 109.417L24.8286 108.662L24.062 108.02ZM21.242 108.24L20.894 109.178L20.8952 109.178L21.242 108.24ZM18.802 116.28C16.2629 116.28 14.0841 115.367 12.5733 113.999L11.2306 115.481C13.1198 117.193 15.781 118.28 18.802 118.28V116.28ZM12.6686 115.382L15.3486 112.182L13.8153 110.898L11.1353 114.098L12.6686 115.382ZM13.9399 112.307C15.6714 113.757 17.5308 114.52 19.302 114.52V112.52C18.1131 112.52 16.6925 112.003 15.224 110.773L13.9399 112.307ZM19.302 114.52C19.7033 114.52 20.1536 114.45 20.5408 114.224C20.9677 113.975 21.322 113.52 21.322 112.9H19.322C19.322 112.816 19.3465 112.718 19.4025 112.63C19.4547 112.548 19.5121 112.508 19.5331 112.496C19.5525 112.485 19.547 112.492 19.5022 112.502C19.459 112.512 19.3926 112.52 19.302 112.52V114.52ZM21.322 112.9C21.322 112.685 21.2891 112.378 21.0889 112.068C20.9076 111.788 20.6542 111.61 20.4375 111.484C20.0269 111.247 19.3554 110.99 18.3711 110.623L17.6729 112.497C18.7286 112.89 19.207 113.083 19.4365 113.216C19.5398 113.275 19.4789 113.262 19.4101 113.155C19.3223 113.02 19.322 112.895 19.322 112.9H21.322ZM18.3683 110.622C17.0858 110.148 16.3014 109.736 15.8311 109.283C15.4212 108.887 15.202 108.415 15.202 107.62H13.202C13.202 108.885 13.5927 109.903 14.4428 110.722C15.2325 111.484 16.3581 112.012 17.6756 112.498L18.3683 110.622ZM15.202 107.62C15.202 105.66 17.0254 103.72 20.502 103.72V101.72C16.3385 101.72 13.202 104.18 13.202 107.62H15.202ZM20.502 103.72C22.7981 103.72 24.7777 104.456 26.092 105.58L27.3919 104.06C25.6662 102.584 23.2058 101.72 20.502 101.72V103.72ZM25.9753 104.178L23.2953 107.378L24.8286 108.662L27.5086 105.462L25.9753 104.178ZM24.692 107.243C23.5083 106.283 21.7929 105.46 20.022 105.46V107.46C21.2111 107.46 22.4956 108.037 23.4319 108.797L24.692 107.243ZM20.022 105.46C19.6623 105.46 19.2243 105.503 18.8397 105.696C18.6355 105.798 18.4177 105.956 18.2517 106.199C18.0801 106.45 18.002 106.735 18.002 107.02H20.002C20.002 107.105 19.9763 107.22 19.9023 107.328C19.8337 107.429 19.7584 107.472 19.7342 107.484C19.7125 107.495 19.7211 107.487 19.7787 107.477C19.8337 107.467 19.914 107.46 20.022 107.46V105.46ZM18.002 107.02C18.002 107.258 18.0486 107.58 18.2795 107.887C18.4766 108.149 18.7394 108.306 18.9389 108.408C19.3251 108.605 19.9725 108.835 20.894 109.178L21.5899 107.302C20.5715 106.925 20.0988 106.755 19.8501 106.627C19.732 106.567 19.7986 106.579 19.8788 106.686C19.9928 106.838 20.002 106.992 20.002 107.02H18.002ZM20.8952 109.178C22.0608 109.609 22.8791 110.024 23.4049 110.511C23.8809 110.952 24.142 111.472 24.142 112.26H26.142C26.142 110.908 25.643 109.858 24.764 109.044C23.9349 108.276 22.8031 107.751 21.5888 107.302L20.8952 109.178ZM24.142 112.26C24.142 113.377 23.6907 114.349 22.8391 115.059C21.9756 115.779 20.6346 116.28 18.802 116.28V118.28C20.9893 118.28 22.8184 117.681 24.1198 116.596C25.4332 115.501 26.142 113.963 26.142 112.26H24.142ZM26.6131 112.74L25.6466 112.483L25.6447 112.49L25.6429 112.497L26.6131 112.74ZM27.4531 109.58L28.4195 109.837L28.7536 108.58H27.4531V109.58ZM26.1731 109.58L25.2073 109.321L24.869 110.58H26.1731V109.58ZM27.1131 106.08V105.08H26.3462L26.1473 105.821L27.1131 106.08ZM28.3931 106.08V107.08H29.1588L29.3585 106.341L28.3931 106.08ZM29.1331 103.34V102.34H28.3673L28.1676 103.079L29.1331 103.34ZM33.6731 103.34L34.6385 103.601L34.979 102.34H33.6731V103.34ZM32.9331 106.08L31.9676 105.819L31.6272 107.08H32.9331V106.08ZM35.4531 106.08L36.4188 106.339L36.7571 105.08H35.4531V106.08ZM34.5131 109.58V110.58H35.2799L35.4788 109.839L34.5131 109.58ZM31.9931 109.58V108.58H31.2235L31.0264 109.324L31.9931 109.58ZM31.3731 111.92L32.3366 112.188L32.3397 112.176L31.3731 111.92ZM33.4731 113.22L34.4397 113.476L34.8881 111.783L33.2023 112.257L33.4731 113.22ZM32.4931 116.92L32.7414 117.889L33.3096 117.743L33.4597 117.176L32.4931 116.92ZM30.1931 116.24C29.0113 116.24 28.3263 116.009 27.9509 115.714C27.6235 115.456 27.3931 115.041 27.3931 114.26H25.3931C25.3931 115.479 25.7826 116.554 26.7152 117.286C27.5998 117.981 28.8148 118.24 30.1931 118.24V116.24ZM27.3931 114.26C27.3931 113.912 27.4541 113.499 27.5832 112.983L25.6429 112.497C25.492 113.101 25.3931 113.688 25.3931 114.26H27.3931ZM27.5795 112.997L28.4195 109.837L26.4866 109.323L25.6466 112.483L27.5795 112.997ZM27.4531 108.58H26.1731V110.58H27.4531V108.58ZM27.1388 109.839L28.0788 106.339L26.1473 105.821L25.2073 109.321L27.1388 109.839ZM27.1131 107.08H28.3931V105.08H27.1131V107.08ZM29.3585 106.341L30.0985 103.601L28.1676 103.079L27.4276 105.819L29.3585 106.341ZM29.1331 104.34H33.6731V102.34H29.1331V104.34ZM32.7076 103.079L31.9676 105.819L33.8985 106.341L34.6385 103.601L32.7076 103.079ZM32.9331 107.08H35.4531V105.08H32.9331V107.08ZM34.4873 105.821L33.5473 109.321L35.4788 109.839L36.4188 106.339L34.4873 105.821ZM34.5131 108.58H31.9931V110.58H34.5131V108.58ZM31.0264 109.324L30.4064 111.664L32.3397 112.176L32.9597 109.836L31.0264 109.324ZM30.4095 111.652C30.2959 112.061 30.2331 112.417 30.2331 112.76H32.2331C32.2331 112.663 32.2502 112.499 32.3366 112.188L30.4095 111.652ZM30.2331 112.76C30.2331 113.204 30.3796 113.712 30.8364 114.07C31.2427 114.388 31.7391 114.46 32.1531 114.46V112.46C32.0519 112.46 32.0013 112.45 31.9867 112.446C31.974 112.443 32.013 112.451 32.0697 112.495C32.1321 112.544 32.1816 112.611 32.2102 112.68C32.2357 112.741 32.2331 112.776 32.2331 112.76H30.2331ZM32.1531 114.46C32.6542 114.46 33.0815 114.369 33.7438 114.183L33.2023 112.257C32.5846 112.431 32.3719 112.46 32.1531 112.46V114.46ZM32.5064 112.964L31.5264 116.664L33.4597 117.176L34.4397 113.476L32.5064 112.964ZM32.2447 115.951C31.5218 116.137 30.8476 116.24 30.1931 116.24V118.24C31.0585 118.24 31.9044 118.103 32.7414 117.889L32.2447 115.951ZM33.6198 117L32.6537 116.742L32.3172 118H33.6198V117ZM36.5398 106.08V105.08H35.772L35.5737 105.822L36.5398 106.08ZM41.0798 106.08L42.0467 106.335L42.3776 105.08H41.0798V106.08ZM40.4998 108.28L39.5328 108.025L41.3232 108.847L40.4998 108.28ZM44.5398 105.92L45.5063 106.177L45.8248 104.977L44.5852 104.921L44.5398 105.92ZM43.2598 110.74V111.74H44.0289L44.2263 110.997L43.2598 110.74ZM38.8798 114.28L39.8465 114.536L39.848 114.53L38.8798 114.28ZM38.1598 117V118H38.9295L39.1265 117.256L38.1598 117ZM34.5858 117.258L37.5058 106.338L35.5737 105.822L32.6537 116.742L34.5858 117.258ZM36.5398 107.08H41.0798V105.08H36.5398V107.08ZM40.1128 105.825L39.5328 108.025L41.4667 108.535L42.0467 106.335L40.1128 105.825ZM41.3232 108.847C42.2402 107.517 43.2157 106.861 44.4944 106.919L44.5852 104.921C42.3439 104.819 40.7994 106.083 39.6764 107.713L41.3232 108.847ZM43.5733 105.663L42.2933 110.483L44.2263 110.997L45.5063 106.177L43.5733 105.663ZM43.2598 109.74H42.7798V111.74H43.2598V109.74ZM42.7798 109.74C41.5195 109.74 40.4353 110.082 39.5793 110.877C38.7509 111.646 38.2445 112.741 37.9116 114.03L39.848 114.53C40.135 113.419 40.5087 112.744 40.9402 112.343C41.3442 111.968 41.9 111.74 42.7798 111.74V109.74ZM37.9131 114.024L37.1931 116.744L39.1265 117.256L39.8465 114.536L37.9131 114.024ZM38.1598 116H33.6198V118H38.1598V116ZM50.0773 110.82L49.7964 111.78L50.7212 112.05L51.026 111.136L50.0773 110.82ZM50.1173 110.7L51.066 111.016L51.0728 110.996L51.0788 110.975L50.1173 110.7ZM45.5373 109.58L44.5557 109.771L44.7824 110.935L45.8912 110.515L45.5373 109.58ZM44.9373 106.5L44.6455 105.544L43.7834 105.807L43.9557 106.691L44.9373 106.5ZM54.5373 111L55.5035 111.258L55.5053 111.251L54.5373 111ZM52.9373 117V118H53.7056L53.9035 117.258L52.9373 117ZM48.3973 117L47.4325 116.737L47.088 118H48.3973V117ZM48.6973 115.9L49.662 116.163L50.501 113.087L48.0556 115.133L48.6973 115.9ZM49.5973 112.9L48.6296 112.648L48.6283 112.653L49.5973 112.9ZM49.7173 112.44L50.6849 112.692L50.936 111.73L49.9749 111.474L49.7173 112.44ZM45.6373 116.24C45.017 116.24 44.5525 116.04 44.2475 115.741C43.9468 115.446 43.7173 114.973 43.7173 114.26H41.7173C41.7173 115.427 42.1077 116.444 42.8471 117.169C43.5821 117.89 44.5776 118.24 45.6373 118.24V116.24ZM43.7173 114.26C43.7173 113.396 44.0426 112.742 44.6238 112.281C45.2307 111.799 46.2073 111.46 47.5973 111.46V109.46C45.9072 109.46 44.4439 109.871 43.3807 110.714C42.2919 111.578 41.7173 112.824 41.7173 114.26H43.7173ZM47.5973 111.46C48.3206 111.46 49.066 111.566 49.7964 111.78L50.3582 109.86C49.4485 109.594 48.514 109.46 47.5973 109.46V111.46ZM51.026 111.136L51.066 111.016L49.1686 110.384L49.1286 110.504L51.026 111.136ZM51.0788 110.975C51.1375 110.769 51.1973 110.455 51.1973 110.16H49.1973C49.1973 110.183 49.1942 110.228 49.1845 110.289C49.1751 110.349 49.1634 110.399 49.1558 110.425L51.0788 110.975ZM51.1973 110.16C51.1973 109.507 50.9121 108.914 50.329 108.536C49.8158 108.203 49.1684 108.1 48.5173 108.1V110.1C49.0061 110.1 49.1987 110.187 49.2406 110.214C49.2488 110.219 49.2272 110.206 49.2084 110.17C49.1909 110.136 49.1973 110.124 49.1973 110.16H51.1973ZM48.5173 108.1C47.4266 108.1 46.0617 108.312 45.1834 108.645L45.8912 110.515C46.4929 110.288 47.6079 110.1 48.5173 110.1V108.1ZM46.5188 109.389L45.9188 106.309L43.9557 106.691L44.5557 109.771L46.5188 109.389ZM45.2291 107.456C46.2898 107.133 47.9266 106.92 49.4373 106.92V104.92C47.788 104.92 45.9447 105.147 44.6455 105.544L45.2291 107.456ZM49.4373 106.92C51.1447 106.92 52.2324 107.25 52.8671 107.699C53.4495 108.111 53.7373 108.682 53.7373 109.48H55.7373C55.7373 108.098 55.185 106.889 54.0225 106.066C52.9122 105.28 51.3498 104.92 49.4373 104.92V106.92ZM53.7373 109.48C53.7373 109.855 53.688 110.291 53.5693 110.749L55.5053 111.251C55.6665 110.629 55.7373 110.025 55.7373 109.48H53.7373ZM53.571 110.742L51.971 116.742L53.9035 117.258L55.5035 111.258L53.571 110.742ZM52.9373 116H48.3973V118H52.9373V116ZM49.362 117.263L49.662 116.163L47.7325 115.637L47.4325 116.737L49.362 117.263ZM48.0556 115.133C47.1338 115.904 46.5419 116.24 45.6373 116.24V118.24C47.2526 118.24 48.3008 117.536 49.339 116.667L48.0556 115.133ZM47.8373 115.66C48.5364 115.66 49.1496 115.31 49.5912 114.875C50.0433 114.43 50.3929 113.827 50.5663 113.147L48.6283 112.653C48.5417 112.993 48.3712 113.27 48.1883 113.45C47.995 113.64 47.8581 113.66 47.8373 113.66V115.66ZM50.5649 113.152L50.6849 112.692L48.7497 112.188L48.6297 112.648L50.5649 113.152ZM49.9749 111.474C49.6141 111.378 49.2854 111.32 48.8773 111.32V113.32C49.0692 113.32 49.2205 113.342 49.4596 113.406L49.9749 111.474ZM48.8773 111.32C48.1644 111.32 47.4608 111.488 46.919 111.94C46.3506 112.414 46.0973 113.087 46.0973 113.8H48.0973C48.0973 113.573 48.164 113.506 48.2006 113.475C48.2638 113.422 48.4501 113.32 48.8773 113.32V111.32ZM46.0973 113.8C46.0973 114.269 46.2336 114.745 46.5716 115.115C46.9152 115.491 47.3803 115.66 47.8373 115.66V113.66C47.8517 113.66 47.8843 113.663 47.927 113.68C47.9711 113.699 48.0138 113.728 48.048 113.765C48.121 113.845 48.0973 113.891 48.0973 113.8H46.0973ZM55.949 112.74L54.9826 112.483L54.9807 112.49L54.9789 112.497L55.949 112.74ZM56.789 109.58L57.7554 109.837L58.0895 108.58H56.789V109.58ZM55.509 109.58L54.5432 109.321L54.205 110.58H55.509V109.58ZM56.449 106.08V105.08H55.6821L55.4832 105.821L56.449 106.08ZM57.729 106.08V107.08H58.4948L58.6944 106.341L57.729 106.08ZM58.469 103.34V102.34H57.7032L57.5036 103.079L58.469 103.34ZM63.009 103.34L63.9744 103.601L64.3149 102.34H63.009V103.34ZM62.269 106.08L61.3036 105.819L60.9631 107.08H62.269V106.08ZM64.789 106.08L65.7548 106.339L66.093 105.08H64.789V106.08ZM63.849 109.58V110.58H64.6159L64.8148 109.839L63.849 109.58ZM61.329 109.58V108.58H60.5595L60.3624 109.324L61.329 109.58ZM60.709 111.92L61.6726 112.188L61.6756 112.176L60.709 111.92ZM62.809 113.22L63.7757 113.476L64.224 111.783L62.5383 112.257L62.809 113.22ZM61.829 116.92L62.0774 117.889L62.6455 117.743L62.7957 117.176L61.829 116.92ZM59.529 116.24C58.3473 116.24 57.6622 116.009 57.2868 115.714C56.9594 115.456 56.729 115.041 56.729 114.26H54.729C54.729 115.479 55.1186 116.554 56.0512 117.286C56.9358 117.981 58.1507 118.24 59.529 118.24V116.24ZM56.729 114.26C56.729 113.912 56.79 113.499 56.9191 112.983L54.9789 112.497C54.828 113.101 54.729 113.688 54.729 114.26H56.729ZM56.9154 112.997L57.7554 109.837L55.8226 109.323L54.9826 112.483L56.9154 112.997ZM56.789 108.58H55.509V110.58H56.789V108.58ZM56.4748 109.839L57.4148 106.339L55.4832 105.821L54.5432 109.321L56.4748 109.839ZM56.449 107.08H57.729V105.08H56.449V107.08ZM58.6944 106.341L59.4344 103.601L57.5036 103.079L56.7636 105.819L58.6944 106.341ZM58.469 104.34H63.009V102.34H58.469V104.34ZM62.0436 103.079L61.3036 105.819L63.2344 106.341L63.9744 103.601L62.0436 103.079ZM62.269 107.08H64.789V105.08H62.269V107.08ZM63.8232 105.821L62.8832 109.321L64.8148 109.839L65.7548 106.339L63.8232 105.821ZM63.849 108.58H61.329V110.58H63.849V108.58ZM60.3624 109.324L59.7424 111.664L61.6756 112.176L62.2956 109.836L60.3624 109.324ZM59.7455 111.652C59.6318 112.061 59.569 112.417 59.569 112.76H61.569C61.569 112.663 61.5862 112.499 61.6725 112.188L59.7455 111.652ZM59.569 112.76C59.569 113.204 59.7156 113.712 60.1723 114.07C60.5786 114.388 61.0751 114.46 61.489 114.46V112.46C61.3878 112.46 61.3373 112.45 61.3227 112.446C61.3099 112.443 61.3489 112.451 61.4057 112.495C61.4681 112.544 61.5175 112.611 61.5461 112.68C61.5716 112.741 61.569 112.776 61.569 112.76H59.569ZM61.489 114.46C61.9901 114.46 62.4174 114.369 63.0797 114.183L62.5383 112.257C61.9206 112.431 61.7079 112.46 61.489 112.46V114.46ZM61.8423 112.964L60.8623 116.664L62.7957 117.176L63.7757 113.476L61.8423 112.964ZM61.5806 115.951C60.8577 116.137 60.1836 116.24 59.529 116.24V118.24C60.3944 118.24 61.2403 118.103 62.0774 117.889L61.5806 115.951ZM68.0381 112.6V111.6H66.9676L67.0404 112.668L68.0381 112.6ZM71.8781 113.18L72.6165 112.506L71.9992 111.83L71.2714 112.385L71.8781 113.18ZM73.9781 115.48L74.6417 116.228L75.4006 115.555L74.7165 114.806L73.9781 115.48ZM75.0581 112.6V113.6H75.7862L76.0098 112.907L75.0581 112.6ZM68.3181 110.6L67.3725 110.274L66.9162 111.6H68.3181V110.6ZM71.3981 110.6V111.6H72.0911L72.3344 110.951L71.3981 110.6ZM67.0404 112.668C67.0838 113.305 67.3181 113.93 67.8181 114.393C68.3186 114.857 68.9772 115.06 69.6781 115.06V113.06C69.3589 113.06 69.2276 112.973 69.178 112.927C69.128 112.88 69.0523 112.775 69.0357 112.532L67.0404 112.668ZM69.6781 115.06C70.7148 115.06 71.6242 114.632 72.4847 113.975L71.2714 112.385C70.612 112.888 70.1213 113.06 69.6781 113.06V115.06ZM71.1396 113.854L73.2396 116.154L74.7165 114.806L72.6165 112.506L71.1396 113.854ZM73.3144 114.732C72.2412 115.684 70.9527 116.26 69.2981 116.26V118.26C71.4835 118.26 73.2349 117.476 74.6417 116.228L73.3144 114.732ZM69.2981 116.26C67.8304 116.26 66.7493 115.833 66.0464 115.193C65.3522 114.561 64.9381 113.641 64.9381 112.46H62.9381C62.9381 114.139 63.544 115.619 64.6997 116.672C65.8469 117.717 67.4457 118.26 69.2981 118.26V116.26ZM64.9381 112.46C64.9381 109.608 67.0515 106.82 70.5781 106.82V104.82C65.7847 104.82 62.9381 108.672 62.9381 112.46H64.9381ZM70.5781 106.82C72.1322 106.82 73.0309 107.335 73.5607 107.969C74.1169 108.634 74.3781 109.566 74.3781 110.56H76.3781C76.3781 109.254 76.0392 107.816 75.0954 106.686C74.1253 105.525 72.6239 104.82 70.5781 104.82V106.82ZM74.3781 110.56C74.3781 111.171 74.2757 111.768 74.1064 112.293L76.0098 112.907C76.2404 112.192 76.3781 111.389 76.3781 110.56H74.3781ZM75.0581 111.6H68.0381V113.6H75.0581V111.6ZM68.3181 111.6H71.3981V109.6H68.3181V111.6ZM72.3344 110.951C72.4473 110.65 72.4781 110.365 72.4781 110.12H70.4781C70.4781 110.195 70.4688 110.23 70.4617 110.249L72.3344 110.951ZM72.4781 110.12C72.4781 109.025 71.6459 107.96 70.2981 107.96V109.96C70.3551 109.96 70.3875 109.97 70.4029 109.977C70.4186 109.984 70.4292 109.992 70.4376 110.001C70.4561 110.02 70.4781 110.061 70.4781 110.12H72.4781ZM70.2981 107.96C69.1837 107.96 67.929 108.658 67.3725 110.274L69.2636 110.926C69.5471 110.102 70.0524 109.96 70.2981 109.96V107.96ZM74.3321 118.76L73.5059 118.197L72.9127 119.067L73.8122 119.614L74.3321 118.76ZM76.1321 116.12L76.6268 115.251L75.8254 114.795L75.3059 115.557L76.1321 116.12ZM82.1121 116.42L82.8192 117.127L82.1121 116.42ZM82.9121 114.88L83.8806 115.129L83.8823 115.123L82.9121 114.88ZM82.9521 114.72L83.9223 114.963L84.7374 111.702L82.2724 113.987L82.9521 114.72ZM84.7921 107.5L83.9655 108.063L85.1939 109.867L85.7581 107.759L84.7921 107.5ZM85.1721 106.08V105.08H84.4046L84.2061 105.821L85.1721 106.08ZM89.7121 106.08L90.678 106.339L91.0155 105.08H89.7121V106.08ZM87.4121 114.66L86.4462 114.401L86.4461 114.402L87.4121 114.66ZM85.4321 118.56L86.1392 119.267L85.4321 118.56ZM80.0521 119.24C78.2125 119.24 76.0568 118.639 74.8521 117.906L73.8122 119.614C75.3674 120.561 77.8918 121.24 80.0521 121.24V119.24ZM75.1584 119.323L76.9584 116.683L75.3059 115.557L73.5059 118.197L75.1584 119.323ZM75.6374 116.989C77.0885 117.815 78.6791 118.18 79.9321 118.18V116.18C79.0252 116.18 77.7757 115.905 76.6268 115.251L75.6374 116.989ZM79.9321 118.18C81.1141 118.18 82.0601 117.886 82.8192 117.127L81.405 115.713C81.1242 115.994 80.7501 116.18 79.9321 116.18V118.18ZM82.8192 117.127C83.3149 116.631 83.6676 115.958 83.8806 115.129L81.9436 114.631C81.7967 115.202 81.5893 115.529 81.405 115.713L82.8192 117.127ZM83.8823 115.123L83.9223 114.963L81.982 114.477L81.942 114.637L83.8823 115.123ZM82.2724 113.987C81.6283 114.583 80.8081 114.96 79.7321 114.96V116.96C81.3361 116.96 82.6359 116.377 83.6319 115.453L82.2724 113.987ZM79.7321 114.96C78.3466 114.96 77.0121 113.995 77.0121 112.22H75.0121C75.0121 115.285 77.4377 116.96 79.7321 116.96V114.96ZM77.0121 112.22C77.0121 109.386 78.8019 106.84 81.4921 106.84V104.84C77.2624 104.84 75.0121 108.774 75.0121 112.22H77.0121ZM81.4921 106.84C82.6213 106.84 83.5118 107.396 83.9655 108.063L85.6187 106.937C84.7925 105.724 83.283 104.84 81.4921 104.84V106.84ZM85.7581 107.759L86.1381 106.339L84.2061 105.821L83.8261 107.241L85.7581 107.759ZM85.1721 107.08H89.7121V105.08H85.1721V107.08ZM88.7462 105.821L86.4462 114.401L88.378 114.919L90.678 106.339L88.7462 105.821ZM86.4461 114.402C86.0078 116.04 85.469 117.109 84.725 117.853L86.1392 119.267C87.2352 118.171 87.8964 116.72 88.3782 114.918L86.4461 114.402ZM84.725 117.853C83.8342 118.744 82.4904 119.24 80.0521 119.24V121.24C82.7339 121.24 84.7101 120.696 86.1392 119.267L84.725 117.853ZM81.8921 113.92C83.8464 113.92 84.8721 112.195 84.8721 110.76H82.8721C82.8721 111.069 82.761 111.379 82.5793 111.597C82.4113 111.798 82.1886 111.92 81.8921 111.92V113.92ZM84.8721 110.76C84.8721 109.464 83.9 108.3 82.3721 108.3V110.3C82.5881 110.3 82.6972 110.372 82.7542 110.431C82.819 110.498 82.8721 110.609 82.8721 110.76H84.8721ZM82.3721 108.3C80.4493 108.3 79.3921 109.971 79.3921 111.48H81.3921C81.3921 110.749 81.855 110.3 82.3721 110.3V108.3ZM79.3921 111.48C79.3921 112.11 79.6204 112.729 80.0758 113.193C80.5373 113.663 81.1773 113.92 81.8921 113.92V111.92C81.6669 111.92 81.5569 111.847 81.5035 111.792C81.4439 111.731 81.3921 111.63 81.3921 111.48H79.3921ZM91.1729 105.3L90.2072 105.04L89.8684 106.3H91.1729V105.3ZM91.9529 102.4V101.4H91.1863L90.9872 102.14L91.9529 102.4ZM96.6529 102.4L97.6186 102.66L97.9574 101.4H96.6529V102.4ZM95.8729 105.3V106.3H96.6395L96.8386 105.56L95.8729 105.3ZM88.1129 117L87.1469 116.742L86.8104 118H88.1129V117ZM91.0329 106.08V105.08H90.2652L90.0669 105.822L91.0329 106.08ZM95.5729 106.08L96.539 106.338L96.8754 105.08H95.5729V106.08ZM92.6529 117V118H93.4207L93.619 117.258L92.6529 117ZM92.1386 105.56L92.9186 102.66L90.9872 102.14L90.2072 105.04L92.1386 105.56ZM91.9529 103.4H96.6529V101.4H91.9529V103.4ZM95.6872 102.14L94.9072 105.04L96.8386 105.56L97.6186 102.66L95.6872 102.14ZM95.8729 104.3H91.1729V106.3H95.8729V104.3ZM89.079 117.258L91.999 106.338L90.0669 105.822L87.1469 116.742L89.079 117.258ZM91.0329 107.08H95.5729V105.08H91.0329V107.08ZM94.6069 105.822L91.6869 116.742L93.619 117.258L96.539 106.338L94.6069 105.822ZM92.6529 116H88.1129V118H92.6529V116ZM93.8485 115.44L93.0559 114.83L92.4431 115.627L93.2429 116.236L93.8485 115.44ZM95.8485 112.84L96.4713 112.058L95.6758 111.424L95.0559 112.23L95.8485 112.84ZM98.7085 112.9L99.0536 111.961L99.0503 111.96L98.7085 112.9ZM106.009 107.32L106.801 107.93L107.413 107.134L106.615 106.525L106.009 107.32ZM104.009 109.92L103.44 110.743L104.222 111.283L104.801 110.53L104.009 109.92ZM101.549 110.02L101.211 110.961L101.213 110.962L101.549 110.02ZM99.6885 116.26C97.4223 116.26 95.6161 115.529 94.4542 114.644L93.2429 116.236C94.7609 117.391 96.9948 118.26 99.6885 118.26V116.26ZM94.6412 116.05L96.6412 113.45L95.0559 112.23L93.0559 114.83L94.6412 116.05ZM95.2258 113.622C95.8102 114.088 96.5731 114.504 97.3494 114.805C98.1198 115.104 98.9826 115.32 99.7685 115.32V113.32C99.3145 113.32 98.7072 113.186 98.0727 112.94C97.444 112.696 96.8669 112.372 96.4713 112.058L95.2258 113.622ZM99.7685 115.32C100.109 115.32 100.495 115.256 100.825 115.031C101.194 114.779 101.409 114.378 101.409 113.94H99.4085C99.4085 113.837 99.4327 113.722 99.4914 113.612C99.5502 113.502 99.6281 113.426 99.6971 113.379C99.8223 113.294 99.8877 113.32 99.7685 113.32V115.32ZM101.409 113.94C101.409 113.671 101.338 113.385 101.151 113.12C100.984 112.883 100.767 112.725 100.582 112.614C100.23 112.404 99.7096 112.203 99.0536 111.961L98.3635 113.839C98.7007 113.963 98.9609 114.062 99.1638 114.146C99.3712 114.232 99.4894 114.291 99.5553 114.331C99.625 114.372 99.5777 114.358 99.517 114.272C99.4362 114.158 99.4085 114.029 99.4085 113.94H101.409ZM99.0503 111.96C98.2024 111.652 97.6163 111.348 97.2445 110.997C96.9177 110.689 96.7285 110.322 96.7285 109.74H94.7285C94.7285 110.878 95.1493 111.771 95.8725 112.453C96.5507 113.092 97.4547 113.508 98.3668 113.84L99.0503 111.96ZM96.7285 109.74C96.7285 108.952 97.0523 108.256 97.6895 107.738C98.34 107.209 99.379 106.82 100.849 106.82V104.82C99.0381 104.82 97.5171 105.301 96.4276 106.187C95.3247 107.084 94.7285 108.348 94.7285 109.74H96.7285ZM100.849 106.82C102.87 106.82 104.506 107.43 105.402 108.115L106.615 106.525C105.312 105.53 103.227 104.82 100.849 104.82V106.82ZM105.216 106.71L103.216 109.31L104.801 110.53L106.801 107.93L105.216 106.71ZM104.577 109.097C103.633 108.446 102.037 107.76 100.689 107.76V109.76C101.5 109.76 102.704 110.234 103.44 110.743L104.577 109.097ZM100.689 107.76C100.374 107.76 100.001 107.799 99.6714 107.975C99.2729 108.187 98.9685 108.592 98.9685 109.12H100.969C100.969 109.239 100.936 109.381 100.851 109.513C100.769 109.64 100.67 109.709 100.611 109.74C100.554 109.77 100.524 109.773 100.544 109.769C100.562 109.766 100.608 109.76 100.689 109.76V107.76ZM98.9685 109.12C98.9685 109.347 99.0196 109.629 99.2127 109.9C99.3806 110.136 99.5999 110.281 99.7671 110.375C100.084 110.553 100.572 110.732 101.211 110.961L101.886 109.079C101.551 108.959 101.299 108.866 101.104 108.789C100.904 108.71 100.799 108.66 100.745 108.63C100.685 108.596 100.76 108.626 100.841 108.739C100.947 108.888 100.969 109.043 100.969 109.12H98.9685ZM101.213 110.962C102.066 111.266 102.678 111.558 103.078 111.922C103.426 112.239 103.649 112.64 103.649 113.32H105.649C105.649 112.08 105.191 111.141 104.424 110.443C103.71 109.792 102.771 109.394 101.884 109.078L101.213 110.962ZM103.649 113.32C103.649 114.001 103.41 114.713 102.852 115.255C102.301 115.791 101.334 116.26 99.6885 116.26V118.26C101.723 118.26 103.237 117.669 104.245 116.69C105.247 115.717 105.649 114.459 105.649 113.32H103.649ZM106.32 112.74L105.354 112.483L105.352 112.49L105.35 112.497L106.32 112.74ZM107.16 109.58L108.127 109.837L108.461 108.58H107.16V109.58ZM105.88 109.58L104.914 109.321L104.576 110.58H105.88V109.58ZM106.82 106.08V105.08H106.053L105.854 105.821L106.82 106.08ZM108.1 106.08V107.08H108.866L109.066 106.341L108.1 106.08ZM108.84 103.34V102.34H108.074L107.875 103.079L108.84 103.34ZM113.38 103.34L114.346 103.601L114.686 102.34H113.38V103.34ZM112.64 106.08L111.675 105.819L111.334 107.08H112.64V106.08ZM115.16 106.08L116.126 106.339L116.464 105.08H115.16V106.08ZM114.22 109.58V110.58H114.987L115.186 109.839L114.22 109.58ZM111.7 109.58V108.58H110.931L110.733 109.324L111.7 109.58ZM111.08 111.92L112.044 112.188L112.047 112.176L111.08 111.92ZM113.18 113.22L114.147 113.476L114.595 111.783L112.909 112.257L113.18 113.22ZM112.2 116.92L112.448 117.889L113.017 117.743L113.167 117.176L112.2 116.92ZM109.9 116.24C108.718 116.24 108.033 116.009 107.658 115.714C107.331 115.456 107.1 115.041 107.1 114.26H105.1C105.1 115.479 105.49 116.554 106.422 117.286C107.307 117.981 108.522 118.24 109.9 118.24V116.24ZM107.1 114.26C107.1 113.912 107.161 113.499 107.29 112.983L105.35 112.497C105.199 113.101 105.1 113.688 105.1 114.26H107.1ZM107.287 112.997L108.127 109.837L106.194 109.323L105.354 112.483L107.287 112.997ZM107.16 108.58H105.88V110.58H107.16V108.58ZM106.846 109.839L107.786 106.339L105.854 105.821L104.914 109.321L106.846 109.839ZM106.82 107.08H108.1V105.08H106.82V107.08ZM109.066 106.341L109.806 103.601L107.875 103.079L107.135 105.819L109.066 106.341ZM108.84 104.34H113.38V102.34H108.84V104.34ZM112.415 103.079L111.675 105.819L113.606 106.341L114.346 103.601L112.415 103.079ZM112.64 107.08H115.16V105.08H112.64V107.08ZM114.194 105.821L113.254 109.321L115.186 109.839L116.126 106.339L114.194 105.821ZM114.22 108.58H111.7V110.58H114.22V108.58ZM110.733 109.324L110.113 111.664L112.047 112.176L112.667 109.836L110.733 109.324ZM110.117 111.652C110.003 112.061 109.94 112.417 109.94 112.76H111.94C111.94 112.663 111.957 112.499 112.044 112.188L110.117 111.652ZM109.94 112.76C109.94 113.204 110.087 113.712 110.543 114.07C110.95 114.388 111.446 114.46 111.86 114.46V112.46C111.759 112.46 111.708 112.45 111.694 112.446C111.681 112.443 111.72 112.451 111.777 112.495C111.839 112.544 111.889 112.611 111.917 112.68C111.943 112.741 111.94 112.776 111.94 112.76H109.94ZM111.86 114.46C112.361 114.46 112.789 114.369 113.451 114.183L112.909 112.257C112.292 112.431 112.079 112.46 111.86 112.46V114.46ZM112.213 112.964L111.233 116.664L113.167 117.176L114.147 113.476L112.213 112.964ZM111.952 115.951C111.229 116.137 110.555 116.24 109.9 116.24V118.24C110.766 118.24 111.611 118.103 112.448 117.889L111.952 115.951Z" fill="#E3C906" mask="url(#path-10-outside-1_174_290)"/>
</svg>
