<svg width="152" height="154" viewBox="0 0 152 154" fill="none" xmlns="http://www.w3.org/2000/svg">
<path d="M75.6 153.2C117.353 153.2 151.2 119.352 151.2 77.5995C151.2 35.8468 117.353 1.99951 75.6 1.99951C33.8473 1.99951 0 35.8468 0 77.5995C0 119.352 33.8473 153.2 75.6 153.2Z" fill="#F8D14F"/>
<path d="M137.7 62.9997C136.7 61.9997 137.5 63.8997 136.3 62.9997C135.5 62.3997 134.6 61.8997 133.8 61.2997C129 58.1997 108.7 42.3997 103.4 47.2997C106 39.3997 109.2 31.2997 111 23.0997C112.9 14.7997 102.7 10.1997 98.6002 11.6997C97.1002 12.1997 95.9002 14.4997 92.9002 21.2997C92.9002 21.2997 78.6002 53.9997 70.8002 68.1997L30.2002 138.1C42.8002 147.6 58.5002 153.2 75.6002 153.2C89.5002 153.2 102.4 149.5 113.6 142.9L125.2 110.9C130.5 105.6 134.2 101.9 138 93.9997C142.7 84.2997 146.3 71.3997 137.7 62.9997Z" fill="#EAA48D"/>
<path d="M93.5 53.3997C93.5 53.3997 108.7 28.3997 111 23.1997C105 43.4997 103.1 50.9997 103.1 50.9997L93.5 53.3997Z" fill="#DB8A75"/>
<path d="M125.3 111L91.5 105.8L116.7 135.4L125.3 111Z" fill="#DB8A75"/>
<path d="M99.4006 87.2999C99.4006 87.2999 109.101 95.2999 116.301 97.1999C140.001 95.2999 134.301 81.7999 134.301 81.7999L106.101 63.3999L95.6006 66.3999L99.4006 87.2999Z" fill="#DB8A75"/>
<path d="M117.2 50C119.9 50 123.2 50.8 126.7 51.9C130.3 53.1 132.6 56.7 132.2 60.6L131.1 70.3C130.7 73.9 129.5 77.4 127.7 80.6L122.8 88.9C120.8 92.3 116.7 93.8 112.9 92.5H112.8C109.1 91.2 107 87.2 108 83.4L117.2 50Z" fill="#EAA48D"/>
<path d="M104.6 45.3C107.1 45 109.7 45.7 113.1 46.6C116.7 47.8 119 51.4 118.6 55.3L117.5 65C117.1 68.6 115.9 72.1 114.1 75.3L109.2 83.6C107.2 87 103.1 88.5 99.3 87.2H99.2C95.5 85.9 93.4 81.9 94.4 78.1L104.6 45.3Z" fill="#EAA48D"/>
<path d="M131.6 56.3999L136.8 58.5999C140.2 59.9999 142.2 63.4999 141.7 67.0999L140.6 75.9999C140.2 79.3999 139 82.6999 137.1 85.5999L134 90.2999C131.5 93.9999 126.7 95.2999 122.7 93.2999L119.7 91.7999L131.6 56.3999Z" fill="#EAA48D"/>
<path d="M119.7 92.2999C119.6 92.2999 119.5 92.2999 119.4 92.1999C119.2 91.9999 119.2 91.6999 119.4 91.4999C119.5 91.3999 127.3 82.8999 129.8 74.6999C132.3 66.4999 131.2 56.5999 131.2 56.4999C131.2 56.1999 131.4 55.9999 131.6 55.8999C131.9 55.8999 132.1 56.0999 132.2 56.2999C132.2 56.3999 133.4 66.4999 130.8 74.8999C128.2 83.2999 120.5 91.6999 120.2 92.0999C119.9 92.1999 119.8 92.2999 119.7 92.2999Z" fill="#263E65"/>
<path d="M105.4 87.0001C105.3 87.0001 105.2 87.0001 105.1 86.9001C104.9 86.7001 104.9 86.4001 105.1 86.2001C105.2 86.1001 113 77.6001 115.5 69.4001C118 61.2001 116.9 51.3001 116.9 51.2001C116.9 50.9001 117.1 50.7001 117.3 50.6001C117.6 50.6001 117.8 50.8001 117.9 51.0001C117.9 51.1001 119.1 61.2001 116.5 69.6001C113.9 78.0001 106.2 86.4001 105.9 86.8001C105.7 87.0001 105.5 87.0001 105.4 87.0001Z" fill="#263E65"/>
<path d="M130.1 94.1001C129.9 94.1001 129.7 93.9001 129.6 93.7001C129.5 93.4001 129.7 93.2001 130 93.1001C132.5 92.5001 135.9 87.9001 138.9 81.4001C141.3 76.1001 141.3 67.2001 141.3 67.1001C141.3 66.8001 141.5 66.6001 141.8 66.6001C142.1 66.6001 142.3 66.8001 142.3 67.1001C142.3 67.5001 142.3 76.3001 139.8 81.8001C137.4 87.2001 133.6 93.3001 130.2 94.1001C130.1 94.1001 130.1 94.1001 130.1 94.1001Z" fill="#263E65"/>
<path opacity="0.8" d="M118.5 89.7C118.5 89.7 119.2 87 116.2 86C113.3 85 112.3 88 112.3 88L118.5 89.7Z" fill="white"/>
<path opacity="0.8" d="M123 90.4998L129.2 92.2998C129.2 92.2998 129.9 89.5999 126.9 88.5999C124 87.4999 123 90.4998 123 90.4998Z" fill="white"/>
<path d="M102.301 94.1995C114.801 82.9995 101.701 71.6995 101.701 71.6995L115.301 73.2995C119.201 73.7995 122.801 71.3995 123.901 67.6995L124.301 66.3995C125.501 62.2995 123.401 57.9995 119.501 56.4995L109.701 52.7995C104.401 50.7995 98.6006 51.0995 93.5006 53.5995L92.4006 54.1995L85.5006 70.2995L80.6006 83.0995L102.301 94.1995Z" fill="#EAA48D"/>
<path opacity="0.8" d="M121.7 59.6997L120.8 68.0997C120.8 68.0997 116.9 68.0997 117.2 62.6997C117.4 57.3997 121.7 59.6997 121.7 59.6997Z" fill="white"/>
<path d="M102.301 94.6998C102.201 94.6998 102.001 94.5998 101.901 94.4998C101.701 94.2998 101.701 93.9998 101.901 93.7998C105.401 90.6998 107.101 87.1998 107.101 83.5998C107.101 77.0998 101.301 72.0998 101.301 71.9998L100.101 70.8998L115.301 72.6998C118.901 73.0998 122.301 70.8998 123.401 67.3998L123.801 66.0998C125.001 62.2998 123.001 58.1998 119.301 56.7998L109.501 53.0998C104.401 51.1998 98.6006 51.3998 93.7006 53.7998L92.6006 54.3998C92.4006 54.4998 92.1006 54.3998 91.9006 54.1998C91.8006 53.9998 91.9006 53.6998 92.1006 53.4998L93.2006 52.8998C98.4006 50.3998 104.401 50.0998 109.801 52.0998L119.601 55.7998C123.801 57.3998 126.101 61.9998 124.701 66.2998L124.301 67.5998C123.101 71.5998 119.201 74.0998 115.101 73.5998L103.001 72.1998C104.801 74.0998 108.101 78.2998 108.101 83.4998C108.101 87.3998 106.301 91.0998 102.501 94.4998C102.501 94.6998 102.401 94.6998 102.301 94.6998Z" fill="#263E65"/>
<path d="M70.0031 4.0493L70.3357 8.03972L73.6742 5.42328C74.6001 5.72937 75.1833 6.1698 75.3631 6.78359L70.5389 10.2258L68.5986 14.8183C67.7181 14.7833 66.9917 14.5207 66.4801 13.9914L68.3814 9.33808L67.661 4.00947C68.3182 3.63018 69.0989 3.64346 70.0031 4.0493Z" fill="#263E65"/>
<path d="M80.1906 7.88659C81.394 8.35759 82.2113 9.16242 82.5709 10.39C82.9305 11.6176 82.7588 12.8862 82.0838 14.3064C81.4089 15.7267 80.4609 16.7217 79.2788 17.3524C78.0966 17.9831 76.8735 18.0825 75.67 17.6115C74.4666 17.1405 73.5994 16.3247 73.1791 15.1362C72.7588 13.9476 72.8416 12.6074 73.5057 11.2371C74.1698 9.8667 75.1287 8.82175 76.4214 8.16291C77.764 7.51494 78.9872 7.41559 80.1906 7.88659ZM79.0881 10.3108C78.5113 10.0807 77.8802 10.1 77.2339 10.4294C76.5984 10.709 76.0582 11.2705 75.6849 12.025C75.3117 12.7796 75.2095 13.4887 75.4283 14.1632C75.6471 14.8377 76.0807 15.2456 76.7074 15.4865C77.295 15.6667 77.937 15.5975 78.4836 15.2464C79.0801 14.9061 79.5595 14.3836 79.872 13.6681C80.2344 12.9634 80.2759 12.2933 80.1568 11.6405C80.0486 10.9378 79.6758 10.491 79.0881 10.3108Z" fill="#263E65"/>
<path d="M85.3698 10.0073C86.2286 10.142 86.9441 10.4546 87.638 10.8668C86.058 14.2841 85.2138 16.2421 84.9837 16.8189C84.8035 17.4065 84.7556 17.8663 84.8791 18.2588C85.0026 18.6514 85.3083 18.9269 85.8461 19.0963C86.373 19.3155 86.8045 19.2527 87.1191 19.0078C87.4336 18.7628 87.72 18.4072 87.9392 17.8803C88.2083 17.3643 89.0027 15.3954 90.4937 11.9066C91.2028 12.0087 91.9292 12.2714 92.6729 12.6945C90.7218 17.3369 89.487 19.889 89.0184 20.3616C88.5498 20.8342 87.9533 21.1745 87.2896 21.3434C86.626 21.5124 85.8561 21.4492 84.9909 21.1041C84.1258 20.759 83.4428 20.2969 82.9638 19.6179C82.4847 18.939 82.2876 18.1647 82.4332 17.2561C82.5181 16.3865 83.5208 13.9406 85.3698 10.0073Z" fill="#263E65"/>
<path d="M66.2037 16.6996L65.324 27.2173C64.5606 27.3645 63.7626 27.1907 62.8303 26.6743L62.9936 24.7247L60.4109 24.1101L59.1331 25.6603C58.0857 25.4322 57.4417 25.0308 57.1015 24.4343L64.1524 16.044C65.0264 15.8686 65.7138 16.0706 66.2037 16.6996ZM63.8845 19.4335L61.6433 22.2889L63.3282 22.708L63.8845 19.4335Z" fill="#263E65"/>
<path d="M71.0354 18.7443C73.308 19.3436 74.8605 19.8906 75.6432 20.3744C76.4758 20.8692 76.866 21.4765 76.8636 22.2074C76.8612 22.9382 76.5551 23.8641 75.9172 24.8745C75.2684 25.9347 74.1904 26.3269 72.6616 26.1507L73.9073 30.0265C73.174 30.7549 72.3434 30.7308 71.4437 30.0647L70.3738 25.8615L69.5866 25.6379L68.0936 28.6561C67.0526 28.6384 66.3978 28.2869 66.0185 27.6297L70.2221 18.8806L71.0354 18.7443ZM71.7763 21.0996L70.4699 23.7406C72.3326 24.3029 73.4733 24.3423 73.8811 23.9087C74.289 23.4752 74.4973 22.9981 74.4454 22.5167C74.4044 21.9853 73.5111 21.5296 71.7763 21.0996Z" fill="#263E65"/>
<path d="M85.6239 23.9583C85.5608 24.7282 85.3199 25.3548 84.7905 25.8664L80.4104 24.3903L79.6811 26.0599L83.2742 27.3124C83.3715 28.065 83.1306 28.6916 82.5232 29.0818L78.8586 27.9182L77.9037 29.9043L82.3836 31.4022C82.4484 32.3044 82.1359 33.0199 81.3962 33.538L75.1035 31.4887C74.9148 31.3953 74.8585 31.1741 74.9128 30.9247L78.8779 22.0715C79.0102 21.9436 79.1426 21.8157 79.3529 21.8092L85.6239 23.9583Z" fill="#263E65"/>
<path d="M53.5072 26.786L53.9609 31.8999L56.0376 28.1206C56.6686 28.1013 57.1348 28.3595 57.5077 28.8064L53.7167 35.6602C53.2136 35.8118 52.7864 35.6143 52.2639 35.1349L51.9599 30.0537L49.7509 33.9608C48.9529 33.7871 48.4368 33.518 48.2136 33.1037L51.9329 26.3388C52.3472 26.1155 52.885 26.2849 53.5072 26.786Z" fill="#263E65"/>
<path d="M60.4915 29.9781C61.0574 30.258 61.3804 30.694 61.5212 31.2471C61.6511 31.85 61.5208 32.4485 61.1193 33.0925C60.7179 33.7364 60.2602 34.1592 59.6746 34.4496C59.0998 34.6901 58.5186 34.7203 57.9527 34.4403C57.3867 34.1604 57.0139 33.7135 56.8731 33.1604C56.7432 32.5575 56.8236 31.9482 57.2251 31.3042C57.6265 30.6602 58.0842 30.2375 58.7197 29.958C59.3552 29.6784 59.9754 29.709 60.4915 29.9781ZM59.7168 31.3766C59.5282 31.2833 59.3178 31.2897 59.0467 31.3352C58.8146 31.4414 58.6216 31.6083 58.4675 31.8359C58.3026 32.1135 58.2483 32.3628 58.3046 32.5841C58.3609 32.8053 58.478 32.9875 58.7165 33.0917C58.9051 33.185 59.1155 33.1785 59.3476 33.0724C59.5797 32.9662 59.7727 32.7992 59.8769 32.5607C60.0309 32.3331 60.0852 32.0837 60.0289 31.8625C60.0334 31.6022 59.9054 31.4699 59.7168 31.3766Z" fill="#263E65"/>
<path d="M77.5105 37.7068C77.8709 36.5315 77.6456 35.6466 76.8846 35.063L70.4447 32.2503C69.0651 33.3081 67.4405 34.0514 65.7532 34.3631C64.4476 34.6012 63.0358 34.6073 61.7173 34.4247C60.7279 36.0898 60.1937 38.0631 60.0043 40.3727L62.6062 41.6184L54.8961 56.3951L52.1554 55.067C51.4008 54.6937 50.5441 55.0296 50.1817 55.7343L47.0805 62.0592C46.7073 62.8137 47.0323 63.7203 47.7977 64.0437L62.8045 71.1771C63.5201 71.4896 64.3659 71.2036 64.7283 70.4989L67.901 64.0851C68.2634 63.3804 67.9385 62.4738 67.2229 62.1613L65.0871 61.1739L77.5105 37.7068Z" fill="#263E65"/>
<mask id="path-26-outside-1_174_393" maskUnits="userSpaceOnUse" x="14" y="110" width="115" height="38" fill="black">
<rect fill="white" x="14" y="110" width="115" height="38"/>
<path d="M49.6828 126.252C46.1368 126.252 44.2288 124.56 44.2288 121.716C44.2288 121.068 44.3188 120.366 44.4988 119.682L46.1908 113.4H50.4748L48.7108 119.952C48.6208 120.312 48.5668 120.654 48.5668 120.942C48.5668 121.986 49.1788 122.526 50.2948 122.526C50.8168 122.526 51.3028 122.346 51.6448 122.004C52.0228 121.626 52.2748 121.14 52.5448 120.168L54.3628 113.4H58.6468L56.6488 120.816C56.1988 122.49 55.5508 123.714 54.6688 124.596C53.4808 125.784 51.6808 126.252 49.6828 126.252ZM56.5563 126L59.9403 113.4H64.1523L60.7683 126H56.5563ZM60.0384 128.304L72.3324 111.636H75.6984L63.4044 128.304H60.0384ZM78.6692 126.252C75.1232 126.252 73.2152 124.56 73.2152 121.716C73.2152 121.068 73.3052 120.366 73.4852 119.682L75.1772 113.4H79.4612L77.6972 119.952C77.6072 120.312 77.5532 120.654 77.5532 120.942C77.5532 121.986 78.1652 122.526 79.2812 122.526C79.8032 122.526 80.2892 122.346 80.6312 122.004C81.0092 121.626 81.2612 121.14 81.5312 120.168L83.3492 113.4H87.6332L85.6352 120.816C85.1852 122.49 84.5372 123.714 83.6552 124.596C82.4672 125.784 80.6672 126.252 78.6692 126.252ZM84.3726 126L90.5646 119.376L88.0266 113.4H92.5806L93.7506 116.46L96.4686 113.4H101.347L95.5866 119.556L98.3406 126H93.7866L92.4366 122.436L89.2506 126H84.3726ZM16.1609 146L19.5449 133.4H23.7029L25.2149 137.828L29.1029 133.4H33.7289L30.3449 146H26.1509L27.8249 139.754L23.7209 144.236H23.6489L21.9569 139.754L20.2829 146H16.1609ZM34.8855 146.216C33.3735 146.216 32.2575 145.226 32.2575 143.534C32.2575 141.464 33.8775 140.114 36.6495 140.114C37.3875 140.114 38.1435 140.222 38.8815 140.438L38.9175 140.33C38.9535 140.204 38.9895 140.006 38.9895 139.844C38.9895 139.232 38.5035 138.89 37.4775 138.89C36.5775 138.89 35.4615 139.07 34.7955 139.322L34.2555 136.55C35.3175 136.226 36.8835 136.028 38.3055 136.028C41.5636 136.028 43.0756 137.27 43.0756 139.232C43.0756 139.646 43.0216 140.114 42.8956 140.6L41.4556 146H37.3695L37.6395 145.01C36.7575 145.748 36.0195 146.216 34.8855 146.216ZM36.8655 143.894C37.5135 143.894 38.2155 143.228 38.4495 142.31L38.5575 141.896C38.2875 141.824 38.0715 141.788 37.8015 141.788C36.7755 141.788 36.1995 142.274 36.1995 143.12C36.1995 143.624 36.4875 143.894 36.8655 143.894ZM47.602 146.234C45.37 146.234 43.552 145.514 42.346 144.596L44.146 142.256C45.028 142.958 46.558 143.588 47.674 143.588C48.088 143.588 48.25 143.426 48.25 143.246C48.25 142.922 47.944 142.76 46.72 142.31C45.136 141.734 44.038 141.014 44.038 139.466C44.038 137.504 45.694 135.938 48.646 135.938C50.626 135.938 52.3 136.532 53.29 137.288L51.49 139.628C50.734 139.106 49.474 138.584 48.502 138.584C48.052 138.584 47.854 138.71 47.854 138.908C47.854 139.178 48.07 139.286 49.276 139.718C50.842 140.276 52.066 140.96 52.066 142.688C52.066 144.326 50.914 146.234 47.602 146.234ZM56.7924 146.216C54.4884 146.216 53.3724 145.334 53.3724 143.534C53.3724 143.12 53.4444 142.67 53.5704 142.166L54.3264 139.322H53.1744L54.0204 136.172H55.1724L55.8384 133.706H59.9244L59.2584 136.172H61.5264L60.6804 139.322H58.4124L57.8544 141.428C57.7644 141.752 57.7284 141.986 57.7284 142.184C57.7284 142.598 57.9804 142.814 58.5564 142.814C58.8804 142.814 59.1684 142.76 59.7444 142.598L58.8624 145.928C58.1604 146.108 57.4764 146.216 56.7924 146.216ZM64.4506 142.04C64.5046 142.832 65.0086 143.354 65.9266 143.354C66.5926 143.354 67.2226 143.084 67.9066 142.562L69.7966 144.632C68.6806 145.622 67.3126 146.234 65.5846 146.234C62.5966 146.234 60.7606 144.488 60.7606 141.914C60.7606 138.926 62.9926 135.938 66.7366 135.938C69.9766 135.938 71.0566 138.134 71.0566 140.204C71.0566 140.852 70.9486 141.482 70.7686 142.04H64.4506ZM64.7026 140.24H67.4746C67.5286 140.096 67.5466 139.952 67.5466 139.808C67.5466 139.268 67.1506 138.764 66.4846 138.764C65.8726 138.764 65.0806 139.142 64.7026 140.24ZM70.5112 146L73.1392 136.172H77.2252L76.7032 138.152C77.6212 136.82 78.7552 135.956 80.3392 136.028L79.1872 140.366H78.7552C76.8292 140.366 75.8032 141.392 75.2452 143.552L74.5972 146H70.5112ZM78.4565 146L81.0845 136.172H85.1705L84.8645 137.324C85.5125 136.586 86.5205 135.938 87.7445 135.938C89.0945 135.938 89.9225 136.622 90.2825 137.558C91.2725 136.514 92.4965 135.938 93.8825 135.938C95.8625 135.938 96.8345 137.108 96.8345 138.908C96.8345 139.412 96.7445 140.006 96.5825 140.6L95.1425 146H91.0565L92.3705 141.104C92.4425 140.852 92.4785 140.564 92.4785 140.366C92.4785 139.844 92.2445 139.502 91.6505 139.502C90.9125 139.502 90.4445 140.024 90.1565 141.104L88.8425 146H84.7565L86.0705 141.104C86.1425 140.852 86.1785 140.564 86.1785 140.366C86.1785 139.844 85.9445 139.502 85.3505 139.502C84.6125 139.502 84.1445 140.024 83.8565 141.104L82.5425 146H78.4565ZM99.018 135.47L99.72 132.86H103.95L103.248 135.47H99.018ZM96.264 146L98.892 136.172H102.978L100.35 146H96.264ZM101.642 146L104.27 136.172H108.356L108.032 137.396C108.68 136.604 109.742 135.938 110.966 135.938C112.766 135.938 113.774 137.108 113.774 138.944C113.774 139.448 113.702 140.006 113.54 140.6L112.1 146H108.014L109.328 141.104C109.4 140.852 109.436 140.564 109.436 140.366C109.436 139.844 109.166 139.502 108.572 139.502C107.762 139.502 107.33 140.042 107.042 141.104L105.728 146H101.642ZM117.367 146.234C115.621 146.234 114.145 144.83 114.145 142.4C114.145 138.818 116.431 135.938 119.311 135.938C120.715 135.938 121.633 136.568 122.191 137.432L123.415 132.86H127.501L123.991 146H119.905L120.175 144.992C119.473 145.712 118.411 146.234 117.367 146.234ZM119.527 142.904C120.643 142.904 121.453 141.842 121.453 140.69C121.453 139.844 120.895 139.286 120.139 139.286C119.023 139.286 118.213 140.348 118.213 141.5C118.213 142.346 118.771 142.904 119.527 142.904Z"/>
</mask>
<path d="M49.6828 126.252C46.1368 126.252 44.2288 124.56 44.2288 121.716C44.2288 121.068 44.3188 120.366 44.4988 119.682L46.1908 113.4H50.4748L48.7108 119.952C48.6208 120.312 48.5668 120.654 48.5668 120.942C48.5668 121.986 49.1788 122.526 50.2948 122.526C50.8168 122.526 51.3028 122.346 51.6448 122.004C52.0228 121.626 52.2748 121.14 52.5448 120.168L54.3628 113.4H58.6468L56.6488 120.816C56.1988 122.49 55.5508 123.714 54.6688 124.596C53.4808 125.784 51.6808 126.252 49.6828 126.252ZM56.5563 126L59.9403 113.4H64.1523L60.7683 126H56.5563ZM60.0384 128.304L72.3324 111.636H75.6984L63.4044 128.304H60.0384ZM78.6692 126.252C75.1232 126.252 73.2152 124.56 73.2152 121.716C73.2152 121.068 73.3052 120.366 73.4852 119.682L75.1772 113.4H79.4612L77.6972 119.952C77.6072 120.312 77.5532 120.654 77.5532 120.942C77.5532 121.986 78.1652 122.526 79.2812 122.526C79.8032 122.526 80.2892 122.346 80.6312 122.004C81.0092 121.626 81.2612 121.14 81.5312 120.168L83.3492 113.4H87.6332L85.6352 120.816C85.1852 122.49 84.5372 123.714 83.6552 124.596C82.4672 125.784 80.6672 126.252 78.6692 126.252ZM84.3726 126L90.5646 119.376L88.0266 113.4H92.5806L93.7506 116.46L96.4686 113.4H101.347L95.5866 119.556L98.3406 126H93.7866L92.4366 122.436L89.2506 126H84.3726ZM16.1609 146L19.5449 133.4H23.7029L25.2149 137.828L29.1029 133.4H33.7289L30.3449 146H26.1509L27.8249 139.754L23.7209 144.236H23.6489L21.9569 139.754L20.2829 146H16.1609ZM34.8855 146.216C33.3735 146.216 32.2575 145.226 32.2575 143.534C32.2575 141.464 33.8775 140.114 36.6495 140.114C37.3875 140.114 38.1435 140.222 38.8815 140.438L38.9175 140.33C38.9535 140.204 38.9895 140.006 38.9895 139.844C38.9895 139.232 38.5035 138.89 37.4775 138.89C36.5775 138.89 35.4615 139.07 34.7955 139.322L34.2555 136.55C35.3175 136.226 36.8835 136.028 38.3055 136.028C41.5636 136.028 43.0756 137.27 43.0756 139.232C43.0756 139.646 43.0216 140.114 42.8956 140.6L41.4556 146H37.3695L37.6395 145.01C36.7575 145.748 36.0195 146.216 34.8855 146.216ZM36.8655 143.894C37.5135 143.894 38.2155 143.228 38.4495 142.31L38.5575 141.896C38.2875 141.824 38.0715 141.788 37.8015 141.788C36.7755 141.788 36.1995 142.274 36.1995 143.12C36.1995 143.624 36.4875 143.894 36.8655 143.894ZM47.602 146.234C45.37 146.234 43.552 145.514 42.346 144.596L44.146 142.256C45.028 142.958 46.558 143.588 47.674 143.588C48.088 143.588 48.25 143.426 48.25 143.246C48.25 142.922 47.944 142.76 46.72 142.31C45.136 141.734 44.038 141.014 44.038 139.466C44.038 137.504 45.694 135.938 48.646 135.938C50.626 135.938 52.3 136.532 53.29 137.288L51.49 139.628C50.734 139.106 49.474 138.584 48.502 138.584C48.052 138.584 47.854 138.71 47.854 138.908C47.854 139.178 48.07 139.286 49.276 139.718C50.842 140.276 52.066 140.96 52.066 142.688C52.066 144.326 50.914 146.234 47.602 146.234ZM56.7924 146.216C54.4884 146.216 53.3724 145.334 53.3724 143.534C53.3724 143.12 53.4444 142.67 53.5704 142.166L54.3264 139.322H53.1744L54.0204 136.172H55.1724L55.8384 133.706H59.9244L59.2584 136.172H61.5264L60.6804 139.322H58.4124L57.8544 141.428C57.7644 141.752 57.7284 141.986 57.7284 142.184C57.7284 142.598 57.9804 142.814 58.5564 142.814C58.8804 142.814 59.1684 142.76 59.7444 142.598L58.8624 145.928C58.1604 146.108 57.4764 146.216 56.7924 146.216ZM64.4506 142.04C64.5046 142.832 65.0086 143.354 65.9266 143.354C66.5926 143.354 67.2226 143.084 67.9066 142.562L69.7966 144.632C68.6806 145.622 67.3126 146.234 65.5846 146.234C62.5966 146.234 60.7606 144.488 60.7606 141.914C60.7606 138.926 62.9926 135.938 66.7366 135.938C69.9766 135.938 71.0566 138.134 71.0566 140.204C71.0566 140.852 70.9486 141.482 70.7686 142.04H64.4506ZM64.7026 140.24H67.4746C67.5286 140.096 67.5466 139.952 67.5466 139.808C67.5466 139.268 67.1506 138.764 66.4846 138.764C65.8726 138.764 65.0806 139.142 64.7026 140.24ZM70.5112 146L73.1392 136.172H77.2252L76.7032 138.152C77.6212 136.82 78.7552 135.956 80.3392 136.028L79.1872 140.366H78.7552C76.8292 140.366 75.8032 141.392 75.2452 143.552L74.5972 146H70.5112ZM78.4565 146L81.0845 136.172H85.1705L84.8645 137.324C85.5125 136.586 86.5205 135.938 87.7445 135.938C89.0945 135.938 89.9225 136.622 90.2825 137.558C91.2725 136.514 92.4965 135.938 93.8825 135.938C95.8625 135.938 96.8345 137.108 96.8345 138.908C96.8345 139.412 96.7445 140.006 96.5825 140.6L95.1425 146H91.0565L92.3705 141.104C92.4425 140.852 92.4785 140.564 92.4785 140.366C92.4785 139.844 92.2445 139.502 91.6505 139.502C90.9125 139.502 90.4445 140.024 90.1565 141.104L88.8425 146H84.7565L86.0705 141.104C86.1425 140.852 86.1785 140.564 86.1785 140.366C86.1785 139.844 85.9445 139.502 85.3505 139.502C84.6125 139.502 84.1445 140.024 83.8565 141.104L82.5425 146H78.4565ZM99.018 135.47L99.72 132.86H103.95L103.248 135.47H99.018ZM96.264 146L98.892 136.172H102.978L100.35 146H96.264ZM101.642 146L104.27 136.172H108.356L108.032 137.396C108.68 136.604 109.742 135.938 110.966 135.938C112.766 135.938 113.774 137.108 113.774 138.944C113.774 139.448 113.702 140.006 113.54 140.6L112.1 146H108.014L109.328 141.104C109.4 140.852 109.436 140.564 109.436 140.366C109.436 139.844 109.166 139.502 108.572 139.502C107.762 139.502 107.33 140.042 107.042 141.104L105.728 146H101.642ZM117.367 146.234C115.621 146.234 114.145 144.83 114.145 142.4C114.145 138.818 116.431 135.938 119.311 135.938C120.715 135.938 121.633 136.568 122.191 137.432L123.415 132.86H127.501L123.991 146H119.905L120.175 144.992C119.473 145.712 118.411 146.234 117.367 146.234ZM119.527 142.904C120.643 142.904 121.453 141.842 121.453 140.69C121.453 139.844 120.895 139.286 120.139 139.286C119.023 139.286 118.213 140.348 118.213 141.5C118.213 142.346 118.771 142.904 119.527 142.904Z" fill="#263E65"/>
<path d="M44.4988 119.682L43.5332 119.422L43.5317 119.428L44.4988 119.682ZM46.1908 113.4V112.4H45.4245L45.2252 113.14L46.1908 113.4ZM50.4748 113.4L51.4404 113.66L51.7797 112.4H50.4748V113.4ZM48.7108 119.952L47.7452 119.692L47.7429 119.701L47.7407 119.709L48.7108 119.952ZM51.6448 122.004L50.9377 121.297L51.6448 122.004ZM52.5448 120.168L53.5084 120.436L53.5106 120.427L52.5448 120.168ZM54.3628 113.4V112.4H53.596L53.3971 113.141L54.3628 113.4ZM58.6468 113.4L59.6124 113.66L59.9519 112.4H58.6468V113.4ZM56.6488 120.816L55.6832 120.556L55.6831 120.556L56.6488 120.816ZM54.6688 124.596L53.9617 123.889L54.6688 124.596ZM49.6828 125.252C48.0544 125.252 46.9521 124.862 46.2719 124.287C45.6163 123.732 45.2288 122.901 45.2288 121.716H43.2288C43.2288 123.375 43.7953 124.812 44.9802 125.814C46.1406 126.796 47.7653 127.252 49.6828 127.252V125.252ZM45.2288 121.716C45.2288 121.157 45.307 120.54 45.4659 119.936L43.5317 119.428C43.3306 120.192 43.2288 120.979 43.2288 121.716H45.2288ZM45.4644 119.942L47.1564 113.66L45.2252 113.14L43.5332 119.422L45.4644 119.942ZM46.1908 114.4H50.4748V112.4H46.1908V114.4ZM49.5092 113.14L47.7452 119.692L49.6764 120.212L51.4404 113.66L49.5092 113.14ZM47.7407 119.709C47.6398 120.113 47.5668 120.542 47.5668 120.942H49.5668C49.5668 120.766 49.6018 120.511 49.681 120.195L47.7407 119.709ZM47.5668 120.942C47.5668 121.661 47.7835 122.361 48.3402 122.866C48.8804 123.356 49.5903 123.526 50.2948 123.526V121.526C49.8833 121.526 49.7293 121.426 49.6844 121.385C49.6561 121.359 49.5668 121.267 49.5668 120.942H47.5668ZM50.2948 123.526C51.041 123.526 51.7953 123.268 52.3519 122.711L50.9377 121.297C50.8104 121.424 50.5926 121.526 50.2948 121.526V123.526ZM52.3519 122.711C52.9093 122.154 53.2203 121.472 53.5083 120.436L51.5813 119.9C51.3293 120.808 51.1364 121.098 50.9377 121.297L52.3519 122.711ZM53.5106 120.427L55.3286 113.659L53.3971 113.141L51.5791 119.909L53.5106 120.427ZM54.3628 114.4H58.6468V112.4H54.3628V114.4ZM57.6812 113.14L55.6832 120.556L57.6144 121.076L59.6124 113.66L57.6812 113.14ZM55.6831 120.556C55.263 122.119 54.6833 123.167 53.9617 123.889L55.3759 125.303C56.4183 124.261 57.1346 122.861 57.6145 121.076L55.6831 120.556ZM53.9617 123.889C53.0425 124.808 51.5583 125.252 49.6828 125.252V127.252C51.8033 127.252 53.9191 126.76 55.3759 125.303L53.9617 123.889ZM56.5563 126L55.5905 125.741L55.2523 127H56.5563V126ZM59.9403 113.4V112.4H59.1734L58.9745 113.141L59.9403 113.4ZM64.1523 113.4L65.1181 113.659L65.4563 112.4H64.1523V113.4ZM60.7683 126V127H61.5352L61.7341 126.259L60.7683 126ZM57.5221 126.259L60.9061 113.659L58.9745 113.141L55.5905 125.741L57.5221 126.259ZM59.9403 114.4H64.1523V112.4H59.9403V114.4ZM63.1865 113.141L59.8025 125.741L61.7341 126.259L65.1181 113.659L63.1865 113.141ZM60.7683 125H56.5563V127H60.7683V125ZM60.0384 128.304L59.2337 127.71L58.0583 129.304H60.0384V128.304ZM72.3324 111.636V110.636H71.8274L71.5277 111.042L72.3324 111.636ZM75.6984 111.636L76.5032 112.23L77.6786 110.636H75.6984V111.636ZM63.4044 128.304V129.304H63.9094L64.2092 128.898L63.4044 128.304ZM60.8432 128.898L73.1372 112.23L71.5277 111.042L59.2337 127.71L60.8432 128.898ZM72.3324 112.636H75.6984V110.636H72.3324V112.636ZM74.8937 111.042L62.5997 127.71L64.2092 128.898L76.5032 112.23L74.8937 111.042ZM63.4044 127.304H60.0384V129.304H63.4044V127.304ZM73.4852 119.682L72.5195 119.422L72.5181 119.428L73.4852 119.682ZM75.1772 113.4V112.4H74.4109L74.2116 113.14L75.1772 113.4ZM79.4612 113.4L80.4268 113.66L80.766 112.4H79.4612V113.4ZM77.6972 119.952L76.7315 119.692L76.7292 119.701L76.727 119.709L77.6972 119.952ZM80.6312 122.004L79.924 121.297L80.6312 122.004ZM81.5312 120.168L82.4947 120.436L82.4969 120.427L81.5312 120.168ZM83.3492 113.4V112.4H82.5823L82.3834 113.141L83.3492 113.4ZM87.6332 113.4L88.5987 113.66L88.9382 112.4H87.6332V113.4ZM85.6352 120.816L84.6696 120.556L84.6694 120.556L85.6352 120.816ZM83.6552 124.596L82.948 123.889L83.6552 124.596ZM78.6692 125.252C77.0407 125.252 75.9384 124.862 75.2583 124.287C74.6026 123.732 74.2151 122.901 74.2151 121.716H72.2151C72.2151 123.375 72.7817 124.812 73.9665 125.814C75.1269 126.796 76.7516 127.252 78.6692 127.252V125.252ZM74.2151 121.716C74.2151 121.157 74.2933 120.54 74.4522 119.936L72.5181 119.428C72.317 120.192 72.2151 120.979 72.2151 121.716H74.2151ZM74.4507 119.942L76.1427 113.66L74.2116 113.14L72.5196 119.422L74.4507 119.942ZM75.1772 114.4H79.4612V112.4H75.1772V114.4ZM78.4955 113.14L76.7315 119.692L78.6628 120.212L80.4268 113.66L78.4955 113.14ZM76.727 119.709C76.6262 120.113 76.5532 120.542 76.5532 120.942H78.5532C78.5532 120.766 78.5881 120.511 78.6673 120.195L76.727 119.709ZM76.5532 120.942C76.5532 121.661 76.7699 122.361 77.3265 122.866C77.8667 123.356 78.5766 123.526 79.2812 123.526V121.526C78.8697 121.526 78.7156 121.426 78.6708 121.385C78.6424 121.359 78.5532 121.267 78.5532 120.942H76.5532ZM79.2812 123.526C80.0274 123.526 80.7816 123.268 81.3383 122.711L79.924 121.297C79.7967 121.424 79.5789 121.526 79.2812 121.526V123.526ZM81.3383 122.711C81.8956 122.154 82.2067 121.472 82.4947 120.436L80.5676 119.9C80.3156 120.808 80.1227 121.098 79.924 121.297L81.3383 122.711ZM82.4969 120.427L84.3149 113.659L82.3834 113.141L80.5654 119.909L82.4969 120.427ZM83.3492 114.4H87.6332V112.4H83.3492V114.4ZM86.6676 113.14L84.6696 120.556L86.6007 121.076L88.5987 113.66L86.6676 113.14ZM84.6694 120.556C84.2494 122.119 83.6697 123.167 82.948 123.889L84.3623 125.303C85.4046 124.261 86.1209 122.861 86.6009 121.076L84.6694 120.556ZM82.948 123.889C82.0288 124.808 80.5446 125.252 78.6692 125.252V127.252C80.7897 127.252 82.9055 126.76 84.3623 125.303L82.948 123.889ZM84.3726 126L83.6421 125.317L82.069 127H84.3726V126ZM90.5646 119.376L91.2951 120.059L91.7393 119.584L91.4851 118.985L90.5646 119.376ZM88.0266 113.4V112.4H86.5155L87.1062 113.791L88.0266 113.4ZM92.5806 113.4L93.5147 113.043L93.2689 112.4H92.5806V113.4ZM93.7506 116.46L92.8166 116.817L93.4047 118.355L94.4983 117.124L93.7506 116.46ZM96.4686 113.4V112.4H96.0193L95.721 112.736L96.4686 113.4ZM101.347 113.4L102.077 114.083L103.652 112.4H101.347V113.4ZM95.5866 119.556L94.8564 118.873L94.4107 119.349L94.6671 119.949L95.5866 119.556ZM98.3406 126V127H99.8555L99.2602 125.607L98.3406 126ZM93.7866 126L92.8515 126.354L93.0961 127H93.7866V126ZM92.4366 122.436L93.3718 122.082L92.7885 120.542L91.6911 121.77L92.4366 122.436ZM89.2506 126V127H89.698L89.9962 126.666L89.2506 126ZM85.1032 126.683L91.2951 120.059L89.8341 118.693L83.6421 125.317L85.1032 126.683ZM91.4851 118.985L88.9471 113.009L87.1062 113.791L89.6442 119.767L91.4851 118.985ZM88.0266 114.4H92.5806V112.4H88.0266V114.4ZM91.6466 113.757L92.8166 116.817L94.6847 116.103L93.5147 113.043L91.6466 113.757ZM94.4983 117.124L97.2163 114.064L95.721 112.736L93.003 115.796L94.4983 117.124ZM96.4686 114.4H101.347V112.4H96.4686V114.4ZM100.616 112.717L94.8564 118.873L96.3168 120.239L102.077 114.083L100.616 112.717ZM94.6671 119.949L97.4211 126.393L99.2602 125.607L96.5062 119.163L94.6671 119.949ZM98.3406 125H93.7866V127H98.3406V125ZM94.7218 125.646L93.3718 122.082L91.5015 122.79L92.8515 126.354L94.7218 125.646ZM91.6911 121.77L88.5051 125.334L89.9962 126.666L93.1822 123.102L91.6911 121.77ZM89.2506 125H84.3726V127H89.2506V125ZM16.1609 146L15.1951 145.741L14.8569 147H16.1609V146ZM19.5449 133.4V132.4H18.778L18.5791 133.141L19.5449 133.4ZM23.7029 133.4L24.6493 133.077L24.4181 132.4H23.7029V133.4ZM25.2149 137.828L24.2686 138.151L24.8267 139.786L25.9663 138.488L25.2149 137.828ZM29.1029 133.4V132.4H28.6502L28.3515 132.74L29.1029 133.4ZM33.7289 133.4L34.6947 133.659L35.0329 132.4H33.7289V133.4ZM30.3449 146V147H31.1118L31.3107 146.259L30.3449 146ZM26.1509 146L25.185 145.741L24.8476 147H26.1509V146ZM27.8249 139.754L28.7908 140.013L27.0874 139.079L27.8249 139.754ZM23.7209 144.236V145.236H24.1611L24.4584 144.911L23.7209 144.236ZM23.6489 144.236L22.7134 144.589L22.9575 145.236H23.6489V144.236ZM21.9569 139.754L22.8925 139.401L21.7952 136.494L20.991 139.495L21.9569 139.754ZM20.2829 146V147H21.0502L21.2488 146.259L20.2829 146ZM17.1267 146.259L20.5107 133.659L18.5791 133.141L15.1951 145.741L17.1267 146.259ZM19.5449 134.4H23.7029V132.4H19.5449V134.4ZM22.7566 133.723L24.2686 138.151L26.1613 137.505L24.6493 133.077L22.7566 133.723ZM25.9663 138.488L29.8543 134.06L28.3515 132.74L24.4635 137.168L25.9663 138.488ZM29.1029 134.4H33.7289V132.4H29.1029V134.4ZM32.7631 133.141L29.3791 145.741L31.3107 146.259L34.6947 133.659L32.7631 133.141ZM30.3449 145H26.1509V147H30.3449V145ZM27.1168 146.259L28.7908 140.013L26.859 139.495L25.185 145.741L27.1168 146.259ZM27.0874 139.079L22.9834 143.561L24.4584 144.911L28.5624 140.429L27.0874 139.079ZM23.7209 143.236H23.6489V145.236H23.7209V143.236ZM24.5845 143.883L22.8925 139.401L21.0214 140.107L22.7134 144.589L24.5845 143.883ZM20.991 139.495L19.317 145.741L21.2488 146.259L22.9228 140.013L20.991 139.495ZM20.2829 145H16.1609V147H20.2829V145ZM38.8815 140.438L38.6007 141.398L39.5255 141.668L39.8302 140.754L38.8815 140.438ZM38.9175 140.33L39.8662 140.646L39.8731 140.626L39.8791 140.605L38.9175 140.33ZM34.7955 139.322L33.814 139.513L34.0407 140.677L35.1494 140.257L34.7955 139.322ZM34.2555 136.55L33.9637 135.594L33.1017 135.857L33.274 136.741L34.2555 136.55ZM42.8956 140.6L43.8618 140.858L43.8635 140.851L42.8956 140.6ZM41.4556 146V147H42.2238L42.4218 146.258L41.4556 146ZM37.3695 146L36.4048 145.737L36.0603 147H37.3695V146ZM37.6395 145.01L38.6043 145.273L39.4433 142.197L36.9978 144.243L37.6395 145.01ZM38.4496 142.31L37.4819 142.058L37.4805 142.063L38.4496 142.31ZM38.5576 141.896L39.5252 142.148L39.7762 141.186L38.8152 140.93L38.5576 141.896ZM34.8855 145.216C34.3492 145.216 33.9577 145.044 33.7048 144.796C33.4561 144.552 33.2575 144.153 33.2575 143.534H31.2575C31.2575 144.607 31.617 145.549 32.3043 146.223C32.9874 146.893 33.9099 147.216 34.8855 147.216V145.216ZM33.2575 143.534C33.2575 142.785 33.5379 142.226 34.0356 141.831C34.559 141.416 35.4136 141.114 36.6495 141.114V139.114C35.1135 139.114 33.7721 139.487 32.7925 140.264C31.7872 141.062 31.2575 142.213 31.2575 143.534H33.2575ZM36.6495 141.114C37.2908 141.114 37.9523 141.208 38.6007 141.398L39.1624 139.478C38.3348 139.236 37.4843 139.114 36.6495 139.114V141.114ZM39.8302 140.754L39.8662 140.646L37.9689 140.014L37.9329 140.122L39.8302 140.754ZM39.8791 140.605C39.9337 140.413 39.9895 140.121 39.9895 139.844H37.9895C37.9895 139.858 37.9874 139.893 37.9793 139.945C37.9714 139.995 37.9617 140.036 37.956 140.055L39.8791 140.605ZM39.9895 139.844C39.9895 139.225 39.7178 138.659 39.1625 138.299C38.6771 137.984 38.0717 137.89 37.4776 137.89V139.89C37.6814 139.89 37.8297 139.907 37.9325 139.93C37.9829 139.941 38.0185 139.952 38.0419 139.962C38.0652 139.971 38.0745 139.977 38.0741 139.976C38.0685 139.973 38.0366 139.948 38.0109 139.899C37.9865 139.852 37.9895 139.825 37.9895 139.844H39.9895ZM37.4776 137.89C36.4869 137.89 35.2459 138.082 34.4417 138.387L35.1494 140.257C35.6772 140.058 36.6682 139.89 37.4776 139.89V137.89ZM35.7771 139.131L35.2371 136.359L33.274 136.741L33.814 139.513L35.7771 139.131ZM34.5474 137.506C35.4901 137.219 36.9528 137.028 38.3055 137.028V135.028C36.8143 135.028 35.145 135.233 33.9637 135.594L34.5474 137.506ZM38.3055 137.028C39.832 137.028 40.7871 137.323 41.3346 137.711C41.8298 138.061 42.0756 138.543 42.0756 139.232H44.0756C44.0756 137.959 43.5653 136.839 42.49 136.078C41.467 135.354 40.0371 135.028 38.3055 135.028V137.028ZM42.0756 139.232C42.0756 139.561 42.0323 139.945 41.9276 140.349L43.8635 140.851C44.0108 140.283 44.0756 139.731 44.0756 139.232H42.0756ZM41.9293 140.342L40.4893 145.742L42.4218 146.258L43.8618 140.858L41.9293 140.342ZM41.4556 145H37.3695V147H41.4556V145ZM38.3343 146.263L38.6043 145.273L36.6748 144.747L36.4048 145.737L38.3343 146.263ZM36.9978 144.243C36.1741 144.932 35.6642 145.216 34.8855 145.216V147.216C36.3749 147.216 37.341 146.564 38.2813 145.777L36.9978 144.243ZM36.8655 144.894C37.5287 144.894 38.1043 144.562 38.5143 144.159C38.9346 143.745 39.2581 143.186 39.4186 142.557L37.4805 142.063C37.407 142.352 37.2625 142.585 37.1113 142.734C36.9498 142.893 36.8504 142.894 36.8655 142.894V144.894ZM39.4172 142.562L39.5252 142.148L37.5899 141.644L37.4819 142.058L39.4172 142.562ZM38.8152 140.93C38.4844 140.842 38.1797 140.788 37.8015 140.788V142.788C37.9634 142.788 38.0907 142.806 38.2999 142.862L38.8152 140.93ZM37.8015 140.788C37.1457 140.788 36.4865 140.942 35.975 141.369C35.4368 141.818 35.1996 142.454 35.1996 143.12H37.1996C37.1996 143.022 37.2161 142.969 37.2257 142.947C37.2339 142.927 37.2425 142.916 37.2566 142.904C37.2896 142.877 37.4314 142.788 37.8015 142.788V140.788ZM35.1996 143.12C35.1996 143.561 35.3278 144.015 35.6526 144.371C35.983 144.732 36.4296 144.894 36.8655 144.894V142.894C36.9235 142.894 37.0371 142.921 37.129 143.021C37.2152 143.116 37.1996 143.183 37.1996 143.12H35.1996ZM42.346 144.596L41.5534 143.986L40.9406 144.783L41.7403 145.392L42.346 144.596ZM44.146 142.256L44.7687 141.474L43.9733 140.84L43.3534 141.646L44.146 142.256ZM46.72 142.31L47.0651 141.371L47.0617 141.37L46.72 142.31ZM53.29 137.288L54.0826 137.898L54.6945 137.102L53.8969 136.493L53.29 137.288ZM51.49 139.628L50.9218 140.451L51.7035 140.991L52.2826 140.238L51.49 139.628ZM49.276 139.718L48.9388 140.659L48.9403 140.66L49.276 139.718ZM47.602 145.234C45.5838 145.234 43.9796 144.583 42.9517 143.8L41.7403 145.392C43.1244 146.445 45.1562 147.234 47.602 147.234V145.234ZM43.1386 145.206L44.9386 142.866L43.3534 141.646L41.5534 143.986L43.1386 145.206ZM43.5232 143.038C44.0586 143.465 44.7546 143.844 45.4606 144.118C46.1608 144.389 46.95 144.588 47.674 144.588V142.588C47.282 142.588 46.7482 142.472 46.1839 142.253C45.6254 142.036 45.1153 141.749 44.7687 141.474L43.5232 143.038ZM47.674 144.588C47.9919 144.588 48.3612 144.529 48.6812 144.31C49.0398 144.065 49.25 143.674 49.25 143.246H47.25C47.25 143.138 47.2752 143.018 47.3364 142.904C47.3975 142.789 47.4792 142.709 47.5533 142.659C47.6888 142.566 47.7701 142.588 47.674 142.588V144.588ZM49.25 143.246C49.25 142.986 49.182 142.708 49.0002 142.45C48.8386 142.221 48.6298 142.07 48.4572 141.967C48.1314 141.772 47.6531 141.588 47.0651 141.371L46.3749 143.249C46.6782 143.36 46.9107 143.449 47.0914 143.524C47.2764 143.601 47.3776 143.652 47.4307 143.683C47.4877 143.718 47.4319 143.696 47.3659 143.603C47.2797 143.481 47.25 143.344 47.25 143.246H49.25ZM47.0617 141.37C46.3018 141.094 45.7903 140.826 45.471 140.525C45.1967 140.266 45.038 139.962 45.038 139.466H43.038C43.038 140.518 43.4283 141.348 44.099 141.98C44.7247 142.57 45.5542 142.95 46.3782 143.25L47.0617 141.37ZM45.038 139.466C45.038 138.787 45.3158 138.189 45.8659 137.742C46.4295 137.284 47.3405 136.938 48.646 136.938V134.938C46.9995 134.938 45.6065 135.375 44.6041 136.19C43.5882 137.017 43.038 138.183 43.038 139.466H45.038ZM48.646 136.938C50.4471 136.938 51.897 137.482 52.6831 138.083L53.8969 136.493C52.703 135.582 50.8049 134.938 48.646 134.938V136.938ZM52.4974 136.678L50.6974 139.018L52.2826 140.238L54.0826 137.898L52.4974 136.678ZM52.0582 138.805C51.1986 138.212 49.7424 137.584 48.502 137.584V139.584C49.2056 139.584 50.2694 140 50.9218 140.451L52.0582 138.805ZM48.502 137.584C48.2129 137.584 47.8578 137.62 47.5396 137.789C47.1528 137.995 46.854 138.391 46.854 138.908H48.854C48.854 139.033 48.8202 139.18 48.7322 139.316C48.6475 139.447 48.5446 139.52 48.4789 139.555C48.3721 139.611 48.3411 139.584 48.502 139.584V137.584ZM46.854 138.908C46.854 139.128 46.9035 139.403 47.0923 139.668C47.2559 139.898 47.4679 140.037 47.6238 140.125C47.9184 140.29 48.3666 140.454 48.9388 140.659L49.6132 138.777C49.3123 138.669 49.0862 138.586 48.9128 138.517C48.7341 138.447 48.6442 138.404 48.6016 138.38C48.5528 138.353 48.6355 138.387 48.7209 138.507C48.8314 138.662 48.854 138.823 48.854 138.908H46.854ZM48.9403 140.66C49.7067 140.933 50.2405 141.19 50.5851 141.504C50.8776 141.77 51.066 142.104 51.066 142.688H53.066C53.066 141.544 52.6424 140.672 51.9314 140.025C51.2725 139.425 50.4112 139.061 49.6116 138.776L48.9403 140.66ZM51.066 142.688C51.066 143.278 50.8595 143.892 50.3793 144.358C49.906 144.818 49.063 145.234 47.602 145.234V147.234C49.4529 147.234 50.842 146.696 51.7727 145.793C52.6965 144.895 53.066 143.736 53.066 142.688H51.066ZM53.5704 142.166L52.604 141.909L52.6021 141.916L52.6003 141.923L53.5704 142.166ZM54.3264 139.322L55.2928 139.579L55.6269 138.322H54.3264V139.322ZM53.1744 139.322L52.2086 139.063L51.8704 140.322H53.1744V139.322ZM54.0204 136.172V135.172H53.2535L53.0546 135.913L54.0204 136.172ZM55.1724 136.172V137.172H55.9382L56.1378 136.433L55.1724 136.172ZM55.8384 133.706V132.706H55.0726L54.873 133.445L55.8384 133.706ZM59.9244 133.706L60.8898 133.967L61.2303 132.706H59.9244V133.706ZM59.2584 136.172L58.293 135.911L57.9525 137.172H59.2584V136.172ZM61.5264 136.172L62.4922 136.431L62.8304 135.172H61.5264V136.172ZM60.6804 139.322V140.322H61.4473L61.6462 139.581L60.6804 139.322ZM58.4124 139.322V138.322H57.6428L57.4457 139.066L58.4124 139.322ZM57.8544 141.428L58.818 141.696L58.821 141.684L57.8544 141.428ZM59.7444 142.598L60.7111 142.854L61.1594 141.161L59.4737 141.635L59.7444 142.598ZM58.8624 145.928L59.1108 146.897L59.6789 146.751L59.8291 146.184L58.8624 145.928ZM56.7924 145.216C55.7387 145.216 55.1486 145.009 54.8362 144.764C54.5718 144.556 54.3724 144.215 54.3724 143.534H52.3724C52.3724 144.653 52.731 145.653 53.6006 146.336C54.4221 146.982 55.5421 147.216 56.7924 147.216V145.216ZM54.3724 143.534C54.3724 143.232 54.4254 142.869 54.5405 142.409L52.6003 141.923C52.4634 142.471 52.3724 143.008 52.3724 143.534H54.3724ZM54.5368 142.423L55.2928 139.579L53.36 139.065L52.604 141.909L54.5368 142.423ZM54.3264 138.322H53.1744V140.322H54.3264V138.322ZM54.1402 139.581L54.9862 136.431L53.0546 135.913L52.2086 139.063L54.1402 139.581ZM54.0204 137.172H55.1724V135.172H54.0204V137.172ZM56.1378 136.433L56.8038 133.967L54.873 133.445L54.207 135.911L56.1378 136.433ZM55.8384 134.706H59.9244V132.706H55.8384V134.706ZM58.959 133.445L58.293 135.911L60.2238 136.433L60.8898 133.967L58.959 133.445ZM59.2584 137.172H61.5264V135.172H59.2584V137.172ZM60.5606 135.913L59.7146 139.063L61.6462 139.581L62.4922 136.431L60.5606 135.913ZM60.6804 138.322H58.4124V140.322H60.6804V138.322ZM57.4457 139.066L56.8878 141.172L58.821 141.684L59.379 139.578L57.4457 139.066ZM56.8909 141.16C56.7872 141.533 56.7284 141.863 56.7284 142.184H58.7284C58.7284 142.109 58.7416 141.971 58.8179 141.696L56.8909 141.16ZM56.7284 142.184C56.7284 142.605 56.868 143.095 57.3097 143.441C57.701 143.748 58.1745 143.814 58.5564 143.814V141.814C58.5152 141.814 58.4846 141.812 58.4631 141.81C58.4525 141.809 58.4446 141.807 58.4393 141.806C58.4339 141.806 58.4314 141.805 58.4315 141.805C58.4315 141.805 58.4343 141.806 58.4396 141.807C58.4449 141.809 58.4528 141.812 58.4627 141.817C58.483 141.826 58.5113 141.842 58.5431 141.867C58.6129 141.922 58.6679 141.996 58.7001 142.073C58.7293 142.143 58.7284 142.188 58.7284 142.184H56.7284ZM58.5564 143.814C59.0215 143.814 59.4168 143.729 60.0151 143.561L59.4737 141.635C58.92 141.791 58.7392 141.814 58.5564 141.814V143.814ZM58.7777 142.342L57.8957 145.672L59.8291 146.184L60.7111 142.854L58.7777 142.342ZM58.614 144.959C57.9691 145.125 57.371 145.216 56.7924 145.216V147.216C57.5818 147.216 58.3517 147.091 59.1108 146.897L58.614 144.959ZM64.4506 142.04V141.04H63.38L63.4529 142.108L64.4506 142.04ZM67.9066 142.562L68.645 141.888L68.0277 141.212L67.2999 141.767L67.9066 142.562ZM69.7966 144.632L70.4602 145.38L71.219 144.707L70.535 143.958L69.7966 144.632ZM70.7686 142.04V143.04H71.4967L71.7203 142.347L70.7686 142.04ZM64.7026 140.24L63.757 139.914L63.3007 141.24H64.7026V140.24ZM67.4746 140.24V141.24H68.1676L68.4109 140.591L67.4746 140.24ZM63.4529 142.108C63.4933 142.701 63.7121 143.289 64.1846 143.727C64.6575 144.166 65.2767 144.354 65.9266 144.354V142.354C65.6584 142.354 65.5666 142.281 65.5445 142.261C65.522 142.24 65.4618 142.171 65.4482 141.972L63.4529 142.108ZM65.9266 144.354C66.8893 144.354 67.7287 143.956 68.5132 143.357L67.2999 141.767C66.7165 142.212 66.2958 142.354 65.9266 142.354V144.354ZM67.1681 143.236L69.0581 145.306L70.535 143.958L68.645 141.888L67.1681 143.236ZM69.1329 143.884C68.1837 144.726 67.0471 145.234 65.5846 145.234V147.234C67.578 147.234 69.1774 146.518 70.4602 145.38L69.1329 143.884ZM65.5846 145.234C64.2829 145.234 63.3357 144.856 62.7254 144.3C62.1237 143.752 61.7606 142.952 61.7606 141.914H59.7605C59.7605 143.45 60.3155 144.81 61.3787 145.779C62.4334 146.739 63.8982 147.234 65.5846 147.234V145.234ZM61.7606 141.914C61.7606 139.394 63.6259 136.938 66.7366 136.938V134.938C62.3592 134.938 59.7605 138.458 59.7605 141.914H61.7606ZM66.7366 136.938C68.1107 136.938 68.8894 137.392 69.3442 137.936C69.8254 138.512 70.0566 139.325 70.0566 140.204H72.0566C72.0566 139.013 71.7477 137.693 70.8789 136.654C69.9837 135.582 68.6024 134.938 66.7366 134.938V136.938ZM70.0566 140.204C70.0566 140.743 69.9662 141.27 69.8168 141.733L71.7203 142.347C71.9309 141.694 72.0566 140.961 72.0566 140.204H70.0566ZM70.7686 141.04H64.4506V143.04H70.7686V141.04ZM64.7026 141.24H67.4746V139.24H64.7026V141.24ZM68.4109 140.591C68.5178 140.306 68.5466 140.037 68.5466 139.808H66.5466C66.5466 139.867 66.5393 139.886 66.5382 139.889L68.4109 140.591ZM68.5466 139.808C68.5466 138.773 67.7584 137.764 66.4846 137.764V139.764C66.5231 139.764 66.5388 139.771 66.5397 139.771C66.5409 139.772 66.539 139.771 66.5374 139.769C66.5356 139.767 66.5466 139.779 66.5466 139.808H68.5466ZM66.4846 137.764C65.4382 137.764 64.2715 138.42 63.757 139.914L65.6481 140.566C65.7764 140.193 65.9518 140.001 66.0903 139.902C66.2354 139.797 66.3803 139.764 66.4846 139.764V137.764ZM70.5112 146L69.5452 145.742L69.2087 147H70.5112V146ZM73.1392 136.172V135.172H72.3715L72.1731 135.914L73.1392 136.172ZM77.2252 136.172L78.1922 136.427L78.523 135.172H77.2252V136.172ZM76.7032 138.152L75.7363 137.897L77.5266 138.719L76.7032 138.152ZM80.3392 136.028L81.3057 136.285L81.6242 135.085L80.3846 135.029L80.3392 136.028ZM79.1872 140.366V141.366H79.9563L80.1537 140.623L79.1872 140.366ZM75.2452 143.552L76.2119 143.808L76.2134 143.802L75.2452 143.552ZM74.5972 146V147H75.3669L75.5639 146.256L74.5972 146ZM71.4773 146.258L74.1053 136.43L72.1731 135.914L69.5452 145.742L71.4773 146.258ZM73.1392 137.172H77.2252V135.172H73.1392V137.172ZM76.2582 135.917L75.7363 137.897L77.6702 138.407L78.1922 136.427L76.2582 135.917ZM77.5266 138.719C78.3416 137.537 79.1911 136.977 80.2938 137.027L80.3846 135.029C78.3193 134.935 76.9008 136.103 75.8798 137.585L77.5266 138.719ZM79.3727 135.771L78.2207 140.109L80.1537 140.623L81.3057 136.285L79.3727 135.771ZM79.1872 139.366H78.7552V141.366H79.1872V139.366ZM78.7552 139.366C77.602 139.366 76.5997 139.68 75.8068 140.416C75.0413 141.127 74.579 142.133 74.277 143.302L76.2134 143.802C76.4695 142.811 76.7991 142.224 77.1677 141.882C77.5087 141.565 77.9824 141.366 78.7552 141.366V139.366ZM74.2785 143.296L73.6305 145.744L75.5639 146.256L76.2119 143.808L74.2785 143.296ZM74.5972 145H70.5112V147H74.5972V145ZM78.4565 146L77.4905 145.742L77.154 147H78.4565V146ZM81.0845 136.172V135.172H80.3168L80.1185 135.914L81.0845 136.172ZM85.1705 136.172L86.137 136.429L86.4708 135.172H85.1705V136.172ZM84.8645 137.324L83.898 137.067L85.616 137.984L84.8645 137.324ZM90.2825 137.558L89.3492 137.917L89.9179 139.396L91.0082 138.246L90.2825 137.558ZM96.5825 140.6L95.6177 140.337L95.6163 140.342L96.5825 140.6ZM95.1425 146V147H95.9108L96.1088 146.258L95.1425 146ZM91.0565 146L90.0907 145.741L89.7528 147H91.0565V146ZM92.3705 141.104L91.409 140.829L91.4068 140.837L91.4047 140.845L92.3705 141.104ZM90.1565 141.104L91.1224 141.363L91.1228 141.362L90.1565 141.104ZM88.8425 146V147H89.6095L89.8084 146.259L88.8425 146ZM84.7565 146L83.7907 145.741L83.4528 147H84.7565V146ZM86.0705 141.104L85.109 140.829L85.1068 140.837L85.1047 140.845L86.0705 141.104ZM83.8565 141.104L84.8224 141.363L84.8228 141.362L83.8565 141.104ZM82.5425 146V147H83.3095L83.5083 146.259L82.5425 146ZM79.4226 146.258L82.0506 136.43L80.1185 135.914L77.4905 145.742L79.4226 146.258ZM81.0845 137.172H85.1705V135.172H81.0845V137.172ZM84.204 135.915L83.898 137.067L85.831 137.581L86.137 136.429L84.204 135.915ZM85.616 137.984C86.1324 137.396 86.8863 136.938 87.7445 136.938V134.938C86.1548 134.938 84.8926 135.776 84.1131 136.664L85.616 137.984ZM87.7445 136.938C88.6833 136.938 89.1386 137.37 89.3492 137.917L91.2159 137.199C90.7064 135.874 89.5058 134.938 87.7445 134.938V136.938ZM91.0082 138.246C91.831 137.378 92.801 136.938 93.8825 136.938V134.938C92.1921 134.938 90.714 135.65 89.5569 136.87L91.0082 138.246ZM93.8825 136.938C94.6734 136.938 95.1198 137.166 95.3752 137.436C95.6393 137.715 95.8345 138.18 95.8345 138.908H97.8345C97.8345 137.836 97.5437 136.816 96.8268 136.06C96.1012 135.295 95.0717 134.938 93.8825 134.938V136.938ZM95.8345 138.908C95.8345 139.304 95.7621 139.808 95.6178 140.337L97.5473 140.863C97.7269 140.204 97.8345 139.52 97.8345 138.908H95.8345ZM95.6163 140.342L94.1763 145.742L96.1088 146.258L97.5488 140.858L95.6163 140.342ZM95.1425 145H91.0565V147H95.1425V145ZM92.0223 146.259L93.3364 141.363L91.4047 140.845L90.0907 145.741L92.0223 146.259ZM93.332 141.379C93.4295 141.038 93.4785 140.657 93.4785 140.366H91.4785C91.4785 140.41 91.4741 140.484 91.4612 140.576C91.4486 140.666 91.4303 140.755 91.409 140.829L93.332 141.379ZM93.4785 140.366C93.4785 139.976 93.3935 139.481 93.0378 139.077C92.661 138.649 92.1411 138.502 91.6505 138.502V140.502C91.7053 140.502 91.706 140.51 91.6742 140.498C91.6367 140.484 91.5837 140.452 91.5368 140.399C91.4923 140.349 91.4769 140.305 91.4738 140.295C91.4716 140.287 91.4785 140.307 91.4785 140.366H93.4785ZM91.6505 138.502C91.0088 138.502 90.439 138.744 90.0002 139.219C89.5973 139.656 89.3534 140.235 89.1903 140.846L91.1228 141.362C91.2476 140.893 91.3818 140.671 91.4693 140.577C91.5065 140.536 91.5309 140.524 91.5432 140.518C91.5561 140.513 91.5865 140.502 91.6505 140.502V138.502ZM89.1907 140.845L87.8767 145.741L89.8084 146.259L91.1223 141.363L89.1907 140.845ZM88.8425 145H84.7565V147H88.8425V145ZM85.7223 146.259L87.0363 141.363L85.1047 140.845L83.7907 145.741L85.7223 146.259ZM87.0321 141.379C87.1295 141.038 87.1785 140.657 87.1785 140.366H85.1785C85.1785 140.41 85.1741 140.484 85.1612 140.576C85.1486 140.666 85.1303 140.755 85.109 140.829L87.0321 141.379ZM87.1785 140.366C87.1785 139.976 87.0935 139.481 86.7378 139.077C86.361 138.649 85.8411 138.502 85.3505 138.502V140.502C85.4053 140.502 85.406 140.51 85.3742 140.498C85.3367 140.484 85.2837 140.452 85.2368 140.399C85.1923 140.349 85.1769 140.305 85.1738 140.295C85.1716 140.287 85.1785 140.307 85.1785 140.366H87.1785ZM85.3505 138.502C84.7088 138.502 84.139 138.744 83.7002 139.219C83.2973 139.656 83.0534 140.235 82.8903 140.846L84.8228 141.362C84.9476 140.893 85.0818 140.671 85.1693 140.577C85.2065 140.536 85.2309 140.524 85.2432 140.518C85.2561 140.513 85.2865 140.502 85.3505 140.502V138.502ZM82.8907 140.845L81.5767 145.741L83.5083 146.259L84.8224 141.363L82.8907 140.845ZM82.5425 145H78.4565V147H82.5425V145ZM99.018 135.47L98.0523 135.21L97.7135 136.47H99.018V135.47ZM99.72 132.86V131.86H98.9534L98.7543 132.6L99.72 132.86ZM103.95 132.86L104.916 133.12L105.255 131.86H103.95V132.86ZM103.248 135.47V136.47H104.015L104.214 135.73L103.248 135.47ZM96.264 146L95.298 145.742L94.9615 147H96.264V146ZM98.892 136.172V135.172H98.1243L97.926 135.914L98.892 136.172ZM102.978 136.172L103.944 136.43L104.281 135.172H102.978V136.172ZM100.35 146V147H101.118L101.316 146.258L100.35 146ZM99.9837 135.73L100.686 133.12L98.7543 132.6L98.0523 135.21L99.9837 135.73ZM99.72 133.86H103.95V131.86H99.72V133.86ZM102.984 132.6L102.282 135.21L104.214 135.73L104.916 133.12L102.984 132.6ZM103.248 134.47H99.018V136.47H103.248V134.47ZM97.2301 146.258L99.8581 136.43L97.926 135.914L95.298 145.742L97.2301 146.258ZM98.892 137.172H102.978V135.172H98.892V137.172ZM102.012 135.914L99.384 145.742L101.316 146.258L103.944 136.43L102.012 135.914ZM100.35 145H96.264V147H100.35V145ZM101.642 146L100.676 145.742L100.34 147H101.642V146ZM104.27 136.172V135.172H103.502L103.304 135.914L104.27 136.172ZM108.356 136.172L109.323 136.428L109.655 135.172H108.356V136.172ZM108.032 137.396L107.065 137.14L108.806 138.029L108.032 137.396ZM113.54 140.6L112.575 140.337L112.574 140.342L113.54 140.6ZM112.1 146V147H112.868L113.066 146.258L112.1 146ZM108.014 146L107.048 145.741L106.71 147H108.014V146ZM109.328 141.104L108.367 140.829L108.364 140.837L108.362 140.845L109.328 141.104ZM107.042 141.104L106.077 140.842L106.076 140.845L107.042 141.104ZM105.728 146V147H106.495L106.694 146.259L105.728 146ZM102.608 146.258L105.236 136.43L103.304 135.914L100.676 145.742L102.608 146.258ZM104.27 137.172H108.356V135.172H104.27V137.172ZM107.389 135.916L107.065 137.14L108.999 137.652L109.323 136.428L107.389 135.916ZM108.806 138.029C109.309 137.414 110.107 136.938 110.966 136.938V134.938C109.378 134.938 108.051 135.794 107.258 136.763L108.806 138.029ZM110.966 136.938C111.64 136.938 112.054 137.15 112.307 137.427C112.572 137.717 112.774 138.202 112.774 138.944H114.774C114.774 137.85 114.473 136.832 113.783 136.078C113.083 135.311 112.092 134.938 110.966 134.938V136.938ZM112.774 138.944C112.774 139.354 112.715 139.823 112.575 140.337L114.505 140.863C114.689 140.189 114.774 139.542 114.774 138.944H112.774ZM112.574 140.342L111.134 145.742L113.066 146.258L114.506 140.858L112.574 140.342ZM112.1 145H108.014V147H112.1V145ZM108.98 146.259L110.294 141.363L108.362 140.845L107.048 145.741L108.98 146.259ZM110.29 141.379C110.387 141.038 110.436 140.657 110.436 140.366H108.436C108.436 140.41 108.432 140.484 108.419 140.576C108.406 140.666 108.388 140.755 108.367 140.829L110.29 141.379ZM110.436 140.366C110.436 139.944 110.326 139.448 109.955 139.053C109.574 138.648 109.061 138.502 108.572 138.502V140.502C108.626 140.502 108.634 140.51 108.611 140.502C108.584 140.492 108.54 140.468 108.498 140.423C108.411 140.33 108.436 140.266 108.436 140.366H110.436ZM108.572 138.502C107.908 138.502 107.323 138.74 106.874 139.229C106.469 139.672 106.236 140.255 106.077 140.842L108.007 141.366C108.136 140.891 108.264 140.673 108.349 140.58C108.383 140.543 108.406 140.531 108.421 140.524C108.439 140.516 108.482 140.502 108.572 140.502V138.502ZM106.076 140.845L104.762 145.741L106.694 146.259L108.008 141.363L106.076 140.845ZM105.728 145H101.642V147H105.728V145ZM122.191 137.432L121.351 137.975L122.574 139.868L123.157 137.691L122.191 137.432ZM123.415 132.86V131.86H122.648L122.449 132.601L123.415 132.86ZM127.501 132.86L128.467 133.118L128.804 131.86H127.501V132.86ZM123.991 146V147H124.759L124.957 146.258L123.991 146ZM119.905 146L118.939 145.741L118.602 147H119.905V146ZM120.175 144.992L121.141 145.251L122.132 141.553L119.459 144.294L120.175 144.992ZM117.367 145.234C116.773 145.234 116.24 145 115.846 144.561C115.45 144.119 115.145 143.411 115.145 142.4H113.145C113.145 143.819 113.579 145.028 114.357 145.896C115.138 146.766 116.216 147.234 117.367 147.234V145.234ZM115.145 142.4C115.145 139.148 117.183 136.938 119.311 136.938V134.938C115.68 134.938 113.145 138.488 113.145 142.4H115.145ZM119.311 136.938C120.359 136.938 120.968 137.381 121.351 137.975L123.031 136.889C122.299 135.755 121.072 134.938 119.311 134.938V136.938ZM123.157 137.691L124.381 133.119L122.449 132.601L121.225 137.173L123.157 137.691ZM123.415 133.86H127.501V131.86H123.415V133.86ZM126.535 132.602L123.025 145.742L124.957 146.258L128.467 133.118L126.535 132.602ZM123.991 145H119.905V147H123.991V145ZM120.871 146.259L121.141 145.251L119.209 144.733L118.939 145.741L120.871 146.259ZM119.459 144.294C118.916 144.852 118.102 145.234 117.367 145.234V147.234C118.721 147.234 120.031 146.572 120.891 145.69L119.459 144.294ZM119.527 143.904C121.357 143.904 122.453 142.218 122.453 140.69H120.453C120.453 141.466 119.93 141.904 119.527 141.904V143.904ZM122.453 140.69C122.453 140.043 122.237 139.435 121.803 138.98C121.368 138.524 120.772 138.286 120.139 138.286V140.286C120.263 140.286 120.324 140.327 120.356 140.361C120.391 140.397 120.453 140.491 120.453 140.69H122.453ZM120.139 138.286C118.31 138.286 117.213 139.972 117.213 141.5H119.213C119.213 140.724 119.737 140.286 120.139 140.286V138.286ZM117.213 141.5C117.213 142.147 117.43 142.755 117.863 143.21C118.299 143.666 118.895 143.904 119.527 143.904V141.904C119.404 141.904 119.343 141.863 119.31 141.829C119.276 141.793 119.213 141.699 119.213 141.5H117.213Z" fill="url(#paint0_linear_174_393)" mask="url(#path-26-outside-1_174_393)"/>
<defs>
<linearGradient id="paint0_linear_174_393" x1="134.724" y1="129" x2="8.00002" y2="129" gradientUnits="userSpaceOnUse">
<stop stop-color="#E3C906"/>
<stop offset="0.45" stop-color="#E3C906" stop-opacity="0"/>
<stop offset="1" stop-color="#E3C906"/>
</linearGradient>
</defs>
</svg>
