<svg width="185" height="173" viewBox="0 0 185 173" fill="none" xmlns="http://www.w3.org/2000/svg">
<path d="M172.983 97.8266C179.367 56.5665 151.094 17.9434 109.834 11.5594C68.5742 5.17542 29.951 33.448 23.5671 74.7081C17.1831 115.968 45.4557 154.591 86.7157 160.975C127.976 167.359 166.599 139.087 172.983 97.8266Z" fill="#E3C906"/>
<path d="M165.675 75.9664L172.975 50.3664C173.975 47.0664 172.175 43.5664 168.875 42.3664C165.575 41.1664 161.975 42.7664 160.675 45.9664L154.075 61.6664L129.275 57.2664L131.775 32.1664C132.275 27.8664 129.275 23.9664 124.975 23.2664C121.275 22.6664 117.675 24.6664 116.275 28.0664L101.375 62.5664C100.475 64.6664 98.9746 66.5664 97.1746 67.9664L29.9746 118.666C42.0746 144.166 67.9746 161.766 98.0746 161.866L136.075 120.166C142.075 116.266 147.775 112.266 152.675 107.866C158.575 103.466 162.575 96.9664 163.675 89.6664L165.675 75.9664Z" fill="#EAA48D"/>
<path d="M115.475 59.7665C115.475 59.7665 126.775 52.7665 131.475 34.1665C128.975 54.1665 129.575 59.8665 129.575 59.8665C129.575 59.8665 125.075 56.6665 115.475 59.7665Z" fill="#DB8A75"/>
<path d="M125.074 99.4663C125.074 99.4663 131.574 96.0663 150.374 96.0663C167.274 82.5663 156.574 61.9663 156.574 61.9663H123.074L121.774 78.8663C121.774 78.9663 131.174 85.6663 125.074 99.4663Z" fill="#DB8A75"/>
<path d="M159.974 48.2666C159.974 48.2666 156.174 65.5666 163.674 76.6666C162.274 88.4666 158.074 92.9666 152.674 97.4666C136.374 93.5666 125.074 99.4666 125.074 99.4666L152.974 66.5666L155.474 59.5666L159.974 48.2666Z" fill="#DB8A75"/>
<path d="M129.274 51.5664L138.874 52.4664C142.674 52.8664 145.774 55.7664 146.274 59.6664L147.474 69.3664C147.874 72.9664 147.574 76.6664 146.574 80.1664L143.774 89.3664C142.674 93.1664 138.974 95.5664 134.974 95.1664H134.874C130.974 94.7664 127.974 91.3664 128.174 87.3664L129.274 51.5664Z" fill="#EAA48D"/>
<path d="M144.674 55.6665L150.174 56.5665C153.774 57.1665 156.574 60.0665 156.974 63.6665L157.974 72.5665C158.374 75.9665 157.974 79.4665 156.774 82.7665L154.874 88.0665C153.374 92.2665 148.874 94.6665 144.574 93.5665L141.274 92.7665L144.674 55.6665Z" fill="#EAA48D"/>
<path d="M141.674 93.0664L140.774 92.5664C140.874 92.4664 146.474 82.3664 146.974 73.8664C147.474 65.3664 144.174 55.9664 144.074 55.8664L144.974 55.5664C144.974 55.6664 148.474 65.2664 147.874 73.9664C147.474 82.6664 141.974 92.6664 141.674 93.0664Z" fill="#263E65"/>
<path d="M151.974 92.6665L151.574 91.7665C153.874 90.6665 156.174 85.3665 157.474 78.3665C158.574 72.6665 156.474 63.9665 156.474 63.8665L157.474 63.6665C157.574 64.0665 159.574 72.6665 158.474 78.5665C157.374 84.2665 155.074 91.0665 151.974 92.6665Z" fill="#263E65"/>
<path d="M112.375 61.2663L113.475 60.6663C118.475 58.1663 124.375 57.8663 129.675 59.7663L139.475 63.4663C143.475 64.9663 145.575 69.2663 144.375 73.3663L143.975 74.6663C142.875 78.3663 139.275 80.7663 135.375 80.3663L121.775 78.8663C121.775 78.8663 134.875 90.1663 122.575 101.366L97.375 81.9663L112.375 61.2663Z" fill="#EAA48D"/>
<path d="M122.874 101.866L122.174 101.166C125.674 97.9665 127.374 94.5665 127.374 90.9665C127.274 84.4665 121.574 79.4665 121.474 79.4665L120.274 78.3665L135.474 80.0665C139.074 80.4665 142.474 78.2665 143.574 74.7665L143.974 73.4665C145.074 69.6665 143.074 65.5665 139.374 64.1665L129.574 60.4665C124.474 58.5665 118.674 58.8665 113.774 61.2665L112.674 61.8665L112.274 60.9665L113.374 60.3665C118.474 57.7665 124.574 57.4665 129.974 59.4665L139.774 63.1665C143.974 64.7665 146.274 69.3665 144.974 73.6665L144.574 74.9665C143.374 78.9665 139.574 81.4665 135.474 81.0665L123.374 79.7665C125.174 81.6665 128.474 85.7665 128.574 90.9665C128.374 94.7665 126.474 98.4665 122.874 101.866Z" fill="#263E65"/>
<path d="M135.974 120.267C135.174 120.067 122.174 118.667 109.274 107.667C118.274 132.767 118.874 138.667 118.874 138.667L135.974 120.267Z" fill="#DB8A75"/>
<path opacity="0.8" d="M141.674 66.8666L140.874 75.2666C140.874 75.2666 136.974 75.2666 137.174 69.9666C137.374 64.5666 141.674 66.8666 141.674 66.8666Z" fill="white"/>
<path opacity="0.8" d="M133.175 90.7662L139.675 91.0662C139.675 91.0662 139.675 88.2663 136.575 87.9663C133.475 87.6663 133.175 90.7662 133.175 90.7662Z" fill="white"/>
<path opacity="0.8" d="M144.175 90.7662L150.675 91.0662C150.675 91.0662 150.675 88.2663 147.575 87.9663C144.475 87.6663 144.175 90.7662 144.175 90.7662Z" fill="white"/>
<mask id="path-16-outside-1_208_333" maskUnits="userSpaceOnUse" x="6.61552" y="21.5312" width="100.338" height="89.8801" fill="black">
<rect fill="white" x="6.61552" y="21.5312" width="100.338" height="89.8801"/>
<path d="M38.4059 73.5998C35.2546 75.9312 31.6525 75.6356 29.4162 72.6129C27.1443 69.542 26.7481 64.0633 31.6037 60.471C34.0315 58.6748 36.7035 58.6883 38.6447 60.3371L36.3668 64.2862C35.4477 63.5482 34.4554 63.5857 33.6032 64.2161C31.915 65.4651 31.9636 67.8175 33.1056 69.361C34.0215 70.599 35.3047 70.7194 36.3016 69.9819C37.1698 69.3396 37.568 68.3982 37.6199 67.1905L41.7471 67.3215C41.716 69.6334 40.8016 71.8274 38.4059 73.5998ZM48.685 65.9453C45.9196 67.9913 42.9634 67.3919 41.2743 65.1088C39.2878 62.4237 39.6944 58.3663 42.7493 56.1063C45.5147 54.0603 48.4709 54.6597 50.1599 56.9428C52.1464 59.6278 51.7399 63.6853 48.685 65.9453ZM46.7095 62.8043C47.626 62.1263 47.6113 60.6942 46.8382 59.6491C46.291 58.9095 45.4322 58.7239 44.7248 59.2473C43.8083 59.9253 43.8229 61.3574 44.5961 62.4025C45.1433 63.1421 46.0021 63.3277 46.7095 62.8043ZM57.3631 59.5251C55.8035 60.6789 53.5573 60.4002 51.9514 58.2296C49.5843 55.0301 49.723 50.9469 52.2956 49.0437C53.5497 48.1159 54.786 48.0719 55.8554 48.475L53.9273 43.5822L57.5771 40.8821L63.1252 54.9387L59.4755 57.6388L59.0505 56.56C58.8993 57.6671 58.2956 58.8351 57.3631 59.5251ZM57.0919 55.1232C58.0887 54.3857 58.1104 52.9018 57.3492 51.8728C56.7901 51.1171 55.9229 50.9874 55.2476 51.487C54.2508 52.2245 54.2291 53.7084 54.9904 54.7374C55.5494 55.4931 56.4166 55.6228 57.0919 55.1232ZM65.7964 47.4892C66.368 48.161 67.1632 48.2942 67.9831 47.6875C68.578 47.2474 68.9623 46.5899 69.2284 45.6716L72.2845 46.2716C71.9419 47.8934 71.1244 49.3441 69.5809 50.486C66.9119 52.4606 64.1181 52.1143 62.4171 49.8151C60.4425 47.1462 60.4616 43.0022 63.8059 40.528C66.7 38.3869 69.1159 39.6348 70.4838 41.4837C70.912 42.0626 71.2319 42.6967 71.4398 43.314L65.7964 47.4892ZM64.832 45.7149L67.308 43.883C67.2611 43.7187 67.182 43.5782 67.0869 43.4496C66.73 42.9672 66.0432 42.7787 65.4483 43.2188C64.9017 43.6233 64.444 44.4843 64.832 45.7149ZM30.8352 106.194L25.5314 92.7029L35.13 85.6016L36.5778 89.3071L30.6771 93.6726L31.2162 95.0402L36.7149 90.9721L38.0017 94.2246L32.5029 98.2927L33.0693 99.7644L39.0504 95.3394L40.5143 99.0331L30.8352 106.194ZM41.0264 98.6542L41.7999 91.0911L36.9273 88.1032L40.6414 85.3554L42.5364 86.7399L42.6833 83.8448L46.6546 80.9067L45.8818 88.3698L50.8341 91.3982L47.12 94.146L45.1453 92.7211L44.9977 95.7162L41.0264 98.6542ZM52.442 94.1892L47.0828 80.5899L50.7326 77.8897L51.1575 78.9685C51.3088 77.8615 51.9124 76.6934 52.845 76.0035C54.4046 74.8497 56.6508 75.1284 58.2566 77.2989C60.6237 80.4985 60.485 84.5817 57.9125 86.4849C56.6584 87.4127 55.4221 87.4566 54.3527 87.0536L56.0917 91.4891L52.442 94.1892ZM54.9604 84.0415C55.9573 83.304 55.979 81.8201 55.2177 80.7911C54.6586 80.0354 53.7915 79.9058 53.1162 80.4054C52.1193 81.1428 52.0976 82.6267 52.8589 83.6557C53.418 84.4114 54.2851 84.5411 54.9604 84.0415ZM62.0491 83.1011L56.517 69.0326L60.1668 66.3324L65.6988 80.4009L62.0491 83.1011ZM72.2973 75.8426C69.5319 77.8886 66.5757 77.2892 64.8866 75.0061C62.9002 72.321 63.3067 68.2636 66.3616 66.0036C69.127 63.9576 72.0832 64.557 73.7723 66.8401C75.7587 69.5251 75.3522 73.5826 72.2973 75.8426ZM70.3218 72.7016C71.2383 72.0236 71.2237 70.5915 70.4505 69.5464C69.9033 68.8068 69.0445 68.6212 68.3371 69.1446C67.4206 69.8226 67.4352 71.2547 68.2084 72.2998C68.7556 73.0394 69.6144 73.225 70.3218 72.7016ZM77.0745 71.9849L72.9272 61.4695L76.577 58.7693L77.4192 60.8829C77.3589 59.0865 77.8009 57.5653 79.2634 56.5829L81.1011 61.219L80.7152 61.5045C78.9948 62.7773 78.7564 64.3717 79.6854 66.6699L80.7243 69.2847L77.0745 71.9849ZM85.7974 60.0582C86.369 60.73 87.1641 60.8632 87.9841 60.2566C88.579 59.8164 88.9633 59.1589 89.2294 58.2407L92.2855 58.8407C91.9429 60.4625 91.1254 61.9131 89.5819 63.0551C86.9129 65.0296 84.1191 64.6834 82.4181 62.3842C80.4435 59.7152 80.4626 55.5712 83.8069 53.0971C86.701 50.956 89.1169 52.2038 90.4848 54.0528C90.913 54.6316 91.2329 55.2657 91.4408 55.8831L85.7974 60.0582ZM84.833 58.2839L87.309 56.4521C87.2621 56.2877 87.183 56.1472 87.0878 56.0186C86.731 55.5363 86.0442 55.3478 85.4493 55.7879C84.9027 56.1923 84.445 57.0533 84.833 58.2839ZM93.8279 59.5903L89.6806 49.075L93.3303 46.3748L94.1725 48.4884C94.1123 46.6919 94.5542 45.1708 96.0167 44.1883L97.8544 48.8245L97.4685 49.1099C95.7482 50.3827 95.5097 51.9772 96.4387 54.2753L97.4776 56.8902L93.8279 59.5903Z"/>
</mask>
<path d="M38.4059 73.5998C35.2546 75.9312 31.6525 75.6356 29.4162 72.6129C27.1443 69.542 26.7481 64.0633 31.6037 60.471C34.0315 58.6748 36.7035 58.6883 38.6447 60.3371L36.3668 64.2862C35.4477 63.5482 34.4554 63.5857 33.6032 64.2161C31.915 65.4651 31.9636 67.8175 33.1056 69.361C34.0215 70.599 35.3047 70.7194 36.3016 69.9819C37.1698 69.3396 37.568 68.3982 37.6199 67.1905L41.7471 67.3215C41.716 69.6334 40.8016 71.8274 38.4059 73.5998ZM48.685 65.9453C45.9196 67.9913 42.9634 67.3919 41.2743 65.1088C39.2878 62.4237 39.6944 58.3663 42.7493 56.1063C45.5147 54.0603 48.4709 54.6597 50.1599 56.9428C52.1464 59.6278 51.7399 63.6853 48.685 65.9453ZM46.7095 62.8043C47.626 62.1263 47.6113 60.6942 46.8382 59.6491C46.291 58.9095 45.4322 58.7239 44.7248 59.2473C43.8083 59.9253 43.8229 61.3574 44.5961 62.4025C45.1433 63.1421 46.0021 63.3277 46.7095 62.8043ZM57.3631 59.5251C55.8035 60.6789 53.5573 60.4002 51.9514 58.2296C49.5843 55.0301 49.723 50.9469 52.2956 49.0437C53.5497 48.1159 54.786 48.0719 55.8554 48.475L53.9273 43.5822L57.5771 40.8821L63.1252 54.9387L59.4755 57.6388L59.0505 56.56C58.8993 57.6671 58.2956 58.8351 57.3631 59.5251ZM57.0919 55.1232C58.0887 54.3857 58.1104 52.9018 57.3492 51.8728C56.7901 51.1171 55.9229 50.9874 55.2476 51.487C54.2508 52.2245 54.2291 53.7084 54.9904 54.7374C55.5494 55.4931 56.4166 55.6228 57.0919 55.1232ZM65.7964 47.4892C66.368 48.161 67.1632 48.2942 67.9831 47.6875C68.578 47.2474 68.9623 46.5899 69.2284 45.6716L72.2845 46.2716C71.9419 47.8934 71.1244 49.3441 69.5809 50.486C66.9119 52.4606 64.1181 52.1143 62.4171 49.8151C60.4425 47.1462 60.4616 43.0022 63.8059 40.528C66.7 38.3869 69.1159 39.6348 70.4838 41.4837C70.912 42.0626 71.2319 42.6967 71.4398 43.314L65.7964 47.4892ZM64.832 45.7149L67.308 43.883C67.2611 43.7187 67.182 43.5782 67.0869 43.4496C66.73 42.9672 66.0432 42.7787 65.4483 43.2188C64.9017 43.6233 64.444 44.4843 64.832 45.7149ZM30.8352 106.194L25.5314 92.7029L35.13 85.6016L36.5778 89.3071L30.6771 93.6726L31.2162 95.0402L36.7149 90.9721L38.0017 94.2246L32.5029 98.2927L33.0693 99.7644L39.0504 95.3394L40.5143 99.0331L30.8352 106.194ZM41.0264 98.6542L41.7999 91.0911L36.9273 88.1032L40.6414 85.3554L42.5364 86.7399L42.6833 83.8448L46.6546 80.9067L45.8818 88.3698L50.8341 91.3982L47.12 94.146L45.1453 92.7211L44.9977 95.7162L41.0264 98.6542ZM52.442 94.1892L47.0828 80.5899L50.7326 77.8897L51.1575 78.9685C51.3088 77.8615 51.9124 76.6934 52.845 76.0035C54.4046 74.8497 56.6508 75.1284 58.2566 77.2989C60.6237 80.4985 60.485 84.5817 57.9125 86.4849C56.6584 87.4127 55.4221 87.4566 54.3527 87.0536L56.0917 91.4891L52.442 94.1892ZM54.9604 84.0415C55.9573 83.304 55.979 81.8201 55.2177 80.7911C54.6586 80.0354 53.7915 79.9058 53.1162 80.4054C52.1193 81.1428 52.0976 82.6267 52.8589 83.6557C53.418 84.4114 54.2851 84.5411 54.9604 84.0415ZM62.0491 83.1011L56.517 69.0326L60.1668 66.3324L65.6988 80.4009L62.0491 83.1011ZM72.2973 75.8426C69.5319 77.8886 66.5757 77.2892 64.8866 75.0061C62.9002 72.321 63.3067 68.2636 66.3616 66.0036C69.127 63.9576 72.0832 64.557 73.7723 66.8401C75.7587 69.5251 75.3522 73.5826 72.2973 75.8426ZM70.3218 72.7016C71.2383 72.0236 71.2237 70.5915 70.4505 69.5464C69.9033 68.8068 69.0445 68.6212 68.3371 69.1446C67.4206 69.8226 67.4352 71.2547 68.2084 72.2998C68.7556 73.0394 69.6144 73.225 70.3218 72.7016ZM77.0745 71.9849L72.9272 61.4695L76.577 58.7693L77.4192 60.8829C77.3589 59.0865 77.8009 57.5653 79.2634 56.5829L81.1011 61.219L80.7152 61.5045C78.9948 62.7773 78.7564 64.3717 79.6854 66.6699L80.7243 69.2847L77.0745 71.9849ZM85.7974 60.0582C86.369 60.73 87.1641 60.8632 87.9841 60.2566C88.579 59.8164 88.9633 59.1589 89.2294 58.2407L92.2855 58.8407C91.9429 60.4625 91.1254 61.9131 89.5819 63.0551C86.9129 65.0296 84.1191 64.6834 82.4181 62.3842C80.4435 59.7152 80.4626 55.5712 83.8069 53.0971C86.701 50.956 89.1169 52.2038 90.4848 54.0528C90.913 54.6316 91.2329 55.2657 91.4408 55.8831L85.7974 60.0582ZM84.833 58.2839L87.309 56.4521C87.2621 56.2877 87.183 56.1472 87.0878 56.0186C86.731 55.5363 86.0442 55.3478 85.4493 55.7879C84.9027 56.1923 84.445 57.0533 84.833 58.2839ZM93.8279 59.5903L89.6806 49.075L93.3303 46.3748L94.1725 48.4884C94.1123 46.6919 94.5542 45.1708 96.0167 44.1883L97.8544 48.8245L97.4685 49.1099C95.7482 50.3827 95.5097 51.9772 96.4387 54.2753L97.4776 56.8902L93.8279 59.5903Z" fill="#263E65"/>
<path d="M38.6447 60.3371L39.511 60.8367L39.9275 60.1145L39.2921 59.5749L38.6447 60.3371ZM36.3668 64.2862L35.7408 65.066L36.6503 65.7963L37.2331 64.7859L36.3668 64.2862ZM37.6199 67.1905L37.6516 66.191L36.6633 66.1596L36.6208 67.1476L37.6199 67.1905ZM41.7471 67.3215L42.747 67.335L42.7602 66.3532L41.7788 66.322L41.7471 67.3215ZM37.8112 72.7959C36.3963 73.8427 34.9507 74.2498 33.6693 74.1193C32.4009 73.9901 31.1868 73.3248 30.2201 72.0182L28.6123 73.2077C29.8819 74.9238 31.587 75.9176 33.4666 76.109C35.3331 76.2991 37.2643 75.6883 39.0007 74.4037L37.8112 72.7959ZM30.2201 72.0182C28.2226 69.3181 27.8566 64.4871 32.1985 61.2749L31.009 59.6671C25.6396 63.6394 26.066 69.7659 28.6123 73.2077L30.2201 72.0182ZM32.1985 61.2749C34.3175 59.7072 36.4681 59.8004 37.9974 61.0993L39.2921 59.5749C36.9389 57.5762 33.7455 57.6425 31.009 59.6671L32.1985 61.2749ZM37.7785 59.8374L35.5006 63.7866L37.2331 64.7859L39.511 60.8367L37.7785 59.8374ZM36.9929 63.5065C36.3853 63.0186 35.6953 62.7444 34.9686 62.7381C34.2457 62.7318 33.5775 62.9913 33.0085 63.4122L34.198 65.0201C34.4812 64.8106 34.7351 64.7361 34.9512 64.738C35.1635 64.7398 35.4292 64.8159 35.7408 65.066L36.9929 63.5065ZM33.0085 63.4122C30.7481 65.0845 30.9349 68.1084 32.3017 69.9558L33.9095 68.7663C32.9924 67.5266 33.082 65.8457 34.198 65.0201L33.0085 63.4122ZM32.3017 69.9558C32.8855 70.7448 33.6497 71.2565 34.5099 71.3989C35.3694 71.5411 36.2084 71.2948 36.8963 70.7858L35.7068 69.178C35.3979 69.4066 35.0969 69.4688 34.8365 69.4257C34.5769 69.3827 34.2416 69.2152 33.9095 68.7663L32.3017 69.9558ZM36.8963 70.7858C38.0714 69.9165 38.5579 68.653 38.6189 67.2334L36.6208 67.1476C36.578 68.1433 36.2682 68.7627 35.7068 69.178L36.8963 70.7858ZM37.5881 68.19L41.7154 68.321L41.7788 66.322L37.6516 66.191L37.5881 68.19ZM40.7472 67.308C40.7201 69.3199 39.9461 71.2164 37.8112 72.7959L39.0007 74.4037C41.6571 72.4384 42.7118 69.9468 42.747 67.335L40.7472 67.308ZM48.0903 65.1414C46.8867 66.0318 45.7142 66.2985 44.7132 66.1599C43.7097 66.0209 42.7791 65.4613 42.0782 64.5141L40.4704 65.7036C41.4587 67.0394 42.8507 67.921 44.4388 68.141C46.0296 68.3613 47.7179 67.9047 49.2798 66.7492L48.0903 65.1414ZM42.0782 64.5141C40.4142 62.2648 40.7412 58.8358 43.344 56.9102L42.1545 55.3024C38.6476 57.8969 38.1615 62.5827 40.4704 65.7036L42.0782 64.5141ZM43.344 56.9102C44.5476 56.0197 45.7201 55.753 46.721 55.8917C47.7246 56.0307 48.6552 56.5902 49.356 57.5375L50.9639 56.348C49.9756 55.0122 48.5836 54.1305 46.9954 53.9106C45.4047 53.6903 43.7164 54.1468 42.1545 55.3024L43.344 56.9102ZM49.356 57.5375C51.0201 59.7867 50.693 63.2158 48.0903 65.1414L49.2798 66.7492C52.7867 64.1547 53.2728 59.4689 50.9639 56.348L49.356 57.5375ZM47.3043 63.6082C48.84 62.472 48.5969 60.345 47.6421 59.0543L46.0343 60.2438C46.6258 61.0434 46.4119 61.7806 46.1148 62.0004L47.3043 63.6082ZM47.6421 59.0543C47.2443 58.5166 46.6881 58.1225 46.0355 57.9935C45.3715 57.8623 44.6962 58.0244 44.13 58.4433L45.3195 60.0512C45.4607 59.9467 45.5686 59.9399 45.6477 59.9556C45.7381 59.9735 45.8849 60.042 46.0343 60.2438L47.6421 59.0543ZM44.13 58.4433C42.5942 59.5795 42.8373 61.7066 43.7922 62.9972L45.4 61.8077C44.8085 61.0082 45.0223 60.271 45.3195 60.0512L44.13 58.4433ZM43.7922 62.9972C44.19 63.535 44.7462 63.929 45.3988 64.058C46.0628 64.1893 46.738 64.0271 47.3043 63.6082L46.1148 62.0004C45.9735 62.1049 45.8657 62.1116 45.7866 62.096C45.6962 62.0781 45.5494 62.0096 45.4 61.8077L43.7922 62.9972ZM55.8554 48.475L55.5027 49.4107L57.6122 50.2057L56.7857 48.1083L55.8554 48.475ZM53.9273 43.5822L53.3326 42.7783L52.7156 43.2348L52.997 43.9489L53.9273 43.5822ZM57.5771 40.8821L58.5072 40.5149L58.0292 39.3037L56.9823 40.0781L57.5771 40.8821ZM63.1252 54.9387L63.72 55.7426L64.3373 55.2858L64.0554 54.5715L63.1252 54.9387ZM59.4755 57.6388L58.545 58.0053L59.0226 59.2178L60.0702 58.4427L59.4755 57.6388ZM59.0505 56.56L59.9809 56.1935L58.5779 52.6318L58.0597 56.4247L59.0505 56.56ZM56.7683 58.7211C56.2124 59.1325 55.5494 59.2829 54.876 59.1445C54.199 59.0053 53.4372 58.5564 52.7553 57.6349L51.1475 58.8244C52.0716 60.0733 53.2357 60.8491 54.4733 61.1035C55.7143 61.3586 56.9542 61.0715 57.9578 60.329L56.7683 58.7211ZM52.7553 57.6349C50.5843 54.7003 50.9218 51.3039 52.8903 49.8476L51.7008 48.2398C48.5243 50.5898 48.5844 55.3599 51.1475 58.8244L52.7553 57.6349ZM52.8903 49.8476C53.8579 49.1317 54.7349 49.1214 55.5027 49.4107L56.208 47.5392C54.837 47.0225 53.2414 47.1 51.7008 48.2398L52.8903 49.8476ZM56.7857 48.1083L54.8577 43.2156L52.997 43.9489L54.925 48.8416L56.7857 48.1083ZM54.5221 44.3861L58.1718 41.686L56.9823 40.0781L53.3326 42.7783L54.5221 44.3861ZM56.6469 41.2492L62.195 55.3058L64.0554 54.5715L58.5072 40.5149L56.6469 41.2492ZM62.5305 54.1348L58.8807 56.8349L60.0702 58.4427L63.72 55.7426L62.5305 54.1348ZM60.4059 57.2723L59.9809 56.1935L58.1201 56.9265L58.545 58.0053L60.4059 57.2723ZM58.0597 56.4247C57.9392 57.307 57.4519 58.2154 56.7683 58.7211L57.9578 60.329C59.1393 59.4549 59.8594 58.0271 60.0413 56.6954L58.0597 56.4247ZM57.6866 55.9271C59.257 54.7653 59.138 52.6093 58.1531 51.278L56.5452 52.4676C57.0829 53.1943 56.9205 54.0061 56.4971 54.3193L57.6866 55.9271ZM58.1531 51.278C57.7406 50.7205 57.1687 50.3378 56.513 50.2239C55.8548 50.1096 55.1953 50.2818 54.6529 50.6831L55.8424 52.2909C55.9753 52.1926 56.087 52.1799 56.1709 52.1945C56.2574 52.2095 56.3986 52.2694 56.5452 52.4676L58.1531 51.278ZM54.6529 50.6831C53.0825 51.8449 53.2015 54.0009 54.1864 55.3322L55.7943 54.1427C55.2566 53.416 55.4191 52.6041 55.8424 52.2909L54.6529 50.6831ZM54.1864 55.3322C54.5989 55.8897 55.1708 56.2725 55.8265 56.3863C56.4847 56.5006 57.1442 56.3284 57.6866 55.9271L56.4971 54.3193C56.3643 54.4176 56.2525 54.4303 56.1686 54.4158C56.0821 54.4007 55.9409 54.3408 55.7943 54.1427L54.1864 55.3322ZM65.7964 47.4892L65.2016 46.6853L64.3411 47.322L65.0348 48.1373L65.7964 47.4892ZM69.2284 45.6716L69.421 44.6904L68.5226 44.514L68.2678 45.3934L69.2284 45.6716ZM72.2845 46.2716L73.2629 46.4783L73.4726 45.4858L72.4771 45.2904L72.2845 46.2716ZM71.4398 43.314L72.0346 44.1179L72.62 43.6849L72.3875 42.9948L71.4398 43.314ZM64.832 45.7149L63.8783 46.0155L64.2998 47.3525L65.4267 46.5188L64.832 45.7149ZM67.308 43.883L67.9028 44.6869L68.4599 44.2748L68.2696 43.6084L67.308 43.883ZM65.0348 48.1373C65.4485 48.6234 66.0085 48.9863 66.6861 49.0616C67.3644 49.137 68.0145 48.9083 68.5779 48.4914L67.3884 46.8836C67.1318 47.0734 66.9743 47.0814 66.9071 47.0739C66.8393 47.0663 66.7159 47.0267 66.558 46.8411L65.0348 48.1373ZM68.5779 48.4914C69.4113 47.8748 69.8877 46.9897 70.1889 45.9499L68.2678 45.3934C68.037 46.1901 67.7447 46.62 67.3884 46.8836L68.5779 48.4914ZM69.0357 46.6529L72.0918 47.2529L72.4771 45.2904L69.421 44.6904L69.0357 46.6529ZM71.3061 46.0649C71.0095 47.4686 70.3163 48.698 68.9861 49.6821L70.1756 51.2899C71.9325 49.9902 72.8742 48.3182 73.2629 46.4783L71.3061 46.0649ZM68.9861 49.6821C67.8063 50.555 66.6833 50.855 65.7376 50.7584C64.8034 50.663 63.9233 50.1696 63.221 49.2204L61.6132 50.4099C62.6119 51.7598 63.9792 52.5892 65.5344 52.7481C67.078 52.9058 68.6865 52.3916 70.1756 51.2899L68.9861 49.6821ZM63.221 49.2204C61.5245 46.9273 61.5656 43.4294 64.4007 41.3319L63.2111 39.7241C59.3577 42.575 59.3605 47.3651 61.6132 50.4099L63.221 49.2204ZM64.4007 41.3319C65.6501 40.4076 66.6786 40.2869 67.4816 40.4815C68.3247 40.6858 69.0889 41.2796 69.6799 42.0785L71.2877 40.889C70.5108 39.8389 69.3831 38.8843 67.9526 38.5377C66.4823 38.1814 64.8558 38.5074 63.2111 39.7241L64.4007 41.3319ZM69.6799 42.0785C70.0436 42.5701 70.3161 43.1105 70.4922 43.6333L72.3875 42.9948C72.1477 42.2828 71.7805 41.555 71.2877 40.889L69.6799 42.0785ZM70.8451 42.5101L65.2016 46.6853L66.3911 48.2931L72.0346 44.1179L70.8451 42.5101ZM65.4267 46.5188L67.9028 44.6869L66.7133 43.0791L64.2372 44.9109L65.4267 46.5188ZM68.2696 43.6084C68.1813 43.2992 68.0363 43.0515 67.8908 42.8548L66.2829 44.0443C66.3278 44.1049 66.3409 44.1383 66.3465 44.1576L68.2696 43.6084ZM67.8908 42.8548C67.2395 41.9745 65.9371 41.6133 64.8536 42.4149L66.0431 44.0227C66.089 43.9888 66.1211 43.9779 66.1374 43.974C66.1541 43.97 66.1673 43.9702 66.1794 43.9724C66.206 43.9772 66.2479 43.9969 66.2829 44.0443L67.8908 42.8548ZM64.8536 42.4149C63.9578 43.0777 63.3642 44.3851 63.8783 46.0155L65.7857 45.4142C65.5238 44.5835 65.8456 44.1689 66.0431 44.0227L64.8536 42.4149ZM30.8352 106.194L29.9045 106.56L30.3816 107.773L31.4299 106.998L30.8352 106.194ZM25.5314 92.7029L24.9366 91.899L24.3201 92.3551L24.6007 93.0688L25.5314 92.7029ZM35.13 85.6016L36.0615 85.2377L35.5859 84.0204L34.5353 84.7977L35.13 85.6016ZM36.5778 89.3071L37.1726 90.111L37.7877 89.6559L37.5092 88.9432L36.5778 89.3071ZM30.6771 93.6726L30.0824 92.8687L29.4653 93.3252L29.7468 94.0393L30.6771 93.6726ZM31.2162 95.0402L30.2859 95.4069L30.7636 96.6189L31.8109 95.8441L31.2162 95.0402ZM36.7149 90.9721L37.6448 90.6042L37.1661 89.3943L36.1202 90.1682L36.7149 90.9721ZM38.0017 94.2246L38.5964 95.0285L39.2143 94.5714L38.9315 93.8567L38.0017 94.2246ZM32.5029 98.2927L31.9082 97.4888L31.2963 97.9415L31.5697 98.6518L32.5029 98.2927ZM33.0693 99.7644L32.136 100.124L32.6079 101.35L33.6641 100.568L33.0693 99.7644ZM39.0504 95.3394L39.98 94.971L39.501 93.7622L38.4556 94.5355L39.0504 95.3394ZM40.5143 99.0331L41.109 99.837L41.7273 99.3796L41.4439 98.6647L40.5143 99.0331ZM31.7659 105.828L26.462 92.337L24.6007 93.0688L29.9045 106.56L31.7659 105.828ZM26.1261 93.5068L35.7248 86.4055L34.5353 84.7977L24.9366 91.899L26.1261 93.5068ZM34.1986 85.9655L35.6464 89.6711L37.5092 88.9432L36.0615 85.2377L34.1986 85.9655ZM35.9831 88.5032L30.0824 92.8687L31.2719 94.4765L37.1726 90.111L35.9831 88.5032ZM29.7468 94.0393L30.2859 95.4069L32.1465 94.6735L31.6075 93.3059L29.7468 94.0393ZM31.8109 95.8441L37.3097 91.776L36.1202 90.1682L30.6214 94.2363L31.8109 95.8441ZM35.785 91.3399L37.0718 94.5924L38.9315 93.8567L37.6448 90.6042L35.785 91.3399ZM37.4069 93.4206L31.9082 97.4888L33.0977 99.0966L38.5964 95.0285L37.4069 93.4206ZM31.5697 98.6518L32.136 100.124L34.0026 99.4052L33.4362 97.9335L31.5697 98.6518ZM33.6641 100.568L39.6451 96.1434L38.4556 94.5355L32.4746 98.9605L33.6641 100.568ZM38.1207 95.7079L39.5846 99.4015L41.4439 98.6647L39.98 94.971L38.1207 95.7079ZM39.9195 98.2292L30.2404 105.39L31.4299 106.998L41.109 99.837L39.9195 98.2292ZM41.0264 98.6542L40.0316 98.5525L39.8012 100.805L41.6211 99.4581L41.0264 98.6542ZM41.7999 91.0911L42.7947 91.1929L42.8587 90.5673L42.3226 90.2386L41.7999 91.0911ZM36.9273 88.1032L36.3326 87.2993L35.141 88.1808L36.4046 88.9557L36.9273 88.1032ZM40.6414 85.3554L41.2313 84.548L40.6377 84.1143L40.0466 84.5515L40.6414 85.3554ZM42.5364 86.7399L41.9465 87.5473L43.4412 88.6394L43.5351 86.7905L42.5364 86.7399ZM42.6833 83.8448L42.0886 83.0408L41.7086 83.322L41.6846 83.7941L42.6833 83.8448ZM46.6546 80.9067L47.6493 81.0097L47.8829 78.7541L46.0599 80.1028L46.6546 80.9067ZM45.8818 88.3698L44.8871 88.2668L44.8221 88.8939L45.3601 89.2229L45.8818 88.3698ZM50.8341 91.3982L51.4288 92.2022L52.622 91.3194L51.3558 90.5451L50.8341 91.3982ZM47.12 94.146L46.5348 94.9569L47.1274 95.3845L47.7148 94.9499L47.12 94.146ZM45.1453 92.7211L45.7304 91.9101L44.2371 90.8326L44.1465 92.6718L45.1453 92.7211ZM44.9977 95.7162L45.5924 96.5201L45.9732 96.2384L45.9965 95.7654L44.9977 95.7162ZM42.0212 98.756L42.7947 91.1929L40.8051 90.9894L40.0316 98.5525L42.0212 98.756ZM42.3226 90.2386L37.4501 87.2507L36.4046 88.9557L41.2771 91.9436L42.3226 90.2386ZM37.5221 88.9071L41.2361 86.1593L40.0466 84.5515L36.3326 87.2993L37.5221 88.9071ZM40.0515 86.1629L41.9465 87.5473L43.1263 85.9324L41.2313 84.548L40.0515 86.1629ZM43.5351 86.7905L43.682 83.8954L41.6846 83.7941L41.5377 86.6892L43.5351 86.7905ZM43.2781 84.6487L47.2494 81.7106L46.0599 80.1028L42.0886 83.0408L43.2781 84.6487ZM45.6599 80.8037L44.8871 88.2668L46.8765 88.4728L47.6493 81.0097L45.6599 80.8037ZM45.3601 89.2229L50.3124 92.2514L51.3558 90.5451L46.4035 87.5167L45.3601 89.2229ZM50.2393 90.5943L46.5253 93.3421L47.7148 94.9499L51.4288 92.2022L50.2393 90.5943ZM47.7052 93.3351L45.7304 91.9101L44.5601 93.532L46.5348 94.9569L47.7052 93.3351ZM44.1465 92.6718L43.9989 95.6669L45.9965 95.7654L46.1441 92.7703L44.1465 92.6718ZM44.4029 94.9122L40.4316 97.8503L41.6211 99.4581L45.5924 96.5201L44.4029 94.9122ZM52.442 94.1892L51.5116 94.5559L51.9893 95.7681L53.0367 94.9931L52.442 94.1892ZM47.0828 80.5899L46.4881 79.786L45.8711 80.2424L46.1525 80.9565L47.0828 80.5899ZM50.7326 77.8897L51.663 77.5232L51.1854 76.3108L50.1378 77.0858L50.7326 77.8897ZM51.1575 78.9685L50.2271 79.335L51.6301 82.8968L52.1483 79.1039L51.1575 78.9685ZM54.3527 87.0536L54.7053 86.1178L52.6007 85.3247L53.4217 87.4186L54.3527 87.0536ZM56.0917 91.4891L56.6865 92.293L57.3024 91.8373L57.0227 91.124L56.0917 91.4891ZM53.3723 93.8226L48.0132 80.2232L46.1525 80.9565L51.5116 94.5559L53.3723 93.8226ZM47.6776 81.3938L51.3273 78.6936L50.1378 77.0858L46.4881 79.786L47.6776 81.3938ZM49.8022 78.2562L50.2271 79.335L52.0879 78.602L51.663 77.5232L49.8022 78.2562ZM52.1483 79.1039C52.2689 78.2215 52.7561 77.3131 53.4397 76.8074L52.2502 75.1996C51.0688 76.0737 50.3487 77.5014 50.1667 78.8331L52.1483 79.1039ZM53.4397 76.8074C53.9957 76.3961 54.6586 76.2456 55.3321 76.3841C56.009 76.5232 56.7709 76.9721 57.4527 77.8937L59.0605 76.7042C58.1365 75.4552 56.9723 74.6794 55.7348 74.425C54.4938 74.1699 53.2538 74.4571 52.2502 75.1996L53.4397 76.8074ZM57.4527 77.8937C59.6238 80.8283 59.2862 84.2246 57.3177 85.681L58.5072 87.2888C61.6838 84.9387 61.6236 80.1687 59.0605 76.7042L57.4527 77.8937ZM57.3177 85.681C56.3501 86.3968 55.4731 86.4072 54.7053 86.1178L54 87.9893C55.371 88.506 56.9666 88.4286 58.5072 87.2888L57.3177 85.681ZM53.4217 87.4186L55.1607 91.8541L57.0227 91.124L55.2837 86.6886L53.4217 87.4186ZM55.497 90.6852L51.8472 93.3853L53.0367 94.9931L56.6865 92.293L55.497 90.6852ZM55.5552 84.8454C57.1255 83.6836 57.0065 81.5277 56.0216 80.1964L54.4138 81.3859C54.9514 82.1126 54.789 82.9244 54.3657 83.2376L55.5552 84.8454ZM56.0216 80.1964C55.6091 79.6388 55.0372 79.2561 54.3816 79.1422C53.7233 79.028 53.0638 79.2002 52.5214 79.6014L53.7109 81.2093C53.8438 81.111 53.9555 81.0982 54.0394 81.1128C54.126 81.1278 54.2672 81.1877 54.4138 81.3859L56.0216 80.1964ZM52.5214 79.6014C50.9511 80.7632 51.0701 82.9192 52.055 84.2505L53.6628 83.061C53.1252 82.3343 53.2876 81.5225 53.7109 81.2093L52.5214 79.6014ZM52.055 84.2505C52.4675 84.808 53.0394 85.1908 53.695 85.3046C54.3533 85.4189 55.0128 85.2467 55.5552 84.8454L54.3657 83.2376C54.2328 83.3359 54.1211 83.3487 54.0371 83.3341C53.9506 83.3191 53.8094 83.2591 53.6628 83.061L52.055 84.2505ZM62.0491 83.1011L61.1185 83.467L61.5956 84.6805L62.6438 83.905L62.0491 83.1011ZM56.517 69.0326L55.9223 68.2287L55.3057 68.6848L55.5864 69.3985L56.517 69.0326ZM60.1668 66.3324L61.0974 65.9665L60.6203 64.753L59.572 65.5285L60.1668 66.3324ZM65.6988 80.4009L66.2936 81.2048L66.9101 80.7487L66.6295 80.035L65.6988 80.4009ZM62.9797 82.7351L57.4477 68.6666L55.5864 69.3985L61.1185 83.467L62.9797 82.7351ZM57.1118 69.8365L60.7615 67.1363L59.572 65.5285L55.9223 68.2287L57.1118 69.8365ZM59.2361 66.6984L64.7682 80.7669L66.6295 80.035L61.0974 65.9665L59.2361 66.6984ZM65.1041 79.597L61.4543 82.2972L62.6438 83.905L66.2936 81.2048L65.1041 79.597ZM71.7026 75.0387C70.499 75.9291 69.3265 76.1958 68.3255 76.0572C67.322 75.9182 66.3914 75.3586 65.6905 74.4113L64.0827 75.6009C65.071 76.9367 66.463 77.8183 68.0511 78.0383C69.6419 78.2586 71.3302 77.802 72.8921 76.6465L71.7026 75.0387ZM65.6905 74.4113C64.0265 72.1621 64.3536 68.7331 66.9563 66.8075L65.7668 65.1997C62.2599 67.7942 61.7738 72.48 64.0827 75.6009L65.6905 74.4113ZM66.9563 66.8075C68.1599 65.917 69.3324 65.6503 70.3333 65.789C71.3369 65.928 72.2675 66.4875 72.9683 67.4348L74.5762 66.2453C73.5879 64.9095 72.1959 64.0278 70.6077 63.8079C69.017 63.5876 67.3287 64.0441 65.7668 65.1997L66.9563 66.8075ZM72.9683 67.4348C74.6324 69.684 74.3053 73.1131 71.7026 75.0387L72.8921 76.6465C76.399 74.052 76.8851 69.3662 74.5762 66.2453L72.9683 67.4348ZM70.9166 73.5055C72.4523 72.3693 72.2092 70.2423 71.2544 68.9516L69.6466 70.1411C70.2381 70.9407 70.0242 71.6779 69.7271 71.8977L70.9166 73.5055ZM71.2544 68.9516C70.8566 68.4139 70.3004 68.0198 69.6478 67.8908C68.9838 67.7596 68.3085 67.9217 67.7423 68.3406L68.9318 69.9485C69.073 69.844 69.1809 69.8372 69.26 69.8529C69.3504 69.8708 69.4972 69.9393 69.6466 70.1411L71.2544 68.9516ZM67.7423 68.3406C66.2066 69.4768 66.4497 71.6039 67.4045 72.8945L69.0123 71.705C68.4208 70.9055 68.6346 70.1683 68.9318 69.9485L67.7423 68.3406ZM67.4045 72.8945C67.8023 73.4323 68.3585 73.8263 69.0111 73.9553C69.6751 74.0866 70.3504 73.9244 70.9166 73.5055L69.7271 71.8977C69.5859 72.0022 69.478 72.0089 69.3989 71.9933C69.3085 71.9754 69.1617 71.9069 69.0123 71.705L67.4045 72.8945ZM77.0745 71.9849L76.1443 72.3518L76.6222 73.5635L77.6693 72.7888L77.0745 71.9849ZM72.9272 61.4695L72.3325 60.6656L71.7153 61.1222L71.997 61.8364L72.9272 61.4695ZM76.577 58.7693L77.506 58.3992L77.0256 57.1936L75.9822 57.9654L76.577 58.7693ZM77.4192 60.8829L76.4902 61.2531L78.4186 60.8494L77.4192 60.8829ZM79.2634 56.5829L80.193 56.2144L79.7357 55.0608L78.7057 55.7528L79.2634 56.5829ZM81.1011 61.219L81.6958 62.0229L82.3141 61.5655L82.0307 60.8505L81.1011 61.219ZM79.6854 66.6699L80.6147 66.3006L80.6125 66.2951L79.6854 66.6699ZM80.7243 69.2847L81.319 70.0886L81.9378 69.6308L81.6536 68.9155L80.7243 69.2847ZM78.0048 71.618L73.8575 61.1026L71.997 61.8364L76.1443 72.3518L78.0048 71.618ZM73.522 62.2734L77.1717 59.5733L75.9822 57.9654L72.3325 60.6656L73.522 62.2734ZM75.648 59.1395L76.4902 61.2531L78.3482 60.5127L77.506 58.3992L75.648 59.1395ZM78.4186 60.8494C78.3645 59.2343 78.7585 58.1267 79.821 57.413L78.7057 55.7528C76.8433 57.0039 76.3534 58.9386 76.4197 60.9164L78.4186 60.8494ZM78.3337 56.9514L80.1714 61.5875L82.0307 60.8505L80.193 56.2144L78.3337 56.9514ZM80.5063 60.4151L80.1204 60.7006L81.3099 62.3084L81.6958 62.0229L80.5063 60.4151ZM80.1204 60.7006C79.1073 61.4501 78.4393 62.3702 78.2239 63.5183C78.0155 64.6294 78.2593 65.8104 78.7582 67.0446L80.6125 66.2951C80.1824 65.2312 80.081 64.4659 80.1896 63.8871C80.2913 63.3452 80.6027 62.8316 81.3099 62.3084L80.1204 60.7006ZM78.756 67.0391L79.7949 69.6539L81.6536 68.9155L80.6147 66.3006L78.756 67.0391ZM80.1295 68.4808L76.4798 71.181L77.6693 72.7888L81.319 70.0886L80.1295 68.4808ZM85.7974 60.0582L85.2026 59.2543L84.342 59.891L85.0358 60.7063L85.7974 60.0582ZM89.2294 58.2407L89.422 57.2594L88.5236 57.083L88.2688 57.9624L89.2294 58.2407ZM92.2855 58.8407L93.2639 59.0474L93.4736 58.0548L92.4781 57.8594L92.2855 58.8407ZM91.4408 55.8831L92.0356 56.687L92.621 56.2539L92.3885 55.5638L91.4408 55.8831ZM84.833 58.2839L83.8792 58.5846L84.3008 59.9216L85.4277 59.0878L84.833 58.2839ZM87.309 56.4521L87.9038 57.256L88.4609 56.8438L88.2706 56.1774L87.309 56.4521ZM85.0358 60.7063C85.4495 61.1925 86.0095 61.5553 86.6871 61.6307C87.3654 61.7061 88.0155 61.4773 88.5789 61.0605L87.3894 59.4526C87.1328 59.6425 86.9753 59.6504 86.9081 59.6429C86.8403 59.6354 86.7169 59.5958 86.559 59.4102L85.0358 60.7063ZM88.5789 61.0605C89.4123 60.4439 89.8886 59.5587 90.1899 58.5189L88.2688 57.9624C88.038 58.7592 87.7457 59.189 87.3894 59.4526L88.5789 61.0605ZM89.0367 59.2219L92.0928 59.8219L92.4781 57.8594L89.422 57.2594L89.0367 59.2219ZM91.3071 58.634C91.0105 60.0377 90.3172 61.2671 88.9871 62.2512L90.1766 63.859C91.9335 62.5592 92.8752 60.8872 93.2639 59.0474L91.3071 58.634ZM88.9871 62.2512C87.8073 63.124 86.6843 63.4241 85.7386 63.3275C84.8044 63.232 83.9243 62.7387 83.222 61.7894L81.6142 62.9789C82.6129 64.3289 83.9802 65.1582 85.5354 65.3171C87.079 65.4748 88.6875 64.9607 90.1766 63.859L88.9871 62.2512ZM83.222 61.7894C81.5255 59.4963 81.5666 55.9984 84.4016 53.901L83.2121 52.2932C79.3587 55.144 79.3615 59.9341 81.6142 62.9789L83.222 61.7894ZM84.4016 53.901C85.6511 52.9766 86.6796 52.8559 87.4826 53.0505C88.3257 53.2548 89.0898 53.8487 89.6809 54.6475L91.2887 53.458C90.5118 52.4079 89.3841 51.4534 87.9536 51.1068C86.4833 50.7505 84.8568 51.0764 83.2121 52.2932L84.4016 53.901ZM89.6809 54.6475C90.0446 55.1391 90.3171 55.6796 90.4931 56.2023L92.3885 55.5638C92.1487 54.8518 91.7814 54.1241 91.2887 53.458L89.6809 54.6475ZM90.8461 55.0792L85.2026 59.2543L86.3921 60.8621L92.0356 56.687L90.8461 55.0792ZM85.4277 59.0878L87.9038 57.256L86.7143 55.6481L84.2382 57.48L85.4277 59.0878ZM88.2706 56.1774C88.1823 55.8682 88.0373 55.6205 87.8918 55.4238L86.2839 56.6133C86.3288 56.6739 86.3419 56.7073 86.3475 56.7267L88.2706 56.1774ZM87.8918 55.4238C87.2405 54.5436 85.9381 54.1823 84.8546 54.984L86.0441 56.5918C86.09 56.5578 86.1221 56.547 86.1384 56.5431C86.1551 56.5391 86.1683 56.5393 86.1804 56.5414C86.207 56.5462 86.2489 56.566 86.2839 56.6133L87.8918 55.4238ZM84.8546 54.984C83.9588 55.6467 83.3652 56.9541 83.8792 58.5846L85.7867 57.9832C85.5248 57.1525 85.8466 56.7379 86.0441 56.5918L84.8546 54.984ZM93.8279 59.5903L92.8976 59.9572L93.3755 61.1689L94.4226 60.3942L93.8279 59.5903ZM89.6806 49.075L89.0858 48.2711L88.4686 48.7277L88.7503 49.4419L89.6806 49.075ZM93.3303 46.3748L94.2593 46.0046L93.7789 44.799L92.7356 45.5709L93.3303 46.3748ZM94.1725 48.4884L93.2436 48.8585L95.172 48.4548L94.1725 48.4884ZM96.0167 44.1883L96.9463 43.8198L96.4891 42.6663L95.4591 43.3582L96.0167 44.1883ZM97.8544 48.8245L98.4492 49.6284L99.0674 49.1709L98.784 48.456L97.8544 48.8245ZM96.4387 54.2753L97.3681 53.9061L97.3658 53.9005L96.4387 54.2753ZM97.4776 56.8902L98.0724 57.6941L98.6912 57.2363L98.407 56.5209L97.4776 56.8902ZM94.7581 59.2234L90.6109 48.7081L88.7503 49.4419L92.8976 59.9572L94.7581 59.2234ZM90.2753 49.8789L93.9251 47.1787L92.7356 45.5709L89.0858 48.2711L90.2753 49.8789ZM92.4014 46.745L93.2436 48.8585L95.1015 48.1182L94.2593 46.0046L92.4014 46.745ZM95.172 48.4548C95.1178 46.8398 95.5118 45.7322 96.5743 45.0184L95.4591 43.3582C93.5967 44.6094 93.1068 46.5441 93.1731 48.5219L95.172 48.4548ZM95.0871 44.5568L96.9248 49.193L98.784 48.456L96.9463 43.8198L95.0871 44.5568ZM97.2597 48.0205L96.8738 48.306L98.0633 49.9138L98.4492 49.6284L97.2597 48.0205ZM96.8738 48.306C95.8607 49.0556 95.1927 49.9756 94.9773 51.1237C94.7688 52.2348 95.0127 53.4159 95.5116 54.6501L97.3658 53.9005C96.9357 52.8366 96.8344 52.0714 96.943 51.4925C97.0446 50.9506 97.356 50.4371 98.0633 49.9138L96.8738 48.306ZM95.5094 54.6445L96.5483 57.2594L98.407 56.5209L97.368 53.9061L95.5094 54.6445ZM96.8829 56.0863L93.2331 58.7864L94.4226 60.3942L98.0724 57.6941L96.8829 56.0863Z" fill="#E3C906" mask="url(#path-16-outside-1_208_333)"/>
</svg>
