<svg width="179" height="152" viewBox="0 0 179 152" fill="none" xmlns="http://www.w3.org/2000/svg">
<path d="M103.073 151.3C144.825 151.3 178.673 117.453 178.673 75.7001C178.673 33.9474 144.825 0.100098 103.073 0.100098C61.3199 0.100098 27.4727 33.9474 27.4727 75.7001C27.4727 117.453 61.3199 151.3 103.073 151.3Z" fill="#F8D14F"/>
<path d="M165.273 63.3001L126.773 57.6L125.473 38.1C124.973 31.3 120.373 25.4 113.773 23.5C110.373 22.5 106.773 24.7001 106.173 28.3001L104.373 51.5C103.773 55.1 99.5734 61.9 97.0734 64.6L87.0734 74.9C73.8734 83.4 47.7734 100.2 34.7734 108.5C46.9734 133.9 72.9734 151.4 102.973 151.4C103.273 151.4 103.573 151.4 103.873 151.4L124.073 132.7C128.273 131.3 131.773 130.2 135.373 128.4L161.373 118.6L160.873 101L159.373 80.7001L165.273 63.3001Z" fill="#E28B74"/>
<path d="M124.073 132.6L96.373 112.5L105.273 150.4L124.073 132.6Z" fill="#C16452"/>
<path d="M126.974 60.2002C126.974 60.2002 127.474 95.4002 115.674 102.1C131.974 107.7 136.474 113.4 136.474 113.4L126.974 60.2002Z" fill="#C16452"/>
<path d="M151.474 111C135.574 97.7999 111.574 104.3 111.374 104.3L111.074 103.3C111.274 103.2 135.774 96.5999 152.074 110.2L151.474 111Z" fill="#263E65"/>
<path d="M87.6741 96.2002C81.9741 86.5002 86.4741 75.1002 86.6741 74.7002L87.5741 75.1002C87.5741 75.2002 83.0741 86.5002 88.5741 95.8002L87.6741 96.2002Z" fill="#263E65"/>
<path d="M129.273 60.2001C137.873 59.4001 155.573 58.4001 163.873 62.5001C165.073 63.1001 165.873 64.3001 166.173 65.6001C166.673 68.5001 166.273 71.2001 165.673 73.1001C165.173 74.9001 163.573 76.1001 161.773 76.1001L129.673 75.3001C126.573 75.2001 124.173 72.5001 124.273 69.3001L124.373 65.9001C124.373 62.9001 126.473 60.5001 129.273 60.2001Z" fill="#ED9583"/>
<path d="M126.773 78.7003L126.073 83.3003C125.573 86.5003 127.773 89.5003 130.773 89.7003L158.773 92.2003C161.373 92.4003 163.673 90.3003 163.773 87.6003L164.173 81.3003C164.373 78.5003 162.373 76.2003 159.773 76.0003L132.173 74.3003C129.573 74.0003 127.273 76.0003 126.773 78.7003Z" fill="#ED9583"/>
<path d="M129.672 87.3999L125.972 91.9999C125.072 93.0999 124.672 94.4999 124.672 95.9999L124.872 99.9999C125.072 103.1 127.372 105.5 130.272 105.5H158.772C161.472 105.5 163.672 103.2 163.672 100.3V94.4999C163.672 91.6999 161.572 89.3999 158.972 89.2999L129.672 87.3999Z" fill="#ED9583"/>
<path d="M129.373 102.6L127.873 103.7C126.273 104.8 125.273 106.7 125.173 108.8L125.073 112.3C124.973 115.9 127.573 118.8 130.973 118.9C140.073 119.2 154.173 119.1 160.973 118.8C164.173 118.6 163.773 111.1 162.573 106.9C161.973 104.7 159.973 103.2 157.873 103.1L129.373 102.6Z" fill="#ED9583"/>
<path d="M159.672 76.4C149.372 75.6 129.772 75.8001 129.572 75.8001V74.8001C129.772 74.8001 149.372 74.6 159.672 75.4V76.4Z" fill="#263E65"/>
<path d="M130.873 90.2001L130.773 89.2001C130.873 89.2001 145.773 87.6001 159.173 88.7001L159.073 89.7001C145.773 88.6001 130.973 90.2001 130.873 90.2001Z" fill="#263E65"/>
<path d="M157.772 104.7C147.672 103.1 131.272 104.2 131.172 104.2L131.072 103.2C131.272 103.2 147.772 102.2 157.972 103.7L157.772 104.7Z" fill="#263E65"/>
<path opacity="0.8" d="M127.773 63.6003L128.173 70.8003C128.173 70.8003 132.073 70.6003 131.873 66.8003C131.673 63.1003 127.773 63.6003 127.773 63.6003Z" fill="white"/>
<path opacity="0.8" d="M129.273 78.6999L129.673 85.8999C129.673 85.8999 133.573 85.6999 133.373 81.8999C133.173 78.1999 129.273 78.6999 129.273 78.6999Z" fill="white"/>
<path opacity="0.8" d="M128.172 93.6L128.572 100.8C128.572 100.8 132.472 100.6 132.272 96.8C132.072 93 128.172 93.6 128.172 93.6Z" fill="white"/>
<path opacity="0.8" d="M128.572 108L128.972 115.2C128.972 115.2 132.872 115 132.672 111.2C132.472 107.4 128.572 108 128.572 108Z" fill="white"/>
<mask id="path-18-outside-1_208_364" maskUnits="userSpaceOnUse" x="6.76006" y="23.9252" width="87.2989" height="79.1418" fill="black">
<rect fill="white" x="6.76006" y="23.9252" width="87.2989" height="79.1418"/>
<path d="M23.7972 78.5571C21.5623 80.2106 19.0221 80.8459 16.7395 80.619L16.9908 76.4526C19.074 76.5782 20.7731 76.1173 21.9629 75.2371C22.4452 74.8802 22.652 74.4536 22.4141 74.132C22.1524 73.7783 21.8601 73.8204 19.7682 74.4227C17.107 75.1973 15.5791 75.1833 14.3539 73.5272C12.7481 71.3567 13.4333 68.1131 16.5042 65.8411C18.514 64.3543 20.7745 63.677 22.7696 63.8181L22.5183 67.9845C21.1547 67.9236 19.5325 68.253 18.3427 69.1332C17.8604 69.4901 17.6179 69.8685 17.8558 70.1901C18.1056 70.5277 18.3944 70.4136 20.3822 69.8386C22.8189 69.1305 24.6355 69.0304 25.9083 70.7508C27.5855 73.0178 27.0289 76.1662 23.7972 78.5571ZM32.2749 75.992C31.1334 76.8365 30.151 77.1901 29.1825 77.2598L28.611 73.528C29.4151 73.5052 30.0045 73.2931 30.4547 72.96C30.6637 72.8054 30.8168 72.6424 30.9622 72.4353L23.4876 64.8543L27.1856 62.1184L30.9049 66.5068L30.1118 59.9535L33.9063 57.1463L34.7566 69.6281C34.9755 72.8496 34.2043 74.5646 32.2749 75.992ZM38.5575 67.2888L34.4102 56.7734L38.06 54.0733L38.5794 55.3807C38.6348 54.245 39.1433 52.9483 40.2367 52.1395C41.8445 50.95 43.518 51.3289 44.7313 52.9689C45.0644 53.4191 45.3688 53.9651 45.6167 54.6027L47.8989 60.3778L44.2492 63.078L42.1874 57.8363C42.0852 57.5637 41.927 57.2826 41.7962 57.1058C41.4512 56.6395 40.9841 56.5124 40.4535 56.905C39.73 57.4403 39.7009 58.2081 40.1455 59.347L42.2072 64.5886L38.5575 67.2888ZM53.3897 56.6141C51.3317 58.1367 49.7519 58.0864 48.5624 56.4785C48.2889 56.1087 48.0558 55.6592 47.8353 55.1257L46.6311 52.0858L45.6021 52.8471L44.2762 49.4743L45.3052 48.7131L44.2705 46.0702L47.9202 43.37L48.9549 46.0129L50.9808 44.5141L52.3067 47.8868L50.2809 49.3856L51.1742 51.6355C51.3079 51.9844 51.4304 52.2172 51.5612 52.3941C51.8348 52.7639 52.2027 52.7903 52.7172 52.4096C53.0066 52.1955 53.2281 51.957 53.6356 51.4316L55.0483 54.9889C54.5402 55.6136 54.0006 56.1621 53.3897 56.6141ZM59.0224 52.4469C57.6719 53.446 56.0208 53.2992 54.9026 51.7879C53.5347 49.9389 54.0896 47.6625 56.5657 45.8306C57.2249 45.3429 57.9715 44.9398 58.7735 44.6451L58.7343 44.5248C58.6831 44.3885 58.5845 44.1878 58.4774 44.0431C58.073 43.4965 57.4129 43.5121 56.4964 44.1902C55.6925 44.7849 54.8146 45.6832 54.3862 46.3484L52.072 44.2292C52.8066 43.238 54.0745 42.0263 55.3447 41.0866C58.2548 38.9335 60.4262 39.0438 61.7227 40.7963C61.9963 41.1661 62.2573 41.6198 62.466 42.1372L64.7482 47.9122L61.0985 50.6124L60.6854 49.5497C60.3853 50.7917 60.0354 51.6975 59.0224 52.4469ZM59.2566 49.0643C59.8354 48.6361 60.0223 47.5773 59.6247 46.6027L59.4476 46.1615C59.1588 46.2756 58.9421 46.3862 58.7009 46.5646C57.7845 47.2426 57.5911 48.0574 58.1502 48.8131C58.4832 49.2633 58.9189 49.3141 59.2566 49.0643ZM65.1577 47.6093L65.9312 40.0462L61.0587 37.0582L64.7727 34.3105L66.6677 35.6949L66.8147 32.7998L70.786 29.8617L70.0131 37.3248L74.9654 40.3533L71.2513 43.1011L69.2766 41.6761L69.129 44.6712L65.1577 47.6093ZM36.5049 96.5219C34.27 98.1753 31.7298 98.8107 29.4473 98.5838L29.6985 94.4173C31.7818 94.543 33.4808 94.0821 34.6706 93.2019C35.1529 92.845 35.3597 92.4183 35.1218 92.0968C34.8601 91.7431 34.5679 91.7852 32.4759 92.3875C29.8147 93.1621 28.2868 93.1481 27.0616 91.492C25.4558 89.3215 26.141 86.0779 29.212 83.8059C31.2217 82.3191 33.4822 81.6418 35.4773 81.7829L35.2261 85.9493C33.8624 85.8884 32.2402 86.2178 31.0505 87.098C30.5681 87.4549 30.3256 87.8333 30.5635 88.1549C30.8133 88.4925 31.1021 88.3784 33.0899 87.8034C35.5266 87.0953 37.3433 86.9952 38.616 88.7156C40.2932 90.9826 39.7366 94.131 36.5049 96.5219ZM45.6385 89.7149C43.5805 91.2375 42.0008 91.1871 40.8113 89.5793C40.5377 89.2095 40.3047 88.76 40.0841 88.2265L38.88 85.1866L37.851 85.9479L36.525 82.5751L37.554 81.8138L36.5193 79.171L40.1691 76.4708L41.2038 79.1136L43.2296 77.6149L44.5556 80.9876L42.5298 82.4864L43.4231 84.7363C43.5568 85.0852 43.6793 85.318 43.8101 85.4948C44.0837 85.8646 44.4515 85.891 44.966 85.5104C45.2554 85.2963 45.477 85.0577 45.8844 84.5324L47.2972 88.0897C46.7891 88.7144 46.2495 89.2629 45.6385 89.7149ZM51.2713 85.5476C49.9207 86.5468 48.2696 86.4 47.1515 84.8887C45.7836 83.0397 46.3385 80.7633 48.8145 78.9314C49.4737 78.4437 50.2204 78.0406 51.0223 77.7458L50.9831 77.6256C50.932 77.4892 50.8333 77.2886 50.7263 77.1439C50.3218 76.5972 49.6617 76.6129 48.7453 77.2909C47.9414 77.8857 47.0635 78.784 46.6351 79.4492L44.3209 77.33C45.0554 76.3388 46.3234 75.127 47.5935 74.1873C50.5037 72.0343 52.675 72.1445 53.9716 73.8971C54.2452 74.2668 54.5062 74.7206 54.7148 75.2379L56.9971 81.013L53.3473 83.7132L52.9343 82.6505C52.6341 83.8925 52.2842 84.7982 51.2713 85.5476ZM51.5054 82.1651C52.0842 81.7369 52.2712 80.6781 51.8735 79.7034L51.6964 79.2623C51.4077 79.3764 51.1909 79.487 50.9498 79.6654C50.0333 80.3434 49.84 81.1582 50.399 81.9138C50.7321 82.364 51.1678 82.4149 51.5054 82.1651ZM57.9854 80.2818L53.8381 69.7665L57.4879 67.0663L58.33 69.1798C58.2698 67.3834 58.7118 65.8623 60.1742 64.8798L62.0119 69.5159L61.626 69.8014C59.9057 71.0742 59.6672 72.6687 60.5962 74.9668L61.6351 77.5817L57.9854 80.2818ZM69.6145 71.9769C67.5565 73.4994 65.9768 73.4491 64.7873 71.8413C64.5137 71.4715 64.2806 71.0219 64.0601 70.4885L62.856 67.4485L61.827 68.2098L60.501 64.8371L61.53 64.0758L60.4953 61.433L64.145 58.7328L65.1798 61.3756L67.2056 59.8768L68.5316 63.2496L66.5057 64.7484L67.399 66.9983C67.5327 67.3471 67.6552 67.58 67.7861 67.7568C68.0596 68.1266 68.4275 68.153 68.942 67.7724C69.2314 67.5583 69.453 67.3197 69.8604 66.7944L71.2732 70.3517C70.7651 70.9764 70.2255 71.5249 69.6145 71.9769ZM73.6953 63.1859C74.267 63.8577 75.0621 63.9909 75.8821 63.3843C76.477 62.9441 76.8613 62.2866 77.1273 61.3684L80.1834 61.9684C79.8408 63.5902 79.0233 65.0409 77.4798 66.1828C74.8108 68.1574 72.017 67.8111 70.3161 65.5119C68.3415 62.8429 68.3606 58.6989 71.7049 56.2248C74.5989 54.0837 77.0148 55.3315 78.3827 57.1805C78.811 57.7593 79.1308 58.3934 79.3388 59.0108L73.6953 63.1859ZM72.7309 61.4116L75.207 59.5798C75.16 59.4155 75.081 59.2749 74.9858 59.1463C74.629 58.664 73.9422 58.4755 73.3473 58.9156C72.8006 59.32 72.343 60.181 72.7309 61.4116ZM81.7258 62.718L77.5785 52.2027L81.2283 49.5025L82.0705 51.6161C82.0102 49.8196 82.4522 48.2985 83.9147 47.316L85.7524 51.9522L85.3665 52.2376C83.6461 53.5104 83.4077 55.1049 84.3367 57.403L85.3756 60.0179L81.7258 62.718Z"/>
</mask>
<path d="M23.7972 78.5571C21.5623 80.2106 19.0221 80.8459 16.7395 80.619L16.9908 76.4526C19.074 76.5782 20.7731 76.1173 21.9629 75.2371C22.4452 74.8802 22.652 74.4536 22.4141 74.132C22.1524 73.7783 21.8601 73.8204 19.7682 74.4227C17.107 75.1973 15.5791 75.1833 14.3539 73.5272C12.7481 71.3567 13.4333 68.1131 16.5042 65.8411C18.514 64.3543 20.7745 63.677 22.7696 63.8181L22.5183 67.9845C21.1547 67.9236 19.5325 68.253 18.3427 69.1332C17.8604 69.4901 17.6179 69.8685 17.8558 70.1901C18.1056 70.5277 18.3944 70.4136 20.3822 69.8386C22.8189 69.1305 24.6355 69.0304 25.9083 70.7508C27.5855 73.0178 27.0289 76.1662 23.7972 78.5571ZM32.2749 75.992C31.1334 76.8365 30.151 77.1901 29.1825 77.2598L28.611 73.528C29.4151 73.5052 30.0045 73.2931 30.4547 72.96C30.6637 72.8054 30.8168 72.6424 30.9622 72.4353L23.4876 64.8543L27.1856 62.1184L30.9049 66.5068L30.1118 59.9535L33.9063 57.1463L34.7566 69.6281C34.9755 72.8496 34.2043 74.5646 32.2749 75.992ZM38.5575 67.2888L34.4102 56.7734L38.06 54.0733L38.5794 55.3807C38.6348 54.245 39.1433 52.9483 40.2367 52.1395C41.8445 50.95 43.518 51.3289 44.7313 52.9689C45.0644 53.4191 45.3688 53.9651 45.6167 54.6027L47.8989 60.3778L44.2492 63.078L42.1874 57.8363C42.0852 57.5637 41.927 57.2826 41.7962 57.1058C41.4512 56.6395 40.9841 56.5124 40.4535 56.905C39.73 57.4403 39.7009 58.2081 40.1455 59.347L42.2072 64.5886L38.5575 67.2888ZM53.3897 56.6141C51.3317 58.1367 49.7519 58.0864 48.5624 56.4785C48.2889 56.1087 48.0558 55.6592 47.8353 55.1257L46.6311 52.0858L45.6021 52.8471L44.2762 49.4743L45.3052 48.7131L44.2705 46.0702L47.9202 43.37L48.9549 46.0129L50.9808 44.5141L52.3067 47.8868L50.2809 49.3856L51.1742 51.6355C51.3079 51.9844 51.4304 52.2172 51.5612 52.3941C51.8348 52.7639 52.2027 52.7903 52.7172 52.4096C53.0066 52.1955 53.2281 51.957 53.6356 51.4316L55.0483 54.9889C54.5402 55.6136 54.0006 56.1621 53.3897 56.6141ZM59.0224 52.4469C57.6719 53.446 56.0208 53.2992 54.9026 51.7879C53.5347 49.9389 54.0896 47.6625 56.5657 45.8306C57.2249 45.3429 57.9715 44.9398 58.7735 44.6451L58.7343 44.5248C58.6831 44.3885 58.5845 44.1878 58.4774 44.0431C58.073 43.4965 57.4129 43.5121 56.4964 44.1902C55.6925 44.7849 54.8146 45.6832 54.3862 46.3484L52.072 44.2292C52.8066 43.238 54.0745 42.0263 55.3447 41.0866C58.2548 38.9335 60.4262 39.0438 61.7227 40.7963C61.9963 41.1661 62.2573 41.6198 62.466 42.1372L64.7482 47.9122L61.0985 50.6124L60.6854 49.5497C60.3853 50.7917 60.0354 51.6975 59.0224 52.4469ZM59.2566 49.0643C59.8354 48.6361 60.0223 47.5773 59.6247 46.6027L59.4476 46.1615C59.1588 46.2756 58.9421 46.3862 58.7009 46.5646C57.7845 47.2426 57.5911 48.0574 58.1502 48.8131C58.4832 49.2633 58.9189 49.3141 59.2566 49.0643ZM65.1577 47.6093L65.9312 40.0462L61.0587 37.0582L64.7727 34.3105L66.6677 35.6949L66.8147 32.7998L70.786 29.8617L70.0131 37.3248L74.9654 40.3533L71.2513 43.1011L69.2766 41.6761L69.129 44.6712L65.1577 47.6093ZM36.5049 96.5219C34.27 98.1753 31.7298 98.8107 29.4473 98.5838L29.6985 94.4173C31.7818 94.543 33.4808 94.0821 34.6706 93.2019C35.1529 92.845 35.3597 92.4183 35.1218 92.0968C34.8601 91.7431 34.5679 91.7852 32.4759 92.3875C29.8147 93.1621 28.2868 93.1481 27.0616 91.492C25.4558 89.3215 26.141 86.0779 29.212 83.8059C31.2217 82.3191 33.4822 81.6418 35.4773 81.7829L35.2261 85.9493C33.8624 85.8884 32.2402 86.2178 31.0505 87.098C30.5681 87.4549 30.3256 87.8333 30.5635 88.1549C30.8133 88.4925 31.1021 88.3784 33.0899 87.8034C35.5266 87.0953 37.3433 86.9952 38.616 88.7156C40.2932 90.9826 39.7366 94.131 36.5049 96.5219ZM45.6385 89.7149C43.5805 91.2375 42.0008 91.1871 40.8113 89.5793C40.5377 89.2095 40.3047 88.76 40.0841 88.2265L38.88 85.1866L37.851 85.9479L36.525 82.5751L37.554 81.8138L36.5193 79.171L40.1691 76.4708L41.2038 79.1136L43.2296 77.6149L44.5556 80.9876L42.5298 82.4864L43.4231 84.7363C43.5568 85.0852 43.6793 85.318 43.8101 85.4948C44.0837 85.8646 44.4515 85.891 44.966 85.5104C45.2554 85.2963 45.477 85.0577 45.8844 84.5324L47.2972 88.0897C46.7891 88.7144 46.2495 89.2629 45.6385 89.7149ZM51.2713 85.5476C49.9207 86.5468 48.2696 86.4 47.1515 84.8887C45.7836 83.0397 46.3385 80.7633 48.8145 78.9314C49.4737 78.4437 50.2204 78.0406 51.0223 77.7458L50.9831 77.6256C50.932 77.4892 50.8333 77.2886 50.7263 77.1439C50.3218 76.5972 49.6617 76.6129 48.7453 77.2909C47.9414 77.8857 47.0635 78.784 46.6351 79.4492L44.3209 77.33C45.0554 76.3388 46.3234 75.127 47.5935 74.1873C50.5037 72.0343 52.675 72.1445 53.9716 73.8971C54.2452 74.2668 54.5062 74.7206 54.7148 75.2379L56.9971 81.013L53.3473 83.7132L52.9343 82.6505C52.6341 83.8925 52.2842 84.7982 51.2713 85.5476ZM51.5054 82.1651C52.0842 81.7369 52.2712 80.6781 51.8735 79.7034L51.6964 79.2623C51.4077 79.3764 51.1909 79.487 50.9498 79.6654C50.0333 80.3434 49.84 81.1582 50.399 81.9138C50.7321 82.364 51.1678 82.4149 51.5054 82.1651ZM57.9854 80.2818L53.8381 69.7665L57.4879 67.0663L58.33 69.1798C58.2698 67.3834 58.7118 65.8623 60.1742 64.8798L62.0119 69.5159L61.626 69.8014C59.9057 71.0742 59.6672 72.6687 60.5962 74.9668L61.6351 77.5817L57.9854 80.2818ZM69.6145 71.9769C67.5565 73.4994 65.9768 73.4491 64.7873 71.8413C64.5137 71.4715 64.2806 71.0219 64.0601 70.4885L62.856 67.4485L61.827 68.2098L60.501 64.8371L61.53 64.0758L60.4953 61.433L64.145 58.7328L65.1798 61.3756L67.2056 59.8768L68.5316 63.2496L66.5057 64.7484L67.399 66.9983C67.5327 67.3471 67.6552 67.58 67.7861 67.7568C68.0596 68.1266 68.4275 68.153 68.942 67.7724C69.2314 67.5583 69.453 67.3197 69.8604 66.7944L71.2732 70.3517C70.7651 70.9764 70.2255 71.5249 69.6145 71.9769ZM73.6953 63.1859C74.267 63.8577 75.0621 63.9909 75.8821 63.3843C76.477 62.9441 76.8613 62.2866 77.1273 61.3684L80.1834 61.9684C79.8408 63.5902 79.0233 65.0409 77.4798 66.1828C74.8108 68.1574 72.017 67.8111 70.3161 65.5119C68.3415 62.8429 68.3606 58.6989 71.7049 56.2248C74.5989 54.0837 77.0148 55.3315 78.3827 57.1805C78.811 57.7593 79.1308 58.3934 79.3388 59.0108L73.6953 63.1859ZM72.7309 61.4116L75.207 59.5798C75.16 59.4155 75.081 59.2749 74.9858 59.1463C74.629 58.664 73.9422 58.4755 73.3473 58.9156C72.8006 59.32 72.343 60.181 72.7309 61.4116ZM81.7258 62.718L77.5785 52.2027L81.2283 49.5025L82.0705 51.6161C82.0102 49.8196 82.4522 48.2985 83.9147 47.316L85.7524 51.9522L85.3665 52.2376C83.6461 53.5104 83.4077 55.1049 84.3367 57.403L85.3756 60.0179L81.7258 62.718Z" fill="#263E65"/>
<path d="M16.7395 80.619L15.7414 80.5588L15.6835 81.5189L16.6406 81.6141L16.7395 80.619ZM16.9908 76.4526L17.051 75.4544L16.0528 75.3942L15.9926 76.3924L16.9908 76.4526ZM19.7682 74.4227L19.4915 73.4617L19.4887 73.4625L19.7682 74.4227ZM22.7696 63.8181L23.7678 63.8783L23.8274 62.8904L22.8401 62.8206L22.7696 63.8181ZM22.5183 67.9845L22.4737 68.9835L23.4573 69.0275L23.5165 68.0447L22.5183 67.9845ZM20.3822 69.8386L20.66 70.7992L20.6612 70.7989L20.3822 69.8386ZM23.2024 77.7532C21.1613 79.2634 18.867 79.8256 16.8385 79.6239L16.6406 81.6141C19.1772 81.8663 21.9634 81.1578 24.3919 79.361L23.2024 77.7532ZM17.7377 80.6792L17.989 76.5128L15.9926 76.3924L15.7414 80.5588L17.7377 80.6792ZM16.9306 77.4507C19.185 77.5867 21.1338 77.0944 22.5576 76.041L21.3681 74.4332C20.4124 75.1402 18.963 75.5697 17.051 75.4544L16.9306 77.4507ZM22.5576 76.041C22.8803 75.8023 23.2004 75.4779 23.3774 75.066C23.5725 74.612 23.587 74.036 23.218 73.5372L21.6102 74.7267C21.5604 74.6595 21.5219 74.5661 21.5144 74.4619C21.5074 74.3645 21.5302 74.299 21.5398 74.2766C21.5486 74.256 21.5487 74.2653 21.5185 74.2997C21.4894 74.3329 21.441 74.3792 21.3681 74.4332L22.5576 76.041ZM23.218 73.5372C23.09 73.3642 22.881 73.1369 22.536 73.0073C22.2237 72.89 21.9137 72.897 21.665 72.9252C21.1938 72.9785 20.5009 73.1711 19.4915 73.4617L20.0448 75.3836C21.1274 75.0719 21.6266 74.9423 21.89 74.9125C22.0086 74.899 21.9514 74.9242 21.8329 74.8797C21.6817 74.8229 21.6073 74.7229 21.6102 74.7267L23.218 73.5372ZM19.4887 73.4625C18.176 73.8446 17.3002 73.9798 16.6524 73.8949C16.0878 73.821 15.6305 73.5714 15.1578 72.9325L13.55 74.122C14.3025 75.1392 15.2217 75.7246 16.3927 75.878C17.4804 76.0205 18.6992 75.7753 20.0476 75.3828L19.4887 73.4625ZM15.1578 72.9325C13.9922 71.357 14.3042 68.7127 17.099 66.6451L15.9095 65.0372C12.5625 67.5135 11.5039 71.3564 13.55 74.122L15.1578 72.9325ZM17.099 66.6451C18.9449 65.2794 20.974 64.6936 22.6991 64.8156L22.8401 62.8206C20.575 62.6604 18.0831 63.4291 15.9095 65.0372L17.099 66.6451ZM21.7714 63.7579L21.5202 67.9243L23.5165 68.0447L23.7678 63.8783L21.7714 63.7579ZM22.563 66.9855C21.0402 66.9175 19.1716 67.2761 17.748 68.3293L18.9375 69.9372C19.8934 69.2299 21.2692 68.9297 22.4737 68.9835L22.563 66.9855ZM17.748 68.3293C17.4589 68.5432 17.1325 68.8385 16.9377 69.2218C16.8343 69.4254 16.7535 69.6825 16.7644 69.9764C16.7756 70.2799 16.8824 70.5557 17.0519 70.7848L18.6597 69.5953C18.7103 69.6637 18.7582 69.7716 18.763 69.9026C18.7675 70.0239 18.7329 70.1038 18.7207 70.128C18.7097 70.1495 18.7115 70.1376 18.7519 70.0954C18.7906 70.055 18.8507 70.0014 18.9375 69.9372L17.748 68.3293ZM17.0519 70.7848C17.1937 70.9764 17.4222 71.207 17.7907 71.3168C18.1052 71.4105 18.4094 71.3797 18.6304 71.3432C19.0585 71.2724 19.7158 71.0724 20.66 70.7992L20.1043 68.878C19.0607 69.1799 18.5797 69.3244 18.3041 69.37C18.1732 69.3916 18.2341 69.362 18.3621 69.4001C18.544 69.4544 18.6429 69.5725 18.6597 69.5953L17.0519 70.7848ZM20.6612 70.7989C21.8546 70.4521 22.7593 70.2992 23.4718 70.378C24.1166 70.4493 24.6359 70.7123 25.1044 71.3455L26.7122 70.156C25.9079 69.0689 24.8825 68.5218 23.6916 68.3901C22.5684 68.2659 21.3464 68.517 20.1031 68.8783L20.6612 70.7989ZM25.1044 71.3455C25.7689 72.2437 25.9843 73.2936 25.722 74.3709C25.456 75.4633 24.6757 76.6632 23.2024 77.7532L24.3919 79.361C26.1503 78.0601 27.2643 76.4904 27.6652 74.8441C28.0698 73.1827 27.725 71.5249 26.7122 70.156L25.1044 71.3455ZM29.1825 77.2598L28.1941 77.4112L28.3338 78.3234L29.2543 78.2572L29.1825 77.2598ZM28.611 73.528L28.5827 72.5284L27.4511 72.5604L27.6225 73.6794L28.611 73.528ZM30.9622 72.4353L31.7806 73.0099L32.2599 72.3272L31.6742 71.7332L30.9622 72.4353ZM23.4876 64.8543L22.8928 64.0503L21.9664 64.7357L22.7755 65.5563L23.4876 64.8543ZM27.1856 62.1184L27.9484 61.4718L27.3433 60.7578L26.5908 61.3145L27.1856 62.1184ZM30.9049 66.5068L30.1421 67.1534L32.2984 69.6976L31.8977 66.3867L30.9049 66.5068ZM30.1118 59.9535L29.5171 59.1496L29.0491 59.4958L29.1191 60.0736L30.1118 59.9535ZM33.9063 57.1463L34.9039 57.0783L34.7798 55.2561L33.3115 56.3424L33.9063 57.1463ZM34.7566 69.6281L35.7543 69.5603L35.7543 69.5601L34.7566 69.6281ZM31.6802 75.1881C30.6628 75.9408 29.8578 76.2086 29.1108 76.2624L29.2543 78.2572C30.4442 78.1716 31.6039 77.7323 32.8697 76.7959L31.6802 75.1881ZM30.171 77.1084L29.5994 73.3766L27.6225 73.6794L28.1941 77.4112L30.171 77.1084ZM28.6392 74.5276C29.6154 74.5 30.4107 74.2365 31.0495 73.7639L29.86 72.1561C29.5984 72.3496 29.2148 72.5105 28.5827 72.5284L28.6392 74.5276ZM31.0495 73.7639C31.3531 73.5393 31.5796 73.2962 31.7806 73.0099L30.1437 71.8608C30.054 71.9886 29.9744 72.0715 29.86 72.1561L31.0495 73.7639ZM31.6742 71.7332L24.1997 64.1522L22.7755 65.5563L30.2501 73.1374L31.6742 71.7332ZM24.0824 65.6582L27.7803 62.9223L26.5908 61.3145L22.8928 64.0503L24.0824 65.6582ZM26.4227 62.765L30.1421 67.1534L31.6678 65.8603L27.9484 61.4718L26.4227 62.765ZM31.8977 66.3867L31.1046 59.8333L29.1191 60.0736L29.9122 66.627L31.8977 66.3867ZM30.7066 60.7574L34.501 57.9502L33.3115 56.3424L29.5171 59.1496L30.7066 60.7574ZM32.9086 57.2142L33.7589 69.6961L35.7543 69.5601L34.9039 57.0783L32.9086 57.2142ZM33.7589 69.6959C33.8628 71.224 33.7232 72.2912 33.3937 73.1093C33.0718 73.9088 32.534 74.5564 31.6802 75.1881L32.8697 76.7959C33.9452 76.0002 34.7577 75.0766 35.249 73.8563C35.7328 72.6548 35.8694 71.2537 35.7543 69.5603L33.7589 69.6959ZM38.5575 67.2888L37.6272 67.6557L38.1051 68.8674L39.1522 68.0927L38.5575 67.2888ZM34.4102 56.7734L33.8155 55.9695L33.1983 56.4261L33.4799 57.1403L34.4102 56.7734ZM38.06 54.0733L38.9893 53.704L38.5096 52.4967L37.4652 53.2693L38.06 54.0733ZM38.5794 55.3807L37.6501 55.7499L39.5782 55.4294L38.5794 55.3807ZM45.6167 54.6027L44.6846 54.965L44.6866 54.9702L45.6167 54.6027ZM47.8989 60.3778L48.4937 61.1817L49.1113 60.7247L48.8289 60.0102L47.8989 60.3778ZM44.2492 63.078L43.3186 63.444L43.7958 64.6573L44.8439 63.8819L44.2492 63.078ZM42.1874 57.8363L41.2511 58.1874L41.2539 58.1949L41.2568 58.2024L42.1874 57.8363ZM40.1455 59.347L39.2139 59.7106L39.2149 59.7131L40.1455 59.347ZM42.2072 64.5886L42.802 65.3925L43.4186 64.9364L43.1378 64.2226L42.2072 64.5886ZM39.4878 66.9219L35.3405 56.4065L33.4799 57.1403L37.6272 67.6557L39.4878 66.9219ZM35.005 57.5773L38.6547 54.8772L37.4652 53.2693L33.8155 55.9695L35.005 57.5773ZM37.1306 54.4425L37.6501 55.7499L39.5087 55.0114L38.9893 53.704L37.1306 54.4425ZM39.5782 55.4294C39.6225 54.5223 40.0311 53.5354 40.8314 52.9434L39.6419 51.3355C38.2556 52.3612 37.6472 53.9678 37.5806 55.3319L39.5782 55.4294ZM40.8314 52.9434C41.4539 52.4828 41.9941 52.3872 42.4397 52.4745C42.902 52.565 43.4255 52.8852 43.9274 53.5636L45.5352 52.3741C44.8239 51.4126 43.9039 50.7233 42.8242 50.5118C41.7277 50.297 40.6272 50.6066 39.6419 51.3355L40.8314 52.9434ZM43.9274 53.5636C44.2043 53.9379 44.4669 54.4048 44.6846 54.965L46.5487 54.2404C46.2708 53.5253 45.9245 52.9003 45.5352 52.3741L43.9274 53.5636ZM44.6866 54.9702L46.9689 60.7453L48.8289 60.0102L46.5467 54.2352L44.6866 54.9702ZM47.3042 59.5739L43.6544 62.274L44.8439 63.8819L48.4937 61.1817L47.3042 59.5739ZM45.1798 62.7119L43.118 57.4703L41.2568 58.2024L43.3186 63.444L45.1798 62.7119ZM43.1238 57.4853C42.9891 57.126 42.7864 56.7629 42.6001 56.511L40.9923 57.7005C41.0676 57.8024 41.1813 58.0013 41.2511 58.1874L43.1238 57.4853ZM42.6001 56.511C42.3316 56.1481 41.9281 55.7999 41.3727 55.6993C40.8025 55.596 40.2787 55.7904 39.8587 56.1011L41.0482 57.7089C41.105 57.6669 41.1286 57.6623 41.1179 57.6654C41.1121 57.6671 41.099 57.6702 41.0798 57.6713C41.0604 57.6725 41.0387 57.6714 41.0162 57.6673C40.9938 57.6633 40.975 57.657 40.9605 57.6507C40.9463 57.6445 40.9385 57.6393 40.937 57.6382C40.9351 57.6368 40.956 57.6515 40.9923 57.7005L42.6001 56.511ZM39.8587 56.1011C39.2887 56.5228 38.9405 57.0945 38.8669 57.7952C38.8 58.4322 38.9705 59.0868 39.2139 59.7106L41.077 58.9834C40.876 58.4683 40.8386 58.1695 40.856 58.004C40.8667 57.9023 40.8947 57.8224 41.0482 57.7089L39.8587 56.1011ZM39.2149 59.7131L41.2766 64.9547L43.1378 64.2226L41.0761 58.981L39.2149 59.7131ZM41.6125 63.7847L37.9627 66.4849L39.1522 68.0927L42.802 65.3925L41.6125 63.7847ZM47.8353 55.1257L46.9056 55.494L46.9083 55.5009L46.9111 55.5078L47.8353 55.1257ZM46.6311 52.0858L47.5609 51.7175L47.0819 50.5084L46.0364 51.2819L46.6311 52.0858ZM45.6021 52.8471L44.6715 53.213L45.1486 54.4266L46.1969 53.651L45.6021 52.8471ZM44.2762 49.4743L43.6814 48.6704L43.0649 49.1265L43.3455 49.8402L44.2762 49.4743ZM45.3052 48.7131L45.8999 49.517L46.5155 49.0615L46.2364 48.3485L45.3052 48.7131ZM44.2705 46.0702L43.6757 45.2663L43.0601 45.7217L43.3393 46.4348L44.2705 46.0702ZM47.9202 43.37L48.8514 43.0055L48.3753 41.7895L47.3255 42.5661L47.9202 43.37ZM48.9549 46.0129L48.0238 46.3775L48.4999 47.5935L49.5497 46.8168L48.9549 46.0129ZM50.9808 44.5141L51.9114 44.1482L51.4343 42.9346L50.386 43.7102L50.9808 44.5141ZM52.3067 47.8868L52.9015 48.6908L53.518 48.2347L53.2374 47.521L52.3067 47.8868ZM50.2809 49.3856L49.6861 48.5817L49.0675 49.0394L49.3515 49.7546L50.2809 49.3856ZM51.1742 51.6355L52.108 51.2776L52.1036 51.2665L51.1742 51.6355ZM53.6356 51.4316L54.565 51.0625L53.9186 49.435L52.8454 50.8188L53.6356 51.4316ZM55.0483 54.9889L55.8241 55.6199L56.1942 55.1649L55.9777 54.6198L55.0483 54.9889ZM52.7949 55.8102C51.8449 56.513 51.1566 56.7345 50.6794 56.7206C50.2632 56.7086 49.8306 56.5113 49.3664 55.8838L47.7585 57.0733C48.4838 58.0535 49.4358 58.6854 50.6214 58.7198C51.7458 58.7524 52.8764 58.2378 53.9844 57.418L52.7949 55.8102ZM49.3664 55.8838C49.1593 55.6039 48.9628 55.2357 48.7594 54.7437L46.9111 55.5078C47.1488 56.0827 47.4184 56.6135 47.7585 57.0733L49.3664 55.8838ZM48.765 54.7575L47.5609 51.7175L45.7014 52.4541L46.9056 55.494L48.765 54.7575ZM46.0364 51.2819L45.0074 52.0432L46.1969 53.651L47.2259 52.8897L46.0364 51.2819ZM46.5328 52.4812L45.2068 49.1085L43.3455 49.8402L44.6715 53.213L46.5328 52.4812ZM44.8709 50.2782L45.8999 49.517L44.7104 47.9091L43.6814 48.6704L44.8709 50.2782ZM46.2364 48.3485L45.2016 45.7056L43.3393 46.4348L44.374 49.0776L46.2364 48.3485ZM44.8652 46.8741L48.515 44.174L47.3255 42.5661L43.6757 45.2663L44.8652 46.8741ZM46.989 43.7346L48.0238 46.3775L49.8861 45.6483L48.8514 43.0055L46.989 43.7346ZM49.5497 46.8168L51.5755 45.318L50.386 43.7102L48.3602 45.209L49.5497 46.8168ZM50.0501 44.88L51.3761 48.2527L53.2374 47.521L51.9114 44.1482L50.0501 44.88ZM51.712 47.0829L49.6861 48.5817L50.8756 50.1895L52.9015 48.6908L51.712 47.0829ZM49.3515 49.7546L50.2448 52.0045L52.1036 51.2665L51.2103 49.0166L49.3515 49.7546ZM50.2404 51.9934C50.3924 52.3899 50.5534 52.7132 50.7573 52.9888L52.3651 51.7993C52.3074 51.7212 52.2234 51.5789 52.108 51.2776L50.2404 51.9934ZM50.7573 52.9888C51.0217 53.3461 51.4413 53.6669 52.0213 53.6829C52.5372 53.6971 52.9792 53.4597 53.3119 53.2135L52.1224 51.6057C52.0411 51.6659 51.9946 51.688 51.9806 51.6937C51.9684 51.6987 52.0044 51.6817 52.0764 51.6836C52.1556 51.6858 52.235 51.71 52.2989 51.7482C52.3559 51.7824 52.3746 51.8121 52.3651 51.7993L50.7573 52.9888ZM53.3119 53.2135C53.7148 52.9155 54.0041 52.5881 54.4258 52.0445L52.8454 50.8188C52.4521 51.3258 52.2983 51.4756 52.1224 51.6057L53.3119 53.2135ZM52.7062 51.8007L54.1189 55.358L55.9777 54.6198L54.565 51.0625L52.7062 51.8007ZM54.2725 54.3579C53.8016 54.9369 53.3211 55.4209 52.7949 55.8102L53.9844 57.418C54.6802 56.9033 55.2788 56.2903 55.8241 55.6199L54.2725 54.3579ZM58.7735 44.6451L59.1185 45.5837L60.0229 45.2512L59.7242 44.3351L58.7735 44.6451ZM58.7343 44.5248L59.685 44.2148L59.6783 44.1941L59.6706 44.1738L58.7343 44.5248ZM54.3862 46.3484L53.7109 47.0859L54.5852 47.8865L55.227 46.8898L54.3862 46.3484ZM52.072 44.2292L51.2686 43.6338L50.732 44.358L51.3967 44.9667L52.072 44.2292ZM62.466 42.1372L63.396 41.7696L63.3934 41.7632L62.466 42.1372ZM64.7482 47.9122L65.343 48.7161L65.9606 48.2592L65.6782 47.5447L64.7482 47.9122ZM61.0985 50.6124L60.1664 50.9747L60.6407 52.195L61.6932 51.4163L61.0985 50.6124ZM60.6854 49.5497L61.6175 49.1874L60.4623 46.2154L59.7134 49.3148L60.6854 49.5497ZM59.6247 46.6027L58.6967 46.9752L58.6988 46.9804L59.6247 46.6027ZM59.4476 46.1615L60.3756 45.7889L60.005 44.8659L59.08 45.2315L59.4476 46.1615ZM58.4277 51.643C57.929 52.0119 57.4367 52.1275 57.0137 52.0684C56.5966 52.0102 56.1304 51.7661 55.7066 51.1931L54.0987 52.3826C54.793 53.321 55.7114 53.906 56.7371 54.0492C57.7567 54.1916 58.7653 53.881 59.6172 53.2508L58.4277 51.643ZM55.7066 51.1931C55.1926 50.4985 55.0653 49.7793 55.2582 49.0629C55.4597 48.3149 56.043 47.4612 57.1604 46.6346L55.9709 45.0267C54.6123 46.0319 53.6801 47.2323 53.3271 48.5427C52.9656 49.8848 53.2447 51.2283 54.0987 52.3826L55.7066 51.1931ZM57.1604 46.6346C57.7419 46.2044 58.4042 45.8462 59.1185 45.5837L58.4285 43.7065C57.5388 44.0334 56.7079 44.4815 55.9709 45.0267L57.1604 46.6346ZM59.7242 44.3351L59.685 44.2148L57.7835 44.8348L57.8227 44.9551L59.7242 44.3351ZM59.6706 44.1738C59.5957 43.9738 59.4567 43.6855 59.2813 43.4484L57.6735 44.6379C57.6869 44.656 57.7114 44.6944 57.74 44.7492C57.7678 44.8026 57.7881 44.8498 57.7979 44.8758L59.6706 44.1738ZM59.2813 43.4484C58.8932 42.9238 58.3111 42.6165 57.6174 42.6593C57.0069 42.6969 56.4251 42.999 55.9016 43.3862L57.0912 44.9941C57.4841 44.7033 57.6906 44.6586 57.7404 44.6555C57.7502 44.6549 57.7249 44.657 57.6883 44.6392C57.6542 44.6226 57.6521 44.609 57.6735 44.6379L59.2813 43.4484ZM55.9016 43.3862C55.0249 44.0349 54.0539 45.0175 53.5455 45.807L55.227 46.8898C55.5753 46.3489 56.3601 45.5349 57.0912 44.9941L55.9016 43.3862ZM55.0616 45.6109L52.7474 43.4917L51.3967 44.9667L53.7109 47.0859L55.0616 45.6109ZM52.8755 44.8246C53.5358 43.9335 54.725 42.789 55.9394 41.8905L54.7499 40.2826C53.4241 41.2636 52.0773 42.5424 51.2686 43.6338L52.8755 44.8246ZM55.9394 41.8905C57.3121 40.875 58.3824 40.493 59.1599 40.4766C59.8732 40.4616 60.4444 40.7498 60.9188 41.391L62.5266 40.2015C61.7045 39.0903 60.5417 38.4471 59.1177 38.4771C57.7578 38.5057 56.2874 39.1451 54.7499 40.2826L55.9394 41.8905ZM60.9188 41.391C61.1421 41.6928 61.3616 42.0724 61.5385 42.5111L63.3934 41.7632C63.1531 41.1672 62.8505 40.6393 62.5266 40.2015L60.9188 41.391ZM61.536 42.5047L63.8182 48.2798L65.6782 47.5447L63.396 41.7696L61.536 42.5047ZM64.1535 47.1083L60.5037 49.8085L61.6932 51.4163L65.343 48.7161L64.1535 47.1083ZM62.0305 50.2501L61.6175 49.1874L59.7533 49.912L60.1664 50.9747L62.0305 50.2501ZM59.7134 49.3148C59.4311 50.4831 59.1549 51.1049 58.4277 51.643L59.6172 53.2508C60.9158 52.29 61.3395 51.1004 61.6574 49.7846L59.7134 49.3148ZM59.8513 49.8682C60.4134 49.4524 60.6981 48.8063 60.7946 48.1941C60.8934 47.5676 60.8158 46.875 60.5506 46.2249L58.6988 46.9804C58.8312 47.3049 58.859 47.6291 58.819 47.8827C58.7767 48.1506 58.6786 48.248 58.6618 48.2604L59.8513 49.8682ZM60.5527 46.2301L60.3756 45.7889L58.5196 46.5341L58.6967 46.9752L60.5527 46.2301ZM59.08 45.2315C58.7327 45.3688 58.4342 45.518 58.1062 45.7607L59.2957 47.3685C59.4499 47.2544 59.5849 47.1825 59.8151 47.0915L59.08 45.2315ZM58.1062 45.7607C57.5331 46.1847 57.0671 46.7379 56.9005 47.4237C56.7257 48.1432 56.9224 48.8349 57.3463 49.4078L58.9541 48.2183C58.8189 48.0356 58.8327 47.9421 58.844 47.8958C58.8634 47.8158 58.9523 47.6226 59.2957 47.3685L58.1062 45.7607ZM57.3463 49.4078C57.625 49.7846 58.0177 50.0862 58.5094 50.1825C59.0093 50.2805 59.4839 50.14 59.8513 49.8682L58.6618 48.2604C58.6734 48.2519 58.7012 48.2347 58.7461 48.2235C58.7924 48.2119 58.8441 48.2101 58.8939 48.2198C59.0001 48.2406 59.0084 48.2918 58.9541 48.2183L57.3463 49.4078ZM65.1577 47.6093L64.1629 47.5075L63.9326 49.7596L65.7525 48.4132L65.1577 47.6093ZM65.9312 40.0462L66.926 40.1479L66.99 39.5224L66.454 39.1937L65.9312 40.0462ZM61.0587 37.0582L60.4639 36.2543L59.2723 37.1359L60.5359 37.9107L61.0587 37.0582ZM64.7727 34.3105L65.3626 33.503L64.769 33.0693L64.178 33.5066L64.7727 34.3105ZM66.6677 35.6949L66.0778 36.5024L67.5726 37.5944L67.6664 35.7456L66.6677 35.6949ZM66.8147 32.7998L66.2199 31.9959L65.8399 32.277L65.8159 32.7491L66.8147 32.7998ZM70.786 29.8617L71.7806 29.9647L72.0142 27.7091L70.1912 29.0578L70.786 29.8617ZM70.0131 37.3248L69.0184 37.2218L68.9535 37.849L69.4914 38.178L70.0131 37.3248ZM74.9654 40.3533L75.5602 41.1572L76.7533 40.2745L75.4871 39.5002L74.9654 40.3533ZM71.2513 43.1011L70.6662 43.912L71.2587 44.3395L71.8461 43.905L71.2513 43.1011ZM69.2766 41.6761L69.8618 40.8652L68.3685 39.7876L68.2778 41.6269L69.2766 41.6761ZM69.129 44.6712L69.7238 45.4751L70.1045 45.1934L70.1278 44.7204L69.129 44.6712ZM66.1525 47.711L66.926 40.1479L64.9364 39.9444L64.1629 47.5075L66.1525 47.711ZM66.454 39.1937L61.5814 36.2057L60.5359 37.9107L65.4085 40.8987L66.454 39.1937ZM61.6534 37.8621L65.3675 35.1144L64.178 33.5066L60.4639 36.2543L61.6534 37.8621ZM64.1828 35.1179L66.0778 36.5024L67.2576 34.8874L65.3626 33.503L64.1828 35.1179ZM67.6664 35.7456L67.8134 32.8505L65.8159 32.7491L65.669 35.6442L67.6664 35.7456ZM67.4094 33.6037L71.3807 30.6656L70.1912 29.0578L66.2199 31.9959L67.4094 33.6037ZM69.7913 29.7587L69.0184 37.2218L71.0078 37.4278L71.7806 29.9647L69.7913 29.7587ZM69.4914 38.178L74.4437 41.2064L75.4871 39.5002L70.5348 36.4717L69.4914 38.178ZM74.3707 39.5494L70.6566 42.2971L71.8461 43.905L75.5602 41.1572L74.3707 39.5494ZM71.8365 42.2901L69.8618 40.8652L68.6915 42.487L70.6662 43.912L71.8365 42.2901ZM68.2778 41.6269L68.1302 44.622L70.1278 44.7204L70.2754 41.7253L68.2778 41.6269ZM68.5343 43.8673L64.563 46.8054L65.7525 48.4132L69.7238 45.4751L68.5343 43.8673ZM29.4473 98.5838L28.4491 98.5236L28.3912 99.4837L29.3483 99.5789L29.4473 98.5838ZM29.6985 94.4173L29.7587 93.4192L28.7605 93.359L28.7003 94.3571L29.6985 94.4173ZM32.4759 92.3875L32.1992 91.4265L32.1964 91.4273L32.4759 92.3875ZM35.4773 81.7829L36.4755 81.8431L36.5351 80.8552L35.5479 80.7854L35.4773 81.7829ZM35.2261 85.9493L35.1814 86.9483L36.165 86.9923L36.2242 86.0095L35.2261 85.9493ZM33.0899 87.8034L33.3678 88.764L33.3689 88.7637L33.0899 87.8034ZM35.9102 95.718C33.869 97.2281 31.5747 97.7904 29.5462 97.5887L29.3483 99.5789C31.8849 99.8311 34.6711 99.1225 37.0997 97.3258L35.9102 95.718ZM30.4455 98.644L30.6967 94.4775L28.7003 94.3571L28.4491 98.5236L30.4455 98.644ZM29.6383 95.4155C31.8928 95.5515 33.8415 95.0591 35.2653 94.0058L34.0758 92.3979C33.1201 93.105 31.6708 93.5345 29.7587 93.4192L29.6383 95.4155ZM35.2653 94.0058C35.588 93.7671 35.9082 93.4427 36.0851 93.0308C36.2802 92.5768 36.2947 92.0008 35.9257 91.502L34.3179 92.6915C34.2682 92.6243 34.2296 92.5309 34.2221 92.4267C34.2151 92.3293 34.2379 92.2637 34.2475 92.2414C34.2564 92.2207 34.2564 92.23 34.2262 92.2645C34.1971 92.2977 34.1487 92.344 34.0758 92.3979L35.2653 94.0058ZM35.9257 91.502C35.7978 91.329 35.5887 91.1017 35.2437 90.9721C34.9314 90.8548 34.6214 90.8618 34.3727 90.89C33.9015 90.9433 33.2086 91.1359 32.1992 91.4265L32.7526 93.3484C33.8352 93.0367 34.3344 92.9071 34.5978 92.8773C34.7163 92.8638 34.6592 92.889 34.5406 92.8444C34.3895 92.7877 34.3151 92.6877 34.3179 92.6915L35.9257 91.502ZM32.1964 91.4273C30.8837 91.8094 30.008 91.9446 29.3602 91.8597C28.7955 91.7858 28.3382 91.5362 27.8655 90.8973L26.2577 92.0868C27.0102 93.104 27.9295 93.6894 29.1004 93.8428C30.1881 93.9853 31.4069 93.7401 32.7554 93.3476L32.1964 91.4273ZM27.8655 90.8973C26.6999 89.3218 27.0119 86.6775 29.8067 84.6098L28.6172 83.002C25.2702 85.4782 24.2116 89.3212 26.2577 92.0868L27.8655 90.8973ZM29.8067 84.6098C31.6526 83.2442 33.6817 82.6584 35.4068 82.7804L35.5479 80.7854C33.2827 80.6252 30.7908 81.3939 28.6172 83.002L29.8067 84.6098ZM34.4791 81.7227L34.2279 85.8891L36.2242 86.0095L36.4755 81.8431L34.4791 81.7227ZM35.2707 84.9503C33.7479 84.8823 31.8794 85.2409 30.4557 86.2941L31.6452 87.9019C32.6011 87.1947 33.9769 86.8945 35.1814 86.9483L35.2707 84.9503ZM30.4557 86.2941C30.1666 86.508 29.8402 86.8033 29.6454 87.1866C29.542 87.3902 29.4612 87.6473 29.4721 87.9412C29.4833 88.2447 29.5901 88.5205 29.7596 88.7496L31.3674 87.5601C31.418 87.6285 31.4659 87.7364 31.4707 87.8674C31.4752 87.9887 31.4406 88.0686 31.4284 88.0927C31.4174 88.1143 31.4192 88.1024 31.4597 88.0602C31.4983 88.0198 31.5584 87.9662 31.6452 87.9019L30.4557 86.2941ZM29.7596 88.7496C29.9014 88.9412 30.13 89.1717 30.4985 89.2816C30.8129 89.3753 31.1171 89.3445 31.3381 89.308C31.7663 89.2372 32.4235 89.0372 33.3678 88.764L32.812 86.8428C31.7685 87.1446 31.2874 87.2892 31.0118 87.3348C30.8809 87.3564 30.9418 87.3268 31.0698 87.3649C31.2518 87.4192 31.3506 87.5373 31.3674 87.5601L29.7596 88.7496ZM33.3689 88.7637C34.5623 88.4169 35.467 88.264 36.1795 88.3428C36.8243 88.4141 37.3436 88.6771 37.8121 89.3103L39.4199 88.1208C38.6157 87.0337 37.5902 86.4866 36.3994 86.3549C35.2761 86.2307 34.0541 86.4818 32.8108 86.8431L33.3689 88.7637ZM37.8121 89.3103C38.4766 90.2085 38.6921 91.2584 38.4297 92.3357C38.1637 93.4281 37.3835 94.628 35.9102 95.718L37.0997 97.3258C38.8581 96.0249 39.972 94.4552 40.3729 92.8089C40.7775 91.1475 40.4327 89.4897 39.4199 88.1208L37.8121 89.3103ZM40.0841 88.2265L39.1544 88.5948L39.1572 88.6017L39.16 88.6085L40.0841 88.2265ZM38.88 85.1866L39.8097 84.8183L39.3308 83.6092L38.2853 84.3827L38.88 85.1866ZM37.851 85.9479L36.9203 86.3137L37.3975 87.5273L38.4458 86.7518L37.851 85.9479ZM36.525 82.5751L35.9303 81.7712L35.3138 82.2273L35.5944 82.941L36.525 82.5751ZM37.554 81.8138L38.1488 82.6177L38.7644 82.1623L38.4852 81.4492L37.554 81.8138ZM36.5193 79.171L35.9246 78.3671L35.309 78.8225L35.5881 79.5356L36.5193 79.171ZM40.1691 76.4708L41.1002 76.1062L40.6241 74.8902L39.5743 75.6669L40.1691 76.4708ZM41.2038 79.1136L40.2726 79.4782L40.7487 80.6942L41.7985 79.9176L41.2038 79.1136ZM43.2296 77.6149L44.1603 77.249L43.6832 76.0354L42.6349 76.811L43.2296 77.6149ZM44.5556 80.9876L45.1504 81.7915L45.7668 81.3354L45.4863 80.6217L44.5556 80.9876ZM42.5298 82.4864L41.935 81.6825L41.3164 82.1402L41.6003 82.8554L42.5298 82.4864ZM43.4231 84.7363L44.3569 84.3784L44.3525 84.3673L43.4231 84.7363ZM45.8844 84.5324L46.8138 84.1633L46.1675 82.5358L45.0942 83.9195L45.8844 84.5324ZM47.2972 88.0897L48.073 88.7207L48.4431 88.2657L48.2266 87.7206L47.2972 88.0897ZM45.0438 88.911C44.0938 89.6138 43.4055 89.8353 42.9282 89.8214C42.5121 89.8093 42.0795 89.6121 41.6152 88.9846L40.0074 90.1741C40.7326 91.1543 41.6847 91.7862 42.8702 91.8206C43.9947 91.8532 45.1253 91.3385 46.2333 90.5188L45.0438 88.911ZM41.6152 88.9846C41.4082 88.7047 41.2117 88.3365 41.0083 87.8445L39.16 88.6085C39.3976 89.1834 39.6673 89.7143 40.0074 90.1741L41.6152 88.9846ZM41.0139 87.8583L39.8097 84.8183L37.9503 85.5548L39.1544 88.5948L41.0139 87.8583ZM38.2853 84.3827L37.2563 85.1439L38.4458 86.7518L39.4748 85.9905L38.2853 84.3827ZM38.7817 85.582L37.4557 82.2092L35.5944 82.941L36.9203 86.3137L38.7817 85.582ZM37.1198 83.379L38.1488 82.6177L36.9593 81.0099L35.9303 81.7712L37.1198 83.379ZM38.4852 81.4492L37.4505 78.8064L35.5881 79.5356L36.6229 82.1784L38.4852 81.4492ZM37.1141 79.9749L40.7638 77.2747L39.5743 75.6669L35.9246 78.3671L37.1141 79.9749ZM39.2379 76.8354L40.2726 79.4782L42.135 78.7491L41.1002 76.1062L39.2379 76.8354ZM41.7985 79.9176L43.8244 78.4188L42.6349 76.811L40.609 78.3097L41.7985 79.9176ZM42.299 77.9808L43.6249 81.3535L45.4863 80.6217L44.1603 77.249L42.299 77.9808ZM43.9609 80.1837L41.935 81.6825L43.1245 83.2903L45.1504 81.7915L43.9609 80.1837ZM41.6003 82.8554L42.4936 85.1053L44.3525 84.3673L43.4592 82.1174L41.6003 82.8554ZM42.4893 85.0942C42.6413 85.4907 42.8023 85.8139 43.0062 86.0896L44.614 84.9001C44.5562 84.822 44.4723 84.6797 44.3568 84.3784L42.4893 85.0942ZM43.0062 86.0896C43.2705 86.4469 43.6902 86.7677 44.2702 86.7837C44.7861 86.7979 45.228 86.5605 45.5608 86.3143L44.3713 84.7065C44.2899 84.7667 44.2434 84.7888 44.2295 84.7945C44.2173 84.7995 44.2532 84.7824 44.3252 84.7844C44.4045 84.7866 44.4839 84.8107 44.5478 84.849C44.6048 84.8832 44.6235 84.9129 44.614 84.9001L43.0062 86.0896ZM45.5608 86.3143C45.9636 86.0163 46.253 85.6889 46.6746 85.1452L45.0942 83.9195C44.701 84.4266 44.5472 84.5763 44.3713 84.7065L45.5608 86.3143ZM44.955 84.9015L46.3678 88.4588L48.2266 87.7206L46.8138 84.1633L44.955 84.9015ZM46.5214 87.4587C46.0505 88.0377 45.57 88.5217 45.0438 88.911L46.2333 90.5188C46.929 90.0041 47.5277 89.3911 48.073 88.7207L46.5214 87.4587ZM51.0223 77.7458L51.3673 78.6844L52.2718 78.352L51.9731 77.4358L51.0223 77.7458ZM50.9831 77.6256L51.9339 77.3156L51.9271 77.2949L51.9195 77.2746L50.9831 77.6256ZM46.6351 79.4492L45.9597 80.1867L46.834 80.9873L47.4759 79.9906L46.6351 79.4492ZM44.3209 77.33L43.5175 76.7346L42.9808 77.4588L43.6456 78.0675L44.3209 77.33ZM54.7148 75.2379L55.6449 74.8704L55.6423 74.864L54.7148 75.2379ZM56.9971 81.013L57.5918 81.8169L58.2095 81.36L57.9271 80.6455L56.9971 81.013ZM53.3473 83.7132L52.4153 84.0755L52.8896 85.2958L53.9421 84.5171L53.3473 83.7132ZM52.9343 82.6505L53.8664 82.2882L52.7112 79.3162L51.9623 82.4156L52.9343 82.6505ZM51.8735 79.7034L50.9455 80.076L50.9476 80.0812L51.8735 79.7034ZM51.6964 79.2623L52.6244 78.8897L52.2539 77.9667L51.3289 78.3323L51.6964 79.2623ZM50.6765 84.7437C50.1779 85.1127 49.6856 85.2283 49.2625 85.1692C48.8455 85.111 48.3793 84.8669 47.9554 84.2939L46.3476 85.4834C47.0418 86.4218 47.9603 87.0068 48.9859 87.15C50.0056 87.2924 51.0141 86.9818 51.866 86.3515L50.6765 84.7437ZM47.9554 84.2939C47.4415 83.5992 47.3141 82.8801 47.5071 82.1637C47.7086 81.4157 48.2919 80.562 49.4093 79.7353L48.2198 78.1275C46.8611 79.1327 45.9289 80.3331 45.5759 81.6435C45.2144 82.9855 45.4936 84.3291 46.3476 85.4834L47.9554 84.2939ZM49.4093 79.7353C49.9907 79.3051 50.6531 78.947 51.3673 78.6844L50.6773 76.8072C49.7877 77.1342 48.9567 77.5823 48.2198 78.1275L49.4093 79.7353ZM51.9731 77.4358L51.9339 77.3156L50.0324 77.9356L50.0716 78.0558L51.9731 77.4358ZM51.9195 77.2746C51.8445 77.0746 51.7056 76.7862 51.5302 76.5491L49.9224 77.7386C49.9358 77.7568 49.9603 77.7952 49.9888 77.85C50.0167 77.9034 50.037 77.9505 50.0467 77.9766L51.9195 77.2746ZM51.5302 76.5491C51.1421 76.0245 50.56 75.7173 49.8663 75.76C49.2558 75.7977 48.674 76.0997 48.1505 76.487L49.34 78.0948C49.733 77.8041 49.9395 77.7593 49.9893 77.7563C49.9991 77.7557 49.9738 77.7578 49.9371 77.7399C49.9031 77.7234 49.901 77.7098 49.9224 77.7386L51.5302 76.5491ZM48.1505 76.487C47.2737 77.1357 46.3027 78.1182 45.7943 78.9078L47.4759 79.9906C47.8242 79.4497 48.609 78.6357 49.34 78.0948L48.1505 76.487ZM47.3104 78.7117L44.9963 76.5925L43.6456 78.0675L45.9597 80.1867L47.3104 78.7117ZM45.1244 77.9253C45.7846 77.0343 46.9738 75.8897 48.1883 74.9912L46.9988 73.3834C45.6729 74.3643 44.3262 75.6432 43.5175 76.7346L45.1244 77.9253ZM48.1883 74.9912C49.5609 73.9757 50.6313 73.5938 51.4087 73.5774C52.1221 73.5624 52.6933 73.8506 53.1677 74.4918L54.7755 73.3023C53.9533 72.191 52.7906 71.5478 51.3666 71.5778C50.0067 71.6065 48.5363 72.2459 46.9988 73.3834L48.1883 74.9912ZM53.1677 74.4918C53.391 74.7936 53.6105 75.1731 53.7874 75.6119L55.6423 74.864C55.4019 74.268 55.0994 73.7401 54.7755 73.3023L53.1677 74.4918ZM53.7848 75.6055L56.0671 81.3805L57.9271 80.6455L55.6448 74.8704L53.7848 75.6055ZM56.4023 80.2091L52.7526 82.9093L53.9421 84.5171L57.5918 81.8169L56.4023 80.2091ZM54.2794 83.3509L53.8664 82.2882L52.0022 83.0127L52.4153 84.0755L54.2794 83.3509ZM51.9623 82.4156C51.68 83.5838 51.4038 84.2057 50.6765 84.7437L51.866 86.3515C53.1646 85.3908 53.5883 84.2012 53.9063 82.8853L51.9623 82.4156ZM52.1002 82.969C52.6622 82.5532 52.9469 81.9071 53.0434 81.2949C53.1422 80.6683 53.0647 79.9758 52.7994 79.3257L50.9476 80.0812C51.08 80.4057 51.1078 80.7299 51.0679 80.9834C51.0256 81.2514 50.9274 81.3488 50.9107 81.3612L52.1002 82.969ZM52.8015 79.3309L52.6244 78.8897L50.7684 79.6348L50.9455 80.076L52.8015 79.3309ZM51.3289 78.3323C50.9816 78.4695 50.6831 78.6188 50.355 78.8615L51.5445 80.4693C51.6988 80.3552 51.8338 80.2833 52.064 80.1923L51.3289 78.3323ZM50.355 78.8615C49.782 79.2855 49.3159 79.8387 49.1493 80.5245C48.9746 81.2439 49.1712 81.9356 49.5951 82.5086L51.203 81.3191C51.0678 81.1364 51.0816 81.0429 51.0928 80.9965C51.1123 80.9166 51.2011 80.7234 51.5445 80.4693L50.355 78.8615ZM49.5951 82.5086C49.8738 82.8853 50.2666 83.187 50.7583 83.2833C51.2582 83.3812 51.7328 83.2408 52.1002 82.969L50.9107 81.3612C50.9222 81.3526 50.9501 81.3354 50.995 81.3242C51.0413 81.3127 51.093 81.3109 51.1428 81.3206C51.249 81.3414 51.2573 81.3926 51.203 81.3191L49.5951 82.5086ZM57.9854 80.2818L57.0551 80.6487L57.533 81.8604L58.5801 81.0857L57.9854 80.2818ZM53.8381 69.7665L53.2434 68.9626L52.6262 69.4192L52.9078 70.1334L53.8381 69.7665ZM57.4879 67.0663L58.4168 66.6961L57.9364 65.4905L56.8931 66.2624L57.4879 67.0663ZM58.33 69.1798L57.4011 69.55L59.3295 69.1463L58.33 69.1798ZM60.1742 64.8798L61.1038 64.5113L60.6466 63.3578L59.6166 64.0497L60.1742 64.8798ZM62.0119 69.5159L62.6067 70.3199L63.225 69.8624L62.9416 69.1475L62.0119 69.5159ZM60.5962 74.9668L61.5256 74.5976L61.5233 74.592L60.5962 74.9668ZM61.6351 77.5817L62.2299 78.3856L62.8487 77.9278L62.5645 77.2124L61.6351 77.5817ZM58.9156 79.9149L54.7684 69.3996L52.9078 70.1334L57.0551 80.6487L58.9156 79.9149ZM54.4329 70.5704L58.0826 67.8702L56.8931 66.2624L53.2434 68.9626L54.4329 70.5704ZM56.5589 67.4365L57.4011 69.55L59.259 68.8097L58.4168 66.6961L56.5589 67.4365ZM59.3295 69.1463C59.2753 67.5313 59.6693 66.4237 60.7319 65.7099L59.6166 64.0497C57.7542 65.3009 57.2643 67.2356 57.3306 69.2134L59.3295 69.1463ZM59.2446 65.2483L61.0823 69.8844L62.9416 69.1475L61.1038 64.5113L59.2446 65.2483ZM61.4172 68.712L61.0313 68.9975L62.2208 70.6053L62.6067 70.3199L61.4172 68.712ZM61.0313 68.9975C60.0182 69.747 59.3502 70.6671 59.1348 71.8152C58.9263 72.9263 59.1702 74.1074 59.6691 75.3416L61.5233 74.592C61.0933 73.5281 60.9919 72.7628 61.1005 72.184C61.2021 71.6421 61.5135 71.1286 62.2208 70.6053L61.0313 68.9975ZM59.6669 75.336L60.7058 77.9509L62.5645 77.2124L61.5256 74.5976L59.6669 75.336ZM61.0404 76.7777L57.3906 79.4779L58.5801 81.0857L62.2299 78.3856L61.0404 76.7777ZM64.0601 70.4885L63.1304 70.8568L63.1331 70.8637L63.1359 70.8705L64.0601 70.4885ZM62.856 67.4485L63.7857 67.0803L63.3067 65.8711L62.2612 66.6446L62.856 67.4485ZM61.827 68.2098L60.8963 68.5757L61.3734 69.7893L62.4217 69.0137L61.827 68.2098ZM60.501 64.8371L59.9063 64.0332L59.2898 64.4893L59.5703 65.203L60.501 64.8371ZM61.53 64.0758L62.1248 64.8797L62.7404 64.4243L62.4612 63.7112L61.53 64.0758ZM60.4953 61.433L59.9005 60.6291L59.2849 61.0845L59.5641 61.7975L60.4953 61.433ZM64.145 58.7328L65.0762 58.3682L64.6001 57.1522L63.5503 57.9289L64.145 58.7328ZM65.1798 61.3756L64.2486 61.7402L64.7247 62.9562L65.7745 62.1795L65.1798 61.3756ZM67.2056 59.8768L68.1363 59.511L67.6592 58.2974L66.6109 59.0729L67.2056 59.8768ZM68.5316 63.2496L69.1263 64.0535L69.7428 63.5974L69.4622 62.8837L68.5316 63.2496ZM66.5057 64.7484L65.911 63.9445L65.2923 64.4022L65.5763 65.1174L66.5057 64.7484ZM67.399 66.9983L68.3328 66.6403L68.3284 66.6292L67.399 66.9983ZM69.8604 66.7944L70.7898 66.4253L70.1434 64.7977L69.0702 66.1815L69.8604 66.7944ZM71.2732 70.3517L72.0489 70.9827L72.419 70.5277L72.2025 69.9826L71.2732 70.3517ZM69.0197 71.173C68.0697 71.8758 67.3814 72.0972 66.9042 72.0834C66.488 72.0713 66.0555 71.8741 65.5912 71.2465L63.9834 72.436C64.7086 73.4163 65.6606 74.0481 66.8462 74.0825C67.9707 74.1152 69.1012 73.6005 70.2092 72.7808L69.0197 71.173ZM65.5912 71.2465C65.3841 70.9667 65.1876 70.5985 64.9843 70.1065L63.1359 70.8705C63.3736 71.4454 63.6432 71.9763 63.9834 72.436L65.5912 71.2465ZM64.9898 70.1202L63.7857 67.0803L61.9262 67.8168L63.1304 70.8568L64.9898 70.1202ZM62.2612 66.6446L61.2322 67.4059L62.4217 69.0137L63.4507 68.2525L62.2612 66.6446ZM62.7576 67.844L61.4317 64.4712L59.5703 65.203L60.8963 68.5757L62.7576 67.844ZM61.0958 65.641L62.1248 64.8797L60.9353 63.2719L59.9063 64.0332L61.0958 65.641ZM62.4612 63.7112L61.4265 61.0684L59.5641 61.7975L60.5988 64.4404L62.4612 63.7112ZM61.09 62.2369L64.7398 59.5367L63.5503 57.9289L59.9005 60.6291L61.09 62.2369ZM63.2139 59.0974L64.2486 61.7402L66.1109 61.011L65.0762 58.3682L63.2139 59.0974ZM65.7745 62.1795L67.8004 60.6808L66.6109 59.0729L64.585 60.5717L65.7745 62.1795ZM66.2749 60.2427L67.6009 63.6155L69.4622 62.8837L68.1363 59.511L66.2749 60.2427ZM67.9368 62.4457L65.911 63.9445L67.1005 65.5523L69.1263 64.0535L67.9368 62.4457ZM65.5763 65.1174L66.4696 67.3673L68.3284 66.6292L67.4351 64.3794L65.5763 65.1174ZM66.4652 67.3562C66.6172 67.7526 66.7782 68.0759 66.9821 68.3516L68.59 67.1621C68.5322 67.084 68.4483 66.9417 68.3328 66.6404L66.4652 67.3562ZM66.9821 68.3516C67.2465 68.7088 67.6661 69.0297 68.2461 69.0456C68.7621 69.0598 69.204 68.8225 69.5367 68.5763L68.3472 66.9685C68.2659 67.0286 68.2194 67.0508 68.2054 67.0565C68.1932 67.0614 68.2292 67.0444 68.3012 67.0464C68.3804 67.0486 68.4599 67.0727 68.5237 67.111C68.5808 67.1452 68.5994 67.1748 68.59 67.1621L66.9821 68.3516ZM69.5367 68.5763C69.9396 68.2782 70.2289 67.9509 70.6506 67.4072L69.0702 66.1815C68.677 66.6886 68.5232 66.8383 68.3472 66.9685L69.5367 68.5763ZM68.931 67.1635L70.3438 70.7208L72.2025 69.9826L70.7898 66.4253L68.931 67.1635ZM70.4974 69.7207C70.0264 70.2997 69.5459 70.7837 69.0197 71.173L70.2092 72.7808C70.905 72.2661 71.5037 71.6531 72.0489 70.9827L70.4974 69.7207ZM73.6953 63.1859L73.1006 62.382L72.24 63.0187L72.9338 63.834L73.6953 63.1859ZM77.1273 61.3684L77.32 60.3871L76.4216 60.2107L76.1668 61.0901L77.1273 61.3684ZM80.1834 61.9684L81.1619 62.1751L81.3715 61.1825L80.3761 60.9871L80.1834 61.9684ZM79.3388 59.0108L79.9335 59.8147L80.5189 59.3816L80.2865 58.6916L79.3388 59.0108ZM72.7309 61.4116L71.7772 61.7123L72.1987 63.0493L73.3257 62.2155L72.7309 61.4116ZM75.207 59.5798L75.8017 60.3837L76.3588 59.9715L76.1685 59.3051L75.207 59.5798ZM72.9338 63.834C73.3475 64.3202 73.9074 64.683 74.5851 64.7584C75.2634 64.8338 75.9134 64.605 76.4768 64.1882L75.2873 62.5804C75.0308 62.7702 74.8733 62.7781 74.8061 62.7706C74.7383 62.7631 74.6148 62.7235 74.4569 62.5379L72.9338 63.834ZM76.4768 64.1882C77.3103 63.5716 77.7866 62.6864 78.0878 61.6466L76.1668 61.0901C75.936 61.8869 75.6437 62.3167 75.2873 62.5804L76.4768 64.1882ZM76.9347 62.3496L79.9908 62.9496L80.3761 60.9871L77.32 60.3871L76.9347 62.3496ZM79.205 61.7617C78.9085 63.1654 78.2152 64.3948 76.8851 65.3789L78.0746 66.9867C79.8314 65.6869 80.7732 64.015 81.1619 62.1751L79.205 61.7617ZM76.8851 65.3789C75.7052 66.2517 74.5823 66.5518 73.6366 66.4552C72.7023 66.3597 71.8222 65.8664 71.12 64.9171L69.5121 66.1066C70.5109 67.4566 71.8781 68.286 73.4333 68.4448C74.977 68.6025 76.5854 68.0884 78.0746 66.9867L76.8851 65.3789ZM71.12 64.9171C69.4234 62.624 69.4645 59.1261 72.2996 57.0287L71.1101 55.4209C67.2566 58.2717 67.2595 63.0618 69.5121 66.1066L71.12 64.9171ZM72.2996 57.0287C73.549 56.1043 74.5775 55.9836 75.3806 56.1782C76.2236 56.3825 76.9878 56.9764 77.5788 57.7752L79.1866 56.5857C78.4097 55.5356 77.282 54.5811 75.8516 54.2345C74.3812 53.8782 72.7548 54.2041 71.1101 55.4209L72.2996 57.0287ZM77.5788 57.7752C77.9425 58.2668 78.215 58.8073 78.3911 59.33L80.2865 58.6916C80.0466 57.9796 79.6794 57.2518 79.1866 56.5857L77.5788 57.7752ZM78.744 58.2069L73.1006 62.382L74.2901 63.9899L79.9335 59.8147L78.744 58.2069ZM73.3257 62.2155L75.8017 60.3837L74.6122 58.7759L72.1362 60.6077L73.3257 62.2155ZM76.1685 59.3051C76.0802 58.9959 75.9352 58.7482 75.7897 58.5516L74.1819 59.7411C74.2267 59.8016 74.2399 59.835 74.2454 59.8544L76.1685 59.3051ZM75.7897 58.5516C75.1385 57.6713 73.8361 57.31 72.7525 58.1117L73.942 59.7195C73.9879 59.6855 74.0201 59.6747 74.0364 59.6708C74.053 59.6668 74.0663 59.667 74.0784 59.6692C74.105 59.674 74.1469 59.6937 74.1819 59.7411L75.7897 58.5516ZM72.7525 58.1117C71.8567 58.7744 71.2632 60.0818 71.7772 61.7123L73.6847 61.1109C73.4228 60.2802 73.7445 59.8656 73.942 59.7195L72.7525 58.1117ZM81.7258 62.718L80.7956 63.0849L81.2735 64.2966L82.3206 63.522L81.7258 62.718ZM77.5785 52.2027L76.9838 51.3988L76.3666 51.8554L76.6483 52.5696L77.5785 52.2027ZM81.2283 49.5025L82.1573 49.1323L81.6769 47.9267L80.6335 48.6986L81.2283 49.5025ZM82.0705 51.6161L81.1415 51.9862L83.0699 51.5825L82.0705 51.6161ZM83.9147 47.316L84.8443 46.9475L84.387 45.794L83.357 46.486L83.9147 47.316ZM85.7524 51.9522L86.3471 52.7561L86.9654 52.2987L86.682 51.5837L85.7524 51.9522ZM84.3367 57.403L85.266 57.0338L85.2638 57.0282L84.3367 57.403ZM85.3756 60.0179L85.9703 60.8218L86.5891 60.364L86.3049 59.6486L85.3756 60.0179ZM82.6561 62.3512L78.5088 51.8358L76.6483 52.5696L80.7956 63.0849L82.6561 62.3512ZM78.1733 53.0066L81.823 50.3064L80.6335 48.6986L76.9838 51.3988L78.1733 53.0066ZM80.2993 49.8727L81.1415 51.9862L82.9994 51.2459L82.1573 49.1323L80.2993 49.8727ZM83.0699 51.5825C83.0158 49.9675 83.4098 48.8599 84.4723 48.1461L83.357 46.486C81.4946 47.7371 81.0047 49.6718 81.071 51.6496L83.0699 51.5825ZM82.985 47.6845L84.8227 52.3207L86.682 51.5837L84.8443 46.9475L82.985 47.6845ZM85.1576 51.1483L84.7717 51.4337L85.9612 53.0416L86.3471 52.7561L85.1576 51.1483ZM84.7717 51.4337C83.7586 52.1833 83.0906 53.1033 82.8752 54.2514C82.6668 55.3625 82.9106 56.5436 83.4095 57.7778L85.2638 57.0282C84.8337 55.9643 84.7323 55.1991 84.8409 54.6202C84.9426 54.0783 85.254 53.5648 85.9612 53.0416L84.7717 51.4337ZM83.4073 57.7723L84.4462 60.3871L86.3049 59.6486L85.266 57.0338L83.4073 57.7723ZM84.7808 59.214L81.1311 61.9141L82.3206 63.522L85.9703 60.8218L84.7808 59.214Z" fill="#E3C906" mask="url(#path-18-outside-1_208_364)"/>
</svg>
