<svg width="174" height="152" viewBox="0 0 174 152" fill="none" xmlns="http://www.w3.org/2000/svg">
<path d="M97.6078 151.2C139.361 151.2 173.208 117.353 173.208 75.6C173.208 33.8473 139.361 0 97.6078 0C55.8551 0 22.0078 33.8473 22.0078 75.6C22.0078 117.353 55.8551 151.2 97.6078 151.2Z" fill="#F8D14F"/>
<path d="M139.207 58.4998C138.507 55.9998 137.507 53.5998 136.307 51.2998C132.707 44.5998 129.007 45.9998 122.607 46.9998C116.007 47.9998 109.607 49.8998 103.307 52.1998C98.607 53.8998 93.707 55.8998 89.807 59.0998C85.807 62.3998 84.807 66.4998 82.107 70.4998L43.707 128.5C57.407 142.5 76.507 151.2 97.707 151.2C105.007 151.2 112.107 150.1 118.707 148.2C121.607 141.4 124.507 134.5 127.407 127.7C129.907 121.9 132.207 115.9 134.807 110.2C136.307 107 138.807 104.8 139.907 101.4C141.807 95.5998 141.507 88.8998 141.507 82.8998C141.507 74.6998 141.507 66.1998 139.207 58.4998Z" fill="#E28B74"/>
<path d="M137.306 105.3C136.406 105.4 123.806 108.4 107.906 102.3C124.706 122.9 127.206 128.3 127.206 128.3L137.306 105.3Z" fill="#C16452"/>
<path d="M133.206 107.4C133.206 107.4 158.006 90.8998 164.006 82.1998L165.406 72.4998C165.806 69.4998 163.206 66.8998 160.206 67.3998L157.806 67.7998C156.306 68.0998 155.106 68.9998 154.506 70.3998L151.306 77.5998C149.506 72.8998 145.506 70.3998 140.806 69.1998C140.206 68.9998 139.906 68.3998 140.206 67.8998C140.506 67.3998 140.806 66.8998 141.006 66.6998C143.206 64.9998 145.506 61.4998 147.906 57.3998L151.706 64.9998C153.306 67.1998 156.106 68.0998 158.706 67.4998H159.106C162.906 66.5998 164.806 62.7998 163.806 58.9998L162.406 53.2998C161.106 48.0998 155.706 43.9998 150.306 44.1998L133.506 47.8998L133.806 18.9998C133.606 15.0998 130.306 12.1998 126.406 12.4998C123.106 12.7998 120.506 15.3998 120.206 18.5998L118.106 39.5998L113.706 20.7998C112.806 16.8998 108.906 14.5998 105.006 15.6998L104.806 15.7998C101.406 16.7998 99.3063 20.0998 99.9063 23.5998L102.706 41.4998L94.8063 27.3998C93.1063 24.4998 89.5063 23.3998 86.5063 24.7998C83.9063 25.9998 82.4063 28.7998 82.8063 31.5998L87.4063 63.5998L88.9063 80.4998L94.5063 98.0998L133.206 107.4Z" fill="#E28B74"/>
<path d="M127.007 107.4C123.407 107.4 120.507 106.8 120.307 106.7L120.507 105.7C120.607 105.7 132.007 108.2 137.707 103.2L138.407 104C135.307 106.8 130.807 107.4 127.007 107.4Z" fill="#263E65"/>
<path d="M133.007 91.9997H132.007C132.407 70.3997 108.507 57.6997 108.207 57.4997L108.007 57.3997L99.3066 35.0997L100.207 34.6997L108.807 56.6997C111.007 57.8997 133.307 70.7997 133.007 91.9997Z" fill="#263E65"/>
<path d="M108.307 56.3998L107.707 55.5998C107.807 55.4998 118.207 48.3998 131.407 50.9998L131.207 51.9998C118.507 49.3998 108.407 56.2998 108.307 56.3998Z" fill="#263E65"/>
<path d="M117.529 32.9601L116.559 33.2026L121.069 51.2465L122.039 51.004L117.529 32.9601Z" fill="#263E65"/>
<path d="M150.808 77.9999C147.708 73.2999 144.108 70.4999 140.208 69.7999C135.408 68.8999 131.608 71.6999 131.608 71.6999L131.008 70.8999C131.208 70.7999 135.108 67.8999 140.408 68.7999C144.608 69.4999 148.408 72.3999 151.608 77.3999L150.808 77.9999Z" fill="#263E65"/>
<mask id="path-10-outside-1_208_386" maskUnits="userSpaceOnUse" x="11" y="79" width="103" height="40" fill="black">
<rect fill="white" x="11" y="79" width="103" height="40"/>
<path d="M44.5108 95.3C40.5908 95.3 37.8708 92.92 37.8708 89.16C37.8708 85.34 40.8108 80.7 46.8508 80.7C49.8708 80.7 52.0108 82.3 52.5908 84.78L48.4108 86.6C48.1108 85.46 47.2908 84.9 46.2308 84.9C44.1308 84.9 42.7708 86.82 42.7708 88.74C42.7708 90.28 43.7308 91.14 44.9708 91.14C46.0508 91.14 46.9308 90.62 47.6908 89.68L50.9308 92.24C49.5308 94.08 47.4908 95.3 44.5108 95.3ZM57.3267 95.26C53.8867 95.26 51.8667 93.02 51.8667 90.18C51.8667 86.84 54.6067 83.82 58.4067 83.82C61.8467 83.82 63.8667 86.06 63.8667 88.9C63.8667 92.24 61.1267 95.26 57.3267 95.26ZM57.6067 91.56C58.7467 91.56 59.5867 90.4 59.5867 89.1C59.5867 88.18 59.0067 87.52 58.1267 87.52C56.9867 87.52 56.1467 88.68 56.1467 89.98C56.1467 90.9 56.7267 91.56 57.6067 91.56ZM68.1216 95.26C66.1816 95.26 64.5416 93.7 64.5416 91C64.5416 87.02 67.0816 83.82 70.2816 83.82C71.8416 83.82 72.8616 84.52 73.4816 85.48L74.8416 80.4H79.3816L75.4816 95H70.9416L71.2416 93.88C70.4616 94.68 69.2816 95.26 68.1216 95.26ZM70.5216 91.56C71.7616 91.56 72.6616 90.38 72.6616 89.1C72.6616 88.16 72.0416 87.54 71.2016 87.54C69.9616 87.54 69.0616 88.72 69.0616 90C69.0616 90.94 69.6816 91.56 70.5216 91.56ZM82.0596 90.6C82.1196 91.48 82.6796 92.06 83.6996 92.06C84.4396 92.06 85.1396 91.76 85.8996 91.18L87.9996 93.48C86.7596 94.58 85.2396 95.26 83.3196 95.26C79.9996 95.26 77.9596 93.32 77.9596 90.46C77.9596 87.14 80.4396 83.82 84.5996 83.82C88.1996 83.82 89.3996 86.26 89.3996 88.56C89.3996 89.28 89.2796 89.98 89.0796 90.6H82.0596ZM82.3396 88.6H85.4196C85.4796 88.44 85.4996 88.28 85.4996 88.12C85.4996 87.52 85.0596 86.96 84.3196 86.96C83.6396 86.96 82.7596 87.38 82.3396 88.6ZM13.7399 117L23.4199 102.9H28.0599L30.1799 117H25.1999L24.9599 115.12H20.0599L18.8399 117H13.7399ZM22.1399 111.8H24.6999L24.3199 108.4L22.1399 111.8ZM30.4635 117L33.3835 106.08H37.9235L37.3435 108.28C38.3635 106.8 39.6235 105.84 41.3835 105.92L40.1035 110.74H39.6235C37.4835 110.74 36.3435 111.88 35.7235 114.28L35.0035 117H30.4635ZM45.5493 117.28C42.6293 117.28 40.4293 115.56 40.4293 112.62C40.4293 108.86 43.3493 105.84 47.1293 105.84C49.7693 105.84 51.4693 107.36 51.8893 109.4L48.2893 110.84C48.0893 109.98 47.6293 109.52 46.8893 109.52C45.5893 109.52 44.7493 110.92 44.7493 112.24C44.7493 113.06 45.2693 113.58 45.9893 113.58C46.6293 113.58 47.1093 113.28 47.6493 112.66L50.7093 114.7C49.6293 116.26 48.0493 117.28 45.5493 117.28ZM50.6979 117L54.6179 102.4H59.1579L57.7979 107.44C58.5179 106.56 59.6979 105.82 61.0579 105.82C63.0579 105.82 64.1779 107.12 64.1779 109.16C64.1779 109.72 64.0979 110.34 63.9179 111L62.3179 117H57.7779L59.2379 111.56C59.3179 111.28 59.3579 110.96 59.3579 110.74C59.3579 110.16 59.0579 109.78 58.3979 109.78C57.4979 109.78 57.0179 110.38 56.6979 111.56L55.2379 117H50.6979ZM66.6104 105.3L67.3904 102.4H72.0904L71.3104 105.3H66.6104ZM63.5504 117L66.4704 106.08H71.0104L68.0904 117H63.5504ZM74.986 117.24C72.426 117.24 71.186 116.26 71.186 114.26C71.186 113.8 71.266 113.3 71.406 112.74L72.246 109.58H70.966L71.906 106.08H73.186L73.926 103.34H78.466L77.726 106.08H80.246L79.306 109.58H76.786L76.166 111.92C76.066 112.28 76.026 112.54 76.026 112.76C76.026 113.22 76.306 113.46 76.946 113.46C77.306 113.46 77.626 113.4 78.266 113.22L77.286 116.92C76.506 117.12 75.746 117.24 74.986 117.24ZM83.4951 112.6C83.5551 113.48 84.1151 114.06 85.1351 114.06C85.8751 114.06 86.5751 113.76 87.3351 113.18L89.4351 115.48C88.1951 116.58 86.6751 117.26 84.7551 117.26C81.4351 117.26 79.3951 115.32 79.3951 112.46C79.3951 109.14 81.8751 105.82 86.0351 105.82C89.6351 105.82 90.8351 108.26 90.8351 110.56C90.8351 111.28 90.7151 111.98 90.5151 112.6H83.4951ZM83.7751 110.6H86.8551C86.9151 110.44 86.9351 110.28 86.9351 110.12C86.9351 109.52 86.4951 108.96 85.7551 108.96C85.0751 108.96 84.1951 109.38 83.7751 110.6ZM96.3892 117.28C93.4692 117.28 91.2692 115.56 91.2692 112.62C91.2692 108.86 94.1892 105.84 97.9692 105.84C100.609 105.84 102.309 107.36 102.729 109.4L99.1292 110.84C98.9292 109.98 98.4692 109.52 97.7292 109.52C96.4292 109.52 95.5892 110.92 95.5892 112.24C95.5892 113.06 96.1092 113.58 96.8292 113.58C97.4692 113.58 97.9492 113.28 98.4892 112.66L101.549 114.7C100.469 116.26 98.8892 117.28 96.3892 117.28ZM106.998 117.24C104.438 117.24 103.198 116.26 103.198 114.26C103.198 113.8 103.278 113.3 103.418 112.74L104.258 109.58H102.978L103.918 106.08H105.198L105.938 103.34H110.478L109.738 106.08H112.258L111.318 109.58H108.798L108.178 111.92C108.078 112.28 108.038 112.54 108.038 112.76C108.038 113.22 108.318 113.46 108.958 113.46C109.318 113.46 109.638 113.4 110.278 113.22L109.298 116.92C108.518 117.12 107.758 117.24 106.998 117.24Z"/>
</mask>
<path d="M44.5108 95.3C40.5908 95.3 37.8708 92.92 37.8708 89.16C37.8708 85.34 40.8108 80.7 46.8508 80.7C49.8708 80.7 52.0108 82.3 52.5908 84.78L48.4108 86.6C48.1108 85.46 47.2908 84.9 46.2308 84.9C44.1308 84.9 42.7708 86.82 42.7708 88.74C42.7708 90.28 43.7308 91.14 44.9708 91.14C46.0508 91.14 46.9308 90.62 47.6908 89.68L50.9308 92.24C49.5308 94.08 47.4908 95.3 44.5108 95.3ZM57.3267 95.26C53.8867 95.26 51.8667 93.02 51.8667 90.18C51.8667 86.84 54.6067 83.82 58.4067 83.82C61.8467 83.82 63.8667 86.06 63.8667 88.9C63.8667 92.24 61.1267 95.26 57.3267 95.26ZM57.6067 91.56C58.7467 91.56 59.5867 90.4 59.5867 89.1C59.5867 88.18 59.0067 87.52 58.1267 87.52C56.9867 87.52 56.1467 88.68 56.1467 89.98C56.1467 90.9 56.7267 91.56 57.6067 91.56ZM68.1216 95.26C66.1816 95.26 64.5416 93.7 64.5416 91C64.5416 87.02 67.0816 83.82 70.2816 83.82C71.8416 83.82 72.8616 84.52 73.4816 85.48L74.8416 80.4H79.3816L75.4816 95H70.9416L71.2416 93.88C70.4616 94.68 69.2816 95.26 68.1216 95.26ZM70.5216 91.56C71.7616 91.56 72.6616 90.38 72.6616 89.1C72.6616 88.16 72.0416 87.54 71.2016 87.54C69.9616 87.54 69.0616 88.72 69.0616 90C69.0616 90.94 69.6816 91.56 70.5216 91.56ZM82.0596 90.6C82.1196 91.48 82.6796 92.06 83.6996 92.06C84.4396 92.06 85.1396 91.76 85.8996 91.18L87.9996 93.48C86.7596 94.58 85.2396 95.26 83.3196 95.26C79.9996 95.26 77.9596 93.32 77.9596 90.46C77.9596 87.14 80.4396 83.82 84.5996 83.82C88.1996 83.82 89.3996 86.26 89.3996 88.56C89.3996 89.28 89.2796 89.98 89.0796 90.6H82.0596ZM82.3396 88.6H85.4196C85.4796 88.44 85.4996 88.28 85.4996 88.12C85.4996 87.52 85.0596 86.96 84.3196 86.96C83.6396 86.96 82.7596 87.38 82.3396 88.6ZM13.7399 117L23.4199 102.9H28.0599L30.1799 117H25.1999L24.9599 115.12H20.0599L18.8399 117H13.7399ZM22.1399 111.8H24.6999L24.3199 108.4L22.1399 111.8ZM30.4635 117L33.3835 106.08H37.9235L37.3435 108.28C38.3635 106.8 39.6235 105.84 41.3835 105.92L40.1035 110.74H39.6235C37.4835 110.74 36.3435 111.88 35.7235 114.28L35.0035 117H30.4635ZM45.5493 117.28C42.6293 117.28 40.4293 115.56 40.4293 112.62C40.4293 108.86 43.3493 105.84 47.1293 105.84C49.7693 105.84 51.4693 107.36 51.8893 109.4L48.2893 110.84C48.0893 109.98 47.6293 109.52 46.8893 109.52C45.5893 109.52 44.7493 110.92 44.7493 112.24C44.7493 113.06 45.2693 113.58 45.9893 113.58C46.6293 113.58 47.1093 113.28 47.6493 112.66L50.7093 114.7C49.6293 116.26 48.0493 117.28 45.5493 117.28ZM50.6979 117L54.6179 102.4H59.1579L57.7979 107.44C58.5179 106.56 59.6979 105.82 61.0579 105.82C63.0579 105.82 64.1779 107.12 64.1779 109.16C64.1779 109.72 64.0979 110.34 63.9179 111L62.3179 117H57.7779L59.2379 111.56C59.3179 111.28 59.3579 110.96 59.3579 110.74C59.3579 110.16 59.0579 109.78 58.3979 109.78C57.4979 109.78 57.0179 110.38 56.6979 111.56L55.2379 117H50.6979ZM66.6104 105.3L67.3904 102.4H72.0904L71.3104 105.3H66.6104ZM63.5504 117L66.4704 106.08H71.0104L68.0904 117H63.5504ZM74.986 117.24C72.426 117.24 71.186 116.26 71.186 114.26C71.186 113.8 71.266 113.3 71.406 112.74L72.246 109.58H70.966L71.906 106.08H73.186L73.926 103.34H78.466L77.726 106.08H80.246L79.306 109.58H76.786L76.166 111.92C76.066 112.28 76.026 112.54 76.026 112.76C76.026 113.22 76.306 113.46 76.946 113.46C77.306 113.46 77.626 113.4 78.266 113.22L77.286 116.92C76.506 117.12 75.746 117.24 74.986 117.24ZM83.4951 112.6C83.5551 113.48 84.1151 114.06 85.1351 114.06C85.8751 114.06 86.5751 113.76 87.3351 113.18L89.4351 115.48C88.1951 116.58 86.6751 117.26 84.7551 117.26C81.4351 117.26 79.3951 115.32 79.3951 112.46C79.3951 109.14 81.8751 105.82 86.0351 105.82C89.6351 105.82 90.8351 108.26 90.8351 110.56C90.8351 111.28 90.7151 111.98 90.5151 112.6H83.4951ZM83.7751 110.6H86.8551C86.9151 110.44 86.9351 110.28 86.9351 110.12C86.9351 109.52 86.4951 108.96 85.7551 108.96C85.0751 108.96 84.1951 109.38 83.7751 110.6ZM96.3892 117.28C93.4692 117.28 91.2692 115.56 91.2692 112.62C91.2692 108.86 94.1892 105.84 97.9692 105.84C100.609 105.84 102.309 107.36 102.729 109.4L99.1292 110.84C98.9292 109.98 98.4692 109.52 97.7292 109.52C96.4292 109.52 95.5892 110.92 95.5892 112.24C95.5892 113.06 96.1092 113.58 96.8292 113.58C97.4692 113.58 97.9492 113.28 98.4892 112.66L101.549 114.7C100.469 116.26 98.8892 117.28 96.3892 117.28ZM106.998 117.24C104.438 117.24 103.198 116.26 103.198 114.26C103.198 113.8 103.278 113.3 103.418 112.74L104.258 109.58H102.978L103.918 106.08H105.198L105.938 103.34H110.478L109.738 106.08H112.258L111.318 109.58H108.798L108.178 111.92C108.078 112.28 108.038 112.54 108.038 112.76C108.038 113.22 108.318 113.46 108.958 113.46C109.318 113.46 109.638 113.4 110.278 113.22L109.298 116.92C108.518 117.12 107.758 117.24 106.998 117.24Z" fill="#263E65"/>
<path d="M52.5908 84.78L52.99 85.6969L53.7544 85.364L53.5645 84.5523L52.5908 84.78ZM48.4108 86.6L47.4437 86.8545L47.7406 87.9825L48.81 87.5169L48.4108 86.6ZM47.6908 89.68L48.3108 88.8954L47.5349 88.2823L46.9132 89.0513L47.6908 89.68ZM50.9308 92.24L51.7266 92.8455L52.3212 92.0641L51.5508 91.4554L50.9308 92.24ZM44.5108 94.3C42.7508 94.3 41.3465 93.7676 40.3939 92.9005C39.4512 92.0423 38.8708 90.7853 38.8708 89.16H36.8708C36.8708 91.2947 37.6504 93.1077 39.0476 94.3795C40.4351 95.6424 42.3508 96.3 44.5108 96.3V94.3ZM38.8708 89.16C38.8708 85.8014 41.4498 81.7 46.8508 81.7V79.7C40.1718 79.7 36.8708 84.8786 36.8708 89.16H38.8708ZM46.8508 81.7C49.4867 81.7 51.1602 83.054 51.6171 85.0077L53.5645 84.5523C52.8614 81.546 50.2549 79.7 46.8508 79.7V81.7ZM52.1916 83.8631L48.0116 85.6831L48.81 87.5169L52.99 85.6969L52.1916 83.8631ZM49.3779 86.3455C49.1795 85.5919 48.7879 84.961 48.2075 84.5238C47.6301 84.0888 46.9386 83.9 46.2308 83.9V85.9C46.583 85.9 46.8315 85.9912 47.0041 86.1212C47.1737 86.249 47.342 86.4681 47.4437 86.8545L49.3779 86.3455ZM46.2308 83.9C43.419 83.9 41.7708 86.442 41.7708 88.74H43.7708C43.7708 87.198 44.8426 85.9 46.2308 85.9V83.9ZM41.7708 88.74C41.7708 89.7216 42.0809 90.5875 42.6878 91.2135C43.2941 91.839 44.1151 92.14 44.9708 92.14V90.14C44.5865 90.14 44.3075 90.011 44.1238 89.8215C43.9407 89.6325 43.7708 89.2984 43.7708 88.74H41.7708ZM44.9708 92.14C46.4324 92.14 47.5751 91.4137 48.4684 90.3087L46.9132 89.0513C46.2865 89.8263 45.6692 90.14 44.9708 90.14V92.14ZM47.0708 90.4646L50.3108 93.0246L51.5508 91.4554L48.3108 88.8954L47.0708 90.4646ZM50.135 91.6345C48.9167 93.2357 47.1664 94.3 44.5108 94.3V96.3C47.8152 96.3 50.1449 94.9243 51.7266 92.8455L50.135 91.6345ZM57.3267 94.26C55.8296 94.26 54.7284 93.7771 54.0062 93.0703C53.2821 92.3617 52.8667 91.3584 52.8667 90.18H50.8667C50.8667 91.8416 51.4614 93.3783 52.6073 94.4997C53.7551 95.6229 55.3839 96.26 57.3267 96.26V94.26ZM52.8667 90.18C52.8667 87.3822 55.1691 84.82 58.4067 84.82V82.82C54.0444 82.82 50.8667 86.2978 50.8667 90.18H52.8667ZM58.4067 84.82C59.9039 84.82 61.0051 85.3029 61.7273 86.0097C62.4514 86.7183 62.8667 87.7216 62.8667 88.9H64.8667C64.8667 87.2384 64.2721 85.7017 63.1262 84.5803C61.9784 83.4571 60.3496 82.82 58.4067 82.82V84.82ZM62.8667 88.9C62.8667 91.6978 60.5644 94.26 57.3267 94.26V96.26C61.6891 96.26 64.8667 92.7822 64.8667 88.9H62.8667ZM57.6067 92.56C59.5171 92.56 60.5867 90.7055 60.5867 89.1H58.5867C58.5867 90.0946 57.9764 90.56 57.6067 90.56V92.56ZM60.5867 89.1C60.5867 88.4311 60.374 87.7835 59.9261 87.2917C59.4704 86.7913 58.8311 86.52 58.1267 86.52V88.52C58.3024 88.52 58.3931 88.5787 58.4474 88.6383C58.5095 88.7065 58.5867 88.8489 58.5867 89.1H60.5867ZM58.1267 86.52C56.2164 86.52 55.1467 88.3746 55.1467 89.98H57.1467C57.1467 88.9855 57.7571 88.52 58.1267 88.52V86.52ZM55.1467 89.98C55.1467 90.6489 55.3595 91.2965 55.8074 91.7883C56.2631 92.2887 56.9024 92.56 57.6067 92.56V90.56C57.4311 90.56 57.3404 90.5013 57.2861 90.4417C57.224 90.3735 57.1467 90.2311 57.1467 89.98H55.1467ZM73.4816 85.48L72.6415 86.0225L73.8646 87.9163L74.4476 85.7386L73.4816 85.48ZM74.8416 80.4V79.4H74.0741L73.8756 80.1414L74.8416 80.4ZM79.3816 80.4L80.3477 80.6581L80.6838 79.4H79.3816V80.4ZM75.4816 95V96H76.2495L76.4477 95.2581L75.4816 95ZM70.9416 95L69.9756 94.7413L69.6385 96H70.9416V95ZM71.2416 93.88L72.2075 94.1387L73.198 90.441L70.5256 93.1819L71.2416 93.88ZM68.1216 94.26C67.43 94.26 66.8076 93.9866 66.3485 93.4748C65.8871 92.9603 65.5416 92.1464 65.5416 91H63.5416C63.5416 92.5536 64.0161 93.8697 64.8596 94.8102C65.7056 95.7534 66.8732 96.26 68.1216 96.26V94.26ZM65.5416 91C65.5416 87.3496 67.8329 84.82 70.2816 84.82V82.82C66.3302 82.82 63.5416 86.6904 63.5416 91H65.5416ZM70.2816 84.82C71.4852 84.82 72.1964 85.3333 72.6415 86.0225L74.3216 84.9375C73.5268 83.7067 72.198 82.82 70.2816 82.82V84.82ZM74.4476 85.7386L75.8076 80.6586L73.8756 80.1414L72.5156 85.2214L74.4476 85.7386ZM74.8416 81.4H79.3816V79.4H74.8416V81.4ZM78.4155 80.1419L74.5155 94.7419L76.4477 95.2581L80.3477 80.6581L78.4155 80.1419ZM75.4816 94H70.9416V96H75.4816V94ZM71.9075 95.2587L72.2075 94.1387L70.2756 93.6213L69.9756 94.7413L71.9075 95.2587ZM70.5256 93.1819C69.9039 93.8196 68.9719 94.26 68.1216 94.26V96.26C69.5912 96.26 71.0193 95.5405 71.9576 94.5781L70.5256 93.1819ZM70.5216 92.56C72.475 92.56 73.6616 90.756 73.6616 89.1H71.6616C71.6616 90.004 71.0482 90.56 70.5216 90.56V92.56ZM73.6616 89.1C73.6616 88.4065 73.4295 87.7586 72.9701 87.2772C72.5089 86.7938 71.8763 86.54 71.2016 86.54V88.54C71.3669 88.54 71.4643 88.5962 71.5231 88.6578C71.5837 88.7214 71.6616 88.8535 71.6616 89.1H73.6616ZM71.2016 86.54C69.2482 86.54 68.0616 88.344 68.0616 90H70.0616C70.0616 89.096 70.675 88.54 71.2016 88.54V86.54ZM68.0616 90C68.0616 90.6935 68.2937 91.3414 68.7531 91.8228C69.2143 92.3062 69.8469 92.56 70.5216 92.56V90.56C70.3563 90.56 70.2589 90.5038 70.2001 90.4422C70.1395 90.3786 70.0616 90.2465 70.0616 90H68.0616ZM82.0596 90.6V89.6H80.989L81.0619 90.668L82.0596 90.6ZM85.8996 91.18L86.638 90.5057L86.0207 89.8296L85.2929 90.3851L85.8996 91.18ZM87.9996 93.48L88.6632 94.2281L89.422 93.5549L88.738 92.8057L87.9996 93.48ZM89.0796 90.6V91.6H89.8077L90.0313 90.907L89.0796 90.6ZM82.3396 88.6L81.394 88.2745L80.9377 89.6H82.3396V88.6ZM85.4196 88.6V89.6H86.1126L86.3559 88.9511L85.4196 88.6ZM81.0619 90.668C81.1053 91.3049 81.3396 91.9297 81.8396 92.3933C82.34 92.8573 82.9987 93.06 83.6996 93.06V91.06C83.3804 91.06 83.2491 90.9727 83.1995 90.9267C83.1495 90.8803 83.0738 90.7751 83.0572 90.532L81.0619 90.668ZM83.6996 93.06C84.7363 93.06 85.6457 92.6317 86.5062 91.975L85.2929 90.3851C84.6335 90.8883 84.1428 91.06 83.6996 91.06V93.06ZM85.1611 91.8543L87.2611 94.1543L88.738 92.8057L86.638 90.5057L85.1611 91.8543ZM87.3359 92.7319C86.2627 93.684 84.9741 94.26 83.3196 94.26V96.26C85.505 96.26 87.2564 95.476 88.6632 94.2281L87.3359 92.7319ZM83.3196 94.26C81.8519 94.26 80.7707 93.8333 80.0679 93.1932C79.3737 92.5608 78.9596 91.6408 78.9596 90.46H76.9596C76.9596 92.1392 77.5655 93.6192 78.7212 94.6718C79.8684 95.7167 81.4672 96.26 83.3196 96.26V94.26ZM78.9596 90.46C78.9596 87.6075 81.0729 84.82 84.5996 84.82V82.82C79.8062 82.82 76.9596 86.6725 76.9596 90.46H78.9596ZM84.5996 84.82C86.1537 84.82 87.0524 85.3347 87.5822 85.9687C88.1384 86.6343 88.3996 87.5663 88.3996 88.56H90.3996C90.3996 87.2537 90.0607 85.8157 89.1169 84.6863C88.1467 83.5253 86.6454 82.82 84.5996 82.82V84.82ZM88.3996 88.56C88.3996 89.1715 88.2972 89.768 88.1278 90.293L90.0313 90.907C90.2619 90.192 90.3996 89.3885 90.3996 88.56H88.3996ZM89.0796 89.6H82.0596V91.6H89.0796V89.6ZM82.3396 89.6H85.4196V87.6H82.3396V89.6ZM86.3559 88.9511C86.4688 88.65 86.4996 88.3646 86.4996 88.12H84.4996C84.4996 88.1954 84.4903 88.23 84.4832 88.2489L86.3559 88.9511ZM86.4996 88.12C86.4996 87.025 85.6674 85.96 84.3196 85.96V87.96C84.3766 87.96 84.4089 87.9704 84.4243 87.9769C84.4401 87.9837 84.4507 87.9917 84.4591 88.0006C84.4776 88.0203 84.4996 88.0611 84.4996 88.12H86.4996ZM84.3196 85.96C83.2052 85.96 81.9505 86.658 81.394 88.2745L83.2851 88.9255C83.5686 88.102 84.0739 87.96 84.3196 87.96V85.96ZM13.7399 117L12.9155 116.434L11.8404 118H13.7399V117ZM23.4199 102.9V101.9H22.8935L22.5955 102.334L23.4199 102.9ZM28.0599 102.9L29.0488 102.751L28.9208 101.9H28.0599V102.9ZM30.1799 117V118H31.3415L31.1688 116.851L30.1799 117ZM25.1999 117L24.208 117.127L24.3195 118H25.1999V117ZM24.9599 115.12L25.9519 114.993L25.8404 114.12H24.9599V115.12ZM20.0599 115.12V114.12H19.5168L19.2211 114.576L20.0599 115.12ZM18.8399 117V118H19.3831L19.6788 117.544L18.8399 117ZM22.1399 111.8L21.2981 111.26L20.3109 112.8H22.1399V111.8ZM24.6999 111.8V112.8H25.8179L25.6937 111.689L24.6999 111.8ZM24.3199 108.4L25.3137 108.289L25.0005 105.486L23.4781 107.86L24.3199 108.4ZM14.5643 117.566L24.2443 103.466L22.5955 102.334L12.9155 116.434L14.5643 117.566ZM23.4199 103.9H28.0599V101.9H23.4199V103.9ZM27.071 103.049L29.191 117.149L31.1688 116.851L29.0488 102.751L27.071 103.049ZM30.1799 116H25.1999V118H30.1799V116ZM26.1919 116.873L25.9519 114.993L23.968 115.247L24.208 117.127L26.1919 116.873ZM24.9599 114.12H20.0599V116.12H24.9599V114.12ZM19.2211 114.576L18.0011 116.456L19.6788 117.544L20.8988 115.664L19.2211 114.576ZM18.8399 116H13.7399V118H18.8399V116ZM22.1399 112.8H24.6999V110.8H22.1399V112.8ZM25.6937 111.689L25.3137 108.289L23.3261 108.511L23.7061 111.911L25.6937 111.689ZM23.4781 107.86L21.2981 111.26L22.9818 112.34L25.1618 108.94L23.4781 107.86ZM30.4635 117L29.4975 116.742L29.161 118H30.4635V117ZM33.3835 106.08V105.08H32.6158L32.4175 105.822L33.3835 106.08ZM37.9235 106.08L38.8905 106.335L39.2213 105.08H37.9235V106.08ZM37.3435 108.28L36.3766 108.025L38.1669 108.847L37.3435 108.28ZM41.3835 105.92L42.35 106.177L42.6685 104.977L41.4289 104.921L41.3835 105.92ZM40.1035 110.74V111.74H40.8726L41.07 110.997L40.1035 110.74ZM35.7235 114.28L36.6902 114.536L36.6917 114.53L35.7235 114.28ZM35.0035 117V118H35.7733L35.9702 117.256L35.0035 117ZM31.4296 117.258L34.3496 106.338L32.4175 105.822L29.4975 116.742L31.4296 117.258ZM33.3835 107.08H37.9235V105.08H33.3835V107.08ZM36.9566 105.825L36.3766 108.025L38.3105 108.535L38.8905 106.335L36.9566 105.825ZM38.1669 108.847C39.0839 107.517 40.0594 106.861 41.3381 106.919L41.4289 104.921C39.1876 104.819 37.6431 106.083 36.5201 107.713L38.1669 108.847ZM40.417 105.663L39.137 110.483L41.07 110.997L42.35 106.177L40.417 105.663ZM40.1035 109.74H39.6235V111.74H40.1035V109.74ZM39.6235 109.74C38.3633 109.74 37.2791 110.082 36.4231 110.877C35.5946 111.646 35.0883 112.741 34.7553 114.03L36.6917 114.53C36.9788 113.419 37.3524 112.744 37.784 112.343C38.188 111.968 38.7438 111.74 39.6235 111.74V109.74ZM34.7568 114.024L34.0368 116.744L35.9702 117.256L36.6902 114.536L34.7568 114.024ZM35.0035 116H30.4635V118H35.0035V116ZM51.8893 109.4L52.2607 110.328L53.0375 110.018L52.8688 109.198L51.8893 109.4ZM48.2893 110.84L47.3153 111.067L47.5792 112.201L48.6607 111.768L48.2893 110.84ZM47.6493 112.66L48.204 111.828L47.4726 111.34L46.8952 112.003L47.6493 112.66ZM50.7093 114.7L51.5315 115.269L52.1108 114.432L51.264 113.868L50.7093 114.7ZM45.5493 116.28C44.2796 116.28 43.249 115.907 42.5514 115.299C41.8693 114.704 41.4293 113.822 41.4293 112.62H39.4293C39.4293 114.358 40.0893 115.806 41.2373 116.806C42.3696 117.793 43.899 118.28 45.5493 118.28V116.28ZM41.4293 112.62C41.4293 109.395 43.919 106.84 47.1293 106.84V104.84C42.7796 104.84 39.4293 108.325 39.4293 112.62H41.4293ZM47.1293 106.84C49.3252 106.84 50.5916 108.056 50.9099 109.602L52.8688 109.198C52.3471 106.664 50.2135 104.84 47.1293 104.84V106.84ZM51.5179 108.472L47.9179 109.912L48.6607 111.768L52.2607 110.328L51.5179 108.472ZM49.2633 110.613C49.1366 110.068 48.9025 109.536 48.4832 109.135C48.0426 108.713 47.4847 108.52 46.8893 108.52V110.52C47.0339 110.52 47.076 110.557 47.1004 110.58C47.1461 110.624 47.2421 110.752 47.3153 111.067L49.2633 110.613ZM46.8893 108.52C45.8422 108.52 45.0324 109.093 44.5215 109.799C44.0175 110.496 43.7493 111.384 43.7493 112.24H45.7493C45.7493 111.776 45.9011 111.304 46.1421 110.971C46.3762 110.647 46.6364 110.52 46.8893 110.52V108.52ZM43.7493 112.24C43.7493 112.864 43.9503 113.458 44.3729 113.905C44.7985 114.355 45.3798 114.58 45.9893 114.58V112.58C45.8789 112.58 45.8401 112.545 45.8257 112.53C45.8083 112.512 45.7493 112.436 45.7493 112.24H43.7493ZM45.9893 114.58C47.0383 114.58 47.7697 114.044 48.4034 113.317L46.8952 112.003C46.4489 112.516 46.2203 112.58 45.9893 112.58V114.58ZM47.0946 113.492L50.1546 115.532L51.264 113.868L48.204 111.828L47.0946 113.492ZM49.8871 114.131C48.987 115.431 47.7093 116.28 45.5493 116.28V118.28C48.3893 118.28 50.2716 117.089 51.5315 115.269L49.8871 114.131ZM50.6979 117L49.7321 116.741L49.394 118H50.6979V117ZM54.6179 102.4V101.4H53.851L53.6521 102.141L54.6179 102.4ZM59.1579 102.4L60.1234 102.661L60.4635 101.4H59.1579V102.4ZM57.7979 107.44L56.8324 107.179L58.5719 108.073L57.7979 107.44ZM63.9179 111L62.9531 110.737L62.9517 110.742L63.9179 111ZM62.3179 117V118H63.0862L63.2841 117.258L62.3179 117ZM57.7779 117L56.8121 116.741L56.4741 118H57.7779V117ZM59.2379 111.56L58.2764 111.285L58.2742 111.293L58.2721 111.301L59.2379 111.56ZM56.6979 111.56L55.7328 111.298L55.7321 111.301L56.6979 111.56ZM55.2379 117V118H56.0049L56.2037 117.259L55.2379 117ZM51.6637 117.259L55.5837 102.659L53.6521 102.141L49.7321 116.741L51.6637 117.259ZM54.6179 103.4H59.1579V101.4H54.6179V103.4ZM58.1924 102.139L56.8324 107.179L58.7634 107.701L60.1234 102.661L58.1924 102.139ZM58.5719 108.073C59.147 107.37 60.0624 106.82 61.0579 106.82V104.82C59.3334 104.82 57.8888 105.75 57.0239 106.807L58.5719 108.073ZM61.0579 106.82C61.8322 106.82 62.3234 107.064 62.6297 107.4C62.9475 107.747 63.1779 108.316 63.1779 109.16H65.1779C65.1779 107.964 64.8483 106.863 64.1061 106.05C63.3524 105.226 62.2836 104.82 61.0579 104.82V106.82ZM63.1779 109.16C63.1779 109.626 63.1113 110.157 62.9531 110.737L64.8827 111.263C65.0845 110.523 65.1779 109.814 65.1779 109.16H63.1779ZM62.9517 110.742L61.3517 116.742L63.2841 117.258L64.8841 111.258L62.9517 110.742ZM62.3179 116H57.7779V118H62.3179V116ZM58.7437 117.259L60.2037 111.819L58.2721 111.301L56.8121 116.741L58.7437 117.259ZM60.1994 111.835C60.3048 111.466 60.3579 111.053 60.3579 110.74H58.3579C58.3579 110.867 58.331 111.094 58.2764 111.285L60.1994 111.835ZM60.3579 110.74C60.3579 110.289 60.2406 109.769 59.8539 109.357C59.457 108.935 58.9203 108.78 58.3979 108.78V110.78C58.4686 110.78 58.4902 110.79 58.4797 110.786C58.4741 110.784 58.4618 110.779 58.4457 110.769C58.4294 110.758 58.4125 110.744 58.3969 110.728C58.3813 110.711 58.3699 110.695 58.362 110.681C58.3542 110.668 58.3511 110.659 58.3505 110.657C58.3498 110.655 58.3579 110.679 58.3579 110.74H60.3579ZM58.3979 108.78C57.6888 108.78 57.0689 109.033 56.593 109.552C56.1604 110.024 55.908 110.652 55.7328 111.298L57.663 111.822C57.8078 111.288 57.9554 111.026 58.0678 110.903C58.1369 110.827 58.207 110.78 58.3979 110.78V108.78ZM55.7321 111.301L54.2721 116.741L56.2037 117.259L57.6637 111.819L55.7321 111.301ZM55.2379 116H50.6979V118H55.2379V116ZM66.6104 105.3L65.6447 105.04L65.3059 106.3H66.6104V105.3ZM67.3904 102.4V101.4H66.6238L66.4247 102.14L67.3904 102.4ZM72.0904 102.4L73.0561 102.66L73.3949 101.4H72.0904V102.4ZM71.3104 105.3V106.3H72.077L72.2761 105.56L71.3104 105.3ZM63.5504 117L62.5843 116.742L62.2479 118H63.5504V117ZM66.4704 106.08V105.08H65.7027L65.5044 105.822L66.4704 106.08ZM71.0104 106.08L71.9765 106.338L72.3129 105.08H71.0104V106.08ZM68.0904 117V118H68.8581L69.0565 117.258L68.0904 117ZM67.5761 105.56L68.3561 102.66L66.4247 102.14L65.6447 105.04L67.5761 105.56ZM67.3904 103.4H72.0904V101.4H67.3904V103.4ZM71.1247 102.14L70.3447 105.04L72.2761 105.56L73.0561 102.66L71.1247 102.14ZM71.3104 104.3H66.6104V106.3H71.3104V104.3ZM64.5165 117.258L67.4365 106.338L65.5044 105.822L62.5843 116.742L64.5165 117.258ZM66.4704 107.08H71.0104V105.08H66.4704V107.08ZM70.0444 105.822L67.1244 116.742L69.0565 117.258L71.9765 106.338L70.0444 105.822ZM68.0904 116H63.5504V118H68.0904V116ZM71.406 112.74L70.4396 112.483L70.4377 112.49L70.4359 112.497L71.406 112.74ZM72.246 109.58L73.2125 109.837L73.5466 108.58H72.246V109.58ZM70.966 109.58L70.0003 109.321L69.662 110.58H70.966V109.58ZM71.906 106.08V105.08H71.1392L70.9403 105.821L71.906 106.08ZM73.186 106.08V107.08H73.9518L74.1514 106.341L73.186 106.08ZM73.926 103.34V102.34H73.1603L72.9606 103.079L73.926 103.34ZM78.466 103.34L79.4314 103.601L79.7719 102.34H78.466V103.34ZM77.726 106.08L76.7606 105.819L76.4201 107.08H77.726V106.08ZM80.246 106.08L81.2118 106.339L81.55 105.08H80.246V106.08ZM79.306 109.58V110.58H80.0729L80.2718 109.839L79.306 109.58ZM76.786 109.58V108.58H76.0165L75.8194 109.324L76.786 109.58ZM76.166 111.92L77.1296 112.188L77.1327 112.176L76.166 111.92ZM78.266 113.22L79.2327 113.476L79.6811 111.783L77.9953 112.257L78.266 113.22ZM77.286 116.92L77.5344 117.889L78.1025 117.743L78.2527 117.176L77.286 116.92ZM74.986 116.24C73.8043 116.24 73.1193 116.009 72.7439 115.714C72.4165 115.456 72.186 115.041 72.186 114.26H70.186C70.186 115.479 70.5756 116.554 71.5082 117.286C72.3928 117.981 73.6078 118.24 74.986 118.24V116.24ZM72.186 114.26C72.186 113.912 72.2471 113.499 72.3762 112.983L70.4359 112.497C70.285 113.101 70.186 113.688 70.186 114.26H72.186ZM72.3725 112.997L73.2125 109.837L71.2796 109.323L70.4396 112.483L72.3725 112.997ZM72.246 108.58H70.966V110.58H72.246V108.58ZM71.9318 109.839L72.8718 106.339L70.9403 105.821L70.0003 109.321L71.9318 109.839ZM71.906 107.08H73.186V105.08H71.906V107.08ZM74.1514 106.341L74.8914 103.601L72.9606 103.079L72.2206 105.819L74.1514 106.341ZM73.926 104.34H78.466V102.34H73.926V104.34ZM77.5006 103.079L76.7606 105.819L78.6914 106.341L79.4314 103.601L77.5006 103.079ZM77.726 107.08H80.246V105.08H77.726V107.08ZM79.2803 105.821L78.3403 109.321L80.2718 109.839L81.2118 106.339L79.2803 105.821ZM79.306 108.58H76.786V110.58H79.306V108.58ZM75.8194 109.324L75.1994 111.664L77.1327 112.176L77.7527 109.836L75.8194 109.324ZM75.2025 111.652C75.0889 112.061 75.026 112.417 75.026 112.76H77.026C77.026 112.663 77.0432 112.499 77.1296 112.188L75.2025 111.652ZM75.026 112.76C75.026 113.204 75.1726 113.712 75.6294 114.07C76.0357 114.388 76.5321 114.46 76.946 114.46V112.46C76.8449 112.46 76.7943 112.45 76.7797 112.446C76.7669 112.443 76.806 112.451 76.8627 112.495C76.9251 112.544 76.9746 112.611 77.0032 112.68C77.0287 112.741 77.026 112.776 77.026 112.76H75.026ZM76.946 114.46C77.4472 114.46 77.8745 114.369 78.5368 114.183L77.9953 112.257C77.3776 112.431 77.1649 112.46 76.946 112.46V114.46ZM77.2994 112.964L76.3194 116.664L78.2527 117.176L79.2327 113.476L77.2994 112.964ZM77.0377 115.951C76.3147 116.137 75.6406 116.24 74.986 116.24V118.24C75.8515 118.24 76.6973 118.103 77.5344 117.889L77.0377 115.951ZM83.4951 112.6V111.6H82.4246L82.4974 112.668L83.4951 112.6ZM87.3351 113.18L88.0736 112.506L87.4563 111.83L86.7284 112.385L87.3351 113.18ZM89.4351 115.48L90.0987 116.228L90.8576 115.555L90.1736 114.806L89.4351 115.48ZM90.5151 112.6V113.6H91.2433L91.4668 112.907L90.5151 112.6ZM83.7751 110.6L82.8296 110.274L82.3732 111.6H83.7751V110.6ZM86.8551 110.6V111.6H87.5481L87.7914 110.951L86.8551 110.6ZM82.4974 112.668C82.5408 113.305 82.7752 113.93 83.2752 114.393C83.7756 114.857 84.4342 115.06 85.1351 115.06V113.06C84.816 113.06 84.6846 112.973 84.635 112.927C84.585 112.88 84.5094 112.775 84.4928 112.532L82.4974 112.668ZM85.1351 115.06C86.1718 115.06 87.0812 114.632 87.9418 113.975L86.7284 112.385C86.069 112.888 85.5784 113.06 85.1351 113.06V115.06ZM86.5966 113.854L88.6966 116.154L90.1736 114.806L88.0736 112.506L86.5966 113.854ZM88.7715 114.732C87.6982 115.684 86.4097 116.26 84.7551 116.26V118.26C86.9405 118.26 88.692 117.476 90.0987 116.228L88.7715 114.732ZM84.7551 116.26C83.2875 116.26 82.2063 115.833 81.5035 115.193C80.8092 114.561 80.3951 113.641 80.3951 112.46H78.3951C78.3951 114.139 79.001 115.619 80.1567 116.672C81.3039 117.717 82.9027 118.26 84.7551 118.26V116.26ZM80.3951 112.46C80.3951 109.608 82.5085 106.82 86.0351 106.82V104.82C81.2417 104.82 78.3951 108.672 78.3951 112.46H80.3951ZM86.0351 106.82C87.5893 106.82 88.4879 107.335 89.0178 107.969C89.574 108.634 89.8351 109.566 89.8351 110.56H91.8351C91.8351 109.254 91.4962 107.816 90.5524 106.686C89.5823 105.525 88.0809 104.82 86.0351 104.82V106.82ZM89.8351 110.56C89.8351 111.171 89.7327 111.768 89.5634 112.293L91.4668 112.907C91.6975 112.192 91.8351 111.389 91.8351 110.56H89.8351ZM90.5151 111.6H83.4951V113.6H90.5151V111.6ZM83.7751 111.6H86.8551V109.6H83.7751V111.6ZM87.7914 110.951C87.9044 110.65 87.9351 110.365 87.9351 110.12H85.9351C85.9351 110.195 85.9258 110.23 85.9188 110.249L87.7914 110.951ZM87.9351 110.12C87.9351 109.025 87.103 107.96 85.7551 107.96V109.96C85.8122 109.96 85.8445 109.97 85.8599 109.977C85.8757 109.984 85.8862 109.992 85.8946 110.001C85.9132 110.02 85.9351 110.061 85.9351 110.12H87.9351ZM85.7551 107.96C84.6408 107.96 83.386 108.658 82.8296 110.274L84.7206 110.926C85.0042 110.102 85.5094 109.96 85.7551 109.96V107.96ZM102.729 109.4L103.101 110.328L103.877 110.018L103.709 109.198L102.729 109.4ZM99.1292 110.84L98.1552 111.067L98.419 112.201L99.5006 111.768L99.1292 110.84ZM98.4892 112.66L99.0439 111.828L98.3124 111.34L97.7351 112.003L98.4892 112.66ZM101.549 114.7L102.371 115.269L102.951 114.432L102.104 113.868L101.549 114.7ZM96.3892 116.28C95.1195 116.28 94.0889 115.907 93.3912 115.299C92.7092 114.704 92.2692 113.822 92.2692 112.62H90.2692C90.2692 114.358 90.9291 115.806 92.0771 116.806C93.2095 117.793 94.7389 118.28 96.3892 118.28V116.28ZM92.2692 112.62C92.2692 109.395 94.7588 106.84 97.9692 106.84V104.84C93.6195 104.84 90.2692 108.325 90.2692 112.62H92.2692ZM97.9692 106.84C100.165 106.84 101.431 108.056 101.75 109.602L103.709 109.198C103.187 106.664 101.053 104.84 97.9692 104.84V106.84ZM102.358 108.472L98.7578 109.912L99.5006 111.768L103.101 110.328L102.358 108.472ZM100.103 110.613C99.9764 110.068 99.7424 109.536 99.3231 109.135C98.8824 108.713 98.3246 108.52 97.7292 108.52V110.52C97.8737 110.52 97.9159 110.557 97.9403 110.58C97.986 110.624 98.0819 110.752 98.1552 111.067L100.103 110.613ZM97.7292 108.52C96.6821 108.52 95.8723 109.093 95.3614 109.799C94.8574 110.496 94.5892 111.384 94.5892 112.24H96.5892C96.5892 111.776 96.7409 111.304 96.9819 110.971C97.216 110.647 97.4762 110.52 97.7292 110.52V108.52ZM94.5892 112.24C94.5892 112.864 94.7902 113.458 95.2128 113.905C95.6383 114.355 96.2196 114.58 96.8292 114.58V112.58C96.7187 112.58 96.68 112.545 96.6655 112.53C96.6481 112.512 96.5892 112.436 96.5892 112.24H94.5892ZM96.8292 114.58C97.8781 114.58 98.6095 114.044 99.2432 113.317L97.7351 112.003C97.2888 112.516 97.0602 112.58 96.8292 112.58V114.58ZM97.9345 113.492L100.994 115.532L102.104 113.868L99.0439 111.828L97.9345 113.492ZM100.727 114.131C99.8269 115.431 98.5491 116.28 96.3892 116.28V118.28C99.2292 118.28 101.111 117.089 102.371 115.269L100.727 114.131ZM103.418 112.74L102.451 112.483L102.449 112.49L102.448 112.497L103.418 112.74ZM104.258 109.58L105.224 109.837L105.558 108.58H104.258V109.58ZM102.978 109.58L102.012 109.321L101.674 110.58H102.978V109.58ZM103.918 106.08V105.08H103.151L102.952 105.821L103.918 106.08ZM105.198 106.08V107.08H105.964L106.163 106.341L105.198 106.08ZM105.938 103.34V102.34H105.172L104.972 103.079L105.938 103.34ZM110.478 103.34L111.443 103.601L111.784 102.34H110.478V103.34ZM109.738 106.08L108.772 105.819L108.432 107.08H109.738V106.08ZM112.258 106.08L113.224 106.339L113.562 105.08H112.258V106.08ZM111.318 109.58V110.58H112.085L112.284 109.839L111.318 109.58ZM108.798 109.58V108.58H108.028L107.831 109.324L108.798 109.58ZM108.178 111.92L109.141 112.188L109.144 112.176L108.178 111.92ZM110.278 113.22L111.244 113.476L111.693 111.783L110.007 112.257L110.278 113.22ZM109.298 116.92L109.546 117.889L110.114 117.743L110.264 117.176L109.298 116.92ZM106.998 116.24C105.816 116.24 105.131 116.009 104.756 115.714C104.428 115.456 104.198 115.041 104.198 114.26H102.198C102.198 115.479 102.587 116.554 103.52 117.286C104.405 117.981 105.619 118.24 106.998 118.24V116.24ZM104.198 114.26C104.198 113.912 104.259 113.499 104.388 112.983L102.448 112.497C102.297 113.101 102.198 113.688 102.198 114.26H104.198ZM104.384 112.997L105.224 109.837L103.291 109.323L102.451 112.483L104.384 112.997ZM104.258 108.58H102.978V110.58H104.258V108.58ZM103.944 109.839L104.884 106.339L102.952 105.821L102.012 109.321L103.944 109.839ZM103.918 107.08H105.198V105.08H103.918V107.08ZM106.163 106.341L106.903 103.601L104.972 103.079L104.232 105.819L106.163 106.341ZM105.938 104.34H110.478V102.34H105.938V104.34ZM109.512 103.079L108.772 105.819L110.703 106.341L111.443 103.601L109.512 103.079ZM109.738 107.08H112.258V105.08H109.738V107.08ZM111.292 105.821L110.352 109.321L112.284 109.839L113.224 106.339L111.292 105.821ZM111.318 108.58H108.798V110.58H111.318V108.58ZM107.831 109.324L107.211 111.664L109.144 112.176L109.764 109.836L107.831 109.324ZM107.214 111.652C107.101 112.061 107.038 112.417 107.038 112.76H109.038C109.038 112.663 109.055 112.499 109.141 112.188L107.214 111.652ZM107.038 112.76C107.038 113.204 107.184 113.712 107.641 114.07C108.047 114.388 108.544 114.46 108.958 114.46V112.46C108.857 112.46 108.806 112.45 108.791 112.446C108.779 112.443 108.818 112.451 108.874 112.495C108.937 112.544 108.986 112.611 109.015 112.68C109.04 112.741 109.038 112.776 109.038 112.76H107.038ZM108.958 114.46C109.459 114.46 109.886 114.369 110.549 114.183L110.007 112.257C109.389 112.431 109.177 112.46 108.958 112.46V114.46ZM109.311 112.964L108.331 116.664L110.264 117.176L111.244 113.476L109.311 112.964ZM109.049 115.951C108.326 116.137 107.652 116.24 106.998 116.24V118.24C107.863 118.24 108.709 118.103 109.546 117.889L109.049 115.951Z" fill="#E3C906" mask="url(#path-10-outside-1_208_386)"/>
</svg>
