<svg width="152" height="154" viewBox="0 0 152 154" fill="none" xmlns="http://www.w3.org/2000/svg">
<path d="M75.6078 153.2C117.361 153.2 151.208 119.352 151.208 77.5995C151.208 35.8468 117.361 1.99951 75.6078 1.99951C33.8551 1.99951 0.0078125 35.8468 0.0078125 77.5995C0.0078125 119.352 33.8551 153.2 75.6078 153.2Z" fill="#F8D14F"/>
<path d="M137.707 62.9997C136.707 61.9997 137.507 63.8997 136.307 62.9997C135.507 62.3997 134.607 61.8997 133.807 61.2997C129.007 58.1997 108.707 42.3997 103.407 47.2997C106.007 39.3997 109.207 31.2997 111.007 23.0997C112.907 14.7997 102.707 10.1997 98.607 11.6997C97.107 12.1997 95.907 14.4997 92.907 21.2997C92.907 21.2997 78.607 53.9997 70.807 68.1997L30.207 138.1C42.807 147.6 58.507 153.2 75.607 153.2C89.507 153.2 102.407 149.5 113.607 142.9L125.207 110.9C130.507 105.6 134.207 101.9 138.007 93.9997C142.707 84.2997 146.307 71.3997 137.707 62.9997Z" fill="#EAA48D"/>
<path d="M93.5078 53.3997C93.5078 53.3997 108.708 28.3997 111.008 23.1997C105.008 43.4997 103.108 50.9997 103.108 50.9997L93.5078 53.3997Z" fill="#DB8A75"/>
<path d="M125.308 111L91.5078 105.8L116.708 135.4L125.308 111Z" fill="#DB8A75"/>
<path d="M99.4074 87.2999C99.4074 87.2999 109.107 95.2999 116.307 97.1999C140.007 95.2999 134.307 81.7999 134.307 81.7999L106.107 63.3999L95.6074 66.3999L99.4074 87.2999Z" fill="#DB8A75"/>
<path d="M117.206 50C119.906 50 123.206 50.8 126.706 51.9C130.306 53.1 132.606 56.7 132.206 60.6L131.106 70.3C130.706 73.9 129.506 77.4 127.706 80.6L122.806 88.9C120.806 92.3 116.706 93.8 112.906 92.5H112.806C109.106 91.2 107.006 87.2 108.006 83.4L117.206 50Z" fill="#EAA48D"/>
<path d="M104.607 45.3C107.107 45 109.707 45.7 113.107 46.6C116.707 47.8 119.007 51.4 118.607 55.3L117.507 65C117.107 68.6 115.907 72.1 114.107 75.3L109.207 83.6C107.207 87 103.107 88.5 99.3068 87.2H99.2068C95.5068 85.9 93.4068 81.9 94.4068 78.1L104.607 45.3Z" fill="#EAA48D"/>
<path d="M131.607 56.3999L136.807 58.5999C140.207 59.9999 142.207 63.4999 141.707 67.0999L140.607 75.9999C140.207 79.3999 139.007 82.6999 137.107 85.5999L134.007 90.2999C131.507 93.9999 126.707 95.2999 122.707 93.2999L119.707 91.7999L131.607 56.3999Z" fill="#EAA48D"/>
<path d="M119.706 92.2999C119.606 92.2999 119.506 92.2999 119.406 92.1999C119.206 91.9999 119.206 91.6999 119.406 91.4999C119.506 91.3999 127.306 82.8999 129.806 74.6999C132.306 66.4999 131.206 56.5999 131.206 56.4999C131.206 56.1999 131.406 55.9999 131.606 55.8999C131.906 55.8999 132.106 56.0999 132.206 56.2999C132.206 56.3999 133.406 66.4999 130.806 74.8999C128.206 83.2999 120.506 91.6999 120.206 92.0999C119.906 92.1999 119.806 92.2999 119.706 92.2999Z" fill="#263E65"/>
<path d="M105.407 87.0001C105.307 87.0001 105.207 87.0001 105.107 86.9001C104.907 86.7001 104.907 86.4001 105.107 86.2001C105.207 86.1001 113.007 77.6001 115.507 69.4001C118.007 61.2001 116.907 51.3001 116.907 51.2001C116.907 50.9001 117.107 50.7001 117.307 50.6001C117.607 50.6001 117.807 50.8001 117.907 51.0001C117.907 51.1001 119.107 61.2001 116.507 69.6001C113.907 78.0001 106.207 86.4001 105.907 86.8001C105.707 87.0001 105.507 87.0001 105.407 87.0001Z" fill="#263E65"/>
<path d="M130.106 94.1001C129.906 94.1001 129.706 93.9001 129.606 93.7001C129.506 93.4001 129.706 93.2001 130.006 93.1001C132.506 92.5001 135.906 87.9001 138.906 81.4001C141.306 76.1001 141.306 67.2001 141.306 67.1001C141.306 66.8001 141.506 66.6001 141.806 66.6001C142.106 66.6001 142.306 66.8001 142.306 67.1001C142.306 67.5001 142.306 76.3001 139.806 81.8001C137.406 87.2001 133.606 93.3001 130.206 94.1001C130.106 94.1001 130.106 94.1001 130.106 94.1001Z" fill="#263E65"/>
<path opacity="0.8" d="M118.507 89.7C118.507 89.7 119.207 87 116.207 86C113.307 85 112.307 88 112.307 88L118.507 89.7Z" fill="white"/>
<path opacity="0.8" d="M123.006 90.4998L129.206 92.2998C129.206 92.2998 129.906 89.5999 126.906 88.5999C124.006 87.4999 123.006 90.4998 123.006 90.4998Z" fill="white"/>
<path d="M102.307 94.1995C114.807 82.9995 101.707 71.6995 101.707 71.6995L115.307 73.2995C119.207 73.7995 122.807 71.3995 123.907 67.6995L124.307 66.3995C125.507 62.2995 123.407 57.9995 119.507 56.4995L109.707 52.7995C104.407 50.7995 98.6074 51.0995 93.5074 53.5995L92.4074 54.1995L85.5074 70.2995L80.6074 83.0995L102.307 94.1995Z" fill="#EAA48D"/>
<path opacity="0.8" d="M121.708 59.6997L120.808 68.0997C120.808 68.0997 116.908 68.0997 117.208 62.6997C117.408 57.3997 121.708 59.6997 121.708 59.6997Z" fill="white"/>
<path d="M102.306 94.6998C102.206 94.6998 102.006 94.5998 101.906 94.4998C101.706 94.2998 101.706 93.9998 101.906 93.7998C105.406 90.6998 107.106 87.1998 107.106 83.5998C107.106 77.0998 101.306 72.0998 101.306 71.9998L100.106 70.8998L115.306 72.6998C118.906 73.0998 122.306 70.8998 123.406 67.3998L123.806 66.0998C125.006 62.2998 123.006 58.1998 119.306 56.7998L109.506 53.0998C104.406 51.1998 98.6064 51.3998 93.7064 53.7998L92.6064 54.3998C92.4064 54.4998 92.1064 54.3998 91.9064 54.1998C91.8064 53.9998 91.9064 53.6998 92.1064 53.4998L93.2064 52.8998C98.4064 50.3998 104.406 50.0998 109.806 52.0998L119.606 55.7998C123.806 57.3998 126.106 61.9998 124.706 66.2998L124.306 67.5998C123.106 71.5998 119.206 74.0998 115.106 73.5998L103.006 72.1998C104.806 74.0998 108.106 78.2998 108.106 83.4998C108.106 87.3998 106.306 91.0998 102.506 94.4998C102.506 94.6998 102.406 94.6998 102.306 94.6998Z" fill="#263E65"/>
<path d="M70.0129 4.0493L70.3455 8.03972L73.6839 5.42328C74.6098 5.72937 75.1931 6.1698 75.3729 6.78359L70.5486 10.2258L68.6083 14.8183C67.7279 14.7833 67.0015 14.5207 66.4898 13.9914L68.3911 9.33808L67.6708 4.00947C68.328 3.63018 69.1087 3.64346 70.0129 4.0493Z" fill="#263E65"/>
<path d="M80.1994 7.88659C81.4028 8.35759 82.2201 9.16242 82.5797 10.39C82.9393 11.6176 82.7676 12.8862 82.0926 14.3064C81.4177 15.7267 80.4697 16.7217 79.2875 17.3524C78.1054 17.9831 76.8823 18.0825 75.6788 17.6115C74.4754 17.1405 73.6082 16.3247 73.1879 15.1362C72.7676 13.9476 72.8504 12.6074 73.5145 11.2371C74.1786 9.8667 75.1375 8.82175 76.4302 8.16291C77.7728 7.51494 78.9959 7.41559 80.1994 7.88659ZM79.0969 10.3108C78.5201 10.0807 77.889 10.1 77.2427 10.4294C76.6072 10.709 76.067 11.2705 75.6937 12.025C75.3205 12.7796 75.2183 13.4887 75.4371 14.1632C75.6559 14.8377 76.0895 15.2456 76.7162 15.4865C77.3038 15.6667 77.9457 15.5975 78.4924 15.2464C79.0889 14.9061 79.5683 14.3836 79.8808 13.6681C80.2432 12.9634 80.2847 12.2933 80.1656 11.6405C80.0574 10.9378 79.6845 10.491 79.0969 10.3108Z" fill="#263E65"/>
<path d="M85.3806 10.0073C86.2393 10.142 86.9549 10.4546 87.6487 10.8668C86.0688 14.2841 85.2245 16.2421 84.9944 16.8189C84.8142 17.4065 84.7664 17.8663 84.8899 18.2588C85.0133 18.6514 85.319 18.9269 85.8568 19.0963C86.3837 19.3155 86.8153 19.2527 87.1298 19.0078C87.4444 18.7628 87.7307 18.4072 87.95 17.8803C88.219 17.3643 89.0134 15.3954 90.5045 11.9066C91.2136 12.0087 91.94 12.2714 92.6837 12.6945C90.7325 17.3369 89.4977 19.889 89.0291 20.3616C88.5605 20.8342 87.964 21.1745 87.3004 21.3434C86.6367 21.5124 85.8669 21.4492 85.0017 21.1041C84.1365 20.759 83.4535 20.2969 82.9745 19.6179C82.4955 18.939 82.2984 18.1647 82.444 17.2561C82.5288 16.3865 83.5316 13.9406 85.3806 10.0073Z" fill="#263E65"/>
<path d="M66.2125 16.6996L65.3328 27.2173C64.5694 27.3645 63.7714 27.1907 62.8391 26.6743L63.0024 24.7247L60.4197 24.1101L59.1419 25.6603C58.0945 25.4322 57.4505 25.0308 57.1102 24.4343L64.1612 16.044C65.0352 15.8686 65.7226 16.0706 66.2125 16.6996ZM63.8933 19.4335L61.6521 22.2889L63.337 22.708L63.8933 19.4335Z" fill="#263E65"/>
<path d="M71.0442 18.7443C73.3167 19.3436 74.8693 19.8906 75.652 20.3744C76.4846 20.8692 76.8748 21.4765 76.8724 22.2074C76.87 22.9382 76.5639 23.8641 75.9259 24.8745C75.2772 25.9347 74.1992 26.3269 72.6704 26.1507L73.916 30.0265C73.1828 30.7549 72.3522 30.7308 71.4524 30.0647L70.3825 25.8615L69.5954 25.6379L68.1024 28.6561C67.0614 28.6384 66.4066 28.2869 66.0273 27.6297L70.2309 18.8806L71.0442 18.7443ZM71.7851 21.0996L70.4787 23.7406C72.3414 24.3029 73.4821 24.3423 73.8899 23.9087C74.2978 23.4752 74.5061 22.9981 74.4542 22.5167C74.4132 21.9853 73.5199 21.5296 71.7851 21.0996Z" fill="#263E65"/>
<path d="M85.6327 23.9583C85.5696 24.7282 85.3286 25.3548 84.7993 25.8664L80.4191 24.3903L79.6899 26.0599L83.283 27.3124C83.3803 28.065 83.1394 28.6916 82.532 29.0818L78.8674 27.9182L77.9125 29.9043L82.3924 31.4022C82.4572 32.3044 82.1447 33.0199 81.405 33.538L75.1123 31.4887C74.9236 31.3953 74.8673 31.1741 74.9216 30.9247L78.8867 22.0715C79.019 21.9436 79.1514 21.8157 79.3617 21.8092L85.6327 23.9583Z" fill="#263E65"/>
<path d="M53.516 26.786L53.9697 31.8999L56.0463 28.1206C56.6774 28.1013 57.1436 28.3595 57.5165 28.8064L53.7255 35.6602C53.2224 35.8118 52.7952 35.6143 52.2727 35.1349L51.9686 30.0537L49.7596 33.9608C48.9616 33.7871 48.4456 33.518 48.2224 33.1037L51.9417 26.3388C52.356 26.1155 52.8937 26.2849 53.516 26.786Z" fill="#263E65"/>
<path d="M60.5003 29.9781C61.0662 30.258 61.3892 30.694 61.53 31.2471C61.6599 31.85 61.5296 32.4485 61.1281 33.0925C60.7267 33.7364 60.269 34.1592 59.6834 34.4496C59.1086 34.6901 58.5274 34.7203 57.9615 34.4403C57.3955 34.1604 57.0227 33.7135 56.8819 33.1604C56.752 32.5575 56.8324 31.9482 57.2338 31.3042C57.6353 30.6602 58.093 30.2375 58.7285 29.958C59.364 29.6784 59.9842 29.709 60.5003 29.9781ZM59.7256 31.3766C59.537 31.2833 59.3266 31.2897 59.0555 31.3352C58.8234 31.4414 58.6304 31.6083 58.4763 31.8359C58.3114 32.1135 58.2571 32.3628 58.3134 32.5841C58.3697 32.8053 58.4868 32.9875 58.7253 33.0917C58.9139 33.185 59.1243 33.1785 59.3564 33.0724C59.5884 32.9662 59.7815 32.7992 59.8857 32.5607C60.0397 32.3331 60.094 32.0837 60.0377 31.8625C60.0421 31.6022 59.9142 31.4699 59.7256 31.3766Z" fill="#263E65"/>
<path d="M77.5203 37.7068C77.8807 36.5315 77.6554 35.6466 76.8944 35.063L70.4545 32.2503C69.0749 33.3081 67.4503 34.0514 65.763 34.3631C64.4574 34.6012 63.0456 34.6073 61.7271 34.4247C60.7376 36.0898 60.2035 38.0631 60.014 40.3727L62.616 41.6184L54.9059 56.3951L52.1651 55.067C51.4106 54.6937 50.5538 55.0296 50.1914 55.7343L47.0903 62.0592C46.7171 62.8137 47.042 63.7203 47.8075 64.0437L62.8143 71.1771C63.5298 71.4896 64.3757 71.2036 64.7381 70.4989L67.9108 64.0851C68.2732 63.3804 67.9482 62.4738 67.2327 62.1613L65.0969 61.1739L77.5203 37.7068Z" fill="#263E65"/>
<mask id="path-26-outside-1_208_399" maskUnits="userSpaceOnUse" x="17" y="125" width="95" height="17" fill="black">
<rect fill="white" x="17" y="125" width="95" height="17"/>
<path d="M19.627 140L22.057 130.964H18.349L19.303 127.4H30.931L29.977 130.964H26.269L23.839 140H19.627ZM32.263 136.04C32.317 136.832 32.821 137.354 33.739 137.354C34.405 137.354 35.0351 137.084 35.7191 136.562L37.6091 138.632C36.4931 139.622 35.1251 140.234 33.397 140.234C30.409 140.234 28.573 138.488 28.573 135.914C28.573 132.926 30.805 129.938 34.5491 129.938C37.7891 129.938 38.8691 132.134 38.8691 134.204C38.8691 134.852 38.7611 135.482 38.5811 136.04H32.263ZM32.515 134.24H35.2871C35.3411 134.096 35.359 133.952 35.359 133.808C35.359 133.268 34.9631 132.764 34.2971 132.764C33.685 132.764 32.893 133.142 32.515 134.24ZM43.8677 140.252C41.2397 140.252 39.2597 138.704 39.2597 136.058C39.2597 132.674 41.8877 129.956 45.2897 129.956C47.6657 129.956 49.1957 131.324 49.5737 133.16L46.3337 134.456C46.1537 133.682 45.7397 133.268 45.0737 133.268C43.9037 133.268 43.1477 134.528 43.1477 135.716C43.1477 136.454 43.6157 136.922 44.2637 136.922C44.8397 136.922 45.2717 136.652 45.7577 136.094L48.5117 137.93C47.5397 139.334 46.1177 140.252 43.8677 140.252ZM48.5014 140L52.0294 126.86H56.1154L54.8914 131.396C55.5394 130.604 56.6014 129.938 57.8254 129.938C59.6254 129.938 60.6334 131.108 60.6334 132.944C60.6334 133.448 60.5614 134.006 60.3994 134.6L58.9594 140H54.8734L56.1874 135.104C56.2594 134.852 56.2954 134.564 56.2954 134.366C56.2954 133.844 56.0254 133.502 55.4314 133.502C54.6214 133.502 54.1894 134.042 53.9014 135.104L52.5874 140H48.5014ZM72.127 140.27C68.995 140.27 65.899 138.614 65.899 134.654C65.899 130.532 69.139 127.13 74.215 127.13C76.591 127.13 78.625 128.156 79.489 129.218L76.861 131.918C76.141 131.252 75.061 130.784 73.945 130.784C71.551 130.784 70.129 132.422 70.129 134.456C70.129 136.022 71.263 136.796 72.577 136.796C73.027 136.796 73.387 136.724 73.675 136.598L74.089 135.248H72.019L72.703 132.548H78.769L76.969 138.974C75.727 139.712 73.945 140.27 72.127 140.27ZM81.6875 140.234C79.8875 140.234 78.8795 139.064 78.8795 137.228C78.8795 136.724 78.9515 136.166 79.1135 135.572L80.5535 130.172H84.6395L83.3255 135.068C83.2535 135.32 83.2175 135.608 83.2175 135.806C83.2175 136.328 83.4875 136.67 84.0815 136.67C84.8915 136.67 85.3235 136.13 85.6115 135.068L86.9255 130.172H91.0115L88.3835 140H84.2975L84.6215 138.776C83.9735 139.568 82.9115 140.234 81.6875 140.234ZM89.5288 140L92.1568 130.172H96.2428L95.7208 132.152C96.6388 130.82 97.7728 129.956 99.3568 130.028L98.2048 134.366H97.7728C95.8468 134.366 94.8208 135.392 94.2628 137.552L93.6148 140H89.5288ZM101.164 140.234C99.3641 140.234 98.3561 139.064 98.3561 137.228C98.3561 136.724 98.4281 136.166 98.5901 135.572L100.03 130.172H104.116L102.802 135.068C102.73 135.32 102.694 135.608 102.694 135.806C102.694 136.328 102.964 136.67 103.558 136.67C104.368 136.67 104.8 136.13 105.088 135.068L106.402 130.172H110.488L107.86 140H103.774L104.098 138.776C103.45 139.568 102.388 140.234 101.164 140.234Z"/>
</mask>
<path d="M19.627 140L22.057 130.964H18.349L19.303 127.4H30.931L29.977 130.964H26.269L23.839 140H19.627ZM32.263 136.04C32.317 136.832 32.821 137.354 33.739 137.354C34.405 137.354 35.0351 137.084 35.7191 136.562L37.6091 138.632C36.4931 139.622 35.1251 140.234 33.397 140.234C30.409 140.234 28.573 138.488 28.573 135.914C28.573 132.926 30.805 129.938 34.5491 129.938C37.7891 129.938 38.8691 132.134 38.8691 134.204C38.8691 134.852 38.7611 135.482 38.5811 136.04H32.263ZM32.515 134.24H35.2871C35.3411 134.096 35.359 133.952 35.359 133.808C35.359 133.268 34.9631 132.764 34.2971 132.764C33.685 132.764 32.893 133.142 32.515 134.24ZM43.8677 140.252C41.2397 140.252 39.2597 138.704 39.2597 136.058C39.2597 132.674 41.8877 129.956 45.2897 129.956C47.6657 129.956 49.1957 131.324 49.5737 133.16L46.3337 134.456C46.1537 133.682 45.7397 133.268 45.0737 133.268C43.9037 133.268 43.1477 134.528 43.1477 135.716C43.1477 136.454 43.6157 136.922 44.2637 136.922C44.8397 136.922 45.2717 136.652 45.7577 136.094L48.5117 137.93C47.5397 139.334 46.1177 140.252 43.8677 140.252ZM48.5014 140L52.0294 126.86H56.1154L54.8914 131.396C55.5394 130.604 56.6014 129.938 57.8254 129.938C59.6254 129.938 60.6334 131.108 60.6334 132.944C60.6334 133.448 60.5614 134.006 60.3994 134.6L58.9594 140H54.8734L56.1874 135.104C56.2594 134.852 56.2954 134.564 56.2954 134.366C56.2954 133.844 56.0254 133.502 55.4314 133.502C54.6214 133.502 54.1894 134.042 53.9014 135.104L52.5874 140H48.5014ZM72.127 140.27C68.995 140.27 65.899 138.614 65.899 134.654C65.899 130.532 69.139 127.13 74.215 127.13C76.591 127.13 78.625 128.156 79.489 129.218L76.861 131.918C76.141 131.252 75.061 130.784 73.945 130.784C71.551 130.784 70.129 132.422 70.129 134.456C70.129 136.022 71.263 136.796 72.577 136.796C73.027 136.796 73.387 136.724 73.675 136.598L74.089 135.248H72.019L72.703 132.548H78.769L76.969 138.974C75.727 139.712 73.945 140.27 72.127 140.27ZM81.6875 140.234C79.8875 140.234 78.8795 139.064 78.8795 137.228C78.8795 136.724 78.9515 136.166 79.1135 135.572L80.5535 130.172H84.6395L83.3255 135.068C83.2535 135.32 83.2175 135.608 83.2175 135.806C83.2175 136.328 83.4875 136.67 84.0815 136.67C84.8915 136.67 85.3235 136.13 85.6115 135.068L86.9255 130.172H91.0115L88.3835 140H84.2975L84.6215 138.776C83.9735 139.568 82.9115 140.234 81.6875 140.234ZM89.5288 140L92.1568 130.172H96.2428L95.7208 132.152C96.6388 130.82 97.7728 129.956 99.3568 130.028L98.2048 134.366H97.7728C95.8468 134.366 94.8208 135.392 94.2628 137.552L93.6148 140H89.5288ZM101.164 140.234C99.3641 140.234 98.3561 139.064 98.3561 137.228C98.3561 136.724 98.4281 136.166 98.5901 135.572L100.03 130.172H104.116L102.802 135.068C102.73 135.32 102.694 135.608 102.694 135.806C102.694 136.328 102.964 136.67 103.558 136.67C104.368 136.67 104.8 136.13 105.088 135.068L106.402 130.172H110.488L107.86 140H103.774L104.098 138.776C103.45 139.568 102.388 140.234 101.164 140.234Z" fill="#263E65"/>
<path d="M19.627 140L18.6614 139.74L18.3226 141H19.627V140ZM22.057 130.964L23.0227 131.224L23.3615 129.964H22.057V130.964ZM18.349 130.964L17.3831 130.705L17.0462 131.964H18.349V130.964ZM19.303 127.4V126.4H18.5355L18.3371 127.141L19.303 127.4ZM30.931 127.4L31.897 127.659L32.2339 126.4H30.931V127.4ZM29.977 130.964V131.964H30.7446L30.943 131.223L29.977 130.964ZM26.269 130.964V129.964H25.5024L25.3034 130.704L26.269 130.964ZM23.839 140V141H24.6057L24.8047 140.26L23.839 140ZM20.5927 140.26L23.0227 131.224L21.0914 130.704L18.6614 139.74L20.5927 140.26ZM22.057 129.964H18.349V131.964H22.057V129.964ZM19.315 131.223L20.269 127.659L18.3371 127.141L17.3831 130.705L19.315 131.223ZM19.303 128.4H30.931V126.4H19.303V128.4ZM29.9651 127.141L29.0111 130.705L30.943 131.223L31.897 127.659L29.9651 127.141ZM29.977 129.964H26.269V131.964H29.977V129.964ZM25.3034 130.704L22.8734 139.74L24.8047 140.26L27.2347 131.224L25.3034 130.704ZM23.839 139H19.627V141H23.839V139ZM32.263 136.04V135.04H31.1925L31.2654 136.108L32.263 136.04ZM35.7191 136.562L36.4575 135.888L35.8402 135.212L35.1124 135.767L35.7191 136.562ZM37.6091 138.632L38.2727 139.38L39.0315 138.707L38.3475 137.958L37.6091 138.632ZM38.5811 136.04V137.04H39.3092L39.5328 136.347L38.5811 136.04ZM32.515 134.24L31.5695 133.914L31.1132 135.24H32.515V134.24ZM35.2871 134.24V135.24H35.9801L36.2234 134.591L35.2871 134.24ZM31.2654 136.108C31.3058 136.701 31.5246 137.289 31.9971 137.727C32.47 138.166 33.0892 138.354 33.739 138.354V136.354C33.4709 136.354 33.3791 136.281 33.357 136.261C33.3345 136.24 33.2743 136.171 33.2607 135.972L31.2654 136.108ZM33.739 138.354C34.7018 138.354 35.5412 137.956 36.3257 137.357L35.1124 135.767C34.5289 136.212 34.1083 136.354 33.739 136.354V138.354ZM34.9806 137.236L36.8706 139.306L38.3475 137.958L36.4575 135.888L34.9806 137.236ZM36.9454 137.884C35.9962 138.726 34.8596 139.234 33.397 139.234V141.234C35.3905 141.234 36.9899 140.518 38.2727 139.38L36.9454 137.884ZM33.397 139.234C32.0954 139.234 31.1482 138.856 30.5379 138.3C29.9361 137.752 29.573 136.952 29.573 135.914H27.573C27.573 137.45 28.1279 138.81 29.1912 139.779C30.2459 140.739 31.7107 141.234 33.397 141.234V139.234ZM29.573 135.914C29.573 133.394 31.4384 130.938 34.5491 130.938V128.938C30.1717 128.938 27.573 132.458 27.573 135.914H29.573ZM34.5491 130.938C35.9232 130.938 36.7019 131.392 37.1567 131.936C37.6379 132.512 37.8691 133.325 37.8691 134.204H39.8691C39.8691 133.013 39.5602 131.693 38.6914 130.654C37.7962 129.582 36.4149 128.938 34.5491 128.938V130.938ZM37.8691 134.204C37.8691 134.743 37.7787 135.27 37.6293 135.733L39.5328 136.347C39.7434 135.694 39.8691 134.961 39.8691 134.204H37.8691ZM38.5811 135.04H32.263V137.04H38.5811V135.04ZM32.515 135.24H35.2871V133.24H32.515V135.24ZM36.2234 134.591C36.3303 134.306 36.3591 134.037 36.3591 133.808H34.359C34.359 133.867 34.3518 133.886 34.3507 133.889L36.2234 134.591ZM36.3591 133.808C36.3591 132.773 35.5709 131.764 34.2971 131.764V133.764C34.3356 133.764 34.3513 133.771 34.3522 133.771C34.3534 133.772 34.3515 133.771 34.3498 133.769C34.3481 133.767 34.359 133.779 34.359 133.808H36.3591ZM34.2971 131.764C33.2507 131.764 32.084 132.42 31.5695 133.914L33.4606 134.566C33.5889 134.193 33.7643 134.001 33.9028 133.902C34.0479 133.797 34.1928 133.764 34.2971 133.764V131.764ZM49.5737 133.16L49.9451 134.088L50.7219 133.778L50.5532 132.958L49.5737 133.16ZM46.3337 134.456L45.3597 134.683L45.6236 135.817L46.7051 135.384L46.3337 134.456ZM45.7577 136.094L46.3124 135.262L45.581 134.774L45.0036 135.437L45.7577 136.094ZM48.5117 137.93L49.3339 138.499L49.9132 137.662L49.0664 137.098L48.5117 137.93ZM43.8677 139.252C42.744 139.252 41.8414 138.922 41.2353 138.393C40.6447 137.879 40.2597 137.113 40.2597 136.058H38.2597C38.2597 137.649 38.8647 138.98 39.9212 139.901C40.962 140.808 42.3634 141.252 43.8677 141.252V139.252ZM40.2597 136.058C40.2597 133.209 42.4574 130.956 45.2897 130.956V128.956C41.318 128.956 38.2597 132.139 38.2597 136.058H40.2597ZM45.2897 130.956C47.2216 130.956 48.318 132.02 48.5943 133.362L50.5532 132.958C50.0735 130.628 48.1098 128.956 45.2897 128.956V130.956ZM49.2023 132.232L45.9623 133.528L46.7051 135.384L49.9451 134.088L49.2023 132.232ZM47.3077 134.229C47.191 133.727 46.9734 133.228 46.5774 132.849C46.16 132.45 45.6321 132.268 45.0737 132.268V134.268C45.1359 134.268 45.1654 134.277 45.174 134.281C45.1808 134.283 45.1857 134.286 45.1946 134.294C45.217 134.316 45.2965 134.411 45.3597 134.683L47.3077 134.229ZM45.0737 132.268C44.0916 132.268 43.3353 132.806 42.8617 133.46C42.3949 134.106 42.1477 134.926 42.1477 135.716H44.1477C44.1477 135.318 44.2785 134.914 44.4822 134.633C44.6791 134.36 44.8858 134.268 45.0737 134.268V132.268ZM42.1477 135.716C42.1477 136.299 42.3357 136.86 42.7363 137.283C43.1399 137.71 43.6902 137.922 44.2637 137.922V135.922C44.2227 135.922 44.2019 135.915 44.1956 135.912C44.19 135.91 44.1894 135.909 44.1891 135.908C44.1885 135.908 44.1798 135.899 44.1701 135.872C44.1601 135.845 44.1477 135.795 44.1477 135.716H42.1477ZM44.2637 137.922C45.2487 137.922 45.9321 137.416 46.5118 136.751L45.0036 135.437C44.6113 135.888 44.4307 135.922 44.2637 135.922V137.922ZM45.203 136.926L47.957 138.762L49.0664 137.098L46.3124 135.262L45.203 136.926ZM47.6895 137.361C46.8974 138.505 45.7777 139.252 43.8677 139.252V141.252C46.4577 141.252 48.182 140.163 49.3339 138.499L47.6895 137.361ZM48.5014 140L47.5356 139.741L47.1975 141H48.5014V140ZM52.0294 126.86V125.86H51.2625L51.0636 126.601L52.0294 126.86ZM56.1154 126.86L57.0809 127.121L57.4211 125.86H56.1154V126.86ZM54.8914 131.396L53.926 131.135L55.6654 132.029L54.8914 131.396ZM60.3994 134.6L59.4347 134.337L59.4332 134.342L60.3994 134.6ZM58.9594 140V141H59.7277L59.9257 140.258L58.9594 140ZM54.8734 140L53.9076 139.741L53.5697 141H54.8734V140ZM56.1874 135.104L55.2259 134.829L55.2237 134.837L55.2216 134.845L56.1874 135.104ZM53.9014 135.104L52.9363 134.842L52.9356 134.845L53.9014 135.104ZM52.5874 140V141H53.3544L53.5533 140.259L52.5874 140ZM49.4672 140.259L52.9952 127.119L51.0636 126.601L47.5356 139.741L49.4672 140.259ZM52.0294 127.86H56.1154V125.86H52.0294V127.86ZM55.15 126.599L53.926 131.135L55.8569 131.657L57.0809 127.121L55.15 126.599ZM55.6654 132.029C56.1685 131.414 56.966 130.938 57.8254 130.938V128.938C56.2369 128.938 54.9103 129.794 54.1175 130.763L55.6654 132.029ZM57.8254 130.938C58.4998 130.938 58.913 131.15 59.1662 131.427C59.431 131.717 59.6334 132.202 59.6334 132.944H61.6334C61.6334 131.85 61.3319 130.832 60.6427 130.078C59.9419 129.311 58.9511 128.938 57.8254 128.938V130.938ZM59.6334 132.944C59.6334 133.354 59.5748 133.823 59.4347 134.337L61.3642 134.863C61.5481 134.189 61.6334 133.542 61.6334 132.944H59.6334ZM59.4332 134.342L57.9932 139.742L59.9257 140.258L61.3657 134.858L59.4332 134.342ZM58.9594 139H54.8734V141H58.9594V139ZM55.8393 140.259L57.1533 135.363L55.2216 134.845L53.9076 139.741L55.8393 140.259ZM57.149 135.379C57.2464 135.038 57.2954 134.657 57.2954 134.366H55.2954C55.2954 134.41 55.291 134.484 55.2781 134.576C55.2655 134.666 55.2472 134.755 55.2259 134.829L57.149 135.379ZM57.2954 134.366C57.2954 133.944 57.1856 133.448 56.8147 133.053C56.4335 132.648 55.9208 132.502 55.4314 132.502V134.502C55.4856 134.502 55.493 134.51 55.4704 134.502C55.4438 134.492 55.3997 134.468 55.3577 134.423C55.2703 134.33 55.2954 134.266 55.2954 134.366H57.2954ZM55.4314 132.502C54.7674 132.502 54.1819 132.74 53.7333 133.229C53.3279 133.672 53.0956 134.255 52.9363 134.842L54.8666 135.366C54.9953 134.891 55.123 134.673 55.2081 134.58C55.2422 134.543 55.2651 134.531 55.2807 134.524C55.2984 134.516 55.3418 134.502 55.4314 134.502V132.502ZM52.9356 134.845L51.6216 139.741L53.5533 140.259L54.8673 135.363L52.9356 134.845ZM52.5874 139H48.5014V141H52.5874V139ZM79.489 129.218L80.2056 129.915L80.8266 129.278L80.2647 128.587L79.489 129.218ZM76.861 131.918L76.182 132.652L76.8976 133.314L77.5776 132.615L76.861 131.918ZM73.675 136.598L74.0758 137.514L74.4965 137.33L74.6311 136.891L73.675 136.598ZM74.089 135.248L75.0451 135.541L75.4416 134.248H74.089V135.248ZM72.019 135.248L71.0496 135.002L70.7341 136.248H72.019V135.248ZM72.703 132.548V131.548H71.9248L71.7336 132.302L72.703 132.548ZM78.769 132.548L79.7319 132.818L80.0876 131.548H78.769V132.548ZM76.969 138.974L77.4798 139.834L77.824 139.629L77.9319 139.244L76.969 138.974ZM72.127 139.27C70.7205 139.27 69.3991 138.896 68.4535 138.158C67.5422 137.448 66.899 136.34 66.899 134.654H64.899C64.899 136.928 65.8038 138.628 67.2235 139.736C68.6089 140.816 70.4015 141.27 72.127 141.27V139.27ZM66.899 134.654C66.899 131.136 69.6377 128.13 74.215 128.13V126.13C68.6403 126.13 64.899 129.928 64.899 134.654H66.899ZM74.215 128.13C76.3534 128.13 78.0758 129.066 78.7133 129.849L80.2647 128.587C79.1742 127.246 76.8286 126.13 74.215 126.13V128.13ZM78.7724 128.521L76.1444 131.221L77.5776 132.615L80.2056 129.915L78.7724 128.521ZM77.5401 131.184C76.6438 130.355 75.3242 129.784 73.945 129.784V131.784C74.7978 131.784 75.6382 132.149 76.182 132.652L77.5401 131.184ZM73.945 129.784C72.5107 129.784 71.2903 130.28 70.4273 131.155C69.5694 132.025 69.129 133.204 69.129 134.456H71.129C71.129 133.674 71.3997 133.017 71.8512 132.56C72.2978 132.107 72.9853 131.784 73.945 131.784V129.784ZM69.129 134.456C69.129 135.5 69.5176 136.371 70.2042 136.968C70.8708 137.547 71.7327 137.796 72.577 137.796V135.796C72.1073 135.796 71.7453 135.658 71.5163 135.459C71.3074 135.277 71.129 134.978 71.129 134.456H69.129ZM72.577 137.796C73.1318 137.796 73.6342 137.707 74.0758 137.514L73.2742 135.682C73.1398 135.741 72.9222 135.796 72.577 135.796V137.796ZM74.6311 136.891L75.0451 135.541L73.133 134.955L72.719 136.305L74.6311 136.891ZM74.089 134.248H72.019V136.248H74.089V134.248ZM72.9884 135.494L73.6724 132.794L71.7336 132.302L71.0496 135.002L72.9884 135.494ZM72.703 133.548H78.769V131.548H72.703V133.548ZM77.8061 132.278L76.0061 138.704L77.9319 139.244L79.7319 132.818L77.8061 132.278ZM76.4582 138.114C75.365 138.764 73.7586 139.27 72.127 139.27V141.27C74.1314 141.27 76.0891 140.66 77.4798 139.834L76.4582 138.114ZM79.1135 135.572L80.0783 135.835L80.0798 135.83L79.1135 135.572ZM80.5535 130.172V129.172H79.7853L79.5873 129.914L80.5535 130.172ZM84.6395 130.172L85.6054 130.431L85.9433 129.172H84.6395V130.172ZM83.3255 135.068L84.2871 135.343L84.2893 135.335L84.2914 135.327L83.3255 135.068ZM85.6115 135.068L86.5767 135.33L86.5774 135.327L85.6115 135.068ZM86.9255 130.172V129.172H86.1585L85.9597 129.913L86.9255 130.172ZM91.0115 130.172L91.9776 130.43L92.3141 129.172H91.0115V130.172ZM88.3835 140V141H89.1513L89.3496 140.258L88.3835 140ZM84.2975 140L83.3308 139.744L82.9984 141H84.2975V140ZM84.6215 138.776L85.5882 139.032L83.8476 138.143L84.6215 138.776ZM81.6875 139.234C81.0132 139.234 80.6 139.022 80.3468 138.745C80.082 138.455 79.8795 137.97 79.8795 137.228H77.8795C77.8795 138.322 78.1811 139.34 78.8703 140.094C79.5711 140.861 80.5619 141.234 81.6875 141.234V139.234ZM79.8795 137.228C79.8795 136.818 79.9382 136.349 80.0783 135.835L78.1488 135.309C77.9649 135.983 77.8795 136.63 77.8795 137.228H79.8795ZM80.0798 135.83L81.5198 130.43L79.5873 129.914L78.1473 135.314L80.0798 135.83ZM80.5535 131.172H84.6395V129.172H80.5535V131.172ZM83.6737 129.913L82.3597 134.809L84.2914 135.327L85.6054 130.431L83.6737 129.913ZM82.364 134.793C82.2666 135.134 82.2175 135.515 82.2175 135.806H84.2175C84.2175 135.762 84.222 135.688 84.2348 135.596C84.2475 135.506 84.2658 135.417 84.2871 135.343L82.364 134.793ZM82.2175 135.806C82.2175 136.228 82.3274 136.724 82.6983 137.119C83.0795 137.524 83.5922 137.67 84.0815 137.67V135.67C84.0274 135.67 84.02 135.662 84.0426 135.67C84.0692 135.68 84.1133 135.704 84.1553 135.749C84.2427 135.842 84.2175 135.906 84.2175 135.806H82.2175ZM84.0815 137.67C84.7456 137.67 85.3311 137.432 85.7797 136.943C86.1851 136.5 86.4174 135.917 86.5767 135.33L84.6464 134.806C84.5177 135.281 84.39 135.499 84.3049 135.592C84.2708 135.629 84.2479 135.641 84.2322 135.648C84.2146 135.656 84.1712 135.67 84.0815 135.67V137.67ZM86.5774 135.327L87.8914 130.431L85.9597 129.913L84.6457 134.809L86.5774 135.327ZM86.9255 131.172H91.0115V129.172H86.9255V131.172ZM90.0455 129.914L87.4175 139.742L89.3496 140.258L91.9776 130.43L90.0455 129.914ZM88.3835 139H84.2975V141H88.3835V139ZM85.2642 140.256L85.5882 139.032L83.6548 138.52L83.3308 139.744L85.2642 140.256ZM83.8476 138.143C83.3444 138.758 82.547 139.234 81.6875 139.234V141.234C83.2761 141.234 84.6026 140.378 85.3955 139.409L83.8476 138.143ZM89.5288 140L88.5627 139.742L88.2263 141H89.5288V140ZM92.1568 130.172V129.172H91.3891L91.1907 129.914L92.1568 130.172ZM96.2428 130.172L97.2098 130.427L97.5406 129.172H96.2428V130.172ZM95.7208 132.152L94.7538 131.897L96.5442 132.719L95.7208 132.152ZM99.3568 130.028L100.323 130.285L100.642 129.085L99.4022 129.029L99.3568 130.028ZM98.2048 134.366V135.366H98.9739L99.1713 134.623L98.2048 134.366ZM94.2628 137.552L95.2295 137.808L95.231 137.802L94.2628 137.552ZM93.6148 140V141H94.3845L94.5815 140.256L93.6148 140ZM90.4949 140.258L93.1229 130.43L91.1907 129.914L88.5627 139.742L90.4949 140.258ZM92.1568 131.172H96.2428V129.172H92.1568V131.172ZM95.2758 129.917L94.7538 131.897L96.6878 132.407L97.2098 130.427L95.2758 129.917ZM96.5442 132.719C97.3592 131.537 98.2087 130.977 99.3114 131.027L99.4022 129.029C97.3369 128.935 95.9184 130.103 94.8974 131.585L96.5442 132.719ZM98.3903 129.771L97.2383 134.109L99.1713 134.623L100.323 130.285L98.3903 129.771ZM98.2048 133.366H97.7728V135.366H98.2048V133.366ZM97.7728 133.366C96.6196 133.366 95.6173 133.68 94.8243 134.416C94.0589 135.127 93.5966 136.133 93.2946 137.302L95.231 137.802C95.487 136.811 95.8167 136.224 96.1852 135.882C96.5263 135.565 97 135.366 97.7728 135.366V133.366ZM93.2961 137.296L92.6481 139.744L94.5815 140.256L95.2295 137.808L93.2961 137.296ZM93.6148 139H89.5288V141H93.6148V139ZM98.5901 135.572L99.5549 135.835L99.5563 135.83L98.5901 135.572ZM100.03 130.172V129.172H99.2618L99.0639 129.914L100.03 130.172ZM104.116 130.172L105.082 130.431L105.42 129.172H104.116V130.172ZM102.802 135.068L103.764 135.343L103.766 135.335L103.768 135.327L102.802 135.068ZM105.088 135.068L106.053 135.33L106.054 135.327L105.088 135.068ZM106.402 130.172V129.172H105.635L105.436 129.913L106.402 130.172ZM110.488 130.172L111.454 130.43L111.791 129.172H110.488V130.172ZM107.86 140V141H108.628L108.826 140.258L107.86 140ZM103.774 140L102.807 139.744L102.475 141H103.774V140ZM104.098 138.776L105.065 139.032L103.324 138.143L104.098 138.776ZM101.164 139.234C100.49 139.234 100.077 139.022 99.8233 138.745C99.5585 138.455 99.3561 137.97 99.3561 137.228H97.3561C97.3561 138.322 97.6577 139.34 98.3469 140.094C99.0476 140.861 100.038 141.234 101.164 141.234V139.234ZM99.3561 137.228C99.3561 136.818 99.4147 136.349 99.5549 135.835L97.6253 135.309C97.4415 135.983 97.3561 136.63 97.3561 137.228H99.3561ZM99.5563 135.83L100.996 130.43L99.0639 129.914L97.6239 135.314L99.5563 135.83ZM100.03 131.172H104.116V129.172H100.03V131.172ZM103.15 129.913L101.836 134.809L103.768 135.327L105.082 130.431L103.15 129.913ZM101.841 134.793C101.743 135.134 101.694 135.515 101.694 135.806H103.694C103.694 135.762 103.699 135.688 103.711 135.596C103.724 135.506 103.742 135.417 103.764 135.343L101.841 134.793ZM101.694 135.806C101.694 136.228 101.804 136.724 102.175 137.119C102.556 137.524 103.069 137.67 103.558 137.67V135.67C103.504 135.67 103.497 135.662 103.519 135.67C103.546 135.68 103.59 135.704 103.632 135.749C103.719 135.842 103.694 135.906 103.694 135.806H101.694ZM103.558 137.67C104.222 137.67 104.808 137.432 105.256 136.943C105.662 136.5 105.894 135.917 106.053 135.33L104.123 134.806C103.994 135.281 103.867 135.499 103.781 135.592C103.747 135.629 103.724 135.641 103.709 135.648C103.691 135.656 103.648 135.67 103.558 135.67V137.67ZM106.054 135.327L107.368 130.431L105.436 129.913L104.122 134.809L106.054 135.327ZM106.402 131.172H110.488V129.172H106.402V131.172ZM109.522 129.914L106.894 139.742L108.826 140.258L111.454 130.43L109.522 129.914ZM107.86 139H103.774V141H107.86V139ZM104.741 140.256L105.065 139.032L103.131 138.52L102.807 139.744L104.741 140.256ZM103.324 138.143C102.821 138.758 102.024 139.234 101.164 139.234V141.234C102.753 141.234 104.079 140.378 104.872 139.409L103.324 138.143Z" fill="url(#paint0_linear_208_399)" mask="url(#path-26-outside-1_208_399)"/>
<defs>
<linearGradient id="paint0_linear_208_399" x1="126.724" y1="133" x2="1.51067e-05" y2="133" gradientUnits="userSpaceOnUse">
<stop stop-color="#E3C906"/>
<stop offset="0.45" stop-color="#E3C906" stop-opacity="0"/>
<stop offset="1" stop-color="#E3C906"/>
</linearGradient>
</defs>
</svg>
