<svg width="280" height="196" viewBox="0 0 280 196" fill="none" xmlns="http://www.w3.org/2000/svg">
<g opacity="0.6">
<path d="M12.025 28.599V24.311L19.353 16.151H24.377V16.535L12.025 28.599ZM8.28097 34.167V16.151H12.121V34.167H8.28097ZM20.345 34.167L13.977 24.919L16.761 22.199L24.761 33.783V34.167H20.345ZM39.1232 16.151H43.1552V34.167H35.7632L30.9952 17.847H30.9312V34.167H26.9312V16.151H33.7792L39.0592 32.471H39.1232V16.151ZM54.5525 34.615C51.6085 34.615 49.3578 33.7723 47.8005 32.087C46.2431 30.3803 45.4645 28.087 45.4645 25.207C45.4645 23.3083 45.7951 21.6657 46.4565 20.279C47.1391 18.871 48.1525 17.783 49.4965 17.015C50.8405 16.2257 52.5258 15.831 54.5525 15.831C57.5178 15.831 59.7685 16.6843 61.3045 18.391C62.8405 20.0763 63.6085 22.3483 63.6085 25.207C63.6085 27.063 63.2671 28.7057 62.5845 30.135C61.9018 31.543 60.8885 32.6417 59.5445 33.431C58.2005 34.2203 56.5365 34.615 54.5525 34.615ZM54.4885 30.871C55.6831 30.871 56.6751 30.6257 57.4645 30.135C58.2538 29.6443 58.8405 28.9723 59.2245 28.119C59.6085 27.2443 59.8005 26.2737 59.8005 25.207C59.8005 24.1403 59.6085 23.1697 59.2245 22.295C58.8405 21.4203 58.2538 20.727 57.4645 20.215C56.6965 19.703 55.7045 19.447 54.4885 19.447C52.7818 19.447 51.4698 19.9803 50.5525 21.047C49.6565 22.1137 49.2085 23.5003 49.2085 25.207C49.2085 26.2523 49.4005 27.2123 49.7845 28.087C50.1898 28.9403 50.7765 29.623 51.5445 30.135C52.3125 30.6257 53.2938 30.871 54.4885 30.871ZM75.552 16.151H79.648L77.6 21.047L75.328 34.167H69.12L65.184 16.151H69.28L72.192 32.567L75.552 16.151ZM85.856 16.151H89.952L86.144 34.167H79.936L77.6 21.047L75.488 16.151H79.648L83.04 32.567L85.856 16.151ZM102.609 27.895L96.465 16.151H100.817L104.593 24.567L108.401 16.151H112.721L106.449 27.895H102.609ZM102.609 34.167V27.479H106.449V34.167H102.609ZM121.427 34.615C118.483 34.615 116.233 33.7723 114.675 32.087C113.118 30.3803 112.339 28.087 112.339 25.207C112.339 23.3083 112.67 21.6657 113.331 20.279C114.014 18.871 115.027 17.783 116.371 17.015C117.715 16.2257 119.401 15.831 121.427 15.831C124.393 15.831 126.643 16.6843 128.179 18.391C129.715 20.0763 130.483 22.3483 130.483 25.207C130.483 27.063 130.142 28.7057 129.459 30.135C128.777 31.543 127.763 32.6417 126.419 33.431C125.075 34.2203 123.411 34.615 121.427 34.615ZM121.363 30.871C122.558 30.871 123.55 30.6257 124.339 30.135C125.129 29.6443 125.715 28.9723 126.099 28.119C126.483 27.2443 126.675 26.2737 126.675 25.207C126.675 24.1403 126.483 23.1697 126.099 22.295C125.715 21.4203 125.129 20.727 124.339 20.215C123.571 19.703 122.579 19.447 121.363 19.447C119.657 19.447 118.345 19.9803 117.427 21.047C116.531 22.1137 116.083 23.5003 116.083 25.207C116.083 26.2523 116.275 27.2123 116.659 28.087C117.065 28.9403 117.651 29.623 118.419 30.135C119.187 30.6257 120.169 30.871 121.363 30.871ZM141.524 34.615C138.9 34.615 136.906 33.911 135.54 32.503C134.196 31.0737 133.524 29.0683 133.524 26.487V16.151H137.652V26.455C137.652 27.3937 137.77 28.1617 138.004 28.759C138.26 29.335 138.58 29.783 138.964 30.103C139.348 30.423 139.764 30.647 140.212 30.775C140.66 30.8817 141.098 30.935 141.524 30.935C142.164 30.935 142.783 30.8283 143.38 30.615C143.978 30.4017 144.468 29.975 144.852 29.335C145.236 28.6737 145.428 27.7137 145.428 26.455V16.151H149.556V26.487C149.556 29.111 148.884 31.127 147.54 32.535C146.218 33.9217 144.212 34.615 141.524 34.615ZM152.867 34.167V16.151H159.843C161.422 16.151 162.766 16.3323 163.875 16.695C164.985 17.0363 165.838 17.6017 166.435 18.391C167.054 19.159 167.363 20.2043 167.363 21.527C167.363 22.551 167.203 23.4363 166.883 24.183C166.563 24.9297 166.094 25.5057 165.475 25.911C164.878 26.3163 164.163 26.519 163.331 26.519C163.907 26.519 164.355 26.6363 164.675 26.871C164.995 27.0843 165.241 27.383 165.411 27.767C165.582 28.1297 165.699 28.5137 165.763 28.919C165.849 29.3243 165.923 29.719 165.987 30.103C166.073 30.487 166.179 30.8177 166.307 31.095C166.457 31.351 166.681 31.5217 166.979 31.607C167.278 31.671 167.694 31.5963 168.227 31.383V33.559C167.737 33.9857 167.171 34.263 166.531 34.391C165.891 34.519 165.273 34.4763 164.675 34.263C164.078 34.0497 163.577 33.6337 163.171 33.015C162.787 32.375 162.595 31.5003 162.595 30.391C162.595 29.815 162.563 29.3137 162.499 28.887C162.457 28.439 162.329 28.0763 162.115 27.799C161.923 27.5003 161.614 27.2763 161.187 27.127C160.782 26.9563 160.217 26.8603 159.491 26.839C158.787 26.7963 157.87 26.807 156.739 26.871V34.167H152.867ZM156.739 24.119H159.459C160.483 24.119 161.315 24.087 161.955 24.023C162.617 23.959 163.107 23.767 163.427 23.447C163.747 23.127 163.907 22.5937 163.907 21.847C163.907 20.9723 163.715 20.3643 163.331 20.023C162.947 19.6603 162.382 19.447 161.635 19.383C160.889 19.319 159.961 19.287 158.851 19.287H156.739V24.119ZM186.896 16.151H190.992L188.944 21.047L186.672 34.167H180.464L176.528 16.151H180.624L183.536 32.567L186.896 16.151ZM197.2 16.151H201.296L197.488 34.167H191.28L188.944 21.047L186.832 16.151H190.992L194.384 32.567L197.2 16.151ZM211.521 34.615C208.577 34.615 206.327 33.7723 204.769 32.087C203.212 30.3803 202.433 28.087 202.433 25.207C202.433 23.3083 202.764 21.6657 203.425 20.279C204.108 18.871 205.121 17.783 206.465 17.015C207.809 16.2257 209.495 15.831 211.521 15.831C214.487 15.831 216.737 16.6843 218.273 18.391C219.809 20.0763 220.577 22.3483 220.577 25.207C220.577 27.063 220.236 28.7057 219.553 30.135C218.871 31.543 217.857 32.6417 216.513 33.431C215.169 34.2203 213.505 34.615 211.521 34.615ZM211.457 30.871C212.652 30.871 213.644 30.6257 214.433 30.135C215.223 29.6443 215.809 28.9723 216.193 28.119C216.577 27.2443 216.769 26.2737 216.769 25.207C216.769 24.1403 216.577 23.1697 216.193 22.295C215.809 21.4203 215.223 20.727 214.433 20.215C213.665 19.703 212.673 19.447 211.457 19.447C209.751 19.447 208.439 19.9803 207.521 21.047C206.625 22.1137 206.177 23.5003 206.177 25.207C206.177 26.2523 206.369 27.2123 206.753 28.087C207.159 28.9403 207.745 29.623 208.513 30.135C209.281 30.6257 210.263 30.871 211.457 30.871ZM223.305 34.167V16.151H230.281C231.859 16.151 233.203 16.3323 234.313 16.695C235.422 17.0363 236.275 17.6017 236.873 18.391C237.491 19.159 237.801 20.2043 237.801 21.527C237.801 22.551 237.641 23.4363 237.321 24.183C237.001 24.9297 236.531 25.5057 235.913 25.911C235.315 26.3163 234.601 26.519 233.769 26.519C234.345 26.519 234.793 26.6363 235.113 26.871C235.433 27.0843 235.678 27.383 235.849 27.767C236.019 28.1297 236.137 28.5137 236.201 28.919C236.286 29.3243 236.361 29.719 236.425 30.103C236.51 30.487 236.617 30.8177 236.745 31.095C236.894 31.351 237.118 31.5217 237.417 31.607C237.715 31.671 238.131 31.5963 238.665 31.383V33.559C238.174 33.9857 237.609 34.263 236.969 34.391C236.329 34.519 235.71 34.4763 235.113 34.263C234.515 34.0497 234.014 33.6337 233.609 33.015C233.225 32.375 233.033 31.5003 233.033 30.391C233.033 29.815 233.001 29.3137 232.937 28.887C232.894 28.439 232.766 28.0763 232.553 27.799C232.361 27.5003 232.051 27.2763 231.625 27.127C231.219 26.9563 230.654 26.8603 229.929 26.839C229.225 26.7963 228.307 26.807 227.177 26.871V34.167H223.305ZM227.177 24.119H229.897C230.921 24.119 231.753 24.087 232.393 24.023C233.054 23.959 233.545 23.767 233.865 23.447C234.185 23.127 234.345 22.5937 234.345 21.847C234.345 20.9723 234.153 20.3643 233.769 20.023C233.385 19.6603 232.819 19.447 232.073 19.383C231.326 19.319 230.398 19.287 229.289 19.287H227.177V24.119ZM249.014 16.727V34.167H245.142V16.727H249.014ZM240.054 19.447V16.151H254.134V19.447H240.054ZM260.427 34.167H256.555V16.151H260.427V34.167ZM268.171 16.151H272.011V34.167H268.171V16.151ZM270.571 26.519H258.283V23.575H270.571V26.519Z" fill="white"/>
<path d="M12.025 66.599V62.311L19.353 54.151H24.377V54.535L12.025 66.599ZM8.28097 72.167V54.151H12.121V72.167H8.28097ZM20.345 72.167L13.977 62.919L16.761 60.199L24.761 71.783V72.167H20.345ZM39.1232 54.151H43.1552V72.167H35.7632L30.9952 55.847H30.9312V72.167H26.9312V54.151H33.7792L39.0592 70.471H39.1232V54.151ZM54.5525 72.615C51.6085 72.615 49.3578 71.7723 47.8005 70.087C46.2431 68.3803 45.4645 66.087 45.4645 63.207C45.4645 61.3083 45.7951 59.6657 46.4565 58.279C47.1391 56.871 48.1525 55.783 49.4965 55.015C50.8405 54.2257 52.5258 53.831 54.5525 53.831C57.5178 53.831 59.7685 54.6843 61.3045 56.391C62.8405 58.0763 63.6085 60.3483 63.6085 63.207C63.6085 65.063 63.2671 66.7057 62.5845 68.135C61.9018 69.543 60.8885 70.6417 59.5445 71.431C58.2005 72.2203 56.5365 72.615 54.5525 72.615ZM54.4885 68.871C55.6831 68.871 56.6751 68.6257 57.4645 68.135C58.2538 67.6443 58.8405 66.9723 59.2245 66.119C59.6085 65.2443 59.8005 64.2737 59.8005 63.207C59.8005 62.1403 59.6085 61.1697 59.2245 60.295C58.8405 59.4203 58.2538 58.727 57.4645 58.215C56.6965 57.703 55.7045 57.447 54.4885 57.447C52.7818 57.447 51.4698 57.9803 50.5525 59.047C49.6565 60.1137 49.2085 61.5003 49.2085 63.207C49.2085 64.2523 49.4005 65.2123 49.7845 66.087C50.1898 66.9403 50.7765 67.623 51.5445 68.135C52.3125 68.6257 53.2938 68.871 54.4885 68.871ZM75.552 54.151H79.648L77.6 59.047L75.328 72.167H69.12L65.184 54.151H69.28L72.192 70.567L75.552 54.151ZM85.856 54.151H89.952L86.144 72.167H79.936L77.6 59.047L75.488 54.151H79.648L83.04 70.567L85.856 54.151ZM102.609 65.895L96.465 54.151H100.817L104.593 62.567L108.401 54.151H112.721L106.449 65.895H102.609ZM102.609 72.167V65.479H106.449V72.167H102.609ZM121.427 72.615C118.483 72.615 116.233 71.7723 114.675 70.087C113.118 68.3803 112.339 66.087 112.339 63.207C112.339 61.3083 112.67 59.6657 113.331 58.279C114.014 56.871 115.027 55.783 116.371 55.015C117.715 54.2257 119.401 53.831 121.427 53.831C124.393 53.831 126.643 54.6843 128.179 56.391C129.715 58.0763 130.483 60.3483 130.483 63.207C130.483 65.063 130.142 66.7057 129.459 68.135C128.777 69.543 127.763 70.6417 126.419 71.431C125.075 72.2203 123.411 72.615 121.427 72.615ZM121.363 68.871C122.558 68.871 123.55 68.6257 124.339 68.135C125.129 67.6443 125.715 66.9723 126.099 66.119C126.483 65.2443 126.675 64.2737 126.675 63.207C126.675 62.1403 126.483 61.1697 126.099 60.295C125.715 59.4203 125.129 58.727 124.339 58.215C123.571 57.703 122.579 57.447 121.363 57.447C119.657 57.447 118.345 57.9803 117.427 59.047C116.531 60.1137 116.083 61.5003 116.083 63.207C116.083 64.2523 116.275 65.2123 116.659 66.087C117.065 66.9403 117.651 67.623 118.419 68.135C119.187 68.6257 120.169 68.871 121.363 68.871ZM141.524 72.615C138.9 72.615 136.906 71.911 135.54 70.503C134.196 69.0737 133.524 67.0683 133.524 64.487V54.151H137.652V64.455C137.652 65.3937 137.77 66.1617 138.004 66.759C138.26 67.335 138.58 67.783 138.964 68.103C139.348 68.423 139.764 68.647 140.212 68.775C140.66 68.8817 141.098 68.935 141.524 68.935C142.164 68.935 142.783 68.8283 143.38 68.615C143.978 68.4017 144.468 67.975 144.852 67.335C145.236 66.6737 145.428 65.7137 145.428 64.455V54.151H149.556V64.487C149.556 67.111 148.884 69.127 147.54 70.535C146.218 71.9217 144.212 72.615 141.524 72.615ZM152.867 72.167V54.151H159.843C161.422 54.151 162.766 54.3323 163.875 54.695C164.985 55.0363 165.838 55.6017 166.435 56.391C167.054 57.159 167.363 58.2043 167.363 59.527C167.363 60.551 167.203 61.4363 166.883 62.183C166.563 62.9297 166.094 63.5057 165.475 63.911C164.878 64.3163 164.163 64.519 163.331 64.519C163.907 64.519 164.355 64.6363 164.675 64.871C164.995 65.0843 165.241 65.383 165.411 65.767C165.582 66.1297 165.699 66.5137 165.763 66.919C165.849 67.3243 165.923 67.719 165.987 68.103C166.073 68.487 166.179 68.8177 166.307 69.095C166.457 69.351 166.681 69.5217 166.979 69.607C167.278 69.671 167.694 69.5963 168.227 69.383V71.559C167.737 71.9857 167.171 72.263 166.531 72.391C165.891 72.519 165.273 72.4763 164.675 72.263C164.078 72.0497 163.577 71.6337 163.171 71.015C162.787 70.375 162.595 69.5003 162.595 68.391C162.595 67.815 162.563 67.3137 162.499 66.887C162.457 66.439 162.329 66.0763 162.115 65.799C161.923 65.5003 161.614 65.2763 161.187 65.127C160.782 64.9563 160.217 64.8603 159.491 64.839C158.787 64.7963 157.87 64.807 156.739 64.871V72.167H152.867ZM156.739 62.119H159.459C160.483 62.119 161.315 62.087 161.955 62.023C162.617 61.959 163.107 61.767 163.427 61.447C163.747 61.127 163.907 60.5937 163.907 59.847C163.907 58.9723 163.715 58.3643 163.331 58.023C162.947 57.6603 162.382 57.447 161.635 57.383C160.889 57.319 159.961 57.287 158.851 57.287H156.739V62.119ZM186.896 54.151H190.992L188.944 59.047L186.672 72.167H180.464L176.528 54.151H180.624L183.536 70.567L186.896 54.151ZM197.2 54.151H201.296L197.488 72.167H191.28L188.944 59.047L186.832 54.151H190.992L194.384 70.567L197.2 54.151ZM211.521 72.615C208.577 72.615 206.327 71.7723 204.769 70.087C203.212 68.3803 202.433 66.087 202.433 63.207C202.433 61.3083 202.764 59.6657 203.425 58.279C204.108 56.871 205.121 55.783 206.465 55.015C207.809 54.2257 209.495 53.831 211.521 53.831C214.487 53.831 216.737 54.6843 218.273 56.391C219.809 58.0763 220.577 60.3483 220.577 63.207C220.577 65.063 220.236 66.7057 219.553 68.135C218.871 69.543 217.857 70.6417 216.513 71.431C215.169 72.2203 213.505 72.615 211.521 72.615ZM211.457 68.871C212.652 68.871 213.644 68.6257 214.433 68.135C215.223 67.6443 215.809 66.9723 216.193 66.119C216.577 65.2443 216.769 64.2737 216.769 63.207C216.769 62.1403 216.577 61.1697 216.193 60.295C215.809 59.4203 215.223 58.727 214.433 58.215C213.665 57.703 212.673 57.447 211.457 57.447C209.751 57.447 208.439 57.9803 207.521 59.047C206.625 60.1137 206.177 61.5003 206.177 63.207C206.177 64.2523 206.369 65.2123 206.753 66.087C207.159 66.9403 207.745 67.623 208.513 68.135C209.281 68.6257 210.263 68.871 211.457 68.871ZM223.305 72.167V54.151H230.281C231.859 54.151 233.203 54.3323 234.313 54.695C235.422 55.0363 236.275 55.6017 236.873 56.391C237.491 57.159 237.801 58.2043 237.801 59.527C237.801 60.551 237.641 61.4363 237.321 62.183C237.001 62.9297 236.531 63.5057 235.913 63.911C235.315 64.3163 234.601 64.519 233.769 64.519C234.345 64.519 234.793 64.6363 235.113 64.871C235.433 65.0843 235.678 65.383 235.849 65.767C236.019 66.1297 236.137 66.5137 236.201 66.919C236.286 67.3243 236.361 67.719 236.425 68.103C236.51 68.487 236.617 68.8177 236.745 69.095C236.894 69.351 237.118 69.5217 237.417 69.607C237.715 69.671 238.131 69.5963 238.665 69.383V71.559C238.174 71.9857 237.609 72.263 236.969 72.391C236.329 72.519 235.71 72.4763 235.113 72.263C234.515 72.0497 234.014 71.6337 233.609 71.015C233.225 70.375 233.033 69.5003 233.033 68.391C233.033 67.815 233.001 67.3137 232.937 66.887C232.894 66.439 232.766 66.0763 232.553 65.799C232.361 65.5003 232.051 65.2763 231.625 65.127C231.219 64.9563 230.654 64.8603 229.929 64.839C229.225 64.7963 228.307 64.807 227.177 64.871V72.167H223.305ZM227.177 62.119H229.897C230.921 62.119 231.753 62.087 232.393 62.023C233.054 61.959 233.545 61.767 233.865 61.447C234.185 61.127 234.345 60.5937 234.345 59.847C234.345 58.9723 234.153 58.3643 233.769 58.023C233.385 57.6603 232.819 57.447 232.073 57.383C231.326 57.319 230.398 57.287 229.289 57.287H227.177V62.119ZM249.014 54.727V72.167H245.142V54.727H249.014ZM240.054 57.447V54.151H254.134V57.447H240.054ZM260.427 72.167H256.555V54.151H260.427V72.167ZM268.171 54.151H272.011V72.167H268.171V54.151ZM270.571 64.519H258.283V61.575H270.571V64.519Z" fill="white" fill-opacity="0.9"/>
<path d="M12.025 104.599V100.311L19.353 92.151H24.377V92.535L12.025 104.599ZM8.28097 110.167V92.151H12.121V110.167H8.28097ZM20.345 110.167L13.977 100.919L16.761 98.199L24.761 109.783V110.167H20.345ZM39.1232 92.151H43.1552V110.167H35.7632L30.9952 93.847H30.9312V110.167H26.9312V92.151H33.7792L39.0592 108.471H39.1232V92.151ZM54.5525 110.615C51.6085 110.615 49.3578 109.772 47.8005 108.087C46.2431 106.38 45.4645 104.087 45.4645 101.207C45.4645 99.3083 45.7951 97.6657 46.4565 96.279C47.1391 94.871 48.1525 93.783 49.4965 93.015C50.8405 92.2257 52.5258 91.831 54.5525 91.831C57.5178 91.831 59.7685 92.6843 61.3045 94.391C62.8405 96.0763 63.6085 98.3483 63.6085 101.207C63.6085 103.063 63.2671 104.706 62.5845 106.135C61.9018 107.543 60.8885 108.642 59.5445 109.431C58.2005 110.22 56.5365 110.615 54.5525 110.615ZM54.4885 106.871C55.6831 106.871 56.6751 106.626 57.4645 106.135C58.2538 105.644 58.8405 104.972 59.2245 104.119C59.6085 103.244 59.8005 102.274 59.8005 101.207C59.8005 100.14 59.6085 99.1697 59.2245 98.295C58.8405 97.4203 58.2538 96.727 57.4645 96.215C56.6965 95.703 55.7045 95.447 54.4885 95.447C52.7818 95.447 51.4698 95.9803 50.5525 97.047C49.6565 98.1137 49.2085 99.5003 49.2085 101.207C49.2085 102.252 49.4005 103.212 49.7845 104.087C50.1898 104.94 50.7765 105.623 51.5445 106.135C52.3125 106.626 53.2938 106.871 54.4885 106.871ZM75.552 92.151H79.648L77.6 97.047L75.328 110.167H69.12L65.184 92.151H69.28L72.192 108.567L75.552 92.151ZM85.856 92.151H89.952L86.144 110.167H79.936L77.6 97.047L75.488 92.151H79.648L83.04 108.567L85.856 92.151ZM102.609 103.895L96.465 92.151H100.817L104.593 100.567L108.401 92.151H112.721L106.449 103.895H102.609ZM102.609 110.167V103.479H106.449V110.167H102.609ZM121.427 110.615C118.483 110.615 116.233 109.772 114.675 108.087C113.118 106.38 112.339 104.087 112.339 101.207C112.339 99.3083 112.67 97.6657 113.331 96.279C114.014 94.871 115.027 93.783 116.371 93.015C117.715 92.2257 119.401 91.831 121.427 91.831C124.393 91.831 126.643 92.6843 128.179 94.391C129.715 96.0763 130.483 98.3483 130.483 101.207C130.483 103.063 130.142 104.706 129.459 106.135C128.777 107.543 127.763 108.642 126.419 109.431C125.075 110.22 123.411 110.615 121.427 110.615ZM121.363 106.871C122.558 106.871 123.55 106.626 124.339 106.135C125.129 105.644 125.715 104.972 126.099 104.119C126.483 103.244 126.675 102.274 126.675 101.207C126.675 100.14 126.483 99.1697 126.099 98.295C125.715 97.4203 125.129 96.727 124.339 96.215C123.571 95.703 122.579 95.447 121.363 95.447C119.657 95.447 118.345 95.9803 117.427 97.047C116.531 98.1137 116.083 99.5003 116.083 101.207C116.083 102.252 116.275 103.212 116.659 104.087C117.065 104.94 117.651 105.623 118.419 106.135C119.187 106.626 120.169 106.871 121.363 106.871ZM141.524 110.615C138.9 110.615 136.906 109.911 135.54 108.503C134.196 107.074 133.524 105.068 133.524 102.487V92.151H137.652V102.455C137.652 103.394 137.77 104.162 138.004 104.759C138.26 105.335 138.58 105.783 138.964 106.103C139.348 106.423 139.764 106.647 140.212 106.775C140.66 106.882 141.098 106.935 141.524 106.935C142.164 106.935 142.783 106.828 143.38 106.615C143.978 106.402 144.468 105.975 144.852 105.335C145.236 104.674 145.428 103.714 145.428 102.455V92.151H149.556V102.487C149.556 105.111 148.884 107.127 147.54 108.535C146.218 109.922 144.212 110.615 141.524 110.615ZM152.867 110.167V92.151H159.843C161.422 92.151 162.766 92.3323 163.875 92.695C164.985 93.0363 165.838 93.6017 166.435 94.391C167.054 95.159 167.363 96.2043 167.363 97.527C167.363 98.551 167.203 99.4363 166.883 100.183C166.563 100.93 166.094 101.506 165.475 101.911C164.878 102.316 164.163 102.519 163.331 102.519C163.907 102.519 164.355 102.636 164.675 102.871C164.995 103.084 165.241 103.383 165.411 103.767C165.582 104.13 165.699 104.514 165.763 104.919C165.849 105.324 165.923 105.719 165.987 106.103C166.073 106.487 166.179 106.818 166.307 107.095C166.457 107.351 166.681 107.522 166.979 107.607C167.278 107.671 167.694 107.596 168.227 107.383V109.559C167.737 109.986 167.171 110.263 166.531 110.391C165.891 110.519 165.273 110.476 164.675 110.263C164.078 110.05 163.577 109.634 163.171 109.015C162.787 108.375 162.595 107.5 162.595 106.391C162.595 105.815 162.563 105.314 162.499 104.887C162.457 104.439 162.329 104.076 162.115 103.799C161.923 103.5 161.614 103.276 161.187 103.127C160.782 102.956 160.217 102.86 159.491 102.839C158.787 102.796 157.87 102.807 156.739 102.871V110.167H152.867ZM156.739 100.119H159.459C160.483 100.119 161.315 100.087 161.955 100.023C162.617 99.959 163.107 99.767 163.427 99.447C163.747 99.127 163.907 98.5937 163.907 97.847C163.907 96.9723 163.715 96.3643 163.331 96.023C162.947 95.6603 162.382 95.447 161.635 95.383C160.889 95.319 159.961 95.287 158.851 95.287H156.739V100.119ZM186.896 92.151H190.992L188.944 97.047L186.672 110.167H180.464L176.528 92.151H180.624L183.536 108.567L186.896 92.151ZM197.2 92.151H201.296L197.488 110.167H191.28L188.944 97.047L186.832 92.151H190.992L194.384 108.567L197.2 92.151ZM211.521 110.615C208.577 110.615 206.327 109.772 204.769 108.087C203.212 106.38 202.433 104.087 202.433 101.207C202.433 99.3083 202.764 97.6657 203.425 96.279C204.108 94.871 205.121 93.783 206.465 93.015C207.809 92.2257 209.495 91.831 211.521 91.831C214.487 91.831 216.737 92.6843 218.273 94.391C219.809 96.0763 220.577 98.3483 220.577 101.207C220.577 103.063 220.236 104.706 219.553 106.135C218.871 107.543 217.857 108.642 216.513 109.431C215.169 110.22 213.505 110.615 211.521 110.615ZM211.457 106.871C212.652 106.871 213.644 106.626 214.433 106.135C215.223 105.644 215.809 104.972 216.193 104.119C216.577 103.244 216.769 102.274 216.769 101.207C216.769 100.14 216.577 99.1697 216.193 98.295C215.809 97.4203 215.223 96.727 214.433 96.215C213.665 95.703 212.673 95.447 211.457 95.447C209.751 95.447 208.439 95.9803 207.521 97.047C206.625 98.1137 206.177 99.5003 206.177 101.207C206.177 102.252 206.369 103.212 206.753 104.087C207.159 104.94 207.745 105.623 208.513 106.135C209.281 106.626 210.263 106.871 211.457 106.871ZM223.305 110.167V92.151H230.281C231.859 92.151 233.203 92.3323 234.313 92.695C235.422 93.0363 236.275 93.6017 236.873 94.391C237.491 95.159 237.801 96.2043 237.801 97.527C237.801 98.551 237.641 99.4363 237.321 100.183C237.001 100.93 236.531 101.506 235.913 101.911C235.315 102.316 234.601 102.519 233.769 102.519C234.345 102.519 234.793 102.636 235.113 102.871C235.433 103.084 235.678 103.383 235.849 103.767C236.019 104.13 236.137 104.514 236.201 104.919C236.286 105.324 236.361 105.719 236.425 106.103C236.51 106.487 236.617 106.818 236.745 107.095C236.894 107.351 237.118 107.522 237.417 107.607C237.715 107.671 238.131 107.596 238.665 107.383V109.559C238.174 109.986 237.609 110.263 236.969 110.391C236.329 110.519 235.71 110.476 235.113 110.263C234.515 110.05 234.014 109.634 233.609 109.015C233.225 108.375 233.033 107.5 233.033 106.391C233.033 105.815 233.001 105.314 232.937 104.887C232.894 104.439 232.766 104.076 232.553 103.799C232.361 103.5 232.051 103.276 231.625 103.127C231.219 102.956 230.654 102.86 229.929 102.839C229.225 102.796 228.307 102.807 227.177 102.871V110.167H223.305ZM227.177 100.119H229.897C230.921 100.119 231.753 100.087 232.393 100.023C233.054 99.959 233.545 99.767 233.865 99.447C234.185 99.127 234.345 98.5937 234.345 97.847C234.345 96.9723 234.153 96.3643 233.769 96.023C233.385 95.6603 232.819 95.447 232.073 95.383C231.326 95.319 230.398 95.287 229.289 95.287H227.177V100.119ZM249.014 92.727V110.167H245.142V92.727H249.014ZM240.054 95.447V92.151H254.134V95.447H240.054ZM260.427 110.167H256.555V92.151H260.427V110.167ZM268.171 92.151H272.011V110.167H268.171V92.151ZM270.571 102.519H258.283V99.575H270.571V102.519Z" fill="white" fill-opacity="0.7"/>
<path d="M12.025 142.599V138.311L19.353 130.151H24.377V130.535L12.025 142.599ZM8.28097 148.167V130.151H12.121V148.167H8.28097ZM20.345 148.167L13.977 138.919L16.761 136.199L24.761 147.783V148.167H20.345ZM39.1232 130.151H43.1552V148.167H35.7632L30.9952 131.847H30.9312V148.167H26.9312V130.151H33.7792L39.0592 146.471H39.1232V130.151ZM54.5525 148.615C51.6085 148.615 49.3578 147.772 47.8005 146.087C46.2431 144.38 45.4645 142.087 45.4645 139.207C45.4645 137.308 45.7951 135.666 46.4565 134.279C47.1391 132.871 48.1525 131.783 49.4965 131.015C50.8405 130.226 52.5258 129.831 54.5525 129.831C57.5178 129.831 59.7685 130.684 61.3045 132.391C62.8405 134.076 63.6085 136.348 63.6085 139.207C63.6085 141.063 63.2671 142.706 62.5845 144.135C61.9018 145.543 60.8885 146.642 59.5445 147.431C58.2005 148.22 56.5365 148.615 54.5525 148.615ZM54.4885 144.871C55.6831 144.871 56.6751 144.626 57.4645 144.135C58.2538 143.644 58.8405 142.972 59.2245 142.119C59.6085 141.244 59.8005 140.274 59.8005 139.207C59.8005 138.14 59.6085 137.17 59.2245 136.295C58.8405 135.42 58.2538 134.727 57.4645 134.215C56.6965 133.703 55.7045 133.447 54.4885 133.447C52.7818 133.447 51.4698 133.98 50.5525 135.047C49.6565 136.114 49.2085 137.5 49.2085 139.207C49.2085 140.252 49.4005 141.212 49.7845 142.087C50.1898 142.94 50.7765 143.623 51.5445 144.135C52.3125 144.626 53.2938 144.871 54.4885 144.871ZM75.552 130.151H79.648L77.6 135.047L75.328 148.167H69.12L65.184 130.151H69.28L72.192 146.567L75.552 130.151ZM85.856 130.151H89.952L86.144 148.167H79.936L77.6 135.047L75.488 130.151H79.648L83.04 146.567L85.856 130.151ZM102.609 141.895L96.465 130.151H100.817L104.593 138.567L108.401 130.151H112.721L106.449 141.895H102.609ZM102.609 148.167V141.479H106.449V148.167H102.609ZM121.427 148.615C118.483 148.615 116.233 147.772 114.675 146.087C113.118 144.38 112.339 142.087 112.339 139.207C112.339 137.308 112.67 135.666 113.331 134.279C114.014 132.871 115.027 131.783 116.371 131.015C117.715 130.226 119.401 129.831 121.427 129.831C124.393 129.831 126.643 130.684 128.179 132.391C129.715 134.076 130.483 136.348 130.483 139.207C130.483 141.063 130.142 142.706 129.459 144.135C128.777 145.543 127.763 146.642 126.419 147.431C125.075 148.22 123.411 148.615 121.427 148.615ZM121.363 144.871C122.558 144.871 123.55 144.626 124.339 144.135C125.129 143.644 125.715 142.972 126.099 142.119C126.483 141.244 126.675 140.274 126.675 139.207C126.675 138.14 126.483 137.17 126.099 136.295C125.715 135.42 125.129 134.727 124.339 134.215C123.571 133.703 122.579 133.447 121.363 133.447C119.657 133.447 118.345 133.98 117.427 135.047C116.531 136.114 116.083 137.5 116.083 139.207C116.083 140.252 116.275 141.212 116.659 142.087C117.065 142.94 117.651 143.623 118.419 144.135C119.187 144.626 120.169 144.871 121.363 144.871ZM141.524 148.615C138.9 148.615 136.906 147.911 135.54 146.503C134.196 145.074 133.524 143.068 133.524 140.487V130.151H137.652V140.455C137.652 141.394 137.77 142.162 138.004 142.759C138.26 143.335 138.58 143.783 138.964 144.103C139.348 144.423 139.764 144.647 140.212 144.775C140.66 144.882 141.098 144.935 141.524 144.935C142.164 144.935 142.783 144.828 143.38 144.615C143.978 144.402 144.468 143.975 144.852 143.335C145.236 142.674 145.428 141.714 145.428 140.455V130.151H149.556V140.487C149.556 143.111 148.884 145.127 147.54 146.535C146.218 147.922 144.212 148.615 141.524 148.615ZM152.867 148.167V130.151H159.843C161.422 130.151 162.766 130.332 163.875 130.695C164.985 131.036 165.838 131.602 166.435 132.391C167.054 133.159 167.363 134.204 167.363 135.527C167.363 136.551 167.203 137.436 166.883 138.183C166.563 138.93 166.094 139.506 165.475 139.911C164.878 140.316 164.163 140.519 163.331 140.519C163.907 140.519 164.355 140.636 164.675 140.871C164.995 141.084 165.241 141.383 165.411 141.767C165.582 142.13 165.699 142.514 165.763 142.919C165.849 143.324 165.923 143.719 165.987 144.103C166.073 144.487 166.179 144.818 166.307 145.095C166.457 145.351 166.681 145.522 166.979 145.607C167.278 145.671 167.694 145.596 168.227 145.383V147.559C167.737 147.986 167.171 148.263 166.531 148.391C165.891 148.519 165.273 148.476 164.675 148.263C164.078 148.05 163.577 147.634 163.171 147.015C162.787 146.375 162.595 145.5 162.595 144.391C162.595 143.815 162.563 143.314 162.499 142.887C162.457 142.439 162.329 142.076 162.115 141.799C161.923 141.5 161.614 141.276 161.187 141.127C160.782 140.956 160.217 140.86 159.491 140.839C158.787 140.796 157.87 140.807 156.739 140.871V148.167H152.867ZM156.739 138.119H159.459C160.483 138.119 161.315 138.087 161.955 138.023C162.617 137.959 163.107 137.767 163.427 137.447C163.747 137.127 163.907 136.594 163.907 135.847C163.907 134.972 163.715 134.364 163.331 134.023C162.947 133.66 162.382 133.447 161.635 133.383C160.889 133.319 159.961 133.287 158.851 133.287H156.739V138.119ZM186.896 130.151H190.992L188.944 135.047L186.672 148.167H180.464L176.528 130.151H180.624L183.536 146.567L186.896 130.151ZM197.2 130.151H201.296L197.488 148.167H191.28L188.944 135.047L186.832 130.151H190.992L194.384 146.567L197.2 130.151ZM211.521 148.615C208.577 148.615 206.327 147.772 204.769 146.087C203.212 144.38 202.433 142.087 202.433 139.207C202.433 137.308 202.764 135.666 203.425 134.279C204.108 132.871 205.121 131.783 206.465 131.015C207.809 130.226 209.495 129.831 211.521 129.831C214.487 129.831 216.737 130.684 218.273 132.391C219.809 134.076 220.577 136.348 220.577 139.207C220.577 141.063 220.236 142.706 219.553 144.135C218.871 145.543 217.857 146.642 216.513 147.431C215.169 148.22 213.505 148.615 211.521 148.615ZM211.457 144.871C212.652 144.871 213.644 144.626 214.433 144.135C215.223 143.644 215.809 142.972 216.193 142.119C216.577 141.244 216.769 140.274 216.769 139.207C216.769 138.14 216.577 137.17 216.193 136.295C215.809 135.42 215.223 134.727 214.433 134.215C213.665 133.703 212.673 133.447 211.457 133.447C209.751 133.447 208.439 133.98 207.521 135.047C206.625 136.114 206.177 137.5 206.177 139.207C206.177 140.252 206.369 141.212 206.753 142.087C207.159 142.94 207.745 143.623 208.513 144.135C209.281 144.626 210.263 144.871 211.457 144.871ZM223.305 148.167V130.151H230.281C231.859 130.151 233.203 130.332 234.313 130.695C235.422 131.036 236.275 131.602 236.873 132.391C237.491 133.159 237.801 134.204 237.801 135.527C237.801 136.551 237.641 137.436 237.321 138.183C237.001 138.93 236.531 139.506 235.913 139.911C235.315 140.316 234.601 140.519 233.769 140.519C234.345 140.519 234.793 140.636 235.113 140.871C235.433 141.084 235.678 141.383 235.849 141.767C236.019 142.13 236.137 142.514 236.201 142.919C236.286 143.324 236.361 143.719 236.425 144.103C236.51 144.487 236.617 144.818 236.745 145.095C236.894 145.351 237.118 145.522 237.417 145.607C237.715 145.671 238.131 145.596 238.665 145.383V147.559C238.174 147.986 237.609 148.263 236.969 148.391C236.329 148.519 235.71 148.476 235.113 148.263C234.515 148.05 234.014 147.634 233.609 147.015C233.225 146.375 233.033 145.5 233.033 144.391C233.033 143.815 233.001 143.314 232.937 142.887C232.894 142.439 232.766 142.076 232.553 141.799C232.361 141.5 232.051 141.276 231.625 141.127C231.219 140.956 230.654 140.86 229.929 140.839C229.225 140.796 228.307 140.807 227.177 140.871V148.167H223.305ZM227.177 138.119H229.897C230.921 138.119 231.753 138.087 232.393 138.023C233.054 137.959 233.545 137.767 233.865 137.447C234.185 137.127 234.345 136.594 234.345 135.847C234.345 134.972 234.153 134.364 233.769 134.023C233.385 133.66 232.819 133.447 232.073 133.383C231.326 133.319 230.398 133.287 229.289 133.287H227.177V138.119ZM249.014 130.727V148.167H245.142V130.727H249.014ZM240.054 133.447V130.151H254.134V133.447H240.054ZM260.427 148.167H256.555V130.151H260.427V148.167ZM268.171 130.151H272.011V148.167H268.171V130.151ZM270.571 140.519H258.283V137.575H270.571V140.519Z" fill="white" fill-opacity="0.4"/>
<path d="M12.025 180.599V176.311L19.353 168.151H24.377V168.535L12.025 180.599ZM8.28097 186.167V168.151H12.121V186.167H8.28097ZM20.345 186.167L13.977 176.919L16.761 174.199L24.761 185.783V186.167H20.345ZM39.1232 168.151H43.1552V186.167H35.7632L30.9952 169.847H30.9312V186.167H26.9312V168.151H33.7792L39.0592 184.471H39.1232V168.151ZM54.5525 186.615C51.6085 186.615 49.3578 185.772 47.8005 184.087C46.2431 182.38 45.4645 180.087 45.4645 177.207C45.4645 175.308 45.7951 173.666 46.4565 172.279C47.1391 170.871 48.1525 169.783 49.4965 169.015C50.8405 168.226 52.5258 167.831 54.5525 167.831C57.5178 167.831 59.7685 168.684 61.3045 170.391C62.8405 172.076 63.6085 174.348 63.6085 177.207C63.6085 179.063 63.2671 180.706 62.5845 182.135C61.9018 183.543 60.8885 184.642 59.5445 185.431C58.2005 186.22 56.5365 186.615 54.5525 186.615ZM54.4885 182.871C55.6831 182.871 56.6751 182.626 57.4645 182.135C58.2538 181.644 58.8405 180.972 59.2245 180.119C59.6085 179.244 59.8005 178.274 59.8005 177.207C59.8005 176.14 59.6085 175.17 59.2245 174.295C58.8405 173.42 58.2538 172.727 57.4645 172.215C56.6965 171.703 55.7045 171.447 54.4885 171.447C52.7818 171.447 51.4698 171.98 50.5525 173.047C49.6565 174.114 49.2085 175.5 49.2085 177.207C49.2085 178.252 49.4005 179.212 49.7845 180.087C50.1898 180.94 50.7765 181.623 51.5445 182.135C52.3125 182.626 53.2938 182.871 54.4885 182.871ZM75.552 168.151H79.648L77.6 173.047L75.328 186.167H69.12L65.184 168.151H69.28L72.192 184.567L75.552 168.151ZM85.856 168.151H89.952L86.144 186.167H79.936L77.6 173.047L75.488 168.151H79.648L83.04 184.567L85.856 168.151ZM102.609 179.895L96.465 168.151H100.817L104.593 176.567L108.401 168.151H112.721L106.449 179.895H102.609ZM102.609 186.167V179.479H106.449V186.167H102.609ZM121.427 186.615C118.483 186.615 116.233 185.772 114.675 184.087C113.118 182.38 112.339 180.087 112.339 177.207C112.339 175.308 112.67 173.666 113.331 172.279C114.014 170.871 115.027 169.783 116.371 169.015C117.715 168.226 119.401 167.831 121.427 167.831C124.393 167.831 126.643 168.684 128.179 170.391C129.715 172.076 130.483 174.348 130.483 177.207C130.483 179.063 130.142 180.706 129.459 182.135C128.777 183.543 127.763 184.642 126.419 185.431C125.075 186.22 123.411 186.615 121.427 186.615ZM121.363 182.871C122.558 182.871 123.55 182.626 124.339 182.135C125.129 181.644 125.715 180.972 126.099 180.119C126.483 179.244 126.675 178.274 126.675 177.207C126.675 176.14 126.483 175.17 126.099 174.295C125.715 173.42 125.129 172.727 124.339 172.215C123.571 171.703 122.579 171.447 121.363 171.447C119.657 171.447 118.345 171.98 117.427 173.047C116.531 174.114 116.083 175.5 116.083 177.207C116.083 178.252 116.275 179.212 116.659 180.087C117.065 180.94 117.651 181.623 118.419 182.135C119.187 182.626 120.169 182.871 121.363 182.871ZM141.524 186.615C138.9 186.615 136.906 185.911 135.54 184.503C134.196 183.074 133.524 181.068 133.524 178.487V168.151H137.652V178.455C137.652 179.394 137.77 180.162 138.004 180.759C138.26 181.335 138.58 181.783 138.964 182.103C139.348 182.423 139.764 182.647 140.212 182.775C140.66 182.882 141.098 182.935 141.524 182.935C142.164 182.935 142.783 182.828 143.38 182.615C143.978 182.402 144.468 181.975 144.852 181.335C145.236 180.674 145.428 179.714 145.428 178.455V168.151H149.556V178.487C149.556 181.111 148.884 183.127 147.54 184.535C146.218 185.922 144.212 186.615 141.524 186.615ZM152.867 186.167V168.151H159.843C161.422 168.151 162.766 168.332 163.875 168.695C164.985 169.036 165.838 169.602 166.435 170.391C167.054 171.159 167.363 172.204 167.363 173.527C167.363 174.551 167.203 175.436 166.883 176.183C166.563 176.93 166.094 177.506 165.475 177.911C164.878 178.316 164.163 178.519 163.331 178.519C163.907 178.519 164.355 178.636 164.675 178.871C164.995 179.084 165.241 179.383 165.411 179.767C165.582 180.13 165.699 180.514 165.763 180.919C165.849 181.324 165.923 181.719 165.987 182.103C166.073 182.487 166.179 182.818 166.307 183.095C166.457 183.351 166.681 183.522 166.979 183.607C167.278 183.671 167.694 183.596 168.227 183.383V185.559C167.737 185.986 167.171 186.263 166.531 186.391C165.891 186.519 165.273 186.476 164.675 186.263C164.078 186.05 163.577 185.634 163.171 185.015C162.787 184.375 162.595 183.5 162.595 182.391C162.595 181.815 162.563 181.314 162.499 180.887C162.457 180.439 162.329 180.076 162.115 179.799C161.923 179.5 161.614 179.276 161.187 179.127C160.782 178.956 160.217 178.86 159.491 178.839C158.787 178.796 157.87 178.807 156.739 178.871V186.167H152.867ZM156.739 176.119H159.459C160.483 176.119 161.315 176.087 161.955 176.023C162.617 175.959 163.107 175.767 163.427 175.447C163.747 175.127 163.907 174.594 163.907 173.847C163.907 172.972 163.715 172.364 163.331 172.023C162.947 171.66 162.382 171.447 161.635 171.383C160.889 171.319 159.961 171.287 158.851 171.287H156.739V176.119ZM186.896 168.151H190.992L188.944 173.047L186.672 186.167H180.464L176.528 168.151H180.624L183.536 184.567L186.896 168.151ZM197.2 168.151H201.296L197.488 186.167H191.28L188.944 173.047L186.832 168.151H190.992L194.384 184.567L197.2 168.151ZM211.521 186.615C208.577 186.615 206.327 185.772 204.769 184.087C203.212 182.38 202.433 180.087 202.433 177.207C202.433 175.308 202.764 173.666 203.425 172.279C204.108 170.871 205.121 169.783 206.465 169.015C207.809 168.226 209.495 167.831 211.521 167.831C214.487 167.831 216.737 168.684 218.273 170.391C219.809 172.076 220.577 174.348 220.577 177.207C220.577 179.063 220.236 180.706 219.553 182.135C218.871 183.543 217.857 184.642 216.513 185.431C215.169 186.22 213.505 186.615 211.521 186.615ZM211.457 182.871C212.652 182.871 213.644 182.626 214.433 182.135C215.223 181.644 215.809 180.972 216.193 180.119C216.577 179.244 216.769 178.274 216.769 177.207C216.769 176.14 216.577 175.17 216.193 174.295C215.809 173.42 215.223 172.727 214.433 172.215C213.665 171.703 212.673 171.447 211.457 171.447C209.751 171.447 208.439 171.98 207.521 173.047C206.625 174.114 206.177 175.5 206.177 177.207C206.177 178.252 206.369 179.212 206.753 180.087C207.159 180.94 207.745 181.623 208.513 182.135C209.281 182.626 210.263 182.871 211.457 182.871ZM223.305 186.167V168.151H230.281C231.859 168.151 233.203 168.332 234.313 168.695C235.422 169.036 236.275 169.602 236.873 170.391C237.491 171.159 237.801 172.204 237.801 173.527C237.801 174.551 237.641 175.436 237.321 176.183C237.001 176.93 236.531 177.506 235.913 177.911C235.315 178.316 234.601 178.519 233.769 178.519C234.345 178.519 234.793 178.636 235.113 178.871C235.433 179.084 235.678 179.383 235.849 179.767C236.019 180.13 236.137 180.514 236.201 180.919C236.286 181.324 236.361 181.719 236.425 182.103C236.51 182.487 236.617 182.818 236.745 183.095C236.894 183.351 237.118 183.522 237.417 183.607C237.715 183.671 238.131 183.596 238.665 183.383V185.559C238.174 185.986 237.609 186.263 236.969 186.391C236.329 186.519 235.71 186.476 235.113 186.263C234.515 186.05 234.014 185.634 233.609 185.015C233.225 184.375 233.033 183.5 233.033 182.391C233.033 181.815 233.001 181.314 232.937 180.887C232.894 180.439 232.766 180.076 232.553 179.799C232.361 179.5 232.051 179.276 231.625 179.127C231.219 178.956 230.654 178.86 229.929 178.839C229.225 178.796 228.307 178.807 227.177 178.871V186.167H223.305ZM227.177 176.119H229.897C230.921 176.119 231.753 176.087 232.393 176.023C233.054 175.959 233.545 175.767 233.865 175.447C234.185 175.127 234.345 174.594 234.345 173.847C234.345 172.972 234.153 172.364 233.769 172.023C233.385 171.66 232.819 171.447 232.073 171.383C231.326 171.319 230.398 171.287 229.289 171.287H227.177V176.119ZM249.014 168.727V186.167H245.142V168.727H249.014ZM240.054 171.447V168.151H254.134V171.447H240.054ZM260.427 186.167H256.555V168.151H260.427V186.167ZM268.171 168.151H272.011V186.167H268.171V168.151ZM270.571 178.519H258.283V175.575H270.571V178.519Z" fill="white" fill-opacity="0.1"/>
</g>
</svg>
